<?xml version="1.0" encoding="UTF-8" standalone="no"?>
<!DOCTYPE svg PUBLIC "-//W3C//DTD SVG 1.1//EN" "http://www.w3.org/Graphics/SVG/1.1/DTD/svg11.dtd">
<!-- Generated by Microsoft Visio, SVG Export cyberattack-detection-information-flow.svg Page-1 -->
<svg xmlns="http://www.w3.org/2000/svg" xmlns:xlink="http://www.w3.org/1999/xlink" xmlns:ev="http://www.w3.org/2001/xml-events"
		xmlns:v="http://schemas.microsoft.com/visio/2003/SVGExtensions/" width="3.26823in" height="6.76042in"
		viewBox="0 0 235.313 486.75" xml:space="preserve" color-interpolation-filters="sRGB" class="st17">
	<v:documentProperties v:langID="1033" v:viewMarkup="false"/>

	<style type="text/css">
	<![CDATA[
		.st1 {fill:#ffffff;stroke:none;stroke-linecap:round;stroke-linejoin:round;stroke-width:0.75}
		.st2 {visibility:visible}
		.st3 {fill:#000000;fill-opacity:0.15;filter:url(#filter_2);stroke:#000000;stroke-opacity:0.15}
		.st4 {fill:#ffffff;stroke:#f2f2f2;stroke-width:1}
		.st5 {fill:#000000;font-family:Segoe UI Semibold;font-size:1.00001em}
		.st6 {font-size:1em}
		.st7 {font-family:Segoe UI;font-size:1em}
		.st8 {fill:#000000;font-family:Segoe UI;font-size:0.916672em}
		.st9 {fill:url(#grad0-47);stroke:none;stroke-linecap:butt;stroke-width:0.75}
		.st10 {fill:#0078d4;stroke:none;stroke-linecap:butt;stroke-width:0.75}
		.st11 {fill:#000000;fill-opacity:0.5;stroke:none;stroke-linecap:butt;stroke-width:0.75}
		.st12 {fill:#000000;fill-opacity:0.25;stroke:none;stroke-linecap:butt;stroke-width:0.75}
		.st13 {fill:url(#grad0-63);stroke:none;stroke-linecap:butt;stroke-width:0.75}
		.st14 {fill:none;stroke:none;stroke-width:1}
		.st15 {marker-end:url(#mrkr1-78);stroke:#0070c0;stroke-width:1}
		.st16 {fill:#0070c0;fill-opacity:1;stroke:#0070c0;stroke-opacity:1;stroke-width:0.20161290322581}
		.st17 {fill:none;fill-rule:evenodd;font-size:12px;overflow:visible;stroke-linecap:square;stroke-miterlimit:3}
	]]>
	</style>

	<defs id="Patterns_And_Gradients">
		<linearGradient id="grad0-47" x1="0" y1="0" x2="1" y2="0" gradientTransform="rotate(90 0.5 0.5)">
			<stop offset="0" stop-color="#114a8b" stop-opacity="1"/>
			<stop offset="1" stop-color="#0669bc" stop-opacity="1"/>
		</linearGradient>
		<linearGradient id="grad0-63" x1="0" y1="0" x2="1" y2="0" gradientTransform="rotate(90 0.5 0.5)">
			<stop offset="0" stop-color="#3ccbf4" stop-opacity="1"/>
			<stop offset="1" stop-color="#2892df" stop-opacity="1"/>
		</linearGradient>
	</defs>
	<defs id="Markers">
		<g id="lend1">
			<path d="M 1 -1 L 0 0 L 1 1 " style="stroke-linecap:round;stroke-linejoin:round;fill:none"/>
		</g>
		<marker id="mrkr1-78" class="st16" v:arrowType="1" v:arrowSize="4" orient="auto" markerUnits="strokeWidth"
				overflow="visible">
			<use xlink:href="#lend1" transform="scale(-4.96,-4.96) "/>
		</marker>
	</defs>
	<defs id="Filters">
		<filter id="filter_2">
			<feGaussianBlur stdDeviation="2"/>
		</filter>
	</defs>
	<g v:mID="0" v:index="1" v:groupContext="foregroundPage">
		<v:userDefs>
			<v:ud v:nameU="visNavType" v:val="VT0(1):26"/>
		</v:userDefs>
		<title>Page-1</title>
		<v:pageProperties v:drawingScale="1" v:pageScale="1" v:drawingUnits="19" v:shadowOffsetX="9" v:shadowOffsetY="-9"/>
		<v:layer v:name="Shapes" v:index="0" v:glue="false"/>
		<v:layer v:name="Text" v:index="1" v:glue="false"/>
		<v:layer v:name="Icons" v:index="2" v:glue="false"/>
		<g id="shape1322-1" v:mID="1322" v:groupContext="shape" transform="translate(0.375,-0.375)">
			<title>Sheet.1322</title>
			<v:userDefs>
				<v:ud v:nameU="visNavOrder" v:val="VT0(111000):26"/>
			</v:userDefs>
			<rect x="0" y="0.75" width="234.562" height="486" class="st1"/>
		</g>
		<g id="shape1221-3" v:mID="1221" v:groupContext="shape" v:layerMember="0" transform="translate(5.005,-103.045)">
			<title>Sheet.1221</title>
			<desc>Microsoft Defender for Cloud with: Defender for Servers Defen...</desc>
			<v:userDefs>
				<v:ud v:nameU="visNavOrder" v:prompt="" v:val="VT0(96000):26"/>
				<v:ud v:nameU="msvThemeColors" v:val="VT0(254):26"/>
			</v:userDefs>
			<v:textBlock v:margins="rect(4,4,4,4)"/>
			<v:textRect cx="112.5" cy="410.25" width="225.01" height="153"/>
			<g id="shadow1221-4" v:groupContext="shadow" v:shadowOffsetX="4.40873E-24" v:shadowOffsetY="-2" v:shadowType="1"
					v:shadowScale="1.01" transform="matrix(1.01,0,0,1.01,-1.125,-2.1025)" class="st2">
				<rect x="0" y="333.75" width="225" height="153" rx="4.5" ry="4.5" class="st3"/>
			</g>
			<rect x="0" y="333.75" width="225" height="153" rx="4.5" ry="4.5" class="st4"/>
			<text x="59.43" y="356.25" class="st5" v:langID="1033"><v:paragraph v:horizAlign="1"/><v:tabList/>Microsoft Defender<v:lf/><tspan
						x="72.12" dy="1.2em" class="st6">for Cloud with:<v:newlineChar/><v:newlineChar/></tspan><tspan x="58.17"
						dy="2.4em" class="st7">Defender for Servers<v:newlineChar/></tspan><tspan x="46" dy="1.2em" class="st7">Defender for App Service<v:newlineChar/></tspan><tspan
						x="50.06" dy="1.2em" class="st7">Defender for Databases<v:newlineChar/></tspan><tspan x="56.67" dy="1.2em"
						class="st7">Defender for Storage<v:newlineChar/></tspan><tspan x="52.39" dy="1.2em" class="st7">Defender for Key Vault<v:newlineChar/></tspan><tspan
						x="27.75" dy="1.2em" class="st7">Defender for Resource Manager</tspan></text>		</g>
		<g id="shape1274-16" v:mID="1274" v:groupContext="shape" v:layerMember="0" transform="translate(6.77434,-303.03)">
			<title>Sheet.1274</title>
			<v:userDefs>
				<v:ud v:nameU="visNavOrder" v:prompt="" v:val="VT0(97000):26"/>
				<v:ud v:nameU="msvThemeColors" v:val="VT0(254):26"/>
			</v:userDefs>
			<g id="shadow1274-17" v:groupContext="shadow" v:shadowOffsetX="4.40873E-24" v:shadowOffsetY="-2" v:shadowType="1"
					v:shadowScale="1.01" transform="matrix(1.01,0,0,1.01,-1.10731,-1.96781)" class="st2">
				<rect x="0" y="306.813" width="221.461" height="179.937" rx="4.5" ry="4.5" class="st3"/>
			</g>
			<rect x="0" y="306.813" width="221.461" height="179.937" rx="4.5" ry="4.5" class="st4"/>
		</g>
		<g id="shape1275-21" v:mID="1275" v:groupContext="shape" v:layerMember="1" transform="translate(63.909,-411.43)">
			<title>Sheet.1275</title>
			<desc>Azure Services</desc>
			<v:userDefs>
				<v:ud v:nameU="visNavOrder" v:prompt="" v:val="VT0(99000):26"/>
				<v:ud v:nameU="msvThemeColors" v:val="VT0(254):26"/>
			</v:userDefs>
			<v:textBlock v:margins="rect(4,4,4,4)"/>
			<v:textRect cx="55.3653" cy="475.115" width="110.74" height="23.2704"/>
			<rect x="0" y="463.48" width="110.731" height="23.2704" class="st1"/>
			<text x="16.11" y="478.71" class="st5" v:langID="1033"><v:paragraph v:horizAlign="1" v:bulletSize="0.166667"/><v:tabList/>Azure Services</text>		</g>
		<g id="shape1276-24" v:mID="1276" v:groupContext="shape" v:layerMember="1" transform="translate(14.005,-387.181)">
			<title>Sheet.1276</title>
			<desc>SQL Storage Network traffic Industrial IoT Azure App Services...</desc>
			<v:userDefs>
				<v:ud v:nameU="visNavOrder" v:prompt="" v:val="VT0(100000):26"/>
				<v:ud v:nameU="msvThemeColors" v:val="VT0(254):26"/>
			</v:userDefs>
			<v:textBlock v:margins="rect(4,4,4,4)" v:verticalAlign="0"/>
			<v:textRect cx="51.905" cy="475.115" width="103.81" height="23.2704"/>
			<rect x="0" y="463.48" width="103.81" height="23.2704" class="st1"/>
			<text x="4" y="477.38" class="st8" v:langID="1033"><v:paragraph v:bulletSize="0.166667"/><v:tabList/>SQL<v:newlineChar/><tspan
						x="4" dy="1.2em" class="st6">Storage<v:newlineChar/></tspan><tspan x="4" dy="1.2em" class="st6">Network traffic<v:newlineChar/></tspan><tspan
						x="4" dy="1.2em" class="st6">Industrial IoT<v:newlineChar/></tspan><tspan x="4" dy="1.2em" class="st6">Azure App Services<v:newlineChar/></tspan><tspan
						x="4" dy="1.2em" class="st6">Azure Arc</tspan>-enabled <tspan x="4" dy="1.2em" class="st6">resources</tspan></text>		</g>
		<g id="shape1277-33" v:mID="1277" v:groupContext="shape" v:layerMember="1" transform="translate(119.47,-387.181)">
			<title>Sheet.1277</title>
			<desc>Server VMs Azure Storage Azure DNS Azure Resource Manager Azu...</desc>
			<v:userDefs>
				<v:ud v:nameU="visNavOrder" v:prompt="" v:val="VT0(101000):26"/>
				<v:ud v:nameU="msvThemeColors" v:val="VT0(254):26"/>
			</v:userDefs>
			<v:textBlock v:margins="rect(4,4,4,4)" v:verticalAlign="0"/>
			<v:textRect cx="51.905" cy="475.115" width="103.81" height="23.2704"/>
			<rect x="0" y="463.48" width="103.81" height="23.2704" class="st1"/>
			<text x="4" y="477.38" class="st8" v:langID="1033"><v:paragraph v:bulletSize="0.166667"/><v:tabList/>Server VMs<v:newlineChar/><tspan
						x="4" dy="1.2em" class="st6">Azure Storage<v:newlineChar/></tspan><tspan x="4" dy="1.2em" class="st6">Azure DNS<v:newlineChar/></tspan><tspan
						x="4" dy="1.2em" class="st6">Azure Resource </tspan><tspan x="4" dy="1.2em" class="st6">Manager<v:newlineChar/></tspan><tspan
						x="4" dy="1.2em" class="st6">Azure Key Vault<v:newlineChar/></tspan><tspan x="4" dy="1.2em" class="st6">Azure App Service</tspan></text>		</g>
		<g id="group1278-42" transform="translate(100.838,-438.07)" v:mID="1278" v:groupContext="group" v:layerMember="2">
			<v:userDefs>
				<v:ud v:nameU="msvDisableCustomConnectionPoints" v:prompt="" v:val="VT4(True)"/>
				<v:ud v:nameU="visNavOrder" v:val="VT0(103000):26"/>
			</v:userDefs>
			<title>Azure.1278</title>
			<g id="group1279-43" transform="translate(0,1.19035)" v:mID="1279" v:groupContext="group" v:layerMember="2">
				<title>Sheet.1279</title>
				<g id="shape1280-44" v:mID="1280" v:groupContext="shape" v:layerMember="2">
					<title>Sheet.1280</title>
					<path d="M12.25 449.88 L23.24 449.88 L11.85 485.51 A2.52523 2.66679 0 0 1 9.98 486.75 L1.63 486.75 A1.67957 1.77372
								 0 0 1 0 484.41 L10.62 451.11 A2.99554 3.16346 -180 0 0 11.96 450.75 L12.25 449.88 Z" class="st9"/>
				</g>
				<g id="shape1281-48" v:mID="1281" v:groupContext="shape" v:layerMember="2"
						transform="translate(9.36324,5.68434E-14)">
					<title>Sheet.1281</title>
					<path d="M18.06 473.09 L0.74 473.09 A1.05998 1.1194 -180 0 0 0.19 474.84 L12.07 486.26 a0.703046 0.742456 -180
								 0 0 0.860298 0.488288 L23.05 486.75 L18.06 473.09 Z" class="st10"/>
				</g>
				<g id="group1282-50" transform="translate(13.2681,5.68434E-14)" v:mID="1282" v:groupContext="group"
						v:layerMember="2">
					<title>Sheet.1282</title>
					<g id="shape1283-51" v:mID="1283" v:groupContext="shape" v:layerMember="2"
							transform="translate(7.56045,5.68434E-14)">
						<title>Sheet.1283</title>
						<path d="M3.51 486.75 L11.58 486.75 L6.58 473.09 L0 473.09 L3.81 485 A2.1798 2.302 0 0 1 3.43 486.75 L3.51
									 486.75 Z" class="st11"/>
					</g>
					<g id="shape1284-53" v:mID="1284" v:groupContext="shape" v:layerMember="2"
							transform="translate(9.49241E-14,-21.4998)">
						<title>Sheet.1284</title>
						<path d="M5.05 486.75 L9.97 471.38 L0 471.38 A3.92909 4.14934 -180 0 0 0.33 472.34 L5.05 486.75 Z"
								class="st11"/>
					</g>
				</g>
				<g id="group1285-55" transform="translate(12.6457,5.68434E-14)" v:mID="1285" v:groupContext="group"
						v:layerMember="2">
					<title>Sheet.1285</title>
					<g id="shape1286-56" v:mID="1286" v:groupContext="shape" v:layerMember="2" transform="translate(0,-20.4876)">
						<title>Sheet.1286</title>
						<path d="M0 470.36 L5.36 486.75 L6.1 484.42 L1.61 470.36 L0 470.36 Z" class="st12"/>
					</g>
					<g id="shape1287-58" v:mID="1287" v:groupContext="shape" v:layerMember="2"
							transform="translate(7.49981,5.68434E-14)">
						<title>Sheet.1287</title>
						<path d="M2.65 486.75 L4.96 486.75 A3.29404 3.47869 -180 0 0 4.98 484.82 L1.37 473.09 L0 473.09 L3.88 485.21
									 A1.20109 1.26842 0 0 1 2.77 486.75 L2.65 486.75 Z" class="st12"/>
					</g>
				</g>
				<g id="shape1288-60" v:mID="1288" v:groupContext="shape" v:layerMember="2"
						transform="translate(12.3812,5.68434E-14)">
					<title>Sheet.1288</title>
					<path d="M13.87 451.11 A3.51606 3.71316 0 0 1 11.95 450.75 L0 449.88 A16.5815 17.511 0 0 1 1.61 451.97 L12.26
								 484.32 A2.12192 2.24087 0 0 1 10.35 486.75 L22.86 486.75 A1.86502 1.96957 -180 0 0 23.91 484.41
								 L13.87 451.11 Z" class="st13"/>
				</g>
			</g>
		</g>
		<g id="shape1317-64" v:mID="1317" v:groupContext="shape" v:layerMember="0" transform="translate(5.005,-6.13953)">
			<title>Sheet.1317</title>
			<desc>Microsoft Sentinel</desc>
			<v:userDefs>
				<v:ud v:nameU="visNavOrder" v:prompt="" v:val="VT0(42000):26"/>
				<v:ud v:nameU="msvThemeColors" v:val="VT0(254):26"/>
			</v:userDefs>
			<v:textBlock v:margins="rect(4,4,4,4)"/>
			<v:textRect cx="112.5" cy="460.798" width="225.01" height="51.905"/>
			<g id="shadow1317-65" v:groupContext="shadow" v:shadowOffsetX="4.40873E-24" v:shadowOffsetY="-2" v:shadowType="1"
					v:shadowScale="1.01" transform="matrix(1.01,0,0,1.01,-1.125,-2.60798)" class="st2">
				<rect x="0" y="434.845" width="225" height="51.905" rx="4.5" ry="4.5" class="st3"/>
			</g>
			<rect x="0" y="434.845" width="225" height="51.905" rx="4.5" ry="4.5" class="st4"/>
			<text x="62.76" y="464.4" class="st5" v:langID="1033"><v:paragraph v:horizAlign="1"/><v:tabList/>Microsoft Sentinel</text>		</g>
		<g id="shape1318-70" v:mID="1318" v:groupContext="shape" v:layerMember="1" transform="translate(118.113,-70.0238)">
			<title>Sheet.1318</title>
			<desc>SIEM data</desc>
			<v:userDefs>
				<v:ud v:nameU="visNavOrder" v:val="VT0(44000):26"/>
				<v:ud v:nameU="msvThemeColors" v:val="VT0(254):26"/>
			</v:userDefs>
			<v:textBlock v:margins="rect(4,4,4,4)"/>
			<v:textRect cx="36.2144" cy="475.504" width="72.43" height="22.4922"/>
			<rect x="0" y="464.258" width="72.4288" height="22.4922" rx="4.5" ry="4.5" class="st14"/>
			<text x="4" y="479.1" class="st5" v:langID="1033"><v:paragraph/><v:tabList/>SIEM data</text>		</g>
		<g id="shape1319-73" v:mID="1319" v:groupContext="shape" transform="translate(604.255,184.22) rotate(90)">
			<title>Sheet.1319</title>
			<v:userDefs>
				<v:ud v:nameU="visNavOrder" v:val="VT0(108000):26"/>
			</v:userDefs>
			<path d="M0 486.75 L45.99 486.75" class="st15"/>
		</g>
		<g id="shape1320-79" v:mID="1320" v:groupContext="shape" transform="translate(604.255,384.668) rotate(90)">
			<title>Sheet.1320</title>
			<v:userDefs>
				<v:ud v:nameU="visNavOrder" v:val="VT0(109000):26"/>
			</v:userDefs>
			<path d="M0 486.75 L41.63 486.75" class="st15"/>
		</g>
		<g id="shape1321-84" v:mID="1321" v:groupContext="shape" v:layerMember="1" transform="translate(118.113,-266.573)">
			<title>Sheet.1321</title>
			<desc>Signals</desc>
			<v:userDefs>
				<v:ud v:nameU="visNavOrder" v:val="VT0(110000):26"/>
				<v:ud v:nameU="msvThemeColors" v:val="VT0(254):26"/>
			</v:userDefs>
			<v:textBlock v:margins="rect(4,4,4,4)"/>
			<v:textRect cx="36.2144" cy="475.504" width="72.43" height="22.4922"/>
			<rect x="0" y="464.258" width="72.4288" height="22.4922" rx="4.5" ry="4.5" class="st14"/>
			<text x="4" y="479.1" class="st5" v:langID="1033"><v:paragraph/><v:tabList/>Signals</text>		</g>
	</g>
</svg>
