<?xml version="1.0" encoding="UTF-8" standalone="no"?>
<!DOCTYPE svg PUBLIC "-//W3C//DTD SVG 1.1//EN" "http://www.w3.org/Graphics/SVG/1.1/DTD/svg11.dtd">
<!-- Generated by Microsoft Visio, SVG Export cyberattack-detection-information-flow.svg Page-1 -->
<svg xmlns="http://www.w3.org/2000/svg" xmlns:xlink="http://www.w3.org/1999/xlink" xmlns:ev="http://www.w3.org/2001/xml-events"
		xmlns:v="http://schemas.microsoft.com/visio/2003/SVGExtensions/" width="3.26823in" height="6.98552in"
		viewBox="0 0 235.313 502.957" xml:space="preserve" color-interpolation-filters="sRGB" class="st17">
	<v:documentProperties v:langID="1033" v:viewMarkup="false"/>

	<style type="text/css">
	<![CDATA[
		.st1 {fill:#ffffff;stroke:none;stroke-linecap:round;stroke-linejoin:round;stroke-width:0.75}
		.st2 {visibility:visible}
		.st3 {fill:#000000;fill-opacity:0.15;filter:url(#filter_2);stroke:#000000;stroke-opacity:0.15}
		.st4 {fill:#ffffff;stroke:#f2f2f2;stroke-width:1}
		.st5 {fill:#000000;font-family:Segoe UI Semibold;font-size:1.00001em}
		.st6 {font-size:1em}
		.st7 {font-family:Segoe UI;font-size:1em}
		.st8 {fill:#000000;font-family:Segoe UI;font-size:0.916672em}
		.st9 {fill:url(#grad0-49);stroke:none;stroke-linecap:butt;stroke-width:0.75}
		.st10 {fill:#0078d4;stroke:none;stroke-linecap:butt;stroke-width:0.75}
		.st11 {fill:#000000;fill-opacity:0.5;stroke:none;stroke-linecap:butt;stroke-width:0.75}
		.st12 {fill:#000000;fill-opacity:0.25;stroke:none;stroke-linecap:butt;stroke-width:0.75}
		.st13 {fill:url(#grad0-65);stroke:none;stroke-linecap:butt;stroke-width:0.75}
		.st14 {fill:none;stroke:none;stroke-width:1}
		.st15 {marker-end:url(#mrkr1-80);stroke:#0070c0;stroke-width:1}
		.st16 {fill:#0070c0;fill-opacity:1;stroke:#0070c0;stroke-opacity:1;stroke-width:0.20161290322581}
		.st17 {fill:none;fill-rule:evenodd;font-size:12px;overflow:visible;stroke-linecap:square;stroke-miterlimit:3}
	]]>
	</style>

	<defs id="Patterns_And_Gradients">
		<linearGradient id="grad0-49" x1="0" y1="0" x2="1" y2="0" gradientTransform="rotate(90 0.5 0.5)">
			<stop offset="0" stop-color="#114a8b" stop-opacity="1"/>
			<stop offset="1" stop-color="#0669bc" stop-opacity="1"/>
		</linearGradient>
		<linearGradient id="grad0-65" x1="0" y1="0" x2="1" y2="0" gradientTransform="rotate(90 0.5 0.5)">
			<stop offset="0" stop-color="#3ccbf4" stop-opacity="1"/>
			<stop offset="1" stop-color="#2892df" stop-opacity="1"/>
		</linearGradient>
	</defs>
	<defs id="Markers">
		<g id="lend1">
			<path d="M 1 -1 L 0 0 L 1 1 " style="stroke-linecap:round;stroke-linejoin:round;fill:none"/>
		</g>
		<marker id="mrkr1-80" class="st16" v:arrowType="1" v:arrowSize="4" orient="auto" markerUnits="strokeWidth"
				overflow="visible">
			<use xlink:href="#lend1" transform="scale(-4.96,-4.96) "/>
		</marker>
	</defs>
	<defs id="Filters">
		<filter id="filter_2">
			<feGaussianBlur stdDeviation="2"/>
		</filter>
	</defs>
	<g v:mID="0" v:index="1" v:groupContext="foregroundPage">
		<v:userDefs>
			<v:ud v:nameU="visNavType" v:val="VT0(1):26"/>
		</v:userDefs>
		<title>Page-1</title>
		<v:pageProperties v:drawingScale="1" v:pageScale="1" v:drawingUnits="19" v:shadowOffsetX="9" v:shadowOffsetY="-9"/>
		<v:layer v:name="Shapes" v:index="0" v:glue="false"/>
		<v:layer v:name="Text" v:index="1" v:glue="false"/>
		<v:layer v:name="Icons" v:index="2" v:glue="false"/>
		<g id="shape1322-1" v:mID="1322" v:groupContext="shape" transform="translate(0.375,-16.5824)">
			<title>Sheet.1322</title>
			<v:userDefs>
				<v:ud v:nameU="visNavOrder" v:val="VT0(111000):26"/>
			</v:userDefs>
			<rect x="0" y="16.9574" width="234.562" height="486" class="st1"/>
		</g>
		<g id="shape1221-3" v:mID="1221" v:groupContext="shape" v:layerMember="0" transform="translate(5.005,-101.707)">
			<title>Sheet.1221</title>
			<desc>Microsoft Defender for Cloud with: Defender for Servers Defen...</desc>
			<v:userDefs>
				<v:ud v:nameU="visNavOrder" v:prompt="" v:val="VT0(96000):26"/>
				<v:ud v:nameU="msvThemeColors" v:val="VT0(254):26"/>
			</v:userDefs>
			<v:textBlock v:margins="rect(4,4,4,4)"/>
			<v:textRect cx="112.5" cy="421.77" width="225.01" height="162.375"/>
			<g id="shadow1221-4" v:groupContext="shadow" v:shadowOffsetX="4.40873E-24" v:shadowOffsetY="-2" v:shadowType="1"
					v:shadowScale="1.01" transform="matrix(1.01,0,0,1.01,-1.125,-2.2177)" class="st2">
				<rect x="0" y="340.582" width="225" height="162.375" rx="4.5" ry="4.5" class="st3"/>
			</g>
			<rect x="0" y="340.582" width="225" height="162.375" rx="4.5" ry="4.5" class="st4"/>
			<text x="59.43" y="360.57" class="st5" v:langID="1033"><v:paragraph v:horizAlign="1"/><v:tabList/>Microsoft Defender<v:lf/><tspan
						x="72.12" dy="1.2em" class="st6">for Cloud with:<v:newlineChar/><v:newlineChar/></tspan><tspan x="58.17"
						dy="2.4em" class="st7">Defender for Servers<v:newlineChar/></tspan><tspan x="46" dy="1.2em" class="st7">Defender for App Service<v:newlineChar/></tspan><tspan
						x="50.06" dy="1.2em" class="st7">Defender for Databases<v:newlineChar/></tspan><tspan x="56.67" dy="1.2em"
						class="st7">Defender for Storage<v:newlineChar/></tspan><tspan x="52.39" dy="1.2em" class="st7">Defender for Key Vault<v:newlineChar/></tspan><tspan
						x="27.75" dy="1.2em" class="st7">Defender for Resource Manager<v:newlineChar/></tspan><tspan x="84.16"
						dy="1.2em" class="st7">and others</tspan></text>		</g>
		<g id="shape1274-17" v:mID="1274" v:groupContext="shape" v:layerMember="0" transform="translate(6.77434,-313.207)">
			<title>Sheet.1274</title>
			<v:userDefs>
				<v:ud v:nameU="visNavOrder" v:prompt="" v:val="VT0(97000):26"/>
				<v:ud v:nameU="msvThemeColors" v:val="VT0(254):26"/>
			</v:userDefs>
			<g id="shadow1274-18" v:groupContext="shadow" v:shadowOffsetX="4.40873E-24" v:shadowOffsetY="-2" v:shadowType="1"
					v:shadowScale="1.01" transform="matrix(1.01,0,0,1.01,-1.10731,-2.09974)" class="st2">
				<rect x="0" y="316.99" width="221.461" height="185.967" rx="4.5" ry="4.5" class="st3"/>
			</g>
			<rect x="0" y="316.99" width="221.461" height="185.967" rx="4.5" ry="4.5" class="st4"/>
		</g>
		<g id="shape1275-22" v:mID="1275" v:groupContext="shape" v:layerMember="1" transform="translate(63.909,-427.638)">
			<title>Sheet.1275</title>
			<desc>Azure Services</desc>
			<v:userDefs>
				<v:ud v:nameU="visNavOrder" v:prompt="" v:val="VT0(99000):26"/>
				<v:ud v:nameU="msvThemeColors" v:val="VT0(254):26"/>
			</v:userDefs>
			<v:textBlock v:margins="rect(4,4,4,4)"/>
			<v:textRect cx="55.3653" cy="491.322" width="110.74" height="23.2704"/>
			<rect x="0" y="479.687" width="110.731" height="23.2704" class="st1"/>
			<text x="16.11" y="494.92" class="st5" v:langID="1033"><v:paragraph v:horizAlign="1" v:bulletSize="0.166667"/><v:tabList/>Azure Services</text>		</g>
		<g id="shape1276-25" v:mID="1276" v:groupContext="shape" v:layerMember="1" transform="translate(14.005,-403.389)">
			<title>Sheet.1276</title>
			<desc>SQL Storage Network traffic Industrial IoT Azure App Services...</desc>
			<v:userDefs>
				<v:ud v:nameU="visNavOrder" v:prompt="" v:val="VT0(100000):26"/>
				<v:ud v:nameU="msvThemeColors" v:val="VT0(254):26"/>
			</v:userDefs>
			<v:textBlock v:margins="rect(4,4,4,4)" v:verticalAlign="0"/>
			<v:textRect cx="51.905" cy="491.322" width="103.81" height="23.2704"/>
			<rect x="0" y="479.687" width="103.81" height="23.2704" class="st1"/>
			<text x="4" y="493.59" class="st8" v:langID="1033"><v:paragraph v:bulletSize="0.166667"/><v:tabList/>SQL<v:newlineChar/><tspan
						x="4" dy="1.2em" class="st6">Storage<v:newlineChar/></tspan><tspan x="4" dy="1.2em" class="st6">Network traffic<v:newlineChar/></tspan><tspan
						x="4" dy="1.2em" class="st6">Industrial IoT<v:newlineChar/></tspan><tspan x="4" dy="1.2em" class="st6">Azure App Services<v:newlineChar/></tspan><tspan
						x="4" dy="1.2em" class="st6">Azure Arc</tspan>-enabled <tspan x="4" dy="1.2em" class="st6">resources</tspan></text>		</g>
		<g id="shape1277-34" v:mID="1277" v:groupContext="shape" v:layerMember="1" transform="translate(119.47,-403.389)">
			<title>Sheet.1277</title>
			<desc>Server VMs Azure Storage Azure DNS Azure Resource Manager Azu...</desc>
			<v:userDefs>
				<v:ud v:nameU="visNavOrder" v:prompt="" v:val="VT0(101000):26"/>
				<v:ud v:nameU="msvThemeColors" v:val="VT0(254):26"/>
			</v:userDefs>
			<v:textBlock v:margins="rect(4,4,4,4)" v:verticalAlign="0"/>
			<v:textRect cx="51.905" cy="491.322" width="103.81" height="23.2704"/>
			<rect x="0" y="479.687" width="103.81" height="23.2704" class="st1"/>
			<text x="4" y="493.59" class="st8" v:langID="1033"><v:paragraph v:bulletSize="0.166667"/><v:tabList/>Server VMs<v:newlineChar/><tspan
						x="4" dy="1.2em" class="st6">Azure Storage<v:newlineChar/></tspan><tspan x="4" dy="1.2em" class="st6">Azure DNS<v:newlineChar/></tspan><tspan
						x="4" dy="1.2em" class="st6">Azure Resource </tspan><tspan x="4" dy="1.2em" class="st6">Manager<v:newlineChar/></tspan><tspan
						x="4" dy="1.2em" class="st6">Azure Key Vault<v:newlineChar/></tspan><tspan x="4" dy="1.2em" class="st6">Azure App Service<v:newlineChar/></tspan><tspan
						x="4" dy="1.2em" class="st6">and others</tspan></text>		</g>
		<g id="group1278-44" transform="translate(100.838,-454.278)" v:mID="1278" v:groupContext="group" v:layerMember="2">
			<v:userDefs>
				<v:ud v:nameU="msvDisableCustomConnectionPoints" v:prompt="" v:val="VT4(True)"/>
				<v:ud v:nameU="visNavOrder" v:val="VT0(103000):26"/>
			</v:userDefs>
			<title>Azure.1278</title>
			<g id="group1279-45" transform="translate(0,1.19035)" v:mID="1279" v:groupContext="group" v:layerMember="2">
				<title>Sheet.1279</title>
				<g id="shape1280-46" v:mID="1280" v:groupContext="shape" v:layerMember="2">
					<title>Sheet.1280</title>
					<path d="M12.25 466.08 L23.24 466.08 L11.85 501.72 A2.52523 2.66679 0 0 1 9.98 502.96 L1.63 502.96 A1.67957 1.77372
								 0 0 1 0 500.62 L10.62 467.32 A2.99554 3.16346 -180 0 0 11.96 466.96 L12.25 466.08 Z" class="st9"/>
				</g>
				<g id="shape1281-50" v:mID="1281" v:groupContext="shape" v:layerMember="2"
						transform="translate(9.36324,5.68434E-14)">
					<title>Sheet.1281</title>
					<path d="M18.06 489.3 L0.74 489.3 A1.05998 1.1194 -180 0 0 0.19 491.05 L12.07 502.47 a0.703046 0.742456 -180
								 0 0 0.860298 0.488288 L23.05 502.96 L18.06 489.3 Z" class="st10"/>
				</g>
				<g id="group1282-52" transform="translate(13.2681,5.68434E-14)" v:mID="1282" v:groupContext="group"
						v:layerMember="2">
					<title>Sheet.1282</title>
					<g id="shape1283-53" v:mID="1283" v:groupContext="shape" v:layerMember="2"
							transform="translate(7.56045,5.68434E-14)">
						<title>Sheet.1283</title>
						<path d="M3.51 502.96 L11.58 502.96 L6.58 489.3 L0 489.3 L3.81 501.2 A2.1798 2.302 0 0 1 3.43 502.96 L3.51
									 502.96 Z" class="st11"/>
					</g>
					<g id="shape1284-55" v:mID="1284" v:groupContext="shape" v:layerMember="2"
							transform="translate(9.49241E-14,-21.4998)">
						<title>Sheet.1284</title>
						<path d="M5.05 502.96 L9.97 487.58 L0 487.58 A3.92909 4.14934 -180 0 0 0.33 488.55 L5.05 502.96 Z"
								class="st11"/>
					</g>
				</g>
				<g id="group1285-57" transform="translate(12.6457,5.68434E-14)" v:mID="1285" v:groupContext="group"
						v:layerMember="2">
					<title>Sheet.1285</title>
					<g id="shape1286-58" v:mID="1286" v:groupContext="shape" v:layerMember="2" transform="translate(0,-20.4876)">
						<title>Sheet.1286</title>
						<path d="M0 486.57 L5.36 502.96 L6.1 500.63 L1.61 486.57 L0 486.57 Z" class="st12"/>
					</g>
					<g id="shape1287-60" v:mID="1287" v:groupContext="shape" v:layerMember="2"
							transform="translate(7.49981,5.68434E-14)">
						<title>Sheet.1287</title>
						<path d="M2.65 502.96 L4.96 502.96 A3.29404 3.47869 -180 0 0 4.98 501.03 L1.37 489.3 L0 489.3 L3.88 501.42
									 A1.20109 1.26842 0 0 1 2.77 502.96 L2.65 502.96 Z" class="st12"/>
					</g>
				</g>
				<g id="shape1288-62" v:mID="1288" v:groupContext="shape" v:layerMember="2"
						transform="translate(12.3812,5.68434E-14)">
					<title>Sheet.1288</title>
					<path d="M13.87 467.32 A3.51606 3.71316 0 0 1 11.95 466.96 L0 466.08 A16.5815 17.511 0 0 1 1.61 468.18 L12.26
								 500.52 A2.12192 2.24087 0 0 1 10.35 502.96 L22.86 502.96 A1.86502 1.96957 -180 0 0 23.91 500.62
								 L13.87 467.32 Z" class="st13"/>
				</g>
			</g>
		</g>
		<g id="shape1317-66" v:mID="1317" v:groupContext="shape" v:layerMember="0" transform="translate(5.005,-5.76452)">
			<title>Sheet.1317</title>
			<desc>Microsoft Sentinel</desc>
			<v:userDefs>
				<v:ud v:nameU="visNavOrder" v:prompt="" v:val="VT0(42000):26"/>
				<v:ud v:nameU="msvThemeColors" v:val="VT0(254):26"/>
			</v:userDefs>
			<v:textBlock v:margins="rect(4,4,4,4)"/>
			<v:textRect cx="112.5" cy="477.005" width="225.01" height="51.905"/>
			<g id="shadow1317-67" v:groupContext="shadow" v:shadowOffsetX="4.40873E-24" v:shadowOffsetY="-2" v:shadowType="1"
					v:shadowScale="1.01" transform="matrix(1.01,0,0,1.01,-1.125,-2.77005)" class="st2">
				<rect x="0" y="451.052" width="225" height="51.905" rx="4.5" ry="4.5" class="st3"/>
			</g>
			<rect x="0" y="451.052" width="225" height="51.905" rx="4.5" ry="4.5" class="st4"/>
			<text x="62.76" y="480.61" class="st5" v:langID="1033"><v:paragraph v:horizAlign="1"/><v:tabList/>Microsoft Sentinel</text>		</g>
		<g id="shape1318-72" v:mID="1318" v:groupContext="shape" v:layerMember="1" transform="translate(118.113,-69.6488)">
			<title>Sheet.1318</title>
			<desc>SIEM data</desc>
			<v:userDefs>
				<v:ud v:nameU="visNavOrder" v:val="VT0(44000):26"/>
				<v:ud v:nameU="msvThemeColors" v:val="VT0(254):26"/>
			</v:userDefs>
			<v:textBlock v:margins="rect(4,4,4,4)"/>
			<v:textRect cx="36.2144" cy="491.711" width="72.43" height="22.4922"/>
			<rect x="0" y="480.465" width="72.4288" height="22.4922" rx="4.5" ry="4.5" class="st14"/>
			<text x="4" y="495.31" class="st5" v:langID="1033"><v:paragraph/><v:tabList/>SIEM data</text>		</g>
		<g id="shape1319-75" v:mID="1319" v:groupContext="shape" transform="translate(620.462,190.65) rotate(90)">
			<title>Sheet.1319</title>
			<v:userDefs>
				<v:ud v:nameU="visNavOrder" v:val="VT0(108000):26"/>
			</v:userDefs>
			<path d="M0 502.96 L45.99 502.96" class="st15"/>
		</g>
		<g id="shape1320-81" v:mID="1320" v:groupContext="shape" transform="translate(620.462,402.375) rotate(90)">
			<title>Sheet.1320</title>
			<v:userDefs>
				<v:ud v:nameU="visNavOrder" v:val="VT0(109000):26"/>
			</v:userDefs>
			<path d="M0 502.96 L41.63 502.96" class="st15"/>
		</g>
		<g id="shape1321-86" v:mID="1321" v:groupContext="shape" v:layerMember="1" transform="translate(118.113,-276.35)">
			<title>Sheet.1321</title>
			<desc>Signals</desc>
			<v:userDefs>
				<v:ud v:nameU="visNavOrder" v:val="VT0(110000):26"/>
				<v:ud v:nameU="msvThemeColors" v:val="VT0(254):26"/>
			</v:userDefs>
			<v:textBlock v:margins="rect(4,4,4,4)"/>
			<v:textRect cx="36.2144" cy="491.711" width="72.43" height="22.4922"/>
			<rect x="0" y="480.465" width="72.4288" height="22.4922" rx="4.5" ry="4.5" class="st14"/>
			<text x="4" y="495.31" class="st5" v:langID="1033"><v:paragraph/><v:tabList/>Signals</text>		</g>
	</g>
</svg>
