<svg width="103" height="103" xmlns="http://www.w3.org/2000/svg" xmlns:xlink="http://www.w3.org/1999/xlink" xml:space="preserve" overflow="hidden"><defs><clipPath id="clip0"><rect x="0" y="0" width="103" height="103"/></clipPath><linearGradient x1="49.462" y1="-12.9137" x2="53.444" y2="132.857" gradientUnits="userSpaceOnUse" spreadMethod="pad" id="fill1"><stop offset="0" stop-color="#00ABDE"/><stop offset="1" stop-color="#007ED8"/></linearGradient><linearGradient x1="2.66457" y1="-19.7486" x2="98.1926" y2="121.133" gradientUnits="userSpaceOnUse" spreadMethod="pad" id="fill2"><stop offset="0" stop-color="#007ED8"/><stop offset="0.7065" stop-color="#002D4C"/><stop offset="1" stop-color="#002D4C"/></linearGradient><linearGradient x1="51.2172" y1="69.3372" x2="51.2172" y2="22.2073" gradientUnits="userSpaceOnUse" spreadMethod="pad" id="fill3"><stop offset="0" stop-color="#0078D4"/><stop offset="0.16" stop-color="#1380DA"/><stop offset="0.53" stop-color="#3C91E5"/><stop offset="0.82" stop-color="#559CEC"/><stop offset="1" stop-color="#5EA0EF"/></linearGradient><radialGradient cx="0" cy="0" r="1" gradientUnits="userSpaceOnUse" spreadMethod="pad" id="fill4" gradientTransform="matrix(14.6795 0 0 14.6795 51.2156 60.4574)"><stop offset="0" stop-color="#5EA0EF"/><stop offset="0.18" stop-color="#5EA0EF"/><stop offset="1" stop-color="#0078D4"/></radialGradient><linearGradient x1="43.313" y1="64.7376" x2="43.2612" y2="57.9212" gradientUnits="userSpaceOnUse" spreadMethod="pad" id="fill5"><stop offset="0" stop-color="#CCCCCC"/><stop offset="1" stop-color="#FCFCFC"/></linearGradient><linearGradient x1="53.1992" y1="71.5891" x2="53.1992" y2="65.4622" gradientUnits="userSpaceOnUse" spreadMethod="pad" id="fill6"><stop offset="0" stop-color="#CCCCCC"/><stop offset="1" stop-color="#FCFCFC"/></linearGradient><linearGradient x1="60.1896" y1="64.1684" x2="60.1896" y2="57.6616" gradientUnits="userSpaceOnUse" spreadMethod="pad" id="fill7"><stop offset="0" stop-color="#CCCCCC"/><stop offset="1" stop-color="#FCFCFC"/></linearGradient><linearGradient x1="43.313" y1="64.7376" x2="43.2612" y2="57.9212" gradientUnits="userSpaceOnUse" spreadMethod="pad" id="fill8"><stop offset="0" stop-color="#CCCCCC"/><stop offset="1" stop-color="#FCFCFC"/></linearGradient><linearGradient x1="53.1992" y1="71.5891" x2="53.1992" y2="65.4622" gradientUnits="userSpaceOnUse" spreadMethod="pad" id="fill9"><stop offset="0" stop-color="#CCCCCC"/><stop offset="1" stop-color="#FCFCFC"/></linearGradient></defs><g clip-path="url(#clip0)"><path d="M51.2319 98.6864C25.3819 98.6864 4.42188 77.7364 4.42188 51.8764 4.42188 26.0164 25.3819 5.06641 51.2319 5.06641 77.0819 5.06641 98.0419 26.0264 98.0419 51.8764 98.0419 77.7264 77.0819 98.6864 51.2319 98.6864Z" fill="url(#fill1)"/><path d="M97.1318 51.8763C97.1318 77.2263 76.5818 97.7763 51.2318 97.7763 25.8818 97.7763 5.3318 77.2263 5.3318 51.8763 5.3318 26.5263 25.8818 5.97633 51.2318 5.97633 76.5818 5.97633 97.1318 26.5263 97.1318 51.8763ZM51.2318 2.23633C78.6518 2.23633 100.872 24.4563 100.872 51.8763 100.872 79.2963 78.6418 101.516 51.2318 101.516 23.8118 101.516 1.5918 79.2863 1.5918 51.8763 1.5918 24.4563 23.8118 2.23633 51.2318 2.23633Z" fill="#F2F1F0" fill-rule="evenodd"/><path d="M94.3214 51.8764C94.3214 75.6764 75.0314 94.9664 51.2314 94.9664 27.4314 94.9664 8.14137 75.6764 8.14137 51.8764 8.14137 28.0764 27.4314 8.78639 51.2314 8.78639 75.0314 8.78639 94.3214 28.0764 94.3214 51.8764ZM51.2314 5.04639C77.0914 5.04639 98.0614 26.0164 98.0614 51.8764 98.0614 77.7364 77.0914 98.7064 51.2314 98.7064 25.3714 98.7064 4.40137 77.7364 4.40137 51.8764 4.40137 26.0164 25.3614 5.04639 51.2314 5.04639Z" fill="url(#fill2)" fill-rule="evenodd"/><path d="M51.2216 90.1268C31.3016 90.1268 15.1416 73.9768 15.1416 54.0468 15.1416 34.1168 31.2916 17.9668 51.2216 17.9668 71.1416 17.9668 87.3016 34.1168 87.3016 54.0468 87.2916 73.9768 71.1416 90.1268 51.2216 90.1268Z" fill="#1F1D20" fill-opacity="0.15"/><path d="M51.2216 87.7367C31.3016 87.7367 15.1416 71.5867 15.1416 51.6567 15.1416 31.7267 31.2916 15.5767 51.2216 15.5767 71.1416 15.5767 87.3016 31.7267 87.3016 51.6567 87.2916 71.5767 71.1416 87.7367 51.2216 87.7367Z" fill="#243A5E"/><path d="M73.3118 52.1865C73.2418 49.8565 72.3318 47.6265 70.7518 45.8965 69.1718 44.1665 67.0218 43.0565 64.6918 42.7465 64.5518 39.4965 63.1318 36.4265 60.7218 34.2065 58.3118 31.9865 55.1218 30.7965 51.8418 30.8965 49.1818 30.8565 46.5718 31.6165 44.3718 33.0865 42.1618 34.5565 40.4718 36.6665 39.5118 39.1265 36.7018 39.4565 34.1018 40.7865 32.2018 42.8565 30.2918 44.9265 29.2018 47.6165 29.1318 50.4165 29.2518 53.5665 30.6318 56.5365 32.9618 58.6765 35.2918 60.8165 38.3918 61.9565 41.5618 61.8365 41.9218 61.8665 42.2918 61.8665 42.6518 61.8365L62.7718 61.8365C62.9418 61.8665 63.1218 61.8665 63.2918 61.8365 65.9018 61.8365 68.4118 60.8265 70.2818 59.0265 72.1518 57.2265 73.2318 54.7765 73.3118 52.1865Z" fill="#1F1D20" fill-opacity="0.15"/><path d="M73.3118 50.5463C73.2418 48.2163 72.3318 45.9863 70.7518 44.2563 69.1718 42.5263 67.0218 41.4163 64.6918 41.1063 64.5518 37.8563 63.1318 34.7863 60.7218 32.5663 58.3118 30.3463 55.1218 29.1563 51.8418 29.2563 49.1818 29.2163 46.5718 29.9763 44.3718 31.4463 42.1718 32.9163 40.4718 35.0263 39.5118 37.4863 36.7018 37.8163 34.1018 39.1463 32.2018 41.2163 30.2918 43.2863 29.2018 45.9763 29.1318 48.7763 29.2518 51.9263 30.6318 54.8963 32.9618 57.0363 35.2918 59.1763 38.3918 60.3163 41.5618 60.1963 41.9218 60.2263 42.2918 60.2263 42.6518 60.1963L62.7718 60.1963C62.9418 60.2263 63.1218 60.2263 63.2918 60.1963 65.9018 60.1963 68.4118 59.1863 70.2818 57.3863 72.1518 55.5763 73.2318 53.1263 73.3118 50.5463Z" fill="url(#fill3)"/><path d="M51.241 76.4566C59.0835 76.4566 65.441 70.0991 65.441 62.2566 65.441 54.4142 59.0835 48.0566 51.241 48.0566 43.3986 48.0566 37.041 54.4142 37.041 62.2566 37.041 70.0991 43.3986 76.4566 51.241 76.4566Z" fill="#1F1D20" fill-opacity="0.15"/><path d="M60.2414 72.0563C57.1614 74.4363 53.2714 75.5063 49.4114 75.0163 45.5514 74.5263 42.0414 72.5263 39.6614 69.4463 37.2814 66.3663 36.2114 62.4763 36.7014 58.6163 37.1914 54.7563 39.1914 51.2463 42.2714 48.8663L42.4314 48.7663C45.5214 46.4563 49.4014 45.4563 53.2314 45.9963 57.0514 46.5263 60.5114 48.5463 62.8614 51.6163 65.2114 54.6863 66.2514 58.5463 65.7614 62.3763 65.2514 66.1863 63.2814 69.6763 60.2414 72.0563Z" fill="url(#fill4)"/><path d="M47.2614 57.4063C51.4114 53.4563 56.9114 51.2463 62.6414 51.2263 61.8914 50.2963 61.0214 49.4563 60.0714 48.7363 57.2814 48.9063 54.5514 49.5463 51.9814 50.6363 49.3314 51.7763 46.9414 53.4263 44.9414 55.5063 45.8914 55.8663 46.7114 56.5363 47.2614 57.4063Z" fill="#FFFFFF" fill-opacity="0.6"/><path d="M40.0013 63.3062C39.4113 64.7762 38.9313 66.2861 38.5713 67.8261 38.8913 68.3761 39.2513 68.9062 39.6413 69.4162 39.9513 69.8162 40.2413 70.1762 40.5913 70.5362 41.0113 68.4862 41.6313 66.4762 42.4513 64.5462 41.5313 64.3862 40.6713 63.9562 40.0013 63.3062Z" fill="#FFFFFF" fill-opacity="0.6"/><path d="M41.6916 55.4665C41.0816 53.8365 40.6816 52.1265 40.5016 50.3965 39.7816 51.1565 39.1416 51.9965 38.6016 52.8965 38.7916 54.2965 39.1216 55.6665 39.5816 57.0065 40.1216 56.3065 40.8516 55.7665 41.6916 55.4665Z" fill="#F2F2F2" fill-opacity="0.55"/><path d="M43.2813 64.6163C45.8813 64.6163 47.9913 62.5063 47.9913 59.9063 47.9913 57.3063 45.8813 55.1963 43.2813 55.1963 40.6813 55.1963 38.5713 57.3063 38.5713 59.9063 38.5713 62.5063 40.6713 64.6163 43.2813 64.6163Z" fill="url(#fill5)"/><path d="M50.1418 68.5162C50.1418 68.1062 50.2218 67.7062 50.3818 67.3262 50.5418 66.9462 50.7718 66.6062 51.0718 66.3262 49.4818 65.4562 48.0118 64.3762 46.7018 63.1162 46.0218 63.8562 45.1218 64.3562 44.1318 64.5462 44.9118 65.3462 45.7418 66.0862 46.6318 66.7562 47.7318 67.5862 48.9218 68.3162 50.1718 68.9162 50.1618 68.7862 50.1518 68.6462 50.1418 68.5162Z" fill="#F2F2F2" fill-opacity="0.55"/><path d="M61.0218 68.8762C59.4218 68.8762 57.8218 68.6962 56.2618 68.3262 56.2718 68.3862 56.2718 68.4562 56.2618 68.5162 56.2618 68.9162 56.1818 69.3062 56.0318 69.6762 55.8818 70.0462 55.6618 70.3762 55.3818 70.6562 57.3218 71.0362 59.3118 71.1762 61.2818 71.0662 62.0518 70.3762 62.7418 69.5962 63.3318 68.7562 62.5618 68.8462 61.7918 68.8862 61.0218 68.8762Z" fill="#F2F2F2" fill-opacity="0.55"/><path d="M53.2018 71.5863C54.9018 71.5863 56.2718 70.2063 56.2718 68.5163 56.2718 66.8163 54.8918 65.4463 53.2018 65.4463 51.5018 65.4463 50.1318 66.8263 50.1318 68.5163 50.1318 70.2163 51.5018 71.5863 53.2018 71.5863Z" fill="url(#fill6)"/><path d="M56.981 60.3363C57.131 59.6563 57.501 59.0563 58.031 58.6063 55.191 56.5363 52.601 54.1463 50.331 51.4663 49.011 49.9163 47.851 48.2263 46.881 46.4263 46.241 46.6163 45.611 46.8663 45.001 47.1463 46.041 49.1063 47.281 50.9463 48.711 52.6363 51.141 55.5363 53.911 58.1263 56.981 60.3363Z" fill="#F2F2F2" fill-opacity="0.7"/><path d="M60.1916 64.1865C61.9916 64.1865 63.4516 62.7265 63.4516 60.9265 63.4516 59.1265 61.9916 57.6665 60.1916 57.6665 58.3916 57.6665 56.9316 59.1265 56.9316 60.9265 56.9316 62.7265 58.3916 64.1865 60.1916 64.1865Z" fill="url(#fill7)"/><path d="M65.6612 63.1164 65.0612 62.8264 64.5412 62.5464 64.4412 62.5464 63.9912 62.1864 63.8712 62.1864 63.3412 61.8364C63.1512 62.4764 62.7712 63.0264 62.2412 63.4264 62.4512 63.5664 62.6712 63.6864 62.9012 63.8064L63.0412 63.8964 63.6412 64.2264 65.1212 65.0064C65.3312 64.3764 65.5012 63.7364 65.6212 63.0864L65.6612 63.1164Z" fill="#F2F2F2" fill-opacity="0.55"/><path d="M43.2813 64.6163C45.8813 64.6163 47.9913 62.5063 47.9913 59.9063 47.9913 57.3063 45.8813 55.1963 43.2813 55.1963 40.6813 55.1963 38.5713 57.3063 38.5713 59.9063 38.5713 62.5063 40.6713 64.6163 43.2813 64.6163Z" fill="url(#fill8)"/><path d="M53.2018 71.5863C54.9018 71.5863 56.2718 70.2063 56.2718 68.5163 56.2718 66.8163 54.8918 65.4463 53.2018 65.4463 51.5018 65.4463 50.1318 66.8263 50.1318 68.5163 50.1318 70.2163 51.5018 71.5863 53.2018 71.5863Z" fill="url(#fill9)"/></g></svg>