<svg width="100" height="100" viewBox="0 0 100 100" fill="none" xmlns="http://www.w3.org/2000/svg">
<g clip-path="url(#clip0)">
<path d="M49.6402 96.9164C40.382 96.9164 31.3318 94.1711 23.6339 89.0275C15.9361 83.884 9.93633 76.5732 6.39339 68.0198C2.85045 59.4664 1.92346 50.0545 3.72963 40.9742C5.53581 31.894 9.99403 23.5532 16.5405 17.0067C23.087 10.4602 31.4278 6.00202 40.508 4.19585C49.5883 2.38967 59.0002 3.31667 67.5536 6.85961C76.107 10.4025 83.4177 16.4023 88.5613 24.1002C93.7048 31.798 96.4502 40.8483 96.4502 50.1064C96.4506 56.2537 95.2401 62.3409 92.8879 68.0203C90.5356 73.6998 87.0876 78.8602 82.7408 83.207C78.394 87.5538 73.2336 91.0018 67.5541 93.3541C61.8747 95.7063 55.7875 96.9168 49.6402 96.9164V96.9164Z" fill="url(#paint0_linear)"/>
<path fill-rule="evenodd" clip-rule="evenodd" d="M95.5401 50.1063C95.5401 59.1845 92.8481 68.0588 87.8046 75.607C82.761 83.1552 75.5924 89.0383 67.2053 92.5124C58.8181 95.9864 49.5892 96.8954 40.6854 95.1244C31.7817 93.3533 23.6031 88.9817 17.1839 82.5625C10.7647 76.1433 6.39311 67.9647 4.62205 59.061C2.85099 50.1572 3.75996 40.9283 7.23402 32.5411C10.7081 24.154 16.5912 16.9854 24.1394 11.9419C31.6876 6.8983 40.5619 4.20631 49.6401 4.20631C55.6678 4.20629 61.6364 5.39351 67.2053 7.70019C72.7741 10.0069 77.8341 13.3878 82.0963 17.6501C86.3586 21.9123 89.7395 26.9723 92.0462 32.5411C94.3529 38.11 95.5401 44.0786 95.5401 50.1063V50.1063ZM49.6401 0.466309C59.458 0.466309 69.0553 3.37764 77.2186 8.83216C85.3819 14.2867 91.7443 22.0394 95.5015 31.1099C99.2586 40.1804 100.242 50.1614 98.3263 59.7906C96.4109 69.4198 91.6832 78.2648 84.7409 85.2071C77.7986 92.1494 68.9536 96.8771 59.3244 98.7925C49.6952 100.708 39.7142 99.7248 30.6437 95.9677C21.5732 92.2106 13.8205 85.8481 8.36594 77.6848C2.91143 69.5216 9.19155e-05 59.9242 9.19155e-05 50.1063C-0.000696185 43.5873 1.28274 37.1319 3.77711 31.109C6.27147 25.086 9.9279 19.6134 14.5376 15.0038C19.1472 10.3941 24.6198 6.73769 30.6428 4.24332C36.6657 1.74896 43.1211 0.465521 49.6401 0.466309V0.466309Z" fill="#F2F1F0"/>
<path fill-rule="evenodd" clip-rule="evenodd" d="M92.7297 50.1064C92.7297 58.6288 90.2025 66.9598 85.4677 74.0459C80.7329 81.132 74.0032 86.655 66.1295 89.9164C58.2559 93.1777 49.5919 94.0311 41.2333 92.3684C32.8746 90.7058 25.1967 86.6019 19.1705 80.5756C13.1442 74.5494 9.04029 66.8715 7.37765 58.5128C5.71502 50.1542 6.56834 41.4902 9.82972 33.6166C13.0911 25.7429 18.6141 19.0132 25.7002 14.2784C32.7863 9.54358 41.1173 7.0164 49.6397 7.0164C55.2985 7.01605 60.9019 8.13037 66.1299 10.2957C71.358 12.4611 76.1084 15.6351 80.1097 19.6364C84.111 23.6377 87.285 28.3881 89.4504 33.6162C91.6157 38.8442 92.73 44.4476 92.7297 50.1064V50.1064ZM49.6397 3.2764C58.9018 3.2764 67.9559 6.02293 75.6571 11.1687C83.3582 16.3144 89.3605 23.6283 92.905 32.1853C96.4494 40.7424 97.3768 50.1583 95.5699 59.2425C93.7629 68.3266 89.3028 76.6709 82.7535 83.2202C76.2042 89.7695 67.8599 94.2296 58.7758 96.0366C49.6916 97.8435 40.2757 96.9161 31.7186 93.3717C23.1616 89.8272 15.8477 83.8249 10.702 76.1238C5.55622 68.4226 2.80969 59.3685 2.80969 50.1064C2.81088 37.6867 7.74512 25.776 16.5272 16.9939C25.3093 8.21181 37.22 3.27756 49.6397 3.27637V3.2764Z" fill="#0078D4"/>
<path opacity="0.2" d="M23.0728 79.2106H76.2065C76.4857 79.2098 76.7532 79.0985 76.9506 78.9011C77.148 78.7037 77.2593 78.4362 77.2601 78.1571V36.6738H22.0193V78.1571C22.0201 78.4362 22.1314 78.7037 22.3288 78.9011C22.5262 79.0985 22.7937 79.2098 23.0728 79.2106V79.2106Z" fill="#003067"/>
<path d="M23.0728 77.6393H76.2065C76.4857 77.6385 76.7532 77.5272 76.9506 77.3298C77.148 77.1324 77.2593 76.8649 77.2601 76.5858V35.1025H22.0193V76.5858C22.0201 76.8649 22.1314 77.1324 22.3288 77.3298C22.5262 77.5272 22.7937 77.6385 23.0728 77.6393V77.6393Z" fill="#F2F2F2"/>
<path d="M22.0193 39.6939H77.2601V34.7423C77.2604 34.6361 77.2397 34.531 77.1992 34.4329C77.1587 34.3347 77.0992 34.2456 77.0241 34.1705C76.9491 34.0955 76.8599 34.036 76.7618 33.9955C76.6637 33.955 76.5585 33.9343 76.4524 33.9346H22.827C22.7209 33.9343 22.6157 33.955 22.5176 33.9955C22.4195 34.036 22.3303 34.0955 22.2552 34.1705C22.1802 34.2456 22.1207 34.3347 22.0802 34.4329C22.0397 34.531 22.019 34.6361 22.0193 34.7423V39.6939Z" fill="#092E4C"/>
<path d="M26.2688 38.3329C26.5458 38.332 26.8162 38.2491 27.046 38.0945C27.2758 37.9399 27.4546 37.7206 27.5598 37.4644C27.665 37.2082 27.6919 36.9266 27.637 36.6551C27.5821 36.3836 27.448 36.1345 27.2515 35.9393C27.0551 35.7441 26.8051 35.6115 26.5333 35.5583C26.2615 35.5051 25.98 35.5337 25.7245 35.6405C25.4689 35.7473 25.2508 35.9275 25.0976 36.1582C24.9445 36.389 24.8632 36.66 24.8641 36.937C24.8626 37.1214 24.898 37.3044 24.9681 37.475C25.0383 37.6456 25.1419 37.8005 25.2727 37.9305C25.4036 38.0605 25.5591 38.1631 25.7301 38.2322C25.9012 38.3013 26.0843 38.3356 26.2688 38.3329V38.3329Z" fill="#32B0E7"/>
<path d="M72.3634 43.2583H26.9054C26.3064 43.2583 25.8209 43.7438 25.8209 44.3428V72.6015C25.8209 73.2005 26.3064 73.686 26.9054 73.686H72.3634C72.9624 73.686 73.4479 73.2005 73.4479 72.6015V44.3428C73.4479 43.7438 72.9624 43.2583 72.3634 43.2583Z" fill="#E8E8E8"/>
<path d="M48.6344 70.3501V48.8677C48.6344 48.5915 48.4105 48.3677 48.1344 48.3677H29.5743C29.2981 48.3677 29.0743 48.5915 29.0743 48.8677V70.3501C29.0743 70.6262 29.2981 70.8501 29.5743 70.8501H48.1344C48.4105 70.8501 48.6344 70.6262 48.6344 70.3501Z" fill="#F2F2F2"/>
<path d="M70.1948 70.3501V48.8677C70.1948 48.5915 69.971 48.3677 69.6948 48.3677H51.1402C50.864 48.3677 50.6402 48.5915 50.6402 48.8677V70.3501C50.6402 70.6262 50.864 70.8501 51.1402 70.8501H69.6948C69.971 70.8501 70.1948 70.6262 70.1948 70.3501Z" fill="#0078D4"/>
<path fill-rule="evenodd" clip-rule="evenodd" d="M60.4169 51.761C59.7458 51.7609 59.0899 51.5619 58.5319 51.189C57.974 50.8162 57.5392 50.2863 57.2824 49.6663C57.0256 49.0463 56.9585 48.3641 57.0894 47.706C57.2204 47.0478 57.5435 46.4433 58.0181 45.9688C58.4926 45.4943 59.0971 45.1712 59.7553 45.0403C60.4135 44.9094 61.0956 44.9766 61.7156 45.2334C62.3356 45.4902 62.8655 45.9251 63.2383 46.483C63.6111 47.041 63.8101 47.697 63.8101 48.368C63.8101 48.8136 63.7223 49.2548 63.5518 49.6665C63.3813 50.0782 63.1313 50.4522 62.8162 50.7673C62.5012 51.0824 62.1271 51.3323 61.7154 51.5028C61.3037 51.6733 60.8625 51.761 60.4169 51.761Z" fill="#0078D4"/>
<path fill-rule="evenodd" clip-rule="evenodd" d="M62.0377 47.1842C61.9556 47.1022 61.8444 47.0562 61.7283 47.0562C61.6123 47.0562 61.5011 47.1022 61.419 47.1842L59.9769 48.6254L59.4559 48.1094C59.4438 48.0914 59.43 48.0744 59.4148 48.0588C59.3335 47.9761 59.2227 47.9291 59.1068 47.9282C58.9909 47.9272 58.8793 47.9723 58.7967 48.0536C58.714 48.1349 58.667 48.2457 58.6661 48.3616C58.6651 48.4775 58.7102 48.5891 58.7915 48.6717L58.7863 48.677L59.6688 49.5515C59.7509 49.6334 59.8622 49.6795 59.9782 49.6795C60.0943 49.6795 60.2056 49.6334 60.2877 49.5515L62.0364 47.8036L62.0377 47.8026C62.1197 47.7207 62.1658 47.6095 62.1658 47.4936C62.1659 47.3777 62.1199 47.2666 62.038 47.1846L62.0377 47.1842Z" fill="white"/>
<path fill-rule="evenodd" clip-rule="evenodd" d="M38.8541 51.761C38.183 51.7609 37.5271 51.5619 36.9692 51.189C36.4112 50.8162 35.9764 50.2863 35.7196 49.6663C35.4629 49.0463 35.3957 48.3641 35.5267 47.706C35.6576 47.0478 35.9808 46.4433 36.4553 45.9688C36.9298 45.4943 37.5344 45.1712 38.1925 45.0403C38.8507 44.9094 39.5329 44.9766 40.1528 45.2334C40.7728 45.4902 41.3027 45.9251 41.6755 46.483C42.0483 47.041 42.2473 47.697 42.2473 48.368C42.2473 48.8136 42.1596 49.2548 41.989 49.6665C41.8185 50.0782 41.5686 50.4522 41.2535 50.7673C40.9384 51.0824 40.5643 51.3323 40.1526 51.5028C39.7409 51.6733 39.2997 51.761 38.8541 51.761V51.761Z" fill="#F2F2F2"/>
<path fill-rule="evenodd" clip-rule="evenodd" d="M40.0314 47.1907C40.1652 47.3245 40.1652 47.5414 40.0314 47.6752L38.1617 49.5449C38.0279 49.6787 37.811 49.6787 37.6772 49.5449C37.5435 49.4111 37.5435 49.1942 37.6772 49.0604L39.547 47.1907C39.6807 47.0569 39.8976 47.0569 40.0314 47.1907Z" fill="#0078D4"/>
<path fill-rule="evenodd" clip-rule="evenodd" d="M37.6772 47.1907C37.811 47.0569 38.0279 47.0569 38.1617 47.1907L40.0314 49.0604C40.1652 49.1942 40.1652 49.4111 40.0314 49.5449C39.8976 49.6787 39.6807 49.6787 39.547 49.5449L37.6772 47.6752C37.5435 47.5414 37.5435 47.3245 37.6772 47.1907Z" fill="#0078D4"/>
<path d="M60.4166 57.554C61.8969 57.554 63.097 56.354 63.097 54.8737C63.097 53.3934 61.8969 52.1934 60.4166 52.1934C58.9363 52.1934 57.7363 53.3934 57.7363 54.8737C57.7363 56.354 58.9363 57.554 60.4166 57.554Z" fill="#1F56A3"/>
<path fill-rule="evenodd" clip-rule="evenodd" d="M55.7049 62.6747C55.704 62.0553 55.8252 61.4419 56.0616 60.8695C56.298 60.297 56.6449 59.7768 57.0825 59.3385C57.5202 58.9003 58.0399 58.5526 58.612 58.3154C59.1841 58.0782 59.7973 57.9561 60.4167 57.9561C61.036 57.9561 61.6493 58.0782 62.2214 58.3154C62.7935 58.5526 63.3132 58.9003 63.7508 59.3385C64.1884 59.7768 64.5353 60.297 64.7717 60.8695C65.0081 61.4419 65.1293 62.0553 65.1284 62.6747H55.7049Z" fill="#1F56A3"/>
<path opacity="0.15" d="M33.2918 33.9346C34.3804 37.4186 36.5536 40.4638 39.4944 42.6259C42.4353 44.7881 45.99 45.9542 49.6401 45.9542C53.2903 45.9542 56.8449 44.7881 59.7858 42.6259C62.7266 40.4638 64.8998 37.4186 65.9884 33.9346H33.2918Z" fill="#1F56A3"/>
<path fill-rule="evenodd" clip-rule="evenodd" d="M55.2049 65.0415C55.2049 64.7654 55.4288 64.5415 55.7049 64.5415H65.1284C65.4046 64.5415 65.6284 64.7654 65.6284 65.0415C65.6284 65.3176 65.4046 65.5415 65.1284 65.5415H55.7049C55.4288 65.5415 55.2049 65.3176 55.2049 65.0415Z" fill="#1F56A3"/>
<path fill-rule="evenodd" clip-rule="evenodd" d="M55.2049 67.2837C55.2049 67.0075 55.4288 66.7837 55.7049 66.7837H62.7714C63.0475 66.7837 63.2714 67.0075 63.2714 67.2837C63.2714 67.5598 63.0475 67.7837 62.7714 67.7837H55.7049C55.4288 67.7837 55.2049 67.5598 55.2049 67.2837Z" fill="#1F56A3"/>
<path d="M38.8362 57.554C40.3165 57.554 41.5165 56.354 41.5165 54.8737C41.5165 53.3934 40.3165 52.1934 38.8362 52.1934C37.3559 52.1934 36.1559 53.3934 36.1559 54.8737C36.1559 56.354 37.3559 57.554 38.8362 57.554Z" fill="#E8E8E8"/>
<path fill-rule="evenodd" clip-rule="evenodd" d="M34.1244 62.6746C34.1244 61.425 34.6208 60.2266 35.5045 59.3429C36.3881 58.4593 37.5865 57.9629 38.8362 57.9629C40.0858 57.9629 41.2843 58.4593 42.1679 59.3429C43.0515 60.2266 43.5479 61.425 43.5479 62.6746H34.1244Z" fill="#E8E8E8"/>
<path fill-rule="evenodd" clip-rule="evenodd" d="M33.6244 65.0415C33.6244 64.7654 33.8483 64.5415 34.1244 64.5415H43.5479C43.8241 64.5415 44.0479 64.7654 44.0479 65.0415C44.0479 65.3176 43.8241 65.5415 43.5479 65.5415H34.1244C33.8483 65.5415 33.6244 65.3176 33.6244 65.0415Z" fill="#E8E8E8"/>
<path fill-rule="evenodd" clip-rule="evenodd" d="M33.6244 67.2837C33.6244 67.0075 33.8483 66.7837 34.1244 66.7837H41.1909C41.467 66.7837 41.6909 67.0075 41.6909 67.2837C41.6909 67.5598 41.467 67.7837 41.1909 67.7837H34.1244C33.8483 67.7837 33.6244 67.5598 33.6244 67.2837Z" fill="#E8E8E8"/>
<path d="M49.6346 39.6731C55.5985 39.6731 60.4331 34.8385 60.4331 28.8746C60.4331 22.9108 55.5985 18.0762 49.6346 18.0762C43.6708 18.0762 38.8362 22.9108 38.8362 28.8746C38.8362 34.8385 43.6708 39.6731 49.6346 39.6731Z" fill="white"/>
<path d="M59.4408 25.4647L63.9435 23.9207C62.9206 20.9386 60.9918 18.3506 58.4264 16.5181C55.861 14.6856 52.7873 13.7003 49.6346 13.6997V18.4507C51.7957 18.4544 53.9018 19.132 55.6595 20.3892C57.4173 21.6465 58.7391 23.4207 59.4408 25.4647V25.4647Z" fill="#0078D4"/>
<path d="M64.7616 28.8267C64.762 27.1573 64.4856 25.4993 63.9435 23.9204L59.4407 25.4644C59.816 26.5457 60.0087 27.6821 60.0107 28.8267H64.7616L64.7616 28.8267Z" fill="#50E6FF"/>
<path d="M49.6345 39.2032C46.8843 39.2005 44.2477 38.1061 42.3039 36.1605C40.3602 34.2149 39.2684 31.5772 39.2684 28.827C39.2684 26.0768 40.3602 23.4391 42.3039 21.4934C44.2477 19.5478 46.8843 18.4534 49.6345 18.4507H49.6346V13.6997H49.6343C47.151 13.6992 44.7058 14.31 42.5145 15.4783C40.3232 16.6466 38.4532 18.3364 37.0695 20.3985C35.6859 22.4606 34.8312 24.8317 34.581 27.3024C34.3307 29.773 34.6925 32.2673 35.6345 34.565C36.5764 36.8627 38.0696 38.8932 39.9821 40.4772C41.8946 42.0612 44.1676 43.15 46.6006 43.6475C49.0335 44.145 51.5516 44.0359 53.9324 43.3298C56.3132 42.6238 58.4835 41.3424 60.2519 39.5989L56.9127 36.2111C54.9759 38.1288 52.3601 39.2042 49.6345 39.2032V39.2032Z" fill="#1F56A3"/>
<path d="M64.7616 28.8267H60.0107C60.0111 30.2016 59.7374 31.5628 59.2054 32.8307C58.6735 34.0986 57.8941 35.2477 56.9128 36.2108L60.2519 39.5986C61.6821 38.1931 62.8175 36.5165 63.5919 34.6669C64.3662 32.8173 64.7639 30.8318 64.7616 28.8267V28.8267Z" fill="#9CEBFF"/>
<path d="M54.5591 33.292H44.7097C43.9605 33.2933 43.2353 33.0285 42.6633 32.5447C42.0913 32.0609 41.7098 31.3897 41.5868 30.6507C41.4637 29.9117 41.6072 29.1531 41.9915 28.5101C42.3759 27.8671 42.9762 27.3815 43.6853 27.1399C43.8129 25.7588 44.4466 24.4736 45.4646 23.5314C46.4826 22.5893 47.8129 22.0568 49.1998 22.0363C50.5867 22.0158 51.9322 22.5087 52.9776 23.4204C54.023 24.332 54.6944 25.5979 54.8627 26.9747C55.6721 27.053 56.4204 27.4397 56.9524 28.0547C57.4844 28.6697 57.7594 29.4658 57.7204 30.278C57.6813 31.0903 57.3312 31.8563 56.7427 32.4175C56.1542 32.9786 55.3723 33.2918 54.5591 33.292V33.292Z" fill="#0078D4"/>
</g>
<defs>
<linearGradient id="paint0_linear" x1="47.8698" y1="-14.6867" x2="51.8526" y2="131.081" gradientUnits="userSpaceOnUse">
<stop stop-color="#00ABDE"/>
<stop offset="1" stop-color="#007ED8"/>
</linearGradient>
<clipPath id="clip0">
<rect width="99.2799" height="99.28" fill="white" transform="translate(9.15527e-05 0.466309)"/>
</clipPath>
</defs>
</svg>
