<svg width="100" height="100" viewBox="0 0 100 100" fill="none" xmlns="http://www.w3.org/2000/svg">
<g clip-path="url(#clip0)">
<path d="M49.6401 96.4499C40.382 96.4499 31.3317 93.7045 23.6339 88.561C15.936 83.4174 9.93624 76.1067 6.3933 67.5533C2.85036 58.9999 1.92337 49.588 3.72954 40.5077C5.53571 31.4275 9.99394 23.0867 16.5404 16.5402C23.0869 9.99372 31.4277 5.5355 40.5079 3.72933C49.5882 1.92315 59.0001 2.85015 67.5535 6.39308C76.1069 9.93602 83.4176 15.9358 88.5612 23.6336C93.7047 31.3315 96.4501 40.3817 96.4501 49.6399C96.4505 55.7872 95.24 61.8744 92.8878 67.5538C90.5355 73.2332 87.0875 78.3937 82.7407 82.7405C78.3939 87.0873 73.2335 90.5353 67.554 92.8876C61.8746 95.2398 55.7874 96.4503 49.6401 96.4499V96.4499Z" fill="url(#paint0_linear)"/>
<path fill-rule="evenodd" clip-rule="evenodd" d="M95.54 49.6399C95.54 58.718 92.848 67.5923 87.8045 75.1406C82.7609 82.6888 75.5923 88.5719 67.2052 92.046C58.818 95.52 49.5891 96.429 40.6854 94.6579C31.7816 92.8869 23.603 88.5153 17.1838 82.0961C10.7646 75.6769 6.39302 67.4983 4.62196 58.5945C2.85089 49.6908 3.75987 40.4618 7.23393 32.0747C10.708 23.6876 16.5911 16.519 24.1393 11.4754C31.6875 6.43187 40.5618 3.73988 49.64 3.73988C55.6677 3.73986 61.6363 4.92708 67.2052 7.23377C72.774 9.54045 77.834 12.9214 82.0963 17.1836C86.3585 21.4458 89.7394 26.5058 92.0461 32.0747C94.3528 37.6435 95.54 43.6122 95.54 49.6399V49.6399ZM49.64 -0.000106449C59.4579 -0.000106449 69.0552 2.91123 77.2185 8.36574C85.3818 13.8203 91.7442 21.573 95.5014 30.6435C99.2585 39.714 100.242 49.695 98.3262 59.3242C96.4108 68.9534 91.6831 77.7984 84.7408 84.7407C77.7985 91.683 68.9535 96.4107 59.3243 98.3261C49.6951 100.241 39.7141 99.2584 30.6436 95.5013C21.5731 91.7441 13.8204 85.3816 8.36584 77.2184C2.91133 69.0551 -1.61629e-06 59.4577 3.61524e-07 49.6399C-0.000786426 43.1208 1.28265 36.6655 3.77702 30.6425C6.27138 24.6196 9.92781 19.147 14.5375 14.5374C19.1471 9.9277 24.6197 6.27127 30.6427 3.77691C36.6656 1.28254 43.121 -0.000894549 49.64 -0.000106449V-0.000106449Z" fill="#F2F1F0"/>
<path fill-rule="evenodd" clip-rule="evenodd" d="M92.7296 49.64C92.7296 58.1624 90.2024 66.4934 85.4676 73.5795C80.7328 80.6656 74.0031 86.1886 66.1294 89.45C58.2557 92.7113 49.5918 93.5647 41.2331 91.902C32.8745 90.2394 25.1966 86.1355 19.1703 80.1092C13.1441 74.083 9.04017 66.4051 7.37753 58.0464C5.7149 49.6878 6.56822 41.0238 9.8296 33.1502C13.091 25.2765 18.6139 18.5468 25.7 13.812C32.7862 9.07718 41.1172 6.55 49.6396 6.55C55.2983 6.54965 60.9017 7.66397 66.1298 9.82933C71.3579 11.9947 76.1082 15.1687 80.1096 19.17C84.1109 23.1713 87.2849 27.9217 89.4502 33.1498C91.6156 38.3778 92.7299 43.9812 92.7296 49.64ZM49.6396 2.81C58.9017 2.81 67.9558 5.55653 75.6569 10.7023C83.3581 15.848 89.3604 23.1619 92.9049 31.7189C96.4493 40.276 97.3767 49.6919 95.5697 58.7761C93.7628 67.8602 89.3027 76.2045 82.7534 82.7538C76.2041 89.3031 67.8598 93.7632 58.7757 95.5702C49.6915 97.3771 40.2756 96.4497 31.7185 92.9053C23.1614 89.3608 15.8476 83.3585 10.7018 75.6574C5.5561 67.9562 2.80957 58.9021 2.80957 49.64C2.81076 37.2203 7.74501 25.3096 16.5271 16.5275C25.3091 7.74544 37.2198 2.81119 49.6396 2.81V2.81Z" fill="#0078D4"/>
<path fill-rule="evenodd" clip-rule="evenodd" d="M92.7296 49.6399C92.7296 58.1623 90.2024 66.4933 85.4676 73.5794C80.7328 80.6655 74.0031 86.1885 66.1294 89.4499C58.2557 92.7112 49.5918 93.5646 41.2331 91.9019C32.8745 90.2393 25.1966 86.1354 19.1703 80.1091C13.1441 74.0829 9.04017 66.405 7.37753 58.0463C5.7149 49.6877 6.56822 41.0237 9.8296 33.1501C13.091 25.2764 18.6139 18.5467 25.7001 13.8119C32.7862 9.07708 41.1172 6.5499 49.6396 6.5499C55.2983 6.54956 60.9017 7.66388 66.1298 9.82923C71.3579 11.9946 76.1082 15.1686 80.1096 19.1699C84.1109 23.1712 87.2849 27.9216 89.4502 33.1497C91.6156 38.3777 92.7299 43.9811 92.7296 49.6399V49.6399ZM49.6396 2.8099C58.9017 2.8099 67.9558 5.55643 75.6569 10.7022C83.3581 15.8479 89.3604 23.1618 92.9048 31.7188C96.4493 40.2759 97.3767 49.6918 95.5697 58.776C93.7628 67.8601 89.3027 76.2044 82.7534 82.7537C76.2041 89.303 67.8598 93.7631 58.7757 95.5701C49.6915 97.377 40.2756 96.4496 31.7185 92.9052C23.1614 89.3607 15.8476 83.3584 10.7018 75.6573C5.5561 67.9561 2.80957 58.902 2.80957 49.6399C2.81075 37.2202 7.74499 25.3095 16.5271 16.5274C25.3091 7.7453 37.2198 2.81105 49.6396 2.80986V2.8099Z" fill="#0078D4"/>
<path opacity="0.2" d="M22.5949 70.7707H76.397C76.6797 70.7699 76.9506 70.6572 77.1504 70.4573C77.3503 70.2574 77.463 69.9866 77.4638 69.7039V27.6988H21.5281V69.7039C21.5289 69.9866 21.6416 70.2574 21.8414 70.4573C22.0413 70.6572 22.3122 70.7699 22.5949 70.7707V70.7707Z" fill="#003067"/>
<path d="M22.5949 68.5744H76.397C76.6797 68.5736 76.9506 68.4609 77.1504 68.2611C77.3503 68.0612 77.463 67.7903 77.4638 67.5076V25.5025H21.5281V67.5076C21.5289 67.7903 21.6416 68.0612 21.8414 68.2611C22.0413 68.4609 22.3122 68.5736 22.5949 68.5744V68.5744Z" fill="#F2F2F2"/>
<path d="M21.5281 30.1519H77.4638V25.138C77.4641 25.0305 77.4432 24.924 77.4022 24.8247C77.3612 24.7253 77.3009 24.635 77.2249 24.559C77.1489 24.483 77.0586 24.4228 76.9593 24.3818C76.8599 24.3408 76.7534 24.3198 76.646 24.3201H22.346C22.2385 24.3198 22.132 24.3408 22.0326 24.3818C21.9333 24.4228 21.843 24.483 21.767 24.559C21.691 24.635 21.6308 24.7253 21.5898 24.8247C21.5488 24.924 21.5278 25.0305 21.5281 25.138L21.5281 30.1519Z" fill="url(#paint1_linear)"/>
<path d="M25.8309 28.7738C26.1113 28.7729 26.3852 28.6889 26.6179 28.5323C26.8507 28.3758 27.0317 28.1538 27.1382 27.8943C27.2448 27.6349 27.2719 27.3497 27.2164 27.0748C27.1608 26.7999 27.025 26.5477 26.826 26.35C26.6271 26.1523 26.374 26.018 26.0988 25.9642C25.8235 25.9103 25.5385 25.9393 25.2797 26.0474C25.0209 26.1556 24.8001 26.338 24.645 26.5717C24.4899 26.8054 24.4076 27.0798 24.4085 27.3603C24.407 27.5471 24.4428 27.7323 24.5138 27.9051C24.5849 28.0778 24.6898 28.2346 24.8223 28.3663C24.9548 28.498 25.1122 28.6019 25.2855 28.6718C25.4587 28.7418 25.6441 28.7765 25.8309 28.7738V28.7738Z" fill="#50E6FF"/>
<path d="M72.5056 33.7609H26.4756C25.8691 33.7609 25.3774 34.2526 25.3774 34.8591V63.4733C25.3774 64.0798 25.8691 64.5715 26.4756 64.5715H72.5056C73.112 64.5715 73.6037 64.0798 73.6037 63.4733V34.8591C73.6037 34.2526 73.112 33.7609 72.5056 33.7609Z" fill="#E8E8E8"/>
<path opacity="0.2" d="M67.8093 68.5743C69.1569 65.9664 69.8796 63.0808 69.9202 60.1455V45.9214C69.917 45.1056 69.5937 44.3238 69.0198 43.744C68.446 43.1642 67.6675 42.8329 66.8518 42.8213C61.4495 42.6807 59.7551 41.5019 57.9622 40.2539C55.5894 38.4182 52.6355 37.4972 49.6399 37.6592C46.6443 37.4972 43.6904 38.4182 41.3176 40.2539C39.5246 41.5019 37.8303 42.6806 32.4534 42.8208C31.6314 42.8362 30.8479 43.1721 30.27 43.7569C29.692 44.3417 29.3654 45.129 29.3596 45.9512V60.1455C29.3991 63.0799 30.1188 65.9652 31.4622 68.5743H67.8093Z" fill="#767676"/>
<path d="M67.9199 60.1457C67.9199 71.9426 53.4003 81.4374 50.2413 83.373C50.0601 83.4831 49.8521 83.5413 49.64 83.5413C49.4279 83.5413 49.2199 83.4831 49.0387 83.373C45.8798 81.4452 31.3601 71.9503 31.3601 60.1457V45.9512C31.3614 45.6536 31.4795 45.3684 31.689 45.157C31.8985 44.9456 32.1826 44.8249 32.4802 44.8208C43.7764 44.5266 41.1749 39.6592 49.64 39.6592C58.1051 39.6592 55.5036 44.5266 66.7998 44.8208C67.0961 44.8248 67.379 44.9445 67.5883 45.1542C67.7976 45.364 67.9166 45.6472 67.9199 45.9435V60.1457Z" fill="#76BC2D"/>
<path d="M66.4153 60.267C66.4153 71.0832 53.0983 79.7934 50.2026 81.5587C50.0362 81.6599 49.8451 81.7134 49.6503 81.7134C49.4556 81.7134 49.2645 81.6599 49.0981 81.5587C46.1921 79.7934 32.8647 71.0832 32.8647 60.267V47.2494C32.8647 47.1138 32.8914 46.9796 32.9433 46.8543C32.9952 46.7291 33.0712 46.6153 33.1671 46.5194C33.263 46.4236 33.3768 46.3475 33.502 46.2956C33.6273 46.2438 33.7615 46.2171 33.8971 46.2171V46.2171C44.2616 45.9435 41.8769 41.4787 49.6401 41.4787C57.4032 41.4787 55.0185 45.9435 65.3831 46.2197C65.6569 46.2197 65.9194 46.3284 66.113 46.522C66.3066 46.7156 66.4154 46.9782 66.4154 47.252L66.4153 60.267Z" fill="url(#paint2_linear)"/>
<path d="M57.003 58.1378H55.95V54.4808C55.959 52.7523 55.3136 51.0844 54.1435 49.8121C53.0553 48.6201 51.5382 47.9092 49.9259 47.8358C48.3136 47.7623 46.7381 48.3324 45.5461 49.4205C45.4097 49.5451 45.2792 49.6756 45.1545 49.8121C43.9746 51.0773 43.3276 52.7484 43.3479 54.4783V58.1378H42.2769C42.0568 58.1391 41.8459 58.2261 41.6888 58.3802C41.5318 58.5344 41.4409 58.7437 41.4355 58.9637V68.4663C41.4416 68.6861 41.5326 68.895 41.6895 69.049C41.8464 69.203 42.057 69.2902 42.2769 69.2921H57.003C57.2229 69.2902 57.4335 69.203 57.5904 69.049C57.7473 68.895 57.8384 68.6861 57.8444 68.4663V58.9637C57.839 58.7437 57.7482 58.5344 57.5911 58.3802C57.4341 58.2261 57.2231 58.1391 57.003 58.1378V58.1378ZM53.0054 58.1378H46.2849V54.4189C46.2942 53.4625 46.6734 52.5468 47.343 51.8639C47.6335 51.5395 47.9891 51.28 48.3867 51.1023C48.7842 50.9246 49.2148 50.8328 49.6503 50.8328C50.0857 50.8328 50.5163 50.9246 50.9138 51.1023C51.3114 51.28 51.667 51.5395 51.9575 51.8639C52.1044 52.0237 52.2366 52.1964 52.3524 52.3801C52.7697 52.9805 53.0012 53.6904 53.0182 54.4215L53.0054 58.1378Z" fill="white"/>
<path opacity="0.15" d="M42.2796 58.1327H57.0031C57.2025 58.1355 57.3944 58.2086 57.5451 58.3391L41.7376 69.0805C41.6448 69.0054 41.5699 68.9106 41.5181 68.8031C41.4664 68.6955 41.4391 68.5778 41.4382 68.4585V58.9611C41.4429 58.7406 41.5335 58.5307 41.6906 58.376C41.8477 58.2213 42.0591 58.134 42.2796 58.1327V58.1327Z" fill="#B3B3B3"/>
<path opacity="0.09" d="M57.0031 58.1327H42.2769C42.0785 58.1361 41.8876 58.2092 41.7375 58.3391L57.5424 69.0805C57.6355 69.0055 57.7109 68.9108 57.7631 68.8033C57.8153 68.6958 57.8431 68.578 57.8444 68.4585V58.9611C57.8391 58.7409 57.7483 58.5313 57.5913 58.3767C57.4343 58.2221 57.2234 58.1346 57.0031 58.1327V58.1327Z" fill="#A3A3A3"/>
</g>
<defs>
<linearGradient id="paint0_linear" x1="47.8697" y1="-15.1532" x2="51.8525" y2="130.615" gradientUnits="userSpaceOnUse">
<stop stop-color="#00ABDE"/>
<stop offset="1" stop-color="#007ED8"/>
</linearGradient>
<linearGradient id="paint1_linear" x1="21.5281" y1="27.236" x2="77.4638" y2="27.236" gradientUnits="userSpaceOnUse">
<stop stop-color="#005BA1"/>
<stop offset="0.26" stop-color="#00589D"/>
<stop offset="0.53" stop-color="#004F90"/>
<stop offset="0.8" stop-color="#003F7C"/>
<stop offset="1" stop-color="#003067"/>
</linearGradient>
<linearGradient id="paint2_linear" x1="49.64" y1="81.7134" x2="49.64" y2="41.4787" gradientUnits="userSpaceOnUse">
<stop stop-color="#5E9624"/>
<stop offset="0.321" stop-color="#639D26"/>
<stop offset="0.794" stop-color="#6FB12A"/>
<stop offset="0.999" stop-color="#76BC2D"/>
</linearGradient>
<clipPath id="clip0">
<rect width="99.2799" height="99.28" fill="white"/>
</clipPath>
</defs>
</svg>
