<svg width="181" height="191" viewBox="0 0 181 191" fill="none" xmlns="http://www.w3.org/2000/svg">
<path d="M90.7104 189.052C93.7704 189.052 96.7804 188.202 99.4404 186.582L161.41 148.922C166.95 145.552 170.38 139.222 170.38 132.382V57.6716C170.38 50.8516 166.95 44.5116 161.41 41.1316L99.4404 3.47158C94.1104 0.231578 87.2904 0.251578 81.9904 3.47158L20.0204 41.1516C14.4804 44.5216 11.0304 50.8516 11.0304 57.6916V132.392C11.0304 138.152 13.4804 143.572 17.5804 147.142V147.172L81.9904 186.602C84.6304 188.202 87.6504 189.052 90.7104 189.052ZM91.3604 8.00158C93.3104 8.00158 95.7904 9.21158 97.5004 10.2616L158.26 47.4516C162.01 49.7316 164.13 56.3316 164.13 61.0816L163.5 132.382C163.5 137.132 160.3 141.402 156.55 143.682L96.1504 180.062C92.7204 182.152 89.9304 182.152 86.4904 180.062L25.2804 143.592C21.5304 141.312 18.5104 137.112 18.5104 132.382V58.7416C18.5104 54.0016 21.2404 49.1116 25.0104 46.8216L85.5904 10.2616C87.2904 9.22158 89.4104 8.00158 91.3604 8.00158Z" fill="#F2F1F0"/>
<path fill-rule="evenodd" clip-rule="evenodd" d="M98.6104 11.5817C96.1604 10.0817 93.4404 9.33167 90.7104 9.33167C87.9804 9.33167 85.2604 10.0917 82.8104 11.5817L26.6804 45.9117C21.6604 48.9817 18.5504 54.7317 18.5504 60.9817V129.082C18.5504 135.312 21.6504 141.082 26.6804 144.152L82.8104 178.482C85.2604 179.982 87.9804 180.732 90.7104 180.732C93.4404 180.732 96.1604 179.992 98.6104 178.482L154.74 144.152C159.76 141.082 162.87 135.312 162.87 129.082V60.9817C162.87 54.7517 159.77 49.0017 154.74 45.9117L98.6104 11.5817Z" fill="url(#paint0_linear)"/>
<path fill-rule="evenodd" clip-rule="evenodd" d="M90.7104 10.8016C92.3904 10.8016 94.2804 11.6716 96.3404 12.9216L154.81 48.4616C158.46 50.6816 160.87 54.9516 160.87 59.7816V130.262C160.87 135.082 158.46 139.362 154.81 141.582L96.3504 177.122C94.3904 178.312 92.4704 179.062 90.7204 179.062C88.9704 179.062 87.0504 178.312 85.0904 177.122L26.6104 141.592C24.6004 140.362 23.1504 139.162 22.1704 137.552C21.1904 135.952 20.5504 133.732 20.5504 130.272V59.7916C20.5504 54.9616 22.9604 50.6916 26.6104 48.4716L85.0704 12.9316C87.1604 11.6816 89.0204 10.8016 90.7104 10.8016ZM98.4204 180.552L156.88 145.012C161.8 142.022 164.86 136.402 164.86 130.272V59.7916C164.86 53.6616 161.8 48.0416 156.88 45.0516L98.4204 9.51164C96.3104 8.23164 93.6004 6.80164 90.7104 6.80164C87.8104 6.80164 85.1004 8.24164 83.0104 9.50164H83.0004L24.5304 45.0516C19.6104 48.0416 16.5504 53.6616 16.5504 59.7916V130.272C16.5504 134.232 17.2904 137.222 18.7504 139.632C20.2104 142.032 22.2704 143.632 24.5304 145.002L82.9904 180.542C85.2104 181.892 87.8804 183.072 90.7004 183.072C93.5204 183.072 96.2004 181.902 98.4204 180.552Z" fill="url(#paint1_linear)"/>
<path d="M90.7104 189.052C93.7704 189.052 96.7804 188.202 99.4404 186.582L161.41 148.922C166.95 145.552 170.38 139.222 170.38 132.382V57.6716C170.38 50.8516 166.95 44.5116 161.41 41.1316L99.4404 3.47158C94.1104 0.231578 87.2904 0.251578 81.9904 3.47158L20.0204 41.1516C14.4804 44.5216 11.0304 50.8516 11.0304 57.6916V132.392C11.0304 138.152 13.4804 143.572 17.5804 147.142V147.172L81.9904 186.602C84.6304 188.202 87.6504 189.052 90.7104 189.052ZM91.3604 8.00158C93.3104 8.00158 95.7904 9.21158 97.5004 10.2616L158.26 47.4516C162.01 49.7316 164.13 56.3316 164.13 61.0816L163.5 132.382C163.5 137.132 160.3 141.402 156.55 143.682L96.1504 180.062C92.7204 182.152 89.9304 182.152 86.4904 180.062L25.2804 143.592C21.5304 141.312 18.5104 137.112 18.5104 132.382V58.7416C18.5104 54.0016 21.2404 49.1116 25.0104 46.8216L85.5904 10.2616C87.2904 9.22158 89.4104 8.00158 91.3604 8.00158Z" fill="#F2F1F0"/>
<path fill-rule="evenodd" clip-rule="evenodd" d="M98.6104 11.5817C96.1604 10.0817 93.4404 9.33167 90.7104 9.33167C87.9804 9.33167 85.2604 10.0917 82.8104 11.5817L26.6804 45.9117C21.6604 48.9817 18.5504 54.7317 18.5504 60.9817V129.082C18.5504 135.312 21.6504 141.082 26.6804 144.152L82.8104 178.482C85.2604 179.982 87.9804 180.732 90.7104 180.732C93.4404 180.732 96.1604 179.992 98.6104 178.482L154.74 144.152C159.76 141.082 162.87 135.312 162.87 129.082V60.9817C162.87 54.7517 159.77 49.0017 154.74 45.9117L98.6104 11.5817Z" fill="url(#paint2_linear)"/>
<path fill-rule="evenodd" clip-rule="evenodd" d="M90.7104 10.8016C92.3904 10.8016 94.2804 11.6716 96.3404 12.9216L154.81 48.4616C158.46 50.6816 160.87 54.9516 160.87 59.7816V130.262C160.87 135.082 158.46 139.362 154.81 141.582L96.3504 177.122C94.3904 178.312 92.4704 179.062 90.7204 179.062C88.9704 179.062 87.0504 178.312 85.0904 177.122L26.6104 141.592C24.6004 140.362 23.1504 139.162 22.1704 137.552C21.1904 135.952 20.5504 133.732 20.5504 130.272V59.7916C20.5504 54.9616 22.9604 50.6916 26.6104 48.4716L85.0704 12.9316C87.1604 11.6816 89.0204 10.8016 90.7104 10.8016ZM98.4204 180.552L156.88 145.012C161.8 142.022 164.86 136.402 164.86 130.272V59.7916C164.86 53.6616 161.8 48.0416 156.88 45.0516L98.4204 9.51164C96.3104 8.23164 93.6004 6.80164 90.7104 6.80164C87.8104 6.80164 85.1004 8.24164 83.0104 9.50164H83.0004L24.5304 45.0516C19.6104 48.0416 16.5504 53.6616 16.5504 59.7916V130.272C16.5504 134.232 17.2904 137.222 18.7504 139.632C20.2104 142.032 22.2704 143.632 24.5304 145.002L82.9904 180.542C85.2104 181.892 87.8804 183.072 90.7004 183.072C93.5204 183.072 96.2004 181.902 98.4204 180.552Z" fill="#002D4C"/>
<path opacity="0.4" d="M155.05 139.362L91.3204 176.882L26.0804 138.972L89.9204 101.452L155.05 139.362Z" fill="#1F1D21"/>
<path d="M91.3804 169.602L91.1604 172.762L26.0804 135.192V132.032L91.3804 169.602Z" fill="#0078D4"/>
<path d="M26.0804 132.032L89.7104 94.3917L155.05 131.962L91.3804 169.602L26.0804 132.032Z" fill="url(#paint3_linear)"/>
<path d="M91.3804 169.602L155.05 131.962V135.122L91.1604 172.762L91.3804 169.602Z" fill="#185A97"/>
<path opacity="0.5" d="M27.8605 56.1717L90.3505 19.1217L152.88 55.5417L90.3505 91.5917L27.8605 56.1717Z" fill="#1E9FE0"/>
<path opacity="0.5" d="M27.8605 127.652L90.4005 91.5917L152.88 127.012L89.8105 163.062L27.8605 127.652Z" fill="#1E9FE0"/>
<path opacity="0.25" d="M90.4005 91.5917L89.7605 163.062L152.89 127.002V55.5317L90.4005 91.5917Z" fill="#1E9FE0"/>
<path opacity="0.25" d="M27.8605 56.1717V127.652L90.3505 91.6017V19.1217L27.8605 56.1717Z" fill="#1E9FE0"/>
<path opacity="0.25" d="M27.8605 56.1717L90.3505 19.1217L152.88 55.5417L90.3505 91.5917L27.8605 56.1717Z" fill="#1E9FE0"/>
<path opacity="0.25" d="M27.8605 127.652L90.4005 91.5917L152.88 127.012L89.8105 163.062L27.8605 127.652Z" fill="#1E9FE0"/>
<path fill-rule="evenodd" clip-rule="evenodd" d="M90.7037 18.9062C90.7819 18.8602 90.8788 18.8602 90.957 18.9061L153.007 55.3261C153.084 55.3711 153.131 55.4534 153.13 55.5423C153.13 55.6311 153.083 55.7132 153.006 55.7579L90.9561 91.8079C90.8795 91.8524 90.7851 91.853 90.7079 91.8096L27.7379 56.3896C27.6599 56.3457 27.6114 56.2636 27.6105 56.1741C27.6096 56.0847 27.6566 56.0016 27.7337 55.9562L90.7037 18.9062ZM90.8306 19.4117L28.3617 56.1668L90.8285 91.3037L152.385 55.5406L90.8306 19.4117Z" fill="#50E6FF"/>
<path fill-rule="evenodd" clip-rule="evenodd" d="M90.7263 91.3747C90.8031 91.3307 90.8975 91.3307 90.9744 91.3746L153.014 126.795C153.092 126.839 153.14 126.922 153.14 127.011C153.141 127.101 153.093 127.184 153.015 127.228L90.3952 163.278C90.3185 163.323 90.2241 163.323 90.1471 163.279L27.7371 127.869C27.659 127.825 27.6106 127.742 27.6105 127.652C27.6103 127.562 27.6583 127.479 27.7363 127.435L90.7263 91.3747ZM90.8506 91.8796L28.3654 127.651L90.2696 162.774L152.388 127.013L90.8506 91.8796Z" fill="#50E6FF"/>
<path fill-rule="evenodd" clip-rule="evenodd" d="M153.005 55.3151C153.083 55.3597 153.13 55.4423 153.13 55.5317V127.002C153.13 127.091 153.083 127.174 153.005 127.218L90.3251 163.278C90.2474 163.323 90.1517 163.323 90.0743 163.278C89.9969 163.232 89.9496 163.149 89.9504 163.06L90.5904 91.5895C90.5912 91.5012 90.6385 91.4199 90.7148 91.3756L152.755 55.3156C152.832 55.2706 152.928 55.2704 153.005 55.3151ZM91.0892 91.7363L90.4543 162.627L152.63 126.857V55.9662L91.0892 91.7363Z" fill="#50E6FF"/>
<path fill-rule="evenodd" clip-rule="evenodd" d="M90.9746 18.9047C91.0524 18.9492 91.1005 19.032 91.1005 19.1217V91.6017C91.1005 91.6914 91.0525 91.7742 90.9747 91.8187L27.9847 127.869C27.9073 127.913 27.8122 127.913 27.7351 127.868C27.6579 127.823 27.6105 127.741 27.6105 127.652V56.1717C27.6105 56.0831 27.6574 56.0011 27.7337 55.9562L90.7237 18.9062C90.801 18.8608 90.8968 18.8602 90.9746 18.9047ZM28.1105 56.3147V127.221L90.6005 91.4567V19.5588L28.1105 56.3147Z" fill="#50E6FF"/>
<path fill-rule="evenodd" clip-rule="evenodd" d="M90.7037 18.9062C90.7819 18.8602 90.8788 18.8602 90.957 18.9061L153.007 55.3261C153.084 55.3711 153.131 55.4534 153.13 55.5423C153.13 55.6311 153.083 55.7132 153.006 55.7579L90.9561 91.8079C90.8795 91.8524 90.7851 91.853 90.7079 91.8096L27.7379 56.3896C27.6599 56.3457 27.6114 56.2636 27.6105 56.1741C27.6096 56.0847 27.6566 56.0016 27.7337 55.9562L90.7037 18.9062ZM90.8306 19.4117L28.3617 56.1668L90.8285 91.3037L152.385 55.5406L90.8306 19.4117Z" fill="#50E6FF"/>
<path fill-rule="evenodd" clip-rule="evenodd" d="M90.7263 91.3747C90.8031 91.3307 90.8975 91.3307 90.9744 91.3746L153.014 126.795C153.092 126.839 153.14 126.922 153.14 127.011C153.141 127.101 153.093 127.184 153.015 127.228L90.3952 163.278C90.3185 163.323 90.2241 163.323 90.1471 163.279L27.7371 127.869C27.659 127.825 27.6106 127.742 27.6105 127.652C27.6103 127.562 27.6583 127.479 27.7363 127.435L90.7263 91.3747ZM90.8506 91.8796L28.3654 127.651L90.2696 162.774L152.388 127.013L90.8506 91.8796Z" fill="#50E6FF"/>
<path d="M127.84 81.7216L119.68 86.5116L119.78 114.222C119.75 126.042 113.3 132.972 106.34 137.012L114.5 132.222C121.46 128.182 127.9 121.242 127.94 109.422L127.84 81.7216Z" fill="#0088DB"/>
<path d="M127.3 79.8615C126.95 79.2515 126.48 78.7415 125.98 78.4415C107.19 67.0315 111.54 60.0515 97.4705 51.9215C83.4105 43.8015 87.7105 55.7815 68.7505 45.3915C68.2505 45.1215 67.7705 45.0715 67.4105 45.2715L59.2505 50.0615C59.6105 49.8515 60.0905 49.9015 60.5905 50.1815C79.5505 60.5715 75.2605 48.5915 89.3105 56.7115C103.38 64.8315 99.0305 71.8215 117.81 83.2215C118.31 83.5215 118.79 84.0215 119.13 84.6415C119.48 85.2615 119.67 85.9315 119.67 86.5015L127.83 81.7115C127.84 81.1515 127.65 80.4715 127.3 79.8615Z" fill="#1CA5F9"/>
<path d="M89.3105 56.7115C103.381 64.8315 99.0305 71.8215 117.811 83.2215C118.311 83.5215 118.791 84.0215 119.131 84.6415C119.481 85.2615 119.671 85.9315 119.671 86.5015L119.771 114.212C119.701 137.142 95.5005 141.682 90.2505 142.412C89.9505 142.452 89.6005 142.372 89.2405 142.162C88.8905 141.962 88.5405 141.642 88.2405 141.252C82.8405 134.362 58.5505 101.792 58.6205 78.9015L58.7005 51.2915C58.7005 50.7215 58.9005 50.2715 59.2505 50.0615C59.6105 49.8515 60.0905 49.9015 60.5905 50.1815C79.5505 60.5715 75.2605 48.6015 89.3105 56.7115Z" fill="url(#paint4_linear)"/>
<path d="M119.681 86.5115L119.781 114.222C119.711 137.152 95.5105 141.692 90.2505 142.422C89.9605 142.472 89.6105 142.382 89.2505 142.182C88.8905 141.982 88.5405 141.652 88.2405 141.262C82.8405 134.372 58.5605 101.812 58.6305 78.9115L58.7105 51.3015C58.7105 50.7315 58.9105 50.2815 59.2605 50.0715C59.6105 49.8615 60.0905 49.9115 60.6005 50.1915C79.5505 60.5715 75.2605 48.6015 89.3205 56.7215C103.381 64.8415 99.0305 71.8215 117.811 83.2315C118.311 83.5315 118.791 84.0315 119.141 84.6615C119.491 85.2615 119.681 85.9415 119.681 86.5115ZM117.071 112.862L117.191 87.3915C117.181 86.8615 117.001 86.2615 116.681 85.7115C116.371 85.1615 115.941 84.6815 115.491 84.3915C98.2405 74.0815 102.411 67.6315 89.3005 60.0715C76.2005 52.5015 80.2705 63.5115 63.0605 54.1215C62.8005 54.0015 62.5605 53.9415 62.3405 53.9415C62.1105 53.9415 61.9205 54.0215 61.7605 54.1515C61.6105 54.2915 61.4905 54.4815 61.4205 54.7315C61.3605 54.9815 61.3505 55.2615 61.3905 55.5715L61.3205 80.6715C61.2605 101.752 83.3605 131.452 88.1605 137.642C88.4405 138.002 88.7505 138.282 89.0805 138.462C89.4105 138.652 89.7205 138.742 90.0005 138.702C94.8205 138.072 117.011 133.942 117.071 112.862Z" fill="#1B93EB"/>
<path d="M88.8406 90.7716C93.4406 93.4316 97.1706 99.8816 97.1506 105.172C97.1306 110.472 93.3806 112.602 88.7806 109.942C84.1706 107.282 80.4406 100.832 80.4506 95.5316C80.4706 90.2416 84.2206 88.1016 88.8406 90.7716Z" fill="white"/>
<path d="M88.8806 74.1115C94.5506 77.3815 100.001 82.9515 104.211 89.7415C108.411 96.5315 111.071 104.062 111.661 110.892C111.681 111.252 111.651 111.582 111.541 111.842C111.451 112.112 111.281 112.322 111.071 112.452C110.871 112.582 110.621 112.632 110.341 112.602C110.091 112.582 109.821 112.492 109.541 112.332L103.351 108.762C102.811 108.452 102.341 107.982 101.961 107.412C101.571 106.812 101.301 106.152 101.211 105.522C100.791 101.842 99.3106 97.8515 97.0406 94.2515C94.7706 90.6715 91.8606 87.7115 88.8506 85.9615C85.8306 84.2315 82.9106 83.8115 80.6306 84.7715C78.3506 85.7415 76.8506 88.0215 76.4106 91.2015C76.3206 91.7215 76.0506 92.0715 75.6506 92.2215C75.2706 92.3515 74.8006 92.2815 74.3106 92.0015L68.1406 88.4415C67.7906 88.2415 67.5206 88.0215 67.2706 87.7515C66.9906 87.4615 66.7406 87.1115 66.5406 86.7515C66.3306 86.3715 66.1706 85.9715 66.0806 85.6015C65.9806 85.2215 65.9406 84.8515 65.9706 84.5215C66.5906 78.3915 69.2806 73.9415 73.5106 72.0315C77.7406 70.0915 83.2106 70.8315 88.8806 74.1115Z" fill="#C3F1FF"/>
<path d="M35.3304 101.732L36.2004 101.232C36.6404 100.972 37.2304 101.012 37.9004 101.412L37.0504 101.912C36.3904 101.512 35.7804 101.482 35.3304 101.732Z" fill="#243A5E"/>
<path d="M34.3304 100.902C33.7104 100.552 33.1904 100.832 33.1904 101.562C33.1904 102.292 33.7004 103.162 34.3204 103.522L35.7704 104.372C35.5704 103.862 35.4604 103.362 35.4604 102.872C35.4604 102.392 35.5704 102.032 35.7704 101.762L34.3304 100.902Z" fill="#EAF7FA"/>
<path d="M34.3104 109.972C33.6904 109.622 33.1704 109.912 33.1704 110.632C33.1704 111.362 33.6804 112.232 34.3004 112.602L43.6704 118.012C43.4704 117.502 43.3604 117.012 43.3604 116.522C43.3604 116.042 43.4704 115.662 43.6704 115.392L34.3104 109.972Z" fill="#B5E3F0"/>
<path d="M34.2904 119.051C33.6604 118.701 33.1504 118.991 33.1504 119.701C33.1504 120.431 33.6604 121.301 34.2804 121.661L51.4904 131.591C51.2904 131.081 51.1804 130.591 51.1804 130.101C51.1804 129.621 51.2904 129.251 51.4904 128.991L34.2904 119.051Z" fill="#74CFEB"/>
<path d="M39.7005 104.001C39.9005 104.491 40.0005 104.991 40.0005 105.471C40.0005 105.951 39.6604 106.201 39.4604 106.471L56.8704 116.531C57.5004 116.901 58.0104 116.601 58.0104 115.871C58.0104 115.141 57.5004 114.271 56.8804 113.911L39.7005 104.001Z" fill="#EAF7FA"/>
<path d="M47.6003 117.661C47.8003 118.151 47.9003 118.661 47.9003 119.141C47.9003 119.621 47.7903 120.001 47.5903 120.271L56.8603 125.621C57.4903 125.991 58.0003 125.682 58.0003 124.962C58.0003 124.232 57.4903 123.361 56.8703 123.001L47.6003 117.661Z" fill="#B5E3F0"/>
<path d="M55.3904 131.232C55.5904 131.722 55.6904 132.222 55.6904 132.702C55.6904 133.182 55.5804 133.562 55.3804 133.842L56.8204 134.672C57.4504 135.042 57.9604 134.742 57.9604 134.012C57.9604 133.282 57.4504 132.412 56.8304 132.052L55.3904 131.232Z" fill="#74CFEB"/>
<path d="M51.0903 129.122L51.8903 128.672C52.3003 128.432 52.8603 128.462 53.4803 128.842L52.6803 129.292C52.0703 128.922 51.5003 128.882 51.0903 129.122Z" fill="#243A5E"/>
<path d="M55.0604 134.112L54.2604 134.562C54.6704 134.322 54.9204 133.832 54.9204 133.122C54.9204 131.702 53.9304 129.982 52.7004 129.252L53.5004 128.802C54.7304 129.522 55.7404 131.252 55.7204 132.672C55.7204 133.372 55.4704 133.872 55.0604 134.112Z" fill="#243A5E"/>
<path d="M52.7004 129.282C53.9304 130.002 54.9404 131.732 54.9204 133.152C54.9204 134.572 53.9204 135.142 52.6804 134.432C51.4504 133.712 50.4404 131.982 50.4604 130.572C50.4404 129.132 51.4404 128.572 52.7004 129.282Z" fill="#2E76BC"/>
<path d="M43.3204 115.311L44.1204 114.861C44.5304 114.621 45.0904 114.651 45.7104 115.031L44.9104 115.481C44.3004 115.111 43.7404 115.081 43.3204 115.311Z" fill="#243A5E"/>
<path d="M47.3004 120.292L46.5004 120.742C46.9104 120.502 47.1604 120.012 47.1604 119.302C47.1604 117.882 46.1704 116.162 44.9404 115.432L45.7404 114.982C46.9704 115.702 47.9804 117.432 47.9604 118.852C47.9504 119.572 47.7004 120.052 47.3004 120.292Z" fill="#243A5E"/>
<path d="M44.9203 115.462C46.1503 116.182 47.1603 117.911 47.1403 119.331C47.1403 120.751 46.1403 121.321 44.9003 120.611C43.6703 119.891 42.6603 118.161 42.6803 116.751C42.6803 115.321 43.7003 114.752 44.9203 115.462Z" fill="#2E76BC"/>
<path d="M39.3604 106.662L38.5603 107.112C38.9703 106.872 39.2203 106.382 39.2203 105.672C39.2203 104.252 38.0904 102.552 36.8604 101.822L37.8004 101.352C39.0304 102.072 40.0404 103.802 40.0204 105.222C40.0204 105.942 39.7604 106.432 39.3604 106.662Z" fill="#243A5E"/>
<path d="M36.9904 101.832C38.2204 102.552 39.2304 104.282 39.2104 105.702C39.2104 107.122 38.2104 107.692 36.9704 106.982C35.7504 106.262 34.7404 104.532 34.7504 103.122C34.7504 101.702 35.7604 101.122 36.9904 101.832Z" fill="#2E76BC"/>
<path fill-rule="evenodd" clip-rule="evenodd" d="M90.7037 18.9062C90.7819 18.8602 90.8788 18.8602 90.957 18.9061L153.007 55.3261C153.084 55.3711 153.131 55.4534 153.13 55.5423C153.13 55.6311 153.083 55.7132 153.006 55.7579L90.9561 91.8079C90.8795 91.8524 90.7851 91.853 90.7079 91.8096L27.7379 56.3896C27.6599 56.3457 27.6114 56.2636 27.6105 56.1741C27.6096 56.0847 27.6566 56.0016 27.7337 55.9562L90.7037 18.9062ZM90.8306 19.4117L28.3617 56.1668L90.8285 91.3037L152.385 55.5406L90.8306 19.4117Z" fill="#50E6FF"/>
<path d="M90.8404 91.5917L90.2004 163.062" stroke="#50E6FF" stroke-width="0.5" stroke-miterlimit="10" stroke-linejoin="round"/>
<defs>
<linearGradient id="paint0_linear" x1="90.7103" y1="9.33187" x2="90.7103" y2="180.731" gradientUnits="userSpaceOnUse">
<stop stop-color="#00ABDE"/>
<stop offset="1" stop-color="#007ED8"/>
</linearGradient>
<linearGradient id="paint1_linear" x1="36.83" y1="4.12283" x2="203.508" y2="286.454" gradientUnits="userSpaceOnUse">
<stop stop-color="#007ED8"/>
<stop offset="0.7065" stop-color="#002D4C"/>
</linearGradient>
<linearGradient id="paint2_linear" x1="88.3054" y1="-12.1202" x2="93.4077" y2="215.218" gradientUnits="userSpaceOnUse">
<stop stop-color="#007ED8"/>
<stop offset="0.7065" stop-color="#002D4C"/>
</linearGradient>
<linearGradient id="paint3_linear" x1="67.9259" y1="64.0722" x2="110.041" y2="190.417" gradientUnits="userSpaceOnUse">
<stop stop-color="#007ED8"/>
<stop offset="0.7065" stop-color="#002D4C"/>
</linearGradient>
<linearGradient id="paint4_linear" x1="61.1164" y1="138.382" x2="91.5482" y2="81.6444" gradientUnits="userSpaceOnUse">
<stop stop-color="#1B93EB"/>
<stop offset="0.21" stop-color="#2095EB"/>
<stop offset="0.44" stop-color="#2E9CED"/>
<stop offset="0.69" stop-color="#45A7EF"/>
<stop offset="0.95" stop-color="#64B6F1"/>
<stop offset="1" stop-color="#6BB9F2"/>
</linearGradient>
</defs>
</svg>
