<svg width="103" height="103" viewBox="0 0 103 103" fill="none" xmlns="http://www.w3.org/2000/svg">
<path d="M51.8637 97.9545C26.0137 97.9545 5.05371 77.0045 5.05371 51.1445C5.05371 25.2845 26.0137 4.33447 51.8637 4.33447C77.7137 4.33447 98.6737 25.2945 98.6737 51.1445C98.6737 76.9945 77.7137 97.9545 51.8637 97.9545Z" fill="url(#paint0_linear)"/>
<path fill-rule="evenodd" clip-rule="evenodd" d="M97.7636 51.1446C97.7636 76.4946 77.2136 97.0446 51.8636 97.0446C26.5136 97.0446 5.96363 76.4946 5.96363 51.1446C5.96363 25.7946 26.5136 5.24464 51.8636 5.24464C77.2136 5.24464 97.7636 25.7946 97.7636 51.1446ZM51.8636 1.50464C79.2836 1.50464 101.504 23.7246 101.504 51.1446C101.504 78.5646 79.2736 100.785 51.8636 100.785C24.4436 100.785 2.22363 78.5546 2.22363 51.1446C2.22363 23.7246 24.4436 1.50464 51.8636 1.50464Z" fill="#F2F1F0"/>
<path fill-rule="evenodd" clip-rule="evenodd" d="M94.9532 51.1445C94.9532 74.9445 75.6632 94.2345 51.8632 94.2345C28.0632 94.2345 8.7732 74.9445 8.7732 51.1445C8.7732 27.3445 28.0632 8.05445 51.8632 8.05445C75.6632 8.05445 94.9532 27.3445 94.9532 51.1445ZM51.8632 4.31445C77.7232 4.31445 98.6932 25.2845 98.6932 51.1445C98.6932 77.0045 77.7232 97.9745 51.8632 97.9745C26.0032 97.9745 5.0332 77.0045 5.0332 51.1445C5.0332 25.2845 25.9932 4.31445 51.8632 4.31445Z" fill="url(#paint1_linear)"/>
<path opacity="0.2" d="M69.2132 67.8445H88.2332C89.0832 67.8445 89.7732 67.1545 89.7732 66.3045V38.3845H59.5732V66.3045C59.5732 67.1545 60.2632 67.8445 61.1132 67.8445H64.4032H69.2132Z" fill="#1F1D21"/>
<path d="M69.2132 66.3545H88.7232C89.3032 66.3545 89.7732 65.8845 89.7732 65.3045V37.9445C89.7632 37.3645 89.3032 36.8945 88.7232 36.8945H60.6232C60.0432 36.8945 59.5732 37.3645 59.5732 37.9445V65.3145C59.5732 65.8945 60.0432 66.3645 60.6232 66.3645H64.4032H69.2132V66.3545Z" fill="#F2F2F2"/>
<path d="M89.7732 37.4245C89.7732 36.8445 89.3032 36.3745 88.7232 36.3745H60.6232C60.0432 36.3745 59.5732 36.8445 59.5732 37.4245V38.4145H89.7732V37.4245Z" fill="#F2F2F2"/>
<path d="M84.003 51.3146C84.003 57.4046 76.633 62.3146 75.033 63.3146C74.943 63.3746 74.833 63.4046 74.723 63.4046C74.613 63.4046 74.513 63.3746 74.413 63.3146C72.763 62.3146 65.333 57.3946 65.333 51.3146V43.9846C65.333 43.8346 65.393 43.6846 65.503 43.5746C65.613 43.4646 65.753 43.4046 65.913 43.3946C71.703 43.2446 70.383 40.7246 74.673 40.7246C78.963 40.7246 77.643 43.2446 83.383 43.3946C83.533 43.3946 83.683 43.4646 83.793 43.5746C83.903 43.6846 83.963 43.8346 83.963 43.9846L84.003 51.3146Z" fill="#1B93EB"/>
<path d="M83.1828 51.3745C83.1828 56.9745 76.4228 61.4645 74.9528 62.3745C74.8728 62.4245 74.7728 62.4545 74.6728 62.4545C74.5728 62.4545 74.4728 62.4245 74.3928 62.3745C72.9228 61.4645 66.1628 56.9745 66.1628 51.3745V44.7045C66.1528 44.6245 66.1528 44.5545 66.1728 44.4745C66.1928 44.4045 66.2228 44.3345 66.2728 44.2645C66.3228 44.2045 66.3828 44.1545 66.4528 44.1145C66.5228 44.0745 66.5928 44.0545 66.6728 44.0545C71.9228 43.9045 70.6728 41.6145 74.6728 41.6145C78.6728 41.6145 77.4028 43.9645 82.6728 44.0545C82.8128 44.0645 82.9428 44.1245 83.0328 44.2145C83.1328 44.3145 83.1828 44.4445 83.1928 44.5845L83.1828 51.3745Z" fill="url(#paint2_linear)"/>
<path d="M74.6734 48.7745C75.5934 48.7745 76.4834 49.1145 77.1834 49.7145C77.8834 50.3145 78.3334 51.1545 78.4634 52.0645C78.4934 52.2145 78.5734 52.3545 78.6934 52.4545C78.8134 52.5545 78.9634 52.6045 79.1134 52.6045H80.9834C81.0734 52.6045 81.1634 52.5945 81.2534 52.5545C81.3434 52.5145 81.4134 52.4645 81.4734 52.4045C81.5334 52.3345 81.5834 52.2545 81.6134 52.1745C81.6434 52.0845 81.6534 51.9945 81.6434 51.9045C81.4634 50.1845 80.6434 48.5945 79.3534 47.4345C78.0634 46.2745 76.3934 45.6345 74.6634 45.6345C72.9334 45.6345 71.2634 46.2745 69.9734 47.4345C68.6834 48.5945 67.8734 50.1845 67.6834 51.9045C67.6734 51.9945 67.6834 52.0845 67.7134 52.1745C67.7434 52.2645 67.7934 52.3445 67.8534 52.4045C67.9134 52.4745 67.9934 52.5245 68.0734 52.5545C68.1534 52.5945 68.2534 52.6045 68.3434 52.6045H70.2134C70.3634 52.6045 70.5134 52.5545 70.6334 52.4545C70.7534 52.3545 70.8334 52.2245 70.8634 52.0645C70.9934 51.1545 71.4534 50.3145 72.1434 49.7145C72.8634 49.1045 73.7534 48.7745 74.6734 48.7745Z" fill="#C3F1FF"/>
<path d="M74.673 55.1447C76.083 55.1447 77.223 54.0047 77.223 52.5947C77.223 51.1847 76.083 50.0447 74.673 50.0447C73.263 50.0447 72.123 51.1847 72.123 52.5947C72.123 54.0047 73.263 55.1447 74.673 55.1447Z" fill="white"/>
<path fill-rule="evenodd" clip-rule="evenodd" d="M57.023 54.1642H50.123V53.5642H57.023V54.1642Z" fill="#F2F2F2"/>
<path fill-rule="evenodd" clip-rule="evenodd" d="M57.023 47.1342H50.123V46.5342H57.023V47.1342Z" fill="#F2F2F2"/>
<path fill-rule="evenodd" clip-rule="evenodd" d="M63.7633 51.0041H56.8633V50.4041H63.7633V51.0041Z" fill="#F2F2F2"/>
<path fill-rule="evenodd" clip-rule="evenodd" d="M56.673 40.1242H47.793V39.5242H56.973C57.1387 39.5242 57.273 39.6585 57.273 39.8242V60.9542C57.273 61.1199 57.1387 61.2542 56.973 61.2542H47.793V60.6542H56.673V40.1242Z" fill="#F2F2F2"/>
<path fill-rule="evenodd" clip-rule="evenodd" d="M40.4736 60.4746H50.1036V61.0746H40.4736V60.4746Z" fill="#F2F2F2"/>
<path fill-rule="evenodd" clip-rule="evenodd" d="M40.4736 53.4946H50.1036V54.0946H40.4736V53.4946Z" fill="#F2F2F2"/>
<path fill-rule="evenodd" clip-rule="evenodd" d="M40.4736 46.4946H50.1036V47.0946H40.4736V46.4946Z" fill="#F2F2F2"/>
<path fill-rule="evenodd" clip-rule="evenodd" d="M40.4736 39.4946H50.1036V40.0946H40.4736V39.4946Z" fill="#F2F2F2"/>
<path d="M53.9134 36.7046H46.9634C46.5434 36.7046 46.1934 37.0446 46.1934 37.4746V41.7346C46.1934 42.1546 46.5334 42.5046 46.9634 42.5046H53.9234C54.3434 42.5146 54.6934 42.1646 54.6934 41.7346V37.4746C54.6834 37.0546 54.3434 36.7046 53.9134 36.7046Z" fill="url(#paint3_linear)"/>
<path d="M53.9134 50.8845H46.9634C46.5434 50.8845 46.1934 51.2245 46.1934 51.6545V55.9145C46.1934 56.3345 46.5334 56.6845 46.9634 56.6845H53.9234C54.3434 56.6845 54.6934 56.3445 54.6934 55.9145V51.6545C54.6834 51.2345 54.3434 50.8845 53.9134 50.8845Z" fill="url(#paint4_linear)"/>
<path d="M53.9134 43.7847H46.9634C46.5434 43.7847 46.1934 44.1247 46.1934 44.5547V48.8147C46.1934 49.2347 46.5334 49.5847 46.9634 49.5847H53.9234C54.3434 49.5947 54.6934 49.2447 54.6934 48.8147V44.5547C54.6834 44.1347 54.3434 43.7847 53.9134 43.7847Z" fill="url(#paint5_linear)"/>
<path d="M53.9134 57.9646H46.9634C46.5434 57.9646 46.1934 58.3046 46.1934 58.7346V62.9946C46.1934 63.4146 46.5334 63.7646 46.9634 63.7646H53.9234C54.3434 63.7646 54.6934 63.4246 54.6934 62.9946V58.7346C54.6834 58.3146 54.3434 57.9646 53.9134 57.9646Z" fill="url(#paint6_linear)"/>
<path opacity="0.2" d="M24.2131 67.2743H42.9631C43.8031 67.2743 44.4831 66.5943 44.4831 65.7543V37.2043H14.7031V65.7543C14.7031 66.5943 15.3831 67.2743 16.2231 67.2743H19.4731H24.2131Z" fill="#1F1D21"/>
<path d="M24.2131 66.3644H43.4531C44.0231 66.3644 44.4831 65.9044 44.4831 65.3344V37.3244C44.4731 36.7544 44.0131 36.2944 43.4531 36.2944H15.7331C15.1631 36.2944 14.7031 36.7544 14.7031 37.3244V65.3344C14.7031 65.9044 15.1631 66.3644 15.7331 66.3644H19.4631H24.2131Z" fill="url(#paint7_linear)"/>
<path d="M44.4931 36.8044C44.4931 36.2344 44.0331 35.7744 43.4631 35.7744H15.7331C15.1631 35.7744 14.7031 36.2344 14.7031 36.8044V37.7844H44.4931V36.8044V36.8044Z" fill="#1A2C45"/>
<path d="M19.9033 45.9444L24.1033 45.8744L27.5433 49.7244L31.7533 45.7544L35.6133 45.8244L39.4033 42.2644" stroke="#F2F2F2" stroke-width="0.5" stroke-miterlimit="10" stroke-linejoin="round"/>
<path d="M39.3529 49.8045L39.3329 45.8445L35.1829 49.7545L31.5829 49.6145L27.6229 53.4445L23.8029 57.2245L19.7129 57.2645" stroke="#F2F2F2" stroke-width="0.5" stroke-miterlimit="10" stroke-linejoin="round"/>
<path d="M28.4036 61.0343C28.4036 60.5543 28.0236 60.1743 27.5436 60.1743C27.0636 60.1743 26.6836 60.5543 26.6836 61.0343C26.6836 61.5143 27.0636 61.8943 27.5436 61.8943C28.0136 61.8843 28.4036 61.5043 28.4036 61.0343Z" fill="url(#paint8_linear)"/>
<path d="M32.303 61.0343C32.303 60.5543 31.923 60.1743 31.443 60.1743C30.963 60.1743 30.583 60.5543 30.583 61.0343C30.583 61.5143 30.963 61.8943 31.443 61.8943C31.913 61.8843 32.303 61.5043 32.303 61.0343Z" fill="url(#paint9_linear)"/>
<path d="M20.6136 61.0343C20.6136 60.5543 20.2336 60.1743 19.7536 60.1743C19.2736 60.1743 18.8936 60.5543 18.8936 61.0343C18.8936 61.5143 19.2736 61.8943 19.7536 61.8943C20.2236 61.8843 20.6136 61.5043 20.6136 61.0343Z" fill="#3BCAF4"/>
<path d="M24.5032 61.0343C24.5032 60.5543 24.1232 60.1743 23.6432 60.1743C23.1632 60.1743 22.7832 60.5543 22.7832 61.0343C22.7832 61.5143 23.1632 61.8943 23.6432 61.8943C24.1232 61.8843 24.5032 61.5043 24.5032 61.0343Z" fill="#3BCAF4"/>
<path d="M36.1927 61.0343C36.1927 60.5543 35.8127 60.1743 35.3327 60.1743C34.8527 60.1743 34.4727 60.5543 34.4727 61.0343C34.4727 61.5143 34.8527 61.8943 35.3327 61.8943C35.8127 61.8943 36.1927 61.5043 36.1927 61.0343Z" fill="url(#paint10_linear)"/>
<path d="M38.373 61.0345C38.373 61.5145 38.753 61.8945 39.233 61.8945C39.713 61.8945 40.093 61.5145 40.093 61.0345C40.093 60.5545 39.713 60.1745 39.233 60.1745C38.753 60.1645 38.373 60.5545 38.373 61.0345Z" fill="url(#paint11_linear)"/>
<path d="M28.4036 57.2445C28.4036 56.7645 28.0236 56.3845 27.5436 56.3845C27.0636 56.3845 26.6836 56.7645 26.6836 57.2445C26.6836 57.7245 27.0636 58.1045 27.5436 58.1045C28.0136 58.1045 28.4036 57.7145 28.4036 57.2445Z" fill="#3BCAF4"/>
<path d="M32.2932 57.2445C32.2932 56.7645 31.9132 56.3845 31.4332 56.3845C30.9532 56.3845 30.5732 56.7645 30.5732 57.2445C30.5732 57.7245 30.9532 58.1045 31.4332 58.1045C31.9132 58.1045 32.2932 57.7145 32.2932 57.2445Z" fill="url(#paint12_linear)"/>
<path d="M20.6136 57.2445C20.6136 56.7645 20.2336 56.3845 19.7536 56.3845C19.2736 56.3845 18.8936 56.7645 18.8936 57.2445C18.8936 57.7245 19.2736 58.1045 19.7536 58.1045C20.2236 58.1045 20.6136 57.7145 20.6136 57.2445Z" fill="#3BCAF4"/>
<path d="M24.5032 57.2445C24.5032 56.7645 24.1232 56.3845 23.6432 56.3845C23.1632 56.3845 22.7832 56.7645 22.7832 57.2445C22.7832 57.7245 23.1632 58.1045 23.6432 58.1045C24.1232 58.1045 24.5032 57.7145 24.5032 57.2445Z" fill="#3BCAF4"/>
<path d="M36.1927 57.2445C36.1927 56.7645 35.8127 56.3845 35.3327 56.3845C34.8527 56.3845 34.4727 56.7645 34.4727 57.2445C34.4727 57.7245 34.8527 58.1045 35.3327 58.1045C35.8127 58.1045 36.1927 57.7145 36.1927 57.2445Z" fill="url(#paint13_linear)"/>
<path d="M40.0833 57.2445C40.0833 56.7645 39.7033 56.3845 39.2233 56.3845C38.7433 56.3845 38.3633 56.7645 38.3633 57.2445C38.3633 57.7245 38.7433 58.1045 39.2233 58.1045C39.7033 58.1045 40.0833 57.7145 40.0833 57.2445Z" fill="url(#paint14_linear)"/>
<path d="M28.4036 53.4745C28.4036 52.9945 28.0236 52.6145 27.5436 52.6145C27.0636 52.6145 26.6836 52.9945 26.6836 53.4745C26.6836 53.9545 27.0636 54.3345 27.5436 54.3345C28.0136 54.3245 28.4036 53.9445 28.4036 53.4745Z" fill="#3BCAF4"/>
<path d="M31.443 54.3345C31.923 54.3345 32.303 53.9445 32.303 53.4745C32.303 53.0045 31.913 52.6145 31.443 52.6145C30.973 52.6145 30.583 53.0045 30.583 53.4745C30.583 53.9445 30.963 54.3345 31.443 54.3345Z" fill="#3BCAF4"/>
<path d="M20.6136 53.4745C20.6136 52.9945 20.2336 52.6145 19.7536 52.6145C19.2736 52.6145 18.8936 52.9945 18.8936 53.4745C18.8936 53.9545 19.2736 54.3345 19.7536 54.3345C20.2236 54.3245 20.6136 53.9445 20.6136 53.4745Z" fill="#50E6FF"/>
<path d="M23.653 54.3345C24.133 54.3345 24.513 53.9445 24.513 53.4745C24.513 53.0045 24.123 52.6145 23.653 52.6145C23.183 52.6145 22.793 53.0045 22.793 53.4745C22.793 53.9445 23.173 54.3345 23.653 54.3345Z" fill="#3BCAF4"/>
<path d="M36.1927 53.4745C36.1927 52.9945 35.8127 52.6145 35.3327 52.6145C34.8527 52.6145 34.4727 52.9945 34.4727 53.4745C34.4727 53.9545 34.8527 54.3345 35.3327 54.3345C35.8127 54.3345 36.1927 53.9445 36.1927 53.4745Z" fill="#3BCAF4"/>
<path d="M39.2233 54.3345C39.7033 54.3345 40.0833 53.9445 40.0833 53.4745C40.0833 53.0045 39.6933 52.6145 39.2233 52.6145C38.7433 52.6145 38.3633 53.0045 38.3633 53.4745C38.3633 53.9445 38.7533 54.3345 39.2233 54.3345Z" fill="url(#paint15_linear)"/>
<path d="M28.4036 49.6845C28.4036 49.2045 28.0236 48.8245 27.5436 48.8245C27.0636 48.8245 26.6836 49.2045 26.6836 49.6845C26.6836 50.1645 27.0636 50.5445 27.5436 50.5445C28.0136 50.5445 28.4036 50.1545 28.4036 49.6845Z" fill="#50E6FF"/>
<path d="M32.2932 49.6845C32.2932 49.2045 31.9132 48.8245 31.4332 48.8245C30.9532 48.8245 30.5732 49.2145 30.5732 49.6845C30.5732 50.1545 30.9532 50.5445 31.4332 50.5445C31.9132 50.5445 32.2932 50.1545 32.2932 49.6845Z" fill="#50E6FF"/>
<path d="M20.6136 49.6845C20.6136 49.2045 20.2336 48.8245 19.7536 48.8245C19.2736 48.8245 18.8936 49.2045 18.8936 49.6845C18.8936 50.1645 19.2736 50.5445 19.7536 50.5445C20.2236 50.5445 20.6136 50.1545 20.6136 49.6845Z" fill="#50E6FF"/>
<path d="M24.5032 49.6845C24.5032 49.2045 24.1232 48.8245 23.6432 48.8245C23.1632 48.8245 22.7832 49.2045 22.7832 49.6845C22.7832 50.1645 23.1632 50.5445 23.6432 50.5445C24.1232 50.5445 24.5032 50.1545 24.5032 49.6845Z" fill="#50E6FF"/>
<path d="M36.1927 49.6845C36.1927 49.2045 35.8127 48.8245 35.3327 48.8245C34.8527 48.8245 34.4727 49.2045 34.4727 49.6845C34.4727 50.1645 34.8527 50.5445 35.3327 50.5445C35.8127 50.5445 36.1927 50.1545 36.1927 49.6845Z" fill="#50E6FF"/>
<path d="M40.0833 49.6845C40.0833 49.2045 39.7033 48.8245 39.2233 48.8245C38.7433 48.8245 38.3633 49.2045 38.3633 49.6845C38.3633 50.1645 38.7433 50.5445 39.2233 50.5445C39.7033 50.5445 40.0833 50.1545 40.0833 49.6845Z" fill="#50E6FF"/>
<path d="M28.4036 45.9144C28.4036 45.4344 28.0236 45.0544 27.5436 45.0544C27.0636 45.0544 26.6836 45.4344 26.6836 45.9144C26.6836 46.3944 27.0636 46.7744 27.5436 46.7744C28.0136 46.7644 28.4036 46.3844 28.4036 45.9144Z" fill="#50E6FF"/>
<path d="M32.2932 45.9144C32.2932 45.4344 31.9132 45.0544 31.4332 45.0544C30.9532 45.0544 30.5732 45.4344 30.5732 45.9144C30.5732 46.3944 30.9532 46.7744 31.4332 46.7744C31.9132 46.7744 32.2932 46.3844 32.2932 45.9144Z" fill="#50E6FF"/>
<path d="M20.6136 45.9144C20.6136 45.4344 20.2336 45.0544 19.7536 45.0544C19.2736 45.0544 18.8936 45.4344 18.8936 45.9144C18.8936 46.3944 19.2736 46.7744 19.7536 46.7744C20.2236 46.7644 20.6136 46.3844 20.6136 45.9144Z" fill="#9CEBFF"/>
<path d="M24.5032 45.9144C24.5032 45.4344 24.1232 45.0544 23.6432 45.0544C23.1632 45.0544 22.7832 45.4344 22.7832 45.9144C22.7832 46.3944 23.1632 46.7744 23.6432 46.7744C24.1232 46.7644 24.5032 46.3844 24.5032 45.9144Z" fill="#9CEBFF"/>
<path d="M36.1927 45.9144C36.1927 45.4344 35.8127 45.0544 35.3327 45.0544C34.8527 45.0544 34.4727 45.4344 34.4727 45.9144C34.4727 46.3944 34.8527 46.7744 35.3327 46.7744C35.8127 46.7744 36.1927 46.3844 36.1927 45.9144Z" fill="#50E6FF"/>
<path d="M40.0833 45.9144C40.0833 45.4344 39.7033 45.0544 39.2233 45.0544C38.7433 45.0544 38.3633 45.4344 38.3633 45.9144C38.3633 46.3944 38.7433 46.7744 39.2233 46.7744C39.7033 46.7744 40.0833 46.3844 40.0833 45.9144Z" fill="#50E6FF"/>
<path d="M28.4036 42.1344C28.4036 41.6544 28.0236 41.2744 27.5436 41.2744C27.0636 41.2744 26.6836 41.6544 26.6836 42.1344C26.6836 42.6144 27.0636 42.9944 27.5436 42.9944C28.0136 42.9944 28.4036 42.6144 28.4036 42.1344Z" fill="#9CEBFF"/>
<path d="M32.2932 42.1344C32.2932 41.6544 31.9132 41.2744 31.4332 41.2744C30.9532 41.2744 30.5732 41.6644 30.5732 42.1344C30.5732 42.6044 30.9532 42.9944 31.4332 42.9944C31.9132 42.9944 32.2932 42.6144 32.2932 42.1344Z" fill="#9CEBFF"/>
<path d="M20.6136 42.1344C20.6136 41.6544 20.2336 41.2744 19.7536 41.2744C19.2736 41.2744 18.8936 41.6544 18.8936 42.1344C18.8936 42.6144 19.2736 42.9944 19.7536 42.9944C20.2236 42.9944 20.6136 42.6144 20.6136 42.1344Z" fill="#9CEBFF"/>
<path d="M24.5032 42.1344C24.5032 41.6544 24.1232 41.2744 23.6432 41.2744C23.1632 41.2744 22.7832 41.6544 22.7832 42.1344C22.7832 42.6144 23.1632 42.9944 23.6432 42.9944C24.1232 42.9944 24.5032 42.6144 24.5032 42.1344Z" fill="#9CEBFF"/>
<path d="M36.1927 42.1344C36.1927 41.6544 35.8127 41.2744 35.3327 41.2744C34.8527 41.2744 34.4727 41.6544 34.4727 42.1344C34.4727 42.6144 34.8527 42.9944 35.3327 42.9944C35.8127 42.9944 36.1927 42.6144 36.1927 42.1344Z" fill="#9CEBFF"/>
<path d="M40.0833 42.1344C40.0833 41.6544 39.7033 41.2744 39.2233 41.2744C38.7433 41.2744 38.3633 41.6544 38.3633 42.1344C38.3633 42.6144 38.7433 42.9944 39.2233 42.9944C39.7033 42.9944 40.0833 42.6144 40.0833 42.1344Z" fill="#50E6FF"/>
<path d="M51.5029 53.8345H48.5029" stroke="white" stroke-width="0.6" stroke-miterlimit="10" stroke-linecap="round" stroke-linejoin="round"/>
<path d="M51.543 46.7144H48.543" stroke="white" stroke-width="0.6" stroke-miterlimit="10" stroke-linecap="round" stroke-linejoin="round"/>
<path d="M48.5029 60.7944H51.5029" stroke="white" stroke-width="0.6" stroke-miterlimit="10" stroke-linecap="round" stroke-linejoin="round"/>
<path d="M51.5029 39.7244H48.5029" stroke="white" stroke-width="0.6" stroke-miterlimit="10" stroke-linecap="round" stroke-linejoin="round"/>
<path d="M51.2529 38.7944L52.9029 39.7544L51.2529 40.7144V38.7944Z" fill="white"/>
<path d="M51.293 45.7644L52.943 46.7244L51.293 47.6844V45.7644Z" fill="white"/>
<path d="M51.2529 52.8845L52.9029 53.8445L51.2529 54.8045V52.8845Z" fill="white"/>
<path d="M51.2529 59.8445L52.9029 60.8045L51.2529 61.7645V59.8445Z" fill="white"/>
<defs>
<linearGradient id="paint0_linear" x1="50.0938" y1="-13.6446" x2="54.0758" y2="132.126" gradientUnits="userSpaceOnUse">
<stop stop-color="#00ABDE"/>
<stop offset="1" stop-color="#007ED8"/>
</linearGradient>
<linearGradient id="paint1_linear" x1="3.2964" y1="-20.4805" x2="98.8244" y2="120.401" gradientUnits="userSpaceOnUse">
<stop stop-color="#007ED8"/>
<stop offset="0.7065" stop-color="#002D4C"/>
</linearGradient>
<linearGradient id="paint2_linear" x1="74.6764" y1="61.6777" x2="74.6764" y2="40.8916" gradientUnits="userSpaceOnUse">
<stop stop-color="#1B93EB"/>
<stop offset="0.21" stop-color="#2095EB"/>
<stop offset="0.44" stop-color="#2E9CED"/>
<stop offset="0.69" stop-color="#45A7EF"/>
<stop offset="0.95" stop-color="#64B6F1"/>
<stop offset="1" stop-color="#6BB9F2"/>
</linearGradient>
<linearGradient id="paint3_linear" x1="41.9136" y1="26.545" x2="65.3079" y2="62.4083" gradientUnits="userSpaceOnUse">
<stop stop-color="#007ED8"/>
<stop offset="0.7065" stop-color="#002D4C"/>
</linearGradient>
<linearGradient id="paint4_linear" x1="35.426" y1="30.7773" x2="58.8204" y2="66.6396" gradientUnits="userSpaceOnUse">
<stop stop-color="#007ED8"/>
<stop offset="0.7065" stop-color="#002D4C"/>
</linearGradient>
<linearGradient id="paint5_linear" x1="38.6758" y1="28.6574" x2="62.0701" y2="64.5207" gradientUnits="userSpaceOnUse">
<stop stop-color="#007ED8"/>
<stop offset="0.7065" stop-color="#002D4C"/>
</linearGradient>
<linearGradient id="paint6_linear" x1="32.1878" y1="32.8897" x2="55.5822" y2="68.753" gradientUnits="userSpaceOnUse">
<stop stop-color="#007ED8"/>
<stop offset="0.7065" stop-color="#002D4C"/>
</linearGradient>
<linearGradient id="paint7_linear" x1="4.84562" y1="23.7684" x2="49.1885" y2="73.1424" gradientUnits="userSpaceOnUse">
<stop stop-color="#007ED8"/>
<stop offset="0.7065" stop-color="#002D4C"/>
</linearGradient>
<linearGradient id="paint8_linear" x1="23.0244" y1="57.908" x2="58.7832" y2="82.6365" gradientUnits="userSpaceOnUse">
<stop stop-color="#007ED8"/>
<stop offset="0.7065" stop-color="#002D4C"/>
</linearGradient>
<linearGradient id="paint9_linear" x1="24.3521" y1="56.1296" x2="60.111" y2="80.8581" gradientUnits="userSpaceOnUse">
<stop stop-color="#007ED8"/>
<stop offset="0.7065" stop-color="#002D4C"/>
</linearGradient>
<linearGradient id="paint10_linear" x1="25.8858" y1="54.4968" x2="61.6447" y2="79.2253" gradientUnits="userSpaceOnUse">
<stop stop-color="#007ED8"/>
<stop offset="0.7065" stop-color="#002D4C"/>
</linearGradient>
<linearGradient id="paint11_linear" x1="25.9599" y1="51.8515" x2="64.4419" y2="78.4638" gradientUnits="userSpaceOnUse">
<stop stop-color="#007ED8"/>
<stop offset="0.7065" stop-color="#002D4C"/>
</linearGradient>
<linearGradient id="paint12_linear" x1="25.9409" y1="53.4462" x2="61.6998" y2="78.1749" gradientUnits="userSpaceOnUse">
<stop stop-color="#007ED8"/>
<stop offset="0.7065" stop-color="#002D4C"/>
</linearGradient>
<linearGradient id="paint13_linear" x1="27.4736" y1="51.8134" x2="63.2324" y2="76.542" gradientUnits="userSpaceOnUse">
<stop stop-color="#007ED8"/>
<stop offset="0.7065" stop-color="#002D4C"/>
</linearGradient>
<linearGradient id="paint14_linear" x1="28.6167" y1="49.9101" x2="64.3754" y2="74.6397" gradientUnits="userSpaceOnUse">
<stop stop-color="#007ED8"/>
<stop offset="0.7065" stop-color="#002D4C"/>
</linearGradient>
<linearGradient id="paint15_linear" x1="30.3851" y1="47.3535" x2="66.1438" y2="72.082" gradientUnits="userSpaceOnUse">
<stop stop-color="#007ED8"/>
<stop offset="0.7065" stop-color="#002D4C"/>
</linearGradient>
</defs>
</svg>
