<svg width="103" height="103" viewBox="0 0 103 103" fill="none" xmlns="http://www.w3.org/2000/svg">
<path d="M51.225 98.5199C25.375 98.5199 4.41504 77.5699 4.41504 51.7099C4.41504 25.8499 25.375 4.8999 51.225 4.8999C77.075 4.8999 98.035 25.8599 98.035 51.7099C98.035 77.5599 77.075 98.5199 51.225 98.5199Z" fill="url(#paint0_linear)"/>
<path fill-rule="evenodd" clip-rule="evenodd" d="M97.1252 51.7098C97.1252 77.0598 76.5752 97.6098 51.2252 97.6098C25.8752 97.6098 5.3252 77.0598 5.3252 51.7098C5.3252 26.3598 25.8752 5.80982 51.2252 5.80982C76.5752 5.80982 97.1252 26.3598 97.1252 51.7098ZM51.2252 2.06982C78.6452 2.06982 100.865 24.2898 100.865 51.7098C100.865 79.1298 78.6352 101.35 51.2252 101.35C23.8052 101.35 1.58521 79.1198 1.58521 51.7098C1.58521 24.2898 23.8052 2.06982 51.2252 2.06982Z" fill="#F2F1F0"/>
<path fill-rule="evenodd" clip-rule="evenodd" d="M94.315 51.7099C94.315 75.5099 75.025 94.7999 51.225 94.7999C27.425 94.7999 8.13502 75.5099 8.13502 51.7099C8.13502 27.9099 27.425 8.61988 51.225 8.61988C75.025 8.61988 94.315 27.9099 94.315 51.7099ZM51.225 4.87988C77.085 4.87988 98.055 25.8499 98.055 51.7099C98.055 77.5699 77.085 98.5399 51.225 98.5399C25.365 98.5399 4.39502 77.5699 4.39502 51.7099C4.39502 25.8499 25.355 4.87988 51.225 4.87988Z" fill="url(#paint1_linear)"/>
<path opacity="0.15" fill-rule="evenodd" clip-rule="evenodd" d="M51.805 91.7099C51.455 91.7099 51.095 91.6299 50.775 91.4699C29.835 80.9399 20.895 67.9899 20.895 48.1899V29.8599C20.895 28.5999 21.915 27.5699 23.185 27.5699C36.365 27.5699 45.165 24.8299 50.075 19.1899C50.945 18.1899 52.655 18.1899 53.525 19.1899C58.445 24.8299 67.235 27.5699 80.415 27.5699C81.675 27.5699 82.705 28.5999 82.705 29.8599V48.1899C82.705 67.9999 73.765 80.9399 52.825 91.4699C52.515 91.6299 52.155 91.7099 51.805 91.7099Z" fill="#1F1D20"/>
<path fill-rule="evenodd" clip-rule="evenodd" d="M25.475 30.14V46.2C25.475 63.94 33.125 75.21 51.805 84.86C70.485 75.21 78.135 63.94 78.135 46.2V30.14C66.105 29.84 57.445 27.17 51.805 21.99C46.165 27.17 37.515 29.85 25.475 30.14ZM51.805 89.73C51.455 89.73 51.095 89.65 50.775 89.49C29.835 78.96 20.895 66.01 20.895 46.21V27.88C20.895 26.62 21.915 25.59 23.185 25.59C36.365 25.59 45.165 22.85 50.075 17.21C50.945 16.21 52.655 16.21 53.525 17.21C58.445 22.85 67.235 25.59 80.415 25.59C81.675 25.59 82.705 26.62 82.705 27.88V46.21C82.705 66.02 73.765 78.96 52.825 89.49C52.515 89.65 52.155 89.73 51.805 89.73Z" fill="#546670"/>
<path fill-rule="evenodd" clip-rule="evenodd" d="M51.7951 20.3398C46.0751 26.8998 35.9851 29.0798 24.4951 29.0798V46.5498C24.4951 64.5598 32.4751 76.1598 51.7951 85.8598C71.1151 76.1598 79.0951 64.5598 79.0951 46.5498V29.0698C67.6051 29.0698 57.5251 26.8998 51.7951 20.3398Z" fill="#243A5E"/>
<path fill-rule="evenodd" clip-rule="evenodd" d="M51.7949 20.3398V85.8699C71.1149 76.1599 79.0949 64.5598 79.0949 46.5498V29.0698C67.5949 29.0698 57.5149 26.8998 51.7949 20.3398Z" fill="#002D4C"/>
<path opacity="0.25" d="M34.9452 60.25C31.5452 60.25 28.7952 57.49 28.7952 54.1C28.7952 51 31.0852 48.44 34.0752 48.04C33.8452 47.08 33.6952 46.07 33.6952 45.02C33.7252 38.23 39.2052 32.75 46.0052 32.75C50.6752 32.75 54.7452 35.39 56.8352 39.25C57.8552 38.76 59.0152 38.47 60.2352 38.47C64.4752 38.47 67.9252 41.92 67.9252 46.16C67.9252 46.8 67.8352 47.44 67.6952 48.05C67.9252 48.02 68.1552 48.02 68.3952 48.02C71.7652 47.99 74.5152 50.72 74.5152 54.11C74.5152 57.5 71.7552 60.26 68.3652 60.26H34.9452V60.25Z" fill="url(#paint2_linear)"/>
<path d="M68.3551 60.79H34.9451C31.2551 60.79 28.2551 57.79 28.2551 54.1C28.2551 50.98 30.4451 48.29 33.4251 47.61C33.2451 46.73 33.1551 45.86 33.1551 45.02C33.1851 37.96 38.9451 32.21 45.9951 32.21C50.5351 32.21 54.7251 34.63 57.0451 38.55C58.0451 38.14 59.1351 37.92 60.2151 37.92C64.7551 37.92 68.4451 41.61 68.4451 46.14C68.4451 46.57 68.4051 47.01 68.3351 47.46C68.3651 47.46 68.3951 47.46 68.4351 47.46C70.1851 47.46 71.8251 48.14 73.0751 49.37C74.3351 50.62 75.0351 52.3 75.0351 54.08C75.0351 57.79 72.0351 60.79 68.3551 60.79ZM46.0051 33.29C39.5451 33.29 34.2651 38.55 34.2351 45.03C34.2351 45.95 34.3551 46.93 34.5951 47.92L34.7351 48.5L34.1451 48.58C31.3951 48.95 29.3251 51.33 29.3251 54.11C29.3251 57.21 31.8451 59.72 34.9451 59.72H68.3551C71.4551 59.72 73.9751 57.2 73.9751 54.11C73.9751 52.61 73.3951 51.21 72.3351 50.16C71.2951 49.12 69.9051 48.56 68.4451 48.56C68.2051 48.56 67.9751 48.56 67.7651 48.58L66.9951 48.67L67.1751 47.92C67.3151 47.31 67.3951 46.72 67.3951 46.16C67.3951 42.22 64.1851 39.01 60.2351 39.01C59.1451 39.01 58.0551 39.26 57.0751 39.74L56.6151 39.96L56.3751 39.51C54.2751 35.67 50.3151 33.29 46.0051 33.29Z" fill="white"/>
<path opacity="0.15" d="M51.7252 58.79L62.5952 65.11L51.6952 71.43L40.8452 65.11L51.7252 58.79Z" fill="#1F1D20"/>
<path d="M51.6952 57.3298V69.9598L40.8552 63.6098V51.0098L51.6952 57.3298Z" fill="#32B0E7"/>
<path d="M51.7252 44.6899L62.5952 51.0099L51.6952 57.3299L40.8452 51.0099L51.7252 44.6899Z" fill="#45CAF2"/>
<path d="M62.5953 51.0098V63.5998L51.6953 69.9498V57.3298L62.5953 51.0098Z" fill="#156AB3"/>
<path d="M51.6953 69.9501V57.3301L62.5953 63.6101L51.6953 69.9501Z" fill="#185A97"/>
<path d="M51.6952 69.9501V57.3301L40.8552 63.6101L51.6952 69.9501Z" fill="#0078D4"/>
<defs>
<linearGradient id="paint0_linear" x1="49.4551" y1="-13.0801" x2="53.4371" y2="132.69" gradientUnits="userSpaceOnUse">
<stop stop-color="#00ABDE"/>
<stop offset="1" stop-color="#007ED8"/>
</linearGradient>
<linearGradient id="paint1_linear" x1="2.65772" y1="-19.9151" x2="98.1847" y2="120.967" gradientUnits="userSpaceOnUse">
<stop stop-color="#007ED8"/>
<stop offset="0.7065" stop-color="#002D4C"/>
</linearGradient>
<linearGradient id="paint2_linear" x1="50.6442" y1="13.4678" x2="51.8516" y2="62.416" gradientUnits="userSpaceOnUse">
<stop offset="0.5727" stop-color="white" stop-opacity="0"/>
<stop offset="0.7823" stop-color="white" stop-opacity="0.4301"/>
<stop offset="0.9044" stop-color="white" stop-opacity="0.5"/>
<stop offset="0.9993" stop-color="white"/>
</linearGradient>
</defs>
</svg>
