<?xml version="1.0" encoding="UTF-8" standalone="no"?>
<!DOCTYPE svg PUBLIC "-//W3C//DTD SVG 1.1//EN" "http://www.w3.org/Graphics/SVG/1.1/DTD/svg11.dtd">
<!-- Generated by Microsoft Visio, SVG Export azure-infra-spoke-subscription-paas-nsg-4.svg Page-1 -->
<svg xmlns="http://www.w3.org/2000/svg" xmlns:xlink="http://www.w3.org/1999/xlink" xmlns:ev="http://www.w3.org/2001/xml-events"
		xmlns:v="http://schemas.microsoft.com/visio/2003/SVGExtensions/" width="2.80929in" height="4.23648in"
		viewBox="0 0 202.269 305.026" xml:space="preserve" color-interpolation-filters="sRGB" class="st25">
	<title>Diagrams for applying Zero Trust principles to Azure IaaS infrastructure</title>
	<v:documentProperties v:langID="1033" v:viewMarkup="false"/>

	<style type="text/css">
	<![CDATA[
		.st1 {fill:#ffffff;stroke:none;stroke-linecap:round;stroke-linejoin:round;stroke-width:0.75}
		.st2 {fill:none;stroke:#7f7f7f;stroke-dasharray:7,5;stroke-width:1}
		.st3 {fill:#0078d4;stroke:none;stroke-linecap:butt;stroke-width:0.75}
		.st4 {fill:#6bb9f2;stroke:none;stroke-linecap:butt;stroke-width:0.75}
		.st5 {fill:url(#grad0-13);stroke:none;stroke-linecap:butt;stroke-width:0.75}
		.st6 {fill:#50e6ff;stroke:none;stroke-linecap:butt;stroke-width:0.75}
		.st7 {fill:none;stroke:none;stroke-width:0.25}
		.st8 {fill:#7f7f7f;font-family:Segoe UI;font-size:0.916672em}
		.st9 {font-size:1em}
		.st10 {marker-end:url(#mrkr13-36);stroke:#00b050;stroke-linecap:round;stroke-linejoin:round;stroke-width:0.75}
		.st11 {fill:#00b050;fill-opacity:1;stroke:#00b050;stroke-opacity:1;stroke-width:0.22935779816514}
		.st12 {fill:#4672c4;font-family:Segoe UI;font-size:0.916672em}
		.st13 {fill:#ff0000;font-family:Segoe UI;font-size:0.916672em}
		.st14 {fill:#7a7a7a;stroke:none;stroke-linecap:butt;stroke-width:0.75}
		.st15 {fill:#1490df;stroke:none;stroke-linecap:butt;stroke-width:0.75}
		.st16 {fill:url(#grad0-80);stroke:none;stroke-linecap:butt;stroke-width:0.75}
		.st17 {fill:url(#grad0-84);stroke:none;stroke-linecap:butt;stroke-width:0.75}
		.st18 {fill:#000000;font-family:Calibri;font-size:0.75em}
		.st19 {fill:url(#grad7-100);stroke:none;stroke-linecap:butt;stroke-width:0.75}
		.st20 {fill:#ffffff;fill-opacity:0.6;stroke:none;stroke-linecap:butt;stroke-width:0.75}
		.st21 {fill:#f2f2f2;fill-opacity:0.55;stroke:none;stroke-linecap:butt;stroke-width:0.75}
		.st22 {fill:url(#grad0-110);stroke:none;stroke-linecap:butt;stroke-width:0.75}
		.st23 {fill:url(#grad0-118);stroke:none;stroke-linecap:butt;stroke-width:0.75}
		.st24 {fill:#f2f2f2;fill-opacity:0.7;stroke:none;stroke-linecap:butt;stroke-width:0.75}
		.st25 {fill:none;fill-rule:evenodd;font-size:12px;overflow:visible;stroke-linecap:square;stroke-miterlimit:3}
	]]>
	</style>

	<defs id="Patterns_And_Gradients">
		<linearGradient id="grad0-13" x1="0" y1="0" x2="1" y2="0" gradientTransform="rotate(90 0.5 0.5)">
			<stop offset="0" stop-color="#5ea0ef" stop-opacity="1"/>
			<stop offset="0.18" stop-color="#559cec" stop-opacity="1"/>
			<stop offset="0.47" stop-color="#3c91e5" stop-opacity="1"/>
			<stop offset="0.84" stop-color="#1380da" stop-opacity="1"/>
			<stop offset="1" stop-color="#0078d4" stop-opacity="1"/>
		</linearGradient>
		<linearGradient id="grad0-80" x1="0" y1="0" x2="1" y2="0" gradientTransform="rotate(90 0.5 0.5)">
			<stop offset="0.23" stop-color="#5ea0ef" stop-opacity="1"/>
			<stop offset="0.32" stop-color="#5b9fee" stop-opacity="1"/>
			<stop offset="0.48" stop-color="#509aeb" stop-opacity="1"/>
			<stop offset="0.57" stop-color="#3f92e6" stop-opacity="1"/>
			<stop offset="0.75" stop-color="#2688df" stop-opacity="1"/>
			<stop offset="0.93" stop-color="#127fd9" stop-opacity="1"/>
		</linearGradient>
		<linearGradient id="grad0-84" x1="0" y1="0" x2="1" y2="0" gradientTransform="rotate(90 0.5 0.5)">
			<stop offset="0.02" stop-color="#5ea0ef" stop-opacity="1"/>
			<stop offset="0.14" stop-color="#5b9fee" stop-opacity="1"/>
			<stop offset="0.23" stop-color="#5b9fee" stop-opacity="1"/>
			<stop offset="0.34" stop-color="#509aeb" stop-opacity="1"/>
			<stop offset="0.44" stop-color="#3f92e6" stop-opacity="1"/>
			<stop offset="0.63" stop-color="#2688df" stop-opacity="1"/>
			<stop offset="0.93" stop-color="#127fd9" stop-opacity="1"/>
		</linearGradient>
		<radialGradient id="grad7-100" cx="0" cy="0" r="1.4">
			<stop offset="0.18" stop-color="#5ea0ef" stop-opacity="1"/>
			<stop offset="1" stop-color="#0078d4" stop-opacity="1"/>
		</radialGradient>
		<linearGradient id="grad0-110" x1="0" y1="0" x2="1" y2="0" gradientTransform="rotate(-90.435149452297 0.5 0.5)">
			<stop offset="0" stop-color="#cccccc" stop-opacity="1"/>
			<stop offset="1" stop-color="#fcfcfc" stop-opacity="1"/>
		</linearGradient>
		<linearGradient id="grad0-118" x1="0" y1="0" x2="1" y2="0" gradientTransform="rotate(-90 0.5 0.5)">
			<stop offset="0" stop-color="#cccccc" stop-opacity="1"/>
			<stop offset="1" stop-color="#fcfcfc" stop-opacity="1"/>
		</linearGradient>
	</defs>
	<defs id="Markers">
		<g id="lend13">
			<path d="M 3 1 L 0 0 L 3 -1 L 3 1 " style="stroke:none"/>
		</g>
		<marker id="mrkr13-36" class="st11" v:arrowType="13" v:arrowSize="2" v:setback="13.08" refX="-13.08" orient="auto"
				markerUnits="strokeWidth" overflow="visible">
			<use xlink:href="#lend13" transform="scale(-4.36,-4.36) "/>
		</marker>
	</defs>
	<g v:mID="0" v:index="1" v:groupContext="foregroundPage">
		<v:userDefs>
			<v:ud v:nameU="visNavType" v:val="VT0(1):26"/>
		</v:userDefs>
		<title>Page-1</title>
		<v:pageProperties v:drawingScale="1" v:pageScale="1" v:drawingUnits="19" v:shadowOffsetX="9" v:shadowOffsetY="-9"/>
		<g id="shape1637-1" v:mID="1637" v:groupContext="shape" transform="translate(4.57543,-0.375)">
			<title>Sheet.1637</title>
			<v:userDefs>
				<v:ud v:nameU="visNavOrder" v:val="VT0(310000):26"/>
			</v:userDefs>
			<rect x="0" y="0.749993" width="197.319" height="304.276" class="st1"/>
		</g>
		<g id="shape1056-3" v:mID="1056" v:groupContext="shape" transform="translate(35.6997,-8.52342)">
			<title>Sheet.1056</title>
			<v:userDefs>
				<v:ud v:nameU="visNavOrder" v:prompt="" v:val="VT0(102000):26"/>
			</v:userDefs>
			<path d="M0 305.03 L145.31 305.03 L145.31 252.87 L0 252.87 L0 305.03 Z" class="st2"/>
		</g>
		<g id="group1057-5" transform="translate(28.9052,-50.8526)" v:mID="1057" v:groupContext="group">
			<v:userDefs>
				<v:ud v:nameU="visNavOrder" v:prompt="" v:val="VT0(103000):26"/>
			</v:userDefs>
			<title>Network Security Groups.4075</title>
			<g id="shape1058-6" v:mID="1058" v:groupContext="shape">
				<title>Sheet.1058</title>
				<v:userDefs>
					<v:ud v:nameU="msvDisableCustomConnectionPoints" v:prompt="" v:val="VT0(1):5"/>
				</v:userDefs>
				<path d="M14.19 296.06 C14.19 300.58 8.55 304.22 7.33 304.96 a0.443422 0.429861 0 0 1 -0.462701 -5.68434E-14 C5.64
							 304.22 0 300.58 0 296.06 L0 290.62 a0.443422 0.429861 0 0 1 0.433783 -0.429861 C4.82 290.08 3.81 288.21
							 7.09 288.21 C10.38 288.21 9.37 290.08 13.76 290.19 a0.443422 0.429861 0 0 1 0.433783 0.429861 L14.19
							 296.06 Z" class="st3"/>
			</g>
			<g id="shape1059-8" v:mID="1059" v:groupContext="shape" transform="translate(0.588016,-0.698085)">
				<title>Sheet.1059</title>
				<v:userDefs>
					<v:ud v:nameU="msvDisableCustomConnectionPoints" v:prompt="" v:val="VT0(1):5"/>
				</v:userDefs>
				<path d="M13.01 296.8 C13.01 300.95 7.85 304.28 6.72 304.97 a0.414503 0.401826 0 0 1 -0.424143 0 C5.17 304.3 0 300.95
							 0 296.8 L0 291.81 a0.404864 0.392481 0 0 1 0.395224 -0.392481 C4.41 291.32 3.49 289.61 6.51 289.61 C9.52
							 289.61 8.6 291.32 12.62 291.42 a0.404864 0.392481 0 0 1 0.395224 0.392481 L13.01 296.8 Z" class="st4"/>
			</g>
			<g id="shape1060-10" v:mID="1060" v:groupContext="shape" transform="translate(0.616935,-0.69859)">
				<title>Sheet.1060</title>
				<v:userDefs>
					<v:ud v:nameU="msvDisableCustomConnectionPoints" v:prompt="" v:val="VT0(1):5"/>
				</v:userDefs>
				<path d="M6.48 297.32 L6.48 289.61 C9.5 289.61 8.57 291.32 12.59 291.42 a0.414503 0.401826 0 0 1 0.395224 0.401826
							 L12.98 296.81 A4.71377 4.56961 0 0 1 12.98 297.32 L6.48 297.32 ZM6.48 297.32 L0 297.32 C0.39 301.22
							 5.19 304.33 6.27 304.97 a0.375945 0.364447 -180 0 0 0.173513 0.0560688 L6.48 305.03 L6.48 297.32 Z"
						class="st5"/>
			</g>
			<g id="shape1061-14" v:mID="1061" v:groupContext="shape" transform="translate(0.609744,-0.69859)">
				<title>Sheet.1061</title>
				<v:userDefs>
					<v:ud v:nameU="msvDisableCustomConnectionPoints" v:prompt="" v:val="VT0(1):5"/>
				</v:userDefs>
				<path d="M0.37 291.42 C4.39 291.32 3.47 289.61 6.49 289.61 L6.49 297.32 L0.01 297.32 A4.71377 4.56961 0 0 1 0.01
							 296.81 L0.01 291.82 a0.414503 0.401826 0 0 1 0.366305 -0.401826 ZM12.96 297.32 L6.49 297.32 L6.49 305.03
							 a0.375945 0.364447 -180 0 0 0.173513 -0.0560688 C7.78 304.33 12.58 301.22 12.96 297.32 Z" class="st6"/>
			</g>
		</g>
		<g id="shape1062-16" v:mID="1062" v:groupContext="shape" transform="translate(35.6845,-109.254)">
			<title>Sheet.1062</title>
			<v:userDefs>
				<v:ud v:nameU="visNavOrder" v:prompt="" v:val="VT0(104000):26"/>
			</v:userDefs>
			<path d="M0 305.03 L145.31 305.03 L145.31 252.87 L0 252.87 L0 305.03 Z" class="st2"/>
		</g>
		<g id="shape1063-18" v:mID="1063" v:groupContext="shape" transform="translate(35.6845,-218.286)">
			<title>Sheet.1063</title>
			<v:userDefs>
				<v:ud v:nameU="visNavOrder" v:prompt="" v:val="VT0(105000):26"/>
			</v:userDefs>
			<path d="M0 305.03 L145.31 305.03 L145.31 252.87 L0 252.87 L0 305.03 Z" class="st2"/>
		</g>
		<g id="shape1064-20" v:mID="1064" v:groupContext="shape" transform="translate(82.9004,-52.9651)">
			<title>Sheet.1064</title>
			<desc>Data tier subnet</desc>
			<v:userDefs>
				<v:ud v:nameU="visNavOrder" v:prompt="" v:val="VT0(106000):26"/>
			</v:userDefs>
			<v:textBlock v:margins="rect(4,4,4,4)"/>
			<v:textRect cx="50.8578" cy="290.382" width="101.72" height="29.2888"/>
			<rect x="0" y="275.737" width="101.716" height="29.2888" class="st7"/>
			<text x="20.02" y="293.68" class="st8" v:langID="1033"><v:paragraph v:horizAlign="2"/><v:tabList/>Data tier subnet</text>		</g>
		<g id="shape1065-23" v:mID="1065" v:groupContext="shape" transform="translate(90.1011,-158.939)">
			<title>Sheet.1065</title>
			<desc>Web tier egress subnet</desc>
			<v:userDefs>
				<v:ud v:nameU="visNavOrder" v:prompt="" v:val="VT0(107000):26"/>
			</v:userDefs>
			<v:textBlock v:margins="rect(4,4,4,4)"/>
			<v:textRect cx="47.2574" cy="290.382" width="94.52" height="29.2888"/>
			<rect x="0" y="275.737" width="94.5148" height="29.2888" class="st7"/>
			<text x="14.88" y="287.08" class="st8" v:langID="1033"><v:paragraph v:horizAlign="2"/><v:tabList/>Web tier egress <tspan
						x="57.45" dy="1.2em" class="st9">subnet</tspan></text>		</g>
		<g id="shape1066-27" v:mID="1066" v:groupContext="shape" transform="translate(69.75,-270.294)">
			<title>Sheet.1066</title>
			<desc>Web tier ingress subnet</desc>
			<v:userDefs>
				<v:ud v:nameU="visNavOrder" v:prompt="" v:val="VT0(108000):26"/>
			</v:userDefs>
			<v:textBlock v:margins="rect(4,4,4,4)"/>
			<v:textRect cx="57.433" cy="290.382" width="114.87" height="29.2888"/>
			<rect x="0" y="275.737" width="114.866" height="29.2888" class="st7"/>
			<text x="32.1" y="287.08" class="st8" v:langID="1033"><v:paragraph v:horizAlign="2"/><v:tabList/>Web tier ingress <tspan
						x="77.8" dy="1.2em" class="st9">subnet</tspan></text>		</g>
		<g id="shape1067-31" v:mID="1067" v:groupContext="shape" transform="translate(378.034,195.772) rotate(90)">
			<title>Sheet.1067</title>
			<v:userDefs>
				<v:ud v:nameU="visNavOrder" v:prompt="" v:val="VT0(109000):26"/>
			</v:userDefs>
			<path d="M0 305.03 L38.77 305.03" class="st10"/>
		</g>
		<g id="group1068-37" transform="translate(28.9052,-151.788)" v:mID="1068" v:groupContext="group">
			<v:userDefs>
				<v:ud v:nameU="visNavOrder" v:prompt="" v:val="VT0(110000):26"/>
			</v:userDefs>
			<title>Network Security Groups.4124</title>
			<g id="shape1069-38" v:mID="1069" v:groupContext="shape">
				<title>Sheet.1069</title>
				<v:userDefs>
					<v:ud v:nameU="msvDisableCustomConnectionPoints" v:prompt="" v:val="VT0(1):5"/>
				</v:userDefs>
				<path d="M14.19 296.06 C14.19 300.58 8.55 304.22 7.33 304.96 a0.443422 0.429861 0 0 1 -0.462701 -5.68434E-14 C5.64
							 304.22 0 300.58 0 296.06 L0 290.62 a0.443422 0.429861 0 0 1 0.433783 -0.429861 C4.82 290.08 3.81 288.21
							 7.09 288.21 C10.38 288.21 9.37 290.08 13.76 290.19 a0.443422 0.429861 0 0 1 0.433783 0.429861 L14.19
							 296.06 Z" class="st3"/>
			</g>
			<g id="shape1070-40" v:mID="1070" v:groupContext="shape" transform="translate(0.588016,-0.698085)">
				<title>Sheet.1070</title>
				<v:userDefs>
					<v:ud v:nameU="msvDisableCustomConnectionPoints" v:prompt="" v:val="VT0(1):5"/>
				</v:userDefs>
				<path d="M13.01 296.8 C13.01 300.95 7.85 304.28 6.72 304.97 a0.414503 0.401826 0 0 1 -0.424143 0 C5.17 304.3 0 300.95
							 0 296.8 L0 291.81 a0.404864 0.392481 0 0 1 0.395224 -0.392481 C4.41 291.32 3.49 289.61 6.51 289.61 C9.52
							 289.61 8.6 291.32 12.62 291.42 a0.404864 0.392481 0 0 1 0.395224 0.392481 L13.01 296.8 Z" class="st4"/>
			</g>
			<g id="shape1071-42" v:mID="1071" v:groupContext="shape" transform="translate(0.616935,-0.69859)">
				<title>Sheet.1071</title>
				<v:userDefs>
					<v:ud v:nameU="msvDisableCustomConnectionPoints" v:prompt="" v:val="VT0(1):5"/>
				</v:userDefs>
				<path d="M6.48 297.32 L6.48 289.61 C9.5 289.61 8.57 291.32 12.59 291.42 a0.414503 0.401826 0 0 1 0.395224 0.401826
							 L12.98 296.81 A4.71377 4.56961 0 0 1 12.98 297.32 L6.48 297.32 ZM6.48 297.32 L0 297.32 C0.39 301.22
							 5.19 304.33 6.27 304.97 a0.375945 0.364447 -180 0 0 0.173513 0.0560688 L6.48 305.03 L6.48 297.32 Z"
						class="st5"/>
			</g>
			<g id="shape1072-45" v:mID="1072" v:groupContext="shape" transform="translate(0.609744,-0.69859)">
				<title>Sheet.1072</title>
				<v:userDefs>
					<v:ud v:nameU="msvDisableCustomConnectionPoints" v:prompt="" v:val="VT0(1):5"/>
				</v:userDefs>
				<path d="M0.37 291.42 C4.39 291.32 3.47 289.61 6.49 289.61 L6.49 297.32 L0.01 297.32 A4.71377 4.56961 0 0 1 0.01
							 296.81 L0.01 291.82 a0.414503 0.401826 0 0 1 0.366305 -0.401826 ZM12.96 297.32 L6.49 297.32 L6.49 305.03
							 a0.375945 0.364447 -180 0 0 0.173513 -0.0560688 C7.78 304.33 12.58 301.22 12.96 297.32 Z" class="st6"/>
			</g>
		</g>
		<g id="group1073-47" transform="translate(28.9052,-260.064)" v:mID="1073" v:groupContext="group">
			<v:userDefs>
				<v:ud v:nameU="visNavOrder" v:prompt="" v:val="VT0(111000):26"/>
			</v:userDefs>
			<title>Network Security Groups.4130</title>
			<g id="shape1074-48" v:mID="1074" v:groupContext="shape">
				<title>Sheet.1074</title>
				<v:userDefs>
					<v:ud v:nameU="msvDisableCustomConnectionPoints" v:prompt="" v:val="VT0(1):5"/>
				</v:userDefs>
				<path d="M14.19 296.06 C14.19 300.58 8.55 304.22 7.33 304.96 a0.443422 0.429861 0 0 1 -0.462701 -5.68434E-14 C5.64
							 304.22 0 300.58 0 296.06 L0 290.62 a0.443422 0.429861 0 0 1 0.433783 -0.429861 C4.82 290.08 3.81 288.21
							 7.09 288.21 C10.38 288.21 9.37 290.08 13.76 290.19 a0.443422 0.429861 0 0 1 0.433783 0.429861 L14.19
							 296.06 Z" class="st3"/>
			</g>
			<g id="shape1075-50" v:mID="1075" v:groupContext="shape" transform="translate(0.588016,-0.698085)">
				<title>Sheet.1075</title>
				<v:userDefs>
					<v:ud v:nameU="msvDisableCustomConnectionPoints" v:prompt="" v:val="VT0(1):5"/>
				</v:userDefs>
				<path d="M13.01 296.8 C13.01 300.95 7.85 304.28 6.72 304.97 a0.414503 0.401826 0 0 1 -0.424143 0 C5.17 304.3 0 300.95
							 0 296.8 L0 291.81 a0.404864 0.392481 0 0 1 0.395224 -0.392481 C4.41 291.32 3.49 289.61 6.51 289.61 C9.52
							 289.61 8.6 291.32 12.62 291.42 a0.404864 0.392481 0 0 1 0.395224 0.392481 L13.01 296.8 Z" class="st4"/>
			</g>
			<g id="shape1076-52" v:mID="1076" v:groupContext="shape" transform="translate(0.616935,-0.69859)">
				<title>Sheet.1076</title>
				<v:userDefs>
					<v:ud v:nameU="msvDisableCustomConnectionPoints" v:prompt="" v:val="VT0(1):5"/>
				</v:userDefs>
				<path d="M6.48 297.32 L6.48 289.61 C9.5 289.61 8.57 291.32 12.59 291.42 a0.414503 0.401826 0 0 1 0.395224 0.401826
							 L12.98 296.81 A4.71377 4.56961 0 0 1 12.98 297.32 L6.48 297.32 ZM6.48 297.32 L0 297.32 C0.39 301.22
							 5.19 304.33 6.27 304.97 a0.375945 0.364447 -180 0 0 0.173513 0.0560688 L6.48 305.03 L6.48 297.32 Z"
						class="st5"/>
			</g>
			<g id="shape1077-55" v:mID="1077" v:groupContext="shape" transform="translate(0.609744,-0.69859)">
				<title>Sheet.1077</title>
				<v:userDefs>
					<v:ud v:nameU="msvDisableCustomConnectionPoints" v:prompt="" v:val="VT0(1):5"/>
				</v:userDefs>
				<path d="M0.37 291.42 C4.39 291.32 3.47 289.61 6.49 289.61 L6.49 297.32 L0.01 297.32 A4.71377 4.56961 0 0 1 0.01
							 296.81 L0.01 291.82 a0.414503 0.401826 0 0 1 0.366305 -0.401826 ZM12.96 297.32 L6.49 297.32 L6.49 305.03
							 a0.375945 0.364447 -180 0 0 0.173513 -0.0560688 C7.78 304.33 12.58 301.22 12.96 297.32 Z" class="st6"/>
			</g>
		</g>
		<g id="shape1177-57" v:mID="1177" v:groupContext="shape" transform="translate(119.59,-19.9562)">
			<title>Sheet.1177</title>
			<desc>ASG-data</desc>
			<v:userDefs>
				<v:ud v:nameU="visNavOrder" v:prompt="" v:val="VT0(188000):26"/>
			</v:userDefs>
			<v:textBlock v:margins="rect(4,4,4,4)"/>
			<v:textRect cx="30.375" cy="290.382" width="60.75" height="29.2888"/>
			<rect x="0" y="275.737" width="60.75" height="29.2888" class="st7"/>
			<text x="4" y="293.68" class="st12" v:langID="1033"><v:paragraph/><v:tabList/>ASG-data</text>		</g>
		<g id="shape1179-60" v:mID="1179" v:groupContext="shape" transform="translate(9.33981,-61.0832)">
			<title>Sheet.1179</title>
			<desc>NSG-data</desc>
			<v:userDefs>
				<v:ud v:nameU="visNavOrder" v:prompt="" v:val="VT0(190000):26"/>
			</v:userDefs>
			<v:textBlock v:margins="rect(4,4,4,4)"/>
			<v:textRect cx="28.125" cy="290.382" width="56.26" height="29.2888"/>
			<rect x="0" y="275.737" width="56.25" height="29.2888" class="st7"/>
			<text x="4.42" y="293.68" class="st13" v:langID="1033"><v:paragraph v:horizAlign="1"/><v:tabList/>NSG-data</text>		</g>
		<g id="shape1185-63" v:mID="1185" v:groupContext="shape" transform="translate(7.08982,-159.26)">
			<title>Sheet.1185</title>
			<desc>NSG-app</desc>
			<v:userDefs>
				<v:ud v:nameU="visNavOrder" v:prompt="" v:val="VT0(192000):26"/>
			</v:userDefs>
			<v:textBlock v:margins="rect(4,4,4,4)"/>
			<v:textRect cx="30.375" cy="287.623" width="60.75" height="34.8062"/>
			<rect x="0" y="270.22" width="60.75" height="34.8062" class="st7"/>
			<text x="8.1" y="290.92" class="st13" v:langID="1033"><v:paragraph v:horizAlign="1"/><v:tabList/>NSG-app</text>		</g>
		<g id="shape1191-66" v:mID="1191" v:groupContext="shape" transform="translate(11.0948,-270.294)">
			<title>Sheet.1191</title>
			<desc>NSG-fe</desc>
			<v:userDefs>
				<v:ud v:nameU="visNavOrder" v:prompt="" v:val="VT0(194000):26"/>
			</v:userDefs>
			<v:textBlock v:margins="rect(4,4,4,4)"/>
			<v:textRect cx="25.56" cy="290.382" width="51.13" height="29.2888"/>
			<rect x="0" y="275.737" width="51.12" height="29.2888" class="st7"/>
			<text x="7.95" y="293.68" class="st13" v:langID="1033"><v:paragraph v:horizAlign="1"/><v:tabList/>NSG-fe</text>		</g>
		<g id="shape1192-69" v:mID="1192" v:groupContext="shape" transform="translate(119.59,-229.719)">
			<title>Sheet.1192</title>
			<desc>ASG-fe</desc>
			<v:userDefs>
				<v:ud v:nameU="visNavOrder" v:prompt="" v:val="VT0(195000):26"/>
			</v:userDefs>
			<v:textBlock v:margins="rect(4,4,4,4)"/>
			<v:textRect cx="28.125" cy="290.382" width="56.26" height="29.2888"/>
			<rect x="0" y="275.737" width="56.25" height="29.2888" class="st7"/>
			<text x="4" y="293.68" class="st12" v:langID="1033"><v:paragraph/><v:tabList/>ASG-fe</text>		</g>
		<g id="group1339-72" transform="translate(70.7416,-242.66)" v:mID="1339" v:groupContext="group">
			<v:userDefs>
				<v:ud v:nameU="msvDisableCustomConnectionPoints" v:prompt="" v:val="VT0(1):5"/>
				<v:ud v:nameU="visNavOrder" v:val="VT0(247000):26"/>
			</v:userDefs>
			<title>Private Link.1890</title>
			<desc>Web private endpoint</desc>
			<g id="shape1340-73" v:mID="1340" v:groupContext="shape" transform="translate(11.7844,-11.081)">
				<title>Sheet.1340</title>
				<v:userDefs>
					<v:ud v:nameU="msvDisableCustomConnectionPoints" v:prompt="" v:val="VT0(1):5"/>
				</v:userDefs>
				<rect x="0" y="294.931" width="1.6014" height="10.0951" class="st14"/>
			</g>
			<g id="shape1341-75" v:mID="1341" v:groupContext="shape" transform="translate(10.9194,-19.8357)">
				<title>Sheet.1341</title>
				<v:userDefs>
					<v:ud v:nameU="msvDisableCustomConnectionPoints" v:prompt="" v:val="VT0(1):5"/>
				</v:userDefs>
				<path d="M4.01 303.37 A2.35072 2.35072 0 1 1 1.67 301.02 A2.34929 2.34929 0 0 1 4.01 303.37 Z" class="st15"/>
			</g>
			<g id="shape1342-77" v:mID="1342" v:groupContext="shape" transform="translate(6.53195,-5.20067)">
				<title>Sheet.1342</title>
				<v:userDefs>
					<v:ud v:nameU="msvDisableCustomConnectionPoints" v:prompt="" v:val="VT0(1):5"/>
				</v:userDefs>
				<path d="M5.73 298.61 L3.16 298.61 A3.20566 3.20566 -180 0 0 2.67 304.98 A3.44687 3.44687 0 0 1 2.7 303.79 A2.02388
							 2.02388 0 0 1 3.16 299.79 L5.73 299.79 A2.02958 2.02958 0 0 1 5.73 303.85 L5.03 303.85 A1.5386 1.5386
							 -180 0 0 4.88 304.49 A1.45867 1.45867 -180 0 0 4.99 305.03 L5.74 305.03 A3.20566 3.20566 -180 1 0 5.74
							 298.62 L5.73 298.61 Z" class="st16"/>
			</g>
			<g id="shape1343-81" v:mID="1343" v:groupContext="shape" transform="translate(9.76676,-2.5388)">
				<title>Sheet.1343</title>
				<v:userDefs>
					<v:ud v:nameU="msvDisableCustomConnectionPoints" v:prompt="" v:val="VT0(1):5"/>
				</v:userDefs>
				<path d="M6.2 298.66 A3.77086 3.77086 0 0 1 6.24 299.15 A3.307 3.307 0 0 1 6.17 299.86 A2.02388 2.02388 0 0 1 5.7
							 303.85 L3.13 303.85 A2.03101 2.03101 0 0 1 3.13 299.79 L3.84 299.79 A1.48722 1.48722 -180 0 0 3.98 299.15
							 A1.45297 1.45297 -180 0 0 3.88 298.62 L3.14 298.62 A3.20566 3.20566 -180 0 0 3.14 305.03 L5.71 305.03
							 A3.20566 3.20566 -180 0 0 6.2 298.66 L6.2 298.66 Z" class="st17"/>
			</g>
			<g id="shape1344-85" v:mID="1344" v:groupContext="shape" transform="translate(-1.28897E-13,-0.476333)">
				<title>Sheet.1344</title>
				<v:userDefs>
					<v:ud v:nameU="msvDisableCustomConnectionPoints" v:prompt="" v:val="VT0(1):5"/>
				</v:userDefs>
				<path d="M7.97 304.31 L7.38 304.91 a0.399637 0.399637 0 0 1 -0.57091 0 L0.24 298.34 a0.807838 0.807838 0 0 1 -6.43929E-15
							 -1.14182 L0.83 296.61 L7.97 303.74 a0.393928 0.393928 0 0 1 -1.77636E-15 0.558064 L7.97 304.31 Z"
						class="st6"/>
			</g>
			<g id="shape1345-87" v:mID="1345" v:groupContext="shape" transform="translate(0.00428182,-6.49235)">
				<title>Sheet.1345</title>
				<v:userDefs>
					<v:ud v:nameU="msvDisableCustomConnectionPoints" v:prompt="" v:val="VT0(1):5"/>
				</v:userDefs>
				<path d="M7.26 296.76 L7.91 297.42 a0.402492 0.402492 0 0 1 -8.88178E-16 0.57091 L0.89 305.03 L0.24 304.37 a0.807838
							 0.807838 0 0 1 -7.54952E-15 -1.14182 L6.69 296.76 a0.399637 0.399637 0 0 1 0.566628 0 Z" class="st15"/>
			</g>
			<g id="shape1346-89" v:mID="1346" v:groupContext="shape" transform="translate(17.6093,0)">
				<title>Sheet.1346</title>
				<v:userDefs>
					<v:ud v:nameU="msvDisableCustomConnectionPoints" v:prompt="" v:val="VT0(1):5"/>
				</v:userDefs>
				<path d="M0.12 304.3 a0.396782 0.396782 0 0 1 -0.00856365 -0.559492 L0.12 303.74 L7.26 296.62 L7.85 297.22 a0.807838
							 0.807838 0 0 1 -4.44089E-15 1.14182 L1.27 304.91 a0.395355 0.395355 0 0 1 -0.558064 0.00856365 L0.7
							 304.91 L0.12 304.3 Z" class="st6"/>
			</g>
			<g id="shape1347-91" v:mID="1347" v:groupContext="shape" transform="translate(17.6671,-6.02278)">
				<title>Sheet.1347</title>
				<v:userDefs>
					<v:ud v:nameU="msvDisableCustomConnectionPoints" v:prompt="" v:val="VT0(1):5"/>
				</v:userDefs>
				<path d="M1.34 296.76 L7.8 303.24 a0.803556 0.803556 0 0 1 0 1.13183 L7.14 305.03 L0.11 297.99 a0.412482 0.412482
							 0 0 1 -1.9984E-15 -0.57091 L0.77 296.77 a0.402492 0.402492 0 0 1 0.566628 -0.00142727 Z" class="st15"/>
			</g>
			<g id="shape1339-93" v:mID="1339" v:groupContext="groupContent">
				<v:textBlock v:margins="rect(0,0,0,0)"/>
				<v:textRect cx="12.8482" cy="317.988" width="72" height="21.6036"/>
				<text x="4.24" y="315.29" class="st18" v:langID="1033"><v:paragraph v:horizAlign="1"/><v:tabList/>Web<v:lf/><tspan
							x="-17.68" dy="1.2em" class="st9">private endpoint</tspan></text>			</g>
		</g>
		<g id="group1348-96" transform="translate(96.4154,-123.405)" v:mID="1348" v:groupContext="group">
			<v:userDefs>
				<v:ud v:nameU="msvDisableCustomConnectionPoints" v:prompt="" v:val="VT0(1):5"/>
				<v:ud v:nameU="visNavOrder" v:val="VT0(248000):26"/>
			</v:userDefs>
			<title>App Services.1899</title>
			<desc>VNet Integration</desc>
			<g id="shape1349-97" v:mID="1349" v:groupContext="shape">
				<title>ee75dd06-1aca-4f76-9d11-d05a284</title>
				<v:userDefs>
					<v:ud v:nameU="msvDisableCustomConnectionPoints" v:prompt="" v:val="VT0(1):5"/>
				</v:userDefs>
				<path d="M19.27 302.52 A11.9504 11.9504 0 1 1 4.63 283.63 L4.75 283.55 A11.9461 11.9461 0 0 1 19.27 302.52 Z"
						class="st19"/>
			</g>
			<g id="shape1350-101" v:mID="1350" v:groupContext="shape" transform="translate(6.80657,-14.438)">
				<title>Sheet.1350</title>
				<v:userDefs>
					<v:ud v:nameU="msvDisableCustomConnectionPoints" v:prompt="" v:val="VT0(1):5"/>
				</v:userDefs>
				<path d="M1.9 305.03 A18.2705 18.2705 0 0 1 14.42 299.99 A11.9039 11.9039 -180 0 0 12.33 297.97 A20.1537 20.1537
							 -180 0 0 5.73 299.52 A17.624 17.624 -180 0 0 0 303.48 A3.87896 3.87896 0 0 1 1.9 305.03 Z"
						class="st20"/>
			</g>
			<g id="shape1351-103" v:mID="1351" v:groupContext="shape" transform="translate(1.62057,-3.74276)">
				<title>Sheet.1351</title>
				<v:userDefs>
					<v:ud v:nameU="msvDisableCustomConnectionPoints" v:prompt="" v:val="VT0(1):5"/>
				</v:userDefs>
				<path d="M1.17 299.14 A25.1008 25.1008 -180 0 0 0 302.82 A10.9904 10.9904 -180 0 0 0.87 304.11 C1.12 304.44 1.36
							 304.73 1.64 305.03 A25.2132 25.2132 0 0 1 3.16 300.15 A3.87896 3.87896 0 0 1 1.17 299.14 Z"
						class="st20"/>
			</g>
			<g id="shape1352-105" v:mID="1352" v:groupContext="shape" transform="translate(1.64868,-14.7613)">
				<title>Sheet.1352</title>
				<v:userDefs>
					<v:ud v:nameU="msvDisableCustomConnectionPoints" v:prompt="" v:val="VT0(1):5"/>
				</v:userDefs>
				<path d="M2.52 303.78 A16.865 16.865 0 0 1 1.55 299.64 A11.4542 11.4542 -180 0 0 0 301.68 A17.8348 17.8348 -180 0
							 0 0.8 305.03 A3.78058 3.78058 0 0 1 2.52 303.78 Z" class="st21"/>
			</g>
			<g id="shape1353-107" v:mID="1353" v:groupContext="shape" transform="translate(1.62057,-8.56335)">
				<title>Sheet.1353</title>
				<v:userDefs>
					<v:ud v:nameU="msvDisableCustomConnectionPoints" v:prompt="" v:val="VT0(1):5"/>
				</v:userDefs>
				<ellipse cx="3.8368" cy="301.189" rx="3.8368" ry="3.8368" class="st22"/>
			</g>
			<g id="shape1354-111" v:mID="1354" v:groupContext="shape" transform="translate(6.16008,-5.06385)">
				<title>Sheet.1354</title>
				<v:userDefs>
					<v:ud v:nameU="msvDisableCustomConnectionPoints" v:prompt="" v:val="VT0(1):5"/>
				</v:userDefs>
				<path d="M4.89 304.7 A2.48759 2.48759 0 0 1 5.65 302.92 A16.6964 16.6964 0 0 1 2.09 300.3 A3.85085 3.85085 0 0 1
							 -0 301.47 A18.411 18.411 -180 0 0 2.04 303.27 A17.0337 17.0337 -180 0 0 4.92 305.03 A2.5157 2.5157 0
							 0 1 4.89 304.7 Z" class="st21"/>
			</g>
			<g id="shape1355-113" v:mID="1355" v:groupContext="shape" transform="translate(15.3094,-3.30708)">
				<title>Sheet.1355</title>
				<v:userDefs>
					<v:ud v:nameU="msvDisableCustomConnectionPoints" v:prompt="" v:val="VT0(1):5"/>
				</v:userDefs>
				<path d="M4.6 303.24 A16.865 16.865 0 0 1 0.72 302.79 a0.576222 0.576222 0 0 1 6.66134E-16 0.154596 A2.45949 2.45949
							 0 0 1 0 304.69 A19.2402 19.2402 -180 0 0 4.81 305.03 A11.5385 11.5385 -180 0 0 6.48 303.14 A16.1623
							 16.1623 0 0 1 4.6 303.24 Z" class="st21"/>
			</g>
			<g id="shape1356-115" v:mID="1356" v:groupContext="shape" transform="translate(11.0369,-2.88545)">
				<title>Sheet.1356</title>
				<v:userDefs>
					<v:ud v:nameU="msvDisableCustomConnectionPoints" v:prompt="" v:val="VT0(1):5"/>
				</v:userDefs>
				<ellipse cx="2.50165" cy="302.525" rx="2.50165" ry="2.50165" class="st23"/>
			</g>
			<g id="shape1357-119" v:mID="1357" v:groupContext="shape" transform="translate(6.86279,-12.0488)">
				<title>Sheet.1357</title>
				<v:userDefs>
					<v:ud v:nameU="msvDisableCustomConnectionPoints" v:prompt="" v:val="VT0(1):5"/>
				</v:userDefs>
				<path d="M9.75 305.03 A2.57192 2.57192 0 0 1 10.61 303.62 A35.8382 35.8382 0 0 1 4.34 297.8 A23.7657 23.7657 0 0
							 1 1.53 293.7 A10.7374 10.7374 -180 0 0 0 294.29 A25.4943 25.4943 -180 0 0 3.02 298.76 A37.1593 37.1593
							 -180 0 0 9.75 305.03 Z" class="st24"/>
			</g>
			<g id="shape1358-121" v:mID="1358" v:groupContext="shape" transform="translate(16.5742,-8.9147)">
				<title>Sheet.1358</title>
				<v:userDefs>
					<v:ud v:nameU="msvDisableCustomConnectionPoints" v:prompt="" v:val="VT0(1):5"/>
				</v:userDefs>
				<ellipse cx="2.65624" cy="302.37" rx="2.65624" ry="2.65624" class="st23"/>
			</g>
			<g id="shape1359-124" v:mID="1359" v:groupContext="shape" transform="translate(20.8889,-8.25416)">
				<title>Sheet.1359</title>
				<v:userDefs>
					<v:ud v:nameU="msvDisableCustomConnectionPoints" v:prompt="" v:val="VT0(1):5"/>
				</v:userDefs>
				<path d="M2.8 303.49 L2.3 303.26 L1.88 303.03 L1.8 303.03 L1.43 302.74 L1.34 302.74 L0.9 302.45 A2.47354 2.47354
							 0 0 1 -0 303.75 C0.17 303.86 0.35 303.96 0.53 304.06 L0.65 304.13 L1.14 304.39 L2.35 305.03 A12.1288
							 12.1288 -180 0 0 2.75 303.47 L2.8 303.49 Z" class="st21"/>
			</g>
			<g id="shape1360-126" v:mID="1360" v:groupContext="shape" transform="translate(1.62057,-8.56335)">
				<title>Sheet.1360</title>
				<v:userDefs>
					<v:ud v:nameU="msvDisableCustomConnectionPoints" v:prompt="" v:val="VT0(1):5"/>
				</v:userDefs>
				<ellipse cx="3.8368" cy="301.189" rx="3.8368" ry="3.8368" class="st22"/>
			</g>
			<g id="shape1361-129" v:mID="1361" v:groupContext="shape" transform="translate(11.0369,-2.88545)">
				<title>Sheet.1361</title>
				<v:userDefs>
					<v:ud v:nameU="msvDisableCustomConnectionPoints" v:prompt="" v:val="VT0(1):5"/>
				</v:userDefs>
				<ellipse cx="2.50165" cy="302.525" rx="2.50165" ry="2.50165" class="st23"/>
			</g>
			<g id="shape1348-132" v:mID="1348" v:groupContext="groupContent">
				<v:textBlock v:margins="rect(0,0,0,0)"/>
				<v:textRect cx="11.9233" cy="311.508" width="72" height="10.8036"/>
				<text x="-18.66" y="314.21" class="st18" v:langID="1033"><v:paragraph v:horizAlign="1"/><v:tabList/>VNet Integration</text>			</g>
		</g>
		<g id="group1362-134" transform="translate(70.7416,-32.7366)" v:mID="1362" v:groupContext="group">
			<v:userDefs>
				<v:ud v:nameU="msvDisableCustomConnectionPoints" v:prompt="" v:val="VT0(1):5"/>
				<v:ud v:nameU="visNavOrder" v:val="VT0(249000):26"/>
			</v:userDefs>
			<title>Private Link.1913</title>
			<desc>Data private endpoint</desc>
			<g id="shape1363-135" v:mID="1363" v:groupContext="shape" transform="translate(11.7844,-11.081)">
				<title>Sheet.1363</title>
				<v:userDefs>
					<v:ud v:nameU="msvDisableCustomConnectionPoints" v:prompt="" v:val="VT0(1):5"/>
				</v:userDefs>
				<rect x="0" y="294.931" width="1.6014" height="10.0951" class="st14"/>
			</g>
			<g id="shape1364-137" v:mID="1364" v:groupContext="shape" transform="translate(10.9194,-19.8357)">
				<title>Sheet.1364</title>
				<v:userDefs>
					<v:ud v:nameU="msvDisableCustomConnectionPoints" v:prompt="" v:val="VT0(1):5"/>
				</v:userDefs>
				<path d="M4.01 303.37 A2.35072 2.35072 0 1 1 1.67 301.02 A2.34929 2.34929 0 0 1 4.01 303.37 Z" class="st15"/>
			</g>
			<g id="shape1365-139" v:mID="1365" v:groupContext="shape" transform="translate(6.53195,-5.20067)">
				<title>Sheet.1365</title>
				<v:userDefs>
					<v:ud v:nameU="msvDisableCustomConnectionPoints" v:prompt="" v:val="VT0(1):5"/>
				</v:userDefs>
				<path d="M5.73 298.61 L3.16 298.61 A3.20566 3.20566 -180 0 0 2.67 304.98 A3.44687 3.44687 0 0 1 2.7 303.79 A2.02388
							 2.02388 0 0 1 3.16 299.79 L5.73 299.79 A2.02958 2.02958 0 0 1 5.73 303.85 L5.03 303.85 A1.5386 1.5386
							 -180 0 0 4.88 304.49 A1.45867 1.45867 -180 0 0 4.99 305.03 L5.74 305.03 A3.20566 3.20566 -180 1 0 5.74
							 298.62 L5.73 298.61 Z" class="st16"/>
			</g>
			<g id="shape1366-142" v:mID="1366" v:groupContext="shape" transform="translate(9.76676,-2.5388)">
				<title>Sheet.1366</title>
				<v:userDefs>
					<v:ud v:nameU="msvDisableCustomConnectionPoints" v:prompt="" v:val="VT0(1):5"/>
				</v:userDefs>
				<path d="M6.2 298.66 A3.77086 3.77086 0 0 1 6.24 299.15 A3.307 3.307 0 0 1 6.17 299.86 A2.02388 2.02388 0 0 1 5.7
							 303.85 L3.13 303.85 A2.03101 2.03101 0 0 1 3.13 299.79 L3.84 299.79 A1.48722 1.48722 -180 0 0 3.98 299.15
							 A1.45297 1.45297 -180 0 0 3.88 298.62 L3.14 298.62 A3.20566 3.20566 -180 0 0 3.14 305.03 L5.71 305.03
							 A3.20566 3.20566 -180 0 0 6.2 298.66 L6.2 298.66 Z" class="st17"/>
			</g>
			<g id="shape1367-145" v:mID="1367" v:groupContext="shape" transform="translate(-1.28897E-13,-0.476333)">
				<title>Sheet.1367</title>
				<v:userDefs>
					<v:ud v:nameU="msvDisableCustomConnectionPoints" v:prompt="" v:val="VT0(1):5"/>
				</v:userDefs>
				<path d="M7.97 304.31 L7.38 304.91 a0.399637 0.399637 0 0 1 -0.57091 0 L0.24 298.34 a0.807838 0.807838 0 0 1 -6.43929E-15
							 -1.14182 L0.83 296.61 L7.97 303.74 a0.393928 0.393928 0 0 1 -1.77636E-15 0.558064 L7.97 304.31 Z"
						class="st6"/>
			</g>
			<g id="shape1368-147" v:mID="1368" v:groupContext="shape" transform="translate(0.00428182,-6.49235)">
				<title>Sheet.1368</title>
				<v:userDefs>
					<v:ud v:nameU="msvDisableCustomConnectionPoints" v:prompt="" v:val="VT0(1):5"/>
				</v:userDefs>
				<path d="M7.26 296.76 L7.91 297.42 a0.402492 0.402492 0 0 1 -8.88178E-16 0.57091 L0.89 305.03 L0.24 304.37 a0.807838
							 0.807838 0 0 1 -7.54952E-15 -1.14182 L6.69 296.76 a0.399637 0.399637 0 0 1 0.566628 0 Z" class="st15"/>
			</g>
			<g id="shape1369-149" v:mID="1369" v:groupContext="shape" transform="translate(17.6093,0)">
				<title>Sheet.1369</title>
				<v:userDefs>
					<v:ud v:nameU="msvDisableCustomConnectionPoints" v:prompt="" v:val="VT0(1):5"/>
				</v:userDefs>
				<path d="M0.12 304.3 a0.396782 0.396782 0 0 1 -0.00856365 -0.559492 L0.12 303.74 L7.26 296.62 L7.85 297.22 a0.807838
							 0.807838 0 0 1 -4.44089E-15 1.14182 L1.27 304.91 a0.395355 0.395355 0 0 1 -0.558064 0.00856365 L0.7
							 304.91 L0.12 304.3 Z" class="st6"/>
			</g>
			<g id="shape1370-151" v:mID="1370" v:groupContext="shape" transform="translate(17.6671,-6.02278)">
				<title>Sheet.1370</title>
				<v:userDefs>
					<v:ud v:nameU="msvDisableCustomConnectionPoints" v:prompt="" v:val="VT0(1):5"/>
				</v:userDefs>
				<path d="M1.34 296.76 L7.8 303.24 a0.803556 0.803556 0 0 1 0 1.13183 L7.14 305.03 L0.11 297.99 a0.412482 0.412482
							 0 0 1 -1.9984E-15 -0.57091 L0.77 296.77 a0.402492 0.402492 0 0 1 0.566628 -0.00142727 Z" class="st15"/>
			</g>
			<g id="shape1362-153" v:mID="1362" v:groupContext="groupContent">
				<v:textBlock v:margins="rect(0,0,0,0)"/>
				<v:textRect cx="12.8482" cy="317.988" width="72" height="21.6036"/>
				<text x="4.26" y="315.29" class="st18" v:langID="1033"><v:paragraph v:horizAlign="1"/><v:tabList/>Data<v:lf/><tspan
							x="-17.68" dy="1.2em" class="st9">private endpoint</tspan></text>			</g>
		</g>
	</g>
</svg>
