<?xml version="1.0" encoding="UTF-8" standalone="no"?>
<!DOCTYPE svg PUBLIC "-//W3C//DTD SVG 1.1//EN" "http://www.w3.org/Graphics/SVG/1.1/DTD/svg11.dtd">
<!-- Generated by Microsoft Visio, SVG Export azure-infra-spoke-subscription-paas-nsg-4.svg Page-1 -->
<svg xmlns="http://www.w3.org/2000/svg" xmlns:xlink="http://www.w3.org/1999/xlink" xmlns:ev="http://www.w3.org/2001/xml-events"
		xmlns:v="http://schemas.microsoft.com/visio/2003/SVGExtensions/" width="3.80568in" height="5.38715in"
		viewBox="0 0 274.009 387.875" xml:space="preserve" color-interpolation-filters="sRGB" class="st25">
	<v:documentProperties v:langID="1033" v:viewMarkup="false"/>

	<style type="text/css">
	<![CDATA[
		.st1 {fill:#ffffff;stroke:none;stroke-width:1}
		.st2 {fill:none;stroke:none;stroke-width:1}
		.st3 {fill:#7f7f7f;font-family:Segoe UI;font-size:1.00001em}
		.st4 {fill:none;stroke:#7f7f7f;stroke-dasharray:7,5;stroke-width:1}
		.st5 {fill:#0078d4;stroke:none;stroke-width:0.25}
		.st6 {fill:#6bb9f2;stroke:none;stroke-width:0.25}
		.st7 {fill:url(#grad0-22);stroke:none;stroke-width:0.25}
		.st8 {fill:#50e6ff;stroke:none;stroke-width:0.25}
		.st9 {fill:#000000;font-family:Segoe UI;font-size:1.00001em}
		.st10 {marker-end:url(#mrkr1-53);stroke:#107c10;stroke-linecap:round;stroke-linejoin:round;stroke-width:1}
		.st11 {fill:#107c10;fill-opacity:1;stroke:#107c10;stroke-opacity:1;stroke-width:0.20161290322581}
		.st12 {fill:url(#grad7-58);stroke:none;stroke-width:0.75}
		.st13 {fill:#ffffff;fill-opacity:0.6;stroke:none;stroke-width:0.75}
		.st14 {fill:#f2f2f2;fill-opacity:0.55;stroke:none;stroke-width:0.75}
		.st15 {fill:url(#grad0-68);stroke:none;stroke-width:0.75}
		.st16 {fill:url(#grad0-76);stroke:none;stroke-width:0.75}
		.st17 {fill:#f2f2f2;fill-opacity:0.7;stroke:none;stroke-width:0.75}
		.st18 {fill:#0078d4;font-family:Segoe UI;font-size:1.00001em}
		.st19 {fill:#b3b3b3;stroke:none;stroke-width:0.75}
		.st20 {fill:url(#grad0-112);stroke:none;stroke-width:0.75}
		.st21 {fill:#50e6ff;stroke:none;stroke-width:0.75}
		.st22 {fill:#1490df;stroke:none;stroke-width:0.75}
		.st23 {fill:url(#grad0-125);stroke:none;stroke-width:0.75}
		.st24 {fill:#ee0000;font-family:Segoe UI;font-size:1.00001em}
		.st25 {fill:none;fill-rule:evenodd;font-size:12px;overflow:visible;stroke-linecap:square;stroke-miterlimit:3}
	]]>
	</style>

	<defs id="Patterns_And_Gradients">
		<linearGradient id="grad0-22" x1="0" y1="0" x2="1" y2="0" gradientTransform="rotate(90 0.5 0.5)">
			<stop offset="0" stop-color="#5ea0ef" stop-opacity="1"/>
			<stop offset="0.18" stop-color="#559cec" stop-opacity="1"/>
			<stop offset="0.47" stop-color="#3c91e5" stop-opacity="1"/>
			<stop offset="0.84" stop-color="#1380da" stop-opacity="1"/>
			<stop offset="1" stop-color="#0078d4" stop-opacity="1"/>
		</linearGradient>
		<radialGradient id="grad7-58" cx="0" cy="0" r="1.4">
			<stop offset="0.18" stop-color="#5ea0ef" stop-opacity="1"/>
			<stop offset="1" stop-color="#0078d4" stop-opacity="1"/>
		</radialGradient>
		<linearGradient id="grad0-68" x1="0" y1="0" x2="1" y2="0" gradientTransform="rotate(-90.435149452297 0.5 0.5)">
			<stop offset="0" stop-color="#cccccc" stop-opacity="1"/>
			<stop offset="1" stop-color="#fcfcfc" stop-opacity="1"/>
		</linearGradient>
		<linearGradient id="grad0-76" x1="0" y1="0" x2="1" y2="0" gradientTransform="rotate(-90 0.5 0.5)">
			<stop offset="0" stop-color="#cccccc" stop-opacity="1"/>
			<stop offset="1" stop-color="#fcfcfc" stop-opacity="1"/>
		</linearGradient>
		<linearGradient id="grad0-112" x1="0" y1="0" x2="1" y2="0" gradientTransform="rotate(90 0.5 0.5)">
			<stop offset="0" stop-color="#50e6ff" stop-opacity="1"/>
			<stop offset="1" stop-color="#32bedd" stop-opacity="1"/>
		</linearGradient>
		<linearGradient id="grad0-125" x1="0" y1="0" x2="1" y2="0" gradientTransform="rotate(-90 0.5 0.5)">
			<stop offset="0" stop-color="#5e9624" stop-opacity="1"/>
			<stop offset="0.185" stop-color="#629c25" stop-opacity="1"/>
			<stop offset="0.435" stop-color="#6dae2a" stop-opacity="1"/>
			<stop offset="0.725" stop-color="#7fcb30" stop-opacity="1"/>
			<stop offset="0.82" stop-color="#86d633" stop-opacity="1"/>
		</linearGradient>
	</defs>
	<defs id="Markers">
		<g id="lend1">
			<path d="M 1 -1 L 0 0 L 1 1 " style="stroke-linecap:round;stroke-linejoin:round;fill:none"/>
		</g>
		<marker id="mrkr1-53" class="st11" v:arrowType="1" v:arrowSize="4" orient="auto" markerUnits="strokeWidth"
				overflow="visible">
			<use xlink:href="#lend1" transform="scale(-4.96,-4.96) "/>
		</marker>
	</defs>
	<g v:mID="0" v:index="1" v:groupContext="foregroundPage">
		<v:userDefs>
			<v:ud v:nameU="visNavType" v:val="VT0(1):26"/>
		</v:userDefs>
		<title>Page-1</title>
		<v:pageProperties v:drawingScale="1" v:pageScale="1" v:drawingUnits="19" v:shadowOffsetX="9" v:shadowOffsetY="-9"/>
		<v:layer v:name="Text" v:index="0" v:glue="false"/>
		<v:layer v:name="Reference Architecture" v:index="1" v:glue="false"/>
		<v:layer v:name="Icon Names" v:index="2" v:glue="false"/>
		<v:layer v:name="Containers" v:index="3" v:glue="false"/>
		<v:layer v:name="Icons" v:index="4" v:glue="false"/>
		<v:layer v:name="Connector" v:index="5" v:glue="false"/>
		<g id="shape61-1" v:mID="61" v:groupContext="shape" transform="translate(4.13374,-1)">
			<title>Sheet.61</title>
			<v:userDefs>
				<v:ud v:nameU="visNavOrder" v:val="VT0(20000):26"/>
			</v:userDefs>
			<rect x="0" y="2" width="268.875" height="385.875" rx="4.5" ry="4.5" class="st1"/>
		</g>
		<g id="shape1-3" v:mID="1" v:groupContext="shape" v:layerMember="0;1;2" transform="translate(80.1203,-346.906)">
			<title>Sheet.1</title>
			<desc>Web tier ingress subnet</desc>
			<v:userDefs>
				<v:ud v:nameU="visNavOrder" v:prompt="" v:val="VT0(4000):26"/>
			</v:userDefs>
			<v:textBlock v:margins="rect(4,4,4,4)"/>
			<v:textRect cx="85.4486" cy="377.144" width="170.9" height="21.4617"/>
			<rect x="0" y="366.413" width="170.897" height="21.4617" rx="4.5" ry="4.5" class="st2"/>
			<text x="41.61" y="380.74" class="st3" v:langID="1033"><v:paragraph v:spAfter="6" v:horizAlign="2"/><v:tabList/>Web tier ingress subnet</text>		</g>
		<g id="shape2-6" v:mID="2" v:groupContext="shape" v:layerMember="0;1;2" transform="translate(84.3652,-222.174)">
			<title>Sheet.2</title>
			<desc>Web tier egress subnet</desc>
			<v:userDefs>
				<v:ud v:nameU="visNavOrder" v:prompt="" v:val="VT0(3000):26"/>
			</v:userDefs>
			<v:textBlock v:margins="rect(4,4,4,4)"/>
			<v:textRect cx="83.3261" cy="377.144" width="166.66" height="21.4617"/>
			<rect x="0" y="366.413" width="166.652" height="21.4617" rx="4.5" ry="4.5" class="st2"/>
			<text x="40.79" y="380.74" class="st3" v:langID="1033"><v:paragraph v:spAfter="6" v:horizAlign="2"/><v:tabList/>Web tier egress subnet</text>		</g>
		<g id="shape3-9" v:mID="3" v:groupContext="shape" v:layerMember="0;1;2" transform="translate(142.38,-97.4432)">
			<title>Sheet.3</title>
			<desc>Data tier subnet</desc>
			<v:userDefs>
				<v:ud v:nameU="visNavOrder" v:prompt="" v:val="VT0(2000):26"/>
			</v:userDefs>
			<v:textBlock v:margins="rect(4,4,4,4)"/>
			<v:textRect cx="54.3188" cy="377.144" width="108.64" height="21.4617"/>
			<rect x="0" y="366.413" width="108.638" height="21.4617" rx="4.5" ry="4.5" class="st2"/>
			<text x="19.88" y="380.74" class="st3" v:langID="1033"><v:paragraph v:spAfter="6" v:horizAlign="2"/><v:tabList/>Data tier subnet</text>		</g>
		<g id="shape4-12" v:mID="4" v:groupContext="shape" v:layerMember="3;1" transform="translate(35.9388,-261.063)">
			<title>Sheet.4</title>
			<v:userDefs>
				<v:ud v:nameU="visNavOrder" v:prompt="" v:val="VT0(1000):26"/>
			</v:userDefs>
			<rect x="0" y="302.028" width="215.079" height="85.8469" rx="4.5" ry="4.5" class="st4"/>
		</g>
		<g id="group5-14" transform="translate(26.9465,-336.244)" v:mID="5" v:groupContext="group" v:layerMember="4">
			<v:userDefs>
				<v:ud v:nameU="visNavOrder" v:prompt="" v:val="VT0(5000):26"/>
			</v:userDefs>
			<title>Network Security Groups.7853</title>
			<g id="shape6-15" v:mID="6" v:groupContext="shape" v:layerMember="4">
				<title>Sheet.6</title>
				<v:userDefs>
					<v:ud v:nameU="msvDisableCustomConnectionPoints" v:prompt="" v:val="VT0(1):5"/>
				</v:userDefs>
				<path d="M18.11 376.43 C18.11 382.2 10.91 386.85 9.35 387.79 a0.565846 0.54854 0 0 1 -0.590448 0 C7.2 386.85 0 382.2
							 0 376.43 L0 369.49 a0.565846 0.54854 0 0 1 0.553545 -0.54854 C6.15 368.8 4.86 366.41 9.05 366.41 C13.25
							 366.41 11.96 368.8 17.55 368.94 a0.565846 0.54854 0 0 1 0.553545 0.54854 L18.11 376.43 Z" class="st5"/>
			</g>
			<g id="shape7-17" v:mID="7" v:groupContext="shape" v:layerMember="4" transform="translate(0.750361,-0.890818)">
				<title>Sheet.7</title>
				<v:userDefs>
					<v:ud v:nameU="msvDisableCustomConnectionPoints" v:prompt="" v:val="VT0(1):5"/>
				</v:userDefs>
				<path d="M16.61 377.38 C16.61 382.68 10.01 386.92 8.57 387.8 a0.528943 0.512766 0 0 1 -0.541244 0 C6.59 386.94 0
							 382.68 0 377.38 L0 371.01 a0.516642 0.500841 0 0 1 0.504341 -0.500841 C5.63 370.38 4.45 368.2 8.3 368.2
							 C12.15 368.2 10.97 370.38 16.1 370.51 a0.516642 0.500841 0 0 1 0.504341 0.500841 L16.61 377.38 Z"
						class="st6"/>
			</g>
			<g id="shape8-19" v:mID="8" v:groupContext="shape" v:layerMember="4" transform="translate(0.787264,-0.891463)">
				<title>Sheet.8</title>
				<v:userDefs>
					<v:ud v:nameU="msvDisableCustomConnectionPoints" v:prompt="" v:val="VT0(1):5"/>
				</v:userDefs>
				<path d="M8.27 378.04 L8.27 368.2 C12.12 368.2 10.94 370.38 16.07 370.51 a0.528943 0.512766 0 0 1 0.504341 0.512766
							 L16.57 377.39 A6.01519 5.83122 0 0 1 16.57 378.04 L8.27 378.04 ZM8.27 378.04 L0 378.04 C0.49 383.02
							 6.62 386.98 8 387.8 a0.479739 0.465067 -180 0 0 0.221418 0.0715487 L8.27 387.88 L8.27 378.04 Z"
						class="st7"/>
			</g>
			<g id="shape9-23" v:mID="9" v:groupContext="shape" v:layerMember="4" transform="translate(0.778088,-0.891463)">
				<title>Sheet.9</title>
				<v:userDefs>
					<v:ud v:nameU="msvDisableCustomConnectionPoints" v:prompt="" v:val="VT0(1):5"/>
				</v:userDefs>
				<path d="M0.48 370.51 C5.61 370.38 4.43 368.2 8.28 368.2 L8.28 378.04 L0.01 378.04 A6.01519 5.83122 0 0 1 0.01 377.39
							 L0.01 371.03 a0.528943 0.512766 0 0 1 0.467438 -0.512766 ZM16.54 378.04 L8.28 378.04 L8.28 387.88 a0.479739
							 0.465067 -180 0 0 0.221418 -0.0715487 C9.92 386.98 16.05 383.02 16.54 378.04 Z" class="st8"/>
			</g>
		</g>
		<g id="group10-25" transform="translate(26.9465,-211.513)" v:mID="10" v:groupContext="group" v:layerMember="4">
			<v:userDefs>
				<v:ud v:nameU="visNavOrder" v:prompt="" v:val="VT0(7000):26"/>
			</v:userDefs>
			<title>Network Security Groups.7858</title>
			<g id="shape11-26" v:mID="11" v:groupContext="shape" v:layerMember="4">
				<title>Sheet.11</title>
				<v:userDefs>
					<v:ud v:nameU="msvDisableCustomConnectionPoints" v:prompt="" v:val="VT0(1):5"/>
				</v:userDefs>
				<path d="M18.11 376.43 C18.11 382.2 10.91 386.85 9.35 387.79 a0.565846 0.54854 0 0 1 -0.590448 0 C7.2 386.85 0 382.2
							 0 376.43 L0 369.49 a0.565846 0.54854 0 0 1 0.553545 -0.54854 C6.15 368.8 4.86 366.41 9.05 366.41 C13.25
							 366.41 11.96 368.8 17.55 368.94 a0.565846 0.54854 0 0 1 0.553545 0.54854 L18.11 376.43 Z" class="st5"/>
			</g>
			<g id="shape12-28" v:mID="12" v:groupContext="shape" v:layerMember="4" transform="translate(0.750361,-0.890818)">
				<title>Sheet.12</title>
				<v:userDefs>
					<v:ud v:nameU="msvDisableCustomConnectionPoints" v:prompt="" v:val="VT0(1):5"/>
				</v:userDefs>
				<path d="M16.61 377.38 C16.61 382.68 10.01 386.92 8.57 387.8 a0.528943 0.512766 0 0 1 -0.541244 0 C6.59 386.94 0
							 382.68 0 377.38 L0 371.01 a0.516642 0.500841 0 0 1 0.504341 -0.500841 C5.63 370.38 4.45 368.2 8.3 368.2
							 C12.15 368.2 10.97 370.38 16.1 370.51 a0.516642 0.500841 0 0 1 0.504341 0.500841 L16.61 377.38 Z"
						class="st6"/>
			</g>
			<g id="shape13-30" v:mID="13" v:groupContext="shape" v:layerMember="4" transform="translate(0.787264,-0.891463)">
				<title>Sheet.13</title>
				<v:userDefs>
					<v:ud v:nameU="msvDisableCustomConnectionPoints" v:prompt="" v:val="VT0(1):5"/>
				</v:userDefs>
				<path d="M8.27 378.04 L8.27 368.2 C12.12 368.2 10.94 370.38 16.07 370.51 a0.528943 0.512766 0 0 1 0.504341 0.512766
							 L16.57 377.39 A6.01519 5.83122 0 0 1 16.57 378.04 L8.27 378.04 ZM8.27 378.04 L0 378.04 C0.49 383.02
							 6.62 386.98 8 387.8 a0.479739 0.465067 -180 0 0 0.221418 0.0715487 L8.27 387.88 L8.27 378.04 Z"
						class="st7"/>
			</g>
			<g id="shape14-33" v:mID="14" v:groupContext="shape" v:layerMember="4" transform="translate(0.778088,-0.891463)">
				<title>Sheet.14</title>
				<v:userDefs>
					<v:ud v:nameU="msvDisableCustomConnectionPoints" v:prompt="" v:val="VT0(1):5"/>
				</v:userDefs>
				<path d="M0.48 370.51 C5.61 370.38 4.43 368.2 8.28 368.2 L8.28 378.04 L0.01 378.04 A6.01519 5.83122 0 0 1 0.01 377.39
							 L0.01 371.03 a0.528943 0.512766 0 0 1 0.467438 -0.512766 ZM16.54 378.04 L8.28 378.04 L8.28 387.88 a0.479739
							 0.465067 -180 0 0 0.221418 -0.0715487 C9.92 386.98 16.05 383.02 16.54 378.04 Z" class="st8"/>
			</g>
		</g>
		<g id="shape15-35" v:mID="15" v:groupContext="shape" v:layerMember="0;1;2" transform="translate(75.5586,-145.378)">
			<title>Sheet.15</title>
			<desc>VNet Integration</desc>
			<v:userDefs>
				<v:ud v:nameU="visNavOrder" v:prompt="" v:val="VT0(9000):26"/>
			</v:userDefs>
			<v:textBlock v:margins="rect(4,4,4,4)"/>
			<v:textRect cx="67.9196" cy="379.29" width="135.84" height="17.1694"/>
			<rect x="0" y="370.706" width="135.839" height="17.1694" rx="4.5" ry="4.5" class="st2"/>
			<text x="23.66" y="382.89" class="st9" v:langID="1033"><v:paragraph v:spAfter="6" v:horizAlign="1"/><v:tabList/>VNet Integration</text>		</g>
		<g id="group16-38" transform="translate(27.0044,-86.7818)" v:mID="16" v:groupContext="group" v:layerMember="4">
			<v:userDefs>
				<v:ud v:nameU="visNavOrder" v:prompt="" v:val="VT0(11000):26"/>
			</v:userDefs>
			<title>Network Security Groups.7864</title>
			<g id="shape17-39" v:mID="17" v:groupContext="shape" v:layerMember="4">
				<title>Sheet.17</title>
				<v:userDefs>
					<v:ud v:nameU="msvDisableCustomConnectionPoints" v:prompt="" v:val="VT0(1):5"/>
				</v:userDefs>
				<path d="M18.11 376.43 C18.11 382.2 10.91 386.85 9.35 387.79 a0.565846 0.54854 0 0 1 -0.590448 0 C7.2 386.85 0 382.2
							 0 376.43 L0 369.49 a0.565846 0.54854 0 0 1 0.553545 -0.54854 C6.15 368.8 4.86 366.41 9.05 366.41 C13.25
							 366.41 11.96 368.8 17.55 368.94 a0.565846 0.54854 0 0 1 0.553545 0.54854 L18.11 376.43 Z" class="st5"/>
			</g>
			<g id="shape18-41" v:mID="18" v:groupContext="shape" v:layerMember="4" transform="translate(0.750361,-0.890818)">
				<title>Sheet.18</title>
				<v:userDefs>
					<v:ud v:nameU="msvDisableCustomConnectionPoints" v:prompt="" v:val="VT0(1):5"/>
				</v:userDefs>
				<path d="M16.61 377.38 C16.61 382.68 10.01 386.92 8.57 387.8 a0.528943 0.512766 0 0 1 -0.541244 0 C6.59 386.94 0
							 382.68 0 377.38 L0 371.01 a0.516642 0.500841 0 0 1 0.504341 -0.500841 C5.63 370.38 4.45 368.2 8.3 368.2
							 C12.15 368.2 10.97 370.38 16.1 370.51 a0.516642 0.500841 0 0 1 0.504341 0.500841 L16.61 377.38 Z"
						class="st6"/>
			</g>
			<g id="shape19-43" v:mID="19" v:groupContext="shape" v:layerMember="4" transform="translate(0.787264,-0.891463)">
				<title>Sheet.19</title>
				<v:userDefs>
					<v:ud v:nameU="msvDisableCustomConnectionPoints" v:prompt="" v:val="VT0(1):5"/>
				</v:userDefs>
				<path d="M8.27 378.04 L8.27 368.2 C12.12 368.2 10.94 370.38 16.07 370.51 a0.528943 0.512766 0 0 1 0.504341 0.512766
							 L16.57 377.39 A6.01519 5.83122 0 0 1 16.57 378.04 L8.27 378.04 ZM8.27 378.04 L0 378.04 C0.49 383.02
							 6.62 386.98 8 387.8 a0.479739 0.465067 -180 0 0 0.221418 0.0715487 L8.27 387.88 L8.27 378.04 Z"
						class="st7"/>
			</g>
			<g id="shape20-46" v:mID="20" v:groupContext="shape" v:layerMember="4" transform="translate(0.778088,-0.891463)">
				<title>Sheet.20</title>
				<v:userDefs>
					<v:ud v:nameU="msvDisableCustomConnectionPoints" v:prompt="" v:val="VT0(1):5"/>
				</v:userDefs>
				<path d="M0.48 370.51 C5.61 370.38 4.43 368.2 8.28 368.2 L8.28 378.04 L0.01 378.04 A6.01519 5.83122 0 0 1 0.01 377.39
							 L0.01 371.03 a0.528943 0.512766 0 0 1 0.467438 -0.512766 ZM16.54 378.04 L8.28 378.04 L8.28 387.88 a0.479739
							 0.465067 -180 0 0 0.221418 -0.0715487 C9.92 386.98 16.05 383.02 16.54 378.04 Z" class="st8"/>
			</g>
		</g>
		<g id="shape21-48" v:mID="21" v:groupContext="shape" v:layerMember="5" transform="translate(76.9905,-136.335)">
			<title>Dynamic connector.7869</title>
			<v:userDefs>
				<v:ud v:nameU="visNavOrder" v:val="VT0(6000):26"/>
			</v:userDefs>
			<path d="M9 387.88 L9 425.43" class="st10"/>
		</g>
		<g id="group22-54" transform="translate(122.02,-166.839)" v:mID="22" v:groupContext="group" v:layerMember="4">
			<v:userDefs>
				<v:ud v:nameU="visNavOrder" v:val="VT0(13000):26"/>
			</v:userDefs>
			<title>Icon-web-41.7870</title>
			<g id="shape23-55" v:mID="23" v:groupContext="shape" v:layerMember="4">
				<title>ee75dd06-1aca-4f76-9d11-d05a284</title>
				<path d="M34.68 383.37 A21.5065 21.5065 0 1 1 8.33 349.37 L8.56 349.22 A21.4986 21.4986 0 0 1 34.68 383.37 Z"
						class="st12"/>
			</g>
			<g id="shape24-59" v:mID="24" v:groupContext="shape" v:layerMember="4" transform="translate(12.2494,-25.9832)">
				<title>Sheet.24</title>
				<path d="M3.41 387.88 A32.8803 32.8803 0 0 1 25.95 378.82 A21.4228 21.4228 -180 0 0 22.18 375.18 A36.2695 36.2695
							 -180 0 0 10.32 377.96 A31.7168 31.7168 -180 0 0 0 385.09 A6.98074 6.98074 0 0 1 3.41 387.88 Z"
						class="st13"/>
			</g>
			<g id="shape25-61" v:mID="25" v:groupContext="shape" v:layerMember="4" transform="translate(2.91645,-6.73562)">
				<title>Sheet.25</title>
				<path d="M2.1 377.28 A45.1724 45.1724 -180 0 0 0 383.9 A19.7788 19.7788 -180 0 0 1.57 386.23 C2.02 386.81 2.45 387.34
							 2.96 387.88 A45.3748 45.3748 0 0 1 5.69 379.1 A6.98074 6.98074 0 0 1 2.1 377.28 Z" class="st13"/>
			</g>
			<g id="shape26-63" v:mID="26" v:groupContext="shape" v:layerMember="4" transform="translate(2.96703,-26.565)">
				<title>Sheet.26</title>
				<path d="M4.53 385.62 A30.351 30.351 0 0 1 2.78 378.19 A20.6134 20.6134 -180 0 0 0 381.86 A32.0962 32.0962 -180 0
							 0 1.44 387.88 A6.80369 6.80369 0 0 1 4.53 385.62 Z" class="st14"/>
			</g>
			<g id="shape27-65" v:mID="27" v:groupContext="shape" v:layerMember="4" transform="translate(2.91645,-15.411)">
				<title>Sheet.27</title>
				<ellipse cx="6.90486" cy="380.97" rx="6.90486" ry="6.90486" class="st15"/>
			</g>
			<g id="shape28-69" v:mID="28" v:groupContext="shape" v:layerMember="4" transform="translate(11.0859,-9.11312)">
				<title>Sheet.28</title>
				<path d="M8.8 387.29 A4.47678 4.47678 0 0 1 10.17 384.08 A30.0475 30.0475 0 0 1 3.77 379.38 A6.93015 6.93015 0 0
							 1 -0 381.48 A33.1332 33.1332 -180 0 0 3.67 384.71 A30.6545 30.6545 -180 0 0 8.85 387.88 A4.52736 4.52736
							 0 0 1 8.8 387.29 Z" class="st14"/>
			</g>
			<g id="shape29-71" v:mID="29" v:groupContext="shape" v:layerMember="4" transform="translate(27.5514,-5.89827)">
				<title>Sheet.29</title>
				<path d="M8.27 384.61 A30.351 30.351 0 0 1 1.29 383.8 A1.03699 1.03699 0 0 1 1.29 384.08 A4.42619 4.42619 0 0 1 0
							 387.21 A34.6255 34.6255 -180 0 0 8.65 387.82 A20.7652 20.7652 -180 0 0 11.66 384.43 A29.0864 29.0864
							 0 0 1 8.27 384.61 Z" class="st14"/>
			</g>
			<g id="shape30-73" v:mID="30" v:groupContext="shape" v:layerMember="4" transform="translate(19.8624,-5.19278)">
				<title>Sheet.30</title>
				<ellipse cx="4.50207" cy="383.373" rx="4.50207" ry="4.50207" class="st16"/>
			</g>
			<g id="shape31-77" v:mID="31" v:groupContext="shape" v:layerMember="4" transform="translate(12.3506,-21.6835)">
				<title>Sheet.31</title>
				<path d="M17.55 387.88 A4.62853 4.62853 0 0 1 19.1 385.35 A64.4959 64.4959 0 0 1 7.82 374.87 A42.7697 42.7697 0 0
							 1 2.76 367.49 A19.3235 19.3235 -180 0 0 0 368.55 A45.8806 45.8806 -180 0 0 5.44 376.59 A66.8734 66.8734
							 -180 0 0 17.55 387.88 Z" class="st17"/>
			</g>
			<g id="shape32-79" v:mID="32" v:groupContext="shape" v:layerMember="4" transform="translate(29.8277,-16.0433)">
				<title>Sheet.32</title>
				<ellipse cx="4.78029" cy="383.095" rx="4.78029" ry="4.78029" class="st16"/>
			</g>
			<g id="shape33-82" v:mID="33" v:groupContext="shape" v:layerMember="4" transform="translate(37.5925,-14.8545)">
				<title>Sheet.33</title>
				<path d="M5.03 385.12 L4.15 384.69 L3.39 384.28 L3.24 384.28 L2.58 383.75 L2.4 383.75 L1.62 383.25 A4.45148 4.45148
							 0 0 1 -0 385.57 C0.3 385.78 0.63 385.95 0.96 386.13 L1.16 386.26 L2.05 386.74 L4.22 387.88 A21.8274
							 21.8274 -180 0 0 4.96 385.07 L5.03 385.12 Z" class="st14"/>
			</g>
			<g id="shape34-84" v:mID="34" v:groupContext="shape" v:layerMember="4" transform="translate(2.91645,-15.411)">
				<title>Sheet.34</title>
				<ellipse cx="6.90486" cy="380.97" rx="6.90486" ry="6.90486" class="st15"/>
			</g>
			<g id="shape35-87" v:mID="35" v:groupContext="shape" v:layerMember="4" transform="translate(19.8624,-5.19278)">
				<title>Sheet.35</title>
				<ellipse cx="4.50207" cy="383.373" rx="4.50207" ry="4.50207" class="st16"/>
			</g>
		</g>
		<g id="shape36-90" v:mID="36" v:groupContext="shape" v:layerMember="0;1;2" transform="translate(41.5979,-45.9393)">
			<title>Sheet.36</title>
			<desc>ASG-data</desc>
			<v:userDefs>
				<v:ud v:nameU="visNavOrder" v:prompt="" v:val="VT0(15000):26"/>
			</v:userDefs>
			<v:textBlock v:margins="rect(4,4,4,4)"/>
			<v:textRect cx="34.2428" cy="379.29" width="68.49" height="17.1694"/>
			<rect x="0" y="370.706" width="68.4856" height="17.1694" rx="4.5" ry="4.5" class="st2"/>
			<text x="9" y="382.89" class="st18" v:langID="1033"><v:paragraph v:spAfter="6" v:horizAlign="1"/><v:tabList/>ASG-data</text>		</g>
		<g id="shape37-93" v:mID="37" v:groupContext="shape" v:layerMember="3;1" transform="translate(35.9388,-136.332)">
			<title>Sheet.37</title>
			<v:userDefs>
				<v:ud v:nameU="visNavOrder" v:prompt="" v:val="VT0(16000):26"/>
			</v:userDefs>
			<rect x="0" y="302.028" width="215.079" height="85.8469" rx="4.5" ry="4.5" class="st4"/>
		</g>
		<g id="shape38-95" v:mID="38" v:groupContext="shape" v:layerMember="3;1" transform="translate(35.9388,-11.6005)">
			<title>Sheet.38</title>
			<v:userDefs>
				<v:ud v:nameU="visNavOrder" v:prompt="" v:val="VT0(17000):26"/>
			</v:userDefs>
			<rect x="0" y="302.028" width="215.079" height="85.8469" rx="4.5" ry="4.5" class="st4"/>
		</g>
		<g id="shape39-97" v:mID="39" v:groupContext="shape" v:layerMember="0;1;2" transform="translate(41.5979,-295.402)">
			<title>Sheet.39</title>
			<desc>ASG-fe</desc>
			<v:userDefs>
				<v:ud v:nameU="visNavOrder" v:prompt="" v:val="VT0(18000):26"/>
			</v:userDefs>
			<v:textBlock v:margins="rect(4,4,4,4)"/>
			<v:textRect cx="34.2428" cy="379.29" width="68.49" height="17.1694"/>
			<rect x="0" y="370.706" width="68.4856" height="17.1694" rx="4.5" ry="4.5" class="st2"/>
			<text x="15.65" y="382.89" class="st18" v:langID="1033"><v:paragraph v:spAfter="6" v:horizAlign="1"/><v:tabList/>ASG-fe</text>		</g>
		<g id="shape40-100" v:mID="40" v:groupContext="shape" v:layerMember="0;1;2" transform="translate(101.139,-270.11)">
			<title>Sheet.40</title>
			<desc>Web private endpoint</desc>
			<v:userDefs>
				<v:ud v:nameU="visNavOrder" v:prompt="" v:val="VT0(8000):26"/>
			</v:userDefs>
			<v:textBlock v:margins="rect(4,4,4,4)"/>
			<v:textRect cx="72.1071" cy="379.29" width="144.22" height="17.1694"/>
			<rect x="0" y="370.706" width="144.214" height="17.1694" rx="4.5" ry="4.5" class="st2"/>
			<text x="14.39" y="382.89" class="st9" v:langID="1033"><v:paragraph v:spAfter="6" v:horizAlign="1"/><v:tabList/>Web private endpoint</text>		</g>
		<g id="shape41-103" v:mID="41" v:groupContext="shape" v:layerMember="0;1;2" transform="translate(101.139,-20.6471)">
			<title>Sheet.41</title>
			<desc>Data private endpoint</desc>
			<v:userDefs>
				<v:ud v:nameU="visNavOrder" v:prompt="" v:val="VT0(10000):26"/>
			</v:userDefs>
			<v:textBlock v:margins="rect(4,4,4,4)"/>
			<v:textRect cx="72.1071" cy="379.29" width="144.22" height="17.1694"/>
			<rect x="0" y="370.706" width="144.214" height="17.1694" rx="4.5" ry="4.5" class="st2"/>
			<text x="14.32" y="382.89" class="st9" v:langID="1033"><v:paragraph v:spAfter="6" v:horizAlign="1"/><v:tabList/>Data private endpoint</text>		</g>
		<g id="group42-106" transform="translate(151.784,-292.614)" v:mID="42" v:groupContext="group" v:layerMember="4">
			<v:userDefs>
				<v:ud v:nameU="visNavOrder" v:val="VT0(12000):26"/>
			</v:userDefs>
			<title>Sheet.42</title>
			<g id="shape43-107" v:mID="43" v:groupContext="shape" v:layerMember="4" transform="translate(17.457,-8.78634)">
				<title>Sheet.43</title>
				<v:userDefs>
					<v:ud v:nameU="visNavOrder" v:prompt="" v:val="VT0(2000):26"/>
				</v:userDefs>
				<path d="M1.25 386.64 A4.16058 4.16058 -180 1 0 7.09 380.7 A4.10552 4.10552 -180 0 0 5.59 379.77 L5.59 361.9 L2.93
							 361.9 L2.93 379.72 A4.13904 4.13904 -180 0 0 1.25 386.64 L1.25 386.64 Z" class="st19"/>
			</g>
			<g id="shape44-109" v:mID="44" v:groupContext="shape" v:layerMember="4" transform="translate(17.5049,-32.5166)">
				<title>Sheet.44</title>
				<v:userDefs>
					<v:ud v:nameU="visNavOrder" v:prompt="" v:val="VT0(3000):26"/>
				</v:userDefs>
				<ellipse cx="4.16058" cy="383.714" rx="4.16058" ry="4.16058" class="st20"/>
			</g>
			<g id="group45-113" v:mID="45" v:groupContext="group" v:layerMember="4">
				<v:userDefs>
					<v:ud v:nameU="visNavOrder" v:prompt="" v:val="VT0(4000):26"/>
				</v:userDefs>
				<title>Sheet.45</title>
				<g id="shape46-114" v:mID="46" v:groupContext="shape" v:layerMember="4"
						transform="translate(276.675,646.246) rotate(134.919)">
					<title>Sheet.46</title>
					<path d="M0.72 369.18 L2.96 369.18 a0.718167 0.718167 0 0 1 0.718167 0.718167 L3.68 386.44 A1.43633 1.43633 0
								 0 1 2.24 387.88 L0 387.88 L0 369.9 a0.718167 0.718167 0 0 1 0.718167 -0.718167 Z" class="st21"/>
				</g>
				<g id="shape47-116" v:mID="47" v:groupContext="shape" v:layerMember="4"
						transform="translate(273.286,100.281) rotate(44.919)">
					<title>Sheet.47</title>
					<path d="M0.72 369.44 L2.96 369.44 a0.718167 0.718167 0 0 1 0.718167 0.718167 L3.68 387.88 L1.44 387.88 A1.43633
								 1.43633 0 0 1 0 386.44 L0 370.16 a0.718167 0.718167 0 0 1 0.720561 -0.718167 Z" class="st22"/>
				</g>
				<g id="shape48-118" v:mID="48" v:groupContext="shape" v:layerMember="4"
						transform="translate(302.326,111.686) rotate(45.081)">
					<title>Sheet.48</title>
					<path d="M0 369.18 L2.24 369.18 A1.43633 1.43633 0 0 1 3.68 370.62 L3.68 387.16 a0.718167 0.718167 0 0 1 -0.718167
								 0.718167 L0.72 387.88 a0.718167 0.718167 0 0 1 -0.718167 -0.718167 L0 369.18 Z" class="st21"/>
				</g>
				<g id="shape49-120" v:mID="49" v:groupContext="shape" v:layerMember="4"
						transform="translate(304.386,636.536) rotate(135.081)">
					<title>Sheet.49</title>
					<path d="M1.44 369.44 L3.68 369.44 L3.68 387.16 a0.718167 0.718167 0 0 1 -0.718167 0.718167 L0.72 387.88 a0.718167
								 0.718167 0 0 1 -0.718167 -0.718167 L0 370.88 A1.43633 1.43633 0 0 1 1.44 369.44 Z" class="st22"/>
				</g>
			</g>
			<g id="shape50-122" v:mID="50" v:groupContext="shape" v:layerMember="4" transform="translate(17.4594,-8.82421)">
				<title>Sheet.50</title>
				<ellipse cx="4.16058" cy="383.714" rx="4.16058" ry="4.16058" class="st23"/>
			</g>
		</g>
		<g id="group51-126" transform="translate(151.784,-43.1517)" v:mID="51" v:groupContext="group" v:layerMember="4">
			<v:userDefs>
				<v:ud v:nameU="visNavOrder" v:val="VT0(14000):26"/>
			</v:userDefs>
			<title>Sheet.51</title>
			<g id="shape52-127" v:mID="52" v:groupContext="shape" v:layerMember="4" transform="translate(17.457,-8.78634)">
				<title>Sheet.52</title>
				<v:userDefs>
					<v:ud v:nameU="visNavOrder" v:prompt="" v:val="VT0(2000):26"/>
				</v:userDefs>
				<path d="M1.25 386.64 A4.16058 4.16058 -180 1 0 7.09 380.7 A4.10552 4.10552 -180 0 0 5.59 379.77 L5.59 361.9 L2.93
							 361.9 L2.93 379.72 A4.13904 4.13904 -180 0 0 1.25 386.64 L1.25 386.64 Z" class="st19"/>
			</g>
			<g id="shape53-129" v:mID="53" v:groupContext="shape" v:layerMember="4" transform="translate(17.5049,-32.5166)">
				<title>Sheet.53</title>
				<v:userDefs>
					<v:ud v:nameU="visNavOrder" v:prompt="" v:val="VT0(3000):26"/>
				</v:userDefs>
				<ellipse cx="4.16058" cy="383.714" rx="4.16058" ry="4.16058" class="st20"/>
			</g>
			<g id="group54-132" v:mID="54" v:groupContext="group" v:layerMember="4">
				<v:userDefs>
					<v:ud v:nameU="visNavOrder" v:prompt="" v:val="VT0(4000):26"/>
				</v:userDefs>
				<title>Sheet.54</title>
				<g id="shape55-133" v:mID="55" v:groupContext="shape" v:layerMember="4"
						transform="translate(276.675,646.246) rotate(134.919)">
					<title>Sheet.55</title>
					<path d="M0.72 369.18 L2.96 369.18 a0.718167 0.718167 0 0 1 0.718167 0.718167 L3.68 386.44 A1.43633 1.43633 0
								 0 1 2.24 387.88 L0 387.88 L0 369.9 a0.718167 0.718167 0 0 1 0.718167 -0.718167 Z" class="st21"/>
				</g>
				<g id="shape56-135" v:mID="56" v:groupContext="shape" v:layerMember="4"
						transform="translate(273.286,100.281) rotate(44.919)">
					<title>Sheet.56</title>
					<path d="M0.72 369.44 L2.96 369.44 a0.718167 0.718167 0 0 1 0.718167 0.718167 L3.68 387.88 L1.44 387.88 A1.43633
								 1.43633 0 0 1 0 386.44 L0 370.16 a0.718167 0.718167 0 0 1 0.720561 -0.718167 Z" class="st22"/>
				</g>
				<g id="shape57-137" v:mID="57" v:groupContext="shape" v:layerMember="4"
						transform="translate(302.326,111.686) rotate(45.081)">
					<title>Sheet.57</title>
					<path d="M0 369.18 L2.24 369.18 A1.43633 1.43633 0 0 1 3.68 370.62 L3.68 387.16 a0.718167 0.718167 0 0 1 -0.718167
								 0.718167 L0.72 387.88 a0.718167 0.718167 0 0 1 -0.718167 -0.718167 L0 369.18 Z" class="st21"/>
				</g>
				<g id="shape58-139" v:mID="58" v:groupContext="shape" v:layerMember="4"
						transform="translate(304.386,636.536) rotate(135.081)">
					<title>Sheet.58</title>
					<path d="M1.44 369.44 L3.68 369.44 L3.68 387.16 a0.718167 0.718167 0 0 1 -0.718167 0.718167 L0.72 387.88 a0.718167
								 0.718167 0 0 1 -0.718167 -0.718167 L0 370.88 A1.43633 1.43633 0 0 1 1.44 369.44 Z" class="st22"/>
				</g>
			</g>
			<g id="shape59-141" v:mID="59" v:groupContext="shape" v:layerMember="4" transform="translate(17.4594,-8.82421)">
				<title>Sheet.59</title>
				<ellipse cx="4.16058" cy="383.714" rx="4.16058" ry="4.16058" class="st23"/>
			</g>
		</g>
		<g id="shape60-144" v:mID="60" v:groupContext="shape" v:layerMember="0;1;2" transform="translate(5.58233,-357.438)">
			<title>Sheet.60</title>
			<desc>NSG-fe</desc>
			<v:userDefs>
				<v:ud v:nameU="visNavOrder" v:prompt="" v:val="VT0(19000):26"/>
			</v:userDefs>
			<v:textBlock v:margins="rect(4,4,4,4)"/>
			<v:textRect cx="30.4756" cy="377.144" width="60.96" height="21.4617"/>
			<rect x="0" y="366.413" width="60.9513" height="21.4617" rx="4.5" ry="4.5" class="st2"/>
			<text x="11.27" y="380.74" class="st24" v:langID="1033"><v:paragraph v:spAfter="6" v:horizAlign="1"/><v:tabList/>NSG-fe</text>		</g>
	</g>
</svg>
