<svg width="120" height="127" xmlns="http://www.w3.org/2000/svg" xmlns:xlink="http://www.w3.org/1999/xlink" xml:space="preserve" overflow="hidden"><defs><clipPath id="clip0"><rect x="0" y="0" width="120" height="127"/></clipPath><linearGradient x1="60.2439" y1="6.50048" x2="60.2439" y2="120.136" gradientUnits="userSpaceOnUse" spreadMethod="pad" id="fill1"><stop offset="0" stop-color="#00ABDE"/><stop offset="1" stop-color="#007ED8"/></linearGradient><linearGradient x1="24.5221" y1="3.04753" x2="135.027" y2="190.229" gradientUnits="userSpaceOnUse" spreadMethod="pad" id="fill2"><stop offset="0" stop-color="#007ED8"/><stop offset="0.7065" stop-color="#002D4C"/><stop offset="1" stop-color="#002D4C"/></linearGradient><linearGradient x1="58.6495" y1="-7.7221" x2="62.0322" y2="143" gradientUnits="userSpaceOnUse" spreadMethod="pad" id="fill3"><stop offset="0" stop-color="#007ED8"/><stop offset="0.7065" stop-color="#002D4C"/><stop offset="1" stop-color="#002D4C"/></linearGradient></defs><g clip-path="url(#clip0)"><path d="M60.244 125.653C62.2727 125.653 64.2683 125.089 66.0318 124.015L107.117 99.0471C110.79 96.8128 113.064 92.6161 113.064 88.0813L113.064 38.5498C113.064 34.0282 110.79 29.8249 107.117 27.584L66.0318 2.61609C62.4981 0.468028 57.9766 0.481288 54.4628 2.61609L13.3777 27.5973C9.70475 29.8315 7.41746 34.0282 7.41746 38.563L7.41746 88.088C7.41746 91.9067 9.04177 95.5001 11.76 97.867L11.76 97.8868 54.4628 124.028C56.213 125.089 58.2152 125.653 60.244 125.653ZM60.6749 5.61941C61.9677 5.61941 63.6119 6.42162 64.7456 7.11772L105.029 31.7741C107.515 33.2857 108.92 37.6614 108.92 40.8105L108.503 88.0813C108.503 91.2305 106.381 94.0614 103.895 95.573L63.8506 119.692C61.5766 121.078 59.7268 121.078 57.4462 119.692L16.865 95.5134C14.3788 94.0018 12.3766 91.2172 12.3766 88.0813L12.3766 39.2592C12.3766 36.1166 14.1865 32.8746 16.686 31.3564L56.8495 7.11772C57.9766 6.42825 59.3821 5.61941 60.6749 5.61941Z" fill="#F2F1F0" transform="scale(1 1.00292)"/><path d="M65.4815 7.99207C63.8572 6.99759 62.0539 6.50035 60.244 6.50035 58.434 6.50035 56.6307 7.00422 55.0064 7.99207L17.7931 30.7523C14.465 32.7876 12.4031 36.5998 12.4031 40.7434L12.4031 85.8928C12.4031 90.0232 14.4583 93.8486 17.7931 95.884L55.0064 118.644C56.6307 119.639 58.434 120.136 60.244 120.136 62.0539 120.136 63.8572 119.645 65.4815 118.644L102.695 95.884C106.023 93.8486 108.085 90.0232 108.085 85.8928L108.085 40.7434C108.085 36.6131 106.03 32.8009 102.695 30.7523L65.4815 7.99207Z" fill="url(#fill1)" fill-rule="evenodd" transform="scale(1 1.00292)"/><path d="M60.244 7.4754C61.3578 7.4754 62.6108 8.0522 63.9766 8.88093L102.741 32.4434C105.161 33.9152 106.759 36.7461 106.759 39.9483L106.759 86.6751C106.759 89.8707 105.161 92.7083 102.741 94.1801L63.9832 117.743C62.6838 118.531 61.4108 119.029 60.2506 119.029 59.0904 119.029 57.8175 118.531 56.518 117.743L17.7467 94.1867C16.4141 93.3713 15.4528 92.5757 14.8031 91.5083 14.1534 90.4475 13.7291 88.9757 13.7291 86.6818L13.7291 39.955C13.7291 36.7528 15.3269 33.9218 17.7467 32.45L56.5047 8.88756C57.8904 8.05883 59.1235 7.4754 60.244 7.4754ZM65.3556 120.017 104.114 96.4541C107.375 94.4718 109.404 90.7459 109.404 86.6818L109.404 39.955C109.404 35.8909 107.375 32.1649 104.114 30.1826L65.3556 6.62015C63.9567 5.77153 62.16 4.82346 60.244 4.82346 58.3213 4.82346 56.5246 5.77816 55.139 6.61352L55.1324 6.61352 16.3677 30.1826C13.1059 32.1649 11.0771 35.8909 11.0771 39.955L11.0771 86.6818C11.0771 89.3072 11.5677 91.2895 12.5357 92.8873 13.5036 94.4785 14.8694 95.5392 16.3677 96.4475L55.1257 120.01C56.5976 120.905 58.3677 121.687 60.2373 121.687 62.107 121.687 63.8838 120.912 65.3556 120.017Z" fill="url(#fill2)" fill-rule="evenodd" transform="scale(1 1.00292)"/><path d="M60.244 125.653C62.2727 125.653 64.2683 125.089 66.0318 124.015L107.117 99.0471C110.79 96.8128 113.064 92.6161 113.064 88.0813L113.064 38.5498C113.064 34.0282 110.79 29.8249 107.117 27.584L66.0318 2.61609C62.4981 0.468028 57.9766 0.481288 54.4628 2.61609L13.3777 27.5973C9.70475 29.8315 7.41746 34.0282 7.41746 38.563L7.41746 88.088C7.41746 91.9067 9.04177 95.5001 11.76 97.867L11.76 97.8868 54.4628 124.028C56.213 125.089 58.2152 125.653 60.244 125.653ZM60.6749 5.61941C61.9677 5.61941 63.6119 6.42162 64.7456 7.11772L105.029 31.7741C107.515 33.2857 108.92 37.6614 108.92 40.8105L108.503 88.0813C108.503 91.2305 106.381 94.0614 103.895 95.573L63.8506 119.692C61.5766 121.078 59.7268 121.078 57.4462 119.692L16.865 95.5134C14.3788 94.0018 12.3766 91.2172 12.3766 88.0813L12.3766 39.2592C12.3766 36.1166 14.1865 32.8746 16.686 31.3564L56.8495 7.11772C57.9766 6.42825 59.3821 5.61941 60.6749 5.61941Z" fill="#F2F1F0" transform="scale(1 1.00292)"/><path d="M65.4815 7.99207C63.8572 6.99759 62.0539 6.50035 60.244 6.50035 58.434 6.50035 56.6307 7.00422 55.0064 7.99207L17.7931 30.7523C14.465 32.7876 12.4031 36.5998 12.4031 40.7434L12.4031 85.8928C12.4031 90.0232 14.4583 93.8486 17.7931 95.884L55.0064 118.644C56.6307 119.639 58.434 120.136 60.244 120.136 62.0539 120.136 63.8572 119.645 65.4815 118.644L102.695 95.884C106.023 93.8486 108.085 90.0232 108.085 85.8928L108.085 40.7434C108.085 36.6131 106.03 32.8009 102.695 30.7523L65.4815 7.99207Z" fill="url(#fill3)" fill-rule="evenodd" transform="scale(1 1.00292)"/><path d="M60.244 7.4754C61.3578 7.4754 62.6108 8.0522 63.9766 8.88093L102.741 32.4434C105.161 33.9152 106.759 36.7461 106.759 39.9483L106.759 86.6751C106.759 89.8707 105.161 92.7083 102.741 94.1801L63.9832 117.743C62.6838 118.531 61.4108 119.029 60.2506 119.029 59.0904 119.029 57.8175 118.531 56.518 117.743L17.7467 94.1867C16.4141 93.3713 15.4528 92.5757 14.8031 91.5083 14.1534 90.4475 13.7291 88.9757 13.7291 86.6818L13.7291 39.955C13.7291 36.7528 15.3269 33.9218 17.7467 32.45L56.5047 8.88756C57.8904 8.05883 59.1235 7.4754 60.244 7.4754ZM65.3556 120.017 104.114 96.4541C107.375 94.4718 109.404 90.7459 109.404 86.6818L109.404 39.955C109.404 35.8909 107.375 32.1649 104.114 30.1826L65.3556 6.62015C63.9567 5.77153 62.16 4.82346 60.244 4.82346 58.3213 4.82346 56.5246 5.77816 55.139 6.61352L55.1324 6.61352 16.3677 30.1826C13.1059 32.1649 11.0771 35.8909 11.0771 39.955L11.0771 86.6818C11.0771 89.3072 11.5677 91.2895 12.5357 92.8873 13.5036 94.4785 14.8694 95.5392 16.3677 96.4475L55.1257 120.01C56.5976 120.905 58.3677 121.687 60.2373 121.687 62.107 121.687 63.8838 120.912 65.3556 120.017Z" fill="#002D4C" fill-rule="evenodd" transform="scale(1 1.00292)"/><path d="M60.2498 109.592C59.8322 109.592 59.4026 109.497 59.0208 109.306 34.0347 96.7412 23.3672 81.2891 23.3672 57.663L23.3672 35.7912C23.3672 34.2878 24.5844 33.0587 26.0997 33.0587 41.8264 33.0587 52.3268 29.7893 58.1855 23.0596 59.2236 21.8663 61.2641 21.8663 62.3022 23.0596 68.1726 29.7893 78.661 33.0587 94.3883 33.0587 95.8913 33.0587 97.1204 34.2878 97.1204 35.7912L97.1204 57.663C97.1204 81.301 86.453 96.7412 61.4669 109.306 61.097 109.497 60.6675 109.592 60.2498 109.592Z" fill="#1F1D20" fill-rule="evenodd" fill-opacity="0.15" transform="scale(1 1.00292)"/><path d="M28.8326 36.1248 28.8326 55.288C28.8326 76.4559 37.9607 89.9032 60.2501 101.418 82.5394 89.9032 91.6681 76.4559 91.6681 55.288L91.6681 36.1248C77.3131 35.7668 66.9799 32.5809 60.2501 26.4 53.5204 32.5809 43.199 35.7788 28.8326 36.1248ZM60.2501 107.229C59.8325 107.229 59.403 107.133 59.0212 106.943 34.035 94.3783 23.3676 78.9255 23.3676 55.2999L23.3676 33.4281C23.3676 31.9246 24.5847 30.6956 26.1001 30.6956 41.8268 30.6956 52.3272 27.4262 58.1859 20.6964 59.224 19.5031 61.2644 19.5031 62.3025 20.6964 68.1733 27.4262 78.6617 30.6956 94.3883 30.6956 95.8919 30.6956 97.1211 31.9246 97.1211 33.4281L97.1211 55.2999C97.1211 78.9375 86.4537 94.3783 61.4672 106.943 61.0974 107.133 60.6678 107.229 60.2501 107.229Z" fill="#546670" fill-rule="evenodd" transform="scale(1 1.00292)"/><path d="M60.2377 24.4307C53.4125 32.2583 41.3729 34.8595 27.6627 34.8595L27.6627 55.7051C27.6627 77.1951 37.1847 91.0362 60.2377 102.611 83.2906 91.0362 92.813 77.1951 92.813 55.7051L92.813 34.8475C79.1025 34.8475 67.0747 32.2583 60.2377 24.4307Z" fill="#243A5E" fill-rule="evenodd" transform="scale(1 1.00292)"/><path d="M60.2499 24.4307 60.2499 102.623C83.3032 91.0362 92.825 77.1951 92.825 55.7051L92.825 34.8475C79.1025 34.8475 67.0754 32.2583 60.2499 24.4307Z" fill="#002D4C" fill-rule="evenodd" transform="scale(1 1.00292)"/><path d="M69.6875 74.0148C69.6875 74.9609 68.9125 75.728 67.9744 75.728L52.5135 75.728C51.5755 75.728 50.8004 74.9609 50.8004 74.0148L50.8004 61.133 69.6875 61.133 69.6875 74.0148Z" fill="#C5CCCD" fill-rule="evenodd" transform="scale(1 1.00292)"/><path d="M69.6875 61.1328C69.6875 62.0788 68.9125 62.8459 67.9744 62.8459L52.5135 62.8459C51.5755 62.8538 50.8004 62.0788 50.8004 61.1328L50.8004 59.4198C50.8004 58.4738 51.5755 57.7067 52.5135 57.7067L67.9704 57.7067C68.9165 57.7067 69.6835 58.4818 69.6835 59.4198L69.6835 61.1328 69.6875 61.1328Z" fill="#839196" fill-rule="evenodd" transform="scale(1 1.00292)"/><path d="M67.9704 63.2798 61.1025 63.2798C60.6296 63.2798 60.244 63.6614 60.244 64.1383L60.244 74.0115C60.244 74.4842 59.8625 74.8701 59.3855 74.8701L52.5135 74.8701C51.5755 74.874 50.8004 74.0983 50.8004 73.1529L50.8004 74.0115C50.8004 74.9569 51.5755 75.724 52.5135 75.724L67.9704 75.724C68.9165 75.724 69.6835 74.9489 69.6835 74.0115L69.6835 61.5668C69.6875 62.5128 68.9165 63.2798 67.9704 63.2798Z" fill="#ADBDC4" fill-rule="evenodd" transform="scale(1 1.00292)"/><path d="M60.2479 65.4373C58.193 65.4373 56.5158 67.1065 56.5158 69.1691 56.5158 71.2243 58.1851 72.9017 60.2479 72.9017 62.3107 72.9017 63.98 71.2283 63.98 69.1691 63.9721 67.1065 62.3027 65.4373 60.2479 65.4373Z" fill="#F5F8F5" fill-rule="evenodd" transform="scale(1 1.00292)"/><path d="M56.3848 60.279C56.3848 60.9905 55.6138 61.5668 54.6717 61.5668 53.7298 61.5668 52.9587 60.9905 52.9587 60.279 52.9587 59.5676 53.7298 58.9913 54.6717 58.9913 55.6138 58.9913 56.3848 59.5636 56.3848 60.279Z" fill="#182A37" fill-rule="evenodd" transform="scale(1 1.00292)"/><path d="M67.5454 60.279C67.5454 60.9905 66.7744 61.5668 65.8324 61.5668 64.8865 61.5668 64.1194 60.9905 64.1194 60.279 64.1194 59.5676 64.8904 58.9913 65.8324 58.9913 66.7744 58.9913 67.5454 59.5636 67.5454 60.279Z" fill="#182A37" fill-rule="evenodd" transform="scale(1 1.00292)"/><path d="M60.2484 48.2554C56.4566 48.2554 53.3763 51.3396 53.3763 55.1274L53.3763 61.1211C53.6903 61.3874 54.1474 61.5662 54.6641 61.5662 55.1808 61.5662 55.6378 61.3913 55.9518 61.1211L55.9518 55.1274C55.9518 52.7625 57.8795 50.8388 60.2404 50.8388 62.6053 50.8388 64.529 52.7665 64.529 55.1274L64.529 60.2785C64.529 60.7514 65.1053 61.1369 65.8167 61.1369 66.5284 61.1369 67.1045 60.7514 67.1045 60.2785L67.1045 55.1274C67.1125 51.3396 64.0322 48.2554 60.2484 48.2554Z" fill="#F5F8F5" fill-rule="evenodd" transform="scale(1 1.00292)"/><path d="M57.7797 51.1571C56.1263 51.8527 55.0889 53.526 55.0889 55.3225L55.0889 59.7144C55.0889 60.2788 54.5523 60.6961 54.0118 60.5451 53.7455 60.4696 53.503 60.3742 53.3679 60.2589L53.3679 61.1174C53.6819 61.3837 54.139 61.5626 54.6557 61.5626 54.8027 61.5626 54.9458 61.5467 55.0849 61.5188 55.1724 61.503 55.2558 61.4791 55.3353 61.4552 55.3751 61.4433 55.4148 61.4275 55.4546 61.4116 55.5102 61.3877 55.5698 61.3598 55.6254 61.3321 55.6533 61.3162 55.6811 61.3042 55.7129 61.2883 55.7924 61.2367 55.8719 61.185 55.9394 61.1293L55.9394 55.1277C55.9394 52.9059 57.6366 51.0697 59.8028 50.8551 59.1708 50.7835 58.4871 50.867 57.7797 51.1571Z" fill="#C5CCCD" fill-rule="evenodd" transform="scale(1 1.00292)"/><path d="M60.248 48.2554C60.1049 48.2554 59.9618 48.2673 59.8187 48.2792 63.4077 48.5017 66.2576 51.4827 66.2576 55.1274L66.2576 59.718C66.2576 60.2824 65.7209 60.6998 65.1804 60.5487 64.9141 60.4732 64.6717 60.3778 64.5365 60.2625L64.5365 61.1211C64.8505 61.3874 65.3116 61.5662 65.8243 61.5662 66.3408 61.5662 66.7982 61.3913 67.1118 61.1211L67.1118 55.1274C67.1118 51.3396 64.0278 48.2554 60.248 48.2554Z" fill="#C5CCCD" fill-rule="evenodd" transform="scale(1 1.00292)"/><path d="M60.3355 87.5059 39.0082 75.1883 39.0082 50.5612 60.3355 38.2433 81.663 50.5612 81.663 75.1883 60.3355 87.5059ZM40.383 74.4 60.3355 85.9207 80.288 74.4 80.288 51.3494 60.3355 39.8289 40.383 51.3494 40.383 74.4Z" fill="#50E6FF" transform="scale(1 1.00292)"/><path d="M60.198 42.522C61.7672 42.522 63.0392 41.25 63.0392 39.6808 63.0392 38.1117 61.7672 36.8396 60.198 36.8396 58.6289 36.8396 57.3568 38.1117 57.3568 39.6808 57.3568 41.25 58.6289 42.522 60.198 42.522Z" fill="#E9FCFE" transform="scale(1 1.00292)"/><path d="M60.198 89.0692C61.7672 89.0692 63.0392 87.7976 63.0392 86.2283 63.0392 84.659 61.7672 83.3867 60.198 83.3867 58.6289 83.3867 57.3568 84.659 57.3568 86.2283 57.3568 87.7976 58.6289 89.0692 60.198 89.0692Z" fill="#84ECFD" transform="scale(1 1.00292)"/><path d="M80.9112 78.2301C82.4804 78.2301 83.752 76.9578 83.752 75.3885 83.752 73.8192 82.4804 72.5476 80.9112 72.5476 79.3419 72.5476 78.0696 73.8192 78.0696 75.3885 78.0696 76.9578 79.3419 78.2301 80.9112 78.2301Z" fill="#ACF3FD" transform="scale(1 1.00292)"/><path d="M80.9112 53.4094C82.4804 53.4094 83.752 52.1373 83.752 50.5682 83.752 48.9991 82.4804 47.727 80.9112 47.727 79.3419 47.727 78.0696 48.9991 78.0696 50.5682 78.0696 52.1373 79.3419 53.4094 80.9112 53.4094Z" fill="#E9FCFE" transform="scale(1 1.00292)"/><path d="M39.6587 78.1551C41.1721 78.1551 42.399 76.928 42.399 75.415 42.399 73.9014 41.1721 72.6742 39.6587 72.6742 38.1451 72.6742 36.9183 73.9014 36.9183 75.415 36.9183 76.928 38.1451 78.1551 39.6587 78.1551Z" fill="#ACF3FD" transform="scale(1 1.00292)"/><path d="M39.6587 53.5017C41.1721 53.5017 42.399 52.2748 42.399 50.7613 42.399 49.2479 41.1721 48.021 39.6587 48.021 38.1451 48.021 36.9183 49.2479 36.9183 50.7613 36.9183 52.2748 38.1451 53.5017 39.6587 53.5017Z" fill="#E9FCFE" transform="scale(1 1.00292)"/></g></svg>