<svg width="181" height="191" viewBox="0 0 181 191" fill="none" xmlns="http://www.w3.org/2000/svg">
<path d="M90.1062 189.283C93.188 189.278 96.2087 188.423 98.8363 186.813L160.836 149.153C163.623 147.393 165.914 144.949 167.489 142.054C169.064 139.159 169.872 135.909 169.836 132.613V57.9027C169.87 54.6074 169.06 51.3581 167.485 48.4634C165.91 45.5687 163.621 43.1244 160.836 41.3627L98.8363 3.70264C96.2021 2.11725 93.1857 1.27954 90.1112 1.27954C87.0368 1.27954 84.0204 2.11725 81.3862 3.70264L19.3862 41.3827C16.5998 43.143 14.3102 45.5869 12.7349 48.4819C11.1596 51.377 10.351 54.6269 10.3862 57.9226V132.623C10.3677 135.405 10.9424 138.16 12.0718 140.703C13.2012 143.247 14.8595 145.52 16.9363 147.373V147.373L81.3463 186.803C83.9832 188.418 87.0139 189.276 90.1062 189.283V189.283ZM90.7562 8.28271C92.7562 8.28271 95.1862 9.4926 96.8962 10.5426L157.656 47.7327C161.406 50.0127 163.526 56.6127 163.526 61.3627L162.896 132.663C162.896 137.413 159.696 141.663 155.896 143.963L95.4962 180.343C92.0662 182.433 89.2763 182.433 85.8363 180.343L24.6262 143.873C20.8762 141.593 17.8562 137.393 17.8562 132.663V58.9727C17.8881 56.6069 18.4968 54.2846 19.6295 52.2074C20.7622 50.1302 22.3847 48.3607 24.3562 47.0526L84.9363 10.4927C86.6863 9.45268 88.8062 8.23267 90.7562 8.23267V8.28271Z" fill="url(#paint0_linear_1044_2429)"/>
<path fill-rule="evenodd" clip-rule="evenodd" d="M98.0063 11.8136C95.6335 10.3435 92.8975 9.5647 90.1062 9.5647C87.315 9.5647 84.5791 10.3435 82.2063 11.8136L26.0763 46.1437C23.5497 47.7551 21.4766 49.9852 20.0538 52.6226C18.6309 55.26 17.9055 58.2172 17.9463 61.2136V129.314C17.9065 132.31 18.6323 135.267 20.0551 137.904C21.4778 140.541 23.5504 142.772 26.0763 144.384L82.2063 178.714C84.5791 180.184 87.315 180.963 90.1062 180.963C92.8975 180.963 95.6335 180.184 98.0063 178.714L154.136 144.384C156.661 142.77 158.732 140.54 160.155 137.903C161.578 135.266 162.304 132.31 162.266 129.314V61.2136C162.304 58.2177 161.578 55.2616 160.155 52.6246C158.732 49.9877 156.661 47.7572 154.136 46.1437L98.0063 11.8136Z" fill="url(#paint1_linear_1044_2429)"/>
<path d="M22.4163 120.463L31.6462 125.753L22.4962 131.013L17.8962 128.373V128.903L22.0563 131.293L18.3762 133.413L18.5162 133.843L22.5162 131.553L31.7063 136.833L22.5863 142.073L20.9363 141.123L21.1462 141.753L89.6562 181.353L90.0863 181.063L80.7562 175.683L90.0262 170.353L99.2263 175.633L99.6362 175.353L90.4862 170.083L99.7163 164.773L109.076 170.143L109.306 169.733L100.186 164.513L109.306 159.273L118.546 164.583L118.876 164.223L109.776 158.993L118.976 153.713L128.166 158.993L128.706 158.783L119.416 153.453L128.646 148.153L137.786 153.403L138.326 153.193L129.096 147.893L138.236 142.633L147.386 147.893L147.916 147.683L138.686 142.383L147.916 137.073L157.006 142.303L157.536 142.093L148.356 136.823L157.536 131.543L162.226 134.233V133.743L157.956 131.283L162.496 128.673V128.143L157.496 131.033L148.326 125.763L157.586 120.433L162.766 123.433V122.923L119.466 97.9233L100.206 86.8033L100.016 86.7334L90.6262 81.3134L90.1963 81.0334L18.4163 122.253V122.793L22.4163 120.463ZM22.9463 131.273L32.0863 126.003L41.3063 131.293L32.1362 136.563L22.9463 131.273ZM80.7762 131.273L90.0062 125.973L99.1462 131.213L89.9163 136.523L80.7762 131.273ZM89.4763 136.783L80.2662 142.073L71.1262 136.823L80.3363 131.533L89.4763 136.783ZM90.4763 125.713L99.6262 120.453L108.756 125.703L99.6062 130.963L90.4763 125.713ZM90.0262 125.453L80.7963 120.153L89.9563 114.893L99.1863 120.193L90.0262 125.453ZM89.5863 125.713L80.3562 131.013L71.1262 125.713L80.3562 120.413L89.5863 125.713ZM79.9062 131.273L70.6963 136.563L61.4663 131.263L70.6763 125.973L79.9062 131.273ZM70.2362 136.833L61.0863 142.093L51.8463 136.793L61.0062 131.523L70.2362 136.833ZM70.6863 137.083L79.8263 142.333L70.6863 147.593L61.5262 142.343L70.6863 137.083ZM80.2662 142.593L89.4962 147.893L80.3662 153.143L71.1262 147.853L80.2662 142.593ZM80.7362 142.323L89.9363 137.033L99.1663 142.333L89.9663 147.633L80.7362 142.323ZM90.3862 136.783L99.6062 131.473L108.836 136.773L99.6162 142.083L90.3862 136.783ZM100.056 131.213L109.206 125.953L118.436 131.263L109.286 136.523L100.056 131.213ZM109.646 125.703L118.876 120.393L128.106 125.703L118.876 131.003L109.646 125.703ZM109.206 125.443L100.076 120.193L109.306 114.893L118.426 120.143L109.206 125.443ZM99.6262 119.943L90.3962 114.633L99.6262 109.333L108.856 114.633L99.6262 119.943ZM89.9563 114.383L80.7963 109.113L90.0262 103.813L99.1863 109.073L89.9563 114.383ZM89.5062 114.633L80.3562 119.903L71.1863 114.633L80.3463 109.373L89.5062 114.633ZM79.9062 120.153L70.6763 125.453L61.5162 120.193L70.7462 114.893L79.9062 120.153ZM70.2362 125.713L61.0162 131.013L51.8562 125.743L61.0663 120.453L70.2362 125.713ZM60.5663 131.273L51.3962 136.533L42.2263 131.273L51.4163 125.973L60.5663 131.273ZM50.9363 136.803L41.7662 142.073L32.6062 136.803L41.7662 131.543L50.9363 136.803ZM51.3862 137.053L60.6262 142.353L51.4363 147.633L42.2063 142.333L51.3862 137.053ZM61.0663 142.613L70.2163 147.863L61.0162 153.153L51.8762 147.893L61.0663 142.613ZM70.6663 148.113L79.8962 153.413L70.6863 158.713L61.4663 153.403L70.6663 148.113ZM80.3463 153.673L89.6262 158.993L80.4062 164.293L71.1362 158.963L80.3463 153.673ZM80.8163 153.403L89.9463 148.153L99.2163 153.483L90.0963 158.723L80.8163 153.403ZM90.4062 147.883L99.6162 142.593L108.886 147.923L99.6863 153.213L90.4062 147.883ZM100.056 142.333L109.286 137.033L118.556 142.363L109.326 147.663L100.056 142.333ZM109.726 136.773L118.876 131.513L128.146 136.843L119.006 142.103L109.726 136.773ZM119.326 131.263L128.546 125.953L137.826 131.283L128.596 136.583L119.326 131.263ZM128.996 125.703L138.166 120.423L147.446 125.753L138.266 131.023L128.996 125.703ZM128.546 125.443L119.326 120.143L128.496 114.863L137.726 120.173L128.546 125.443ZM118.876 119.883L109.746 114.633L118.916 109.363L128.046 114.613L118.876 119.883ZM109.306 114.383L100.076 109.073L109.246 103.813L118.476 109.113L109.306 114.383ZM99.6262 108.823L90.4663 103.553L99.6362 98.2933L108.796 103.553L99.6262 108.823ZM90.0262 103.303L80.7562 97.9734L89.9062 92.7034L99.1863 98.0334L90.0262 103.303ZM89.5763 103.553L80.3463 108.863L71.0963 103.543L80.3163 98.2334L89.5763 103.553ZM79.9062 109.113L70.7462 114.383L61.5062 109.073L70.6562 103.803L79.9062 109.113ZM70.2963 114.633L61.0663 119.933L51.8363 114.633L61.0563 109.323L70.2963 114.633ZM60.6262 120.193L51.4062 125.493L42.1863 120.193L51.3962 114.893L60.6262 120.193ZM50.9563 125.753L41.7863 131.023L32.5663 125.733L41.7362 120.453L50.9563 125.753ZM22.9563 142.323L32.0763 137.083L41.2362 142.343L32.0963 147.603L22.9563 142.323ZM32.5363 147.863L41.6863 142.603L50.9062 147.903L41.7362 153.173L32.5363 147.863ZM42.1863 153.433L51.3562 148.163L60.5062 153.413L51.3063 158.703L42.1863 153.433ZM51.7562 158.963L60.9463 153.673L70.1763 158.973L60.9563 164.273L51.7562 158.963ZM61.4062 164.533L70.6262 159.233L79.8962 164.563L70.6562 169.873L61.4062 164.533ZM80.2362 175.413L71.0963 170.133L80.3463 164.813L89.5062 170.083L80.2362 175.413ZM89.9563 169.823L80.7963 164.553L90.0262 159.253L99.1963 164.513L89.9563 169.823ZM99.6663 164.243L90.4862 158.983L99.6162 153.733L108.776 159.003L99.6663 164.243ZM109.246 158.733L100.086 153.463L109.276 148.173L118.446 153.443L109.246 158.733ZM118.896 153.183L109.726 147.923L118.956 142.613L128.116 147.883L118.896 153.183ZM128.566 147.623L119.396 142.363L128.546 137.103L137.716 142.373L128.566 147.623ZM138.156 142.113L128.996 136.843L138.216 131.543L147.386 136.813L138.156 142.113ZM157.006 131.273L147.836 136.553L138.666 131.283L147.836 126.003L157.006 131.273ZM157.096 120.173L147.836 125.493L138.566 120.163L147.846 114.823L157.096 120.173ZM147.406 114.573L138.116 119.913L128.886 114.613L138.196 109.253L147.406 114.573ZM137.756 109.003L128.446 114.353L119.316 109.113L128.656 103.743L137.756 109.003ZM128.206 103.483L118.866 108.853L109.636 103.553L119.006 98.1733L128.206 103.483ZM118.556 97.9133L109.196 103.293L100.026 98.0334L109.416 92.6434L118.556 97.9133ZM108.976 92.3834L99.5863 97.7734L90.3063 92.4534L99.7063 87.0334L108.976 92.3834ZM90.1663 81.5234L99.2662 86.7734L89.8562 92.1934L80.7163 86.9434L90.1663 81.5234ZM80.2762 87.2034L89.4163 92.4534L80.2662 97.7234L71.1162 92.4634L80.2762 87.2034ZM70.6663 92.7134L79.8163 97.9734L70.5963 103.283L61.4363 98.0234L70.6663 92.7134ZM60.9862 98.2734L70.1562 103.543L61.0062 108.813L51.8263 103.543L60.9862 98.2734ZM51.3862 103.793L60.5563 109.073L51.3463 114.373L42.1462 109.093L51.3862 103.793ZM41.7063 109.353L50.8962 114.633L41.6863 119.933L32.4862 114.653L41.7063 109.353ZM32.0363 114.903L41.2362 120.193L32.0663 125.483L22.8363 120.183L32.0363 114.903Z" fill="white"/>
<path fill-rule="evenodd" clip-rule="evenodd" d="M90.5363 11.0334C92.2163 11.0334 94.1063 11.9034 96.1663 13.1534L154.646 48.6934C156.538 49.9064 158.089 51.5834 159.149 53.5648C160.21 55.5463 160.746 57.7663 160.706 60.0134V130.493C160.745 132.74 160.209 134.96 159.148 136.941C158.087 138.923 156.538 140.6 154.646 141.813L96.1763 177.353C94.5688 178.61 92.5869 179.293 90.5463 179.293C88.5057 179.293 86.5238 178.61 84.9163 177.353L26.4163 141.823C24.6337 140.87 23.11 139.497 21.9764 137.823C20.9764 136.223 20.3562 134.003 20.3562 130.543V60.0634C20.3165 57.8162 20.8526 55.5963 21.9134 53.6149C22.9741 51.6334 24.5242 49.9564 26.4163 48.7434L84.8763 13.2034C86.9863 11.9134 88.8463 11.0334 90.5363 11.0334ZM98.2463 180.783L156.716 145.243C159.199 143.676 161.238 141.497 162.638 138.917C164.039 136.336 164.754 133.439 164.716 130.503V60.0234C164.754 57.0875 164.039 54.1908 162.638 51.6102C161.238 49.0296 159.199 46.8513 156.716 45.2834L98.2463 9.74341C96.1363 8.46341 93.4263 7.03345 90.5363 7.03345C87.6463 7.03345 84.9263 8.4734 82.8363 9.7334L24.3662 45.2834C21.8837 46.8513 19.8448 49.0296 18.4442 51.6102C17.0437 54.1908 16.3281 57.0875 16.3662 60.0234V130.503C16.2139 133.767 16.9759 137.009 18.5663 139.863C20.0213 142.102 22.0068 143.947 24.3463 145.233L82.8063 180.773C85.0411 182.421 87.7447 183.31 90.5213 183.31C93.2979 183.31 96.0015 182.421 98.2362 180.773L98.2463 180.783Z" fill="url(#paint2_linear_1044_2429)"/>
<g opacity="0.35">
<path d="M89.9168 166.151C89.0454 166.151 88.1895 165.92 87.4368 165.481L27.1768 130.871C26.8602 130.694 26.5951 130.438 26.4075 130.128C26.2199 129.817 26.1163 129.464 26.1068 129.101C26.0981 128.732 26.1859 128.368 26.3612 128.043C26.5366 127.719 26.7936 127.446 27.1068 127.251V127.251L87.5668 91.551C88.2688 91.1287 89.0725 90.9055 89.8918 90.9055C90.711 90.9055 91.5148 91.1287 92.2168 91.551L152.107 126.971C152.413 127.154 152.666 127.413 152.842 127.723C153.017 128.034 153.108 128.384 153.107 128.741C153.115 129.11 153.028 129.474 152.852 129.799C152.677 130.123 152.42 130.396 152.107 130.591L92.3868 165.501C91.638 165.939 90.784 166.163 89.9168 166.151ZM27.2368 127.421C26.9492 127.593 26.7124 127.838 26.5508 128.131C26.3891 128.425 26.3084 128.756 26.3168 129.091C26.3246 129.423 26.4216 129.747 26.5975 130.028C26.7735 130.31 27.0219 130.539 27.3168 130.691L87.5768 165.301C88.2917 165.728 89.1089 165.954 89.9418 165.954C90.7746 165.954 91.5919 165.728 92.3068 165.301L152.017 130.401C152.306 130.227 152.544 129.981 152.707 129.686C152.87 129.391 152.953 129.058 152.947 128.721C152.945 128.398 152.858 128.08 152.695 127.801C152.532 127.522 152.298 127.291 152.017 127.131L92.1068 91.721C91.4364 91.3181 90.6689 91.1053 89.8868 91.1053C89.1046 91.1053 88.3372 91.3181 87.6668 91.721L27.2368 127.421Z" fill="url(#paint3_linear_1044_2429)"/>
</g>
<g opacity="0.35">
<path d="M89.9268 162.861C89.2252 162.863 88.5355 162.68 87.9268 162.331L32.2468 130.451C32.0061 130.317 31.8053 130.121 31.6648 129.884C31.5242 129.647 31.449 129.377 31.4469 129.101C31.4424 128.812 31.5138 128.527 31.6543 128.274C31.7947 128.021 31.999 127.81 32.2468 127.661L87.9668 95.1209C88.5486 94.7729 89.2139 94.5891 89.8918 94.5891C90.5698 94.5891 91.235 94.7729 91.8168 95.1209L147.157 127.121C147.43 127.275 147.657 127.499 147.815 127.769C147.973 128.04 148.057 128.348 148.057 128.661C148.057 128.974 147.973 129.282 147.815 129.553C147.657 129.823 147.43 130.047 147.157 130.201L91.8668 162.291C91.2797 162.644 90.6116 162.84 89.9268 162.861ZM89.9268 94.8609C89.3014 94.8599 88.687 95.0256 88.1468 95.3409L32.4368 127.971C32.234 128.09 32.0668 128.262 31.9525 128.467C31.8382 128.673 31.781 128.906 31.7868 129.141C31.7911 129.363 31.8533 129.581 31.9672 129.772C32.0812 129.963 32.2431 130.121 32.4368 130.231L88.1068 162.061C88.6583 162.38 89.2844 162.549 89.9218 162.549C90.5592 162.549 91.1853 162.38 91.7368 162.061L147.037 129.971C147.262 129.841 147.448 129.655 147.578 129.43C147.708 129.205 147.777 128.95 147.777 128.691C147.777 128.433 147.708 128.179 147.578 127.956C147.448 127.733 147.261 127.548 147.037 127.421L91.6968 95.4209C91.1637 95.0928 90.5526 94.9133 89.9268 94.9009V94.8609Z" fill="url(#paint4_linear_1044_2429)"/>
</g>
<g opacity="0.35">
<path d="M89.9268 159.861C89.4748 159.86 89.0306 159.743 88.6368 159.521L38.0568 130.521C37.825 130.394 37.6314 130.208 37.496 129.981C37.3606 129.754 37.2883 129.495 37.2868 129.231C37.2876 128.965 37.3594 128.705 37.4948 128.476C37.6302 128.247 37.8242 128.059 38.0568 127.931L88.7268 98.2409C89.0865 98.0155 89.5024 97.896 89.9268 97.896C90.3513 97.896 90.7671 98.0155 91.1268 98.2409L141.707 127.511C141.962 127.654 142.174 127.863 142.321 128.116C142.467 128.37 142.541 128.658 142.537 128.951C142.54 129.245 142.465 129.534 142.319 129.789C142.173 130.044 141.962 130.255 141.707 130.401L91.2068 159.541C90.8141 159.754 90.3737 159.864 89.9268 159.861ZM89.9268 98.3009C89.5738 98.2985 89.2273 98.3955 88.9268 98.5809L38.2668 128.271C38.0982 128.364 37.9574 128.499 37.8589 128.665C37.7605 128.83 37.708 129.019 37.7068 129.211C37.7087 129.402 37.7616 129.589 37.8601 129.752C37.9586 129.916 38.099 130.05 38.2668 130.141L88.8468 159.141C89.1726 159.333 89.5438 159.434 89.9218 159.434C90.2998 159.434 90.671 159.333 90.9968 159.141L141.497 129.971C141.674 129.869 141.823 129.724 141.93 129.549C142.036 129.374 142.097 129.175 142.107 128.971C142.109 128.752 142.053 128.536 141.944 128.347C141.835 128.157 141.677 127.999 141.487 127.891L90.9068 98.5909C90.6134 98.4051 90.2741 98.3047 89.9268 98.3009Z" fill="url(#paint5_linear_1044_2429)"/>
</g>
<g opacity="0.4">
<path d="M89.9468 156.741C89.5941 156.732 89.2497 156.632 88.9468 156.451L44.1068 130.511C43.8639 130.374 43.6617 130.175 43.5211 129.934C43.3805 129.694 43.3065 129.42 43.3069 129.141C43.3052 128.863 43.3786 128.59 43.5194 128.351C43.6603 128.111 43.8632 127.914 44.1068 127.781L88.7568 101.501C89.0971 101.278 89.4951 101.159 89.9019 101.159C90.3086 101.159 90.7065 101.278 91.0468 101.501L135.197 127.571C135.439 127.705 135.641 127.902 135.78 128.142C135.919 128.381 135.991 128.654 135.987 128.931C135.989 129.209 135.917 129.483 135.778 129.724C135.639 129.964 135.439 130.164 135.197 130.301L90.9668 156.491C90.6552 156.664 90.303 156.75 89.9468 156.741V156.741ZM89.9468 101.671C89.6438 101.688 89.3522 101.792 89.1068 101.971L44.4369 128.261C44.2742 128.348 44.1385 128.477 44.045 128.636C43.9515 128.795 43.9036 128.977 43.9068 129.161C43.9018 129.347 43.9487 129.531 44.0423 129.691C44.136 129.852 44.2726 129.984 44.4369 130.071L89.1768 155.971C89.4077 156.11 89.6722 156.184 89.9418 156.184C90.2115 156.184 90.476 156.11 90.7068 155.971L134.947 129.771C135.111 129.684 135.248 129.552 135.341 129.391C135.435 129.231 135.482 129.047 135.477 128.861C135.481 128.678 135.435 128.497 135.343 128.338C135.251 128.179 135.118 128.049 134.957 127.961L90.7968 101.911C90.5404 101.756 90.2466 101.673 89.9468 101.671V101.671Z" fill="url(#paint6_linear_1044_2429)"/>
</g>
<g opacity="0.5">
<path d="M89.9468 153.141C89.727 153.143 89.5114 153.08 89.3268 152.961L50.1068 130.221C49.9045 130.108 49.7365 129.942 49.6204 129.741C49.5042 129.541 49.4443 129.313 49.4469 129.081C49.4496 128.854 49.5121 128.632 49.6279 128.437C49.7438 128.242 49.909 128.082 50.1068 127.971L89.1068 104.681C89.3713 104.528 89.6714 104.448 89.9768 104.448C90.2823 104.448 90.5823 104.528 90.8468 104.681L129.107 128.071C129.301 128.19 129.462 128.358 129.572 128.558C129.683 128.758 129.739 128.983 129.737 129.211C129.739 129.438 129.681 129.661 129.571 129.859C129.461 130.057 129.301 130.223 129.107 130.341L90.5868 152.971C90.3913 153.081 90.1711 153.139 89.9468 153.141V153.141ZM89.9468 105.051C89.7596 105.05 89.576 105.102 89.4168 105.201L50.4168 128.491C50.3119 128.549 50.2248 128.635 50.1649 128.739C50.105 128.843 50.0745 128.961 50.0768 129.081C50.0752 129.199 50.1061 129.316 50.166 129.418C50.226 129.52 50.3127 129.604 50.4168 129.661L89.6968 152.411C89.7865 152.468 89.8906 152.498 89.9968 152.498C90.1031 152.498 90.2071 152.468 90.2968 152.411L128.767 129.791C128.866 129.73 128.947 129.645 129.004 129.543C129.06 129.442 129.088 129.327 129.087 129.211C129.089 129.093 129.061 128.977 129.005 128.874C128.949 128.77 128.867 128.683 128.767 128.621L90.4768 105.201C90.3026 105.103 90.1064 105.052 89.9068 105.051H89.9468Z" fill="url(#paint7_linear_1044_2429)"/>
</g>
<g opacity="0.5">
<path d="M89.8668 149.451C89.6328 149.454 89.4031 149.388 89.2068 149.261L55.6568 130.181C55.4806 130.078 55.3333 129.933 55.2284 129.758C55.1235 129.583 55.0645 129.385 55.0568 129.181C55.0616 128.977 55.1195 128.777 55.2246 128.602C55.3298 128.426 55.4787 128.281 55.6568 128.181L88.1068 108.851C88.67 108.512 89.3147 108.333 89.9718 108.333C90.6289 108.333 91.2736 108.512 91.8368 108.851L123.467 128.151C123.637 128.257 123.777 128.404 123.875 128.579C123.973 128.754 124.025 128.951 124.027 129.151C124.026 129.351 123.974 129.548 123.876 129.723C123.778 129.898 123.637 130.046 123.467 130.151L90.6168 149.251C90.3861 149.376 90.1291 149.444 89.8668 149.451V149.451ZM89.9468 108.971C89.404 108.972 88.8718 109.121 88.4068 109.401L55.9868 128.661C55.9024 128.71 55.8322 128.78 55.7831 128.864C55.734 128.948 55.7077 129.043 55.7068 129.141C55.7077 129.238 55.734 129.334 55.7831 129.418C55.8322 129.502 55.9024 129.572 55.9868 129.621L89.5468 148.711C89.6605 148.778 89.79 148.813 89.9218 148.813C90.0537 148.813 90.1831 148.778 90.2968 148.711L123.107 129.621C123.186 129.574 123.251 129.506 123.295 129.425C123.339 129.344 123.361 129.253 123.357 129.161C123.359 129.068 123.335 128.976 123.29 128.895C123.244 128.815 123.177 128.747 123.097 128.701L91.4768 109.401C91.0147 109.123 90.4862 108.974 89.9468 108.971V108.971Z" fill="url(#paint8_linear_1044_2429)"/>
</g>
<path opacity="0.2" d="M147.301 133.545C145.772 134.946 143.767 135.712 141.694 135.688L75.1062 97.5215V101.854L131.894 134.468V135.836H131.968C132.073 138.149 133.065 140.332 134.739 141.932C136.413 143.532 138.64 144.425 140.955 144.425C143.27 144.425 145.497 143.532 147.171 141.932C148.845 140.332 149.837 138.149 149.942 135.836V130.127C149.942 132.547 148.991 131.882 147.301 133.545Z" fill="black"/>
<path d="M149.979 71.8061C149.955 70.2072 149.503 68.6441 148.67 67.2795C147.836 65.9148 146.652 64.7986 145.241 64.0472C144.982 63.7978 144.807 63.6593 144.77 63.6223L75.1062 23.4055V88.1459L148.834 130.82C148.834 129.536 148.834 116.854 148.917 103.645H149.979V71.8061Z" fill="#092E4C"/>
<path d="M131.968 130.311C132.073 132.624 133.065 134.808 134.739 136.408C136.413 138.007 138.64 138.9 140.955 138.9C143.27 138.9 145.497 138.007 147.171 136.408C148.845 134.808 149.837 132.624 149.942 130.311V71.9534C149.942 74.3468 148.992 76.6421 147.299 78.3345C145.607 80.0269 143.311 80.9777 140.918 80.9777C138.525 80.9777 136.229 80.0269 134.537 78.3345C132.845 76.6421 131.894 74.3468 131.894 71.9534V130.311H131.968Z" fill="url(#paint9_linear_1044_2429)"/>
<path d="M91.2798 64.0938C91.3282 64.1226 91.3687 64.1631 91.3977 64.2114C91.4267 64.2598 91.4433 64.3145 91.446 64.3708L91.3721 90.8249C91.3721 90.9265 91.2982 90.9635 91.2059 90.9081L80.168 84.5901C80.122 84.5586 80.0833 84.5175 80.0546 84.4697C80.0259 84.4219 80.0079 84.3684 80.0017 84.313L80.1033 57.8035C80.1003 57.7831 80.1035 57.7622 80.1127 57.7437C80.1218 57.7251 80.1364 57.7098 80.1545 57.6998C80.1725 57.6898 80.1932 57.6855 80.2138 57.6875C80.2344 57.6895 80.2538 57.6978 80.2696 57.7112L91.2798 64.0938ZM91.0396 90.4462L91.1135 64.3708L80.4081 58.1915L80.3342 84.2668L91.0396 90.4462Z" fill="white"/>
<path d="M99.7129 46.1366C99.76 46.1691 99.7994 46.2116 99.8281 46.2611C99.8569 46.3107 99.8743 46.3659 99.8792 46.4229L99.833 62.7997C99.836 62.8201 99.8327 62.841 99.8236 62.8596C99.8145 62.8781 99.7999 62.8934 99.7818 62.9034C99.7638 62.9135 99.7431 62.9177 99.7225 62.9157C99.7019 62.9137 99.6825 62.9055 99.6667 62.8921L80.2695 51.6972C80.2233 51.6638 80.1846 51.621 80.1559 51.5717C80.1273 51.5223 80.1093 51.4675 80.1033 51.4108L80.1494 35.034C80.1438 35.0129 80.1452 34.9904 80.1533 34.9701C80.1614 34.9497 80.176 34.9326 80.1947 34.9211C80.2134 34.9097 80.2352 34.9047 80.2571 34.9067C80.2789 34.9087 80.2995 34.9177 80.3157 34.9324L99.7129 46.1366ZM99.5005 62.421L99.5466 46.4229L80.4727 35.4128V51.4108L99.5005 62.421Z" fill="white"/>
<path d="M120.588 113.447V111.785L131.998 118.321V119.982L120.588 113.447Z" fill="url(#paint10_linear_1044_2429)"/>
<path d="M115.825 106.358V104.697L131.998 114.001V115.774L115.825 106.358Z" fill="url(#paint11_linear_1044_2429)"/>
<path d="M119.259 116.548V114.887L131.998 122.308V123.97L119.259 116.548Z" fill="url(#paint12_linear_1044_2429)"/>
<path d="M131.998 109.902V111.563L120.588 105.028L120.699 103.366" fill="url(#paint13_linear_1044_2429)"/>
<path d="M120.588 93.3974V91.7359L131.998 98.3821V100.044L120.588 93.3974Z" fill="url(#paint14_linear_1044_2429)"/>
<path d="M115.825 86.4188V84.6465L131.998 94.0621V95.7236L115.825 86.4188Z" fill="url(#paint15_linear_1044_2429)"/>
<path d="M119.259 96.6102V94.8379L131.998 102.26V103.921L119.259 96.6102Z" fill="url(#paint16_linear_1044_2429)"/>
<path d="M131.998 89.8524V91.6248L120.588 84.9785L120.699 83.3169" fill="url(#paint17_linear_1044_2429)"/>
<path d="M120.588 71.6864V70.0248L131.998 76.5604V78.2219L120.588 71.6864Z" fill="url(#paint18_linear_1044_2429)"/>
<path d="M115.825 56.3993V54.7377L132.108 64.0425L131.998 65.7041L115.825 56.3993Z" fill="url(#paint19_linear_1044_2429)"/>
<path d="M115.825 64.5974V62.9358L131.998 72.2406V74.0129L115.825 64.5974Z" fill="url(#paint20_linear_1044_2429)"/>
<path d="M119.259 74.7878V73.1262L131.998 80.5479V82.2095L119.259 74.7878Z" fill="url(#paint21_linear_1044_2429)"/>
<path d="M120.588 63.2675L120.699 61.6059L131.998 68.1414V69.803L120.588 63.2675Z" fill="url(#paint22_linear_1044_2429)"/>
<path opacity="0.2" d="M56.2871 110.208L62.1705 106.855L121.868 139.324L115.784 142.677L56.2871 110.208Z" fill="black"/>
<path d="M113.818 103.702L113.818 100.778L105.213 96.0569L105.213 98.9722L113.818 103.702Z" fill="#0178D4"/>
<path d="M105.213 67.92L105.213 70.4685L113.818 74.9824L113.818 72.4527L105.213 67.92Z" fill="#31BBEE"/>
<path d="M105.213 90.2766L105.213 92.8251L113.818 97.4519L113.818 94.9222L105.213 90.2766Z" fill="#189AE2"/>
<path d="M105.213 73.0358L105.213 75.6596L113.818 80.0701L113.818 77.5404L105.213 73.0358Z" fill="#26ADE9"/>
<path d="M113.818 69.7253L113.818 66.8007L105.213 62.0799L105.213 64.9951L113.818 69.7253Z" fill="#46D9FA"/>
<path d="M105.213 49.7141L105.213 52.2438L113.818 56.8706L113.818 54.3409L105.213 49.7141Z" fill="#4CE1FD"/>
<path d="M115.304 73.7097L115.123 140.375L55.6062 107.906L55.7869 41.2405L115.304 73.7097Z" fill="#092E4C"/>
<path d="M115.304 73.71L121.388 70.3567L121.147 137.022L115.063 140.375L115.304 73.71Z" fill="#1A2C45"/>
<path d="M55.7869 41.2003L61.6703 37.8469L121.368 70.3161L115.284 73.6695L55.7869 41.2003Z" fill="#185A97"/>
<path d="M67.4378 58.2092C67.6044 58.3189 67.7427 58.4664 67.8415 58.6397C67.9403 58.8131 67.9967 59.0073 68.0061 59.2065C68.0061 59.5712 67.7488 59.7213 67.427 59.539C67.2596 59.4292 67.1201 59.282 67.0195 59.1088C66.919 58.9357 66.8602 58.7415 66.8479 58.5417C66.8479 58.2092 67.0732 58.0698 67.4378 58.2092Z" fill="#E6F6FC"/>
<path d="M71.3627 60.5045C71.532 60.6123 71.6729 60.7591 71.7736 60.9326C71.8744 61.1062 71.9321 61.3013 71.9418 61.5018C71.9418 61.8557 71.6737 62.0058 71.3627 61.8235C71.1947 61.7144 71.0547 61.5672 70.9541 61.394C70.8535 61.2207 70.7951 61.0262 70.7837 60.8262C70.7622 60.4723 71.0196 60.3543 71.3627 60.5045Z" fill="#DAF2FB"/>
<path d="M75.2555 62.7668C75.424 62.8745 75.5638 63.0216 75.6628 63.1953C75.7618 63.3691 75.817 63.5643 75.8238 63.7641C75.8238 64.1287 75.5772 64.2896 75.2555 64.0966C75.0862 63.9887 74.9453 63.8419 74.8445 63.6684C74.7438 63.4948 74.6861 63.2997 74.6764 63.0992C74.6764 62.7239 74.9337 62.5845 75.2555 62.7668Z" fill="#CEEEF9"/>
<path d="M79.1698 65.0296C79.3368 65.1363 79.4757 65.2817 79.5747 65.4534C79.6735 65.6252 79.7296 65.8183 79.7381 66.0163C79.7381 66.3916 79.4807 66.5417 79.159 66.3594C78.9928 66.2468 78.8549 66.0972 78.7562 65.9223C78.6577 65.7474 78.6009 65.5519 78.5906 65.3513C78.5906 64.9867 78.8696 64.8366 79.1698 65.0296Z" fill="#C1E9F8"/>
<path d="M83.0733 67.2827C83.2408 67.3924 83.3803 67.5397 83.4808 67.7128C83.5814 67.886 83.6402 68.0802 83.6524 68.28C83.6524 68.6553 83.395 68.8055 83.0733 68.6124C82.9047 68.504 82.7642 68.357 82.6635 68.1836C82.5628 68.0102 82.5048 67.8153 82.4942 67.6151C82.4942 67.2398 82.7516 67.1004 83.0733 67.2827Z" fill="#B5E5F6"/>
<path d="M86.9767 69.5337C87.1442 69.6434 87.2838 69.7906 87.3842 69.9638C87.4848 70.1369 87.5435 70.3311 87.5558 70.5309C87.5558 70.9062 87.2985 71.0564 86.9767 70.8633C86.8082 70.7549 86.6677 70.6079 86.567 70.4345C86.4663 70.2611 86.4083 70.0663 86.3976 69.8661C86.3762 69.5015 86.655 69.3514 86.9767 69.5337Z" fill="#A9E1F5"/>
<path d="M67.4055 67.239C67.5742 67.3475 67.7146 67.4945 67.8153 67.6679C67.916 67.8413 67.974 68.0361 67.9846 68.2363C67.998 68.3084 67.9886 68.3829 67.9578 68.4494C67.9271 68.5159 67.8764 68.5712 67.8129 68.6077C67.7493 68.6442 67.676 68.66 67.603 68.653C67.5301 68.6461 67.4611 68.6167 67.4055 68.5687C67.2336 68.4613 67.0908 68.3131 66.9898 68.1373C66.8888 67.9615 66.8327 67.7634 66.8265 67.5607C66.8265 67.2068 67.0731 67.0567 67.4055 67.239Z" fill="#C6EBF8"/>
<path d="M71.3627 69.491C71.5312 69.5987 71.671 69.7457 71.77 69.9195C71.8691 70.0932 71.9243 70.2885 71.9311 70.4884C71.9311 70.8422 71.663 71.0031 71.3627 70.8208C71.1914 70.7126 71.0491 70.5642 70.9482 70.3885C70.8473 70.2129 70.7908 70.0152 70.7837 69.8127C70.7408 69.4374 70.9981 69.3087 71.3627 69.491Z" fill="#BAE7F7"/>
<path d="M75.234 71.7534C75.4013 71.8624 75.5401 72.0097 75.639 72.1832C75.7378 72.3567 75.7939 72.5513 75.8024 72.7508C75.8024 73.1154 75.545 73.2655 75.2233 73.0832C75.0538 72.973 74.913 72.8242 74.8123 72.6489C74.7116 72.4736 74.654 72.277 74.6442 72.075C74.6442 71.7212 74.9123 71.5711 75.234 71.7534Z" fill="#AFE3F6"/>
<path d="M79.1376 74.0159C79.306 74.1221 79.4465 74.2671 79.5472 74.4388C79.648 74.6105 79.7061 74.8038 79.7167 75.0025C79.7167 75.3779 79.4593 75.528 79.1376 75.3457C78.9688 75.2349 78.8283 75.086 78.7277 74.9108C78.6271 74.7357 78.5692 74.5394 78.5585 74.3376C78.5585 73.9838 78.8695 73.8229 79.1376 74.0159Z" fill="#A2DFF4"/>
<path d="M83.0518 76.2683C83.2205 76.3767 83.3609 76.5237 83.4616 76.6971C83.5623 76.8705 83.6203 77.0654 83.6309 77.2656C83.6309 77.6409 83.3628 77.7804 83.0411 77.5981C82.8739 77.489 82.735 77.3415 82.6362 77.1681C82.5373 76.9946 82.4813 76.8002 82.4727 76.6007C82.4727 76.2361 82.7301 76.086 83.0518 76.2683Z" fill="#96DAF3"/>
<path d="M86.9553 78.5205C87.1227 78.6302 87.2623 78.7774 87.3628 78.9506C87.4634 79.1237 87.5222 79.3179 87.5344 79.5178C87.5344 79.8931 87.2664 80.0432 86.9447 79.8501C86.7774 79.7412 86.6385 79.5938 86.5397 79.4203C86.4408 79.2469 86.3848 79.0524 86.3762 78.8529C86.3762 78.4883 86.6336 78.3382 86.9553 78.5205Z" fill="#8AD6F1"/>
<path d="M67.4271 62.7458C67.5925 62.8567 67.73 63.0046 67.8286 63.1776C67.9273 63.3507 67.9843 63.5443 67.9954 63.7431C67.9954 64.1078 67.7381 64.2579 67.4163 64.0756C67.2477 63.9671 67.1072 63.8201 67.0065 63.6467C66.9059 63.4733 66.8479 63.2785 66.8373 63.0783C66.8373 62.7136 67.0732 62.5635 67.4271 62.7458Z" fill="#D5F0FA"/>
<path d="M71.2769 64.8687C71.4467 64.9758 71.5881 65.1225 71.689 65.2962C71.7898 65.4698 71.8472 65.6654 71.856 65.866C71.856 66.2199 71.5986 66.3807 71.2769 66.1984C71.1082 66.09 70.9678 65.943 70.8671 65.7696C70.7665 65.5962 70.7084 65.4013 70.6978 65.2011C70.6978 64.8365 70.9552 64.6435 71.2769 64.8687Z" fill="#CBEDF9"/>
<path d="M75.2448 67.2602C75.4108 67.3705 75.5487 67.5182 75.6474 67.6914C75.7462 67.8646 75.8029 68.0585 75.8132 68.2576C75.8132 68.6222 75.5558 68.783 75.234 68.5899C75.0654 68.4815 74.925 68.3345 74.8243 68.1611C74.7236 67.9877 74.6656 67.7929 74.655 67.5927C74.655 67.2281 74.9231 67.0779 75.2448 67.2602Z" fill="#BEE8F7"/>
<path d="M79.1483 69.523C79.3156 69.6305 79.4551 69.7758 79.5557 69.9471C79.6563 70.1186 79.7151 70.3112 79.7274 70.5096C79.7274 70.8849 79.47 71.0351 79.1483 70.8528C78.9789 70.7434 78.8388 70.5945 78.7398 70.4189C78.6407 70.2433 78.5859 70.0462 78.5799 69.8447C78.5799 69.4908 78.8694 69.33 79.1483 69.523Z" fill="#B2E4F6"/>
<path d="M83.0625 71.7754C83.2299 71.8851 83.3695 72.0324 83.4701 72.2055C83.5706 72.3787 83.6294 72.5728 83.6416 72.7727C83.6416 73.148 83.3842 73.2982 83.0625 73.1051C82.8938 72.9966 82.7534 72.8497 82.6527 72.6763C82.552 72.5029 82.494 72.308 82.4834 72.1078C82.4834 71.7432 82.7408 71.5931 83.0625 71.7754Z" fill="#A6E0F4"/>
<path d="M86.9661 74.0266C87.1329 74.1369 87.272 74.2844 87.3725 74.4574C87.473 74.6303 87.5321 74.8242 87.5452 75.0238C87.5452 75.3991 87.2771 75.5493 86.9553 75.3562C86.788 75.2473 86.6493 75.0999 86.5504 74.9264C86.4515 74.753 86.3955 74.5585 86.387 74.359C86.3762 73.9944 86.6443 73.8443 86.9661 74.0266Z" fill="#99DCF3"/>
<path d="M67.3949 71.7327C67.5635 71.8412 67.704 71.9882 67.8047 72.1615C67.9054 72.3349 67.9634 72.5298 67.974 72.73C67.9874 72.802 67.9779 72.8766 67.9472 72.9431C67.9164 73.0096 67.8658 73.0649 67.8022 73.1014C67.7386 73.1379 67.6653 73.1537 67.5923 73.1467C67.5194 73.1397 67.4504 73.1104 67.3949 73.0624C67.2229 72.955 67.0801 72.8069 66.9791 72.631C66.8781 72.4551 66.822 72.2571 66.8158 72.0544C66.8158 71.7005 67.0731 71.5503 67.3949 71.7327Z" fill="#B7E6F6"/>
<path d="M71.3627 73.9732C71.5281 74.0841 71.6656 74.2319 71.7642 74.4049C71.8629 74.5779 71.92 74.7716 71.9311 74.9705C71.9444 75.0426 71.935 75.1169 71.9042 75.1835C71.8735 75.25 71.8228 75.3053 71.7593 75.3419C71.6957 75.3784 71.6224 75.3942 71.5494 75.3873C71.4765 75.3803 71.4074 75.3508 71.3519 75.303C71.1837 75.1915 71.0437 75.0424 70.9432 74.8674C70.8427 74.6923 70.7843 74.4963 70.7729 74.2949C70.7192 73.941 70.9766 73.7802 71.3627 73.9732Z" fill="#AAE2F5"/>
<path d="M75.2126 76.2471C75.3813 76.3555 75.5217 76.5025 75.6224 76.6759C75.723 76.8493 75.7811 77.0441 75.7917 77.2444C75.7917 77.609 75.5343 77.7591 75.2126 77.5768C75.0432 77.4666 74.9022 77.3178 74.8016 77.1425C74.7009 76.9673 74.6433 76.7706 74.6335 76.5688C74.6335 76.2149 74.8909 76.0648 75.2126 76.2471Z" fill="#9FDDF4"/>
<path d="M79.1268 78.5101C79.2951 78.6154 79.435 78.7604 79.5341 78.9324C79.6331 79.1044 79.6885 79.2982 79.6951 79.4966C79.6951 79.8719 79.4485 80.0221 79.1268 79.8398C78.958 79.729 78.8175 79.58 78.7169 79.4049C78.6163 79.2298 78.5584 79.0334 78.5477 78.8317C78.5477 78.4671 78.805 78.3171 79.1268 78.5101Z" fill="#93D9F2"/>
<path d="M83.041 80.7302C83.2097 80.8387 83.3501 80.9857 83.4508 81.1591C83.5515 81.3324 83.6095 81.5273 83.6201 81.7275C83.6201 82.0921 83.352 82.2422 83.0303 82.0599C82.8631 81.951 82.7242 81.8036 82.6253 81.6301C82.5265 81.4567 82.4705 81.2621 82.4619 81.0626C82.4619 80.7302 82.7193 80.58 83.041 80.7302Z" fill="#86D5F1"/>
<path d="M86.9338 83.0134C87.1039 83.1213 87.2459 83.2679 87.3484 83.4413C87.451 83.6146 87.511 83.8098 87.5237 84.0108C87.5237 84.3861 87.2556 84.5255 86.9338 84.3432C86.7667 84.2342 86.6278 84.0868 86.5289 83.9134C86.43 83.7399 86.3741 83.5454 86.3655 83.3459C86.3762 82.9813 86.6121 82.874 86.9338 83.0134Z" fill="#7AD1EF"/>
<path d="M67.3841 76.2253C67.5509 76.3357 67.6901 76.4831 67.7905 76.6562C67.891 76.8292 67.9501 77.0231 67.9632 77.2226C67.9632 77.5873 67.6951 77.7374 67.3841 77.5551C67.2142 77.448 67.0728 77.3014 66.972 77.1276C66.8711 76.954 66.8138 76.7584 66.805 76.5578C66.805 76.1931 67.0731 76.043 67.3841 76.2253Z" fill="#A7E0F5"/>
<path d="M71.2984 78.4669C71.4638 78.5777 71.6013 78.7255 71.6999 78.8986C71.7985 79.0716 71.8556 79.2653 71.8667 79.4642C71.88 79.5362 71.8707 79.6106 71.8399 79.6772C71.8092 79.7436 71.7585 79.799 71.6949 79.8354C71.6314 79.8719 71.5581 79.8879 71.4851 79.8809C71.4121 79.8739 71.3431 79.8445 71.2876 79.7966C71.1194 79.6852 70.9794 79.536 70.8789 79.361C70.7783 79.186 70.72 78.99 70.7086 78.7886C70.7086 78.4347 70.9659 78.2738 71.2984 78.4669Z" fill="#9ADCF3"/>
<path d="M75.2019 80.7296C75.3705 80.8382 75.511 80.9852 75.6116 81.1585C75.7123 81.3319 75.7704 81.5267 75.781 81.727C75.781 82.0916 75.5236 82.2417 75.2019 82.0594C75.0333 81.951 74.8928 81.804 74.7921 81.6305C74.6914 81.4571 74.6334 81.2624 74.6228 81.0621C74.5799 80.7296 74.8802 80.558 75.2019 80.7296Z" fill="#8FD8F2"/>
<path d="M79.1161 82.9924C79.2836 83.1038 79.4224 83.2532 79.5212 83.4283C79.62 83.6035 79.6759 83.7996 79.6845 84.0004C79.6845 84.365 79.4271 84.5152 79.1054 84.3221C78.9383 84.2155 78.7996 84.0701 78.7006 83.8984C78.6016 83.7266 78.5455 83.5336 78.537 83.3356C78.537 82.9603 78.7944 82.8101 79.1161 82.9924Z" fill="#82D4F0"/>
<path d="M83.0196 85.2548C83.191 85.363 83.3333 85.5115 83.4342 85.6871C83.5351 85.8628 83.5915 86.0604 83.5987 86.2629C83.5987 86.6168 83.3413 86.767 83.0196 86.5847C82.8511 86.4769 82.7113 86.3299 82.6123 86.1562C82.5133 85.9825 82.4581 85.7872 82.4514 85.5874C82.4514 85.2228 82.6979 85.0725 83.0196 85.2548Z" fill="#77D0EF"/>
<path d="M86.9231 87.5071C87.0925 87.6172 87.2334 87.7659 87.3341 87.9413C87.4348 88.1165 87.4924 88.3132 87.5022 88.5151C87.5022 88.869 87.2448 89.0191 86.9231 88.8368C86.7545 88.7283 86.614 88.5813 86.5133 88.408C86.4126 88.2346 86.3546 88.0397 86.344 87.8395C86.3762 87.4749 86.6014 87.3247 86.9231 87.5071Z" fill="#6BCBED"/>
<path d="M67.3734 80.7304C67.5403 80.8423 67.6786 80.9918 67.7773 81.1668C67.876 81.342 67.9323 81.5377 67.9418 81.7384C67.9418 82.0923 67.6844 82.2424 67.3734 82.0601C67.2028 81.9529 67.0603 81.8064 66.9577 81.633C66.8551 81.4595 66.7954 81.264 66.7836 81.0628C66.7943 80.7304 67.0732 80.5266 67.3734 80.7304Z" fill="#97DBF3"/>
<path d="M71.2769 82.9598C71.4449 83.0688 71.5849 83.216 71.6855 83.3893C71.7861 83.5625 71.8446 83.757 71.856 83.9571C71.8694 84.0292 71.8599 84.1035 71.8292 84.1701C71.7984 84.2366 71.7478 84.2919 71.6842 84.3284C71.6206 84.3648 71.5473 84.3808 71.4744 84.3738C71.4014 84.3669 71.3324 84.3374 71.2769 84.2895C71.1086 84.1781 70.9686 84.029 70.8681 83.8539C70.7676 83.679 70.7093 83.4829 70.6978 83.2815C70.6978 82.9276 70.9552 82.7667 71.2769 82.9598Z" fill="#8BD7F1"/>
<path d="M75.1911 85.223C75.3596 85.3307 75.4994 85.4778 75.5985 85.6515C75.6975 85.8253 75.7527 86.0204 75.7595 86.2203C75.7595 86.5849 75.5129 86.7351 75.1911 86.5528C75.0213 86.4456 74.8799 86.2989 74.779 86.1253C74.6782 85.9516 74.6209 85.7561 74.6121 85.5554C74.5799 85.1908 74.8694 85.0193 75.1911 85.223Z" fill="#7FD3F0"/>
<path d="M79.1053 87.4854C79.2732 87.5938 79.4126 87.741 79.5115 87.9146C79.6104 88.0882 79.6661 88.283 79.6737 88.4827C79.6737 88.8473 79.4163 88.9975 79.0946 88.8152C78.9286 88.7049 78.7907 88.5572 78.692 88.3841C78.5933 88.2109 78.5365 88.017 78.5262 87.8178C78.5262 87.4532 78.7836 87.2924 79.1053 87.4854Z" fill="#73CEEE"/>
<path d="M83.0088 89.7375C83.1783 89.8477 83.3192 89.9965 83.4198 90.1717C83.5205 90.347 83.5782 90.5436 83.5879 90.7456C83.5879 91.1102 83.3306 91.2496 83.0088 91.0673C82.8417 90.9598 82.702 90.8145 82.6014 90.6432C82.5008 90.4717 82.4421 90.279 82.4297 90.0806C82.4297 89.7053 82.6871 89.5552 83.0088 89.7375Z" fill="#67CAED"/>
<path d="M86.9123 91.99C87.0812 92.1007 87.2216 92.2497 87.3222 92.4248C87.4228 92.5999 87.4808 92.7963 87.4914 92.998C87.4914 93.3626 87.2341 93.5126 86.9123 93.3196C86.7452 93.2123 86.6056 93.067 86.5049 92.8955C86.4044 92.7241 86.3456 92.5314 86.3333 92.3331C86.3761 91.9578 86.5906 91.8076 86.9123 91.99Z" fill="#5AC6EC"/>
<path d="M90.891 71.7971C91.0603 71.9049 91.2012 72.0518 91.3019 72.2253C91.4027 72.3988 91.4603 72.594 91.4701 72.7944C91.4701 73.159 91.202 73.3092 90.8803 73.1268C90.716 73.0147 90.5793 72.8667 90.4809 72.6938C90.3825 72.5211 90.3245 72.328 90.3119 72.1295C90.3119 71.7542 90.5693 71.6148 90.891 71.7971Z" fill="#9CDDF3"/>
<path d="M94.8052 74.0593C94.9745 74.1671 95.1154 74.3139 95.2162 74.4874C95.3169 74.6609 95.3747 74.8562 95.3843 75.0566C95.3843 75.4213 95.1162 75.5714 94.7945 75.3891C94.6265 75.2783 94.4873 75.1291 94.3884 74.9538C94.2895 74.7785 94.234 74.5821 94.2261 74.381C94.2261 74.0164 94.4835 73.877 94.8052 74.0593Z" fill="#91D9F2"/>
<path d="M98.7194 76.3217C98.8865 76.4284 99.0254 76.5737 99.1242 76.7454C99.2232 76.9172 99.2793 77.1102 99.2878 77.3083C99.2878 77.6836 99.0304 77.8338 98.7194 77.6515C98.5506 77.5407 98.4101 77.3916 98.3095 77.2165C98.209 77.0414 98.1509 76.845 98.1403 76.6434C98.1725 76.2681 98.3977 76.1287 98.7194 76.3217Z" fill="#85D4F1"/>
<path d="M102.623 78.5846C102.788 78.6931 102.926 78.839 103.024 79.0104C103.123 79.1817 103.18 79.3737 103.191 79.5711C103.191 79.9465 102.934 80.0967 102.623 79.9144C102.453 79.8035 102.312 79.6548 102.209 79.4797C102.107 79.3048 102.047 79.1085 102.033 78.9062C102.044 78.5845 102.301 78.3809 102.623 78.5846Z" fill="#79D0EF"/>
<path d="M106.527 80.8259C106.696 80.9337 106.837 81.0805 106.937 81.254C107.038 81.4275 107.096 81.6228 107.106 81.8232C107.119 81.8953 107.11 81.9696 107.079 82.0362C107.048 82.1027 106.997 82.1581 106.934 82.1945C106.87 82.2311 106.797 82.247 106.724 82.24C106.651 82.233 106.582 82.2035 106.527 82.1557C106.356 82.0468 106.214 81.8983 106.113 81.7228C106.012 81.5472 105.955 81.3499 105.947 81.1476C105.947 80.783 106.205 80.6436 106.527 80.8259Z" fill="#6CCCEE"/>
<path d="M90.8588 80.7828C91.0275 80.8913 91.168 81.0382 91.2687 81.2116C91.3693 81.385 91.4273 81.5799 91.4379 81.7801C91.4379 82.1447 91.1805 82.2949 90.8588 82.1125C90.6894 82.0024 90.5486 81.8536 90.4479 81.6783C90.3472 81.5031 90.2896 81.3064 90.2797 81.1045C90.2797 80.7292 90.5478 80.6005 90.8588 80.7828Z" fill="#7DD2F0"/>
<path d="M94.773 83.0463C94.9429 83.1534 95.0843 83.3001 95.1851 83.4738C95.2861 83.6475 95.3433 83.843 95.3521 84.0436C95.3521 84.4082 95.0947 84.5584 94.773 84.3761C94.605 84.2654 94.4657 84.1161 94.3669 83.9408C94.268 83.7656 94.2124 83.5692 94.2047 83.368C94.2047 83.0034 94.462 82.8747 94.773 83.0463Z" fill="#71CEEE"/>
<path d="M98.698 85.2986C98.8635 85.4094 99.001 85.5572 99.0996 85.7303C99.1982 85.9034 99.2554 86.097 99.2664 86.2959C99.2664 86.6605 99.009 86.8106 98.6873 86.6283C98.5174 86.5211 98.3761 86.3745 98.2752 86.2008C98.1744 86.0271 98.1171 85.8316 98.1082 85.631C98.1082 85.2664 98.3763 85.1162 98.698 85.2986Z" fill="#65C9ED"/>
<path d="M102.601 87.5609C102.767 87.6688 102.905 87.8145 103.004 87.986C103.103 88.1575 103.16 88.3499 103.17 88.5474C103.17 88.9227 102.912 89.0621 102.591 88.8906C102.421 88.7804 102.281 88.6317 102.18 88.4563C102.079 88.2811 102.022 88.0844 102.012 87.8825C102.012 87.5179 102.28 87.3679 102.601 87.5609Z" fill="#59C5EB"/>
<path d="M106.505 89.8122C106.672 89.9226 106.811 90.07 106.911 90.243C107.012 90.4161 107.071 90.61 107.084 90.8097C107.084 91.1743 106.816 91.3244 106.505 91.1421C106.334 91.0333 106.193 90.8847 106.092 90.7092C105.991 90.5336 105.934 90.3363 105.926 90.134C105.926 89.7802 106.183 89.6299 106.505 89.8122Z" fill="#4DC1EA"/>
<path d="M90.8695 76.2898C91.0394 76.397 91.1808 76.5437 91.2816 76.7173C91.3824 76.8911 91.4398 77.0865 91.4486 77.2871C91.4486 77.6517 91.1912 77.8019 90.8695 77.6196C90.7015 77.5089 90.5623 77.3597 90.4634 77.1844C90.3645 77.009 90.3089 76.8127 90.3011 76.6115C90.3011 76.2576 90.5585 76.1075 90.8695 76.2898Z" fill="#8DD7F2"/>
<path d="M94.7945 78.5855C94.9632 78.6939 95.1037 78.8409 95.2043 79.0143C95.305 79.1877 95.363 79.3826 95.3736 79.5828C95.3736 79.9474 95.1056 80.0976 94.7839 79.9153C94.6164 79.8038 94.4777 79.6546 94.3789 79.4793C94.2801 79.3042 94.224 79.1081 94.2155 78.9072C94.2155 78.5211 94.4728 78.371 94.7945 78.5855Z" fill="#81D3F0"/>
<path d="M98.7087 80.8156C98.8746 80.9236 99.0125 81.0693 99.1113 81.2407C99.2101 81.4122 99.2669 81.6046 99.2772 81.8022C99.2772 82.1775 99.0197 82.3169 98.698 82.1346C98.5292 82.0239 98.3887 81.8749 98.2881 81.6998C98.1875 81.5247 98.1296 81.3283 98.1189 81.1266C98.1725 80.7298 98.387 80.6226 98.7087 80.8156Z" fill="#75CFEF"/>
<path d="M102.612 83.0672C102.777 83.1758 102.915 83.3216 103.014 83.493C103.112 83.6644 103.17 83.8563 103.181 84.0537C103.181 84.4291 102.923 84.5792 102.602 84.3969C102.434 84.2849 102.294 84.1357 102.194 83.9608C102.093 83.7859 102.035 83.5901 102.023 83.3889C102.023 83.0242 102.291 82.8742 102.612 83.0672Z" fill="#69CBED"/>
<path d="M106.516 85.3193C106.684 85.4277 106.825 85.5748 106.926 85.7482C107.026 85.9216 107.084 86.1164 107.095 86.3167C107.108 86.3887 107.099 86.4631 107.068 86.5296C107.037 86.5961 106.987 86.6515 106.923 86.6879C106.859 86.7245 106.786 86.7402 106.713 86.7333C106.64 86.7263 106.571 86.6969 106.516 86.6491C106.346 86.539 106.205 86.39 106.105 86.2148C106.004 86.0395 105.947 85.8429 105.937 85.641C105.937 85.2872 106.194 85.137 106.516 85.3193Z" fill="#5CC6EC"/>
<path d="M90.8481 85.2766C91.0168 85.3851 91.1573 85.5322 91.2579 85.7055C91.3586 85.8789 91.4167 86.0737 91.4272 86.2739C91.4272 86.6385 91.1699 86.7887 90.8481 86.6064C90.6787 86.4962 90.5378 86.3475 90.4372 86.1722C90.3365 85.9969 90.2789 85.8003 90.269 85.5983C90.269 85.2444 90.5371 85.0943 90.8481 85.2766Z" fill="#6ECDEE"/>
<path d="M94.7623 87.5287C94.9292 87.6391 95.0683 87.7864 95.1688 87.9595C95.2693 88.1325 95.3283 88.3264 95.3414 88.526C95.3414 88.9014 95.0841 89.0515 94.7623 88.8585C94.5938 88.75 94.4533 88.603 94.3526 88.4296C94.2519 88.2562 94.1939 88.0614 94.1833 87.8612C94.1941 87.4966 94.4513 87.3571 94.7623 87.5287Z" fill="#62C8EC"/>
<path d="M98.6766 89.7915C98.8451 89.8999 98.9856 90.0469 99.0863 90.2203C99.187 90.3937 99.245 90.5885 99.2557 90.7888C99.2691 90.8609 99.2597 90.9352 99.229 91.0018C99.1982 91.0683 99.1475 91.1236 99.0839 91.1602C99.0203 91.1966 98.947 91.2125 98.874 91.2055C98.8011 91.1986 98.7321 91.1691 98.6766 91.1212C98.5067 91.014 98.3654 90.8674 98.2644 90.6937C98.1636 90.5201 98.1064 90.3246 98.0975 90.1239C98.0975 89.7593 98.3548 89.6092 98.6766 89.7915Z" fill="#56C4EB"/>
<path d="M102.58 92.0429C102.749 92.1515 102.889 92.2985 102.99 92.4718C103.091 92.6452 103.149 92.8401 103.159 93.0403C103.159 93.4156 102.891 93.555 102.58 93.3727C102.408 93.2677 102.265 93.1216 102.164 92.9474C102.063 92.7733 102.007 92.5767 102.001 92.3754C102.001 92.0108 102.258 91.8606 102.58 92.0429Z" fill="#4BBFE9"/>
<path d="M106.494 94.3064C106.66 94.4173 106.797 94.5651 106.896 94.7381C106.995 94.9112 107.052 95.1049 107.063 95.3037C107.063 95.6683 106.805 95.8185 106.494 95.6362C106.324 95.5259 106.182 95.3773 106.08 95.2023C105.977 95.0271 105.917 94.8306 105.904 94.6281C105.915 94.2635 106.173 94.1241 106.494 94.3064Z" fill="#45B9E8"/>
<path d="M90.8374 89.7702C91.006 89.8786 91.1466 90.0257 91.2472 90.1991C91.3479 90.3725 91.4059 90.5673 91.4165 90.7676C91.4165 91.1322 91.1484 91.2823 90.8267 91.1C90.6613 90.9891 90.5238 90.8413 90.4252 90.6682C90.3265 90.4952 90.2695 90.3015 90.2583 90.1027C90.2583 89.7273 90.5157 89.5879 90.8374 89.7702Z" fill="#5EC7EC"/>
<path d="M94.7516 92.022C94.9193 92.134 95.0588 92.2832 95.1592 92.4581C95.2597 92.6329 95.3183 92.8286 95.3307 93.0299C95.3307 93.3945 95.0733 93.5448 94.7516 93.3517C94.5826 93.2463 94.4415 93.1014 94.3407 92.9296C94.2399 92.7578 94.1821 92.564 94.1725 92.365C94.1725 91.9897 94.4406 91.8396 94.7516 92.022Z" fill="#52C3EB"/>
<path d="M98.6658 94.2851C98.8354 94.3953 98.9762 94.5441 99.0769 94.7193C99.1776 94.8946 99.2352 95.0913 99.2449 95.2932C99.2449 95.6471 98.9768 95.7972 98.6658 95.6149C98.4961 95.5077 98.3546 95.3611 98.2538 95.1873C98.1529 95.0137 98.0956 94.8182 98.0867 94.6176C98.0867 94.253 98.3441 94.1028 98.6658 94.2851Z" fill="#49BEE9"/>
<path d="M102.569 96.5366C102.739 96.6468 102.88 96.7957 102.98 96.9709C103.081 97.1461 103.139 97.3428 103.148 97.5446C103.148 97.8985 102.88 98.0487 102.569 97.8664C102.398 97.7614 102.255 97.6152 102.154 97.4411C102.052 97.267 101.996 97.0703 101.99 96.869C101.99 96.5044 102.248 96.3543 102.569 96.5366Z" fill="#43B7E7"/>
<path d="M106.484 98.7998C106.649 98.9107 106.787 99.0585 106.885 99.2316C106.984 99.4046 107.041 99.5983 107.052 99.7972C107.052 100.162 106.795 100.312 106.473 100.13C106.306 100.019 106.167 99.8718 106.066 99.6988C105.966 99.5258 105.907 99.3319 105.894 99.1322C105.894 98.7569 106.162 98.6175 106.484 98.7998Z" fill="#3CB1E5"/>
<path d="M90.8267 94.2522C90.9953 94.3607 91.1357 94.5077 91.2364 94.681C91.3371 94.8544 91.3951 95.0493 91.4057 95.2495C91.4057 95.6141 91.1376 95.7642 90.8159 95.5819C90.6505 95.4711 90.5131 95.3233 90.4144 95.1502C90.3158 94.9772 90.2586 94.7835 90.2476 94.5846C90.2476 94.22 90.5049 94.0699 90.8267 94.2522Z" fill="#5DC7EC"/>
<path d="M94.7408 96.5153C94.9095 96.6237 95.05 96.7709 95.1507 96.9443C95.2513 97.1176 95.3094 97.3124 95.32 97.5126C95.32 97.8773 95.0518 98.0274 94.7301 97.8451C94.5635 97.7355 94.4251 97.5879 94.3264 97.4146C94.2276 97.2412 94.1712 97.0471 94.1617 96.8479C94.1617 96.4725 94.4191 96.333 94.7408 96.5153Z" fill="#47BBE8"/>
<path d="M98.6551 98.7673C98.8233 98.878 98.9625 99.0273 99.0614 99.2026C99.1601 99.3779 99.2158 99.5743 99.2235 99.7754C99.2235 100.129 98.9661 100.279 98.6551 100.097C98.4853 99.9899 98.3439 99.8432 98.2431 99.6696C98.1422 99.4959 98.0848 99.3004 98.076 99.0998C98.076 98.7351 98.3334 98.585 98.6551 98.7673Z" fill="#40B5E6"/>
<path d="M102.559 101.03C102.728 101.137 102.868 101.284 102.967 101.457C103.066 101.631 103.121 101.827 103.127 102.027C103.127 102.392 102.87 102.531 102.559 102.359C102.389 102.252 102.247 102.106 102.147 101.932C102.046 101.758 101.988 101.563 101.98 101.362C101.98 100.987 102.237 100.837 102.559 101.03Z" fill="#3AAFE5"/>
<path d="M106.473 103.25C106.638 103.361 106.776 103.509 106.874 103.682C106.973 103.855 107.03 104.048 107.041 104.247C107.041 104.612 106.784 104.762 106.462 104.58C106.293 104.472 106.152 104.325 106.051 104.152C105.951 103.978 105.893 103.783 105.883 103.582C105.883 103.25 106.151 103.1 106.473 103.25Z" fill="#34A9E3"/>
<path d="M67.3627 85.2014C67.5282 85.3124 67.6656 85.4602 67.7643 85.6332C67.8629 85.8063 67.9199 85.9999 67.931 86.1987C67.931 86.5633 67.6737 86.7135 67.352 86.5312C67.1845 86.4215 67.045 86.2742 66.9444 86.101C66.8439 85.9279 66.7851 85.7337 66.7728 85.5338C66.7728 85.1692 67.0732 85.0191 67.3627 85.2014Z" fill="#88D6F1"/>
<path d="M71.2661 87.4649C71.436 87.572 71.5775 87.7186 71.6783 87.8923C71.7791 88.066 71.8364 88.2616 71.8453 88.4622C71.8586 88.5343 71.8493 88.6086 71.8185 88.6752C71.7877 88.7417 71.737 88.797 71.6735 88.8335C71.6099 88.8699 71.5366 88.8858 71.4636 88.8788C71.3906 88.8719 71.3216 88.8425 71.2661 88.7946C71.1004 88.6831 70.9622 88.5353 70.8618 88.3626C70.7615 88.1898 70.7018 87.9966 70.6871 87.7973C70.6871 87.4327 70.9444 87.2719 71.2661 87.4649Z" fill="#7CD2F0"/>
<path d="M75.1804 89.7155C75.3476 89.8245 75.4864 89.9719 75.5853 90.1454C75.6841 90.3188 75.7402 90.5134 75.7488 90.7129C75.7488 91.0775 75.4914 91.2276 75.1696 91.0453C75.001 90.9368 74.8606 90.7898 74.7599 90.6164C74.6592 90.4431 74.6012 90.2482 74.5906 90.048C74.5798 89.6834 74.8587 89.5332 75.1804 89.7155Z" fill="#70CDEE"/>
<path d="M79.0839 91.9795C79.2533 92.0873 79.3942 92.2342 79.4949 92.4077C79.5957 92.5813 79.6533 92.7764 79.663 92.9769C79.663 93.3415 79.4057 93.4916 79.0839 93.3093C78.9161 93.2009 78.7768 93.0537 78.6778 92.8801C78.5789 92.7065 78.5233 92.5117 78.5156 92.312C78.5156 91.9366 78.7622 91.7865 79.0839 91.9795Z" fill="#63C9ED"/>
<path d="M82.9982 94.2307C83.1677 94.3408 83.3086 94.4897 83.4093 94.6649C83.51 94.8402 83.5676 95.0369 83.5773 95.2387C83.5773 95.5926 83.3199 95.7428 82.9982 95.5605C82.8295 95.452 82.6892 95.305 82.5885 95.1316C82.4878 94.9582 82.4297 94.7633 82.4191 94.5631C82.4191 94.1985 82.6765 94.0484 82.9982 94.2307Z" fill="#57C5EB"/>
<path d="M86.9017 96.4831C87.0711 96.5933 87.212 96.7421 87.3127 96.9173C87.4133 97.0926 87.471 97.2892 87.4809 97.4912C87.4809 97.8558 87.2234 97.9952 86.9017 97.8129C86.743 97.6986 86.613 97.549 86.5219 97.376C86.4306 97.2029 86.3808 97.0111 86.3762 96.8156C86.3762 96.451 86.58 96.3008 86.9017 96.4831Z" fill="#4CC0EA"/>
<path d="M67.3305 94.1989C67.4991 94.3074 67.6396 94.4544 67.7403 94.6278C67.841 94.8012 67.899 94.996 67.9096 95.1963C67.923 95.2683 67.9135 95.3428 67.8828 95.4093C67.852 95.4758 67.8014 95.5312 67.7378 95.5676C67.6742 95.6041 67.6009 95.62 67.5279 95.613C67.455 95.606 67.386 95.5765 67.3305 95.5287C67.16 95.4222 67.0181 95.2757 66.9172 95.1019C66.8163 94.9281 66.7593 94.7322 66.7514 94.5314C66.7514 94.156 67.0088 94.0166 67.3305 94.1989Z" fill="#69CBED"/>
<path d="M71.2448 96.44C71.4133 96.5476 71.553 96.6947 71.652 96.8684C71.751 97.0421 71.8063 97.2374 71.8131 97.4373C71.824 97.5074 71.8135 97.5793 71.783 97.6434C71.7525 97.7075 71.7034 97.7611 71.6421 97.7969C71.5808 97.8327 71.5101 97.8493 71.4392 97.8445C71.3684 97.8397 71.3006 97.8136 71.2448 97.7697C71.0759 97.6606 70.9347 97.5136 70.8324 97.3406C70.73 97.1675 70.6693 96.973 70.655 96.7724C70.6657 96.4078 70.9123 96.2469 71.2448 96.44Z" fill="#5DC6EC"/>
<path d="M75.1483 98.7141C75.3169 98.8225 75.4574 98.9695 75.558 99.1429C75.6587 99.3162 75.7168 99.5111 75.7274 99.7113C75.7274 100.076 75.47 100.226 75.1483 100.044C74.9808 99.934 74.8412 99.7868 74.7407 99.6136C74.6402 99.4405 74.5815 99.2463 74.5692 99.0465C74.5799 98.6712 74.8266 98.5318 75.1483 98.7141Z" fill="#50C2EA"/>
<path d="M79.0624 100.976C79.2308 101.082 79.3706 101.227 79.4697 101.399C79.5688 101.571 79.6241 101.764 79.6308 101.963C79.6308 102.338 79.3841 102.478 79.0624 102.295C78.8941 102.189 78.7536 102.044 78.6528 101.873C78.552 101.701 78.494 101.508 78.4833 101.309C78.4833 100.933 78.7407 100.794 79.0624 100.976Z" fill="#49BDE9"/>
<path d="M82.9767 103.25C83.1442 103.36 83.2838 103.507 83.3842 103.68C83.4848 103.853 83.5436 104.048 83.5558 104.247C83.5558 104.623 83.2877 104.762 82.966 104.58C82.8 104.47 82.6621 104.322 82.5633 104.149C82.4647 103.976 82.4079 103.782 82.3976 103.583C82.3976 103.25 82.655 103.046 82.9767 103.25Z" fill="#42B6E7"/>
<path d="M86.8802 105.48C87.0476 105.59 87.1873 105.737 87.2879 105.911C87.3883 106.084 87.4471 106.278 87.4593 106.478C87.4593 106.853 87.1912 106.993 86.8695 106.81C86.7023 106.701 86.5635 106.554 86.4646 106.38C86.3657 106.207 86.3097 106.012 86.3011 105.813C86.3011 105.448 86.5585 105.298 86.8802 105.48Z" fill="#3BB0E5"/>
<path d="M67.3519 89.7059C67.5174 89.8167 67.6549 89.9646 67.7535 90.1376C67.8521 90.3107 67.9092 90.5043 67.9203 90.7032C67.9203 91.0785 67.6629 91.2179 67.3412 91.0356C67.1738 90.9259 67.0342 90.7786 66.9337 90.6055C66.8332 90.4323 66.7744 90.2381 66.7621 90.0383C66.7621 89.663 67.0731 89.5128 67.3519 89.7059Z" fill="#77D0EF"/>
<path d="M71.2555 91.9578C71.4253 92.0649 71.5667 92.2116 71.6676 92.3853C71.7684 92.559 71.8257 92.7545 71.8345 92.9551C71.8451 93.0263 71.8337 93.099 71.8019 93.1636C71.77 93.2282 71.7193 93.2815 71.6564 93.3164C71.5935 93.3514 71.5214 93.3663 71.4497 93.3593C71.3781 93.3522 71.3103 93.3234 71.2555 93.2768C71.087 93.1708 70.9465 93.0258 70.8457 92.8541C70.745 92.6824 70.6869 92.4891 70.6763 92.2902C70.6763 91.9256 70.923 91.7648 71.2555 91.9578Z" fill="#6CCCEE"/>
<path d="M75.1697 94.2203C75.337 94.3293 75.4758 94.4767 75.5747 94.6501C75.6735 94.8236 75.7295 95.0181 75.7381 95.2176C75.7381 95.5929 75.4807 95.7323 75.159 95.55C74.9921 95.4397 74.853 95.2922 74.7526 95.1192C74.6521 94.9462 74.593 94.7524 74.5799 94.5527C74.5799 94.1774 74.848 94.0272 75.1697 94.2203Z" fill="#61C8EC"/>
<path d="M79.0732 96.4729C79.2421 96.5836 79.3824 96.7327 79.483 96.9078C79.5836 97.0829 79.6416 97.2792 79.6523 97.4809C79.6523 97.8455 79.3949 97.9957 79.0732 97.8026C78.906 97.6952 78.7665 97.55 78.6658 97.3785C78.5652 97.2071 78.5064 97.0144 78.4941 96.816C78.4941 96.4407 78.7515 96.2906 79.0732 96.4729Z" fill="#55C4EB"/>
<path d="M82.9875 98.7349C83.1561 98.8433 83.2965 98.9903 83.3972 99.1637C83.4979 99.3372 83.5559 99.5319 83.5665 99.7322C83.5665 100.108 83.2984 100.247 82.9767 100.065C82.8112 99.9538 82.6738 99.8059 82.5752 99.6329C82.4765 99.4598 82.4194 99.2662 82.4083 99.0673C82.4083 98.7027 82.6658 98.5419 82.9875 98.7349Z" fill="#4ABEE9"/>
<path d="M86.891 100.987C87.0597 101.096 87.2002 101.243 87.3007 101.416C87.4014 101.59 87.4596 101.784 87.4701 101.985C87.4701 102.36 87.202 102.499 86.8803 102.317C86.7148 102.206 86.5774 102.058 86.4788 101.885C86.3801 101.712 86.323 101.519 86.3119 101.32C86.3119 100.955 86.5693 100.794 86.891 100.987Z" fill="#44B9E7"/>
<path d="M67.3197 98.6923C67.4882 98.7985 67.6287 98.9433 67.7295 99.115C67.8302 99.2867 67.8883 99.4801 67.8989 99.6789C67.8989 100.054 67.6307 100.194 67.3197 100.011C67.1499 99.9042 67.0085 99.7575 66.9076 99.5839C66.8068 99.4102 66.7495 99.2147 66.7407 99.014C66.7407 98.6387 66.998 98.4993 67.3197 98.6923Z" fill="#59C5EB"/>
<path d="M71.234 100.934C71.4013 101.043 71.5401 101.19 71.6389 101.363C71.7378 101.537 71.7938 101.731 71.8024 101.931C71.8157 102.003 71.8064 102.077 71.7756 102.144C71.7448 102.21 71.6942 102.266 71.6306 102.302C71.5671 102.339 71.4937 102.355 71.4208 102.348C71.3478 102.341 71.2788 102.311 71.2233 102.263C71.0575 102.152 70.9193 102.004 70.819 101.831C70.7187 101.659 70.6589 101.465 70.6442 101.266C70.6442 100.901 70.9016 100.741 71.234 100.934Z" fill="#4DC1EA"/>
<path d="M75.1375 103.25C75.306 103.356 75.4465 103.501 75.5472 103.673C75.648 103.845 75.7061 104.038 75.7166 104.237C75.7166 104.612 75.4593 104.752 75.1375 104.569C74.9701 104.459 74.8306 104.312 74.73 104.139C74.6295 103.966 74.5707 103.772 74.5584 103.572C74.5799 103.154 74.8158 103.014 75.1375 103.25Z" fill="#46BBE8"/>
<path d="M79.0517 105.459C79.2196 105.567 79.359 105.715 79.4579 105.888C79.5568 106.062 79.6125 106.257 79.6201 106.456C79.6201 106.821 79.3627 106.971 79.041 106.778C78.8752 106.67 78.7372 106.524 78.6384 106.353C78.5397 106.182 78.483 105.989 78.4727 105.792C78.4727 105.395 78.73 105.277 79.0517 105.459Z" fill="#40B5E6"/>
<path d="M82.9553 107.722C83.1249 107.826 83.2665 107.971 83.3674 108.143C83.4683 108.315 83.5256 108.509 83.5344 108.708C83.5344 109.084 83.277 109.223 82.9553 109.041C82.7875 108.932 82.6482 108.785 82.5493 108.612C82.4503 108.438 82.3946 108.243 82.387 108.043C82.387 107.679 82.6336 107.539 82.9553 107.722Z" fill="#3AAFE4"/>
<path d="M86.8588 109.974C87.0299 110.079 87.1723 110.226 87.2734 110.4C87.3744 110.574 87.4309 110.77 87.4379 110.971C87.4379 111.336 87.1805 111.475 86.8588 111.293C86.6903 111.185 86.5505 111.038 86.4515 110.864C86.3525 110.69 86.2972 110.495 86.2904 110.295C86.2904 109.931 86.5371 109.781 86.8588 109.974Z" fill="#34A9E3"/>
<path d="M67.309 103.175C67.4763 103.284 67.6152 103.431 67.714 103.605C67.8129 103.778 67.8689 103.973 67.8774 104.172C67.8774 104.548 67.62 104.687 67.309 104.505C67.1373 104.4 66.9944 104.254 66.8933 104.079C66.7922 103.905 66.736 103.709 66.73 103.507C66.73 103.132 66.9873 102.993 67.309 103.175Z" fill="#4BBFE9"/>
<path d="M71.2233 105.395C71.3893 105.505 71.5273 105.653 71.626 105.826C71.7247 106 71.7814 106.193 71.7917 106.393C71.7917 106.757 71.5235 106.897 71.2126 106.714C71.0459 106.606 70.9068 106.461 70.8063 106.289C70.7058 106.118 70.6466 105.926 70.6335 105.728C70.6335 105.395 70.8908 105.245 71.2233 105.395Z" fill="#44B9E8"/>
<path d="M75.1269 107.689C75.2943 107.799 75.4338 107.946 75.5344 108.119C75.6349 108.292 75.6936 108.487 75.7059 108.686C75.7059 109.062 75.4486 109.212 75.1269 109.019C74.9582 108.91 74.8177 108.763 74.7171 108.59C74.6164 108.417 74.5583 108.222 74.5477 108.022C74.5799 107.646 74.8051 107.539 75.1269 107.689Z" fill="#3EB3E6"/>
<path d="M79.0411 109.952C79.2089 110.061 79.3483 110.208 79.4472 110.381C79.5462 110.555 79.6018 110.75 79.6094 110.949C79.6094 111.314 79.3521 111.464 79.0303 111.282C78.8632 111.173 78.7243 111.026 78.6254 110.852C78.5265 110.679 78.4706 110.484 78.462 110.285C78.462 109.909 78.7193 109.77 79.0411 109.952Z" fill="#38ADE4"/>
<path d="M82.9445 112.205C83.112 112.315 83.2515 112.462 83.352 112.635C83.4526 112.808 83.5114 113.002 83.5237 113.202C83.5237 113.578 83.2662 113.728 82.9445 113.535C82.7753 113.427 82.6344 113.28 82.5336 113.106C82.4329 112.933 82.3752 112.738 82.3654 112.537C82.3761 112.173 82.6228 112.022 82.9445 112.205Z" fill="#31A6E2"/>
<path d="M86.8481 114.467C87.0165 114.574 87.157 114.719 87.2577 114.89C87.3585 115.062 87.4167 115.255 87.4272 115.454C87.4272 115.829 87.1698 115.979 86.8481 115.797C86.6793 115.686 86.5388 115.537 86.4382 115.362C86.3376 115.187 86.2797 114.991 86.269 114.789C86.269 114.424 86.5264 114.274 86.8481 114.467Z" fill="#2BA0E0"/>
<path d="M90.8052 98.7451C90.9753 98.853 91.1174 98.9996 91.2199 99.173C91.3224 99.3463 91.3823 99.5415 91.395 99.7424C91.395 100.107 91.1269 100.257 90.8052 100.075C90.6397 99.964 90.5022 99.8162 90.4037 99.6431C90.305 99.47 90.2479 99.2764 90.2368 99.0775C90.2368 98.7129 90.4942 98.5628 90.8052 98.7451Z" fill="#5CC2EB"/>
<path d="M94.7302 100.998C94.8979 101.11 95.0374 101.259 95.1379 101.434C95.2384 101.609 95.297 101.805 95.3092 102.006C95.3092 102.371 95.0413 102.521 94.7195 102.328C94.5518 102.222 94.4124 102.077 94.3134 101.905C94.2144 101.733 94.1587 101.54 94.1511 101.341C94.1511 100.966 94.4084 100.827 94.7302 100.998Z" fill="#3FB4E6"/>
<path d="M98.6444 103.25C98.8112 103.362 98.9496 103.512 99.0484 103.687C99.147 103.862 99.2033 104.058 99.2128 104.258C99.2128 104.612 98.9554 104.762 98.6444 104.58C98.4731 104.473 98.3302 104.327 98.2274 104.153C98.1248 103.98 98.0655 103.784 98.0546 103.583C98.0653 103.25 98.3227 103.079 98.6444 103.25Z" fill="#39AEE4"/>
<path d="M102.548 105.512C102.715 105.624 102.853 105.774 102.952 105.949C103.051 106.124 103.107 106.32 103.116 106.52C103.116 106.885 102.859 107.024 102.537 106.842C102.369 106.734 102.228 106.587 102.127 106.413C102.027 106.24 101.969 106.045 101.958 105.845C101.958 105.48 102.226 105.33 102.548 105.512Z" fill="#32A8E2"/>
<path d="M106.451 107.776C106.62 107.884 106.76 108.031 106.861 108.205C106.962 108.378 107.02 108.573 107.03 108.773C107.044 108.845 107.035 108.92 107.004 108.986C106.973 109.053 106.922 109.108 106.859 109.145C106.795 109.181 106.722 109.197 106.649 109.19C106.576 109.183 106.507 109.154 106.451 109.106C106.282 108.998 106.141 108.851 106.04 108.677C105.94 108.504 105.882 108.309 105.872 108.108C105.872 107.733 106.13 107.594 106.451 107.776Z" fill="#2BA1E0"/>
<path d="M90.7838 107.743C90.953 107.851 91.0939 107.998 91.1947 108.171C91.2954 108.345 91.3532 108.54 91.3629 108.74C91.3629 109.105 91.1055 109.244 90.7838 109.062C90.6154 108.956 90.475 108.811 90.3741 108.639C90.2733 108.468 90.2153 108.274 90.2047 108.075C90.2047 107.7 90.4728 107.539 90.7838 107.743Z" fill="#35AAE3"/>
<path d="M94.698 110.006C94.8673 110.114 95.0082 110.261 95.1089 110.434C95.2097 110.608 95.2673 110.803 95.2771 111.003C95.2771 111.368 95.0197 111.507 94.698 111.325C94.5288 111.217 94.3879 111.07 94.2872 110.897C94.1864 110.723 94.1287 110.528 94.1189 110.328C94.1296 109.963 94.387 109.824 94.698 110.006Z" fill="#2FA4E1"/>
<path d="M98.6122 112.268C98.7807 112.374 98.9212 112.519 99.022 112.691C99.1227 112.863 99.1808 113.056 99.1913 113.255C99.1913 113.63 98.9232 113.77 98.6122 113.587C98.4424 113.48 98.301 113.333 98.2001 113.16C98.0993 112.986 98.042 112.791 98.0331 112.59C98.0331 112.215 98.2905 112.075 98.6122 112.268Z" fill="#289EDF"/>
<path d="M102.516 114.521C102.684 114.627 102.825 114.772 102.925 114.944C103.026 115.115 103.084 115.309 103.095 115.507C103.095 115.883 102.827 116.022 102.516 115.84C102.345 115.733 102.203 115.587 102.102 115.413C102.001 115.239 101.945 115.043 101.937 114.843C101.937 114.478 102.194 114.328 102.516 114.521Z" fill="#2197DD"/>
<path d="M106.43 116.773C106.598 116.882 106.737 117.029 106.836 117.202C106.935 117.376 106.991 117.571 106.998 117.77C106.998 118.135 106.741 118.275 106.43 118.092C106.26 117.988 106.119 117.843 106.018 117.671C105.917 117.499 105.86 117.305 105.851 117.106C105.851 116.73 106.108 116.591 106.43 116.773Z" fill="#1B92DC"/>
<path d="M90.7944 103.249C90.9633 103.36 91.1037 103.509 91.2043 103.684C91.3049 103.859 91.3629 104.056 91.3735 104.257C91.3735 104.622 91.1161 104.772 90.7944 104.579C90.629 104.47 90.4907 104.324 90.3903 104.153C90.29 103.982 90.2301 103.79 90.2153 103.593C90.2261 103.249 90.4834 103.056 90.7944 103.249Z" fill="#3DB2E6"/>
<path d="M94.7087 105.502C94.8797 105.612 95.0221 105.761 95.1246 105.936C95.2271 106.111 95.2868 106.308 95.2986 106.51C95.2986 106.875 95.0305 107.015 94.7087 106.832C94.5423 106.725 94.404 106.579 94.3051 106.408C94.2062 106.236 94.1497 106.043 94.1404 105.846C94.1404 105.47 94.3978 105.32 94.7087 105.502Z" fill="#37ACE4"/>
<path d="M98.6336 107.765C98.7991 107.876 98.9366 108.023 99.0353 108.196C99.1338 108.369 99.191 108.563 99.202 108.762C99.202 109.137 98.9446 109.277 98.6229 109.094C98.4537 108.987 98.3128 108.84 98.212 108.666C98.1113 108.493 98.0536 108.298 98.0438 108.097C98.0438 107.732 98.3119 107.539 98.6336 107.765Z" fill="#30A6E2"/>
<path d="M102.537 110.017C102.703 110.128 102.84 110.276 102.939 110.449C103.037 110.622 103.094 110.815 103.106 111.014C103.106 111.39 102.848 111.529 102.526 111.347C102.358 111.238 102.218 111.091 102.118 110.917C102.017 110.744 101.959 110.55 101.947 110.35C101.947 109.985 102.215 109.835 102.537 110.017Z" fill="#2AA0E0"/>
<path d="M106.441 112.279C106.61 112.387 106.751 112.534 106.852 112.707C106.952 112.881 107.01 113.076 107.02 113.276C107.033 113.348 107.024 113.423 106.993 113.489C106.962 113.556 106.912 113.611 106.848 113.648C106.785 113.684 106.711 113.7 106.638 113.693C106.565 113.686 106.496 113.657 106.441 113.609C106.273 113.499 106.134 113.352 106.033 113.179C105.933 113.006 105.874 112.811 105.862 112.612C105.862 112.236 106.119 112.086 106.441 112.279Z" fill="#2399DE"/>
<path d="M90.773 112.226C90.9417 112.334 91.0822 112.481 91.1828 112.655C91.2835 112.828 91.3415 113.023 91.3521 113.223C91.3521 113.598 91.0947 113.738 90.773 113.545C90.6045 113.439 90.464 113.294 90.3633 113.122C90.2625 112.95 90.2045 112.757 90.1939 112.558C90.1939 112.183 90.462 112.043 90.773 112.226Z" fill="#2CA2E1"/>
<path d="M94.6872 114.489C94.8565 114.597 94.9974 114.743 95.0982 114.917C95.199 115.09 95.2566 115.286 95.2663 115.486C95.2663 115.851 95.009 116.001 94.6872 115.808C94.5201 115.7 94.3805 115.555 94.2798 115.384C94.1793 115.212 94.1205 115.02 94.1082 114.821C94.1082 114.446 94.3763 114.306 94.6872 114.489Z" fill="#269CDF"/>
<path d="M98.6015 116.752C98.77 116.858 98.9104 117.003 99.0113 117.175C99.112 117.346 99.1701 117.54 99.1806 117.738C99.1806 118.114 98.9125 118.253 98.6015 118.071C98.4323 117.963 98.2914 117.816 98.1907 117.643C98.0899 117.469 98.0322 117.274 98.0224 117.074C98.0224 116.709 98.2798 116.559 98.6015 116.752Z" fill="#1F96DD"/>
<path d="M102.462 119.003C102.631 119.111 102.772 119.258 102.873 119.432C102.974 119.605 103.031 119.8 103.041 120.001C103.041 120.365 102.773 120.505 102.462 120.322C102.292 120.216 102.15 120.069 102.049 119.896C101.948 119.722 101.891 119.526 101.883 119.325C101.926 118.961 102.183 118.821 102.462 119.003Z" fill="#1990DB"/>
<path d="M106.419 121.255C106.585 121.366 106.722 121.514 106.821 121.687C106.919 121.86 106.976 122.054 106.988 122.253C106.988 122.617 106.73 122.767 106.408 122.585C106.242 122.475 106.102 122.327 106.002 122.154C105.902 121.981 105.843 121.787 105.829 121.588C105.829 121.212 106.097 121.073 106.419 121.255Z" fill="#1289D9"/>
<path d="M90.7624 116.719C90.9317 116.827 91.0726 116.974 91.1733 117.148C91.2741 117.321 91.3317 117.516 91.3414 117.717C91.3414 118.081 91.0733 118.232 90.7516 118.049C90.5861 117.938 90.4488 117.791 90.3501 117.617C90.2514 117.444 90.1943 117.251 90.1832 117.052C90.1832 116.677 90.4407 116.537 90.7624 116.719Z" fill="#249ADE"/>
<path d="M94.6765 118.982C94.8457 119.09 94.9866 119.237 95.0874 119.411C95.1883 119.584 95.2459 119.779 95.2557 119.98C95.2557 120.344 94.9982 120.494 94.6765 120.312C94.5066 120.205 94.3653 120.058 94.2644 119.885C94.1636 119.711 94.1063 119.515 94.0974 119.315C94.0974 118.939 94.3655 118.8 94.6765 118.982Z" fill="#1E94DD"/>
<path d="M98.5908 121.245C98.7574 121.353 98.8965 121.498 98.9971 121.669C99.0976 121.841 99.1568 122.033 99.1698 122.231C99.1698 122.607 98.9017 122.757 98.5908 122.574C98.4213 122.464 98.2805 122.315 98.1798 122.14C98.0791 121.965 98.0214 121.768 98.0117 121.566C98.0117 121.202 98.269 121.052 98.5908 121.245Z" fill="#178EDB"/>
<path d="M102.462 123.496C102.629 123.603 102.768 123.748 102.867 123.92C102.966 124.092 103.022 124.285 103.031 124.483C103.031 124.858 102.773 125.008 102.462 124.826C102.291 124.718 102.149 124.57 102.048 124.394C101.947 124.218 101.89 124.021 101.883 123.818C101.915 123.453 102.173 123.314 102.462 123.496Z" fill="#1088D9"/>
<path d="M106.408 125.77C106.575 125.88 106.713 126.027 106.812 126.201C106.911 126.374 106.968 126.568 106.977 126.767C106.977 127.132 106.719 127.282 106.398 127.1C106.228 126.993 106.087 126.846 105.986 126.672C105.885 126.499 105.828 126.303 105.819 126.103C105.819 125.706 106.087 125.566 106.408 125.77Z" fill="#0A81D7"/>
<path d="M112.028 89.8265L111.968 100.994L96.4094 92.3625L96.4737 81.1946L112.028 89.8265Z" fill="#5EA0EF"/>
<path d="M112.028 89.8269L113.356 89.0044V100.172L111.968 100.995L112.028 89.8269Z" fill="#1A2C45"/>
<path d="M96.4694 81.1948L97.8617 80.3723L113.356 89.0042L112.028 89.8267L96.4694 81.1948Z" fill="#1D6EAA"/>
<path opacity="0.1" d="M96.4694 94.4748L97.8617 93.6523L113.356 102.284L112.028 103.107L96.4694 94.4748Z" fill="#1F1D20"/>
<path d="M107.766 93.939V95.0743L100.256 90.7219V89.5867L107.766 93.939Z" fill="#74CFEB"/>
<path d="M108.713 91.8571V92.9923L100.261 88.0702V86.9993L108.713 91.8571Z" fill="white"/>
<path d="M112.028 106.827L111.968 117.994L96.4094 109.363L96.4737 98.1946L112.028 106.827Z" fill="#2588DF"/>
<path d="M112.028 106.827L113.356 106.004V117.172L111.968 117.995L112.028 106.827Z" fill="#1A2C45"/>
<path d="M96.4694 98.1948L97.8617 97.3723L113.356 106.004L112.028 106.827L96.4694 98.1948Z" fill="#1D6EAA"/>
<path opacity="0.1" d="M96.4694 111.475L97.8617 110.652L113.356 119.284L112.028 120.107L96.4694 111.475Z" fill="#1F1D20"/>
<path d="M107.766 110.939V112.074L100.256 107.722V106.587L107.766 110.939Z" fill="#74CFEB"/>
<path d="M108.713 108.857V109.992L100.261 105.07V103.999L108.713 108.857Z" fill="white"/>
<g filter="url(#filter0_ddd_1044_2429)">
<path d="M80.965 99.0973C80.965 114.878 73.1529 125.209 54.9116 133.607C54.6875 133.708 54.4446 133.76 54.1988 133.76C53.953 133.76 53.7101 133.708 53.486 133.607C35.2056 125.19 27.4128 114.858 27.4128 99.0777V84.2541C27.438 83.874 27.6123 83.5194 27.8975 83.2671C28.1828 83.0147 28.556 82.8852 28.9363 82.9066C40.6544 82.9066 48.5839 80.6215 53.0173 75.9732C53.1716 75.8224 53.355 75.7048 53.5565 75.6276C53.7581 75.5503 53.9734 75.5151 54.189 75.5241C54.4047 75.5151 54.6198 75.5503 54.8213 75.6276C55.0228 75.7048 55.2064 75.8224 55.3608 75.9732C59.7942 80.6215 67.6648 82.9066 79.4415 82.9066C79.8218 82.8852 80.1953 83.0147 80.4805 83.2671C80.7658 83.5194 80.9398 83.874 80.965 84.2541V99.0973Z" fill="white"/>
</g>
<path fill-rule="evenodd" clip-rule="evenodd" d="M28.8262 79.8017V94.939C28.8262 111.662 36.0291 122.279 53.64 131.372C71.2422 122.279 78.4538 111.662 78.4538 94.9478V79.8017C67.1138 79.523 58.9529 76.9972 53.64 72.1198C48.3271 77.0059 40.1661 79.523 28.8262 79.8017ZM53.64 135.962C53.309 135.962 52.978 135.883 52.6732 135.735C32.9371 125.815 24.5149 113.613 24.5149 94.9478V77.6765C24.5149 76.4833 25.4817 75.5165 26.6749 75.5165C39.0949 75.5165 47.3864 72.9297 52.02 67.6169C52.8387 66.6762 54.45 66.6762 55.2687 67.6169C59.9022 72.9297 68.1938 75.5165 80.6138 75.5165C81.807 75.5165 82.7738 76.4833 82.7738 77.6765V94.9478C82.7738 113.613 74.3515 125.815 54.6155 135.735C54.3019 135.883 53.9709 135.962 53.64 135.962Z" fill="#FBFBFC"/>
<path fill-rule="evenodd" clip-rule="evenodd" d="M53.64 69.6243C48.0843 75.9932 38.2912 78.1076 27.1285 78.1076V95.0743C27.1285 112.563 34.8842 123.82 53.64 133.245C72.3958 123.82 80.1515 112.563 80.1515 95.0743V78.1076C68.9888 78.1076 59.1957 75.9932 53.64 69.6243Z" fill="#243A5E"/>
<path fill-rule="evenodd" clip-rule="evenodd" d="M53.6401 69.6243V133.245C72.3959 123.82 80.1516 112.563 80.1516 95.0743V78.1076C68.9888 78.1076 59.1958 75.9932 53.6401 69.6243Z" fill="#002D4C"/>
<path d="M63.2119 92.6299C63.2119 87.3779 58.9094 83.0667 53.6574 83.0667C48.9281 83.0667 44.9826 86.5418 44.2336 91.0621H48.1442C48.4055 90.1389 48.902 89.2853 49.6074 88.5799C50.6962 87.4912 52.1332 86.8989 53.6487 86.8989C55.1729 86.8989 56.6013 87.4912 57.69 88.5799C58.7787 89.6686 59.371 91.1057 59.371 92.6211C59.371 92.926 59.371 93.7882 59.3623 94.9292H44.0942V114.117H63.2032V96.1921C63.2119 94.4589 63.2119 93.0479 63.2119 92.6299Z" fill="white"/>
<path d="M53.6573 106.617C55.0247 106.617 56.1309 105.511 56.1309 104.144C56.1309 102.777 55.0247 101.67 53.6573 101.67C52.2899 101.67 51.1838 102.777 51.1838 104.144C51.1838 105.511 52.2899 106.617 53.6573 106.617Z" fill="#002D4C"/>
<defs>
<filter id="filter0_ddd_1044_2429" x="23.4128" y="73.5227" width="61.5521" height="66.2375" filterUnits="userSpaceOnUse" color-interpolation-filters="sRGB">
<feFlood flood-opacity="0" result="BackgroundImageFix"/>
<feColorMatrix in="SourceAlpha" type="matrix" values="0 0 0 0 0 0 0 0 0 0 0 0 0 0 0 0 0 0 127 0" result="hardAlpha"/>
<feOffset dy="2"/>
<feGaussianBlur stdDeviation="2"/>
<feComposite in2="hardAlpha" operator="out"/>
<feColorMatrix type="matrix" values="0 0 0 0 0 0 0 0 0 0 0 0 0 0 0 0 0 0 0.25 0"/>
<feBlend mode="normal" in2="BackgroundImageFix" result="effect1_dropShadow_1044_2429"/>
<feColorMatrix in="SourceAlpha" type="matrix" values="0 0 0 0 0 0 0 0 0 0 0 0 0 0 0 0 0 0 127 0" result="hardAlpha"/>
<feOffset dy="2"/>
<feGaussianBlur stdDeviation="2"/>
<feComposite in2="hardAlpha" operator="out"/>
<feColorMatrix type="matrix" values="0 0 0 0 0 0 0 0 0 0 0 0 0 0 0 0 0 0 0.25 0"/>
<feBlend mode="normal" in2="effect1_dropShadow_1044_2429" result="effect2_dropShadow_1044_2429"/>
<feColorMatrix in="SourceAlpha" type="matrix" values="0 0 0 0 0 0 0 0 0 0 0 0 0 0 0 0 0 0 127 0" result="hardAlpha"/>
<feOffset dy="2"/>
<feGaussianBlur stdDeviation="2"/>
<feComposite in2="hardAlpha" operator="out"/>
<feColorMatrix type="matrix" values="0 0 0 0 0 0 0 0 0 0 0 0 0 0 0 0 0 0 0.25 0"/>
<feBlend mode="normal" in2="effect2_dropShadow_1044_2429" result="effect3_dropShadow_1044_2429"/>
<feBlend mode="normal" in="SourceGraphic" in2="effect3_dropShadow_1044_2429" result="shape"/>
</filter>
<linearGradient id="paint0_linear_1044_2429" x1="88.7663" y1="187.853" x2="92.6763" y2="-83.8674" gradientUnits="userSpaceOnUse">
<stop offset="0.2" stop-color="white"/>
<stop offset="0.63" stop-color="#F4F3F5"/>
<stop offset="1" stop-color="#E8E6DF"/>
</linearGradient>
<linearGradient id="paint1_linear_1044_2429" x1="43.8349" y1="-49.9392" x2="545.797" y2="585.409" gradientUnits="userSpaceOnUse">
<stop offset="0.0435" stop-color="white"/>
<stop offset="0.4857" stop-color="#4DC1EA"/>
<stop offset="0.8452" stop-color="#0078D4"/>
</linearGradient>
<linearGradient id="paint2_linear_1044_2429" x1="98.7569" y1="-19.4817" x2="95.6702" y2="198.553" gradientUnits="userSpaceOnUse">
<stop offset="0.135417" stop-color="#2E77BC"/>
<stop offset="0.484375" stop-color="#1D4A79"/>
<stop offset="0.932292" stop-color="#092E4C"/>
</linearGradient>
<linearGradient id="paint3_linear_1044_2429" x1="73.2168" y1="157.311" x2="106.417" y2="99.801" gradientUnits="userSpaceOnUse">
<stop stop-color="#50E6FF"/>
<stop offset="1" stop-color="#0078D4"/>
</linearGradient>
<linearGradient id="paint4_linear_1044_2429" x1="74.7868" y1="154.881" x2="104.797" y2="102.891" gradientUnits="userSpaceOnUse">
<stop stop-color="#50E6FF"/>
<stop offset="1" stop-color="#0078D4"/>
</linearGradient>
<linearGradient id="paint5_linear_1044_2429" x1="76.5068" y1="152.321" x2="103.547" y2="105.481" gradientUnits="userSpaceOnUse">
<stop stop-color="#50E6FF"/>
<stop offset="1" stop-color="#0078D4"/>
</linearGradient>
<linearGradient id="paint6_linear_1044_2429" x1="77.7169" y1="149.731" x2="101.877" y2="107.871" gradientUnits="userSpaceOnUse">
<stop stop-color="#50E6FF"/>
<stop offset="1" stop-color="#0078D4"/>
</linearGradient>
<linearGradient id="paint7_linear_1044_2429" x1="79.2669" y1="146.961" x2="100.287" y2="110.551" gradientUnits="userSpaceOnUse">
<stop stop-color="#50E6FF"/>
<stop offset="1" stop-color="#0078D4"/>
</linearGradient>
<linearGradient id="paint8_linear_1044_2429" x1="80.9268" y1="144.321" x2="98.4668" y2="113.391" gradientUnits="userSpaceOnUse">
<stop stop-color="#50E6FF"/>
<stop offset="1" stop-color="#0078D4"/>
</linearGradient>
<linearGradient id="paint9_linear_1044_2429" x1="138.843" y1="30.4709" x2="209.945" y2="136.686" gradientUnits="userSpaceOnUse">
<stop stop-color="#007ED8"/>
<stop offset="0.7065" stop-color="#002D4C"/>
</linearGradient>
<linearGradient id="paint10_linear_1044_2429" x1="126.46" y1="142.096" x2="125.965" y2="49.578" gradientUnits="userSpaceOnUse">
<stop offset="0.0434843" stop-color="white"/>
<stop offset="0.4857" stop-color="#4DC1EA"/>
<stop offset="0.8452" stop-color="#0078D4"/>
</linearGradient>
<linearGradient id="paint11_linear_1044_2429" x1="124.108" y1="142.109" x2="123.613" y2="49.5912" gradientUnits="userSpaceOnUse">
<stop offset="0.0434843" stop-color="white"/>
<stop offset="0.4857" stop-color="#4DC1EA"/>
<stop offset="0.8452" stop-color="#0078D4"/>
</linearGradient>
<linearGradient id="paint12_linear_1044_2429" x1="125.729" y1="142.099" x2="125.234" y2="49.5816" gradientUnits="userSpaceOnUse">
<stop offset="0.0434843" stop-color="white"/>
<stop offset="0.4857" stop-color="#4DC1EA"/>
<stop offset="0.8452" stop-color="#0078D4"/>
</linearGradient>
<linearGradient id="paint13_linear_1044_2429" x1="126.529" y1="142.095" x2="126.034" y2="49.5773" gradientUnits="userSpaceOnUse">
<stop offset="0.0434843" stop-color="white"/>
<stop offset="0.4857" stop-color="#4DC1EA"/>
<stop offset="0.8452" stop-color="#0078D4"/>
</linearGradient>
<linearGradient id="paint14_linear_1044_2429" x1="126.567" y1="142.095" x2="126.072" y2="49.5775" gradientUnits="userSpaceOnUse">
<stop offset="0.0434843" stop-color="white"/>
<stop offset="0.4857" stop-color="#4DC1EA"/>
<stop offset="0.8452" stop-color="#0078D4"/>
</linearGradient>
<linearGradient id="paint15_linear_1044_2429" x1="124.215" y1="142.108" x2="123.72" y2="49.5901" gradientUnits="userSpaceOnUse">
<stop offset="0.0434843" stop-color="white"/>
<stop offset="0.4857" stop-color="#4DC1EA"/>
<stop offset="0.8452" stop-color="#0078D4"/>
</linearGradient>
<linearGradient id="paint16_linear_1044_2429" x1="125.836" y1="142.1" x2="125.341" y2="49.5819" gradientUnits="userSpaceOnUse">
<stop offset="0.0434843" stop-color="white"/>
<stop offset="0.4857" stop-color="#4DC1EA"/>
<stop offset="0.8452" stop-color="#0078D4"/>
</linearGradient>
<linearGradient id="paint17_linear_1044_2429" x1="126.636" y1="142.095" x2="126.141" y2="49.5769" gradientUnits="userSpaceOnUse">
<stop offset="0.0434843" stop-color="white"/>
<stop offset="0.4857" stop-color="#4DC1EA"/>
<stop offset="0.8452" stop-color="#0078D4"/>
</linearGradient>
<linearGradient id="paint18_linear_1044_2429" x1="126.683" y1="142.095" x2="126.189" y2="49.577" gradientUnits="userSpaceOnUse">
<stop offset="0.0434843" stop-color="white"/>
<stop offset="0.4857" stop-color="#4DC1EA"/>
<stop offset="0.8452" stop-color="#0078D4"/>
</linearGradient>
<linearGradient id="paint19_linear_1044_2429" x1="124.399" y1="142.106" x2="123.905" y2="49.5887" gradientUnits="userSpaceOnUse">
<stop offset="0.0434843" stop-color="white"/>
<stop offset="0.4857" stop-color="#4DC1EA"/>
<stop offset="0.8452" stop-color="#0078D4"/>
</linearGradient>
<linearGradient id="paint20_linear_1044_2429" x1="124.331" y1="142.108" x2="123.836" y2="49.59" gradientUnits="userSpaceOnUse">
<stop offset="0.0434843" stop-color="white"/>
<stop offset="0.4857" stop-color="#4DC1EA"/>
<stop offset="0.8452" stop-color="#0078D4"/>
</linearGradient>
<linearGradient id="paint21_linear_1044_2429" x1="125.952" y1="142.099" x2="125.457" y2="49.5808" gradientUnits="userSpaceOnUse">
<stop offset="0.0434843" stop-color="white"/>
<stop offset="0.4857" stop-color="#4DC1EA"/>
<stop offset="0.8452" stop-color="#0078D4"/>
</linearGradient>
<linearGradient id="paint22_linear_1044_2429" x1="126.752" y1="142.094" x2="126.258" y2="49.5764" gradientUnits="userSpaceOnUse">
<stop offset="0.0434843" stop-color="white"/>
<stop offset="0.4857" stop-color="#4DC1EA"/>
<stop offset="0.8452" stop-color="#0078D4"/>
</linearGradient>
</defs>
</svg>
