<svg width="100" height="100" viewBox="0 0 100 100" fill="none" xmlns="http://www.w3.org/2000/svg">
<g clip-path="url(#clip0)">
<path d="M49.6401 96.4501C40.382 96.4501 31.3317 93.7047 23.6339 88.5612C15.936 83.4176 9.93624 76.1069 6.3933 67.5535C2.85036 59.0001 1.92337 49.5882 3.72954 40.5079C5.53571 31.4277 9.99394 23.0869 16.5404 16.5404C23.0869 9.99394 31.4277 5.53571 40.5079 3.72954C49.5882 1.92337 59.0001 2.85036 67.5535 6.3933C76.1069 9.93624 83.4176 15.936 88.5612 23.6339C93.7047 31.3317 96.4501 40.382 96.4501 49.6401C96.4505 55.7874 95.24 61.8746 92.8878 67.554C90.5355 73.2335 87.0875 78.3939 82.7407 82.7407C78.3939 87.0875 73.2335 90.5355 67.554 92.8878C61.8746 95.24 55.7874 96.4505 49.6401 96.4501V96.4501Z" fill="url(#paint0_linear)"/>
<path fill-rule="evenodd" clip-rule="evenodd" d="M95.54 49.64C95.54 58.7182 92.848 67.5924 87.8045 75.1407C82.7609 82.6889 75.5923 88.572 67.2052 92.0461C58.818 95.5201 49.5891 96.4291 40.6854 94.658C31.7816 92.887 23.603 88.5154 17.1838 82.0962C10.7646 75.677 6.39302 67.4984 4.62196 58.5946C2.85089 49.6909 3.75987 40.462 7.23393 32.0748C10.708 23.6877 16.5911 16.5191 24.1393 11.4755C31.6875 6.43198 40.5618 3.73999 49.64 3.73999C55.6677 3.73997 61.6363 4.92719 67.2052 7.23387C72.774 9.54056 77.834 12.9215 82.0963 17.1837C86.3585 21.446 89.7394 26.5059 92.0461 32.0748C94.3528 37.6436 95.54 43.6123 95.54 49.64V49.64ZM49.64 3.62732e-07C59.4579 3.62732e-07 69.0552 2.91134 77.2185 8.36585C85.3818 13.8204 91.7442 21.5731 95.5014 30.6436C99.2585 39.7141 100.242 49.6951 98.3262 59.3243C96.4108 68.9535 91.6831 77.7985 84.7408 84.7408C77.7985 91.6831 68.9535 96.4108 59.3243 98.3262C49.6951 100.242 39.7141 99.2585 30.6436 95.5014C21.5731 91.7442 13.8204 85.3818 8.36584 77.2185C2.91133 69.0552 -1.61629e-06 59.4579 3.61524e-07 49.64C-0.000786426 43.1209 1.28265 36.6656 3.77702 30.6427C6.27138 24.6197 9.92781 19.1471 14.5375 14.5375C19.1471 9.9278 24.6197 6.27138 30.6427 3.77701C36.6656 1.28265 43.121 -0.000787738 49.64 3.62732e-07V3.62732e-07Z" fill="#F2F1F0"/>
<path fill-rule="evenodd" clip-rule="evenodd" d="M92.7296 49.6405C92.7296 58.1629 90.2024 66.494 85.4676 73.5801C80.7328 80.6662 74.0031 86.1891 66.1294 89.4505C58.2558 92.7119 49.5918 93.5652 41.2332 91.9026C32.8745 90.24 25.1966 86.136 19.1704 80.1098C13.1441 74.0835 9.0402 66.4056 7.37756 58.047C5.71493 49.6883 6.56825 41.0244 9.82963 33.1507C13.091 25.277 18.614 18.5473 25.7001 13.8125C32.7862 9.07773 41.1172 6.55055 49.6396 6.55055C55.2984 6.5502 60.9018 7.66452 66.1298 9.82988C71.3579 11.9952 76.1083 15.1692 80.1096 19.1705C84.1109 23.1719 87.2849 27.9222 89.4503 33.1503C91.6156 38.3784 92.7299 43.9818 92.7296 49.6405ZM49.6396 2.81055C58.9017 2.81055 67.9558 5.55708 75.657 10.7028C83.3581 15.8486 89.3604 23.1624 92.9049 31.7195C96.4493 40.2765 97.3767 49.6925 95.5698 58.7766C93.7628 67.8608 89.3027 76.2051 82.7534 82.7544C76.2041 89.3036 67.8598 93.7638 58.7757 95.5707C49.6916 97.3777 40.2756 96.4503 31.7185 92.9058C23.1615 89.3614 15.8476 83.3591 10.7019 75.6579C5.55613 67.9568 2.8096 58.9026 2.8096 49.6405C2.81079 37.2208 7.74504 25.3101 16.5271 16.5281C25.3092 7.74599 37.2199 2.81174 49.6396 2.81055V2.81055Z" fill="#0078D4"/>
<path fill-rule="evenodd" clip-rule="evenodd" d="M92.7295 49.6396C92.7295 58.162 90.2023 66.493 85.4675 73.5791C80.7327 80.6652 74.003 86.1882 66.1293 89.4496C58.2556 92.711 49.5917 93.5643 41.233 91.9016C32.8744 90.239 25.1965 86.1351 19.1702 80.1088C13.144 74.0826 9.04008 66.4047 7.37744 58.0461C5.7148 49.6874 6.56813 41.0234 9.82951 33.1498C13.0909 25.2761 18.6138 18.5464 25.7 13.8116C32.7861 9.07679 41.1171 6.54961 49.6395 6.54961C55.2982 6.54927 60.9016 7.66359 66.1297 9.82894C71.3578 11.9943 76.1081 15.1683 80.1095 19.1696C84.1108 23.171 87.2848 27.9213 89.4501 33.1494C91.6155 38.3774 92.7298 43.9809 92.7295 49.6396V49.6396ZM49.6395 2.80961C58.9016 2.80961 67.9557 5.55614 75.6568 10.7019C83.358 15.8476 89.3603 23.1615 92.9048 31.7185C96.4492 40.2756 97.3766 49.6916 95.5696 58.7757C93.7627 67.8598 89.3026 76.2041 82.7533 82.7534C76.204 89.3027 67.8597 93.7628 58.7756 95.5698C49.6914 97.3767 40.2755 96.4493 31.7184 92.9049C23.1614 89.3604 15.8475 83.3581 10.7018 75.657C5.55601 67.9558 2.80948 58.9017 2.80948 49.6396C2.81066 37.2199 7.7449 25.3092 16.527 16.5271C25.309 7.74501 37.2197 2.81076 49.6395 2.80957V2.80961Z" fill="#0078D4"/>
<path d="M64.7727 61.2576L62.3027 63.7276H62.1464C62.0827 63.787 61.9989 63.82 61.9118 63.82C61.8248 63.82 61.741 63.787 61.6774 63.7276L50.8906 53.0972C50.8322 53.0399 50.7536 53.0079 50.6717 53.0079C50.5899 53.0079 50.5113 53.0399 50.4529 53.0972L49.64 53.7851L48.9834 53.0972C48.9197 53.0379 48.8359 53.0049 48.7489 53.0049C48.6618 53.0049 48.578 53.0379 48.5144 53.0972L37.884 63.884C37.8203 63.9433 37.7365 63.9763 37.6495 63.9763C37.5625 63.9763 37.4787 63.9433 37.415 63.884V63.884L34.945 61.414C34.8978 61.3741 34.8407 61.3478 34.7797 61.3376C34.7188 61.3275 34.6562 61.334 34.5987 61.3564C34.5411 61.3788 34.4906 61.4163 34.4525 61.4649C34.4144 61.5136 34.3901 61.5716 34.3822 61.6328V70.5749C34.3822 70.6201 34.3911 70.6648 34.4084 70.7065C34.4257 70.7482 34.451 70.7861 34.483 70.8181C34.5149 70.85 34.5528 70.8754 34.5945 70.8926C34.6363 70.9099 34.681 70.9188 34.7262 70.9188H43.3868C43.4481 70.9109 43.5061 70.8866 43.5548 70.8485C43.6034 70.8104 43.6409 70.76 43.6633 70.7024C43.6857 70.6448 43.6921 70.5822 43.682 70.5213C43.6719 70.4604 43.6455 70.4033 43.6057 70.356L41.1357 67.886H40.9794C40.9221 67.8276 40.89 67.749 40.89 67.6672C40.89 67.5853 40.9221 67.5068 40.9794 67.4483L47.2325 61.1951V78.4226C47.2328 78.4665 47.2238 78.5099 47.2062 78.55C47.1885 78.5901 47.1627 78.6261 47.1302 78.6556C47.0978 78.685 47.0595 78.7074 47.0179 78.7211C46.9763 78.7348 46.9322 78.7397 46.8886 78.7353H43.3868C43.3255 78.7432 43.2675 78.7675 43.2188 78.8056C43.1702 78.8437 43.1327 78.8941 43.1103 78.9517C43.0879 79.0093 43.0814 79.0719 43.0916 79.1328C43.1017 79.1938 43.1281 79.2508 43.1679 79.2981L49.4211 85.5513C49.4848 85.6106 49.5686 85.6436 49.6556 85.6436C49.7426 85.6436 49.8264 85.6106 49.8901 85.5513L56.1433 79.2981C56.1987 79.2574 56.2392 79.1995 56.2584 79.1335C56.2776 79.0674 56.2745 78.9969 56.2496 78.9328C56.2246 78.8687 56.1793 78.8146 56.1205 78.7789C56.0617 78.7432 55.9928 78.7279 55.9244 78.7353H52.3601C52.3178 78.7403 52.275 78.7357 52.2347 78.7218C52.1945 78.7078 52.158 78.6849 52.1279 78.6548C52.0978 78.6247 52.0749 78.5882 52.061 78.548C52.047 78.5078 52.0424 78.4649 52.0474 78.4226V60.7261L58.457 67.1356C58.5143 67.1941 58.5464 67.2727 58.5464 67.3545C58.5464 67.4363 58.5143 67.5149 58.457 67.5734H58.3007L55.8307 70.0434C55.7753 70.0841 55.7348 70.1419 55.7156 70.208C55.6964 70.274 55.6995 70.3445 55.7244 70.4086C55.7494 70.4727 55.7947 70.5268 55.8535 70.5625C55.9123 70.5982 55.9812 70.6136 56.0495 70.6061H64.9916C65.0354 70.6064 65.0788 70.5974 65.1189 70.5797C65.1591 70.5621 65.195 70.5362 65.2245 70.5038C65.254 70.4714 65.2763 70.4331 65.2901 70.3915C65.3038 70.3499 65.3086 70.3058 65.3043 70.2622V61.4765C65.3034 61.4153 65.2846 61.3557 65.2502 61.3051C65.2158 61.2545 65.1673 61.2151 65.1107 61.1918C65.0541 61.1685 64.9919 61.1623 64.9318 61.174C64.8718 61.1857 64.8164 61.2148 64.7727 61.2576H64.7727Z" fill="url(#paint1_linear)"/>
<path d="M75.0904 30.9922C75.0586 30.4835 74.8338 30.0061 74.4619 29.6574C74.0901 29.3088 73.5992 29.1152 73.0894 29.1162H26.1905C25.6808 29.1152 25.1899 29.3088 24.818 29.6574C24.4461 30.0061 24.2214 30.4835 24.1895 30.9922V55.0982C24.1977 55.6235 24.4122 56.1244 24.7865 56.493C25.1609 56.8615 25.6652 57.068 26.1905 57.068H73.0894C73.6148 57.068 74.119 56.8615 74.4934 56.493C74.8678 56.1244 75.0822 55.6235 75.0904 55.0982L75.0904 30.9922Z" fill="#821010"/>
<path d="M40.7917 31.7734H27.0034V37.8703H40.7917V31.7734Z" fill="#E62323"/>
<path d="M56.6748 31.7734H42.8865V37.8703H56.6748V31.7734Z" fill="#FF7381"/>
<path d="M72.5892 31.7734H58.8009V37.8703H72.5892V31.7734Z" fill="#E62323"/>
<path d="M32.7251 39.9658H27.0034V46.0627H32.7251V39.9658Z" fill="#E62323"/>
<path d="M72.5579 39.9658H66.8362V46.0627H72.5579V39.9658Z" fill="#FF7381"/>
<path d="M48.6395 39.9658H34.8512V46.0627H48.6395V39.9658Z" fill="#FF7381"/>
<path d="M64.5226 39.9658H50.7343V46.0627H64.5226V39.9658Z" fill="#E62323"/>
<path d="M40.7917 48.126H27.0034V54.2228H40.7917V48.126Z" fill="#E62323"/>
<path d="M56.6748 48.126H42.8865V54.2228H56.6748V48.126Z" fill="#FF7381"/>
<path d="M72.5892 48.126H58.8009V54.2228H72.5892V48.126Z" fill="#E62323"/>
<path opacity="0.2" d="M33.5451 29.1162V29.5917C33.5593 30.5244 33.8839 31.4257 34.4675 32.1534C35.0511 32.8811 35.8606 33.3936 36.7679 33.6099L38.0172 33.8872L38.0762 34.0295L37.3888 35.1091C36.9 35.9034 36.6899 36.838 36.7917 37.7651C36.8934 38.6922 37.3013 39.559 37.9507 40.2284L38.5685 40.8467C39.3551 41.6102 40.4105 42.0336 41.5067 42.0253C42.2775 42.0309 43.0338 41.8164 43.6869 41.407L44.7675 40.7202L44.9087 40.7787L45.1871 42.0274C45.4029 42.935 45.9152 43.7448 46.6428 44.3287C47.3704 44.9125 48.2719 45.2372 49.2047 45.2513H50.0755C51.0083 45.2372 51.9097 44.9126 52.6373 44.3289C53.3649 43.7451 53.8772 42.9355 54.0932 42.028L54.3716 40.7782L54.5128 40.7202L55.5913 41.4055C56.2446 41.8163 57.0019 42.0316 57.7736 42.0259C58.8705 42.0343 59.9265 41.61 60.7128 40.8451L61.3295 40.2289C61.9785 39.559 62.386 38.6921 62.4878 37.765C62.5895 36.8378 62.3797 35.9032 61.8914 35.1085L61.2041 34.029L61.2621 33.8872L62.5114 33.6099C63.4189 33.3937 64.2285 32.8812 64.8123 32.1536C65.3961 31.4259 65.7208 30.5245 65.7352 29.5917V29.1162L33.5451 29.1162Z" fill="#620C0C"/>
<path d="M53.995 29.1565C53.995 30.0178 53.7396 30.8598 53.2611 31.576C52.7825 32.2921 52.1024 32.8503 51.3066 33.1799C50.5109 33.5095 49.6352 33.5958 48.7905 33.4278C47.9457 33.2597 47.1697 32.845 46.5607 32.2359C45.9516 31.6269 45.5368 30.8509 45.3688 30.0061C45.2008 29.1613 45.287 28.2857 45.6166 27.4899C45.9462 26.6942 46.5044 26.014 47.2206 25.5355C47.9368 25.057 48.7787 24.8016 49.6401 24.8016C50.7946 24.8029 51.9015 25.2622 52.7179 26.0786C53.5344 26.895 53.9936 28.0019 53.995 29.1565V29.1565ZM62.0434 26.8109L60.0184 26.3606C59.8088 26.2843 59.6377 26.1285 59.5424 25.9269C59.5357 25.9046 59.5277 25.8828 59.5184 25.8615L58.9597 24.5037C58.9501 24.4802 58.9392 24.4567 58.9274 24.434C58.8517 24.2258 58.8617 23.996 58.9553 23.7951L60.0693 22.0444C60.2972 21.6654 60.3945 21.2221 60.3462 20.7824C60.298 20.3428 60.1069 19.9311 59.8023 19.6104L59.1861 18.9942C58.8625 18.6948 58.4513 18.5073 58.0131 18.4592C57.5749 18.4112 57.1329 18.5051 56.7521 18.7272L55.001 19.8409C54.8894 19.8967 54.7656 19.9237 54.6408 19.9192C54.5456 19.9227 54.4507 19.9056 54.3626 19.8692C54.3399 19.857 54.3164 19.8463 54.2925 19.8369L52.935 19.2778C52.9136 19.2688 52.8918 19.261 52.8697 19.2543C52.6681 19.1587 52.5122 18.9875 52.4359 18.7778L51.9861 16.7532C51.8791 16.3239 51.6343 15.9416 51.2892 15.6648C50.9441 15.388 50.5178 15.232 50.0756 15.2207H49.2046C48.7624 15.2319 48.3361 15.3878 47.9911 15.6645C47.646 15.9413 47.4013 16.3236 47.2945 16.7528L46.8442 18.7787C46.7675 18.9879 46.6117 19.1587 46.4104 19.2543C46.3882 19.2608 46.3664 19.2691 46.3447 19.2778L44.9872 19.8369C44.9633 19.8463 44.9399 19.8571 44.9171 19.8692C44.8291 19.9057 44.7341 19.9228 44.6388 19.9192C44.514 19.9234 44.3901 19.8964 44.2782 19.8409L42.528 18.7277C42.1472 18.5057 41.7051 18.4118 41.267 18.4599C40.8288 18.5079 40.4176 18.6954 40.094 18.9947L39.4778 19.6105C39.1731 19.9312 38.982 20.343 38.9337 20.7827C38.8855 21.2224 38.9828 21.6658 39.2108 22.0449L40.3248 23.7952C40.418 23.996 40.428 24.2255 40.3527 24.4336C40.3409 24.4567 40.3296 24.4802 40.32 24.5037L39.7613 25.8616C39.7526 25.8829 39.7443 25.9047 39.7373 25.9269C39.6419 26.1286 39.4709 26.2846 39.2613 26.3611L37.2368 26.8105C36.8075 26.9174 36.4252 27.1622 36.1483 27.5073C35.8715 27.8524 35.7155 28.2787 35.7043 28.721V29.592C35.7155 30.0342 35.8715 30.4604 36.1482 30.8054C36.4249 31.1505 36.8072 31.3952 37.2364 31.5021L39.2619 31.952C39.4713 32.0286 39.6421 32.1845 39.7374 32.3861C39.7444 32.4084 39.7527 32.4301 39.7614 32.4515L40.3201 33.8093C40.3297 33.8329 40.3406 33.8559 40.3528 33.879C40.4282 34.0873 40.418 34.317 40.3245 34.5179L39.2109 36.2681C38.9828 36.6472 38.8855 37.0906 38.9337 37.5304C38.9819 37.9701 39.1731 38.3819 39.4779 38.7025L40.0941 39.3188C40.4179 39.6179 40.8291 39.8053 41.2673 39.8534C41.7055 39.9015 42.1476 39.8077 42.5285 39.5858L44.2779 38.4722C44.3899 38.4165 44.5139 38.3895 44.6389 38.3938C44.7342 38.39 44.8292 38.4071 44.9172 38.4439C44.9403 38.4552 44.9634 38.4665 44.9873 38.4761L46.3447 39.0353C46.3665 39.044 46.3883 39.0518 46.4105 39.0588C46.6119 39.1545 46.7677 39.3254 46.8443 39.5348L47.2946 41.5598C47.4013 41.9891 47.646 42.3715 47.991 42.6484C48.3361 42.9252 48.7624 43.0812 49.2046 43.0923H50.0756C50.5178 43.081 50.9441 42.925 51.2891 42.6482C51.6341 42.3714 51.8788 41.989 51.9857 41.5598L52.436 39.5348C52.5124 39.3253 52.6682 39.1543 52.8698 39.0588C52.892 39.0518 52.9138 39.044 52.9351 39.0353L54.2925 38.4761C54.3165 38.4665 54.34 38.4552 54.3626 38.4439C54.4505 38.4072 54.5453 38.3901 54.6405 38.3938C54.7653 38.3894 54.8893 38.4164 55.0011 38.4722L56.7518 39.5853C57.1326 39.8075 57.5746 39.9015 58.0129 39.8535C58.4512 39.8056 58.8625 39.6181 59.1862 39.3188L59.802 38.703C60.1067 38.3823 60.2979 37.9705 60.3462 37.5307C60.3945 37.0909 60.2973 36.6474 60.0693 36.2682L58.9553 34.5179C58.909 34.4186 58.8827 34.311 58.8779 34.2015C58.8731 34.0919 58.89 33.9825 58.9275 33.8795C58.9392 33.8564 58.9501 33.8333 58.9597 33.8098L59.5184 32.4515C59.5277 32.4302 59.5357 32.4084 59.5424 32.3862C59.6379 32.1844 59.8091 32.0284 60.0188 31.952L62.043 31.5021C62.4723 31.3954 62.8548 31.1508 63.1317 30.8057C63.4086 30.4607 63.5647 30.0343 63.5759 29.5921V28.7211C63.5648 28.2788 63.4088 27.8524 63.132 27.5074C62.8551 27.1623 62.4727 26.9177 62.0434 26.8109H62.0434Z" fill="url(#paint2_linear)"/>
<path opacity="0.6" d="M53.995 29.1557C53.995 30.017 53.7396 30.859 53.2611 31.5752C52.7825 32.2914 52.1024 32.8495 51.3066 33.1792C50.5109 33.5088 49.6352 33.595 48.7905 33.427C47.9457 33.2589 47.1697 32.8442 46.5607 32.2351C45.9516 31.6261 45.5368 30.8501 45.3688 30.0053C45.2008 29.1606 45.287 28.2849 45.6166 27.4892C45.9462 26.6934 46.5044 26.0132 47.2206 25.5347C47.9368 25.0562 48.7787 24.8008 49.6401 24.8008C50.7946 24.8022 51.9015 25.2614 52.718 26.0778C53.5344 26.8942 53.9936 28.0011 53.995 29.1557V29.1557Z" fill="url(#paint3_linear)"/>
</g>
<defs>
<linearGradient id="paint0_linear" x1="47.8698" y1="-15.153" x2="51.8525" y2="130.615" gradientUnits="userSpaceOnUse">
<stop stop-color="#00ABDE"/>
<stop offset="1" stop-color="#007ED8"/>
</linearGradient>
<linearGradient id="paint1_linear" x1="49.844" y1="53.0049" x2="49.844" y2="85.2713" gradientUnits="userSpaceOnUse">
<stop stop-color="#B3B2B3"/>
<stop offset="0.38" stop-color="#B6B5B5"/>
<stop offset="0.61" stop-color="#BEBDBE"/>
<stop offset="0.8" stop-color="#CCCBCB"/>
<stop offset="0.96" stop-color="#E0E0DF"/>
<stop offset="1" stop-color="#E5E5E4"/>
</linearGradient>
<linearGradient id="paint2_linear" x1="49.6401" y1="43.0923" x2="49.6401" y2="15.2207" gradientUnits="userSpaceOnUse">
<stop stop-color="#CCCCCC"/>
<stop offset="1" stop-color="white"/>
</linearGradient>
<linearGradient id="paint3_linear" x1="477.645" y1="316.677" x2="477.645" y2="240.815" gradientUnits="userSpaceOnUse">
<stop stop-color="#CCCCCC"/>
<stop offset="1" stop-color="white"/>
</linearGradient>
<clipPath id="clip0">
<rect width="99.2799" height="99.28" fill="white"/>
</clipPath>
</defs>
</svg>
