<svg width="181" height="191" viewBox="0 0 181 191" fill="none" xmlns="http://www.w3.org/2000/svg">
<path d="M90.3154 189.292C93.3754 189.292 96.3854 188.442 99.0454 186.822L161.015 149.162C166.555 145.792 169.985 139.462 169.985 132.622V57.9116C169.985 51.0916 166.555 44.7516 161.015 41.3716L99.0454 3.71157C93.7154 0.471568 86.8954 0.491568 81.5954 3.71157L19.6254 41.3916C14.0854 44.7616 10.6354 51.0916 10.6354 57.9316V132.632C10.6354 138.392 13.0854 143.812 17.1854 147.382V147.412L81.5954 186.842C84.2354 188.442 87.2554 189.292 90.3154 189.292ZM90.9654 8.24157C92.9154 8.24157 95.3954 9.45157 97.1054 10.5016L157.865 47.6916C161.615 49.9716 163.735 56.5716 163.735 61.3216L163.105 132.622C163.105 137.372 159.905 141.642 156.155 143.922L95.7554 180.302C92.3254 182.392 89.5354 182.392 86.0954 180.302L24.8854 143.832C21.1354 141.552 18.1154 137.352 18.1154 132.622V58.9816C18.1154 54.2416 20.8454 49.3516 24.6154 47.0616L85.1954 10.5016C86.8954 9.46157 89.0154 8.24157 90.9654 8.24157Z" fill="#F2F1F0"/>
<path fill-rule="evenodd" clip-rule="evenodd" d="M98.2154 11.8213C95.7654 10.3213 93.0454 9.57129 90.3154 9.57129C87.5854 9.57129 84.8654 10.3313 82.4154 11.8213L26.2854 46.1513C21.2654 49.2213 18.1554 54.9713 18.1554 61.2213V129.321C18.1554 135.551 21.2554 141.321 26.2854 144.391L82.4154 178.721C84.8654 180.221 87.5854 180.971 90.3154 180.971C93.0454 180.971 95.7654 180.231 98.2154 178.721L154.345 144.391C159.365 141.321 162.475 135.551 162.475 129.321V61.2213C162.475 54.9913 159.375 49.2413 154.345 46.1513L98.2154 11.8213Z" fill="url(#paint0_linear_1076_850)"/>
<path fill-rule="evenodd" clip-rule="evenodd" d="M90.3154 11.0415C91.9954 11.0415 93.8854 11.9115 95.9454 13.1615L154.415 48.7015C158.065 50.9215 160.475 55.1915 160.475 60.0215V130.502C160.475 135.322 158.065 139.602 154.415 141.822L95.9554 177.362C93.9954 178.552 92.0754 179.301 90.3254 179.301C88.5754 179.301 86.6554 178.552 84.6954 177.362L26.2154 141.831C24.2054 140.601 22.7554 139.402 21.7754 137.792C20.7954 136.192 20.1554 133.972 20.1554 130.512V60.0315C20.1554 55.2015 22.5654 50.9315 26.2154 48.7115L84.6754 13.1715C86.7654 11.9215 88.6254 11.0415 90.3154 11.0415ZM98.0254 180.792L156.485 145.252C161.405 142.262 164.465 136.642 164.465 130.512V60.0315C164.465 53.9015 161.405 48.2815 156.485 45.2915L98.0254 9.7515C95.9154 8.4715 93.2054 7.0415 90.3154 7.0415C87.4154 7.0415 84.7054 8.4815 82.6154 9.7415H82.6054L24.1354 45.2915C19.2154 48.2815 16.1554 53.9015 16.1554 60.0315V130.512C16.1554 134.472 16.8954 137.462 18.3554 139.872C19.8154 142.272 21.8754 143.872 24.1354 145.242L82.5954 180.782C84.8154 182.132 87.4854 183.312 90.3054 183.312C93.1254 183.312 95.8054 182.142 98.0254 180.792Z" fill="url(#paint1_linear_1076_850)"/>
<path d="M90.3096 20.1692C90.5875 20.352 90.8182 20.5981 90.9829 20.8871C91.1476 21.1762 91.2417 21.5001 91.2574 21.8324C91.2574 22.4405 90.8282 22.6909 90.2917 22.3868C90.0124 22.2038 89.7797 21.9582 89.6121 21.6694C89.4444 21.3807 89.3464 21.0568 89.3259 20.7236C89.3259 20.1691 89.7015 19.9367 90.3096 20.1692Z" fill="#E6F6FC"/>
<path d="M96.8553 23.997C97.1375 24.1768 97.3725 24.4217 97.5406 24.7111C97.7086 25.0005 97.8048 25.326 97.821 25.6602C97.821 26.2504 97.3739 26.5008 96.8553 26.1968C96.575 26.0148 96.3416 25.7694 96.1738 25.4805C96.006 25.1915 95.9087 24.8671 95.8895 24.5335C95.8538 23.9433 96.283 23.7466 96.8553 23.997Z" fill="#DAF2FB"/>
<path d="M103.347 27.7699C103.628 27.9495 103.862 28.1948 104.027 28.4845C104.192 28.7743 104.284 29.0998 104.295 29.4331C104.295 30.0412 103.884 30.3095 103.347 29.9875C103.065 29.8077 102.83 29.5628 102.662 29.2734C102.494 28.984 102.398 28.6586 102.382 28.3243C102.382 27.6983 102.811 27.4658 103.347 27.7699Z" fill="#CEEEF9"/>
<path d="M109.875 31.5436C110.154 31.7215 110.385 31.964 110.55 32.2504C110.715 32.5368 110.809 32.8588 110.823 33.1891C110.823 33.815 110.394 34.0653 109.857 33.7613C109.58 33.5735 109.35 33.324 109.186 33.0323C109.021 32.7406 108.927 32.4146 108.909 32.0801C108.909 31.472 109.375 31.2217 109.875 31.5436Z" fill="#C1E9F8"/>
<path d="M116.385 35.3016C116.665 35.4846 116.897 35.7303 117.065 36.019C117.233 36.3077 117.331 36.6317 117.351 36.9648C117.351 37.5908 116.922 37.8412 116.385 37.5193C116.104 37.3385 115.87 37.0933 115.702 36.8041C115.534 36.5149 115.437 36.19 115.419 35.856C115.419 35.2301 115.849 34.9976 116.385 35.3016Z" fill="#B5E5F6"/>
<path d="M122.895 39.0557C123.175 39.2387 123.407 39.4842 123.575 39.7731C123.743 40.0617 123.84 40.3856 123.861 40.7188C123.861 41.3447 123.432 41.5951 122.895 41.2732C122.614 41.0924 122.38 40.8472 122.212 40.558C122.044 40.2688 121.947 39.944 121.929 39.6101C121.894 39.002 122.359 38.7517 122.895 39.0557Z" fill="#A9E1F5"/>
<path d="M90.256 35.2287C90.5372 35.4096 90.7714 35.6548 90.9393 35.944C91.1072 36.2331 91.204 36.558 91.2217 36.8919C91.244 37.0121 91.2284 37.1364 91.1771 37.2473C91.1257 37.3582 91.0413 37.4505 90.9353 37.5113C90.8293 37.5723 90.707 37.5986 90.5853 37.5869C90.4636 37.5753 90.3485 37.5263 90.256 37.4464C89.9692 37.2672 89.7311 37.02 89.5626 36.7269C89.3941 36.4336 89.3006 36.1033 89.2903 35.7653C89.2903 35.1751 89.7016 34.9247 90.256 35.2287Z" fill="#C6EBF8"/>
<path d="M96.8555 38.9844C97.1365 39.164 97.3696 39.4092 97.5348 39.6989C97.6999 39.9886 97.7921 40.3143 97.8034 40.6477C97.8034 41.2379 97.3562 41.5061 96.8555 41.2021C96.5698 41.0216 96.3325 40.7741 96.1642 40.4812C95.9959 40.1882 95.9016 39.8586 95.8897 39.5209C95.8182 38.895 96.2474 38.6804 96.8555 38.9844Z" fill="#BAE7F7"/>
<path d="M103.312 42.7571C103.591 42.9388 103.822 43.1845 103.987 43.4739C104.152 43.7631 104.245 44.0877 104.26 44.4204C104.26 45.0284 103.83 45.2788 103.294 44.9748C103.011 44.7909 102.776 44.5429 102.608 44.2505C102.441 43.9582 102.344 43.6302 102.328 43.2935C102.328 42.7033 102.775 42.4531 103.312 42.7571Z" fill="#AFE3F6"/>
<path d="M109.822 46.5303C110.103 46.7074 110.337 46.9492 110.505 47.2355C110.673 47.5218 110.77 47.8443 110.787 48.1757C110.787 48.8016 110.358 49.052 109.822 48.748C109.54 48.5632 109.306 48.3148 109.138 48.0228C108.97 47.7307 108.874 47.4032 108.856 47.0668C108.856 46.4766 109.375 46.2084 109.822 46.5303Z" fill="#A2DFF4"/>
<path d="M116.349 50.2867C116.631 50.4675 116.865 50.7127 117.033 51.0019C117.201 51.2911 117.297 51.616 117.315 51.9499C117.315 52.5759 116.868 52.8084 116.332 52.5043C116.053 52.3225 115.821 52.0765 115.656 51.7874C115.491 51.498 115.398 51.1737 115.384 50.8411C115.384 50.233 115.813 49.9826 116.349 50.2867Z" fill="#96DAF3"/>
<path d="M122.859 54.0423C123.139 54.2252 123.372 54.4708 123.539 54.7596C123.707 55.0483 123.805 55.3722 123.825 55.7055C123.825 56.3315 123.378 56.5817 122.842 56.2598C122.563 56.0781 122.331 55.8323 122.166 55.543C122.001 55.2538 121.908 54.9293 121.894 54.5967C121.894 53.9886 122.323 53.7382 122.859 54.0423Z" fill="#8AD6F1"/>
<path d="M90.2918 27.7349C90.5677 27.9199 90.797 28.1664 90.9615 28.455C91.126 28.7436 91.2211 29.0665 91.2396 29.3982C91.2396 30.0062 90.8104 30.2566 90.2739 29.9526C89.9927 29.7717 89.7584 29.5265 89.5905 29.2374C89.4225 28.9482 89.3259 28.6232 89.3082 28.2893C89.3082 27.6812 89.7016 27.4309 90.2918 27.7349Z" fill="#D5F0FA"/>
<path d="M96.7121 31.2753C96.9954 31.4541 97.2312 31.6986 97.3993 31.9883C97.5675 32.2779 97.6632 32.604 97.6779 32.9386C97.6779 33.5288 97.2486 33.7971 96.7121 33.493C96.4308 33.3121 96.1967 33.067 96.0288 32.7778C95.8608 32.4886 95.7641 32.1637 95.7464 31.8298C95.7464 31.2217 96.1756 30.8998 96.7121 31.2753Z" fill="#CBEDF9"/>
<path d="M103.329 35.2642C103.606 35.4481 103.836 35.6944 104.001 35.9832C104.166 36.2721 104.26 36.5954 104.277 36.9275C104.277 37.5356 103.848 37.8037 103.312 37.4818C103.03 37.301 102.796 37.0558 102.628 36.7666C102.46 36.4775 102.363 36.1525 102.346 35.8186C102.346 35.2105 102.793 34.9602 103.329 35.2642Z" fill="#BEE8F7"/>
<path d="M109.84 39.0379C110.119 39.2171 110.351 39.4594 110.519 39.7452C110.687 40.0312 110.785 40.3524 110.805 40.6832C110.805 41.3092 110.376 41.5596 109.84 41.2555C109.557 41.0731 109.323 40.8249 109.158 40.5319C108.993 40.2392 108.902 39.9105 108.892 39.5744C108.892 38.9842 109.375 38.7159 109.84 39.0379Z" fill="#B2E4F6"/>
<path d="M116.367 42.7932C116.646 42.9762 116.879 43.2219 117.047 43.5106C117.215 43.7994 117.313 44.1231 117.333 44.4565C117.333 45.0825 116.904 45.3329 116.367 45.0109C116.086 44.8299 115.852 44.5849 115.684 44.2957C115.516 44.0065 115.419 43.6816 115.402 43.3477C115.402 42.7396 115.831 42.4892 116.367 42.7932Z" fill="#A6E0F4"/>
<path d="M122.877 46.5481C123.156 46.7322 123.388 46.9781 123.555 47.2666C123.723 47.555 123.821 47.8784 123.843 48.2112C123.843 48.8372 123.396 49.0876 122.859 48.7656C122.58 48.5839 122.349 48.3382 122.184 48.0488C122.019 47.7596 121.926 47.4352 121.912 47.1026C121.894 46.4945 122.341 46.2441 122.877 46.5481Z" fill="#99DCF3"/>
<path d="M90.2381 42.7222C90.5193 42.9031 90.7536 43.1483 90.9215 43.4374C91.0894 43.7265 91.1862 44.0515 91.2039 44.3854C91.2262 44.5056 91.2105 44.6299 91.1592 44.7408C91.1078 44.8517 91.0234 44.944 90.9174 45.0048C90.8114 45.0657 90.6891 45.092 90.5674 45.0804C90.4457 45.0688 90.3306 45.0198 90.2381 44.9398C89.9513 44.7606 89.7131 44.5136 89.5447 44.2203C89.3762 43.927 89.2827 43.5967 89.2723 43.2587C89.2723 42.6685 89.7015 42.4181 90.2381 42.7222Z" fill="#B7E6F6"/>
<path d="M96.8554 46.4595C97.1313 46.6444 97.3606 46.8909 97.525 47.1795C97.6895 47.468 97.7848 47.791 97.8033 48.1228C97.8256 48.2429 97.8099 48.3669 97.7585 48.4779C97.7072 48.5888 97.6228 48.6811 97.5167 48.7421C97.4107 48.8029 97.2885 48.8294 97.1668 48.8178C97.0451 48.8061 96.93 48.7569 96.8375 48.6772C96.5568 48.4914 96.3234 48.2426 96.1558 47.9507C95.9881 47.6588 95.8909 47.3319 95.8717 46.996C95.7823 46.4058 96.2115 46.1376 96.8554 46.4595Z" fill="#AAE2F5"/>
<path d="M103.276 50.2512C103.557 50.432 103.791 50.6772 103.959 50.9664C104.127 51.2556 104.224 51.5804 104.242 51.9145C104.242 52.5225 103.812 52.7729 103.276 52.4689C102.993 52.285 102.758 52.037 102.59 51.7446C102.422 51.4523 102.326 51.1243 102.31 50.7877C102.31 50.1975 102.739 49.9472 103.276 50.2512Z" fill="#9FDDF4"/>
<path d="M109.804 54.0253C110.085 54.201 110.318 54.4428 110.483 54.7296C110.648 55.0165 110.741 55.3397 110.752 55.6705C110.752 56.2965 110.34 56.5469 109.804 56.2428C109.522 56.0581 109.288 55.8097 109.12 55.5176C108.952 55.2256 108.856 54.8981 108.838 54.5617C108.838 53.9536 109.267 53.7034 109.804 54.0253Z" fill="#93D9F2"/>
<path d="M116.331 57.7283C116.613 57.9093 116.847 58.1545 117.015 58.4437C117.183 58.7327 117.28 59.0577 117.297 59.3916C117.297 59.9997 116.85 60.25 116.314 59.946C116.035 59.7643 115.803 59.5186 115.638 59.2292C115.473 58.94 115.38 58.6154 115.366 58.2827C115.366 57.7283 115.795 57.4779 116.331 57.7283Z" fill="#86D5F1"/>
<path d="M122.824 61.5354C123.107 61.7153 123.344 61.9598 123.515 62.249C123.686 62.538 123.786 62.8635 123.807 63.1987C123.807 63.8246 123.36 64.0571 122.824 63.7531C122.545 63.5712 122.313 63.3255 122.148 63.0363C121.983 62.7469 121.89 62.4225 121.876 62.0898C121.894 61.4818 122.287 61.3029 122.824 61.5354Z" fill="#7AD1EF"/>
<path d="M90.2202 50.2151C90.4985 50.3992 90.7305 50.6451 90.898 50.9337C91.0656 51.2222 91.1641 51.5456 91.186 51.8784C91.186 52.4865 90.7388 52.7369 90.2202 52.4328C89.9369 52.2541 89.7011 52.0097 89.5329 51.7199C89.3647 51.4304 89.2692 51.1042 89.2544 50.7695C89.2544 50.1615 89.7015 49.9111 90.2202 50.2151Z" fill="#A7E0F5"/>
<path d="M96.7481 53.9529C97.024 54.1378 97.2533 54.3843 97.4178 54.6729C97.5823 54.9614 97.6774 55.2844 97.6959 55.6162C97.7182 55.7364 97.7026 55.8603 97.6513 55.9714C97.6 56.0822 97.5155 56.1745 97.4095 56.2353C97.3035 56.2961 97.1812 56.3228 97.0595 56.3112C96.9378 56.2995 96.8227 56.2504 96.7302 56.1706C96.4496 55.9848 96.2161 55.736 96.0485 55.4441C95.8808 55.1522 95.7836 54.8253 95.7645 54.4894C95.7645 53.8992 96.1937 53.631 96.7481 53.9529Z" fill="#9ADCF3"/>
<path d="M103.258 57.7274C103.539 57.9083 103.773 58.1535 103.941 58.4426C104.109 58.7317 104.206 59.0567 104.224 59.3906C104.224 59.9987 103.795 60.2491 103.258 59.945C102.977 59.7642 102.742 59.519 102.575 59.2298C102.407 58.9406 102.31 58.6159 102.292 58.2818C102.221 57.7274 102.721 57.4412 103.258 57.7274Z" fill="#8FD8F2"/>
<path d="M109.786 61.501C110.065 61.6869 110.297 61.936 110.461 62.228C110.626 62.5203 110.719 62.8472 110.734 63.1822C110.734 63.7903 110.304 64.0406 109.768 63.7187C109.489 63.541 109.258 63.2984 109.093 63.0121C108.928 62.7256 108.834 62.4037 108.82 62.0735C108.82 61.4476 109.249 61.197 109.786 61.501Z" fill="#82D4F0"/>
<path d="M116.296 65.2734C116.582 65.4539 116.819 65.7014 116.987 65.9944C117.155 66.2873 117.25 66.6169 117.261 66.9546C117.261 67.5448 116.832 67.7953 116.296 67.4913C116.015 67.3116 115.782 67.0664 115.616 66.7766C115.451 66.4869 115.359 66.1612 115.348 65.828C115.348 65.22 115.759 64.9694 116.296 65.2734Z" fill="#77D0EF"/>
<path d="M122.806 69.0298C123.088 69.2135 123.323 69.4616 123.491 69.754C123.659 70.0462 123.755 70.3742 123.771 70.711C123.771 71.3012 123.342 71.5515 122.806 71.2475C122.525 71.0665 122.29 70.8213 122.122 70.5323C121.954 70.2431 121.858 69.9181 121.84 69.5842C121.894 68.9762 122.269 68.7258 122.806 69.0298Z" fill="#6BCBED"/>
<path d="M90.2023 57.7279C90.4806 57.9146 90.7112 58.1639 90.8758 58.4558C91.0405 58.7478 91.1344 59.0742 91.1502 59.409C91.1502 59.9992 90.721 60.2496 90.2023 59.9456C89.9178 59.7667 89.6801 59.5224 89.509 59.2332C89.3379 58.9438 89.2383 58.6178 89.2186 58.2823C89.2365 57.7279 89.7016 57.3881 90.2023 57.7279Z" fill="#97DBF3"/>
<path d="M96.7121 61.4463C96.9923 61.6282 97.2258 61.8736 97.3936 62.1626C97.5613 62.4514 97.6588 62.7758 97.6779 63.1096C97.7002 63.2298 97.6845 63.3537 97.6332 63.4648C97.5819 63.5756 97.4974 63.6679 97.3914 63.7287C97.2854 63.7895 97.1631 63.8162 97.0414 63.8046C96.9197 63.7929 96.8047 63.7438 96.7121 63.664C96.4315 63.4782 96.198 63.2294 96.0304 62.9375C95.8627 62.6458 95.7655 62.3187 95.7464 61.9828C95.7464 61.3927 96.1756 61.1244 96.7121 61.4463Z" fill="#8BD7F1"/>
<path d="M103.24 65.2206C103.521 65.4001 103.754 65.6455 103.919 65.9352C104.084 66.225 104.177 66.5505 104.188 66.8838C104.188 67.4919 103.777 67.7423 103.24 67.4383C102.957 67.2596 102.721 67.0149 102.553 66.7254C102.385 66.4356 102.289 66.1096 102.274 65.775C102.221 65.1669 102.704 64.8808 103.24 65.2206Z" fill="#7FD3F0"/>
<path d="M109.768 68.9937C110.048 69.1745 110.28 69.4201 110.445 69.7095C110.61 69.999 110.703 70.324 110.716 70.657C110.716 71.2651 110.287 71.5154 109.75 71.2114C109.473 71.0276 109.243 70.7813 109.079 70.4924C108.914 70.2036 108.819 69.8803 108.802 69.5481C108.802 68.9401 109.231 68.6718 109.768 68.9937Z" fill="#73CEEE"/>
<path d="M116.278 72.7501C116.561 72.9338 116.796 73.182 116.963 73.4743C117.131 73.7665 117.227 74.0945 117.244 74.4313C117.244 75.0394 116.814 75.2719 116.278 74.9678C115.999 74.7886 115.766 74.5463 115.599 74.2605C115.431 73.9745 115.333 73.6531 115.312 73.3223C115.312 72.6963 115.741 72.4461 116.278 72.7501Z" fill="#67CAED"/>
<path d="M122.788 76.5057C123.07 76.6905 123.304 76.9389 123.471 77.2309C123.639 77.523 123.736 77.8505 123.754 78.1869C123.754 78.7949 123.324 79.0451 122.788 78.7232C122.509 78.5442 122.276 78.3019 122.108 78.0159C121.941 77.7301 121.843 77.4087 121.822 77.078C121.894 76.4521 122.251 76.2017 122.788 76.5057Z" fill="#5AC6EC"/>
<path d="M129.423 42.8299C129.705 43.0097 129.94 43.2547 130.108 43.5441C130.277 43.8334 130.373 44.1589 130.389 44.4932C130.389 45.1013 129.942 45.3517 129.405 45.0476C129.131 44.8605 128.903 44.6137 128.739 44.3254C128.575 44.0373 128.478 43.7154 128.457 43.3844C128.457 42.7584 128.887 42.5259 129.423 42.8299Z" fill="#9CDDF3"/>
<path d="M135.951 46.6031C136.233 46.7828 136.468 47.0277 136.636 47.3171C136.804 47.6064 136.901 47.9321 136.917 48.2664C136.917 48.8744 136.469 49.1248 135.933 48.8208C135.653 48.636 135.421 48.3873 135.256 48.0949C135.091 47.8024 134.998 47.475 134.985 47.1396C134.985 46.5316 135.414 46.2991 135.951 46.6031Z" fill="#91D9F2"/>
<path d="M142.479 50.3758C142.757 50.5538 142.989 50.7961 143.154 51.0825C143.319 51.369 143.413 51.6909 143.427 52.0212C143.427 52.6472 142.997 52.8976 142.479 52.5935C142.197 52.4088 141.963 52.1602 141.795 51.8681C141.628 51.5761 141.531 51.2486 141.513 50.9124C141.567 50.2864 141.942 50.0539 142.479 50.3758Z" fill="#85D4F1"/>
<path d="M148.989 54.1502C149.264 54.3311 149.494 54.5744 149.658 54.8602C149.823 55.146 149.918 55.4661 149.937 55.7954C149.937 56.4213 149.507 56.6719 148.989 56.3678C148.706 56.1829 148.47 55.9349 148.299 55.643C148.128 55.3513 148.028 55.0238 148.005 54.6865C148.023 54.15 148.452 53.8103 148.989 54.1502Z" fill="#79D0EF"/>
<path d="M155.499 57.888C155.781 58.0678 156.016 58.3126 156.184 58.602C156.352 58.8913 156.448 59.217 156.465 59.5513C156.487 59.6715 156.471 59.7954 156.42 59.9065C156.369 60.0174 156.284 60.1096 156.178 60.1704C156.072 60.2314 155.95 60.2579 155.828 60.2463C155.706 60.2347 155.591 60.1855 155.499 60.1057C155.214 59.9242 154.978 59.6765 154.809 59.3837C154.641 59.0909 154.546 58.7619 154.533 58.4246C154.533 57.8165 154.962 57.584 155.499 57.888Z" fill="#6CCCEE"/>
<path d="M129.369 57.8157C129.651 57.9967 129.885 58.2417 130.053 58.5309C130.221 58.8201 130.317 59.1451 130.335 59.479C130.335 60.087 129.906 60.3374 129.369 60.0334C129.087 59.8497 128.852 59.6015 128.684 59.3092C128.516 59.017 128.42 58.689 128.404 58.3522C128.404 57.7263 128.851 57.5117 129.369 57.8157Z" fill="#7DD2F0"/>
<path d="M135.897 61.5901C136.181 61.7688 136.417 62.0134 136.585 62.303C136.753 62.5927 136.848 62.9187 136.863 63.2534C136.863 63.8614 136.434 64.1118 135.897 63.8078C135.617 63.6232 135.385 63.3743 135.22 63.0819C135.055 62.7896 134.962 62.4622 134.949 62.1266C134.949 61.5186 135.379 61.304 135.897 61.5901Z" fill="#71CEEE"/>
<path d="M142.443 65.3467C142.719 65.5316 142.948 65.7781 143.113 66.0668C143.277 66.3554 143.372 66.6782 143.391 67.01C143.391 67.6181 142.962 67.8684 142.425 67.5644C142.142 67.3856 141.906 67.1411 141.738 66.8513C141.57 66.5618 141.474 66.2358 141.459 65.9011C141.459 65.2931 141.906 65.0427 142.443 65.3467Z" fill="#65C9ED"/>
<path d="M148.953 69.1196C149.23 69.2995 149.459 69.5425 149.624 69.8285C149.789 70.1145 149.884 70.4353 149.901 70.7648C149.901 71.3907 149.471 71.6232 148.935 71.3371C148.652 71.1534 148.418 70.9053 148.25 70.6129C148.082 70.3207 147.986 69.9927 147.969 69.6559C147.969 69.0478 148.416 68.7976 148.953 69.1196Z" fill="#59C5EB"/>
<path d="M155.463 72.8747C155.741 73.0587 155.973 73.3046 156.141 73.5931C156.308 73.8818 156.407 74.2051 156.429 74.5381C156.429 75.1462 155.982 75.3966 155.463 75.0926C155.178 74.911 154.942 74.6633 154.774 74.3706C154.606 74.0778 154.511 73.7487 154.497 73.4114C154.497 72.8212 154.926 72.5707 155.463 72.8747Z" fill="#4DC1EA"/>
<path d="M129.387 50.323C129.671 50.5018 129.906 50.7465 130.075 51.036C130.243 51.3258 130.338 51.6516 130.353 51.9862C130.353 52.5943 129.924 52.8447 129.387 52.5407C129.107 52.3561 128.875 52.1073 128.71 51.8149C128.545 51.5225 128.452 51.195 128.439 50.8595C128.439 50.2693 128.869 50.0189 129.387 50.323Z" fill="#8DD7F2"/>
<path d="M135.933 54.1515C136.214 54.3323 136.449 54.5775 136.617 54.8667C136.784 55.1559 136.881 55.4809 136.899 55.8148C136.899 56.4229 136.452 56.6733 135.915 56.3692C135.636 56.1834 135.405 55.9344 135.24 55.6422C135.075 55.3502 134.982 55.0231 134.967 54.6881C134.967 54.0442 135.397 53.7938 135.933 54.1515Z" fill="#81D3F0"/>
<path d="M142.461 57.8699C142.738 58.05 142.968 58.2931 143.132 58.5789C143.297 58.8648 143.392 59.1857 143.409 59.5153C143.409 60.1413 142.98 60.3738 142.443 60.0697C142.161 59.885 141.927 59.6366 141.759 59.3445C141.592 59.0525 141.495 58.725 141.477 58.3886C141.567 57.7268 141.924 57.548 142.461 57.8699Z" fill="#75CFEF"/>
<path d="M148.971 61.6254C149.246 61.8064 149.476 62.0496 149.64 62.3354C149.805 62.6212 149.9 62.9414 149.919 63.2706C149.919 63.8966 149.489 64.147 148.953 63.8429C148.673 63.6562 148.441 63.4073 148.273 63.1156C148.106 62.8239 148.008 62.4975 147.987 62.1618C147.987 61.5537 148.434 61.3035 148.971 61.6254Z" fill="#69CBED"/>
<path d="M155.481 65.3813C155.762 65.5621 155.996 65.8073 156.164 66.0965C156.332 66.3857 156.429 66.7107 156.447 67.0446C156.469 67.1648 156.453 67.2889 156.402 67.3998C156.351 67.5107 156.266 67.603 156.16 67.6638C156.054 67.7247 155.932 67.751 155.81 67.7394C155.688 67.7278 155.573 67.6788 155.481 67.599C155.198 67.4153 154.963 67.1669 154.796 66.8747C154.628 66.5825 154.532 66.2545 154.515 65.9179C154.515 65.3277 154.944 65.0773 155.481 65.3813Z" fill="#5CC6EC"/>
<path d="M129.352 65.3096C129.633 65.4905 129.867 65.7357 130.035 66.0248C130.203 66.314 130.3 66.6389 130.317 66.9728C130.317 67.5809 129.888 67.8313 129.352 67.5272C129.069 67.3436 128.834 67.0955 128.666 66.8031C128.498 66.5109 128.402 66.1829 128.386 65.8461C128.386 65.2559 128.833 65.0055 129.352 65.3096Z" fill="#6ECDEE"/>
<path d="M135.879 69.0659C136.158 69.25 136.39 69.4957 136.557 69.7844C136.725 70.0728 136.823 70.3962 136.845 70.7292C136.845 71.3552 136.416 71.6055 135.879 71.2836C135.598 71.1026 135.364 70.8576 135.196 70.5684C135.028 70.2792 134.931 69.9543 134.914 69.6204C134.932 69.0123 135.361 68.7798 135.879 69.0659Z" fill="#62C8EC"/>
<path d="M142.407 72.8401C142.689 73.0209 142.923 73.2661 143.091 73.5553C143.259 73.8445 143.355 74.1693 143.373 74.5034C143.395 74.6236 143.38 74.7475 143.329 74.8586C143.277 74.9695 143.193 75.0617 143.087 75.1227C142.981 75.1835 142.858 75.21 142.737 75.1984C142.615 75.1868 142.5 75.1376 142.407 75.0578C142.124 74.879 141.888 74.6345 141.72 74.3448C141.552 74.0552 141.456 73.7292 141.442 73.3945C141.442 72.7865 141.871 72.5361 142.407 72.8401Z" fill="#56C4EB"/>
<path d="M148.917 76.594C149.199 76.775 149.433 77.0202 149.601 77.3092C149.769 77.5984 149.865 77.9234 149.883 78.2573C149.883 78.8833 149.436 79.1158 148.917 78.8117C148.631 78.6366 148.393 78.3929 148.224 78.1024C148.055 77.8121 147.962 77.4841 147.951 77.1485C147.951 76.5404 148.381 76.29 148.917 76.594Z" fill="#4BBFE9"/>
<path d="M155.445 80.3697C155.721 80.5546 155.95 80.8011 156.115 81.0897C156.28 81.3784 156.375 81.7014 156.393 82.033C156.393 82.641 155.964 82.8914 155.445 82.5874C155.161 82.4035 154.924 82.1557 154.754 81.8638C154.583 81.5717 154.483 81.2439 154.462 80.9062C154.479 80.2982 154.909 80.0657 155.445 80.3697Z" fill="#45B9E8"/>
<path d="M129.334 72.8041C129.615 72.9849 129.849 73.2301 130.017 73.5193C130.185 73.8085 130.282 74.1334 130.299 74.4673C130.299 75.0754 129.852 75.3258 129.316 75.0217C129.04 74.8368 128.811 74.5904 128.646 74.3017C128.482 74.0131 128.387 73.6901 128.368 73.3585C128.368 72.7325 128.797 72.5 129.334 72.8041Z" fill="#5EC7EC"/>
<path d="M135.861 76.5595C136.141 76.7464 136.374 76.9951 136.541 77.2868C136.709 77.5783 136.807 77.9047 136.827 78.2404C136.827 78.8485 136.398 79.0991 135.861 78.7771C135.58 78.6013 135.344 78.3597 135.176 78.0732C135.008 77.7867 134.912 77.4635 134.896 77.1316C134.896 76.5056 135.343 76.2554 135.861 76.5595Z" fill="#52C3EB"/>
<path d="M142.389 80.3333C142.672 80.517 142.907 80.7652 143.075 81.0574C143.243 81.3497 143.339 81.6777 143.355 82.0144C143.355 82.6046 142.908 82.855 142.389 82.551C142.106 82.3721 141.87 82.1276 141.702 81.8379C141.534 81.5484 141.439 81.2223 141.424 80.8877C141.424 80.2796 141.853 80.0293 142.389 80.3333Z" fill="#49BEE9"/>
<path d="M148.899 84.0889C149.182 84.2728 149.417 84.521 149.585 84.8132C149.753 85.1055 149.849 85.4335 149.865 85.7701C149.865 86.3602 149.418 86.6106 148.899 86.3066C148.613 86.1315 148.375 85.8877 148.206 85.5973C148.037 85.307 147.944 84.979 147.934 84.6433C147.934 84.0352 148.363 83.7849 148.899 84.0889Z" fill="#43B7E7"/>
<path d="M155.427 87.8626C155.703 88.0476 155.932 88.2942 156.097 88.5829C156.261 88.8713 156.357 89.1943 156.375 89.5261C156.375 90.1342 155.946 90.3846 155.409 90.0805C155.131 89.8965 154.899 89.6506 154.731 89.3619C154.564 89.0734 154.465 88.7501 154.443 88.4171C154.443 87.7911 154.891 87.5586 155.427 87.8626Z" fill="#3CB1E5"/>
<path d="M129.316 80.2788C129.597 80.4598 129.831 80.705 129.999 80.994C130.167 81.2832 130.264 81.6082 130.282 81.9421C130.282 82.5502 129.834 82.8006 129.298 82.4965C129.022 82.3116 128.793 82.0652 128.628 81.7765C128.464 81.488 128.368 81.165 128.35 80.8333C128.35 80.2252 128.779 79.9748 129.316 80.2788Z" fill="#5DC7EC"/>
<path d="M135.844 84.053C136.125 84.2339 136.359 84.4792 136.527 84.7684C136.695 85.0574 136.792 85.3824 136.81 85.7163C136.81 86.3244 136.362 86.5748 135.826 86.2707C135.548 86.0879 135.317 85.8419 135.152 85.5528C134.988 85.2636 134.894 84.9399 134.878 84.6076C134.878 83.9817 135.307 83.749 135.844 84.053Z" fill="#47BBE8"/>
<path d="M142.372 87.8089C142.652 87.9934 142.884 88.2424 143.049 88.5348C143.214 88.8272 143.307 89.1547 143.319 89.49C143.319 90.0802 142.89 90.3306 142.372 90.0266C142.088 89.8479 141.853 89.6032 141.684 89.3137C141.516 89.024 141.42 88.6979 141.406 88.3633C141.406 87.7552 141.835 87.5048 142.372 87.8089Z" fill="#40B5E6"/>
<path d="M148.882 91.5819C149.164 91.7604 149.398 92.0055 149.563 92.2954C149.728 92.5854 149.82 92.9115 149.829 93.2452C149.829 93.8533 149.4 94.0858 148.882 93.7996C148.598 93.621 148.362 93.3763 148.194 93.0868C148.026 92.797 147.93 92.471 147.916 92.1364C147.916 91.5104 148.345 91.26 148.882 91.5819Z" fill="#3AAFE5"/>
<path d="M155.409 95.2847C155.685 95.4696 155.915 95.7163 156.079 96.0048C156.244 96.2934 156.339 96.6162 156.357 96.948C156.357 97.5561 155.928 97.8064 155.391 97.5024C155.109 97.3225 154.874 97.0776 154.706 96.7883C154.538 96.4989 154.442 96.1734 154.426 95.8391C154.426 95.2847 154.873 95.0343 155.409 95.2847Z" fill="#34A9E3"/>
<path d="M90.1844 65.1846C90.4603 65.3697 90.6896 65.6162 90.8541 65.9048C91.0186 66.1935 91.1137 66.5163 91.1322 66.8479C91.1322 67.4559 90.703 67.7063 90.1665 67.4023C89.8872 67.2193 89.6545 66.9738 89.4869 66.6849C89.3192 66.3963 89.2212 66.0724 89.2007 65.739C89.2007 65.131 89.7015 64.8806 90.1844 65.1846Z" fill="#88D6F1"/>
<path d="M96.6944 68.9595C96.9776 69.1382 97.2136 69.3827 97.3817 69.6724C97.5499 69.962 97.6454 70.2882 97.6602 70.6228C97.6825 70.743 97.6669 70.8669 97.6155 70.978C97.5642 71.0889 97.4797 71.1812 97.3737 71.242C97.2677 71.3028 97.1454 71.3292 97.0237 71.3176C96.902 71.306 96.7869 71.257 96.6944 71.1772C96.4179 70.9912 96.1874 70.7448 96.0201 70.4567C95.8528 70.1685 95.7531 69.8463 95.7286 69.514C95.7286 68.9059 96.1578 68.6376 96.6944 68.9595Z" fill="#7CD2F0"/>
<path d="M103.222 72.7129C103.501 72.8946 103.733 73.1404 103.897 73.4297C104.062 73.7189 104.156 74.0435 104.17 74.3762C104.17 74.9843 103.741 75.2347 103.204 74.9306C102.923 74.7496 102.689 74.5044 102.521 74.2152C102.353 73.9262 102.256 73.6013 102.239 73.2673C102.221 72.6593 102.686 72.4089 103.222 72.7129Z" fill="#70CDEE"/>
<path d="M109.732 76.4887C110.014 76.6684 110.249 76.9134 110.417 77.2028C110.586 77.4922 110.682 77.8177 110.698 78.152C110.698 78.76 110.269 79.0104 109.732 78.7064C109.452 78.5256 109.22 78.2802 109.055 77.9906C108.89 77.7011 108.797 77.3761 108.784 77.0431C108.784 76.4171 109.196 76.1668 109.732 76.4887Z" fill="#63C9ED"/>
<path d="M116.26 80.243C116.543 80.4266 116.778 80.6749 116.946 80.9671C117.113 81.2595 117.21 81.5875 117.226 81.9241C117.226 82.5143 116.797 82.7647 116.26 82.4606C115.979 82.2798 115.745 82.0346 115.577 81.7454C115.409 81.4562 115.312 81.1313 115.294 80.7974C115.294 80.1893 115.723 79.9389 116.26 80.243Z" fill="#57C5EB"/>
<path d="M122.77 83.9995C123.053 84.1832 123.288 84.4315 123.456 84.7237C123.623 85.0159 123.72 85.3439 123.736 85.6807C123.736 86.2888 123.307 86.5213 122.77 86.2172C122.505 86.0266 122.289 85.7771 122.137 85.4886C121.984 85.2 121.901 84.88 121.894 84.554C121.894 83.9459 122.234 83.6955 122.77 83.9995Z" fill="#4CC0EA"/>
<path d="M90.1308 80.19C90.412 80.3709 90.6463 80.6161 90.8142 80.9052C90.9821 81.1944 91.0789 81.5194 91.0966 81.8533C91.1189 81.9735 91.1032 82.0976 91.0519 82.2087C91.0005 82.3196 90.9161 82.4118 90.8101 82.4726C90.704 82.5335 90.5818 82.5599 90.4601 82.5483C90.3384 82.5367 90.2233 82.4875 90.1308 82.4077C89.8464 82.2301 89.6099 81.9858 89.4415 81.6959C89.2732 81.406 89.1783 81.0794 89.165 80.7445C89.165 80.1185 89.5942 79.886 90.1308 80.19Z" fill="#69CBED"/>
<path d="M96.6587 83.9276C96.9397 84.1071 97.1728 84.3523 97.3379 84.642C97.5031 84.9318 97.5953 85.2575 97.6066 85.5908C97.6247 85.7078 97.6072 85.8276 97.5564 85.9346C97.5055 86.0415 97.4236 86.1308 97.3213 86.1905C97.2191 86.2502 97.1012 86.2779 96.983 86.2699C96.8649 86.2619 96.7519 86.2184 96.6587 86.1452C96.3771 85.9632 96.1416 85.718 95.9709 85.4295C95.8002 85.1408 95.699 84.8164 95.6751 84.482C95.693 83.8739 96.1043 83.6056 96.6587 83.9276Z" fill="#5DC6EC"/>
<path d="M103.169 87.7201C103.45 87.9009 103.684 88.1461 103.852 88.4353C104.02 88.7243 104.117 89.0493 104.134 89.3832C104.134 89.9912 103.705 90.2416 103.169 89.9376C102.889 89.7546 102.657 89.5091 102.489 89.2202C102.321 88.9316 102.223 88.6077 102.203 88.2745C102.221 87.6485 102.632 87.416 103.169 87.7201Z" fill="#50C2EA"/>
<path d="M109.696 91.4928C109.977 91.6684 110.21 91.9104 110.375 92.1972C110.541 92.4841 110.633 92.8073 110.644 93.1382C110.644 93.7641 110.233 93.9966 109.696 93.6926C109.415 93.5157 109.181 93.2739 109.013 92.9876C108.845 92.7012 108.748 92.3788 108.73 92.0472C108.73 91.4212 109.16 91.1887 109.696 91.4928Z" fill="#49BDE9"/>
<path d="M116.224 95.285C116.504 95.468 116.736 95.7137 116.904 96.0023C117.072 96.2912 117.17 96.6149 117.19 96.9483C117.19 97.5742 116.743 97.8067 116.206 97.5027C115.929 97.3187 115.699 97.0724 115.535 96.7835C115.37 96.4947 115.276 96.1714 115.258 95.8394C115.258 95.285 115.688 94.9452 116.224 95.285Z" fill="#42B6E7"/>
<path d="M122.734 99.0039C123.013 99.1869 123.246 99.4326 123.414 99.7213C123.582 100.01 123.68 100.334 123.7 100.667C123.7 101.293 123.253 101.526 122.716 101.222C122.438 101.04 122.206 100.794 122.041 100.505C121.876 100.215 121.783 99.891 121.768 99.5584C121.768 98.9503 122.198 98.6999 122.734 99.0039Z" fill="#3BB0E5"/>
<path d="M90.1664 72.6964C90.4423 72.8814 90.6716 73.128 90.836 73.4165C91.0005 73.7051 91.0957 74.028 91.1142 74.3597C91.1142 74.9857 90.685 75.2182 90.1485 74.9141C89.8692 74.7312 89.6365 74.4854 89.4688 74.1968C89.3012 73.9079 89.2032 73.5841 89.1827 73.2509C89.1827 72.6249 89.7014 72.3745 90.1664 72.6964Z" fill="#77D0EF"/>
<path d="M96.6766 76.452C96.9598 76.6306 97.1956 76.8753 97.3638 77.1648C97.532 77.4546 97.6275 77.7806 97.6423 78.1152C97.6599 78.234 97.6409 78.3552 97.5878 78.4629C97.5347 78.5706 97.4501 78.6595 97.3452 78.7178C97.2402 78.7761 97.12 78.8009 97.0005 78.7893C96.8811 78.7775 96.7681 78.7294 96.6766 78.6518C96.3957 78.4749 96.1613 78.2331 95.9932 77.9468C95.8252 77.6604 95.7283 77.338 95.7107 77.0064C95.7107 76.3983 96.1221 76.13 96.6766 76.452Z" fill="#6CCCEE"/>
<path d="M103.204 80.2255C103.483 80.4074 103.715 80.6531 103.88 80.9423C104.044 81.2317 104.138 81.5561 104.152 81.8888C104.152 82.5147 103.723 82.7472 103.186 82.4432C102.908 82.2592 102.676 82.0132 102.509 81.7248C102.341 81.4361 102.242 81.1129 102.221 80.7799C102.221 80.154 102.668 79.9036 103.204 80.2255Z" fill="#61C8EC"/>
<path d="M109.714 83.9828C109.996 84.1675 110.23 84.4161 110.398 84.7082C110.566 85.0002 110.662 85.3275 110.68 85.6639C110.68 86.272 110.251 86.5224 109.714 86.2004C109.436 86.0212 109.203 85.7791 109.035 85.4931C108.867 85.2073 108.769 84.8859 108.749 84.5551C108.749 83.9291 109.178 83.6787 109.714 83.9828Z" fill="#55C4EB"/>
<path d="M116.242 87.7547C116.523 87.9355 116.758 88.1807 116.925 88.4699C117.093 88.7591 117.19 89.0839 117.208 89.418C117.208 90.0439 116.761 90.2764 116.224 89.9724C115.948 89.7875 115.719 89.5408 115.555 89.2524C115.39 88.9637 115.295 88.6407 115.276 88.3091C115.276 87.701 115.706 87.4328 116.242 87.7547Z" fill="#4ABEE9"/>
<path d="M122.752 91.5113C123.033 91.6921 123.268 91.9373 123.436 92.2265C123.603 92.5157 123.7 92.8405 123.718 93.1746C123.718 93.8005 123.271 94.033 122.734 93.729C122.458 93.5439 122.229 93.2974 122.065 93.0088C121.9 92.7201 121.805 92.3973 121.786 92.0657C121.786 91.4576 122.216 91.1894 122.752 91.5113Z" fill="#44B9E7"/>
<path d="M90.1126 87.6837C90.3935 87.8608 90.6279 88.1024 90.796 88.3887C90.964 88.6751 91.0609 88.9975 91.0785 89.3291C91.0785 89.955 90.6313 90.1875 90.1126 89.8835C89.8294 89.7048 89.5936 89.4602 89.4254 89.1706C89.2572 88.8809 89.1617 88.5549 89.1469 88.2202C89.1469 87.5943 89.5761 87.3618 90.1126 87.6837Z" fill="#59C5EB"/>
<path d="M96.6406 91.4217C96.9195 91.6036 97.151 91.8493 97.3159 92.1385C97.4807 92.4279 97.5742 92.7523 97.5884 93.085C97.6107 93.2051 97.5951 93.3293 97.5438 93.4402C97.4925 93.551 97.408 93.6433 97.302 93.7043C97.196 93.7651 97.0737 93.7916 96.952 93.78C96.8304 93.7683 96.7153 93.7192 96.6227 93.6394C96.3463 93.4534 96.1157 93.2069 95.9484 92.9188C95.7811 92.6307 95.6815 92.3084 95.657 91.9761C95.657 91.368 96.0862 91.0998 96.6406 91.4217Z" fill="#4DC1EA"/>
<path d="M103.151 95.2853C103.432 95.4622 103.666 95.704 103.834 95.9903C104.002 96.2766 104.099 96.5991 104.117 96.9307C104.117 97.5566 103.687 97.7891 103.151 97.4851C102.872 97.302 102.639 97.0564 102.471 96.7676C102.304 96.4789 102.205 96.155 102.185 95.8218C102.221 95.1243 102.614 94.8918 103.151 95.2853Z" fill="#46BBE8"/>
<path d="M109.679 98.9686C109.958 99.1492 110.191 99.3948 110.356 99.6843C110.521 99.9739 110.614 100.299 110.626 100.632C110.626 101.24 110.197 101.49 109.661 101.168C109.384 100.988 109.154 100.745 108.989 100.459C108.825 100.173 108.73 99.8526 108.713 99.523C108.713 98.8613 109.142 98.6645 109.679 98.9686Z" fill="#40B5E6"/>
<path d="M116.189 102.742C116.472 102.917 116.708 103.158 116.876 103.445C117.044 103.732 117.14 104.056 117.154 104.388C117.154 105.014 116.725 105.246 116.189 104.942C115.909 104.761 115.676 104.516 115.512 104.226C115.346 103.937 115.254 103.612 115.241 103.279C115.241 102.671 115.652 102.438 116.189 102.742Z" fill="#3AAFE4"/>
<path d="M122.698 106.498C122.984 106.674 123.221 106.918 123.39 107.208C123.558 107.498 123.653 107.826 123.664 108.161C123.664 108.769 123.235 109.002 122.698 108.697C122.417 108.518 122.184 108.273 122.019 107.983C121.854 107.693 121.762 107.367 121.751 107.034C121.751 106.426 122.162 106.176 122.698 106.498Z" fill="#34A9E3"/>
<path d="M90.0949 95.1595C90.3739 95.3414 90.6054 95.5871 90.7703 95.8763C90.9352 96.1657 91.0286 96.4901 91.0429 96.8228C91.0429 97.4487 90.6136 97.6813 90.0949 97.3772C89.8085 97.2019 89.5702 96.9582 89.4016 96.6679C89.2329 96.3775 89.1393 96.0496 89.1292 95.7139C89.1292 95.088 89.5584 94.8555 90.0949 95.1595Z" fill="#4BBFE9"/>
<path d="M96.6229 98.8628C96.8998 99.0467 97.1299 99.293 97.2945 99.5818C97.4591 99.8706 97.5537 100.194 97.5709 100.526C97.5709 101.134 97.1237 101.367 96.605 101.063C96.3271 100.882 96.0951 100.64 95.9275 100.354C95.7598 100.069 95.6611 99.7478 95.6393 99.4173C95.6393 98.8628 96.0685 98.6125 96.6229 98.8628Z" fill="#44B9E8"/>
<path d="M103.133 102.688C103.412 102.871 103.645 103.116 103.813 103.405C103.98 103.694 104.078 104.018 104.099 104.351C104.099 104.977 103.669 105.227 103.133 104.905C102.852 104.725 102.617 104.479 102.449 104.19C102.282 103.901 102.185 103.576 102.167 103.242C102.221 102.616 102.596 102.438 103.133 102.688Z" fill="#3EB3E6"/>
<path d="M109.661 106.462C109.94 106.642 110.173 106.888 110.338 107.177C110.503 107.467 110.596 107.792 110.608 108.125C110.608 108.733 110.179 108.983 109.643 108.679C109.364 108.498 109.132 108.252 108.967 107.962C108.802 107.673 108.709 107.349 108.695 107.016C108.695 106.39 109.124 106.157 109.661 106.462Z" fill="#38ADE4"/>
<path d="M116.17 110.219C116.45 110.402 116.682 110.647 116.85 110.936C117.018 111.225 117.116 111.549 117.136 111.882C117.136 112.508 116.707 112.759 116.17 112.437C115.888 112.257 115.653 112.012 115.485 111.723C115.317 111.433 115.221 111.107 115.205 110.773C115.223 110.165 115.634 109.915 116.17 110.219Z" fill="#31A6E2"/>
<path d="M122.681 113.993C122.961 114.17 123.196 114.411 123.364 114.698C123.532 114.984 123.629 115.306 123.646 115.638C123.646 116.264 123.217 116.514 122.681 116.21C122.399 116.026 122.165 115.777 121.997 115.485C121.829 115.193 121.733 114.866 121.715 114.529C121.715 113.921 122.144 113.671 122.681 113.993Z" fill="#2BA0E0"/>
<path d="M129.28 87.7713C129.564 87.9512 129.801 88.1957 129.972 88.4849C130.143 88.7739 130.243 89.0994 130.264 89.4345C130.264 90.0426 129.817 90.293 129.28 89.989C129.004 89.804 128.775 89.5576 128.61 89.2689C128.446 88.9803 128.351 88.6573 128.332 88.3257C128.332 87.7176 128.761 87.4672 129.28 87.7713Z" fill="#5CC2EB"/>
<path d="M135.826 91.5294C136.106 91.7163 136.338 91.965 136.506 92.2567C136.673 92.5484 136.771 92.8748 136.792 93.2105C136.792 93.8186 136.345 94.069 135.808 93.7471C135.528 93.5704 135.296 93.3282 135.131 93.0415C134.966 92.7548 134.873 92.4322 134.86 92.1017C134.86 91.4757 135.289 91.2432 135.826 91.5294Z" fill="#3FB4E6"/>
<path d="M142.354 95.2855C142.632 95.4724 142.863 95.7217 143.027 96.0135C143.192 96.3054 143.286 96.632 143.301 96.9666C143.301 97.5568 142.872 97.8072 142.354 97.5031C142.068 97.3254 141.83 97.0814 141.658 96.7919C141.487 96.5023 141.388 96.1759 141.37 95.8399C141.388 95.2855 141.817 94.9993 142.354 95.2855Z" fill="#39AEE4"/>
<path d="M148.864 99.0579C149.142 99.2448 149.373 99.4941 149.537 99.786C149.702 100.078 149.796 100.404 149.812 100.739C149.812 101.347 149.382 101.58 148.846 101.276C148.565 101.095 148.33 100.85 148.162 100.56C147.995 100.271 147.898 99.9464 147.88 99.6123C147.88 99.0042 148.327 98.7539 148.864 99.0579Z" fill="#32A8E2"/>
<path d="M155.374 102.833C155.655 103.014 155.889 103.259 156.057 103.548C156.225 103.837 156.322 104.162 156.339 104.496C156.362 104.616 156.346 104.74 156.295 104.851C156.243 104.962 156.159 105.055 156.053 105.115C155.947 105.176 155.825 105.203 155.703 105.191C155.581 105.179 155.466 105.13 155.374 105.051C155.091 104.871 154.856 104.626 154.688 104.337C154.52 104.047 154.424 103.722 154.408 103.387C154.408 102.761 154.837 102.529 155.374 102.833Z" fill="#2BA1E0"/>
<path d="M129.244 102.778C129.527 102.958 129.762 103.203 129.93 103.492C130.098 103.781 130.194 104.107 130.21 104.441C130.21 105.049 129.781 105.282 129.244 104.978C128.964 104.801 128.729 104.559 128.561 104.272C128.393 103.986 128.296 103.664 128.279 103.332C128.279 102.706 128.726 102.438 129.244 102.778Z" fill="#35AAE3"/>
<path d="M135.772 106.552C136.054 106.731 136.29 106.976 136.457 107.266C136.626 107.555 136.722 107.881 136.738 108.215C136.738 108.823 136.309 109.055 135.772 108.751C135.49 108.572 135.255 108.327 135.087 108.037C134.919 107.748 134.823 107.422 134.806 107.088C134.824 106.48 135.253 106.248 135.772 106.552Z" fill="#2FA4E1"/>
<path d="M142.3 110.325C142.581 110.502 142.815 110.744 142.983 111.03C143.151 111.317 143.248 111.639 143.266 111.971C143.266 112.597 142.819 112.829 142.3 112.525C142.017 112.346 141.781 112.102 141.613 111.812C141.445 111.522 141.349 111.196 141.334 110.862C141.334 110.236 141.764 110.003 142.3 110.325Z" fill="#289EDF"/>
<path d="M148.81 114.081C149.091 114.258 149.325 114.5 149.493 114.786C149.661 115.073 149.758 115.395 149.776 115.727C149.776 116.353 149.329 116.585 148.81 116.281C148.526 116.104 148.289 115.859 148.121 115.569C147.952 115.28 147.857 114.953 147.844 114.618C147.844 114.01 148.273 113.76 148.81 114.081Z" fill="#2197DD"/>
<path d="M155.338 117.838C155.618 118.018 155.85 118.264 156.015 118.553C156.18 118.843 156.273 119.168 156.286 119.501C156.286 120.109 155.856 120.342 155.338 120.037C155.055 119.863 154.819 119.621 154.651 119.335C154.482 119.048 154.387 118.724 154.372 118.392C154.372 117.766 154.801 117.533 155.338 117.838Z" fill="#1B92DC"/>
<path d="M129.262 95.2842C129.544 95.4689 129.778 95.7174 129.946 96.0094C130.113 96.3015 130.21 96.6289 130.228 96.9654C130.228 97.5734 129.799 97.8238 129.262 97.5019C128.986 97.3196 128.756 97.0766 128.588 96.7913C128.421 96.5061 128.321 96.1863 128.296 95.8565C128.314 95.2842 128.743 94.9623 129.262 95.2842Z" fill="#3DB2E6"/>
<path d="M135.79 99.0411C136.075 99.2239 136.313 99.4716 136.484 99.7638C136.655 100.056 136.754 100.384 136.774 100.722C136.774 101.33 136.327 101.563 135.79 101.259C135.512 101.08 135.282 100.837 135.117 100.551C134.952 100.265 134.858 99.9434 134.842 99.6134C134.842 98.9875 135.271 98.7371 135.79 99.0411Z" fill="#37ACE4"/>
<path d="M142.336 102.814C142.612 102.999 142.841 103.245 143.005 103.534C143.17 103.823 143.265 104.145 143.284 104.477C143.284 105.103 142.854 105.336 142.318 105.032C142.036 104.852 141.801 104.607 141.632 104.317C141.465 104.028 141.368 103.703 141.352 103.368C141.352 102.76 141.799 102.438 142.336 102.814Z" fill="#30A6E2"/>
<path d="M148.846 106.571C149.122 106.756 149.351 107.002 149.516 107.291C149.68 107.579 149.775 107.902 149.794 108.234C149.794 108.86 149.364 109.092 148.828 108.788C148.548 108.606 148.314 108.361 148.146 108.072C147.979 107.783 147.881 107.459 147.862 107.125C147.862 106.517 148.309 106.267 148.846 106.571Z" fill="#2AA0E0"/>
<path d="M155.356 110.342C155.638 110.522 155.873 110.767 156.041 111.056C156.209 111.346 156.305 111.671 156.321 112.005C156.344 112.126 156.328 112.25 156.277 112.361C156.226 112.472 156.141 112.564 156.035 112.625C155.929 112.686 155.807 112.712 155.685 112.7C155.563 112.689 155.448 112.64 155.356 112.56C155.076 112.377 154.844 112.131 154.676 111.843C154.508 111.554 154.41 111.23 154.39 110.897C154.39 110.271 154.819 110.02 155.356 110.342Z" fill="#2399DE"/>
<path d="M129.226 110.254C129.508 110.435 129.742 110.68 129.91 110.969C130.078 111.258 130.174 111.583 130.192 111.917C130.192 112.543 129.763 112.775 129.226 112.454C128.945 112.277 128.711 112.035 128.543 111.749C128.375 111.462 128.278 111.14 128.261 110.808C128.261 110.182 128.708 109.95 129.226 110.254Z" fill="#2CA2E1"/>
<path d="M135.754 114.028C136.036 114.208 136.271 114.453 136.44 114.742C136.608 115.032 136.704 115.357 136.72 115.691C136.72 116.3 136.291 116.55 135.754 116.228C135.475 116.049 135.243 115.807 135.075 115.521C134.907 115.235 134.809 114.913 134.788 114.583C134.788 113.957 135.236 113.724 135.754 114.028Z" fill="#269CDF"/>
<path d="M142.282 117.802C142.563 117.979 142.797 118.221 142.965 118.507C143.133 118.793 143.23 119.116 143.248 119.447C143.248 120.073 142.801 120.306 142.282 120.002C142 119.822 141.765 119.577 141.597 119.288C141.429 118.998 141.332 118.673 141.316 118.338C141.316 117.73 141.745 117.48 142.282 117.802Z" fill="#1F96DD"/>
<path d="M148.72 121.557C149.003 121.737 149.238 121.982 149.406 122.271C149.574 122.56 149.67 122.886 149.686 123.22C149.686 123.828 149.239 124.061 148.72 123.757C148.436 123.579 148.2 123.335 148.031 123.045C147.863 122.755 147.768 122.428 147.755 122.094C147.826 121.485 148.255 121.253 148.72 121.557Z" fill="#1990DB"/>
<path d="M155.32 125.313C155.596 125.498 155.825 125.744 155.99 126.033C156.154 126.322 156.249 126.645 156.268 126.976C156.268 127.584 155.838 127.835 155.302 127.531C155.024 127.347 154.792 127.101 154.624 126.812C154.457 126.524 154.358 126.2 154.336 125.868C154.336 125.242 154.783 125.009 155.32 125.313Z" fill="#1289D9"/>
<path d="M129.209 117.748C129.491 117.928 129.726 118.173 129.894 118.462C130.062 118.751 130.158 119.077 130.174 119.411C130.174 120.019 129.727 120.27 129.191 119.966C128.915 119.781 128.686 119.534 128.521 119.246C128.356 118.957 128.261 118.634 128.243 118.302C128.243 117.676 128.672 117.444 129.209 117.748Z" fill="#249ADE"/>
<path d="M135.736 121.522C136.018 121.701 136.253 121.946 136.422 122.236C136.59 122.525 136.686 122.851 136.702 123.185C136.702 123.793 136.273 124.043 135.736 123.739C135.453 123.561 135.217 123.316 135.049 123.026C134.881 122.737 134.785 122.411 134.771 122.076C134.771 121.45 135.218 121.218 135.736 121.522Z" fill="#1E94DD"/>
<path d="M142.264 125.295C142.542 125.475 142.774 125.718 142.942 126.004C143.109 126.289 143.208 126.61 143.23 126.941C143.23 127.567 142.783 127.817 142.264 127.513C141.982 127.329 141.747 127.081 141.579 126.789C141.411 126.496 141.315 126.168 141.298 125.832C141.298 125.224 141.728 124.973 142.264 125.295Z" fill="#178EDB"/>
<path d="M148.72 129.05C148.999 129.227 149.231 129.47 149.396 129.756C149.561 130.043 149.654 130.365 149.668 130.695C149.668 131.321 149.239 131.571 148.72 131.267C148.435 131.087 148.197 130.84 148.029 130.546C147.861 130.253 147.767 129.924 147.755 129.586C147.808 128.978 148.237 128.746 148.72 129.05Z" fill="#1088D9"/>
<path d="M155.302 132.842C155.58 133.025 155.811 133.271 155.975 133.56C156.14 133.849 156.234 134.173 156.25 134.505C156.25 135.113 155.821 135.364 155.284 135.06C155.001 134.881 154.765 134.636 154.597 134.347C154.429 134.057 154.333 133.731 154.318 133.396C154.318 132.735 154.766 132.502 155.302 132.842Z" fill="#0A81D7"/>
<path d="M150.726 61.4216L150.606 83.7575L119.488 66.4936L119.616 44.1577L150.726 61.4216Z" fill="#5EA0EF"/>
<path d="M150.725 61.4223L153.381 59.7773V82.1132L150.606 83.7582L150.725 61.4223Z" fill="#004375"/>
<path d="M119.608 44.1582L122.392 42.5132L153.381 59.777L150.725 61.422L119.608 44.1582Z" fill="#1D6EAA"/>
<path opacity="0.1" d="M119.608 70.7182L122.392 69.0732L153.381 86.3371L150.725 87.9821L119.608 70.7182Z" fill="#1F1D20"/>
<path d="M142.201 69.6466V71.9171L127.181 63.2123V60.9419L142.201 69.6466Z" fill="#74CFEB"/>
<path d="M144.094 65.4828V67.7532L127.19 57.909V55.7671L144.094 65.4828Z" fill="white"/>
<path d="M151.261 96.7692L151.141 119.105L120.023 101.841L120.152 79.5054L151.261 96.7692Z" fill="#5EA0EF"/>
<path d="M151.261 96.77L153.917 95.125V117.461L151.141 119.106L151.261 96.77Z" fill="#004375"/>
<path d="M120.143 79.5058L122.928 77.8608L153.917 95.1247L151.261 96.7697L120.143 79.5058Z" fill="#1D6EAA"/>
<path opacity="0.1" d="M120.143 106.066L122.928 104.421L153.917 121.685L151.261 123.33L120.143 106.066Z" fill="#1F1D20"/>
<path d="M142.736 104.994V107.265L127.717 98.56V96.2896L142.736 104.994Z" fill="#74CFEB"/>
<path d="M144.63 100.83V103.101L127.726 93.2567V91.1147L144.63 100.83Z" fill="white"/>
<path d="M57.1007 58.1408L58.9591 54.3905C57.6394 53.8522 59.9459 54.451 58.7473 54.3119C56.8222 54.0942 55.0727 54.4026 53.5774 55.1829L48.1412 58.0017C50.5687 56.7314 53.6803 56.7254 57.1007 58.1408Z" fill="#CDCDD0"/>
<path d="M70.1404 51.6441C73.5971 53.8519 76.6482 57.4993 78.7549 61.5883L81.5941 57.8622C81.0977 56.8944 83.1377 56.8581 82.5384 55.9629C80.6073 53.0414 78.204 50.519 75.5706 48.8254C72.0655 46.5752 68.8207 46.2123 66.4416 47.4523L61.0054 50.271C63.3845 49.031 66.6354 49.4 70.1404 51.6441Z" fill="#CDCDD0"/>
<path d="M101.801 55.6237L107.238 52.805C100.808 48.6737 94.8577 47.9962 90.5111 50.2585L85.0749 53.0833C89.4215 50.821 95.3723 51.4924 101.801 55.6237Z" fill="#CDCDD0"/>
<path d="M146.908 130.12C147.38 120.787 141.084 108.889 132.869 103.626C130.678 102.217 128.583 101.461 126.646 101.225L121.21 104.05C123.141 104.28 125.229 105.048 127.433 106.445C135.642 111.708 141.943 123.593 141.471 132.939C141.247 137.469 139.468 140.59 136.762 141.988L142.198 139.169C144.904 137.754 146.684 134.651 146.908 130.12Z" fill="#CDCDD0"/>
<path d="M123.153 95.9076C122.989 99.1195 122.299 101.835 121.222 104.049L126.658 101.23C127.741 99.0227 128.432 96.3128 128.589 93.0828C129.303 78.844 119.745 60.8066 107.244 52.792L101.807 55.6168C114.308 63.6374 123.861 81.6627 123.153 95.9076Z" fill="#CDCDD0"/>
<g opacity="0.8">
<path opacity="0.2" d="M129.758 140.89C129.975 140.962 130.164 141.101 130.299 141.287C130.433 141.472 130.506 141.695 130.508 141.925C130.509 142.154 130.438 142.378 130.306 142.565C130.174 142.752 129.986 142.893 129.77 142.968L127.519 144.276C126.965 144.554 126.354 144.698 125.734 144.696C125.114 144.694 124.504 144.546 123.952 144.264L80.3818 116.418C80.1685 116.345 79.9834 116.207 79.8519 116.024C79.7204 115.841 79.6491 115.621 79.6479 115.396C79.6466 115.17 79.7154 114.95 79.8449 114.765C79.9743 114.58 80.1579 114.441 80.3702 114.365L82.621 113.057C83.1727 112.775 83.7832 112.626 84.4028 112.624C85.0225 112.622 85.6339 112.766 86.1875 113.044L129.758 140.89Z" fill="#003067"/>
<path opacity="0.8" d="M78.7488 61.588C76.6421 57.499 73.5911 53.8516 70.1344 51.6438C63.3179 47.2706 57.5003 50.0227 57.1129 57.7833C57.1068 57.8861 57.1008 58.0434 57.0947 58.1462C49.4792 55.0009 43.4133 58.9084 42.9593 67.9936C42.4448 78.3007 49.3823 91.3902 58.4265 97.1849L125.744 140.343C133.953 145.605 141.005 142.272 141.465 132.939C141.937 123.606 135.635 111.708 127.427 106.446C125.235 105.036 123.141 104.28 121.203 104.05C122.287 101.842 122.971 99.1326 123.135 95.9026C123.843 81.6638 114.29 63.6324 101.789 55.6118C91.0076 48.692 81.5698 51.4926 78.7488 61.588Z" fill="#2E76BC"/>
</g>
<path d="M59.0562 57.8674L59.0501 58.0368L59.0441 58.2122C59.0138 58.8473 58.6748 59.4098 58.1421 59.7486C57.797 59.9603 57.4096 60.0692 57.0161 60.051C56.7981 60.0389 56.5681 59.9966 56.3683 59.9058C55.0304 59.3554 53.7471 59.0409 52.5424 58.9864C48.0566 58.7808 45.2053 62.1681 44.9147 68.0596C44.6847 72.705 46.077 78.1308 48.8375 83.3508C51.6101 88.5709 55.3876 92.9079 59.4981 95.5331L126.797 138.703C128.886 140.052 130.962 140.802 132.778 140.881C136.743 141.068 139.268 138.056 139.534 132.836C139.74 128.668 138.481 123.775 135.987 119.063C133.48 114.339 130.078 110.437 126.379 108.072C124.521 106.881 122.705 106.173 120.973 105.955C120.35 105.87 119.799 105.501 119.502 104.951C119.206 104.394 119.182 103.735 119.472 103.173C120.483 101.11 121.07 98.6361 121.216 95.7931C121.543 89.2484 119.593 81.6209 115.725 74.32C111.844 67.0071 106.535 60.9341 100.766 57.2323C97.4125 55.091 94.089 53.8752 91.1408 53.7361C85.9407 53.4942 82.1995 56.452 80.6376 62.0894C80.4258 62.8576 79.7538 63.4202 78.9608 63.4928C78.87 63.4988 78.761 63.5109 78.6702 63.5049C77.9861 63.4746 77.3565 63.0814 77.0357 62.4524C75.0258 58.5449 72.1322 55.1999 69.0932 53.2462C67.3982 52.1574 65.7395 51.5525 64.2866 51.4799C59.8674 51.3106 59.153 55.8895 59.0562 57.8674ZM70.1466 51.6432C73.6032 53.8571 76.6543 57.4984 78.761 61.5934C80.6013 55.0184 85.2385 51.5344 91.2256 51.8126C94.4461 51.9638 98.036 53.1917 101.813 55.6112C114.32 63.6319 123.873 81.6572 123.165 95.9081C123.001 99.126 122.311 101.836 121.234 104.05C123.171 104.286 125.253 105.048 127.457 106.451C135.642 111.707 141.937 123.593 141.477 132.939C141.15 139.477 137.603 143.058 132.693 142.828C130.587 142.732 128.22 141.921 125.75 140.342L58.4326 97.1844C49.3763 91.3776 42.4448 78.3001 42.9654 67.993C43.3226 60.7708 47.2272 56.8331 52.6211 57.0811C54.0195 57.1416 55.5269 57.4984 57.0948 58.1457C57.1008 58.0428 57.1069 57.8795 57.1129 57.7767C57.3914 52.357 60.3032 49.381 64.3774 49.5746C66.1208 49.6532 68.0883 50.3307 70.1466 51.6432Z" fill="white"/>
<path d="M107.916 93.1444C107.782 93.0779 107.649 93.0416 107.528 93.0356C107.425 93.0295 107.341 93.0477 107.268 93.084C107.11 93.1747 107.056 93.3743 107.05 93.5255C107.02 94.1485 107.431 94.9409 108.006 95.3583C108.236 95.4793 108.497 95.5156 108.666 95.4188C108.83 95.322 108.878 95.1284 108.884 94.9772V94.9409C108.993 94.3482 108.479 93.5679 107.916 93.1444Z" fill="white"/>
<path d="M107.722 98.0142C107.576 97.9295 107.425 97.8871 107.292 97.8811C107.201 97.8751 107.104 97.8871 107.032 97.9295C106.874 98.0263 106.82 98.2198 106.814 98.365C106.783 98.9941 107.195 99.7804 107.77 100.198C108.006 100.325 108.261 100.355 108.436 100.264C108.593 100.174 108.648 99.974 108.654 99.8228C108.684 99.1695 108.236 98.3045 107.722 98.0142Z" fill="white"/>
<path d="M108.43 86.194C108.666 86.321 108.92 86.3513 109.09 86.2545C109.253 86.1698 109.302 85.9641 109.308 85.8129V85.7766C109.429 85.1355 108.993 84.2947 108.382 84.0043C108.23 83.9136 108.079 83.8773 107.94 83.8713C107.849 83.8652 107.752 83.8834 107.685 83.9197C107.528 84.0104 107.473 84.21 107.467 84.3612C107.449 84.9721 107.855 85.7585 108.43 86.194Z" fill="white"/>
<path d="M108.206 90.9357C108.442 91.0627 108.697 91.093 108.866 90.9962C109.03 90.8994 109.078 90.7059 109.084 90.5607V90.5183C109.193 89.9195 108.794 89.1513 108.14 88.7279C108.001 88.6493 107.855 88.6069 107.728 88.6069C107.637 88.6009 107.54 88.613 107.468 88.6553C107.304 88.7521 107.256 88.9457 107.25 89.0908C107.226 89.7139 107.637 90.5002 108.206 90.9357Z" fill="white"/>
<path d="M107.498 102C107.365 101.934 107.231 101.898 107.11 101.892C107.007 101.885 106.923 101.904 106.85 101.94C106.693 102.031 106.638 102.23 106.632 102.381C106.602 102.998 107.007 103.785 107.582 104.214C107.812 104.335 108.073 104.372 108.242 104.275C108.4 104.184 108.454 103.984 108.46 103.833C108.497 103.21 108.073 102.424 107.498 102Z" fill="white"/>
<path d="M107.304 106.863C107.153 106.784 107.007 106.742 106.874 106.736C106.783 106.73 106.687 106.742 106.614 106.784C106.451 106.869 106.402 107.075 106.396 107.22C106.366 107.849 106.777 108.635 107.353 109.053C107.589 109.18 107.843 109.21 108.012 109.113C108.176 109.016 108.224 108.829 108.23 108.677C108.267 108.012 107.819 107.153 107.304 106.863Z" fill="white"/>
<path d="M104.023 90.7421C103.89 90.6756 103.757 90.6393 103.636 90.6332C103.533 90.6272 103.448 90.6453 103.375 90.6816C103.218 90.7844 103.163 90.972 103.157 91.1232C103.127 91.7764 103.569 92.5446 104.205 92.9499C104.447 93.089 104.707 93.1193 104.877 93.0225C105.04 92.9378 105.076 92.7503 105.094 92.6051C105.01 91.9277 104.568 91.1474 104.023 90.7421Z" fill="white"/>
<path d="M103.799 95.4867C103.666 95.4202 103.533 95.3839 103.412 95.3779C103.309 95.3718 103.224 95.39 103.151 95.4262C102.994 95.517 102.94 95.7166 102.933 95.8678C102.903 96.5211 103.345 97.2893 103.981 97.6945C104.223 97.8337 104.483 97.8639 104.653 97.7671C104.81 97.6824 104.853 97.4949 104.871 97.3498C104.786 96.6662 104.344 95.898 103.799 95.4867Z" fill="white"/>
<path d="M104.477 81.6032C104.326 81.5185 104.18 81.4762 104.047 81.4701C103.956 81.4641 103.859 81.4822 103.787 81.5185C103.629 81.6093 103.575 81.8089 103.569 81.9601C103.539 82.6013 103.993 83.3815 104.616 83.7868C104.858 83.9199 105.119 83.9562 105.288 83.8594C105.446 83.7687 105.5 83.5691 105.506 83.4178C105.542 82.813 105.034 81.9117 104.477 81.6032Z" fill="white"/>
<path d="M104.235 86.3215C104.102 86.255 103.968 86.2126 103.847 86.2126C103.744 86.2066 103.66 86.2187 103.587 86.261C103.424 86.3578 103.375 86.5514 103.369 86.6965C103.339 87.3559 103.781 88.1241 104.416 88.5233C104.659 88.6624 104.919 88.6987 105.088 88.6019C105.246 88.5112 105.288 88.3297 105.306 88.1845C105.215 87.5071 104.774 86.7268 104.235 86.3215Z" fill="white"/>
<path d="M103.605 99.5992C103.472 99.5266 103.339 99.4903 103.218 99.4843C103.115 99.4782 103.03 99.4964 102.958 99.5387C102.794 99.6234 102.746 99.8291 102.74 99.9742C102.709 100.621 103.163 101.402 103.787 101.801C104.029 101.94 104.289 101.97 104.459 101.874C104.622 101.789 104.659 101.607 104.677 101.456C104.592 100.785 104.138 99.9924 103.605 99.5992Z" fill="white"/>
<path d="M103.387 104.341C103.254 104.275 103.121 104.239 103 104.233C102.897 104.227 102.812 104.245 102.74 104.281C102.582 104.384 102.528 104.571 102.522 104.723C102.491 105.376 102.933 106.144 103.569 106.549C103.811 106.688 104.071 106.719 104.241 106.622C104.398 106.537 104.441 106.35 104.459 106.204C104.368 105.527 103.926 104.747 103.387 104.341Z" fill="white"/>
<path d="M100.119 88.3478C99.9853 88.2813 99.8521 88.245 99.7311 88.2389C99.6282 88.2329 99.5434 88.251 99.4708 88.2873C99.3073 88.3841 99.2589 88.5777 99.2528 88.7289C99.2226 89.3519 99.6342 90.1383 100.209 90.5556C100.445 90.6826 100.7 90.7189 100.875 90.6222C101.039 90.5254 101.087 90.3318 101.093 90.1806C101.117 89.5636 100.694 88.7712 100.119 88.3478Z" fill="white"/>
<path d="M99.8036 93.0968C99.6643 93.0182 99.519 92.9758 99.3919 92.9758C99.3011 92.9698 99.2042 92.9819 99.1316 93.0242C98.9742 93.1089 98.9197 93.3146 98.9137 93.4597C98.8834 94.0888 99.295 94.8751 99.8702 95.2925C100.106 95.4195 100.36 95.4498 100.53 95.353C100.693 95.2562 100.742 95.0626 100.748 94.9175V94.8751C100.875 94.2763 100.463 93.5142 99.8036 93.0968Z" fill="white"/>
<path d="M100.585 79.2031C100.433 79.1184 100.288 79.076 100.155 79.07C100.064 79.0639 99.967 79.0821 99.8944 79.1184C99.737 79.2091 99.6825 79.4087 99.6764 79.5599C99.6462 80.183 100.058 80.9754 100.633 81.3927C100.863 81.5137 101.123 81.55 101.293 81.4532C101.45 81.3625 101.505 81.1629 101.511 81.0116C101.547 80.3523 101.099 79.4874 100.585 79.2031Z" fill="white"/>
<path d="M100.33 83.9271C100.197 83.8545 100.064 83.8182 99.9367 83.8122C99.8338 83.8061 99.749 83.8243 99.6764 83.8666C99.519 83.9634 99.4645 84.1569 99.4584 84.3021C99.4282 84.9251 99.8398 85.7175 100.415 86.1349C100.651 86.2619 100.905 86.2922 101.081 86.1954C101.238 86.1107 101.293 85.905 101.299 85.7599C101.323 85.1308 100.905 84.3445 100.33 83.9271Z" fill="white"/>
<path d="M99.6098 97.2032C99.4706 97.1246 99.3253 97.0883 99.1981 97.0823C99.1073 97.0762 99.0105 97.0883 98.9378 97.1307C98.7744 97.2153 98.726 97.421 98.7199 97.5722C98.6896 98.1952 99.1013 98.9816 99.6764 99.3989C99.9125 99.526 100.167 99.5562 100.342 99.4655C100.5 99.3748 100.554 99.1751 100.56 99.0239V98.9816C100.681 98.3828 100.27 97.6146 99.6098 97.2032Z" fill="white"/>
<path d="M99.3798 101.926C99.2466 101.859 99.1134 101.823 98.9924 101.817C98.8895 101.811 98.8047 101.829 98.7321 101.865C98.5747 101.956 98.5202 102.156 98.5141 102.307C98.4839 102.93 98.8955 103.722 99.4706 104.14C99.7007 104.261 99.961 104.297 100.13 104.2C100.288 104.11 100.342 103.91 100.348 103.759V103.722C100.457 103.136 99.9428 102.349 99.3798 101.926Z" fill="white"/>
<path d="M96.1652 85.97C96.0138 85.8733 95.8564 85.8309 95.7232 85.8249C95.6324 85.8188 95.5356 85.837 95.469 85.8733C95.3116 85.9761 95.2571 86.1636 95.251 86.3148C95.2208 86.9378 95.6324 87.7302 96.2075 88.1476C96.4436 88.2746 96.6979 88.3049 96.8734 88.2081C97.0308 88.1234 97.0853 87.9177 97.0914 87.7665V87.7302C97.2064 87.1012 96.7645 86.2604 96.1652 85.97Z" fill="white"/>
<path d="M95.8928 90.688C95.7597 90.6215 95.6265 90.5791 95.5054 90.5791C95.4025 90.567 95.3177 90.5852 95.2451 90.6275C95.0877 90.7243 95.0332 90.9178 95.0272 91.063C94.9969 91.6921 95.4085 92.4784 95.9836 92.8958C96.2197 93.0228 96.474 93.0531 96.6435 92.9563C96.807 92.8595 96.8554 92.6659 96.8614 92.5208V92.4784C96.9704 91.8796 96.4558 91.0993 95.8928 90.688Z" fill="white"/>
<path d="M96.6313 78.9893C96.8613 79.1103 97.1216 79.1465 97.2911 79.0498C97.4485 78.959 97.503 78.7594 97.5091 78.6082V78.5659C97.6362 77.9307 97.1943 77.09 96.5828 76.7996C96.4315 76.7089 96.2741 76.6605 96.1409 76.6545C96.0501 76.6484 95.9532 76.6666 95.8867 76.7089C95.7293 76.7936 95.6748 76.9932 95.6687 77.1444C95.6445 77.7614 96.0562 78.5538 96.6313 78.9893Z" fill="white"/>
<path d="M96.3711 81.5421C96.2198 81.4514 96.0684 81.4091 95.9292 81.397C95.8384 81.397 95.7415 81.4091 95.675 81.4514C95.5176 81.5361 95.4631 81.7418 95.457 81.893C95.4268 82.516 95.8384 83.3023 96.4135 83.7197C96.698 83.8588 97.0068 83.8891 97.1884 83.7741C97.3155 83.7016 97.3881 83.5564 97.3942 83.3507C97.4184 82.7458 97.0007 81.8506 96.3711 81.5421Z" fill="white"/>
<path d="M95.7293 94.8081C95.578 94.7234 95.4327 94.6811 95.2995 94.675C95.2087 94.669 95.1118 94.6811 95.0452 94.7234C94.8879 94.8142 94.8334 95.0138 94.8273 95.165C94.797 95.788 95.2087 96.5804 95.7838 96.9978C96.0199 97.1248 96.2741 97.155 96.4497 97.0583C96.6071 96.9615 96.6616 96.7679 96.6676 96.6167C96.6919 95.9634 96.2439 95.1045 95.7293 94.8081Z" fill="white"/>
<path d="M95.4752 99.5319C95.342 99.4654 95.2088 99.4291 95.0877 99.423C94.9848 99.417 94.9001 99.4351 94.8274 99.4714C94.67 99.5621 94.6155 99.7618 94.6095 99.913C94.5792 100.536 94.9909 101.322 95.566 101.74C95.8021 101.867 96.0563 101.903 96.2319 101.806C96.3893 101.716 96.4438 101.516 96.4498 101.365C96.468 100.748 96.0624 99.9614 95.4752 99.5319Z" fill="white"/>
<path d="M92.2545 83.5626C92.1153 83.4839 91.9579 83.4416 91.8247 83.4355C91.7339 83.4295 91.6371 83.4416 91.5644 83.4839C91.401 83.5807 91.3525 83.7743 91.3465 83.9194C91.3162 84.5667 91.7702 85.347 92.3938 85.7462C92.6359 85.8853 92.9083 85.9216 93.0657 85.8248C93.2231 85.7341 93.2655 85.5526 93.2837 85.4014C93.2171 84.7481 92.7873 83.859 92.2545 83.5626Z" fill="white"/>
<path d="M92.0003 88.2817C91.8672 88.2151 91.734 88.1788 91.6129 88.1728C91.51 88.1667 91.4252 88.1849 91.3526 88.2212C91.1891 88.3179 91.1407 88.5115 91.1347 88.6627C91.1044 89.3039 91.5584 90.0842 92.1819 90.4895C92.4241 90.6286 92.6965 90.6588 92.8539 90.562C93.0174 90.4774 93.0537 90.2898 93.0718 90.1447C92.9931 89.4612 92.5452 88.693 92.0003 88.2817Z" fill="white"/>
<path d="M92.6662 74.2786C92.5209 74.1939 92.3817 74.1576 92.2546 74.1515C92.1638 74.1455 92.0669 74.1636 91.9943 74.1999C91.8369 74.3028 91.7824 74.4903 91.7763 74.6415C91.7461 75.2887 92.2001 76.069 92.8236 76.4682C93.0658 76.6073 93.3382 76.6376 93.4956 76.5408C93.659 76.444 93.7075 76.2505 93.7135 76.1053C93.7559 75.4581 93.314 74.6838 92.6662 74.2786Z" fill="white"/>
<path d="M92.4605 79.1357C92.3091 79.051 92.1639 79.0086 92.0307 79.0026C91.9399 78.9966 91.843 79.0147 91.7764 79.057C91.619 79.1417 91.5645 79.3474 91.5585 79.4925C91.5282 80.1398 91.9822 80.9201 92.6058 81.3193C92.8479 81.4584 93.1203 81.4947 93.2777 81.3919C93.4412 81.3072 93.4896 81.1015 93.4957 80.9563C93.5259 80.3515 93.0114 79.4442 92.4605 79.1357Z" fill="white"/>
<path d="M91.8369 92.4125C91.6856 92.3279 91.5403 92.2855 91.4071 92.2795C91.3163 92.2734 91.2195 92.2916 91.1529 92.3279C90.9955 92.4186 90.941 92.6182 90.9349 92.7694C90.9047 93.4166 91.3587 94.1969 91.9822 94.5961C92.2244 94.7353 92.4968 94.7655 92.6542 94.6687C92.8176 94.584 92.854 94.3965 92.8721 94.2514C92.7995 93.5981 92.3757 92.715 91.8369 92.4125Z" fill="white"/>
<path d="M91.5826 97.1364C91.4494 97.0699 91.3162 97.0336 91.1951 97.0275C91.0922 97.0215 91.0075 97.0396 90.9348 97.0759C90.7774 97.1666 90.723 97.3662 90.7169 97.5175C90.6866 98.1586 91.1407 98.9389 91.7642 99.3442C92.0063 99.4833 92.2788 99.5136 92.4362 99.4168C92.5936 99.3321 92.6359 99.1446 92.6541 98.9994C92.5754 98.328 92.1153 97.5296 91.5826 97.1364Z" fill="white"/>
<path d="M88.3501 81.1574C88.1685 81.0425 88.005 80.9759 87.8719 80.9699C87.7992 80.9638 87.7387 80.9699 87.6842 81.0001C87.545 81.0606 87.4663 81.2481 87.4542 81.4961C87.4239 82.1191 87.8355 82.9115 88.4106 83.3289C88.6467 83.4559 88.901 83.4862 89.0765 83.3894C89.2339 83.3047 89.2884 83.099 89.2945 82.9539C89.3126 82.3127 88.8647 81.4477 88.3501 81.1574Z" fill="white"/>
<path d="M88.0352 85.8982C87.8839 85.8074 87.7325 85.7651 87.5933 85.759C87.5025 85.753 87.4056 85.7651 87.339 85.8074C87.1756 85.9042 87.1272 86.0978 87.1211 86.249C87.0908 86.872 87.5025 87.6583 88.0776 88.0818C88.3076 88.2027 88.568 88.239 88.7375 88.1422C88.8949 88.0515 88.9493 87.8519 88.9554 87.7007V87.6644C89.0825 87.0414 88.6406 86.2006 88.0352 85.8982Z" fill="white"/>
<path d="M88.7554 71.8698C88.6222 71.8032 88.4891 71.7669 88.368 71.7609C88.2651 71.7549 88.1803 71.773 88.1077 71.8153C87.9503 71.9121 87.8958 72.0996 87.8897 72.2508C87.8595 72.8739 88.2711 73.6663 88.8462 74.0836C89.0823 74.2106 89.3366 74.2409 89.5121 74.1441C89.6695 74.0594 89.724 73.8538 89.7301 73.7086C89.7482 73.0795 89.3366 72.2932 88.7554 71.8698Z" fill="white"/>
<path d="M88.5558 76.7416C88.4045 76.657 88.2592 76.6146 88.126 76.6086C88.0352 76.6025 87.9383 76.6207 87.8717 76.657C87.7143 76.7477 87.6599 76.9473 87.6538 77.0985C87.6235 77.7215 88.0352 78.5139 88.6103 78.9313C88.8464 79.0583 89.1006 79.0886 89.2701 78.9918C89.4275 78.9071 89.482 78.7014 89.4881 78.5563C89.5244 77.8909 89.0764 77.0199 88.5558 76.7416Z" fill="white"/>
<path d="M88.2048 92.2666C88.338 92.2969 88.4469 92.2848 88.5317 92.2243C88.8344 92.0186 88.8647 91.3351 88.4469 90.6819C88.1866 90.1798 87.775 89.8774 87.4905 89.7988C87.4481 89.7867 87.4057 89.7867 87.3694 89.7867C87.3089 89.7806 87.2362 89.7867 87.1817 89.829C86.879 90.0286 86.8488 90.7182 87.2725 91.3654C87.5268 91.8614 87.884 92.188 88.2048 92.2666Z" fill="white"/>
<path d="M87.6173 94.7479C87.4659 94.6511 87.3146 94.6088 87.1753 94.6027C87.0845 94.5967 86.9877 94.6148 86.9211 94.6511C86.7637 94.7418 86.7092 94.9414 86.7031 95.0927C86.6729 95.7157 87.0845 96.5081 87.6596 96.9254C87.8957 97.0525 88.15 97.0827 88.3195 96.9859C88.4769 96.9012 88.5314 96.6956 88.5374 96.5444V96.5081C88.6645 95.885 88.2287 95.0503 87.6173 94.7479Z" fill="white"/>
<path d="M94.0299 113.146C94.199 113.59 94.3996 114.022 94.6302 114.438C94.4259 114.049 94.2518 113.645 94.1095 113.229C94.0839 113.198 94.0552 113.177 94.0299 113.146Z" fill="#0078D4"/>
<path d="M94.0299 73.189C94.199 73.6336 94.3996 74.0656 94.6302 74.4817C94.4259 74.0924 94.2518 73.688 94.1095 73.272C94.0839 73.2416 94.0552 73.2199 94.0299 73.189Z" fill="#0078D4"/>
<path opacity="0.2" d="M77.7482 148.342C77.9656 148.415 78.1547 148.554 78.2892 148.739C78.4237 148.925 78.4966 149.148 78.4979 149.377C78.4992 149.606 78.4288 149.83 78.2964 150.017C78.1641 150.204 77.9765 150.345 77.76 150.42L75.5092 151.728C74.9555 152.007 74.3441 152.151 73.7244 152.149C73.1047 152.146 72.4942 151.998 71.9425 151.716L38.3834 132.341C38.1702 132.267 37.985 132.13 37.8535 131.946C37.7221 131.763 37.6508 131.544 37.6495 131.318C37.6482 131.093 37.7171 130.872 37.8465 130.688C37.9759 130.503 38.1595 130.363 38.3719 130.287L40.6227 128.979C41.1744 128.697 41.7848 128.549 42.4044 128.547C43.0241 128.545 43.6355 128.688 44.1892 128.967L77.7482 148.342Z" fill="#003067"/>
<path d="M69.7078 81.7341C62.6202 77.6421 56.1948 77.2611 51.5546 79.9578L46.4525 82.9225C51.0927 80.226 57.5185 80.6069 64.6057 84.6989C72.0184 89.5135 78.1866 96.0139 82.6061 103.669C87.0255 111.324 89.5709 119.916 90.0341 128.742C90.0112 136.778 87.175 142.433 82.5984 145.092L87.7002 142.128C92.2768 139.468 95.1132 133.814 95.1359 125.778C94.6727 116.951 92.1274 108.359 87.708 100.704C83.2885 93.0493 77.1204 86.5488 69.7078 81.7341Z" fill="#E8E8E8"/>
<path d="M73.0809 115.993C74.021 116.394 74.7324 115.883 74.7355 114.768C74.7045 114.158 74.5416 113.563 74.2581 113.023C73.9745 112.483 73.5771 112.01 73.0933 111.639L72.8313 111.47L56.2551 101.899L55.9932 101.766C55.0529 101.365 54.3417 101.876 54.3384 102.991C54.3694 103.601 54.5323 104.196 54.8158 104.736C55.0993 105.277 55.4968 105.749 55.9806 106.12L56.2424 106.289L72.8186 115.86L73.0806 115.993L73.0809 115.993ZM67.9523 123.299C68.8924 123.7 69.6038 123.188 69.6069 122.073C69.5739 121.464 69.4101 120.869 69.1267 120.33C68.8434 119.79 68.447 119.317 67.9646 118.944L67.7027 118.775L56.2257 112.149L55.9637 112.015C55.0234 111.632 54.3122 112.125 54.3091 113.241C54.3401 113.85 54.503 114.445 54.7865 114.986C55.0701 115.526 55.4675 115.998 55.9514 116.37L56.2131 116.539L67.6901 123.165L67.9521 123.298" fill="#0078D4"/>
<path d="M64.6054 84.6987C72.018 89.5134 78.1861 96.0138 82.6055 103.669C87.025 111.323 89.5703 119.915 90.0336 128.742C89.9877 144.922 78.5352 151.448 64.439 143.31C59.9379 140.62 55.9336 137.174 52.6017 133.125L41.6545 130.085C41.4579 130.029 41.2692 129.948 41.093 129.845C40.5613 129.497 40.1036 129.048 39.7461 128.523C39.3886 127.998 39.1384 127.407 39.0098 126.785C38.9177 126.371 38.919 125.941 39.0134 125.528L41.8988 114.605C40.0611 109.702 39.0839 104.519 39.0104 99.2844C39.0567 83.0869 50.5247 76.5692 64.6054 84.6987ZM73.0806 115.993C74.0207 116.394 74.7321 115.883 74.7352 114.768C74.7042 114.159 74.5413 113.563 74.2578 113.023C73.9742 112.483 73.5768 112.01 73.093 111.639L72.831 111.47L56.2548 101.899L55.9928 101.766C55.0526 101.365 54.3414 101.876 54.338 102.992C54.3691 103.601 54.532 104.196 54.8155 104.736C55.099 105.277 55.4964 105.749 55.9803 106.121L56.2421 106.289L72.8183 115.86L73.0803 115.993L73.0806 115.993ZM67.952 123.299C68.892 123.7 69.6035 123.188 69.6066 122.073C69.5736 121.464 69.4098 120.87 69.1264 120.33C68.843 119.79 68.4467 119.317 67.9643 118.944L67.7024 118.775L56.2254 112.149L55.9634 112.015C55.0231 111.632 54.3119 112.126 54.3088 113.241C54.3398 113.85 54.5027 114.446 54.7862 114.986C55.0698 115.526 55.4672 115.998 55.9511 116.37L56.2128 116.539L67.6898 123.165L67.9518 123.299" fill="url(#paint2_linear_1076_850)"/>
<defs>
<linearGradient id="paint0_linear_1076_850" x1="90.3153" y1="9.57129" x2="90.3153" y2="180.971" gradientUnits="userSpaceOnUse">
<stop stop-color="#00ABDE"/>
<stop offset="1" stop-color="#007ED8"/>
</linearGradient>
<linearGradient id="paint1_linear_1076_850" x1="36.4351" y1="4.36261" x2="203.112" y2="286.693" gradientUnits="userSpaceOnUse">
<stop stop-color="#007ED8"/>
<stop offset="0.7065" stop-color="#002D4C"/>
</linearGradient>
<linearGradient id="paint2_linear_1076_850" x1="64.488" y1="144.458" x2="64.488" y2="82.6295" gradientUnits="userSpaceOnUse">
<stop stop-color="#F2F2F2"/>
<stop offset="0.44" stop-color="#FBFBFB"/>
<stop offset="1" stop-color="white"/>
</linearGradient>
</defs>
</svg>
