<svg width="160" height="188" viewBox="0 0 160 188" fill="none" xmlns="http://www.w3.org/2000/svg">
<g clip-path="url(#clip0)">
<path d="M80.0336 188C83.1149 187.994 86.1353 187.141 88.764 185.534L150.739 147.874C153.52 146.11 155.805 143.665 157.375 140.771C158.945 137.876 159.749 134.628 159.711 131.336V56.6207C159.748 53.3283 158.942 50.0812 157.372 47.1871C155.802 44.2929 153.519 41.8476 150.739 40.0829L88.764 2.4228C86.1306 0.837605 83.115 0 80.0412 0C76.9675 0 73.9519 0.837605 71.3184 2.4228L9.34332 40.098C6.56021 41.8604 4.27367 44.3048 2.7007 47.1991C1.12773 50.0935 0.320534 53.3418 0.355717 56.6358V131.336C0.337185 134.119 0.911901 136.874 2.04159 139.418C3.17128 141.962 4.83001 144.236 6.90732 146.089V146.115L71.3184 185.549C73.9441 187.149 76.9589 187.996 80.0336 188V188ZM80.6814 6.95218C82.6333 6.95218 85.1105 8.1651 86.8203 9.20912L147.577 46.4034C151.329 48.6881 153.445 55.2842 153.445 60.0352L152.813 131.336C152.813 136.087 149.614 140.355 145.861 142.64L85.4661 179.021C82.0315 181.109 79.2411 181.109 75.8064 179.021L14.5984 142.549C10.846 140.265 7.82763 136.072 7.82763 131.336V57.688C7.86014 55.3228 8.46913 53.0013 9.60179 50.9247C10.7345 48.8482 12.3566 47.0792 14.3275 45.7714L74.9037 9.20912C76.6134 8.1651 78.7296 6.95218 80.6814 6.95218Z" fill="#F2F1F0"/>
<path fill-rule="evenodd" clip-rule="evenodd" d="M87.9322 10.5328C85.5613 9.05928 82.8255 8.27838 80.034 8.27838C77.2425 8.27838 74.5067 9.05928 72.1358 10.5328L16.0011 44.8642C13.475 46.4759 11.4027 48.7062 9.98071 51.3437C8.55871 53.9812 7.83422 56.9382 7.87598 59.9343V128.038C7.83605 131.033 8.56134 133.99 9.98317 136.627C11.405 139.264 13.4763 141.495 16.0011 143.108L72.1358 177.439C74.5065 178.912 77.2424 179.694 80.034 179.694C82.8255 179.694 85.5614 178.912 87.9322 177.439L144.066 143.108C146.591 141.495 148.663 139.264 150.085 136.627C151.507 133.99 152.232 131.033 152.192 128.038V59.9343C152.231 56.9388 151.504 53.983 150.083 51.3461C148.661 48.7092 146.59 46.4784 144.066 44.8642L87.9322 10.5328Z" fill="url(#paint0_linear)"/>
<path fill-rule="evenodd" clip-rule="evenodd" d="M80.034 9.75432C81.7172 9.75432 83.5999 10.62 85.6667 11.8781L144.132 47.4205C146.024 48.6339 147.573 50.3108 148.634 52.2919C149.695 54.2729 150.231 56.4922 150.192 58.739V129.218C150.231 131.464 149.695 133.684 148.634 135.664C147.573 137.645 146.024 139.322 144.132 140.536L85.6677 176.078L85.6667 176.079C83.9965 177.218 82.0515 177.889 80.034 178.022C78.0166 177.889 76.0716 177.218 74.4013 176.079L74.4003 176.078L15.938 140.538L15.9358 140.537C14.1475 139.573 12.6225 138.186 11.494 136.497C10.5171 134.894 9.87603 132.679 9.87603 129.218V58.739C9.83728 56.4923 10.3737 54.273 11.4342 52.292C12.4948 50.311 14.0442 48.6341 15.9354 47.4206L74.3922 11.8835L74.3963 11.8811C76.4801 10.6281 78.3403 9.75432 80.034 9.75432ZM87.7465 8.46132L146.21 44.0026C148.689 45.5727 150.724 47.7514 152.121 50.3311C153.518 52.9109 154.231 55.8055 154.192 58.7391V129.218C154.231 132.151 153.518 135.046 152.121 137.626C150.724 140.205 148.689 142.384 146.21 143.955L87.7455 179.496C85.4513 181.021 82.7859 181.894 80.034 182.022C77.2821 181.894 74.6167 181.021 72.3224 179.496H72.3215L13.8577 143.954L13.8552 143.953C11.52 142.66 9.53668 140.814 8.07853 138.579C6.48395 135.725 5.72092 132.482 5.87603 129.218V58.739C5.83696 55.8054 6.55007 52.9107 7.94736 50.331C9.34465 47.7512 11.3795 45.5724 13.8579 44.0024L72.3224 8.46067L72.3306 8.45579C74.4212 7.19838 77.1291 5.75433 80.034 5.75433C82.9202 5.75433 85.6373 7.17741 87.7465 8.46127V8.46132Z" fill="#0078D4"/>
<path opacity="0.2" d="M139.966 132.026L80.4157 166.633L20.4767 132.027L80.0267 97.42L139.966 132.026Z" fill="#003067"/>
<path d="M140.957 120.649L80.2337 155.937L19.1227 120.654L79.8447 85.366L140.957 120.649Z" fill="#1B93EB"/>
<path d="M140.957 120.649L140.945 124.755L80.2227 160.043L80.2337 155.937L140.957 120.649Z" fill="#1F56A3"/>
<path d="M80.2337 155.937L80.2227 160.043L19.1107 124.76L19.1227 120.654L80.2337 155.937Z" fill="#0078D4"/>
<path opacity="0.2" d="M104.897 120.357C106.487 121.275 106.496 122.764 104.916 123.682C104.027 124.134 103.044 124.37 102.046 124.37C101.048 124.37 100.065 124.134 99.1759 123.682L74.7547 109.582C73.1648 108.664 73.1564 107.175 74.7359 106.257C75.6249 105.805 76.6084 105.569 77.606 105.569C78.6036 105.569 79.5871 105.805 80.4762 106.257L104.897 120.357Z" fill="#003067"/>
<path d="M89.7783 36.4782C90.4507 36.8897 90.998 37.4771 91.3609 38.177C95.8382 46.7042 103.882 54.227 115.947 61.1925C116.556 61.5895 117.063 62.1248 117.427 62.7547C117.791 63.3846 118 64.0915 118.04 64.8178L117.985 84.0908C117.926 104.932 109.715 113.83 90.5033 113.823C90.1658 113.819 89.8362 113.719 89.5531 113.536C89.1998 113.327 88.8836 113.061 88.6175 112.749C69.4687 90.5943 61.335 72.2588 61.3941 51.4182L61.4488 32.1452C61.4525 30.8234 62.3919 30.2727 63.5555 30.9445C75.62 37.91 83.6801 39.6847 88.191 36.3469C88.4404 36.2147 88.7226 36.1567 89.0039 36.18C89.2852 36.2033 89.554 36.3068 89.7783 36.4782V36.4782Z" fill="url(#paint1_linear)"/>
<path d="M64.4858 34.957C71.9907 39.0356 77.9472 41.0235 82.6398 41.0235C84.739 41.0664 86.8161 40.5877 88.6847 39.6302C93.4365 48.6573 101.857 56.5737 114.421 63.8275C114.713 64.0846 114.914 64.4288 114.995 64.8092L114.94 84.0822C114.886 103.133 108.154 110.653 90.9373 110.776L90.9213 110.758C72.3021 89.2159 64.3823 71.472 64.439 51.4268L64.4858 34.957ZM62.6162 30.6575C61.9254 30.6575 61.4514 31.2072 61.4488 32.1451L61.3941 51.4181C61.335 72.2588 69.4688 90.5943 88.6175 112.749C88.8837 113.061 89.1999 113.327 89.5532 113.536C89.8222 113.708 90.1313 113.807 90.4503 113.824C90.4681 113.824 90.4858 113.823 90.5034 113.823H90.5288C109.72 113.823 117.926 104.921 117.985 84.0909L118.04 64.8179C118.001 64.0915 117.791 63.3847 117.427 62.7547C117.063 62.1248 116.556 61.5895 115.947 61.1925C103.882 54.227 95.8382 46.7042 91.3609 38.177C90.998 37.4771 90.4507 36.8897 89.7783 36.4782C89.4781 36.2908 89.1345 36.1842 88.781 36.1687C88.5704 36.1637 88.3637 36.2261 88.1911 36.3469C86.5685 37.4823 84.6188 38.0554 82.6399 37.9786C78.0066 37.9786 71.6908 35.6415 63.5555 30.9446C63.2728 30.7685 62.949 30.6696 62.6162 30.6576L62.6162 30.6575Z" fill="url(#paint2_linear)"/>
<path d="M120.376 58.6185C108.311 51.653 100.267 44.1302 95.7902 35.603C95.4274 34.9031 94.8802 34.3156 94.2078 33.904C93.9927 33.7456 93.7402 33.6458 93.4749 33.6143C93.2097 33.5828 92.9408 33.6208 92.6947 33.7245L91.5559 34.3863C86.892 36.7913 79.1718 34.8292 67.9848 28.3703C67.7717 28.2153 67.5209 28.1201 67.2585 28.0946C66.9961 28.0691 66.7317 28.1143 66.4927 28.2254L62.063 30.7996C62.3021 30.6884 62.5665 30.6433 62.8289 30.6687C63.0913 30.6942 63.3422 30.7894 63.5554 30.9444C75.0186 37.5626 82.8663 39.4948 87.4899 36.808L88.522 36.2082C88.9597 36.1368 89.4083 36.2332 89.7781 36.4781C90.4506 36.8897 90.9978 37.4771 91.3608 38.177C95.8383 46.7043 103.882 54.227 115.947 61.1926C116.556 61.5896 117.063 62.1249 117.427 62.7548C117.791 63.3847 118 64.0916 118.039 64.8179L117.985 84.0909C117.947 97.4436 114.563 105.894 107.083 110.241L111.513 107.667C118.992 103.32 122.377 94.8694 122.414 81.5168L122.469 62.2438C122.43 61.5174 122.22 60.8105 121.856 60.1806C121.493 59.5507 120.985 59.0154 120.376 58.6185V58.6185Z" fill="url(#paint3_linear)"/>
<path opacity="0.2" d="M100.326 71.3364L98.4307 70.2424L98.4457 64.9882C98.3285 62.7969 97.6956 60.6643 96.5984 58.7639C95.5012 56.8635 93.9708 55.2491 92.1317 54.052C90.3724 53.0362 88.7759 52.943 87.6224 53.6132L85.0754 55.0935L85.0879 55.0876C83.9434 55.7458 83.2318 57.1513 83.2262 59.1519L83.2174 62.2502L79.4639 64.7988L79.4667 64.7977C79.3135 64.9053 79.1918 65.0519 79.114 65.2222C79.0362 65.3925 79.0052 65.5805 79.0241 65.7668L78.98 81.3449C79.0077 81.8661 79.1584 82.3733 79.4197 82.8252C79.6809 83.277 80.0454 83.6607 80.4832 83.9448L96.2977 93.0752C96.465 93.2038 96.6691 93.2755 96.8801 93.2799C97.0911 93.2843 97.298 93.2211 97.4705 93.0995C97.4401 93.1295 97.4071 93.1566 97.372 93.1808L101.346 90.4824C101.498 90.3748 101.619 90.2289 101.696 90.0596C101.773 89.8902 101.804 89.7034 101.785 89.5183L101.829 73.9402C101.802 73.4184 101.651 72.9104 101.39 72.4578C101.129 72.0053 100.764 71.621 100.326 71.3364V71.3364ZM79.8371 64.7066C79.8739 64.7026 79.9109 64.7009 79.9479 64.7015C79.9109 64.7009 79.8739 64.7026 79.8371 64.7066V64.7066ZM79.5901 64.7512C79.6226 64.7363 79.6563 64.7239 79.6907 64.714C79.6563 64.7239 79.6226 64.7363 79.59 64.7512H79.5901ZM80.5374 64.9045C80.5071 64.8871 80.4787 64.879 80.4489 64.8638C80.4787 64.879 80.5071 64.887 80.5374 64.9045L96.3515 74.0349L80.5374 64.9045ZM80.1172 64.7385C80.1559 64.7479 80.1925 64.7503 80.2324 64.764C80.1924 64.7503 80.1558 64.7479 80.1171 64.7385H80.1172ZM97.5523 93.0322C97.5831 92.9927 97.6106 92.9507 97.6344 92.9067C97.6106 92.9507 97.5831 92.9927 97.5523 93.0322V93.0322ZM97.7793 92.5461C97.8004 92.4376 97.8109 92.3273 97.8107 92.2168C97.8109 92.3273 97.8004 92.4376 97.7793 92.5461V92.5461ZM97.6911 92.8192C97.7141 92.7629 97.7328 92.705 97.7471 92.6459C97.7328 92.705 97.7141 92.7629 97.6911 92.8192V92.8192Z" fill="#003067"/>
<path d="M93.5977 75.8633C94.036 76.1479 94.4007 76.5321 94.662 76.9847C94.9233 77.4373 95.0737 77.9453 95.101 78.4671L95.0568 94.0452C95.0541 94.9994 94.3775 95.385 93.5437 94.9036L77.7294 85.7732C77.2915 85.4891 76.9271 85.1055 76.6658 84.6536C76.4045 84.2017 76.2539 83.6945 76.2261 83.1733L76.2702 67.5952C76.273 66.6372 76.9496 66.2515 77.7834 66.7329L93.5977 75.8633Z" fill="white"/>
<path d="M97.5719 73.1648L81.7576 64.0344C81.6043 63.9228 81.424 63.8541 81.2353 63.8355C81.0465 63.817 80.8563 63.8491 80.6842 63.9288L76.71 66.6273C76.8821 66.5477 77.0723 66.5155 77.2611 66.534C77.4498 66.5526 77.6301 66.6213 77.7834 66.7329L93.5977 75.8633C94.036 76.1478 94.4007 76.5321 94.662 76.9847C94.9233 77.4373 95.0737 77.9453 95.101 78.4671L95.0569 94.0452C95.0755 94.2303 95.0447 94.4171 94.9676 94.5865C94.8905 94.7558 94.7699 94.9017 94.618 95.0092L98.5923 92.3107C98.7441 92.2032 98.8647 92.0573 98.9418 91.888C99.0189 91.7186 99.0497 91.5318 99.0311 91.3467L99.0753 75.7686C99.048 75.2468 98.8975 74.7388 98.6362 74.2862C98.375 73.8336 98.0102 73.4493 97.5719 73.1648V73.1648Z" fill="#E8E8E8"/>
<path d="M83.4584 58.8723C82.9802 59.2105 82.6003 59.6694 82.3573 60.2023C82.1143 60.7352 82.0171 61.323 82.0754 61.9058L82.0574 68.2656L84.6045 66.7854L84.6225 60.4256C84.5641 59.8429 84.6614 59.255 84.9044 58.7221C85.1473 58.1892 85.5273 57.7303 86.0055 57.3921L83.4584 58.8723Z" fill="#B3B3B3"/>
<path d="M89.378 55.8804C87.6187 54.8647 86.022 54.7715 84.8687 55.4417L82.3217 56.9219C83.475 56.2517 85.0717 56.3449 86.8309 57.3606C88.67 58.5577 90.2004 60.1721 91.2976 62.0725C92.3947 63.9729 93.0277 66.1055 93.1448 68.2967L93.1268 74.6565L95.6739 73.1763L95.6919 66.8165C95.5747 64.6253 94.9418 62.4927 93.8447 60.5923C92.7475 58.6919 91.2171 57.0775 89.378 55.8804V55.8804Z" fill="#E8E8E8"/>
<path d="M86.8308 57.3606C88.6699 58.5577 90.2003 60.1721 91.2975 62.0725C92.3947 63.9729 93.0276 66.1055 93.1447 68.2967L93.1267 74.6565L91.5236 73.7309L91.5415 67.3712C91.4544 65.7339 90.9818 64.1403 90.1623 62.7202C89.3428 61.3 88.1995 60.0935 86.8256 59.1988C84.2158 57.6921 82.0838 58.9071 82.0753 61.9058L82.0573 68.2656L80.4542 67.34L80.4722 60.9802C80.4837 56.965 83.3365 55.3432 86.8308 57.3606Z" fill="white"/>
<path d="M85.2822 77.9345C85.8671 78.3143 86.3538 78.8271 86.7025 79.4311C87.0512 80.035 87.252 80.7129 87.2884 81.4094C87.2854 82.4879 86.6379 83.0106 85.7689 82.7734L85.7634 84.7029C85.7625 85.0184 85.5383 85.1535 85.2638 84.995C85.1174 84.8996 84.9956 84.771 84.9083 84.6197C84.8209 84.4684 84.7705 84.2986 84.761 84.1242L84.7665 82.1947C84.2648 81.7627 83.8705 81.22 83.6147 80.6093C83.3589 79.9987 83.2487 79.3369 83.2928 78.6763C83.3042 78.4987 83.3584 78.3264 83.4506 78.1741C83.5428 78.0218 83.6704 77.894 83.8226 77.8015C83.9747 77.7091 84.1469 77.6547 84.3246 77.643C84.5022 77.6313 84.6801 77.6626 84.8431 77.7343C84.9958 77.7862 85.1429 77.8533 85.2822 77.9345V77.9345Z" fill="#B3B3B3"/>
<path d="M84.4044 78.2538C84.4375 78.0493 84.5142 77.8542 84.6292 77.6819C84.4748 77.6458 84.3143 77.6439 84.1591 77.6761C84.0038 77.7084 83.8574 77.7742 83.7302 77.8689C83.603 77.9636 83.4979 78.0849 83.4224 78.2243C83.3468 78.3638 83.3026 78.518 83.2928 78.6763C83.2487 79.3369 83.3589 79.9987 83.6146 80.6093C83.8704 81.2199 84.2647 81.7627 84.7664 82.1946L84.7611 84.1241C84.7705 84.2986 84.8209 84.4683 84.9082 84.6197C84.9956 84.771 85.1174 84.8995 85.2638 84.9949C85.5383 85.1534 85.7625 85.0183 85.7633 84.7029L85.7689 82.7734C85.8055 82.7834 85.8393 82.7843 85.8753 82.7916L85.8781 81.7722C85.3764 81.3402 84.9821 80.7974 84.7263 80.1868C84.4705 79.5761 84.3603 78.9143 84.4044 78.2538V78.2538Z" fill="#999999"/>
<path opacity="0.2" d="M75.251 135.36C75.7408 135.804 75.6235 136.443 74.9835 136.815L74.3472 137.185C73.5638 137.566 72.6617 137.623 71.8362 137.344L70.0307 136.677C69.8131 136.622 69.586 136.616 69.3659 136.66L67.9022 137.014C67.6982 137.045 67.513 137.152 67.3827 137.312L66.9287 138.524C66.7111 138.837 66.4144 139.086 66.0689 139.247C65.7234 139.407 65.3415 139.473 64.9621 139.438H64.0631C63.5624 139.44 63.0693 139.315 62.6304 139.074C62.3934 138.955 62.2022 138.762 62.0862 138.524L61.611 137.312C61.5608 137.233 61.4899 137.169 61.406 137.128C61.3316 137.084 61.2513 137.051 61.1675 137.029L59.6886 136.677C59.4505 136.618 59.2015 136.618 58.9634 136.677L57.1616 137.342C56.3355 137.621 55.433 137.564 54.6488 137.183L54.0122 136.815C53.3679 136.443 53.2435 135.804 53.7282 135.36L54.8706 134.314C54.9168 134.262 54.9446 134.196 54.9496 134.126C54.9547 134.057 54.9368 133.988 54.8987 133.929L54.2782 133.082C54.2321 133.005 54.165 132.942 54.0846 132.901C53.9849 132.843 53.8761 132.802 53.7628 132.78L51.6725 132.511C51.3372 132.469 51.0133 132.363 50.7188 132.197C50.5519 132.124 50.4063 132.01 50.2958 131.865C50.1853 131.72 50.1134 131.55 50.0871 131.369L50.0842 130.849C50.0812 130.323 50.7697 129.822 51.6567 129.706L53.744 129.437C53.9301 129.409 54.1013 129.319 54.2298 129.181L54.837 128.328C54.8854 128.268 54.9116 128.193 54.9112 128.115C54.9107 128.038 54.8837 127.963 54.8345 127.904L53.6766 126.86C53.1869 126.416 53.3041 125.777 53.9442 125.405L54.5804 125.035C55.3639 124.654 56.266 124.597 57.0914 124.875L58.8969 125.543C59.1145 125.598 59.3416 125.604 59.5618 125.56L61.0254 125.206C61.2295 125.174 61.4147 125.068 61.545 124.908L61.999 123.696C62.2166 123.383 62.5133 123.134 62.8588 122.973C63.2043 122.813 63.5862 122.746 63.9656 122.782H64.8646C65.3653 122.779 65.8583 122.905 66.2973 123.146C66.5342 123.264 66.7255 123.458 66.8415 123.696L67.3129 124.906C67.3647 124.986 67.4368 125.05 67.5217 125.092C67.5966 125.137 67.6785 125.17 67.764 125.188L69.2353 125.541C69.4744 125.602 69.7249 125.602 69.9643 125.543L71.7698 124.875C72.5951 124.599 73.496 124.657 74.2789 125.037L74.9155 125.405C75.5597 125.777 75.6842 126.416 75.1994 126.86L74.057 127.906C74.0108 127.958 73.9831 128.024 73.978 128.093C73.973 128.163 73.9909 128.232 74.029 128.291L74.6494 129.137C74.6955 129.215 74.7626 129.278 74.8431 129.319C74.9413 129.377 75.0489 129.417 75.161 129.437L77.2552 129.708C77.5905 129.75 77.9145 129.857 78.209 130.023C78.3758 130.096 78.5214 130.21 78.6325 130.354C78.7435 130.498 78.8163 130.668 78.8443 130.848L78.8434 131.371C78.8464 131.896 78.158 132.397 77.271 132.513L75.1799 132.78C74.9952 132.811 74.8258 132.902 74.6978 133.039L74.0907 133.892C74.0418 133.952 74.0157 134.027 74.0168 134.104C74.0179 134.181 74.0463 134.256 74.0968 134.314L75.251 135.36ZM61.2956 132.951C62.2806 133.451 63.3697 133.712 64.4744 133.711C65.5791 133.711 66.6681 133.45 67.6527 132.949C69.3959 131.936 69.3904 130.284 67.632 129.269C66.6477 128.769 65.5593 128.508 64.4554 128.508C63.3514 128.508 62.263 128.769 61.2787 129.269C59.5318 130.284 59.5372 131.936 61.2956 132.951" fill="#003067"/>
<path d="M75.251 124.43C75.7408 124.874 75.6235 125.513 74.9835 125.885L74.3472 126.255C73.5638 126.636 72.6617 126.693 71.8362 126.415L70.0307 125.747C69.8131 125.692 69.586 125.686 69.3659 125.73L67.9022 126.084C67.6982 126.116 67.513 126.222 67.3827 126.382L66.9287 127.594C66.7111 127.907 66.4144 128.156 66.0689 128.317C65.7234 128.477 65.3415 128.544 64.9621 128.508H64.0631C63.5624 128.511 63.0693 128.385 62.6304 128.144C62.3934 128.026 62.2022 127.832 62.0862 127.594L61.611 126.382C61.5608 126.303 61.4899 126.239 61.406 126.198C61.3316 126.154 61.2513 126.121 61.1675 126.1L59.6886 125.747C59.4505 125.688 59.2015 125.688 58.9634 125.747L57.1616 126.412C56.3355 126.691 55.433 126.634 54.6488 126.253L54.0122 125.885C53.3679 125.513 53.2435 124.874 53.7282 124.43L54.8706 123.384C54.9168 123.332 54.9446 123.266 54.9496 123.197C54.9547 123.127 54.9368 123.058 54.8987 122.999L54.2782 122.153C54.2321 122.075 54.165 122.012 54.0846 121.971C53.9849 121.913 53.8761 121.872 53.7628 121.851L51.6725 121.582C51.3372 121.54 51.0133 121.433 50.7188 121.267C50.5519 121.194 50.4063 121.08 50.2958 120.935C50.1853 120.79 50.1134 120.62 50.0871 120.439L50.0842 119.919C50.0812 119.394 50.7697 118.893 51.6567 118.777L53.744 118.507C53.9301 118.479 54.1013 118.389 54.2298 118.251L54.837 117.398C54.8854 117.338 54.9116 117.263 54.9112 117.185C54.9107 117.108 54.8837 117.033 54.8345 116.974L53.6766 115.93C53.1869 115.486 53.3041 114.847 53.9442 114.475L54.5804 114.105C55.3639 113.724 56.266 113.667 57.0914 113.946L58.8969 114.613C59.1145 114.668 59.3416 114.674 59.5618 114.63L61.0254 114.276C61.2295 114.245 61.4147 114.139 61.545 113.978L61.999 112.766C62.2166 112.453 62.5133 112.204 62.8588 112.043C63.2043 111.883 63.5862 111.817 63.9656 111.852H64.8646C65.3653 111.85 65.8583 111.975 66.2973 112.216C66.5342 112.335 66.7255 112.528 66.8415 112.766L67.3129 113.976C67.3647 114.056 67.4368 114.12 67.5217 114.162C67.5966 114.207 67.6785 114.24 67.764 114.258L69.2353 114.611C69.4744 114.672 69.7249 114.673 69.9643 114.613L71.7698 113.946C72.5951 113.669 73.496 113.727 74.2789 114.107L74.9155 114.475C75.5597 114.847 75.6842 115.486 75.1994 115.93L74.057 116.976C74.0108 117.028 73.9831 117.094 73.978 117.164C73.973 117.233 73.9909 117.302 74.029 117.361L74.6494 118.208C74.6955 118.285 74.7626 118.348 74.8431 118.389C74.9413 118.447 75.0489 118.487 75.161 118.507L77.2552 118.779C77.5905 118.82 77.9145 118.927 78.209 119.093C78.3758 119.166 78.5214 119.28 78.6325 119.424C78.7435 119.569 78.8163 119.739 78.8443 119.919L78.8434 120.441C78.8464 120.967 78.158 121.468 77.271 121.584L75.1799 121.851C74.9952 121.881 74.8258 121.972 74.6978 122.109L74.0907 122.962C74.0418 123.022 74.0157 123.097 74.0168 123.174C74.0179 123.252 74.0463 123.326 74.0968 123.384L75.251 124.43ZM61.2956 122.021C62.2806 122.521 63.3698 122.782 64.4745 122.782C65.5791 122.781 66.6681 122.52 67.6527 122.019C69.3959 121.006 69.3904 119.354 67.6321 118.339C66.6478 117.839 65.5594 117.578 64.4554 117.578C63.3514 117.578 62.263 117.839 61.2787 118.339C59.5318 119.354 59.5373 121.006 61.2957 122.021" fill="url(#paint4_linear)"/>
<path d="M75.4838 115.412C75.4785 115.453 75.4698 115.493 75.4579 115.532C75.4513 115.553 75.4442 115.574 75.4355 115.596C75.4182 115.637 75.3975 115.677 75.3738 115.715C75.3627 115.733 75.3535 115.751 75.3407 115.769C75.2996 115.827 75.2525 115.881 75.2002 115.929L75.1993 115.93L74.0569 116.976C74.0311 117.001 74.0117 117.032 74.0001 117.067C73.9966 117.079 73.9938 117.091 73.9917 117.104C73.9848 117.129 73.9805 117.155 73.9788 117.18C73.9728 117.245 73.9906 117.309 74.0289 117.361L74.6493 118.208C74.6954 118.285 74.7626 118.348 74.843 118.389C74.9412 118.447 75.0489 118.487 75.1609 118.507L75.4853 118.549L75.4945 115.319C75.4945 115.329 75.4915 115.339 75.491 115.349C75.49 115.37 75.4866 115.391 75.4838 115.412Z" fill="url(#paint5_linear)"/>
<path d="M78.8131 120.637C78.6889 120.936 78.4549 121.177 78.1591 121.31C78.0431 121.369 77.9226 121.419 77.7986 121.459C77.6272 121.518 77.4505 121.559 77.271 121.584L75.5147 121.808L75.4762 121.813L75.1799 121.851C74.9952 121.881 74.8258 121.972 74.6979 122.109L74.0908 122.962C74.0419 123.022 74.0158 123.097 74.0169 123.174C74.018 123.251 74.0463 123.326 74.0969 123.384L75.2511 124.43C75.7409 124.874 75.6236 125.513 74.9836 125.885L74.3473 126.255C73.7362 126.557 73.0455 126.658 72.3734 126.545C72.3489 126.542 72.3258 126.537 72.3016 126.533C72.1433 126.507 71.9876 126.468 71.8363 126.415L70.0308 125.747C69.9933 125.736 69.9549 125.728 69.9161 125.723C69.8445 125.711 69.7721 125.704 69.6995 125.702C69.5875 125.696 69.4753 125.705 69.3659 125.73L67.9024 126.084C67.8842 126.088 67.8673 126.095 67.8494 126.1C67.6655 126.136 67.5004 126.236 67.3827 126.382L66.9287 127.594C66.8302 127.811 66.6657 127.991 66.4588 128.109C66.2936 128.212 66.1162 128.295 65.9308 128.355C65.6181 128.457 65.2912 128.509 64.9622 128.509H64.0632C63.8289 128.507 63.5955 128.479 63.3676 128.424C63.2229 128.392 63.0807 128.348 62.9425 128.295C62.835 128.252 62.7308 128.202 62.6305 128.144C62.3936 128.026 62.2023 127.832 62.0863 127.594L61.6111 126.382C61.5609 126.303 61.49 126.239 61.4061 126.198C61.3317 126.154 61.2514 126.121 61.1676 126.1L60.4282 125.924L59.6887 125.747C59.6287 125.731 59.5672 125.719 59.5051 125.713C59.4371 125.706 59.3688 125.702 59.3004 125.703C59.2362 125.703 59.1722 125.707 59.1085 125.715C59.0592 125.721 59.0106 125.732 58.9635 125.747L57.1617 126.413C57.0029 126.468 56.8392 126.509 56.6728 126.535C56.6475 126.539 56.6238 126.545 56.5983 126.548C56.4285 126.572 56.2573 126.583 56.0859 126.582C56.0593 126.582 56.0338 126.581 56.0071 126.581C55.8302 126.577 55.6538 126.561 55.4793 126.532L55.4544 126.526C55.1724 126.481 54.9001 126.389 54.649 126.253L54.0123 125.885C53.368 125.513 53.2436 124.874 53.7284 124.43L54.8708 123.384C54.9029 123.348 54.9261 123.304 54.9387 123.257C54.9513 123.21 54.953 123.161 54.9436 123.113C54.9419 123.103 54.9419 123.091 54.9392 123.081C54.9321 123.051 54.9185 123.024 54.8994 123L54.8988 122.999L54.8946 122.994L54.2784 122.153C54.2323 122.075 54.1652 122.012 54.0848 121.971C53.9851 121.913 53.8763 121.872 53.763 121.851L51.6726 121.582C51.3881 121.543 51.1121 121.457 50.8555 121.328C50.8115 121.306 50.76 121.291 50.719 121.267C50.5428 121.17 50.3868 121.04 50.2593 120.884C50.1538 120.76 50.0932 120.603 50.0873 120.44L50.0599 125.278C50.0862 125.458 50.158 125.629 50.2685 125.774C50.3791 125.918 50.5247 126.033 50.6916 126.106C50.9861 126.271 51.31 126.378 51.6452 126.42L53.415 126.648L53.4057 129.88C53.4187 130.059 53.4791 130.232 53.5809 130.38C53.6827 130.529 53.8222 130.647 53.9849 130.724L54.6215 131.091C55.4057 131.472 56.3082 131.53 57.1344 131.251L58.9361 130.586C59.1743 130.526 59.4233 130.526 59.6614 130.586L61.1402 130.938C61.224 130.959 61.3043 130.993 61.3787 131.036C61.4625 131.078 61.5334 131.141 61.5837 131.22L62.0589 132.432C62.1749 132.671 62.3661 132.864 62.6031 132.983C63.0421 133.224 63.5351 133.349 64.0359 133.347H64.9349C65.3142 133.382 65.6962 133.316 66.0416 133.155C66.3871 132.995 66.6838 132.745 66.9014 132.432L67.3554 131.22C67.4858 131.06 67.6709 130.954 67.8749 130.923L69.3386 130.568C69.5588 130.525 69.7859 130.531 70.0035 130.586L71.809 131.253C72.6345 131.532 73.5366 131.475 74.32 131.093L74.9563 130.724C75.1161 130.647 75.253 130.53 75.353 130.384C75.453 130.238 75.5127 130.068 75.5259 129.892L75.5351 126.64L77.2437 126.422C78.1307 126.306 78.8191 125.805 78.8162 125.28L78.8436 120.442C78.8436 120.508 78.8333 120.574 78.8131 120.637V120.637Z" fill="url(#paint6_linear)"/>
<path d="M53.7439 118.507C53.93 118.479 54.1012 118.389 54.2297 118.251L54.8369 117.398C54.8868 117.336 54.9127 117.258 54.9098 117.178C54.9084 117.151 54.904 117.125 54.8968 117.1C54.8949 117.087 54.8925 117.075 54.8894 117.062C54.8779 117.029 54.8591 116.999 54.8345 116.974L53.6766 115.93C53.623 115.881 53.5747 115.827 53.5324 115.768C53.5194 115.75 53.5101 115.731 53.4987 115.713C53.4746 115.675 53.4535 115.635 53.4358 115.594C53.4266 115.572 53.4197 115.55 53.4128 115.528C53.4007 115.49 53.3918 115.451 53.3861 115.411C53.3829 115.389 53.3797 115.367 53.3786 115.344C53.378 115.332 53.3744 115.319 53.3745 115.307L53.3652 118.556L53.7439 118.507Z" fill="url(#paint7_linear)"/>
<path d="M64.4642 120.18V118.648" stroke="#E8E8E8" stroke-linecap="round" stroke-linejoin="round"/>
<path d="M64.4642 115.389V97.4654" stroke="#E8E8E8" stroke-linecap="round" stroke-linejoin="round" stroke-dasharray="3.26 3.26"/>
<path d="M64.4637 95.836V94.304L65.7827 93.525" stroke="#E8E8E8" stroke-linecap="round" stroke-linejoin="round"/>
<path d="M68.4346 91.9571L83.019 83.3354" stroke="#E8E8E8" stroke-linecap="round" stroke-linejoin="round" stroke-dasharray="3.08 3.08"/>
<path d="M84.345 82.5517L85.6636 81.7721" stroke="#E8E8E8" stroke-linecap="round" stroke-linejoin="round"/>
</g>
<defs>
<linearGradient id="paint0_linear" x1="80.0342" y1="8.27838" x2="80.0342" y2="179.694" gradientUnits="userSpaceOnUse">
<stop stop-color="#00ABDE"/>
<stop offset="1" stop-color="#007ED8"/>
</linearGradient>
<linearGradient id="paint1_linear" x1="89.7167" y1="113.824" x2="89.7167" y2="30.6575" gradientUnits="userSpaceOnUse">
<stop stop-color="#004DAE"/>
<stop offset="0.21" stop-color="#0061C4"/>
<stop offset="0.51" stop-color="#0078DD"/>
<stop offset="0.78" stop-color="#0086EC"/>
<stop offset="1" stop-color="#008BF1"/>
</linearGradient>
<linearGradient id="paint2_linear" x1="6413.84" y1="8938.88" x2="2088.82" y2="3836.54" gradientUnits="userSpaceOnUse">
<stop stop-color="#004DAE"/>
<stop offset="0.21" stop-color="#0061C4"/>
<stop offset="0.51" stop-color="#0078DD"/>
<stop offset="0.78" stop-color="#0086EC"/>
<stop offset="1" stop-color="#008BF1"/>
</linearGradient>
<linearGradient id="paint3_linear" x1="92.2661" y1="110.241" x2="92.2661" y2="27.9362" gradientUnits="userSpaceOnUse">
<stop stop-color="#003067"/>
<stop offset="0.2" stop-color="#003F7C"/>
<stop offset="0.47" stop-color="#004F90"/>
<stop offset="0.74" stop-color="#00589D"/>
<stop offset="1" stop-color="#005BA1"/>
</linearGradient>
<linearGradient id="paint4_linear" x1="64.4642" y1="127.911" x2="64.4642" y2="112.215" gradientUnits="userSpaceOnUse">
<stop stop-color="white"/>
<stop offset="0.56" stop-color="#FBFBFB"/>
<stop offset="1" stop-color="#F2F2F2"/>
</linearGradient>
<linearGradient id="paint5_linear" x1="74.7365" y1="115.319" x2="74.7365" y2="118.549" gradientUnits="userSpaceOnUse">
<stop stop-color="#F0F0F0" stop-opacity="0"/>
<stop offset="1" stop-color="#F0F0F0" stop-opacity="0.5"/>
</linearGradient>
<linearGradient id="paint6_linear" x1="64.5666" y1="133.525" x2="64.5454" y2="121.668" gradientUnits="userSpaceOnUse">
<stop stop-color="white" stop-opacity="0.5"/>
<stop offset="1" stop-color="#FCFCFC" stop-opacity="0"/>
</linearGradient>
<linearGradient id="paint7_linear" x1="136.445" y1="489.993" x2="136.445" y2="500.552" gradientUnits="userSpaceOnUse">
<stop stop-color="#F0F0F0" stop-opacity="0"/>
<stop offset="1" stop-color="#F0F0F0" stop-opacity="0.5"/>
</linearGradient>
<clipPath id="clip0">
<rect width="159.356" height="188" fill="white" transform="translate(0.355713)"/>
</clipPath>
</defs>
</svg>
