<svg width="100" height="100" viewBox="0 0 100 100" fill="none" xmlns="http://www.w3.org/2000/svg">
<g clip-path="url(#clip0)">
<path d="M49.6401 96.45C40.382 96.45 31.3317 93.7046 23.6339 88.5611C15.936 83.4175 9.93624 76.1068 6.3933 67.5534C2.85036 59 1.92337 49.588 3.72954 40.5078C5.53571 31.4275 9.99394 23.0868 16.5404 16.5403C23.0869 9.99381 31.4277 5.53559 40.5079 3.72942C49.5882 1.92324 59.0001 2.85024 67.5535 6.39318C76.1069 9.93611 83.4176 15.9359 88.5612 23.6337C93.7047 31.3316 96.4501 40.3818 96.4501 49.64C96.4505 55.7873 95.24 61.8745 92.8878 67.5539C90.5355 73.2333 87.0875 78.3938 82.7407 82.7406C78.3939 87.0874 73.2335 90.5354 67.554 92.8876C61.8746 95.2399 55.7874 96.4504 49.6401 96.45V96.45Z" fill="url(#paint0_linear)"/>
<path fill-rule="evenodd" clip-rule="evenodd" d="M95.54 49.64C95.54 58.7182 92.848 67.5925 87.8045 75.1407C82.7609 82.6889 75.5923 88.572 67.2052 92.0461C58.818 95.5201 49.5891 96.4291 40.6854 94.658C31.7816 92.887 23.603 88.5154 17.1838 82.0962C10.7646 75.677 6.39302 67.4984 4.62196 58.5946C2.85089 49.6909 3.75987 40.462 7.23393 32.0748C10.708 23.6877 16.5911 16.5191 24.1393 11.4755C31.6875 6.43199 40.5618 3.74 49.64 3.74C55.6677 3.73998 61.6363 4.9272 67.2052 7.23388C72.774 9.54057 77.834 12.9215 82.0963 17.1837C86.3585 21.446 89.7394 26.5059 92.0461 32.0748C94.3528 37.6437 95.54 43.6123 95.54 49.64V49.64ZM49.64 3.62732e-07C59.4579 3.62732e-07 69.0553 2.91134 77.2185 8.36585C85.3818 13.8204 91.7442 21.5731 95.5014 30.6436C99.2585 39.7141 100.242 49.6951 98.3262 59.3243C96.4108 68.9535 91.6831 77.7985 84.7408 84.7408C77.7985 91.6831 68.9535 96.4108 59.3243 98.3262C49.6951 100.242 39.7141 99.2585 30.6436 95.5014C21.5731 91.7442 13.8204 85.3818 8.36585 77.2185C2.91134 69.0553 3.62732e-07 59.4579 3.62732e-07 49.64C-0.000787738 43.121 1.28265 36.6656 3.77702 30.6427C6.27138 24.6197 9.9278 19.1471 14.5375 14.5375C19.1471 9.9278 24.6197 6.27138 30.6427 3.77702C36.6656 1.28265 43.121 -0.000787738 49.64 3.62732e-07V3.62732e-07Z" fill="#F2F1F0"/>
<path fill-rule="evenodd" clip-rule="evenodd" d="M92.7296 49.6401C92.7296 58.1625 90.2024 66.4935 85.4676 73.5796C80.7328 80.6657 74.0031 86.1887 66.1294 89.4501C58.2558 92.7114 49.5918 93.5648 41.2332 91.9021C32.8745 90.2395 25.1966 86.1356 19.1704 80.1093C13.1441 74.0831 9.0402 66.4052 7.37756 58.0465C5.71493 49.6879 6.56825 41.0239 9.82963 33.1503C13.091 25.2766 18.614 18.5469 25.7001 13.8121C32.7862 9.07727 41.1172 6.55009 49.6396 6.55009C55.2984 6.54974 60.9018 7.66407 66.1298 9.82942C71.3579 11.9948 76.1083 15.1687 80.1096 19.1701C84.1109 23.1714 87.2849 27.9218 89.4503 33.1499C91.6156 38.3779 92.7299 43.9813 92.7296 49.6401V49.6401ZM49.6396 2.81009C58.9017 2.81009 67.9558 5.55662 75.657 10.7024C83.3581 15.8481 89.3604 23.162 92.9049 31.719C96.4493 40.2761 97.3767 49.692 95.5698 58.7762C93.7628 67.8603 89.3027 76.2046 82.7534 82.7539C76.2041 89.3032 67.8598 93.7633 58.7757 95.5703C49.6916 97.3772 40.2756 96.4498 31.7185 92.9054C23.1615 89.3609 15.8476 83.3586 10.7019 75.6574C5.55613 67.9563 2.8096 58.9022 2.8096 49.6401C2.81079 37.2204 7.74503 25.3097 16.5271 16.5276C25.3092 7.7455 37.2199 2.81125 49.6396 2.81006V2.81009Z" fill="#0078D4"/>
<path fill-rule="evenodd" clip-rule="evenodd" d="M92.7295 49.6401C92.7295 58.1625 90.2023 66.4935 85.4675 73.5796C80.7327 80.6657 74.003 86.1886 66.1293 89.45C58.2556 92.7114 49.5917 93.5647 41.233 91.9021C32.8744 90.2395 25.1965 86.1355 19.1702 80.1093C13.144 74.083 9.04008 66.4051 7.37744 58.0465C5.7148 49.6879 6.56813 41.0239 9.82951 33.1502C13.0909 25.2766 18.6138 18.5468 25.7 13.812C32.7861 9.07724 41.1171 6.55006 49.6395 6.55006C55.2982 6.54971 60.9016 7.66404 66.1297 9.82939C71.3578 11.9947 76.1081 15.1687 80.1095 19.1701C84.1108 23.1714 87.2848 27.9217 89.4501 33.1498C91.6155 38.3779 92.7298 43.9813 92.7295 49.6401V49.6401ZM49.6395 2.81006C58.9016 2.81006 67.9557 5.55659 75.6568 10.7023C83.358 15.8481 89.3603 23.1619 92.9048 31.719C96.4492 40.2761 97.3766 49.692 95.5696 58.7761C93.7627 67.8603 89.3026 76.2046 82.7533 82.7539C76.204 89.3032 67.8597 93.7633 58.7756 95.5702C49.6914 97.3772 40.2755 96.4498 31.7184 92.9053C23.1614 89.3609 15.8475 83.3586 10.7018 75.6574C5.55601 67.9563 2.80948 58.9022 2.80948 49.6401C2.81067 37.2203 7.74492 25.3096 16.527 16.5276C25.3091 7.7455 37.2198 2.81125 49.6395 2.81006V2.81006Z" fill="#0078D4"/>
<path fill-rule="evenodd" clip-rule="evenodd" d="M33.8726 19.248C33.1911 19.248 32.5164 19.3823 31.8868 19.643C31.2572 19.9038 30.6852 20.286 30.2033 20.7679C29.7215 21.2498 29.3393 21.8218 29.0785 22.4514C28.8177 23.0809 28.6835 23.7557 28.6835 24.4371V69.1974C28.6835 69.7626 28.5721 70.3223 28.3558 70.8445C28.1395 71.3667 27.8225 71.8412 27.4228 72.2409C27.0231 72.6406 26.5486 72.9576 26.0263 73.1739C25.5041 73.3902 24.9444 73.5016 24.3792 73.5015H63.0144C64.3906 73.5015 65.7105 72.9548 66.6836 71.9817C67.6568 71.0086 68.2035 69.6887 68.2035 68.3125V23.5522C68.2035 22.4107 68.6569 21.3159 69.4641 20.5087C70.2713 19.7015 71.3661 19.2481 72.5076 19.248H33.8726Z" fill="white"/>
<path fill-rule="evenodd" clip-rule="evenodd" d="M59.7213 70.237C59.6583 69.9466 59.499 69.6859 59.2694 69.4972C59.0397 69.3085 58.7531 69.2029 58.4559 69.1974H21.6749C21.4534 69.1983 21.2357 69.2556 21.0423 69.3638C20.849 69.4719 20.6863 69.6275 20.5696 69.8159C20.4529 70.0042 20.3861 70.2191 20.3753 70.4404C20.3645 70.6617 20.4101 70.8821 20.508 71.0809C20.8613 71.8069 21.4117 72.4188 22.0962 72.8468C22.7807 73.2748 23.5718 73.5017 24.3792 73.5016H63.8992C62.9384 73.5015 62.0053 73.1801 61.2482 72.5886C60.4912 71.997 59.9537 71.1693 59.7213 70.237V70.237Z" fill="#E8E8E8"/>
<path fill-rule="evenodd" clip-rule="evenodd" d="M38.8448 64.6729C37.9667 64.6729 37.1084 64.4125 36.3783 63.9247C35.6482 63.4369 35.0791 62.7435 34.7431 61.9323C34.4071 61.1211 34.3192 60.2284 34.4905 59.3672C34.6618 58.506 35.0846 57.7149 35.7055 57.094C36.3264 56.4731 37.1174 56.0503 37.9786 55.879C38.8398 55.7077 39.7325 55.7956 40.5437 56.1317C41.355 56.4677 42.0483 57.0367 42.5362 57.7668C43.024 58.4969 43.2844 59.3553 43.2844 60.2334C43.2843 61.4108 42.8166 62.54 41.984 63.3726C41.1514 64.2051 40.0222 64.6729 38.8448 64.6729Z" fill="#E8E8E8"/>
<path fill-rule="evenodd" clip-rule="evenodd" d="M38.8448 53.019C37.9667 53.019 37.1084 52.7586 36.3783 52.2708C35.6482 51.7829 35.0792 51.0896 34.7431 50.2783C34.4071 49.4671 34.3192 48.5745 34.4905 47.7133C34.6618 46.8521 35.0846 46.061 35.7055 45.4401C36.3264 44.8192 37.1175 44.3964 37.9787 44.2251C38.8399 44.0538 39.7325 44.1417 40.5438 44.4777C41.355 44.8138 42.0484 45.3828 42.5362 46.1129C43.024 46.843 43.2844 47.7013 43.2844 48.5794C43.2843 49.7568 42.8166 50.886 41.984 51.7186C41.1515 52.5512 40.0223 53.0189 38.8448 53.019V53.019Z" fill="#50E6FF"/>
<path fill-rule="evenodd" clip-rule="evenodd" d="M40.8843 47.3479C40.7802 47.2438 40.639 47.1853 40.4917 47.1853C40.3444 47.1853 40.2032 47.2438 40.099 47.3479L38.2685 49.177L37.6074 48.5222C37.5919 48.4992 37.5744 48.4777 37.5552 48.4578C37.4517 48.3542 37.3115 48.2956 37.165 48.2949C37.0186 48.2942 36.8778 48.3515 36.7734 48.4542C36.669 48.5569 36.6094 48.6967 36.6076 48.8431C36.6059 48.9895 36.6621 49.1307 36.764 49.2359L36.7574 49.2426L37.8776 50.3525C37.9818 50.4566 38.1231 50.515 38.2703 50.515C38.4176 50.515 38.5589 50.4566 38.6631 50.3525L40.8827 48.1339L40.8843 48.1326C40.9359 48.0811 40.9768 48.0199 41.0047 47.9526C41.0326 47.8853 41.047 47.8131 41.047 47.7402C41.047 47.6674 41.0326 47.5952 41.0047 47.5279C40.9768 47.4605 40.9359 47.3994 40.8843 47.3479V47.3479Z" fill="white"/>
<path fill-rule="evenodd" clip-rule="evenodd" d="M40.8843 58.7311C40.7802 58.627 40.639 58.5685 40.4917 58.5685C40.3444 58.5685 40.2032 58.627 40.099 58.7311L38.2685 60.5602L37.6074 59.9054C37.5919 59.8824 37.5744 59.8609 37.5552 59.841C37.4517 59.7373 37.3115 59.6788 37.165 59.6781C37.0186 59.6774 36.8778 59.7347 36.7734 59.8374C36.669 59.94 36.6094 60.0798 36.6076 60.2263C36.6059 60.3727 36.6621 60.5139 36.764 60.6191L36.7574 60.6257L37.8776 61.7357C37.9818 61.8397 38.1231 61.8982 38.2703 61.8982C38.4176 61.8982 38.5589 61.8397 38.6631 61.7357L40.8827 59.5171L40.8843 59.5157C40.9359 59.4642 40.9768 59.4031 41.0047 59.3357C41.0326 59.2684 41.0469 59.1963 41.0469 59.1234C41.0469 59.0505 41.0326 58.9784 41.0047 58.911C40.9768 58.8437 40.9359 58.7826 40.8843 58.7311Z" fill="white"/>
<path d="M48.5588 50.7992H59.1518C59.3705 50.7992 59.587 50.8422 59.789 50.9259C59.991 51.0096 60.1745 51.1322 60.3291 51.2868C60.4837 51.4414 60.6063 51.6249 60.69 51.8269C60.7737 52.0289 60.8167 52.2454 60.8167 52.464V52.464C60.8167 52.6827 60.7737 52.8992 60.69 53.1012C60.6063 53.3031 60.4837 53.4867 60.3291 53.6413C60.1745 53.7959 59.991 53.9185 59.789 54.0022C59.587 54.0858 59.3705 54.1289 59.1519 54.1289H48.5589C48.3403 54.1289 48.1238 54.0858 47.9218 54.0022C47.7198 53.9185 47.5362 53.7959 47.3816 53.6413C47.227 53.4867 47.1044 53.3032 47.0207 53.1012C46.9371 52.8992 46.894 52.6827 46.894 52.464C46.894 52.2454 46.9371 52.0289 47.0207 51.8269C47.1044 51.6249 47.227 51.4414 47.3816 51.2868C47.5362 51.1322 47.7197 51.0096 47.9217 50.9259C48.1237 50.8423 48.3402 50.7992 48.5588 50.7992Z" fill="#E8E8E8"/>
<path d="M48.5588 44.1398H60.8167C61.0354 44.1398 61.2519 44.1828 61.4538 44.2665C61.6558 44.3502 61.8394 44.4728 61.994 44.6274C62.1485 44.782 62.2712 44.9655 62.3548 45.1675C62.4385 45.3695 62.4816 45.586 62.4816 45.8046V45.8046C62.4816 46.2462 62.3062 46.6696 61.9939 46.9818C61.6817 47.2941 61.2583 47.4695 60.8167 47.4695H48.5588C48.1173 47.4695 47.6938 47.2941 47.3816 46.9818C47.0694 46.6696 46.894 46.2462 46.894 45.8046V45.8046C46.894 45.586 46.9371 45.3695 47.0207 45.1675C47.1044 44.9655 47.227 44.782 47.3816 44.6274C47.5362 44.4728 47.7197 44.3502 47.9217 44.2665C48.1237 44.1828 48.3402 44.1398 48.5588 44.1398Z" fill="#E8E8E8"/>
<path d="M48.5588 57.4585H60.8167C61.2583 57.4585 61.6817 57.6339 61.9939 57.9461C62.3062 58.2583 62.4816 58.6818 62.4816 59.1233V59.1233C62.4816 59.342 62.4385 59.5585 62.3548 59.7604C62.2712 59.9624 62.1485 60.146 61.994 60.3006C61.8394 60.4552 61.6558 60.5778 61.4538 60.6615C61.2519 60.7451 61.0354 60.7882 60.8167 60.7882H48.5588C48.3402 60.7882 48.1237 60.7451 47.9217 60.6615C47.7197 60.5778 47.5362 60.4552 47.3816 60.3006C47.227 60.146 47.1044 59.9624 47.0207 59.7604C46.9371 59.5585 46.894 59.342 46.894 59.1233V59.1233C46.894 58.6818 47.0694 58.2583 47.3816 57.9461C47.6938 57.6339 48.1173 57.4585 48.5588 57.4585V57.4585Z" fill="#E8E8E8"/>
<path d="M48.5588 64.1179H56.6546C57.0962 64.1179 57.5196 64.2933 57.8319 64.6055C58.1441 64.9178 58.3195 65.3412 58.3195 65.7828C58.3195 66.2243 58.1441 66.6478 57.8318 66.96C57.5196 67.2722 57.0962 67.4476 56.6546 67.4476H48.5588C48.1173 67.4476 47.6938 67.2722 47.3816 66.96C47.0694 66.6478 46.894 66.2243 46.894 65.7828V65.7828C46.894 65.5641 46.9371 65.3476 47.0207 65.1457C47.1044 64.9437 47.227 64.7601 47.3816 64.6055C47.5362 64.4509 47.7198 64.3283 47.9217 64.2446C48.1237 64.161 48.3402 64.1179 48.5588 64.1179V64.1179Z" fill="#E8E8E8"/>
<path fill-rule="evenodd" clip-rule="evenodd" d="M72.5077 19.248C71.9425 19.2481 71.3828 19.3594 70.8606 19.5757C70.3384 19.792 69.8639 20.1091 69.4642 20.5087C69.0646 20.9084 68.7475 21.3829 68.5312 21.9051C68.3149 22.4273 68.2036 22.987 68.2036 23.5522V27.549H76.8118V23.5522C76.8118 22.987 76.7005 22.4273 76.4842 21.9051C76.2679 21.3829 75.9509 20.9084 75.5512 20.5087C75.1515 20.109 74.677 19.792 74.1548 19.5757C73.6326 19.3594 73.0729 19.248 72.5077 19.248V19.248Z" fill="#E8E8E8"/>
<path d="M38.445 38.4359L44.684 32.1959L49.132 36.6439L58.03 27.7469" stroke="#0078D4" stroke-width="1.15764" stroke-miterlimit="10" stroke-linecap="round"/>
<path d="M58.0297 30.1009C59.3299 30.1009 60.3839 29.0469 60.3839 27.7467C60.3839 26.4466 59.3299 25.3926 58.0297 25.3926C56.7296 25.3926 55.6756 26.4466 55.6756 27.7467C55.6756 29.0469 56.7296 30.1009 58.0297 30.1009Z" fill="white" stroke="#0078D4" stroke-width="1.15764" stroke-miterlimit="10" stroke-linecap="round"/>
<path d="M38.4446 40.5715C39.39 40.5715 40.1565 39.8051 40.1565 38.8597C40.1565 37.9142 39.39 37.1478 38.4446 37.1478C37.4992 37.1478 36.7328 37.9142 36.7328 38.8597C36.7328 39.8051 37.4992 40.5715 38.4446 40.5715Z" fill="white" stroke="#0078D4" stroke-width="1.15764" stroke-miterlimit="10" stroke-linecap="round"/>
<path d="M44.721 33.8244C45.5836 33.8244 46.2828 33.1252 46.2828 32.2626C46.2828 31.4 45.5836 30.7007 44.721 30.7007C43.8584 30.7007 43.1591 31.4 43.1591 32.2626C43.1591 33.1252 43.8584 33.8244 44.721 33.8244Z" fill="white" stroke="#0078D4" stroke-width="1.15764" stroke-miterlimit="10" stroke-linecap="round"/>
<path d="M49.1712 37.8842C50.0338 37.8842 50.7331 37.185 50.7331 36.3224C50.7331 35.4598 50.0338 34.7605 49.1712 34.7605C48.3086 34.7605 47.6093 35.4598 47.6093 36.3224C47.6093 37.185 48.3086 37.8842 49.1712 37.8842Z" fill="white" stroke="#0078D4" stroke-width="1.15764" stroke-miterlimit="10" stroke-linecap="round"/>
<path opacity="0.2" d="M53.6306 73.5015H68.2034V54.172C67.6682 53.8943 67.0752 53.7464 66.4723 53.7405H65.6324C64.7396 53.7535 63.8766 54.0639 63.18 54.6225C62.4833 55.1811 61.9928 55.956 61.7861 56.8247L61.5145 58.0474L61.3481 58.116L60.2918 57.444C59.6663 57.0525 58.9422 56.8474 58.2042 56.8527C57.1543 56.8443 56.1435 57.2504 55.3911 57.9827L54.7968 58.576C54.1747 59.2171 53.7841 60.0471 53.6866 60.9351C53.5892 61.823 53.7904 62.718 54.2586 63.4787L54.9291 64.533L54.861 64.7004L53.6393 64.9715C52.7707 65.1787 51.9959 65.6694 51.4373 66.366C50.8787 67.0627 50.5681 67.9255 50.5546 68.8184V69.6587C50.5681 70.5498 50.8777 71.411 51.4347 72.1068C51.9916 72.8025 52.7641 73.2932 53.6306 73.5015Z" fill="#767676"/>
<path d="M70.2541 69.2383C70.2541 70.0693 70.0076 70.8817 69.5459 71.5727C69.0843 72.2636 68.428 72.8022 67.6603 73.1202C66.8925 73.4382 66.0477 73.5214 65.2326 73.3593C64.4175 73.1972 63.6689 72.797 63.0812 72.2094C62.4936 71.6218 62.0934 70.8731 61.9313 70.058C61.7692 69.243 61.8524 68.3981 62.1704 67.6304C62.4884 66.8626 63.027 66.2064 63.718 65.7447C64.4089 65.283 65.2213 65.0365 66.0523 65.0365C67.1663 65.0379 68.2342 65.481 69.0219 66.2687C69.8096 67.0564 70.2527 68.1243 70.2541 69.2383V69.2383ZM78.0193 66.9752L76.0655 66.5408C75.8633 66.4672 75.6983 66.3168 75.6062 66.1223C75.5998 66.1008 75.5921 66.0798 75.5831 66.0593L75.0441 64.7492C75.0348 64.7265 75.0243 64.7038 75.013 64.6819C74.9398 64.481 74.9495 64.2593 75.0399 64.0655L76.1147 62.3764C76.3345 62.0107 76.4284 61.583 76.3819 61.1588C76.3353 60.7347 76.151 60.3374 75.8571 60.0281L75.2626 59.4335C74.9504 59.1447 74.5536 58.9638 74.1309 58.9174C73.7081 58.871 73.2816 58.9617 72.9142 59.176L71.2247 60.2504C71.117 60.3042 70.9975 60.3303 70.8772 60.326C70.7853 60.3293 70.6937 60.3129 70.6087 60.2777C70.5868 60.2659 70.5642 60.2556 70.541 60.2466L69.2314 59.7071C69.2108 59.6984 69.1897 59.6909 69.1684 59.6844C68.9738 59.5922 68.8235 59.427 68.7499 59.2247L68.3159 57.2713C68.2127 56.8572 67.9765 56.4883 67.6435 56.2212C67.3106 55.9541 66.8992 55.8036 66.4726 55.7927H65.6322C65.2056 55.8035 64.7943 55.9539 64.4614 56.2209C64.1285 56.4879 63.8924 56.8568 63.7893 57.2709L63.3549 59.2256C63.2808 59.4274 63.1306 59.5922 62.9364 59.6844C62.9149 59.6907 62.8939 59.6987 62.8729 59.7071L61.5632 60.2466C61.5401 60.2556 61.5175 60.266 61.4956 60.2777C61.4106 60.313 61.319 60.3294 61.2271 60.326C61.1067 60.33 60.9871 60.304 60.8792 60.2504L59.1905 59.1764C58.8231 58.9621 58.3966 58.8715 57.9739 58.9179C57.5511 58.9643 57.1544 59.1451 56.8422 59.4339L56.2476 60.028C55.9536 60.3374 55.7692 60.7347 55.7227 61.159C55.6762 61.5832 55.7701 62.0111 55.99 62.3768L57.0648 64.0655C57.1547 64.2593 57.1644 64.4807 57.0917 64.6815C57.0804 64.7038 57.0694 64.7265 57.0602 64.7492L56.5211 66.0593C56.5127 66.0799 56.5047 66.1009 56.498 66.1223C56.406 66.3169 56.241 66.4674 56.0387 66.5412L54.0854 66.9748C53.6712 67.078 53.3022 67.3141 53.0351 67.6471C52.7681 67.98 52.6176 68.3914 52.6068 68.8181V69.6585C52.6176 70.0851 52.768 70.4963 53.035 70.8292C53.302 71.1621 53.6708 71.3982 54.0849 71.5014L56.0391 71.9354C56.2412 72.0093 56.406 72.1598 56.498 72.3543C56.5047 72.3757 56.5127 72.3967 56.5211 72.4173L57.0602 73.7274C57.0694 73.7501 57.0799 73.7724 57.0917 73.7946C57.1644 73.9956 57.1546 74.2172 57.0644 74.411L55.99 76.0998C55.7699 76.4655 55.676 76.8933 55.7225 77.3176C55.769 77.7419 55.9535 78.1392 56.2476 78.4485L56.8421 79.0431C57.1545 79.3317 57.5513 79.5125 57.9741 79.5589C58.3969 79.6053 58.8234 79.5147 59.1909 79.3006L60.8787 78.2263C60.9867 78.1725 61.1064 78.1465 61.227 78.1506C61.319 78.147 61.4106 78.1634 61.4955 78.1989C61.5178 78.2099 61.5401 78.2208 61.5632 78.23L62.8728 78.7695C62.8938 78.7779 62.9148 78.7855 62.9363 78.7922C63.1306 78.8845 63.2809 79.0494 63.3548 79.2515L63.7892 81.2053C63.8922 81.6195 64.1283 81.9884 64.4612 82.2555C64.7941 82.5226 65.2055 82.6731 65.6321 82.6839H66.4725C66.8991 82.673 67.3104 82.5225 67.6433 82.2554C67.9762 81.9883 68.2123 81.6194 68.3154 81.2053L68.7498 79.2515C68.8236 79.0494 68.9739 78.8844 69.1683 78.7922C69.1898 78.7855 69.2108 78.778 69.2313 78.7695L70.541 78.23C70.5641 78.2208 70.5868 78.2099 70.6087 78.1989C70.6934 78.1636 70.7849 78.1471 70.8767 78.1506C70.9972 78.1464 71.1168 78.1724 71.2246 78.2263L72.9137 79.3003C73.2812 79.5146 73.7077 79.6053 74.1305 79.559C74.5534 79.5127 74.9502 79.3319 75.2625 79.0431L75.8567 78.449C76.1507 78.1395 76.3352 77.7422 76.3818 77.3179C76.4284 76.8936 76.3345 76.4657 76.1146 76.0998L75.0398 74.4111C74.9951 74.3152 74.9697 74.2115 74.9651 74.1058C74.9605 74.0001 74.9767 73.8945 75.0129 73.7951C75.0243 73.7728 75.0348 73.7506 75.044 73.7279L75.5831 72.4173C75.5921 72.3968 75.5998 72.3758 75.6062 72.3543C75.6984 72.1597 75.8636 72.0092 76.0659 71.9354L78.0189 71.5014C78.4332 71.3984 78.8022 71.1624 79.0693 70.8295C79.3365 70.4966 79.4871 70.0852 79.4979 69.6585V68.8182C79.4872 68.3915 79.3367 67.9801 79.0696 67.6472C78.8025 67.3143 78.4335 67.0782 78.0193 66.9752V66.9752Z" fill="url(#paint1_linear)"/>
<path d="M70.2541 69.2384C70.2541 70.0694 70.0076 70.8818 69.5459 71.5727C69.0842 72.2637 68.428 72.8023 67.6603 73.1203C66.8925 73.4383 66.0476 73.5215 65.2326 73.3594C64.4175 73.1973 63.6688 72.7971 63.0812 72.2095C62.4936 71.6218 62.0934 70.8731 61.9313 70.0581C61.7692 69.243 61.8524 68.3982 62.1704 67.6304C62.4884 66.8627 63.027 66.2064 63.7179 65.7447C64.4089 65.283 65.2213 65.0366 66.0523 65.0366C67.1663 65.038 68.2342 65.4811 69.0219 66.2688C69.8096 67.0565 70.2527 68.1244 70.2541 69.2384V69.2384Z" fill="url(#paint2_linear)"/>
<path d="M25.0191 48.6554C23.3777 48.6554 21.8036 49.3074 20.6429 50.4681C19.4823 51.6287 18.8303 53.2028 18.8303 54.8442V54.8442C18.8304 56.1902 19.2691 57.4995 20.08 58.5738C20.8908 59.6482 22.0297 60.429 23.3241 60.798" stroke="white" stroke-width="0.76968" stroke-miterlimit="10"/>
<path d="M22.837 51.9632L24.8524 48.9324C24.885 48.8834 24.9076 48.8285 24.9189 48.7709C24.9302 48.7132 24.9301 48.6539 24.9185 48.5962C24.9069 48.5386 24.8841 48.4838 24.8513 48.435C24.8186 48.3862 24.7765 48.3444 24.7276 48.3118L21.9247 46.448" stroke="white" stroke-width="0.76968" stroke-miterlimit="10" stroke-linecap="round"/>
<path d="M25.0191 62.7946C25.992 62.7946 26.7807 62.0059 26.7807 61.0329C26.7807 60.06 25.992 59.2712 25.0191 59.2712C24.0461 59.2712 23.2574 60.06 23.2574 61.0329C23.2574 62.0059 24.0461 62.7946 25.0191 62.7946Z" stroke="white" stroke-width="0.76968" stroke-miterlimit="10"/>
</g>
<defs>
<linearGradient id="paint0_linear" x1="47.8698" y1="-15.1531" x2="51.8525" y2="130.615" gradientUnits="userSpaceOnUse">
<stop stop-color="#00ABDE"/>
<stop offset="1" stop-color="#007ED8"/>
</linearGradient>
<linearGradient id="paint1_linear" x1="66.0523" y1="55.7927" x2="66.0523" y2="82.7321" gradientUnits="userSpaceOnUse">
<stop stop-color="#005BA1"/>
<stop offset="0.26" stop-color="#00589D"/>
<stop offset="0.53" stop-color="#004F90"/>
<stop offset="0.8" stop-color="#003F7C"/>
<stop offset="1" stop-color="#003067"/>
</linearGradient>
<linearGradient id="paint2_linear" x1="66.0523" y1="73.4401" x2="66.0523" y2="65.0366" gradientUnits="userSpaceOnUse">
<stop stop-color="#008BF1"/>
<stop offset="0.22" stop-color="#0086EC"/>
<stop offset="0.49" stop-color="#0078DD"/>
<stop offset="0.79" stop-color="#0061C4"/>
<stop offset="1" stop-color="#004DAE"/>
</linearGradient>
<clipPath id="clip0">
<rect width="99.2799" height="99.28" fill="white"/>
</clipPath>
</defs>
</svg>
