<svg width="100" height="100" viewBox="0 0 100 100" fill="none" xmlns="http://www.w3.org/2000/svg">
<g clip-path="url(#clip0)">
<path d="M49.6401 96.4501C40.382 96.4501 31.3317 93.7047 23.6339 88.5612C15.936 83.4176 9.93624 76.1069 6.3933 67.5535C2.85036 59.0001 1.92337 49.5882 3.72954 40.5079C5.53571 31.4277 9.99394 23.0869 16.5404 16.5404C23.0869 9.99394 31.4277 5.53571 40.5079 3.72954C49.5882 1.92337 59.0001 2.85036 67.5535 6.3933C76.1069 9.93624 83.4176 15.936 88.5612 23.6339C93.7047 31.3317 96.4501 40.382 96.4501 49.6401C96.4505 55.7874 95.24 61.8746 92.8878 67.554C90.5355 73.2335 87.0875 78.3939 82.7407 82.7407C78.3939 87.0875 73.2335 90.5355 67.554 92.8878C61.8746 95.24 55.7874 96.4505 49.6401 96.4501V96.4501Z" fill="url(#paint0_linear)"/>
<path fill-rule="evenodd" clip-rule="evenodd" d="M95.54 49.64C95.54 58.7182 92.848 67.5924 87.8045 75.1407C82.7609 82.6889 75.5923 88.572 67.2052 92.0461C58.818 95.5201 49.5891 96.4291 40.6854 94.658C31.7816 92.887 23.603 88.5154 17.1838 82.0962C10.7646 75.677 6.39302 67.4984 4.62196 58.5946C2.85089 49.6909 3.75987 40.462 7.23393 32.0748C10.708 23.6877 16.5911 16.5191 24.1393 11.4755C31.6875 6.43198 40.5618 3.73999 49.64 3.73999C55.6677 3.73997 61.6363 4.92719 67.2052 7.23387C72.774 9.54056 77.834 12.9215 82.0963 17.1837C86.3585 21.446 89.7394 26.5059 92.0461 32.0748C94.3528 37.6436 95.54 43.6123 95.54 49.64V49.64ZM49.64 3.62732e-07C59.4579 3.62732e-07 69.0552 2.91134 77.2185 8.36585C85.3818 13.8204 91.7442 21.5731 95.5014 30.6436C99.2585 39.7141 100.242 49.6951 98.3262 59.3243C96.4108 68.9535 91.6831 77.7985 84.7408 84.7408C77.7985 91.6831 68.9535 96.4108 59.3243 98.3262C49.6951 100.242 39.7141 99.2585 30.6436 95.5014C21.5731 91.7442 13.8204 85.3818 8.36584 77.2185C2.91133 69.0552 -1.61629e-06 59.4579 3.61524e-07 49.64C-0.000786426 43.1209 1.28265 36.6656 3.77702 30.6427C6.27138 24.6197 9.92781 19.1471 14.5375 14.5375C19.1471 9.9278 24.6197 6.27138 30.6427 3.77701C36.6656 1.28265 43.121 -0.000787738 49.64 3.62732e-07V3.62732e-07Z" fill="#F2F1F0"/>
<path fill-rule="evenodd" clip-rule="evenodd" d="M92.7296 49.6405C92.7296 58.1629 90.2024 66.494 85.4676 73.5801C80.7328 80.6662 74.0031 86.1891 66.1294 89.4505C58.2558 92.7119 49.5918 93.5652 41.2332 91.9026C32.8745 90.24 25.1966 86.136 19.1704 80.1098C13.1441 74.0835 9.0402 66.4056 7.37756 58.047C5.71493 49.6883 6.56825 41.0244 9.82963 33.1507C13.091 25.277 18.614 18.5473 25.7001 13.8125C32.7862 9.07773 41.1172 6.55055 49.6396 6.55055C55.2984 6.5502 60.9018 7.66452 66.1298 9.82988C71.3579 11.9952 76.1083 15.1692 80.1096 19.1705C84.1109 23.1719 87.2849 27.9222 89.4503 33.1503C91.6156 38.3784 92.7299 43.9818 92.7296 49.6405ZM49.6396 2.81055C58.9017 2.81055 67.9558 5.55708 75.657 10.7028C83.3581 15.8486 89.3604 23.1624 92.9049 31.7195C96.4493 40.2765 97.3767 49.6925 95.5698 58.7766C93.7628 67.8608 89.3027 76.2051 82.7534 82.7544C76.2041 89.3036 67.8598 93.7638 58.7757 95.5707C49.6916 97.3777 40.2756 96.4503 31.7185 92.9058C23.1615 89.3614 15.8476 83.3591 10.7019 75.6579C5.55613 67.9568 2.8096 58.9026 2.8096 49.6405C2.81079 37.2208 7.74504 25.3101 16.5271 16.5281C25.3092 7.74599 37.2199 2.81174 49.6396 2.81055V2.81055Z" fill="#0078D4"/>
<path fill-rule="evenodd" clip-rule="evenodd" d="M92.7295 49.6396C92.7295 58.162 90.2023 66.493 85.4675 73.5791C80.7327 80.6652 74.003 86.1882 66.1293 89.4496C58.2556 92.711 49.5917 93.5643 41.233 91.9016C32.8744 90.239 25.1965 86.1351 19.1702 80.1088C13.144 74.0826 9.04008 66.4047 7.37744 58.0461C5.7148 49.6874 6.56813 41.0234 9.82951 33.1498C13.0909 25.2761 18.6138 18.5464 25.7 13.8116C32.7861 9.07679 41.1171 6.54961 49.6395 6.54961C55.2982 6.54927 60.9016 7.66359 66.1297 9.82894C71.3578 11.9943 76.1081 15.1683 80.1095 19.1696C84.1108 23.171 87.2848 27.9213 89.4501 33.1494C91.6155 38.3774 92.7298 43.9809 92.7295 49.6396V49.6396ZM49.6395 2.80961C58.9016 2.80961 67.9557 5.55614 75.6568 10.7019C83.358 15.8476 89.3603 23.1615 92.9048 31.7185C96.4492 40.2756 97.3766 49.6916 95.5696 58.7757C93.7627 67.8598 89.3026 76.2041 82.7533 82.7534C76.204 89.3027 67.8597 93.7628 58.7756 95.5698C49.6914 97.3767 40.2755 96.4493 31.7184 92.9049C23.1614 89.3604 15.8475 83.3581 10.7018 75.657C5.55601 67.9558 2.80948 58.9017 2.80948 49.6396C2.81066 37.2199 7.7449 25.3092 16.527 16.5271C25.309 7.74501 37.2197 2.81076 49.6395 2.80957V2.80961Z" fill="#0078D4"/>
<path opacity="0.2" fill-rule="evenodd" clip-rule="evenodd" d="M70.959 76.3714C70.959 80.9702 61.4139 84.6959 49.6392 84.6959C37.8653 84.6959 28.3194 80.9702 28.3194 76.3714C28.3194 71.7726 37.8654 68.0469 49.6392 68.0469C61.414 68.0469 70.959 71.7725 70.959 76.3714Z" fill="#003067"/>
<path d="M49.6391 73.1447C40.3205 73.1447 32.7652 70.3303 32.7652 66.8564V75.2407C32.7652 78.7146 40.3205 81.5289 49.6391 81.5289C58.9583 81.5289 66.5129 78.7146 66.5129 75.2407V66.8564C66.5129 70.3303 58.9583 73.1447 49.6391 73.1447Z" fill="url(#paint1_linear)"/>
<path d="M49.6391 75.9154V78.708C49.6379 78.8968 49.5988 79.0834 49.5242 79.2567C49.4495 79.4301 49.3408 79.5867 49.2045 79.7172C49.0681 79.8477 48.907 79.9496 48.7305 80.0166C48.5541 80.0837 48.366 80.1146 48.1773 80.1075C39.5429 79.8315 32.7652 77.1325 32.7652 73.8424V75.2398C32.7652 78.7136 40.3205 81.528 49.6391 81.528C58.9583 81.528 66.5129 78.7136 66.5129 75.2398V68.2529C66.5129 71.557 59.6797 74.2644 50.9932 74.5209C50.6306 74.532 50.2866 74.6837 50.0338 74.944C49.7811 75.2043 49.6395 75.5526 49.6391 75.9154V75.9154Z" fill="url(#paint2_linear)"/>
<path d="M49.6389 73.3109C58.9569 73.3109 66.5106 70.4538 66.5106 66.9294C66.5106 63.405 58.9569 60.5479 49.6389 60.5479C40.321 60.5479 32.7673 63.405 32.7673 66.9294C32.7673 70.4538 40.321 73.3109 49.6389 73.3109Z" fill="#003067"/>
<path d="M49.6391 61.2667C40.3205 61.2667 32.7652 58.4524 32.7652 54.9785V63.3627C32.7652 66.8366 40.3205 69.6509 49.6391 69.6509C58.9583 69.6509 66.5129 66.8366 66.5129 63.3627V54.9785C66.5129 58.4524 58.9583 61.2667 49.6391 61.2667Z" fill="url(#paint3_linear)"/>
<path d="M49.6391 64.0385V66.8312C49.6379 67.0199 49.5989 67.2065 49.5242 67.3798C49.4495 67.5532 49.3408 67.7098 49.2045 67.8403C49.0681 67.9709 48.907 68.0727 48.7305 68.1397C48.5541 68.2067 48.366 68.2376 48.1773 68.2306C39.5429 67.9546 32.7652 65.2556 32.7652 61.9654V63.3629C32.7652 66.8367 40.3205 69.651 49.6391 69.651C58.9583 69.651 66.5129 66.8367 66.5129 63.3629V56.376C66.5129 59.6801 59.6797 62.3875 50.9932 62.6439C50.6306 62.655 50.2865 62.8068 50.0338 63.0671C49.7811 63.3274 49.6395 63.6757 49.6391 64.0385V64.0385Z" fill="url(#paint4_linear)"/>
<path d="M49.6389 61.4222C58.9569 61.4222 66.5106 58.5651 66.5106 55.0407C66.5106 51.5163 58.9569 48.6592 49.6389 48.6592C40.321 48.6592 32.7673 51.5163 32.7673 55.0407C32.7673 58.5651 40.321 61.4222 49.6389 61.4222Z" fill="#003067"/>
<path d="M49.6391 49.3888C40.3205 49.3888 32.7652 46.5745 32.7652 43.1006V51.4849C32.7652 54.9587 40.3205 57.773 49.6391 57.773C58.9583 57.773 66.5129 54.9587 66.5129 51.4849V43.1006C66.5129 46.5745 58.9583 49.3888 49.6391 49.3888Z" fill="url(#paint5_linear)"/>
<path d="M49.6391 52.1605V54.9532C49.6379 55.1419 49.5988 55.3285 49.5242 55.5019C49.4495 55.6752 49.3408 55.8318 49.2045 55.9623C49.0681 56.0929 48.907 56.1947 48.7305 56.2617C48.5541 56.3288 48.366 56.3597 48.1773 56.3527C39.5429 56.0767 32.7652 53.3777 32.7652 50.0875V51.4849C32.7652 54.9588 40.3205 57.7731 49.6391 57.7731C58.9583 57.7731 66.5129 54.9588 66.5129 51.4849V44.498C66.5129 47.8021 59.6797 50.5095 50.9932 50.7659C50.6306 50.777 50.2865 50.9288 50.0338 51.1891C49.7811 51.4494 49.6395 51.7977 49.6391 52.1605V52.1605Z" fill="url(#paint6_linear)"/>
<path fill-rule="evenodd" clip-rule="evenodd" d="M65.7579 43.1521C65.7579 46.629 58.5414 49.4458 49.6392 49.4458C40.7377 49.4458 33.5205 46.629 33.5205 43.1521C33.5205 39.6752 40.7377 36.8584 49.6392 36.8584C58.5414 36.8584 65.7579 39.6752 65.7579 43.1521Z" fill="#003067"/>
<path d="M49.639 50.2328C40.1598 50.2328 32.7349 47.1227 32.7349 43.1526C32.7349 39.1824 40.1598 36.0723 49.639 36.0723C59.1182 36.0723 66.545 39.1824 66.545 43.1526C66.545 47.1228 59.1181 50.2328 49.639 50.2328ZM49.639 37.6454C40.6046 37.6454 34.3081 40.5474 34.3081 43.1526C34.3081 45.7577 40.6046 48.6597 49.639 48.6597C58.6753 48.6597 64.9718 45.7577 64.9718 43.1526C64.9718 40.5475 58.6752 37.6454 49.639 37.6454Z" fill="url(#paint7_linear)"/>
<path d="M61.7694 18.5387C56.1824 18.5387 52.455 17.3789 50.3711 14.9884C50.2771 14.8888 50.1638 14.8094 50.038 14.7551C49.9123 14.7008 49.7768 14.6729 49.6398 14.6729C49.5028 14.6729 49.3673 14.7008 49.2416 14.7551C49.1158 14.8094 49.0025 14.8888 48.9085 14.9884C46.8247 17.3789 43.0974 18.5387 37.5103 18.5387C37.3828 18.5387 37.2565 18.5638 37.1386 18.6125C37.0208 18.6613 36.9137 18.7329 36.8235 18.823C36.7334 18.9132 36.6618 19.0203 36.6131 19.1382C36.5643 19.256 36.5392 19.3823 36.5393 19.5099V27.2751C36.5393 35.6695 40.3254 41.1582 49.2033 45.6208C49.3393 45.6874 49.4885 45.7224 49.6399 45.723C49.7917 45.7229 49.9413 45.6865 50.0763 45.6169C58.9542 41.1543 62.7404 35.6695 62.7404 27.2751V19.5099C62.7399 19.2525 62.6374 19.0058 62.4554 18.8238C62.2734 18.6418 62.0268 18.5393 61.7694 18.5387V18.5387Z" fill="url(#paint8_linear)"/>
<path d="M49.6173 15.6456C51.8759 18.2364 55.7879 19.5105 61.5463 19.5105C61.6106 19.5105 61.6757 19.5103 61.7405 19.51V27.2753C61.7405 35.2374 58.1178 40.4556 49.6525 44.7274C41.162 40.4596 37.5393 35.2402 37.5393 27.2753L37.5103 19.5389C43.4037 19.5389 47.3786 18.2654 49.6264 15.6746L49.6399 15.673L49.6173 15.6456V15.6456ZM49.6397 14.673C49.5025 14.6708 49.3663 14.6978 49.2402 14.7522C49.1142 14.8066 49.0011 14.8871 48.9085 14.9885C46.8247 17.379 43.0974 18.5389 37.5103 18.5389C37.3828 18.5388 37.2565 18.5639 37.1386 18.6127C37.0208 18.6614 36.9137 18.733 36.8235 18.8232C36.7334 18.9134 36.6618 19.0204 36.6131 19.1383C36.5643 19.2561 36.5392 19.3825 36.5393 19.51V27.2753C36.5393 35.6696 40.3254 41.1583 49.2033 45.6209C49.3393 45.6875 49.4885 45.7225 49.6399 45.7231C49.7917 45.723 49.9413 45.6866 50.0763 45.617C58.9542 41.1544 62.7404 35.6696 62.7404 27.2753V19.51C62.7399 19.2526 62.6374 19.0059 62.4554 18.8239C62.2734 18.6419 62.0268 18.5394 61.7694 18.5389C56.1824 18.5389 52.455 17.379 50.3711 14.9885C50.2785 14.8871 50.1654 14.8066 50.0393 14.7522C49.9132 14.6978 49.777 14.6708 49.6397 14.673Z" fill="url(#paint9_linear)"/>
<path opacity="0.2" d="M52.0149 30.1568C52.0149 30.6267 51.8756 31.0861 51.6145 31.4768C51.3534 31.8675 50.9823 32.1721 50.5482 32.3519C50.114 32.5318 49.6363 32.5788 49.1754 32.4871C48.7145 32.3954 48.2911 32.1692 47.9588 31.8369C47.6265 31.5046 47.4003 31.0812 47.3086 30.6203C47.2169 30.1594 47.264 29.6817 47.4438 29.2475C47.6236 28.8134 47.9282 28.4423 48.3189 28.1812C48.7096 27.9201 49.169 27.7808 49.6389 27.7808C50.2689 27.7815 50.8728 28.0321 51.3182 28.4775C51.7636 28.9229 52.0142 29.5269 52.0149 30.1568V30.1568ZM56.406 28.8771L55.3011 28.6315C55.1868 28.5898 55.0935 28.5048 55.0414 28.3948C55.0378 28.3827 55.0334 28.3708 55.0284 28.3592L54.7235 27.6183C54.7183 27.6055 54.7124 27.5927 54.706 27.5803C54.6646 27.4667 54.6701 27.3414 54.7212 27.2318L55.3289 26.2766C55.4533 26.0698 55.5063 25.828 55.48 25.5881C55.4537 25.3483 55.3495 25.1236 55.1833 24.9487L54.8471 24.6125C54.6706 24.4492 54.4462 24.3468 54.2072 24.3206C53.9681 24.2944 53.7269 24.3457 53.5192 24.4669L52.5638 25.0744C52.5029 25.1049 52.4353 25.1196 52.3673 25.1171C52.3153 25.1191 52.2635 25.1097 52.2155 25.0898C52.2031 25.0832 52.1903 25.0773 52.1772 25.0723L51.4366 24.7672C51.425 24.7623 51.4131 24.758 51.401 24.7544C51.291 24.7022 51.2059 24.6088 51.1643 24.4944L50.9189 23.3898C50.8605 23.1556 50.727 22.947 50.5387 22.796C50.3504 22.645 50.1178 22.5599 49.8765 22.5537H49.4013C49.1601 22.5598 48.9275 22.6449 48.7393 22.7958C48.551 22.9468 48.4175 23.1554 48.3592 23.3896L48.1136 24.4949C48.0717 24.609 47.9867 24.7022 47.8769 24.7544C47.8648 24.7579 47.8529 24.7624 47.841 24.7672L47.1004 25.0723C47.0874 25.0774 47.0746 25.0833 47.0622 25.0898C47.0141 25.1098 46.9624 25.1191 46.9104 25.1171C46.8423 25.1194 46.7747 25.1047 46.7136 25.0744L45.7587 24.4671C45.551 24.346 45.3098 24.2947 45.0707 24.3209C44.8317 24.3472 44.6073 24.4494 44.4308 24.6127L44.0946 24.9487C43.9283 25.1237 43.8241 25.3484 43.7978 25.5883C43.7715 25.8282 43.8246 26.0701 43.9489 26.2769L44.5567 27.2318C44.6076 27.3414 44.613 27.4666 44.5719 27.5801C44.5655 27.5927 44.5593 27.6056 44.5541 27.6184L44.2493 28.3592C44.2445 28.3709 44.24 28.3827 44.2362 28.3949C44.1842 28.5049 44.0909 28.59 43.9765 28.6318L42.8719 28.8769C42.6377 28.9353 42.4291 29.0688 42.278 29.2571C42.127 29.4454 42.0419 29.678 42.0358 29.9193V30.3945C42.0419 30.6357 42.127 30.8683 42.278 31.0565C42.429 31.2448 42.6375 31.3783 42.8717 31.4366L43.9767 31.682C44.091 31.7238 44.1842 31.8089 44.2362 31.9189C44.24 31.931 44.2445 31.9429 44.2493 31.9546L44.5541 32.6954C44.5593 32.7082 44.5653 32.7208 44.5719 32.7334C44.6131 32.847 44.6075 32.9724 44.5565 33.082L43.9489 34.0369C43.8245 34.2437 43.7714 34.4856 43.7977 34.7255C43.824 34.9654 43.9283 35.1901 44.0946 35.365L44.4308 35.7012C44.6074 35.8645 44.8318 35.9667 45.0709 35.9929C45.3099 36.0191 45.5511 35.9679 45.759 35.8469L46.7134 35.2393C46.7745 35.2089 46.8422 35.1942 46.9104 35.1966C46.9624 35.1945 47.0142 35.2038 47.0622 35.2239C47.0748 35.2301 47.0874 35.2363 47.1005 35.2415L47.8411 35.5466L47.8769 35.5594C47.9868 35.6116 48.0718 35.7048 48.1136 35.8191L48.3593 36.9239C48.4175 37.1581 48.551 37.3668 48.7392 37.5178C48.9275 37.6688 49.1601 37.7539 49.4014 37.76H49.8766C50.1178 37.7539 50.3504 37.6687 50.5386 37.5177C50.7269 37.3667 50.8604 37.1581 50.9187 36.9239L51.1643 35.8191C51.206 35.7048 51.2911 35.6115 51.401 35.5594L51.4366 35.5466L52.1772 35.2415C52.1903 35.2363 52.2031 35.2301 52.2155 35.2239C52.2634 35.2039 52.3152 35.1946 52.3671 35.1966C52.4352 35.1942 52.5028 35.2089 52.5638 35.2393L53.5189 35.8466C53.7267 35.9679 53.9679 36.0192 54.207 35.993C54.4461 35.9668 54.6705 35.8645 54.8471 35.7012L55.1831 35.3652C55.3494 35.1903 55.4537 34.9656 55.4801 34.7256C55.5064 34.4857 55.4534 34.2437 55.329 34.0368L54.7212 33.0819C54.6959 33.0277 54.6816 32.969 54.679 32.9093C54.6764 32.8495 54.6856 32.7898 54.706 32.7336C54.7124 32.721 54.7184 32.7084 54.7236 32.6956L55.0284 31.9545C55.0335 31.9429 55.0379 31.931 55.0415 31.9189C55.0936 31.8088 55.187 31.7237 55.3014 31.682L56.4058 31.4366C56.6401 31.3783 56.8487 31.2449 56.9998 31.0566C57.1509 30.8684 57.236 30.6357 57.2422 30.3944V29.9193C57.2361 29.678 57.151 29.4453 56.9999 29.2571C56.8489 29.0688 56.6402 28.9353 56.406 28.8771H56.406Z" fill="#003067"/>
<path d="M52.0149 29.5055C52.0149 29.9754 51.8756 30.4348 51.6145 30.8255C51.3534 31.2162 50.9823 31.5208 50.5482 31.7006C50.114 31.8804 49.6363 31.9275 49.1754 31.8358C48.7145 31.7441 48.2911 31.5178 47.9588 31.1856C47.6265 30.8533 47.4003 30.4299 47.3086 29.969C47.2169 29.5081 47.264 29.0304 47.4438 28.5962C47.6236 28.1621 47.9282 27.791 48.3189 27.5299C48.7096 27.2688 49.169 27.1295 49.6389 27.1295C50.2689 27.1302 50.8728 27.3808 51.3182 27.8262C51.7636 28.2716 52.0142 28.8756 52.0149 29.5055V29.5055ZM56.406 28.2258L55.3011 27.9801C55.1868 27.9385 55.0935 27.8534 55.0414 27.7434C55.0378 27.7313 55.0334 27.7194 55.0284 27.7078L54.7235 26.967C54.7183 26.9541 54.7124 26.9413 54.706 26.929C54.6646 26.8154 54.6701 26.69 54.7212 26.5804L55.3289 25.6253C55.4533 25.4185 55.5063 25.1766 55.48 24.9367C55.4537 24.6969 55.3495 24.4723 55.1833 24.2973L54.8471 23.9611C54.6706 23.7978 54.4462 23.6955 54.2071 23.6693C53.9681 23.643 53.7269 23.6943 53.5192 23.8155L52.5638 24.423C52.5029 24.4535 52.4353 24.4682 52.3673 24.4658C52.3153 24.4677 52.2635 24.4584 52.2155 24.4385C52.2031 24.4318 52.1903 24.426 52.1772 24.4209L51.4366 24.1158C51.425 24.1109 51.4131 24.1067 51.401 24.103C51.291 24.0508 51.2059 23.9575 51.1643 23.8431L50.9189 22.7385C50.8605 22.5043 50.727 22.2957 50.5387 22.1446C50.3504 21.9936 50.1178 21.9085 49.8765 21.9023H49.4013C49.1601 21.9084 48.9275 21.9935 48.7393 22.1445C48.551 22.2955 48.4175 22.5041 48.3592 22.7382L48.1136 23.8435C48.0717 23.9577 47.9867 24.0508 47.8769 24.103C47.8648 24.1065 47.8529 24.1111 47.841 24.1158L47.1004 24.4209C47.0874 24.426 47.0746 24.4319 47.0622 24.4385C47.0141 24.4584 46.9624 24.4678 46.9104 24.4658C46.8423 24.468 46.7747 24.4534 46.7136 24.423L45.7587 23.8157C45.551 23.6946 45.3098 23.6434 45.0707 23.6696C44.8317 23.6958 44.6073 23.7981 44.4308 23.9614L44.0946 24.2974C43.9283 24.4723 43.8241 24.697 43.7978 24.9369C43.7715 25.1768 43.8246 25.4187 43.9489 25.6255L44.5567 26.5805C44.6076 26.69 44.613 26.8152 44.5719 26.9288C44.5655 26.9414 44.5593 26.9542 44.5541 26.967L44.2493 27.7079C44.2445 27.7195 44.24 27.7314 44.2362 27.7435C44.1842 27.8535 44.0909 27.9387 43.9765 27.9804L42.8719 28.2256C42.6377 28.2839 42.4291 28.4174 42.278 28.6057C42.127 28.794 42.0419 29.0266 42.0358 29.2679V29.7431C42.0419 29.9843 42.127 30.2169 42.278 30.4051C42.429 30.5934 42.6375 30.7269 42.8717 30.7852L43.9767 31.0306C44.091 31.0724 44.1842 31.1575 44.2362 31.2675C44.24 31.2796 44.2445 31.2915 44.2493 31.3032L44.5541 32.044C44.5593 32.0568 44.5653 32.0694 44.5719 32.082C44.6131 32.1956 44.6075 32.321 44.5565 32.4305L43.9489 33.3855C43.8245 33.5923 43.7714 33.8342 43.7977 34.0741C43.824 34.314 43.9283 34.5387 44.0946 34.7136L44.4308 35.0498C44.6074 35.2131 44.8318 35.3153 45.0709 35.3415C45.31 35.3677 45.5511 35.3165 45.759 35.1955L46.7134 34.5879C46.7745 34.5575 46.8422 34.5428 46.9104 34.5452C46.9624 34.5431 47.0142 34.5524 47.0622 34.5725C47.0748 34.5787 47.0874 34.5849 47.1005 34.5901L47.8411 34.8952L47.8769 34.908C47.9868 34.9602 48.0718 35.0534 48.1136 35.1677L48.3593 36.2725C48.4175 36.5067 48.551 36.7154 48.7392 36.8664C48.9275 37.0174 49.1601 37.1025 49.4014 37.1086H49.8766C50.1178 37.1025 50.3504 37.0173 50.5386 36.8663C50.7269 36.7153 50.8604 36.5067 50.9187 36.2725L51.1643 35.1677C51.206 35.0534 51.2911 34.9601 51.401 34.908L51.4366 34.8952L52.1772 34.5901C52.1903 34.5849 52.2031 34.5787 52.2155 34.5725C52.2634 34.5525 52.3152 34.5432 52.3671 34.5452C52.4352 34.5428 52.5028 34.5575 52.5638 34.5879L53.5189 35.1952C53.7267 35.3165 53.9679 35.3678 54.207 35.3416C54.4461 35.3154 54.6705 35.2131 54.8471 35.0498L55.1831 34.7138C55.3494 34.5389 55.4537 34.3142 55.4801 34.0742C55.5064 33.8343 55.4534 33.5923 55.329 33.3854L54.7212 32.4305C54.6959 32.3763 54.6816 32.3176 54.679 32.2579C54.6764 32.1981 54.6856 32.1384 54.706 32.0822C54.7124 32.0696 54.7184 32.057 54.7236 32.0442L55.0284 31.3031C55.0335 31.2915 55.0379 31.2796 55.0415 31.2675C55.0936 31.1574 55.187 31.0723 55.3014 31.0306L56.4058 30.7852C56.6401 30.727 56.8487 30.5935 56.9998 30.4052C57.1509 30.217 57.236 29.9844 57.2422 29.7431V29.2679C57.2361 29.0266 57.151 28.794 56.9999 28.6057C56.8489 28.4175 56.6402 28.284 56.406 28.2258H56.406Z" fill="url(#paint10_linear)"/>
<path opacity="0.6" d="M52.0149 29.5059C52.0149 29.9758 51.8756 30.4352 51.6145 30.8259C51.3534 31.2166 50.9824 31.5212 50.5482 31.701C50.114 31.8809 49.6363 31.9279 49.1754 31.8362C48.7145 31.7446 48.2911 31.5183 47.9589 31.186C47.6266 30.8537 47.4003 30.4303 47.3086 29.9694C47.2169 29.5085 47.264 29.0308 47.4438 28.5966C47.6236 28.1625 47.9282 27.7914 48.3189 27.5303C48.7096 27.2692 49.169 27.1299 49.6389 27.1299C50.2689 27.1306 50.8728 27.3812 51.3182 27.8266C51.7636 28.2721 52.0142 28.876 52.0149 29.5059V29.5059Z" fill="url(#paint11_linear)"/>
</g>
<defs>
<linearGradient id="paint0_linear" x1="47.8698" y1="-15.153" x2="51.8525" y2="130.615" gradientUnits="userSpaceOnUse">
<stop stop-color="#00ABDE"/>
<stop offset="1" stop-color="#007ED8"/>
</linearGradient>
<linearGradient id="paint1_linear" x1="49.639" y1="66.8564" x2="49.639" y2="81.5289" gradientUnits="userSpaceOnUse">
<stop stop-color="#32BEDD"/>
<stop offset="0.18" stop-color="#32CAEA"/>
<stop offset="0.41" stop-color="#32D2F2"/>
<stop offset="0.78" stop-color="#32D4F5"/>
</linearGradient>
<linearGradient id="paint2_linear" x1="49.639" y1="68.2529" x2="49.639" y2="81.528" gradientUnits="userSpaceOnUse">
<stop stop-color="#008BF1"/>
<stop offset="0.22" stop-color="#0086EC"/>
<stop offset="0.49" stop-color="#0078DD"/>
<stop offset="0.79" stop-color="#0061C4"/>
<stop offset="1" stop-color="#004DAE"/>
</linearGradient>
<linearGradient id="paint3_linear" x1="49.639" y1="54.9785" x2="49.639" y2="69.6509" gradientUnits="userSpaceOnUse">
<stop stop-color="#32BEDD"/>
<stop offset="0.18" stop-color="#32CAEA"/>
<stop offset="0.41" stop-color="#32D2F2"/>
<stop offset="0.78" stop-color="#32D4F5"/>
</linearGradient>
<linearGradient id="paint4_linear" x1="49.639" y1="56.376" x2="49.639" y2="69.651" gradientUnits="userSpaceOnUse">
<stop stop-color="#008BF1"/>
<stop offset="0.22" stop-color="#0086EC"/>
<stop offset="0.49" stop-color="#0078DD"/>
<stop offset="0.79" stop-color="#0061C4"/>
<stop offset="1" stop-color="#004DAE"/>
</linearGradient>
<linearGradient id="paint5_linear" x1="49.639" y1="43.1006" x2="49.639" y2="57.773" gradientUnits="userSpaceOnUse">
<stop stop-color="#32BEDD"/>
<stop offset="0.18" stop-color="#32CAEA"/>
<stop offset="0.41" stop-color="#32D2F2"/>
<stop offset="0.78" stop-color="#32D4F5"/>
</linearGradient>
<linearGradient id="paint6_linear" x1="49.639" y1="44.498" x2="49.639" y2="57.7732" gradientUnits="userSpaceOnUse">
<stop stop-color="#008BF1"/>
<stop offset="0.22" stop-color="#0086EC"/>
<stop offset="0.49" stop-color="#0078DD"/>
<stop offset="0.79" stop-color="#0061C4"/>
<stop offset="1" stop-color="#004DAE"/>
</linearGradient>
<linearGradient id="paint7_linear" x1="49.6399" y1="50.2328" x2="49.6399" y2="36.0469" gradientUnits="userSpaceOnUse">
<stop stop-color="#005BA1"/>
<stop offset="0.26" stop-color="#00589D"/>
<stop offset="0.53" stop-color="#004F90"/>
<stop offset="0.8" stop-color="#003F7C"/>
<stop offset="1" stop-color="#003067"/>
</linearGradient>
<linearGradient id="paint8_linear" x1="49.6399" y1="14.6729" x2="49.6399" y2="45.7231" gradientUnits="userSpaceOnUse">
<stop stop-color="#008BF1"/>
<stop offset="0.22" stop-color="#0086EC"/>
<stop offset="0.49" stop-color="#0078DD"/>
<stop offset="0.79" stop-color="#0061C4"/>
<stop offset="1" stop-color="#004DAE"/>
</linearGradient>
<linearGradient id="paint9_linear" x1="35" y1="29.999" x2="62" y2="29.999" gradientUnits="userSpaceOnUse">
<stop stop-color="#008BF1"/>
<stop offset="0.22" stop-color="#0086EC"/>
<stop offset="0.49" stop-color="#0078DD"/>
<stop offset="0.79" stop-color="#0061C4"/>
<stop offset="1" stop-color="#004DAE"/>
</linearGradient>
<linearGradient id="paint10_linear" x1="49.6389" y1="37.1086" x2="49.6389" y2="21.9023" gradientUnits="userSpaceOnUse">
<stop stop-color="#CCCCCC"/>
<stop offset="1" stop-color="white"/>
</linearGradient>
<linearGradient id="paint11_linear" x1="283.147" y1="178.631" x2="283.147" y2="156.05" gradientUnits="userSpaceOnUse">
<stop stop-color="#CCCCCC"/>
<stop offset="1" stop-color="white"/>
</linearGradient>
<clipPath id="clip0">
<rect width="99.2799" height="99.28" fill="white"/>
</clipPath>
</defs>
</svg>
