<svg width="103" height="103" viewBox="0 0 103 103" fill="none" xmlns="http://www.w3.org/2000/svg">
<path d="M51.1 98.1642C25.25 98.1642 4.29004 77.2142 4.29004 51.3542C4.29004 25.4942 25.25 4.54419 51.1 4.54419C76.95 4.54419 97.91 25.5042 97.91 51.3542C97.91 77.2042 76.95 98.1642 51.1 98.1642Z" fill="url(#paint0_linear_982_62)"/>
<path fill-rule="evenodd" clip-rule="evenodd" d="M97 51.3544C97 76.7044 76.45 97.2543 51.1 97.2543C25.75 97.2543 5.19996 76.7044 5.19996 51.3544C5.19996 26.0044 25.75 5.45436 51.1 5.45436C76.45 5.45436 97 26.0044 97 51.3544ZM51.1 1.71436C78.52 1.71436 100.74 23.9344 100.74 51.3544C100.74 78.7744 78.51 100.994 51.1 100.994C23.68 100.994 1.45996 78.7644 1.45996 51.3544C1.45996 23.9344 23.68 1.71436 51.1 1.71436Z" fill="#F2F1F0"/>
<path fill-rule="evenodd" clip-rule="evenodd" d="M94.19 51.3542C94.19 75.1542 74.9 94.4442 51.1 94.4442C27.3 94.4442 8.01002 75.1542 8.01002 51.3542C8.01002 27.5542 27.3 8.26418 51.1 8.26418C74.9 8.26418 94.19 27.5542 94.19 51.3542ZM51.1 4.52417C76.96 4.52417 97.93 25.4942 97.93 51.3542C97.93 77.2142 76.96 98.1842 51.1 98.1842C25.24 98.1842 4.27002 77.2142 4.27002 51.3542C4.27002 25.4942 25.23 4.52417 51.1 4.52417Z" fill="url(#paint1_linear_982_62)"/>
<path d="M50.7751 31.5485C48.0051 31.5485 45.7451 29.2785 45.7451 26.4885C45.7451 23.6985 48.0051 21.4285 50.7751 21.4285C53.5451 21.4285 55.8051 23.6985 55.8051 26.4885C55.8051 29.2785 53.5451 31.5485 50.7751 31.5485ZM50.7751 23.4285C49.1051 23.4285 47.7451 24.7985 47.7451 26.4885C47.7451 28.1785 49.1051 29.5485 50.7751 29.5485C52.4451 29.5485 53.8051 28.1785 53.8051 26.4885C53.8051 24.7985 52.4451 23.4285 50.7751 23.4285Z" fill="url(#paint2_linear_982_62)"/>
<path d="M63.645 79.6383H38.545L35.905 84.5583L34.145 83.6083L41.455 69.9983L43.205 70.9583L39.615 77.6383H62.575L58.985 70.9583L60.745 70.0083L68.055 83.6183L66.295 84.5683L63.645 79.6383Z" fill="url(#paint3_linear_982_62)"/>
<path d="M78.305 31.8982H23.915V68.4582H78.305V31.8982Z" fill="url(#paint4_linear_982_62)"/>
<path d="M23.2051 26.4783H78.9951C80.0951 26.4783 80.9951 27.3783 80.9951 28.4783V30.5683C80.9951 31.6683 80.0951 32.5683 78.9951 32.5683H23.2051C22.1051 32.5683 21.2051 31.6683 21.2051 30.5683V28.4783C21.2051 27.3783 22.1051 26.4783 23.2051 26.4783Z" fill="url(#paint5_linear_982_62)"/>
<path d="M22.8951 67.6882H79.2951C80.2251 67.6882 80.9851 68.4482 80.9851 69.3782C80.9851 70.3082 80.2251 71.0682 79.2951 71.0682H22.8951C21.9651 71.0782 21.2051 70.3182 21.2051 69.3882C21.2051 68.4482 21.9651 67.6882 22.8951 67.6882Z" fill="url(#paint6_linear_982_62)"/>
<path d="M78.305 31.8982H23.915V68.4582H78.305V31.8982Z" fill="white"/>
<path d="M23.2051 26.4783H78.9951C80.0951 26.4783 80.9951 27.3783 80.9951 28.4783V30.5683C80.9951 31.6683 80.0951 32.5683 78.9951 32.5683H23.2051C22.1051 32.5683 21.2051 31.6683 21.2051 30.5683V28.4783C21.2051 27.3783 22.1051 26.4783 23.2051 26.4783Z" fill="url(#paint7_linear_982_62)"/>
<path d="M22.8951 67.6882H79.2951C80.2251 67.6882 80.9851 68.4482 80.9851 69.3782C80.9851 70.3082 80.2251 71.0682 79.2951 71.0682H22.8951C21.9651 71.0782 21.2051 70.3182 21.2051 69.3882C21.2051 68.4482 21.9651 67.6882 22.8951 67.6882Z" fill="url(#paint8_linear_982_62)"/>
<g opacity="0.4" filter="url(#filter0_d_982_62)">
<path fill-rule="evenodd" clip-rule="evenodd" d="M40.2038 40.3436V46.9895C40.2038 54.3313 43.3662 58.9926 51.098 62.9847C58.826 58.9926 61.9922 54.3313 61.9922 46.9933V40.3436C57.0135 40.2213 53.4306 39.1123 51.098 36.971C48.7655 39.1162 45.1825 40.2213 40.2038 40.3436ZM51.098 64.9998C50.9527 64.9998 50.8074 64.9654 50.6736 64.9004C42.0087 60.5451 38.311 55.1878 38.311 46.9933V39.4106C38.311 38.8867 38.7355 38.4623 39.2594 38.4623C44.7122 38.4623 48.3525 37.3266 50.3868 34.9941C50.7462 34.5811 51.4536 34.5811 51.8131 34.9941C53.8474 37.3266 57.4877 38.4623 62.9405 38.4623C63.4643 38.4623 63.8888 38.8867 63.8888 39.4106V46.9933C63.8888 55.1878 60.1911 60.5451 51.5263 64.9004C51.3886 64.9654 51.2433 64.9998 51.098 64.9998Z" fill="#FBFBFC"/>
</g>
<path fill-rule="evenodd" clip-rule="evenodd" d="M51.098 35.8757C48.6589 38.6719 44.3593 39.6002 39.4585 39.6002V47.0492C39.4585 54.7275 42.8635 59.6697 51.098 63.8076C59.3325 59.6697 62.7375 54.7275 62.7375 47.0492V39.6002C57.8367 39.6002 53.5372 38.6719 51.098 35.8757Z" fill="#243A5E"/>
<path fill-rule="evenodd" clip-rule="evenodd" d="M51.0981 35.8757V63.8076C59.3326 59.6697 62.7377 54.7275 62.7377 47.0492V39.6002C57.8368 39.6002 53.5373 38.6719 51.0981 35.8757Z" fill="#002D4C"/>
<path d="M55.3006 45.975C55.3006 43.6692 53.4116 41.7764 51.1058 41.7764C49.0295 41.7764 47.2973 43.3021 46.9684 45.2867H48.6853C48.8 44.8813 49.018 44.5066 49.3277 44.1969C49.8057 43.7189 50.4366 43.4589 51.102 43.4589C51.7712 43.4589 52.3983 43.7189 52.8763 44.1969C53.3542 44.6748 53.6143 45.3058 53.6143 45.9711C53.6143 46.105 53.6143 46.4835 53.6104 46.9845H46.9072V55.4084H55.2968V47.5389C55.3006 46.778 55.3006 46.1585 55.3006 45.975Z" fill="white"/>
<path d="M51.106 52.116C51.7063 52.116 52.192 51.6304 52.192 51.0301C52.192 50.4297 51.7063 49.9441 51.106 49.9441C50.5056 49.9441 50.02 50.4297 50.02 51.0301C50.02 51.6304 50.5056 52.116 51.106 52.116Z" fill="#002D4C"/>
<defs>
<filter id="filter0_d_982_62" x="37.311" y="34.6843" width="27.5776" height="33.3154" filterUnits="userSpaceOnUse" color-interpolation-filters="sRGB">
<feFlood flood-opacity="0" result="BackgroundImageFix"/>
<feColorMatrix in="SourceAlpha" type="matrix" values="0 0 0 0 0 0 0 0 0 0 0 0 0 0 0 0 0 0 127 0" result="hardAlpha"/>
<feOffset dy="2"/>
<feGaussianBlur stdDeviation="0.5"/>
<feComposite in2="hardAlpha" operator="out"/>
<feColorMatrix type="matrix" values="0 0 0 0 0 0 0 0 0 0 0 0 0 0 0 0 0 0 0.15 0"/>
<feBlend mode="normal" in2="BackgroundImageFix" result="effect1_dropShadow_982_62"/>
<feBlend mode="normal" in="SourceGraphic" in2="effect1_dropShadow_982_62" result="shape"/>
</filter>
<linearGradient id="paint0_linear_982_62" x1="21.0846" y1="-27.9577" x2="281.02" y2="362.772" gradientUnits="userSpaceOnUse">
<stop offset="0.0435" stop-color="white"/>
<stop offset="0.4857" stop-color="#4DC1EA"/>
<stop offset="0.8452" stop-color="#0078D4"/>
</linearGradient>
<linearGradient id="paint1_linear_982_62" x1="56.2917" y1="-9.56395" x2="54.9112" y2="106.29" gradientUnits="userSpaceOnUse">
<stop offset="0.135417" stop-color="#2E77BC"/>
<stop offset="0.484375" stop-color="#1D4A79"/>
<stop offset="0.932292" stop-color="#092E4C"/>
</linearGradient>
<linearGradient id="paint2_linear_982_62" x1="43.537" y1="11.555" x2="70.4661" y2="67.114" gradientUnits="userSpaceOnUse">
<stop stop-color="#007ED8"/>
<stop offset="0.7065" stop-color="#002D4C"/>
</linearGradient>
<linearGradient id="paint3_linear_982_62" x1="57.0122" y1="156.179" x2="45.6736" y2="16.998" gradientUnits="userSpaceOnUse">
<stop stop-color="#007ED8"/>
<stop offset="0.7065" stop-color="#002D4C"/>
</linearGradient>
<linearGradient id="paint4_linear_982_62" x1="51.1099" y1="68.458" x2="51.1099" y2="31.898" gradientUnits="userSpaceOnUse">
<stop stop-color="#D2EBFF"/>
<stop offset="1" stop-color="#F0FFFD"/>
</linearGradient>
<linearGradient id="paint5_linear_982_62" x1="51.1001" y1="26.4918" x2="51.1001" y2="32.5738" gradientUnits="userSpaceOnUse">
<stop stop-color="#0099BE"/>
<stop offset="1" stop-color="#006E97"/>
</linearGradient>
<linearGradient id="paint6_linear_982_62" x1="51.0951" y1="67.6968" x2="51.0951" y2="71.0772" gradientUnits="userSpaceOnUse">
<stop stop-color="#0099BE"/>
<stop offset="1" stop-color="#006E97"/>
</linearGradient>
<linearGradient id="paint7_linear_982_62" x1="51.1001" y1="26.4918" x2="51.1001" y2="32.5738" gradientUnits="userSpaceOnUse">
<stop stop-color="#007ED8"/>
<stop offset="0.7065" stop-color="#002D4C"/>
</linearGradient>
<linearGradient id="paint8_linear_982_62" x1="51.0951" y1="67.6968" x2="51.0951" y2="71.0772" gradientUnits="userSpaceOnUse">
<stop stop-color="#007ED8"/>
<stop offset="0.7065" stop-color="#002D4C"/>
</linearGradient>
</defs>
</svg>
