<svg width="181" height="191" viewBox="0 0 181 191" fill="none" xmlns="http://www.w3.org/2000/svg">
<path d="M90.3646 189.497C93.4246 189.497 96.4346 188.647 99.0946 187.027L161.065 149.367C166.605 145.997 170.035 139.667 170.035 132.827V58.1169C170.035 51.2969 166.605 44.9569 161.065 41.5769L99.0946 3.91689C93.7646 0.676891 86.9446 0.696891 81.6446 3.91689L19.6746 41.5969C14.1346 44.9669 10.6846 51.2969 10.6846 58.1369V132.837C10.6846 138.597 13.1346 144.017 17.2346 147.587V147.617L81.6446 187.047C84.2846 188.647 87.3046 189.497 90.3646 189.497ZM91.0146 8.44689C92.9646 8.44689 95.4446 9.65689 97.1546 10.7069L157.915 47.8969C161.665 50.1769 163.785 56.7769 163.785 61.5269L163.155 132.827C163.155 137.577 159.955 141.847 156.205 144.127L95.8046 180.507C92.3746 182.597 89.5846 182.597 86.1446 180.507L24.9346 144.037C21.1846 141.757 18.1646 137.557 18.1646 132.827V59.1869C18.1646 54.4469 20.8946 49.5569 24.6646 47.2669L85.2446 10.7069C86.9446 9.66689 89.0646 8.44689 91.0146 8.44689Z" fill="#F2F1F0"/>
<path fill-rule="evenodd" clip-rule="evenodd" d="M98.2646 12.0266C95.8146 10.5266 93.0946 9.77661 90.3646 9.77661C87.6346 9.77661 84.9146 10.5366 82.4646 12.0266L26.3346 46.3566C21.3146 49.4266 18.2046 55.1766 18.2046 61.4266V129.527C18.2046 135.757 21.3046 141.527 26.3346 144.597L82.4646 178.927C84.9146 180.427 87.6346 181.177 90.3646 181.177C93.0946 181.177 95.8146 180.437 98.2646 178.927L154.395 144.597C159.415 141.527 162.525 135.757 162.525 129.527V61.4266C162.525 55.1966 159.425 49.4466 154.395 46.3566L98.2646 12.0266Z" fill="url(#paint0_linear_409_26648)"/>
<path fill-rule="evenodd" clip-rule="evenodd" d="M90.3646 11.2468C92.0446 11.2468 93.9346 12.1168 95.9946 13.3668L154.465 48.9068C158.115 51.1268 160.525 55.3968 160.525 60.2268V130.707C160.525 135.527 158.115 139.807 154.465 142.027L96.0046 177.567C94.0446 178.757 92.1246 179.507 90.3746 179.507C88.6246 179.507 86.7046 178.757 84.7446 177.567L26.2646 142.037C24.2546 140.807 22.8046 139.607 21.8246 137.997C20.8446 136.397 20.2046 134.177 20.2046 130.717V60.2368C20.2046 55.4068 22.6146 51.1368 26.2646 48.9168L84.7246 13.3768C86.8146 12.1268 88.6746 11.2468 90.3646 11.2468ZM98.0746 180.997L156.535 145.457C161.455 142.467 164.515 136.847 164.515 130.717V60.2368C164.515 54.1068 161.455 48.4868 156.535 45.4968L98.0746 9.95683C95.9646 8.67683 93.2546 7.24683 90.3646 7.24683C87.4646 7.24683 84.7546 8.68683 82.6646 9.94683H82.6546L24.1846 45.4968C19.2646 48.4868 16.2046 54.1068 16.2046 60.2368V130.717C16.2046 134.677 16.9446 137.667 18.4046 140.077C19.8646 142.477 21.9246 144.077 24.1846 145.447L82.6446 180.987C84.8646 182.337 87.5346 183.517 90.3546 183.517C93.1746 183.517 95.8546 182.347 98.0746 180.997Z" fill="url(#paint1_linear_409_26648)"/>
<path d="M146.565 72.8089L146.641 122.146L71.614 79.3974L71.5372 30.0604L146.565 72.8089Z" fill="#EAEBEC"/>
<path d="M73.1481 78.4782L73.0714 32.6653L145.03 73.7284L145.107 119.541L73.1481 78.4782Z" fill="url(#paint2_linear_409_26648)"/>
<path d="M71.5374 30.0599L73.6854 28.7576L148.713 71.5827L146.565 72.8085L71.5374 30.0599Z" fill="#B7B7B7"/>
<path d="M146.488 72.7961L148.636 71.5703L148.713 120.907L146.565 122.133L146.488 72.7961Z" fill="#D3D3D3"/>
<path d="M133.087 106.095L133.168 104.247L134.775 105.211V107.059L133.087 106.095Z" fill="#185A97"/>
<path d="M133.168 102.382V100.534L134.774 101.418V103.346L133.168 102.382Z" fill="#0178D4"/>
<path d="M133.168 98.7669V96.8386L134.774 97.8028V99.6507L133.168 98.7669Z" fill="#189AE2"/>
<path d="M136.398 107.942V106.094L138.004 107.058V108.906L136.398 107.942Z" fill="#185A97"/>
<path d="M136.398 104.23V102.382L138.004 103.346V105.194L136.398 104.23Z" fill="#0178D4"/>
<path d="M136.398 100.613V98.7651L138.004 99.6489V101.497L136.398 100.613Z" fill="#189AE2"/>
<path d="M139.612 109.871V107.943L141.218 108.907V110.755L139.612 109.871Z" fill="#185A97"/>
<path d="M139.612 106.095V104.247L141.218 105.211V107.059L139.612 106.095Z" fill="#0178D4"/>
<path d="M139.612 102.463V100.615L141.218 101.499V103.427L139.612 102.463Z" fill="#189AE2"/>
<path d="M134.373 82.7622C133.73 82.3605 133.168 81.4767 133.168 80.6732C133.168 79.9501 133.73 79.6288 134.373 79.9501C135.015 80.3519 135.578 81.2356 135.578 82.0391C135.514 82.8425 135.032 83.1639 134.373 82.7622Z" fill="#46D9FA"/>
<path d="M140.013 86.056C139.371 85.6543 138.808 84.7705 138.808 83.9671C138.808 83.244 139.371 82.9226 140.013 83.244C140.656 83.5653 141.218 84.5295 141.218 85.3329C141.218 86.1364 140.656 86.4577 140.013 86.056Z" fill="#46D9FA"/>
<path d="M134.373 76.3202C133.73 75.9184 133.168 75.0347 133.168 74.2312C133.168 73.5081 133.73 73.1867 134.373 73.5081C135.015 73.9098 135.578 74.7936 135.578 75.5971C135.594 76.4166 135.032 76.6415 134.373 76.3202Z" fill="#4CE1FD"/>
<path d="M140.013 79.5494C139.371 79.1477 138.808 78.2639 138.808 77.4605C138.808 76.7374 139.371 76.416 140.013 76.7374C140.656 77.1391 141.218 78.0229 141.218 78.8263C141.218 79.6298 140.656 79.9511 140.013 79.5494Z" fill="#4CE1FD"/>
<path d="M134.373 95.0708C133.73 94.669 133.168 93.7852 133.168 92.9818C133.168 92.1784 133.73 91.9373 134.373 92.2587C135.015 92.6604 135.578 93.5442 135.578 94.3477C135.594 95.1511 135.032 95.4725 134.373 95.0708ZM134.373 93.2228C134.132 93.0621 133.971 93.2228 133.971 93.4639C133.971 93.7049 134.132 94.0263 134.373 94.187C134.614 94.3477 134.774 94.187 134.774 93.9459C134.791 93.7049 134.63 93.3835 134.373 93.2228Z" fill="#26ADE9"/>
<path d="M134.373 88.546C133.73 88.1443 133.168 87.2605 133.168 86.457C133.168 85.6536 133.73 85.4125 134.373 85.7339C135.015 86.1356 135.578 87.0194 135.578 87.8229C135.594 88.6263 135.032 88.9477 134.373 88.546ZM134.373 86.7784C134.132 86.6177 133.971 86.7784 133.971 87.0194C133.971 87.2605 134.132 87.5818 134.373 87.7425C134.614 87.9032 134.774 87.7425 134.774 87.5015C134.791 87.1801 134.63 86.8587 134.373 86.7784Z" fill="#31BBEE"/>
<path d="M140.013 98.3654C139.371 97.9637 138.808 97.0799 138.808 96.2765C138.808 95.473 139.371 95.232 140.013 95.5534C140.656 95.9551 141.218 96.8389 141.218 97.6423C141.218 98.4458 140.656 98.6868 140.013 98.3654ZM140.013 96.5175C139.772 96.3568 139.612 96.5175 139.612 96.7585C139.612 96.9996 139.772 97.321 140.013 97.4816C140.254 97.6423 140.415 97.4816 140.415 97.2406C140.415 96.9192 140.254 96.6782 140.013 96.5175Z" fill="#26ADE9"/>
<path d="M140.013 91.8571C139.371 91.4554 138.808 90.5716 138.808 89.7682C138.808 88.9647 139.371 88.7237 140.013 89.0451C140.656 89.4468 141.218 90.3306 141.218 91.134C141.218 91.9375 140.656 92.2589 140.013 91.8571ZM140.013 89.9931C139.772 89.8325 139.612 89.9931 139.612 90.2342C139.612 90.4752 139.772 90.7966 140.013 90.9573C140.254 91.118 140.415 90.9573 140.415 90.7162C140.415 90.3949 140.254 90.1538 140.013 89.9931Z" fill="#31BBEE"/>
<path d="M86.5517 58.6253C87.3512 59.1229 88.0096 59.8175 88.4637 60.6426C89.5162 62.4625 89.5118 64.4315 88.4637 65.0279C87.9331 65.3305 87.2402 65.234 86.5473 64.835C85.7491 64.3371 85.0922 63.6425 84.6397 62.8177C83.5872 60.9934 83.5916 59.0288 84.6397 58.4324C85.1659 58.1298 85.8588 58.2263 86.5517 58.6253Z" fill="#005193"/>
<path d="M123.485 81.1787L125.533 84.7265L123.411 85.9324L122.17 86.599L119.652 82.2136L119.731 82.1654L117.026 83.6564L114.517 79.3105L111.947 80.7753L109.342 76.232L106.773 77.5959L100.936 74.2279C100.501 75.3281 99.715 76.2534 98.6991 76.8591C96.7389 77.9774 94.1734 77.6178 91.608 76.1399C89.0426 74.6621 86.4859 72.0572 84.5388 68.6848C83.0063 66.109 82.0364 63.238 81.6927 60.2605C81.6445 57.1908 82.6312 54.7043 84.6528 53.551C86.6745 52.3976 89.1785 52.7879 91.7396 54.2658C94.3006 55.7436 96.8617 58.3485 98.8088 61.7209C100.042 63.8105 100.926 66.0871 101.427 68.4612L123.485 81.1787ZM88.4505 65.0537C89.5118 64.4486 89.5162 62.4795 88.4505 60.6684C87.9952 59.8454 87.337 59.1525 86.5385 58.6555C85.8457 58.2565 85.1528 58.16 84.6265 58.4626C83.5653 59.0677 83.5609 61.0324 84.6265 62.8479C85.0791 63.6727 85.736 64.3673 86.5341 64.8652C87.227 65.2642 87.9199 65.3607 88.4505 65.0581" fill="white"/>
<path d="M83.5071 127.121C83.6225 127.188 83.6225 127.294 83.5071 127.361L75.0669 132.264L74.6631 132.504L66.1267 137.465C66.0628 137.498 65.992 137.515 65.9201 137.515C65.8482 137.515 65.7773 137.498 65.7134 137.465L52.9568 130.101L53.3702 129.861L65.9152 137.109L82.8919 127.246L70.3373 119.998L70.741 119.758L83.5071 127.121Z" fill="#F2F2F2"/>
<path d="M88.6131 142.726L88.219 142.957L72.1415 133.802L72.5453 133.561L88.6131 142.726Z" fill="#F2F2F2"/>
<path opacity="0.3" d="M71.3979 125.234L74.5504 123.485L43.5133 106.599L40.4485 108.348L71.3979 125.234Z" fill="black"/>
<path d="M40.4485 70.6433L40.3498 105.293L71.2773 122.169L71.376 87.5188L40.4485 70.6433Z" fill="#243A5E"/>
<path d="M71.2554 122.181L74.4079 120.432L74.5285 85.7822L71.376 87.5312L71.2554 122.181Z" fill="#1A2C45"/>
<path d="M71.3979 87.5082L74.5504 85.7593L43.5133 68.8728L40.4485 70.6218L71.3979 87.5082Z" fill="#175A98"/>
<path d="M51.8195 88.2111C51.7975 90.4973 53.4259 93.2989 55.4325 94.4613C57.4117 95.6016 59.0675 94.6915 59.0675 92.3943C59.0894 90.0861 57.4611 87.2735 55.4545 86.1222C53.4588 84.9708 51.8195 85.9029 51.8195 88.2111Z" fill="url(#paint3_radial_409_26648)"/>
<path d="M49.3358 98.6716C49.292 98.858 49.292 99.1322 49.292 99.3624C49.3687 100.393 49.9499 101.693 51.0629 103.052C52.2361 104.516 53.7877 105.799 55.3503 106.687C56.8909 107.575 58.448 108.085 59.6157 107.981C60.7123 107.871 61.288 107.268 61.3647 106.331C61.4086 106.166 61.3866 105.903 61.3647 105.684C61.0577 102.038 58.4863 97.8383 55.3777 96.0509C52.269 94.2526 49.7416 95.4643 49.3358 98.6716Z" fill="url(#paint4_radial_409_26648)"/>
<path opacity="0.3" d="M63.6619 130.706L66.8144 128.957L35.7773 112.071L32.7125 113.82L63.6619 130.706Z" fill="black"/>
<path d="M32.7125 76.1155L32.6138 110.766L63.5523 127.652L63.651 93.0019L32.7125 76.1155Z" fill="#1D4A79"/>
<path d="M63.5413 127.652L66.6938 125.903L66.8144 91.2533L63.651 93.0023L63.5413 127.652Z" fill="#1A3556"/>
<path d="M63.6619 92.9804L66.8144 91.2314L35.7773 74.345L32.7125 76.0939L63.6619 92.9804Z" fill="#166DB3"/>
<path d="M44.0945 93.671C44.0725 95.9463 45.7009 98.7589 47.7075 99.9212C49.6977 101.062 51.3425 100.151 51.3425 97.8542C51.3644 95.557 49.7361 92.7335 47.7294 91.5821C45.7118 90.4417 44.0835 91.3628 44.0945 93.671Z" fill="url(#paint5_radial_409_26648)"/>
<path d="M41.5944 104.142C41.5505 104.328 41.5505 104.602 41.5505 104.833C41.6382 105.863 42.2194 107.163 43.3324 108.522C44.5056 109.975 46.0572 111.269 47.6198 112.157C49.1604 113.046 50.7175 113.55 51.8853 113.451C52.9818 113.342 53.5575 112.739 53.6342 111.801C53.6781 111.636 53.6561 111.373 53.6342 111.154C53.3272 107.508 50.7558 103.308 47.6472 101.521C44.5495 99.7228 42.0111 100.923 41.5944 104.142Z" fill="url(#paint6_radial_409_26648)"/>
<path opacity="0.3" d="M55.9205 136.166L59.0839 134.417L28.0468 117.53L24.9821 119.279L55.9205 136.166Z" fill="black"/>
<path d="M24.993 81.5876L24.8943 116.238L55.8328 133.113L55.9314 98.4631L24.993 81.5876Z" fill="#2E78BC"/>
<path d="M55.7999 133.112L58.9633 131.363L59.0839 96.7126L55.9314 98.4616L55.7999 133.112Z" fill="#155A98"/>
<path d="M55.9205 98.4419L59.0839 96.693L28.0468 79.8065L24.9821 81.5555L55.9205 98.4419Z" fill="#35ADE3"/>
<path d="M63.1137 122.333C63.0697 122.333 63.0697 122.289 63.0697 122.289C63.1137 122.333 63.1137 122.333 63.1137 122.333Z" fill="#2F78BB"/>
<path d="M31.9447 112.169C27.4544 104.729 27.438 96.6586 31.9173 94.153C36.3966 91.6474 43.6611 95.6497 48.1568 103.095C52.6471 110.535 52.6635 118.605 48.1842 121.111C43.7049 123.622 36.435 119.614 31.9447 112.169Z" fill="white"/>
<path d="M36.1993 100.053C36.1774 102.329 37.8057 105.141 39.8124 106.304C41.7916 107.444 43.4473 106.534 43.4473 104.237C43.4693 101.939 41.8409 99.1159 39.8343 97.9645C37.8386 96.8242 36.1993 97.7562 36.1993 100.053Z" fill="url(#paint7_radial_409_26648)"/>
<path d="M33.7157 110.514C33.6718 110.711 33.6718 110.985 33.6718 111.216C33.7486 112.246 34.3297 113.546 35.4427 114.905C36.616 116.358 38.1676 117.652 39.7301 118.54C41.2707 119.429 42.8278 119.938 43.9956 119.834C45.0921 119.714 45.6678 119.111 45.7446 118.173C45.7884 118.009 45.7665 117.745 45.7446 117.526C45.4375 113.891 42.8662 109.691 39.7575 107.904C36.6489 106.117 34.1104 107.307 33.7157 110.514Z" fill="url(#paint8_radial_409_26648)"/>
<path d="M85.9862 142.569L88.1953 141.289C88.5575 141.084 89.0283 141.084 89.5353 141.325L87.3261 142.605C86.8191 142.376 86.3483 142.363 85.9862 142.569Z" fill="#727272"/>
<path d="M92.2394 141.496L90.0302 142.775C89.4266 143.126 88.5575 143.101 87.3261 142.606L89.5353 141.327C90.7787 141.81 91.6358 141.846 92.2394 141.496Z" fill="#727272"/>
<path d="M103.394 151.878L105.603 150.599C106.146 150.985 106.653 151.576 107.016 152.253C107.378 152.941 107.583 153.665 107.571 154.281L105.362 155.56C105.362 154.932 105.169 154.208 104.806 153.532C104.456 152.856 103.949 152.265 103.394 151.878Z" fill="#727272"/>
<path d="M99.3136 140.263L101.523 138.984C101.511 144.247 101.656 147.603 105.615 150.597L103.406 151.876C99.4464 148.883 99.2895 145.539 99.3136 140.263Z" fill="#727272"/>
<path d="M91.4547 135.735L93.6639 134.456L101.523 138.995L99.3136 140.274L91.4547 135.735Z" fill="#898989"/>
<path d="M99.3136 140.262C99.3016 145.526 99.4464 148.882 103.406 151.876C103.949 152.262 104.456 152.853 104.818 153.53C105.181 154.218 105.386 154.942 105.374 155.558L85.3463 143.993C85.3463 143.365 85.5515 142.87 85.9137 142.616C86.2759 142.363 86.7829 142.351 87.3382 142.604C91.2978 144.174 91.4427 140.999 91.4547 135.735L99.3136 140.262Z" fill="url(#paint9_linear_409_26648)"/>
<path d="M115.345 119.718L116.347 118.97L117.554 118.427C118.291 118.849 118.882 119.887 118.882 120.72L116.673 122C116.685 121.179 116.094 120.153 115.345 119.718Z" fill="#299BE2"/>
<path d="M77.0042 98.0357L79.2134 96.7561C79.4548 96.6112 79.7929 96.6354 80.1671 96.8527L77.9579 98.1323C77.5837 97.915 77.2457 97.9029 77.0042 98.0357Z" fill="#5494D3"/>
<path d="M118.424 149.076L116.214 150.356C116.456 150.211 116.601 149.921 116.601 149.499L118.81 148.219C118.81 148.642 118.665 148.931 118.424 149.076Z" fill="#0072C6"/>
<path d="M116.685 122.023L118.894 120.743L118.822 148.231L116.613 149.511L116.685 122.023Z" fill="#0072C6"/>
<path d="M77.9582 98.1307L80.1674 96.8511L117.554 118.436L115.345 119.715L77.9582 98.1307Z" fill="#5494D3"/>
<path d="M115.357 119.717C116.094 120.139 116.685 121.177 116.685 122.01L116.613 149.498C116.613 150.343 116.009 150.681 115.273 150.259L77.8738 128.674C77.1374 128.251 76.5458 127.213 76.5458 126.38L76.6183 98.8923C76.6183 98.0472 77.2219 97.7092 77.9583 98.1317L115.357 119.717Z" fill="url(#paint10_linear_409_26648)"/>
<path d="M104.067 119.505V128.35L96.4263 132.811V123.94L104.067 119.505Z" fill="#50E6FF"/>
<path d="M104.068 119.504L96.4275 123.964L88.7872 119.504L96.4275 115.068L104.068 119.504Z" fill="#C3F1FF"/>
<path d="M96.4275 123.965V132.811L88.7872 128.35V119.505L96.4275 123.965Z" fill="#9CEBFF"/>
<path d="M88.7872 128.35L96.4275 123.94V132.811L88.7872 128.35Z" fill="#C3F1FF"/>
<path d="M104.067 128.35L96.4263 123.94V132.811L104.067 128.35Z" fill="#9CEBFF"/>
<defs>
<linearGradient id="paint0_linear_409_26648" x1="90.3645" y1="9.77661" x2="90.3645" y2="181.176" gradientUnits="userSpaceOnUse">
<stop stop-color="#00ABDE"/>
<stop offset="1" stop-color="#007ED8"/>
</linearGradient>
<linearGradient id="paint1_linear_409_26648" x1="36.4843" y1="4.56793" x2="203.161" y2="286.899" gradientUnits="userSpaceOnUse">
<stop stop-color="#007ED8"/>
<stop offset="0.7065" stop-color="#002D4C"/>
</linearGradient>
<linearGradient id="paint2_linear_409_26648" x1="122.73" y1="38.0035" x2="103.646" y2="100.658" gradientUnits="userSpaceOnUse">
<stop stop-color="#005BA1"/>
<stop offset="0.26" stop-color="#00589D"/>
<stop offset="0.53" stop-color="#004F90"/>
<stop offset="0.8" stop-color="#003F7C"/>
<stop offset="1" stop-color="#003067"/>
</linearGradient>
<radialGradient id="paint3_radial_409_26648" cx="0" cy="0" r="1" gradientUnits="userSpaceOnUse" gradientTransform="translate(54.2237 88.0734) scale(24.171)">
<stop stop-color="#53C2EB"/>
<stop offset="0.585" stop-color="#2E78BC"/>
</radialGradient>
<radialGradient id="paint4_radial_409_26648" cx="0" cy="0" r="1" gradientUnits="userSpaceOnUse" gradientTransform="translate(54.1509 88.9723) scale(24.171)">
<stop stop-color="#53C2EB"/>
<stop offset="0.585" stop-color="#2E78BC"/>
</radialGradient>
<radialGradient id="paint5_radial_409_26648" cx="0" cy="0" r="1" gradientUnits="userSpaceOnUse" gradientTransform="translate(46.4935 93.5283) scale(24.171)">
<stop stop-color="#53C2EB"/>
<stop offset="0.585" stop-color="#2E78BC"/>
</radialGradient>
<radialGradient id="paint6_radial_409_26648" cx="0" cy="0" r="1" gradientUnits="userSpaceOnUse" gradientTransform="translate(46.4219 94.4467) scale(24.171)">
<stop stop-color="#53C2EB"/>
<stop offset="0.585" stop-color="#2E78BC"/>
</radialGradient>
<radialGradient id="paint7_radial_409_26648" cx="0" cy="0" r="1" gradientUnits="userSpaceOnUse" gradientTransform="translate(36.2006 92.703) scale(58.5877)">
<stop stop-color="#4FC2EB"/>
<stop offset="0.585" stop-color="#2E76BC"/>
</radialGradient>
<radialGradient id="paint8_radial_409_26648" cx="0" cy="0" r="1" gradientUnits="userSpaceOnUse" gradientTransform="translate(36.2006 92.7026) scale(58.5877)">
<stop stop-color="#4FC2EB"/>
<stop offset="0.585" stop-color="#2E76BC"/>
</radialGradient>
<linearGradient id="paint9_linear_409_26648" x1="92.7786" y1="160.822" x2="102.174" y2="120.11" gradientUnits="userSpaceOnUse">
<stop offset="0.15" stop-color="#CCCCCC"/>
<stop offset="1" stop-color="#707070"/>
</linearGradient>
<linearGradient id="paint10_linear_409_26648" x1="104.216" y1="101.175" x2="91.8972" y2="138.475" gradientUnits="userSpaceOnUse">
<stop stop-color="#005BA1"/>
<stop offset="0.26" stop-color="#00589D"/>
<stop offset="0.53" stop-color="#004F90"/>
<stop offset="0.8" stop-color="#003F7C"/>
<stop offset="1" stop-color="#003067"/>
</linearGradient>
</defs>
</svg>
