<?xml version="1.0" encoding="UTF-8" standalone="no"?>
<!DOCTYPE svg PUBLIC "-//W3C//DTD SVG 1.1//EN" "http://www.w3.org/Graphics/SVG/1.1/DTD/svg11.dtd">
<!-- Generated by Microsoft Visio, SVG Export adoption-phases.svg Page-1 -->
<svg xmlns="http://www.w3.org/2000/svg" xmlns:xlink="http://www.w3.org/1999/xlink" xmlns:ev="http://www.w3.org/2001/xml-events"
		xmlns:v="http://schemas.microsoft.com/visio/2003/SVGExtensions/" width="5.18229in" height="2.38542in"
		viewBox="0 0 373.125 171.75" xml:space="preserve" color-interpolation-filters="sRGB" class="st12">
	<title>Diagrams for applying Zero Trust principles to Azure IaaS infrastructure</title>
	<v:documentProperties v:langID="1033" v:viewMarkup="false"/>

	<style type="text/css">
	<![CDATA[
		.st1 {fill:#ffffff;stroke:none;stroke-linecap:round;stroke-linejoin:round;stroke-width:0.75}
		.st2 {fill:#0078d4;stroke:none;stroke-linecap:round;stroke-linejoin:round;stroke-width:0.24}
		.st3 {fill:#ffffff;font-family:Segoe UI Semibold;font-size:1.00001em}
		.st4 {marker-end:url(#mrkr4-12);stroke:#000000;stroke-linecap:round;stroke-linejoin:round;stroke-width:1}
		.st5 {fill:#000000;fill-opacity:1;stroke:#000000;stroke-opacity:1;stroke-width:0.28409090909091}
		.st6 {fill:#cce4f7;stroke:none;stroke-linecap:round;stroke-linejoin:round;stroke-width:0.24}
		.st7 {fill:#000000;font-family:Segoe UI Semibold;font-size:1.00001em}
		.st8 {fill:#c2c2c2;stroke:none;stroke-linecap:butt;stroke-width:1.45327}
		.st9 {fill:#0078d4;stroke:none;stroke-linecap:butt;stroke-width:1.45327}
		.st10 {fill:#cce4f7;stroke:none;stroke-linecap:butt;stroke-width:1.45327}
		.st11 {fill:#c2c2c2;stroke:none;stroke-linecap:round;stroke-linejoin:round;stroke-width:0.24}
		.st12 {fill:none;fill-rule:evenodd;font-size:12px;overflow:visible;stroke-linecap:square;stroke-miterlimit:3}
	]]>
	</style>

	<defs id="Markers">
		<g id="lend4">
			<path d="M 2 1 L 0 0 L 2 -1 L 2 1 " style="stroke:none"/>
		</g>
		<marker id="mrkr4-12" class="st5" v:arrowType="4" v:arrowSize="2" v:setback="7.04" refX="-7.04" orient="auto"
				markerUnits="strokeWidth" overflow="visible">
			<use xlink:href="#lend4" transform="scale(-3.52,-3.52) "/>
		</marker>
	</defs>
	<g v:mID="0" v:index="1" v:groupContext="foregroundPage">
		<v:userDefs>
			<v:ud v:nameU="visNavType" v:val="VT0(1):26"/>
		</v:userDefs>
		<title>Page-1</title>
		<v:pageProperties v:drawingScale="1" v:pageScale="1" v:drawingUnits="19" v:shadowOffsetX="9" v:shadowOffsetY="-9"/>
		<v:layer v:name="Connector" v:index="0"/>
		<g id="shape1817-1" v:mID="1817" v:groupContext="shape" transform="translate(0.375,-0.375)">
			<title>Sheet.1817</title>
			<v:userDefs>
				<v:ud v:nameU="visNavOrder" v:val="VT0(343000):26"/>
			</v:userDefs>
			<rect x="0" y="0.750002" width="372.375" height="171" class="st1"/>
		</g>
		<g id="group1807-3" transform="translate(0.375,-9.37499)" v:mID="1807" v:groupContext="group">
			<v:userDefs>
				<v:ud v:nameU="visNavOrder" v:val="VT0(341000):26"/>
			</v:userDefs>
			<title>Sheet.1807</title>
			<g id="shape1808-4" v:mID="1808" v:groupContext="shape" transform="translate(9.4396,-61.5943)">
				<title>Rectangle.3771</title>
				<desc>Evaluate</desc>
				<v:userDefs>
					<v:ud v:nameU="visVersion" v:val="VT0(15):26"/>
				</v:userDefs>
				<v:textBlock v:margins="rect(10,10,10,10)"/>
				<v:textRect cx="39.3794" cy="161.291" width="78.76" height="20.9171"/>
				<rect x="0" y="150.833" width="78.7589" height="20.9171" class="st2"/>
				<text x="10" y="164.89" class="st3" v:langID="1033"><v:paragraph/><v:tabList/>Evaluate</text>			</g>
			<g id="shape1809-7" v:mID="1809" v:groupContext="shape" v:layerMember="0" transform="translate(88.1985,-80.9811)">
				<title>Dynamic connector.3772</title>
				<path d="M0 180.68 L15.15 180.78" class="st4"/>
			</g>
			<g id="shape1810-13" v:mID="1810" v:groupContext="shape" transform="translate(258.362,-13.8424)">
				<title>Rectangle.3773</title>
				<desc>Full deployment</desc>
				<v:userDefs>
					<v:ud v:nameU="visVersion" v:val="VT0(15):26"/>
				</v:userDefs>
				<v:textBlock v:margins="rect(10,10,10,10)"/>
				<v:textRect cx="54.1938" cy="161.291" width="108.39" height="20.9171"/>
				<rect x="0" y="150.833" width="108.388" height="20.9171" class="st6"/>
				<text x="10" y="164.89" class="st7" v:langID="1033"><v:paragraph/><v:tabList/>Full deployment</text>			</g>
			<g id="shape1811-16" v:mID="1811" v:groupContext="shape" v:layerMember="0" transform="translate(312.556,-34.7595)">
				<title>Dynamic connector.3774</title>
				<path d="M0 171.75 L0 139.34 L-50.55 139.34" class="st4"/>
			</g>
			<g id="shape1812-21" v:mID="1812" v:groupContext="shape" transform="translate(114.865,-86.6158)">
				<title>Sheet.1812</title>
				<path d="M67.16 142.71 L67.16 114.16 C36.13 114.59 9.99 133.57 0 162.95 L27.08 171.75 C32.95 155.12 48.62 143.13
							 67.16 142.71 Z" class="st8"/>
			</g>
			<g id="shape1813-23" v:mID="1813" v:groupContext="shape" transform="translate(109.708,-50.8579)">
				<title>Sheet.1813</title>
				<path d="M29.76 150.5 C29.76 146.17 30.39 141.99 31.57 138.04 L4.49 129.24 C0 143.67 0 157.32 4.49 171.75 L31.57
							 162.95 C30.39 159 29.76 154.82 29.76 150.49 L29.76 150.5 Z" class="st9"/>
			</g>
			<g id="shape1814-25" v:mID="1814" v:groupContext="shape" transform="translate(114.865,-7.95808E-13)">
				<title>Sheet.1814</title>
				<path d="M69.31 27.54 L69.31 56.1 C92.83 56.71 111.71 75.97 111.71 99.64 C111.71 123.31 92.21 143.19 68.15 143.19
							 C49.18 143.19 33.05 131.07 27.08 114.14 L0 122.94 C10.11 152.66 36.74 171.75 68.23 171.75 C108.06 171.75
							 140.35 139.47 140.35 99.64 C140.35 59.81 108.64 28.12 69.31 27.54 Z" class="st10"/>
			</g>
			<g id="shape1815-27" v:mID="1815" v:groupContext="shape" transform="translate(21.6986,-135.143)">
				<title>Rectangle.3783</title>
				<desc>Pilot</desc>
				<v:userDefs>
					<v:ud v:nameU="visVersion" v:val="VT0(15):26"/>
				</v:userDefs>
				<v:textBlock v:margins="rect(10,10,10,10)"/>
				<v:textRect cx="39.3794" cy="161.291" width="78.76" height="20.9171"/>
				<rect x="0" y="150.833" width="78.7589" height="20.9171" class="st11"/>
				<text x="10" y="164.89" class="st7" v:langID="1033"><v:paragraph/><v:tabList/>Pilot</text>			</g>
			<g id="shape1816-30" v:mID="1816" v:groupContext="shape" v:layerMember="0" transform="translate(100.457,-145.602)">
				<title>Dynamic connector.3784</title>
				<path d="M0 171.75 L6.75 171.75 L6.75 201.94 L17.74 201.94" class="st4"/>
			</g>
		</g>
	</g>
</svg>
