<?xml version="1.0" encoding="UTF-8" standalone="no"?>
<!DOCTYPE svg PUBLIC "-//W3C//DTD SVG 1.1//EN" "http://www.w3.org/Graphics/SVG/1.1/DTD/svg11.dtd">
<!-- Generated by Microsoft Visio, SVG Export regulatory-compliance-example-data.svg Page-1 -->
<svg xmlns="http://www.w3.org/2000/svg" xmlns:xlink="http://www.w3.org/1999/xlink" xmlns:ev="http://www.w3.org/2001/xml-events"
		xmlns:v="http://schemas.microsoft.com/visio/2003/SVGExtensions/" width="7.40538in" height="3.63194in"
		viewBox="0 0 533.187 261.5" xml:space="preserve" color-interpolation-filters="sRGB" class="st12">
	<v:documentProperties v:langID="1033" v:viewMarkup="false"/>

	<style type="text/css">
	<![CDATA[
		.st1 {fill:#f2f2f2;stroke:none;stroke-width:0.25}
		.st2 {fill:none;stroke:none;stroke-width:0.25}
		.st3 {fill:#000000;font-family:Segoe UI Semibold;font-size:1.5em}
		.st4 {stroke:#737373;stroke-linecap:round;stroke-linejoin:round;stroke-width:1}
		.st5 {fill:#243a5e;font-family:Segoe UI Semibold;font-size:1.00001em}
		.st6 {fill:#0078d4;font-family:Segoe UI Semibold;font-size:1.00001em}
		.st7 {fill:#243a5e;font-family:Segoe UI;font-size:1.00001em}
		.st8 {fill:#0078d4;font-family:Segoe UI;font-size:1.00001em}
		.st9 {font-size:1em}
		.st10 {stroke:#797979;stroke-linecap:round;stroke-linejoin:round;stroke-width:1}
		.st11 {fill:#000000;stroke:none;stroke-width:0.298828}
		.st12 {fill:none;fill-rule:evenodd;font-size:12px;overflow:visible;stroke-linecap:square;stroke-miterlimit:3}
	]]>
	</style>

	<g v:mID="0" v:index="1" v:groupContext="foregroundPage">
		<v:userDefs>
			<v:ud v:nameU="visNavType" v:val="VT0(1):26"/>
		</v:userDefs>
		<title>Page-1</title>
		<v:pageProperties v:drawingScale="1" v:pageScale="1" v:drawingUnits="0" v:shadowOffsetX="9" v:shadowOffsetY="-9"/>
		<v:layer v:name="Background" v:index="0"/>
		<v:layer v:name="Text" v:index="1"/>
		<v:layer v:name="Headings" v:index="2"/>
		<v:layer v:name="Connector" v:index="3"/>
		<g id="shape1000-1" v:mID="1000" v:groupContext="shape" v:layerMember="0" transform="translate(0.25,-0.25)">
			<title>Sheet.1000</title>
			<v:userDefs>
				<v:ud v:nameU="visNavOrder" v:prompt="" v:val="VT0(1000):26"/>
			</v:userDefs>
			<rect x="0" y="0.500006" width="532.687" height="261" class="st1"/>
		</g>
		<g id="shape1003-3" v:mID="1003" v:groupContext="shape" v:layerMember="1;2" transform="translate(209.313,-176.128)">
			<title>Sheet.1003</title>
			<desc>Data</desc>
			<v:userDefs>
				<v:ud v:nameU="visNavOrder" v:prompt="" v:val="VT0(3000):26"/>
			</v:userDefs>
			<v:textBlock v:margins="rect(0,0,0,0)"/>
			<v:textRect cx="54" cy="248" width="108.01" height="27"/>
			<rect x="0" y="234.5" width="108" height="27" class="st2"/>
			<text x="34.9" y="253.4" class="st3" v:langID="1033"><v:paragraph v:spAfter="6" v:horizAlign="1"/><v:tabList/>Data</text>		</g>
		<g id="shape1004-6" v:mID="1004" v:groupContext="shape" v:layerMember="3" transform="translate(308.5,-190.375)">
			<title>Dynamic connector</title>
			<v:userDefs>
				<v:ud v:nameU="visNavOrder" v:prompt="" v:val="VT0(4000):26"/>
			</v:userDefs>
			<path d="M0 262.63 L29.19 262.63 L29.19 278.38" class="st4"/>
		</g>
		<g id="shape1006-9" v:mID="1006" v:groupContext="shape" v:layerMember="1;2" transform="translate(26.6874,-152.48)">
			<title>Sheet.1006</title>
			<desc>Regulatory Requirements</desc>
			<v:userDefs>
				<v:ud v:nameU="visNavOrder" v:prompt="" v:val="VT0(6000):26"/>
			</v:userDefs>
			<v:textBlock v:margins="rect(0,0,0,0)"/>
			<v:textRect cx="108.125" cy="253.27" width="216.26" height="16.4594"/>
			<rect x="0" y="245.041" width="216.25" height="16.4594" class="st2"/>
			<text x="77.88" y="256.87" class="st5" v:langID="1033"><v:paragraph v:spAfter="6" v:horizAlign="2"/><v:tabList/>Regulatory Requirements</text>		</g>
		<g id="shape1007-12" v:mID="1007" v:groupContext="shape" v:layerMember="1;2" transform="translate(283.688,-152.48)">
			<title>Sheet.1007</title>
			<desc>Technical elements</desc>
			<v:userDefs>
				<v:ud v:nameU="visNavOrder" v:prompt="" v:val="VT0(7000):26"/>
			</v:userDefs>
			<v:textBlock v:margins="rect(0,0,0,0)"/>
			<v:textRect cx="54" cy="253.27" width="108.01" height="16.4594"/>
			<rect x="0" y="245.041" width="108" height="16.4594" class="st2"/>
			<text x="0" y="256.87" class="st6" v:langID="1033"><v:paragraph v:spAfter="6"/><v:tabList/>Technical elements</text>		</g>
		<g id="group1008-15" transform="translate(17.9375,-111.918)" v:mID="1008" v:groupContext="group" v:layerMember="1">
			<v:userDefs>
				<v:ud v:nameU="visNavOrder" v:prompt="" v:val="VT0(8000):26"/>
			</v:userDefs>
			<title>Sheet.1008</title>
			<g id="shape1009-16" v:mID="1009" v:groupContext="shape" v:layerMember="1" transform="translate(42.5,-17.3838)">
				<title>Sheet.1009</title>
				<desc>ISO 27001: 2022</desc>
				<v:textBlock v:margins="rect(0,0,0,0)"/>
				<v:textRect cx="91.3453" cy="253.27" width="182.7" height="16.4594"/>
				<rect x="0" y="245.041" width="182.691" height="16.4594" class="st2"/>
				<text x="96.68" y="256.87" class="st7" v:langID="1033"><v:paragraph v:spAfter="6" v:horizAlign="2"/><v:tabList/>ISO 27001: 2022</text>			</g>
			<g id="shape1010-19" v:mID="1010" v:groupContext="shape" v:layerMember="1" transform="translate(-17.6875,-0.123008)">
				<title>Sheet.1010</title>
				<desc>Annexure 8.2.1 Classification of information</desc>
				<v:textBlock v:margins="rect(0,0,0,0)"/>
				<v:textRect cx="121.344" cy="253.27" width="242.69" height="16.4594"/>
				<rect x="0" y="245.041" width="242.687" height="16.4594" class="st2"/>
				<text x="13.27" y="256.87" class="st7" v:langID="1033"><v:paragraph v:spAfter="6" v:horizAlign="2"/><v:tabList/>Annexure 8.2.1 Classification of information</text>			</g>
		</g>
		<g id="shape1012-22" v:mID="1012" v:groupContext="shape" v:layerMember="1" transform="translate(306.184,-129.301)">
			<title>Sheet.1012</title>
			<desc>Microsoft Purview data classification service</desc>
			<v:userDefs>
				<v:ud v:nameU="visNavOrder" v:prompt="" v:val="VT0(10000):26"/>
			</v:userDefs>
			<v:textBlock v:margins="rect(0,0,0,0)"/>
			<v:textRect cx="71.5922" cy="253.27" width="143.19" height="16.4594"/>
			<rect x="0" y="245.041" width="143.184" height="16.4594" class="st2"/>
			<text x="0" y="249.67" class="st8" v:langID="1033"><v:paragraph v:spAfter="6"/><v:tabList/>Microsoft Purview data <tspan
						x="0" dy="1.2em" class="st9">classification service</tspan></text>		</g>
		<g id="shape1013-26" v:mID="1013" v:groupContext="shape" v:layerMember="1" transform="translate(306.184,-71.9031)">
			<title>Sheet.1013</title>
			<desc>Sensitivity labels (classify, label, encrypt)</desc>
			<v:userDefs>
				<v:ud v:nameU="visNavOrder" v:prompt="" v:val="VT0(11000):26"/>
			</v:userDefs>
			<v:textBlock v:margins="rect(0,0,0,0)"/>
			<v:textRect cx="104.252" cy="253.27" width="208.51" height="16.4594"/>
			<rect x="0" y="245.041" width="208.503" height="16.4594" class="st2"/>
			<text x="0" y="249.67" class="st8" v:langID="1033"><v:paragraph v:spAfter="6"/><v:tabList/>Sensitivity labels <v:lf/><tspan
						x="0" dy="1.2em" class="st9">(classify, label, encrypt)</tspan></text>		</g>
		<g id="shape1017-30" v:mID="1017" v:groupContext="shape" transform="translate(599.437,141.25) rotate(90)">
			<title>Sheet.1017</title>
			<v:userDefs>
				<v:ud v:nameU="visNavOrder" v:val="VT0(15000):26"/>
			</v:userDefs>
			<path d="M0 261.5 L21 261.5" class="st10"/>
		</g>
		<g id="shape1018-33" v:mID="1018" v:groupContext="shape" v:layerMember="1" transform="translate(305.687,-21.2703)">
			<title>Sheet.1018</title>
			<desc>Emails and documents Structured data</desc>
			<v:userDefs>
				<v:ud v:nameU="visNavOrder" v:prompt="" v:val="VT0(16000):26"/>
			</v:userDefs>
			<v:textBlock v:margins="rect(0,0,0,0)"/>
			<v:textRect cx="104.252" cy="253.27" width="208.51" height="16.4594"/>
			<rect x="0" y="245.041" width="208.503" height="16.4594" class="st2"/>
			<text x="0" y="249.67" class="st8" v:langID="1033"><v:paragraph v:spAfter="6"/><v:tabList/>Emails and documents<v:lf/><tspan
						x="0" dy="1.2em" class="st9">Structured data</tspan></text>		</g>
		<g id="shape1019-37" v:mID="1019" v:groupContext="shape" transform="translate(599.437,196.791) rotate(90)">
			<title>Sheet.1019</title>
			<v:userDefs>
				<v:ud v:nameU="visNavOrder" v:val="VT0(17000):26"/>
			</v:userDefs>
			<path d="M0 261.5 L21 261.5" class="st10"/>
		</g>
		<g id="shape1020-40" v:mID="1020" v:groupContext="shape" transform="translate(244.844,-205.703)">
			<title>Sheet.1020</title>
			<v:userDefs>
				<v:ud v:nameU="visNavOrder" v:val="VT0(18000):26"/>
			</v:userDefs>
			<path d="M7.1 261.5 C6.16 261.5 5.26 261.31 4.4 260.93 C3.54 260.56 2.79 260.04 2.13 259.38 C1.48 258.73 0.96 257.97
						 0.59 257.12 C0.21 256.26 0.01 255.36 0 254.4 L0 234.76 C0 233.81 0.19 232.91 0.57 232.06 C0.94 231.2 1.46
						 230.45 2.12 229.79 C2.77 229.14 3.53 228.62 4.38 228.24 C5.24 227.86 6.14 227.67 7.1 227.66 L26.74 227.66
						 C27.69 227.66 28.59 227.85 29.44 228.22 C30.3 228.6 31.05 229.12 31.71 229.77 C32.36 230.43 32.88 231.18
						 33.26 232.04 C33.64 232.89 33.83 233.8 33.84 234.76 L33.84 254.4 C33.84 255.34 33.65 256.24 33.28 257.1
						 C32.9 257.96 32.38 258.71 31.73 259.37 C31.07 260.02 30.32 260.54 29.46 260.91 C28.61 261.29 27.7 261.49
						 26.74 261.5 L7.1 261.5 ZM26.69 259.08 C27.32 259.08 27.91 258.96 28.48 258.7 C29.05 258.45 29.55 258.11
						 29.99 257.67 C30.43 257.23 30.78 256.72 31.03 256.16 C31.28 255.59 31.41 254.98 31.43 254.34 L31.43 234.81
						 C31.43 234.19 31.3 233.59 31.05 233.02 C30.8 232.45 30.45 231.95 30.01 231.51 C29.57 231.07 29.07 230.72
						 28.5 230.47 C27.93 230.22 27.33 230.09 26.69 230.07 L7.16 230.07 C6.53 230.07 5.93 230.2 5.36 230.45 C4.8
						 230.7 4.29 231.05 3.85 231.49 C3.41 231.93 3.07 232.43 2.81 233 C2.56 233.57 2.43 234.17 2.42 234.81 L2.42
						 254.34 C2.42 254.97 2.54 255.57 2.8 256.14 C3.05 256.7 3.39 257.21 3.83 257.65 C4.27 258.09 4.78 258.43
						 5.34 258.69 C5.91 258.94 6.52 259.07 7.16 259.08 L26.69 259.08 ZM19.23 254.25 C18.99 254.25 18.77 254.16
						 18.58 253.98 C18.39 253.81 18.26 253.61 18.19 253.38 L14.35 239.97 L12.01 246.2 C11.92 246.44 11.78 246.63
						 11.58 246.77 C11.38 246.91 11.14 246.98 10.88 247 L6.04 247 C5.72 247 5.43 246.88 5.19 246.64 C4.95 246.4
						 4.83 246.11 4.83 245.79 C4.83 245.46 4.95 245.18 5.19 244.94 C5.43 244.7 5.72 244.58 6.04 244.58 L10.05
						 244.58 L13.37 235.68 C13.46 235.46 13.6 235.27 13.81 235.14 C14.01 235 14.23 234.92 14.49 234.91 C14.75
						 234.91 15 234.99 15.22 235.15 C15.45 235.32 15.6 235.53 15.68 235.78 L19.64 249.72 L21.89 245.24 C21.99
						 245.04 22.14 244.88 22.34 244.77 C22.54 244.65 22.75 244.59 22.96 244.58 L27.8 244.58 C28.13 244.58 28.41
						 244.7 28.65 244.94 C28.89 245.18 29.01 245.46 29.01 245.79 C29.01 246.11 28.89 246.4 28.65 246.64 C28.41
						 246.88 28.13 247 27.8 247 L23.72 247 L20.42 253.59 C20.29 253.83 20.13 254 19.92 254.1 C19.72 254.2 19.49
						 254.25 19.23 254.25 Z" class="st11"/>
		</g>
		<g id="group1021-42" transform="translate(284.85,-22.75)" v:mID="1021" v:groupContext="group">
			<v:userDefs>
				<v:ud v:nameU="visNavOrder" v:val="VT0(19000):26"/>
			</v:userDefs>
			<title>Sheet.1021</title>
			<g id="shape1022-43" v:mID="1022" v:groupContext="shape">
				<title>Sheet.1022</title>
				<path d="M13.51 250.37 L13.51 259.29 C13.51 259.59 13.45 259.86 13.34 260.13 C13.22 260.39 13.06 260.63 12.85 260.83
							 C12.65 261.04 12.41 261.2 12.15 261.32 C11.88 261.43 11.6 261.49 11.3 261.5 L2.21 261.5 C1.91 261.5
							 1.64 261.44 1.37 261.32 C1.11 261.21 0.87 261.05 0.67 260.84 C0.46 260.64 0.3 260.4 0.18 260.14 C0.07
							 259.87 0.01 259.59 0 259.29 L0 245.69 C0 245.4 0.06 245.12 0.18 244.86 C0.29 244.59 0.45 244.36 0.66
							 244.15 C0.86 243.95 1.1 243.79 1.36 243.67 C1.63 243.55 1.91 243.49 2.21 243.49 L6.62 243.49 C6.92 243.49
							 7.21 243.54 7.49 243.65 C7.76 243.76 8 243.93 8.22 244.15 L12.85 248.78 C13.06 248.99 13.22 249.24 13.34
							 249.51 C13.45 249.79 13.51 250.07 13.51 250.37 ZM12.39 250.37 C12.39 250.31 12.38 250.27 12.38 250.24
							 L8.96 250.24 C8.66 250.24 8.37 250.18 8.11 250.06 C7.85 249.93 7.61 249.77 7.41 249.56 C7.2 249.36 7.04
							 249.12 6.93 248.85 C6.82 248.58 6.76 248.29 6.76 247.99 L6.76 244.62 C6.73 244.61 6.68 244.61 6.62 244.61
							 L2.25 244.61 C2.09 244.61 1.95 244.64 1.81 244.7 C1.68 244.76 1.56 244.84 1.46 244.94 C1.36 245.04 1.28
							 245.16 1.21 245.3 C1.15 245.44 1.12 245.58 1.13 245.74 L1.13 259.25 C1.13 259.41 1.16 259.55 1.21 259.69
							 C1.27 259.82 1.35 259.94 1.45 260.05 C1.55 260.15 1.67 260.23 1.8 260.29 C1.94 260.34 2.09 260.37 2.25
							 260.37 L11.26 260.37 C11.42 260.37 11.56 260.34 11.7 260.29 C11.83 260.23 11.95 260.15 12.05 260.05
							 C12.15 259.95 12.23 259.83 12.3 259.69 C12.36 259.55 12.39 259.4 12.39 259.25 L12.39 250.37 ZM11.59
							 249.11 L7.88 245.4 L7.88 247.99 C7.88 248.15 7.91 248.29 7.97 248.43 C8.03 248.56 8.11 248.68 8.21 248.79
							 C8.31 248.9 8.42 248.97 8.56 249.03 C8.69 249.08 8.84 249.11 9.01 249.11 L11.59 249.11 ZM9.57 252.49
							 C9.72 252.49 9.85 252.55 9.97 252.66 C10.08 252.77 10.13 252.9 10.13 253.06 C10.13 253.21 10.08 253.34
							 9.97 253.45 C9.85 253.56 9.72 253.62 9.57 253.62 L3.94 253.62 C3.79 253.62 3.66 253.56 3.54 253.45 C3.43
							 253.34 3.38 253.21 3.38 253.06 C3.38 252.9 3.43 252.77 3.54 252.66 C3.66 252.55 3.79 252.49 3.94 252.49
							 L9.57 252.49 ZM9.57 255.87 C9.72 255.87 9.85 255.93 9.97 256.04 C10.08 256.15 10.13 256.28 10.13 256.43
							 C10.13 256.59 10.08 256.72 9.97 256.83 C9.85 256.94 9.72 257 9.57 257 L3.94 257 C3.79 257 3.66 256.94
							 3.54 256.83 C3.43 256.72 3.38 256.59 3.38 256.43 C3.38 256.28 3.43 256.15 3.54 256.04 C3.66 255.93 3.79
							 255.87 3.94 255.87 L9.57 255.87 Z" class="st11"/>
			</g>
		</g>
		<g id="group1023-45" transform="translate(284.723,-135.25)" v:mID="1023" v:groupContext="group">
			<v:userDefs>
				<v:ud v:nameU="visNavOrder" v:val="VT0(20000):26"/>
			</v:userDefs>
			<title>Sheet.1023</title>
			<g id="shape1024-46" v:mID="1024" v:groupContext="shape">
				<title>Sheet.1024</title>
				<path d="M0 253.75 C0 253.63 0.02 253.52 0.07 253.41 C0.11 253.31 0.17 253.22 0.25 253.15 C0.32 253.07 0.42 253.01
							 0.52 252.96 C0.63 252.91 0.74 252.89 0.86 252.89 C0.98 252.89 1.09 252.91 1.19 252.96 C1.29 253 1.38
							 253.06 1.47 253.14 C1.55 253.22 1.61 253.31 1.65 253.41 C1.7 253.52 1.72 253.63 1.72 253.75 C1.72 253.87
							 1.7 253.98 1.65 254.09 C1.61 254.19 1.55 254.28 1.47 254.36 C1.4 254.43 1.3 254.49 1.2 254.54 C1.09
							 254.59 0.98 254.62 0.86 254.61 C0.74 254.61 0.63 254.59 0.52 254.54 C0.42 254.5 0.33 254.44 0.25 254.36
							 C0.17 254.29 0.11 254.2 0.07 254.09 C0.03 253.99 0 253.88 0 253.75 ZM3.87 254.18 C3.75 254.18 3.65 254.14
							 3.57 254.05 C3.48 253.97 3.44 253.87 3.44 253.75 C3.44 253.63 3.48 253.53 3.57 253.45 C3.65 253.36 3.75
							 253.32 3.87 253.32 L13.33 253.32 C13.45 253.32 13.55 253.36 13.64 253.45 C13.72 253.53 13.76 253.63
							 13.76 253.75 C13.76 253.87 13.72 253.97 13.64 254.05 C13.55 254.14 13.45 254.18 13.33 254.18 L3.87 254.18
							 ZM0 257.19 C0 257.07 0.02 256.96 0.07 256.86 C0.11 256.75 0.17 256.66 0.25 256.59 C0.32 256.51 0.42
							 256.45 0.52 256.4 C0.63 256.35 0.74 256.33 0.86 256.33 C0.98 256.33 1.09 256.35 1.19 256.4 C1.29 256.44
							 1.38 256.5 1.47 256.58 C1.55 256.66 1.61 256.75 1.65 256.86 C1.7 256.96 1.72 257.08 1.72 257.19 C1.72
							 257.31 1.7 257.42 1.65 257.53 C1.61 257.63 1.55 257.72 1.47 257.8 C1.4 257.87 1.3 257.94 1.2 257.98
							 C1.09 258.03 0.98 258.06 0.86 258.05 C0.74 258.05 0.63 258.03 0.52 257.98 C0.42 257.94 0.33 257.88 0.25
							 257.8 C0.17 257.73 0.11 257.64 0.07 257.53 C0.03 257.43 0 257.32 0 257.19 ZM3.87 257.62 C3.75 257.62
							 3.65 257.58 3.57 257.49 C3.48 257.41 3.44 257.31 3.44 257.19 C3.44 257.08 3.48 256.97 3.57 256.89 C3.65
							 256.8 3.75 256.76 3.87 256.76 L13.33 256.76 C13.45 256.76 13.55 256.8 13.64 256.89 C13.72 256.97 13.76
							 257.08 13.76 257.19 C13.76 257.31 13.72 257.41 13.64 257.49 C13.55 257.58 13.45 257.62 13.33 257.62
							 L3.87 257.62 ZM0 260.63 C0 260.51 0.02 260.4 0.07 260.3 C0.11 260.19 0.17 260.1 0.25 260.03 C0.32 259.95
							 0.42 259.89 0.52 259.84 C0.63 259.79 0.74 259.77 0.86 259.77 C0.98 259.77 1.09 259.8 1.19 259.84 C1.29
							 259.88 1.38 259.95 1.47 260.02 C1.55 260.1 1.61 260.19 1.65 260.3 C1.7 260.4 1.72 260.52 1.72 260.63
							 C1.72 260.75 1.7 260.87 1.65 260.97 C1.61 261.07 1.55 261.16 1.47 261.24 C1.4 261.31 1.3 261.38 1.2
							 261.43 C1.09 261.48 0.98 261.5 0.86 261.49 C0.74 261.49 0.63 261.47 0.52 261.43 C0.42 261.38 0.33 261.32
							 0.25 261.24 C0.17 261.17 0.11 261.08 0.07 260.98 C0.03 260.87 0 260.76 0 260.63 ZM3.87 261.06 C3.75
							 261.06 3.65 261.02 3.57 260.94 C3.48 260.85 3.44 260.75 3.44 260.63 C3.44 260.52 3.48 260.42 3.57 260.33
							 C3.65 260.25 3.75 260.2 3.87 260.2 L13.33 260.2 C13.45 260.2 13.55 260.25 13.64 260.33 C13.72 260.42
							 13.76 260.52 13.76 260.63 C13.76 260.75 13.72 260.85 13.64 260.94 C13.55 261.02 13.45 261.06 13.33 261.06
							 L3.87 261.06 Z" class="st11"/>
			</g>
		</g>
		<g id="group1025-48" transform="translate(284.85,-72.25)" v:mID="1025" v:groupContext="group">
			<v:userDefs>
				<v:ud v:nameU="visNavOrder" v:val="VT0(21000):26"/>
			</v:userDefs>
			<title>Sheet.1025</title>
			<g id="shape1026-49" v:mID="1026" v:groupContext="shape">
				<title>Sheet.1026</title>
				<path d="M0 253.3 L0 248.95 C0 248.81 0.04 248.71 0.11 248.64 C0.19 248.57 0.29 248.51 0.41 248.48 C0.53 248.45 0.64
							 248.43 0.76 248.42 C0.88 248.41 1 248.39 1.11 248.36 C1.3 248.32 1.49 248.29 1.67 248.25 C1.86 248.21
							 2.05 248.15 2.25 248.09 C2.64 247.98 3.02 247.86 3.38 247.73 C3.74 247.59 4.09 247.44 4.43 247.28 C4.78
							 247.12 5.12 246.94 5.46 246.75 C5.8 246.56 6.14 246.36 6.48 246.14 C6.53 246.12 6.57 246.1 6.61 246.08
							 C6.65 246.07 6.7 246.06 6.76 246.06 C6.81 246.06 6.86 246.07 6.9 246.08 C6.94 246.1 6.98 246.12 7.03
							 246.14 C7.37 246.36 7.72 246.56 8.05 246.75 C8.39 246.94 8.73 247.12 9.07 247.28 C9.41 247.44 9.77 247.59
							 10.13 247.73 C10.5 247.86 10.88 247.98 11.26 248.09 C11.46 248.15 11.64 248.2 11.83 248.24 C12.02 248.28
							 12.21 248.32 12.4 248.36 C12.51 248.38 12.63 248.4 12.75 248.41 C12.87 248.42 12.99 248.44 13.1 248.48
							 C13.22 248.51 13.31 248.57 13.39 248.64 C13.47 248.71 13.51 248.81 13.51 248.95 L13.51 253.3 C13.51
							 254.36 13.34 255.31 13.01 256.16 C12.67 257.01 12.21 257.77 11.62 258.44 C11.03 259.11 10.33 259.69
							 9.53 260.19 C8.73 260.69 7.86 261.11 6.93 261.47 C6.88 261.49 6.83 261.5 6.76 261.5 C6.73 261.5 6.7
							 261.5 6.67 261.49 C6.64 261.49 6.61 261.48 6.58 261.47 C5.65 261.12 4.79 260.69 3.99 260.2 C3.19 259.7
							 2.49 259.11 1.9 258.44 C1.31 257.77 0.84 257 0.51 256.15 C0.17 255.3 0 254.35 0 253.3 ZM12.55 253.3
							 L12.55 249.37 C11.52 249.19 10.51 248.92 9.54 248.54 C8.56 248.16 7.64 247.69 6.76 247.11 C5.88 247.69
							 4.95 248.16 3.97 248.54 C3 248.92 2 249.19 0.97 249.37 L0.97 253.3 C0.97 254.24 1.11 255.08 1.41 255.82
							 C1.71 256.57 2.11 257.23 2.63 257.82 C3.15 258.41 3.76 258.92 4.47 259.35 C5.18 259.78 5.94 260.17 6.76
							 260.5 C7.57 260.18 8.34 259.8 9.04 259.36 C9.74 258.92 10.35 258.41 10.87 257.82 C11.39 257.23 11.8
							 256.57 12.1 255.83 C12.4 255.09 12.55 254.25 12.55 253.3 Z" class="st11"/>
			</g>
		</g>
	</g>
</svg>
