<?xml version="1.0" encoding="UTF-8" standalone="no"?>
<!DOCTYPE svg PUBLIC "-//W3C//DTD SVG 1.1//EN" "http://www.w3.org/Graphics/SVG/1.1/DTD/svg11.dtd">
<!-- Generated by Microsoft Visio, SVG Export regulatory-compliance-example-identities.svg Page-1 -->
<svg xmlns="http://www.w3.org/2000/svg" xmlns:xlink="http://www.w3.org/1999/xlink" xmlns:ev="http://www.w3.org/2001/xml-events"
		xmlns:v="http://schemas.microsoft.com/visio/2003/SVGExtensions/" width="7.40538in" height="2.88194in"
		viewBox="0 0 533.187 207.5" xml:space="preserve" color-interpolation-filters="sRGB" class="st11">
	<v:documentProperties v:langID="1033" v:viewMarkup="false"/>

	<style type="text/css">
	<![CDATA[
		.st1 {fill:#f2f2f2;stroke:none;stroke-width:0.25}
		.st2 {fill:#000000;stroke:none;stroke-width:0.298828}
		.st3 {fill:none;stroke:none;stroke-width:0.25}
		.st4 {fill:#000000;font-family:Segoe UI Semibold;font-size:1.5em}
		.st5 {stroke:#737373;stroke-linecap:round;stroke-linejoin:round;stroke-width:1}
		.st6 {fill:#243a5e;font-family:Segoe UI Semibold;font-size:1.00001em}
		.st7 {fill:#0078d4;font-family:Segoe UI Semibold;font-size:1.00001em}
		.st8 {fill:#0078d4;font-family:Segoe UI;font-size:1.00001em}
		.st9 {fill:#000000;stroke:none;stroke-width:0.75}
		.st10 {fill:#243a5e;font-family:Segoe UI;font-size:1.00001em}
		.st11 {fill:none;fill-rule:evenodd;font-size:12px;overflow:visible;stroke-linecap:square;stroke-miterlimit:3}
	]]>
	</style>

	<g v:mID="0" v:index="1" v:groupContext="foregroundPage">
		<v:userDefs>
			<v:ud v:nameU="visNavType" v:val="VT0(1):26"/>
		</v:userDefs>
		<title>Page-1</title>
		<v:pageProperties v:drawingScale="1" v:pageScale="1" v:drawingUnits="0" v:shadowOffsetX="9" v:shadowOffsetY="-9"/>
		<v:layer v:name="Background" v:index="0"/>
		<v:layer v:name="Text" v:index="1"/>
		<v:layer v:name="Headings" v:index="2"/>
		<v:layer v:name="Connector" v:index="3"/>
		<v:layer v:name="Icons" v:index="4"/>
		<g id="shape125-1" v:mID="125" v:groupContext="shape" v:layerMember="0" transform="translate(0.25,-0.25)">
			<title>Sheet.125</title>
			<v:userDefs>
				<v:ud v:nameU="visNavOrder" v:prompt="" v:val="VT0(1000):26"/>
			</v:userDefs>
			<rect x="0" y="0.500006" width="532.687" height="207" class="st1"/>
		</g>
		<g id="group86-3" transform="translate(246.72,-151.703)" v:mID="86" v:groupContext="group">
			<v:userDefs>
				<v:ud v:nameU="visNavOrder" v:prompt="" v:val="VT0(2000):26"/>
			</v:userDefs>
			<title>Sheet.86</title>
			<g id="shape87-4" v:mID="87" v:groupContext="shape">
				<title>Sheet.87</title>
				<path d="M7.11 178.87 C7.11 177.59 7.36 176.38 7.87 175.26 C8.38 174.14 9.07 173.15 9.94 172.3 C10.82 171.45 11.83
							 170.78 12.96 170.32 C14.1 169.85 15.31 169.6 16.59 169.57 C17.9 169.57 19.13 169.82 20.28 170.32 C21.43
							 170.81 22.43 171.48 23.3 172.33 C24.16 173.19 24.84 174.19 25.33 175.35 C25.83 176.51 26.07 177.75 26.07
							 179.06 C26.07 180.36 25.83 181.59 25.33 182.74 C24.84 183.89 24.17 184.9 23.31 185.76 C22.46 186.62
							 21.46 187.3 20.3 187.8 C19.14 188.29 17.9 188.54 16.59 188.54 C15.25 188.54 14 188.28 12.85 187.78 C11.7
							 187.27 10.7 186.58 9.83 185.7 C8.97 184.83 8.3 183.8 7.83 182.63 C7.36 181.46 7.12 180.2 7.11 178.87
							 ZM23.7 178.91 C23.7 177.95 23.51 177.04 23.13 176.2 C22.75 175.36 22.23 174.62 21.59 173.98 C20.95 173.34
							 20.19 172.85 19.31 172.5 C18.44 172.16 17.53 171.97 16.59 171.95 C15.6 171.95 14.68 172.13 13.81 172.5
							 C12.95 172.87 12.2 173.38 11.56 174.02 C10.91 174.66 10.41 175.41 10.04 176.28 C9.67 177.14 9.48 178.07
							 9.48 179.06 C9.48 180.04 9.67 180.97 10.04 181.83 C10.41 182.7 10.91 183.45 11.56 184.09 C12.2 184.74
							 12.95 185.24 13.81 185.61 C14.68 185.98 15.6 186.17 16.59 186.17 C17.6 186.17 18.54 185.98 19.41 185.61
							 C20.27 185.24 21.02 184.72 21.67 184.06 C22.31 183.39 22.81 182.62 23.17 181.74 C23.52 180.86 23.7 179.92
							 23.7 178.91 ZM0 195.65 C0 195.02 0.12 194.42 0.37 193.85 C0.62 193.28 0.95 192.78 1.37 192.33 C1.79
							 191.89 2.28 191.54 2.83 191.3 C3.39 191.05 3.99 190.92 4.65 190.91 L28.44 190.91 C29.07 190.91 29.67
							 191.03 30.24 191.28 C30.81 191.53 31.31 191.86 31.76 192.28 C32.2 192.7 32.55 193.19 32.8 193.74 C33.04
							 194.3 33.17 194.9 33.18 195.56 C33.18 197.07 32.95 198.43 32.48 199.61 C32.01 200.8 31.38 201.83 30.57
							 202.7 C29.77 203.58 28.83 204.33 27.76 204.94 C26.68 205.56 25.53 206.06 24.3 206.43 C23.06 206.8 21.79
							 207.07 20.48 207.24 C19.17 207.41 17.88 207.5 16.59 207.5 C15.37 207.5 14.15 207.44 12.94 207.31 C11.73
							 207.19 10.54 206.96 9.37 206.61 C8.04 206.23 6.8 205.72 5.67 205.07 C4.53 204.43 3.54 203.66 2.69 202.76
							 C1.83 201.86 1.18 200.81 0.72 199.63 C0.27 198.44 0.02 197.12 0 195.65 ZM30.81 195.65 C30.81 195.33
							 30.75 195.02 30.63 194.74 C30.51 194.46 30.34 194.2 30.13 193.98 C29.92 193.76 29.67 193.59 29.37 193.46
							 C29.07 193.34 28.76 193.28 28.44 193.28 L4.74 193.28 C4.41 193.28 4.1 193.34 3.81 193.46 C3.53 193.59
							 3.28 193.75 3.07 193.96 C2.86 194.17 2.69 194.43 2.56 194.72 C2.42 195.02 2.36 195.33 2.37 195.65 C2.37
							 196.92 2.58 198.03 3 198.98 C3.42 199.93 3.99 200.77 4.7 201.48 C5.42 202.2 6.25 202.78 7.19 203.24
							 C8.12 203.7 9.12 204.07 10.18 204.35 C11.25 204.64 12.33 204.83 13.43 204.94 C14.52 205.06 15.58 205.12
							 16.59 205.13 C17.6 205.13 18.66 205.07 19.76 204.96 C20.86 204.85 21.93 204.65 22.98 204.37 C24.03 204.09
							 25.03 203.71 25.98 203.24 C26.93 202.77 27.76 202.19 28.48 201.48 C29.2 200.78 29.76 199.94 30.18 198.98
							 C30.6 198.02 30.81 196.91 30.81 195.65 Z" class="st2"/>
			</g>
		</g>
		<g id="shape88-6" v:mID="88" v:groupContext="shape" v:layerMember="1;2" transform="translate(209.313,-122.128)">
			<title>Sheet.88</title>
			<desc>Identities</desc>
			<v:userDefs>
				<v:ud v:nameU="visNavOrder" v:prompt="" v:val="VT0(3000):26"/>
			</v:userDefs>
			<v:textBlock v:margins="rect(0,0,0,0)"/>
			<v:textRect cx="54" cy="194" width="108.01" height="27"/>
			<rect x="0" y="180.5" width="108" height="27" class="st3"/>
			<text x="16.05" y="199.4" class="st4" v:langID="1033"><v:paragraph v:spAfter="6" v:horizAlign="1"/><v:tabList/>Identities</text>		</g>
		<g id="shape100-9" v:mID="100" v:groupContext="shape" v:layerMember="3" transform="translate(308.5,-136.375)">
			<title>Dynamic connector</title>
			<v:userDefs>
				<v:ud v:nameU="visNavOrder" v:prompt="" v:val="VT0(4000):26"/>
			</v:userDefs>
			<path d="M0 208.63 L29.19 208.63 L29.19 224.38" class="st5"/>
		</g>
		<g id="shape103-12" v:mID="103" v:groupContext="shape" v:layerMember="1;2" transform="translate(26.6874,-98.4797)">
			<title>Sheet.103</title>
			<desc>Regulatory Requirements</desc>
			<v:userDefs>
				<v:ud v:nameU="visNavOrder" v:prompt="" v:val="VT0(6000):26"/>
			</v:userDefs>
			<v:textBlock v:margins="rect(0,0,0,0)"/>
			<v:textRect cx="108.125" cy="199.27" width="216.26" height="16.4594"/>
			<rect x="0" y="191.041" width="216.25" height="16.4594" class="st3"/>
			<text x="77.88" y="202.87" class="st6" v:langID="1033"><v:paragraph v:spAfter="6" v:horizAlign="2"/><v:tabList/>Regulatory Requirements</text>		</g>
		<g id="shape104-15" v:mID="104" v:groupContext="shape" v:layerMember="1;2" transform="translate(283.688,-98.4797)">
			<title>Sheet.104</title>
			<desc>Technical elements</desc>
			<v:userDefs>
				<v:ud v:nameU="visNavOrder" v:prompt="" v:val="VT0(7000):26"/>
			</v:userDefs>
			<v:textBlock v:margins="rect(0,0,0,0)"/>
			<v:textRect cx="54" cy="199.27" width="108.01" height="16.4594"/>
			<rect x="0" y="191.041" width="108" height="16.4594" class="st3"/>
			<text x="0" y="202.87" class="st7" v:langID="1033"><v:paragraph v:spAfter="6"/><v:tabList/>Technical elements</text>		</g>
		<g id="shape117-18" v:mID="117" v:groupContext="shape" v:layerMember="3" transform="translate(330.437,-73.3171)">
			<title>Dynamic connector.117</title>
			<v:userDefs>
				<v:ud v:nameU="visNavOrder" v:prompt="" v:val="VT0(8000):26"/>
			</v:userDefs>
			<path d="M9 207.5 L9 250.81" class="st5"/>
		</g>
		<g id="shape95-21" v:mID="95" v:groupContext="shape" v:layerMember="1" transform="translate(306.184,-75.3013)">
			<title>Sheet.95</title>
			<desc>Identity Provider</desc>
			<v:userDefs>
				<v:ud v:nameU="visNavOrder" v:prompt="" v:val="VT0(11000):26"/>
			</v:userDefs>
			<v:textBlock v:margins="rect(0,0,0,0)"/>
			<v:textRect cx="44.6547" cy="199.27" width="89.31" height="16.4594"/>
			<rect x="0" y="191.041" width="89.3094" height="16.4594" class="st3"/>
			<text x="0" y="202.87" class="st8" v:langID="1033"><v:paragraph v:spAfter="6"/><v:tabList/>Identity Provider</text>		</g>
		<g id="shape96-24" v:mID="96" v:groupContext="shape" v:layerMember="1" transform="translate(306.184,-11.5609)">
			<title>Sheet.96</title>
			<desc>Multifactor authentication</desc>
			<v:userDefs>
				<v:ud v:nameU="visNavOrder" v:prompt="" v:val="VT0(12000):26"/>
			</v:userDefs>
			<v:textBlock v:margins="rect(0,0,0,0)"/>
			<v:textRect cx="71.5922" cy="199.27" width="143.19" height="16.4594"/>
			<rect x="0" y="191.041" width="143.184" height="16.4594" class="st3"/>
			<text x="0" y="202.87" class="st8" v:langID="1033"><v:paragraph v:spAfter="6"/><v:tabList/>Multifactor authentication</text>		</g>
		<g id="shape140-27" v:mID="140" v:groupContext="shape" v:layerMember="4" transform="translate(285.932,-12.2548)">
			<title>Sheet.140</title>
			<v:userDefs>
				<v:ud v:nameU="visNavOrder" v:prompt="" v:val="VT0(15000):26"/>
			</v:userDefs>
			<path d="M13.76 194.26 C13.76 196.9 11.63 199.03 9 199.03 C6.37 199.03 4.24 196.9 4.24 194.26 C4.24 191.63 6.37 189.5
						 9 189.5 C11.63 189.5 13.76 191.63 13.76 194.26 ZM11.49 192.3 C11.29 192.1 10.95 192.1 10.74 192.3 L7.94
						 195.1 L7.26 194.42 C7.05 194.21 6.71 194.21 6.51 194.42 C6.3 194.63 6.3 194.96 6.51 195.17 L7.57 196.23
						 C7.77 196.43 8.11 196.43 8.32 196.23 L11.49 193.05 C11.7 192.84 11.7 192.51 11.49 192.3 ZM4.51 190.56 L1.59
						 190.56 C0.71 190.56 0 191.27 0 192.15 L0 205.91 C0 206.79 0.71 207.5 1.59 207.5 L9 207.5 C9.88 207.5 10.59
						 206.79 10.59 205.91 L10.59 199.87 C10.25 199.97 9.89 200.03 9.53 200.06 L9.53 205.91 C9.53 206.2 9.29 206.44
						 9 206.44 L1.59 206.44 C1.3 206.44 1.06 206.2 1.06 205.91 L1.06 192.15 C1.06 191.85 1.3 191.62 1.59 191.62
						 L3.81 191.62 C4.01 191.24 4.24 190.88 4.51 190.56 ZM3.18 203.79 C3.18 203.5 3.41 203.26 3.71 203.26 L6.88
						 203.26 C7.17 203.26 7.41 203.5 7.41 203.79 C7.41 204.09 7.17 204.32 6.88 204.32 L3.71 204.32 C3.41 204.32
						 3.18 204.09 3.18 203.79 Z" class="st9"/>
		</g>
		<g id="group145-29" transform="translate(285.932,-75.9952)" v:mID="145" v:groupContext="group" v:layerMember="4">
			<v:userDefs>
				<v:ud v:nameU="visNavOrder" v:prompt="" v:val="VT0(16000):26"/>
			</v:userDefs>
			<title>Sheet.145</title>
			<g id="shape146-30" v:mID="146" v:groupContext="shape" v:layerMember="4">
				<title>Sheet.146</title>
				<path d="M1.7 207.49 C1.47 207.49 1.25 207.45 1.05 207.36 C0.84 207.27 0.66 207.15 0.51 207 C0.36 206.85 0.23 206.67
							 0.14 206.45 C0.05 206.24 0 206.03 0.01 205.8 L0.01 193.44 C0.01 193.21 0.05 192.99 0.14 192.79 C0.23
							 192.58 0.35 192.4 0.5 192.25 C0.65 192.1 0.83 191.97 1.05 191.88 C1.26 191.79 1.47 191.74 1.7 191.75
							 L3.38 191.75 L3.38 191.7 C3.38 191.41 3.44 191.13 3.56 190.87 C3.67 190.61 3.84 190.37 4.04 190.17 C4.25
							 189.96 4.48 189.8 4.74 189.68 C5.01 189.57 5.29 189.51 5.59 189.5 L7.92 189.5 C8.2 189.5 8.48 189.56
							 8.74 189.68 C9 189.79 9.24 189.95 9.45 190.16 C9.66 190.36 9.83 190.59 9.94 190.84 C10.06 191.1 10.12
							 191.37 10.13 191.67 L10.13 191.75 L11.82 191.75 C12.04 191.75 12.26 191.79 12.47 191.88 C12.67 191.97
							 12.85 192.09 13 192.24 C13.15 192.39 13.28 192.57 13.37 192.79 C13.46 193 13.51 193.21 13.5 193.44 L13.5
							 205.8 C13.5 206.03 13.46 206.25 13.37 206.45 C13.28 206.66 13.16 206.84 13.01 206.99 C12.86 207.14 12.68
							 207.27 12.47 207.36 C12.25 207.45 12.04 207.5 11.82 207.49 L1.7 207.49 ZM7.88 192.87 C8.04 192.87 8.18
							 192.84 8.32 192.79 C8.45 192.73 8.57 192.65 8.67 192.55 C8.77 192.45 8.85 192.33 8.92 192.19 C8.98 192.05
							 9.01 191.9 9 191.75 C9 191.6 8.98 191.45 8.92 191.32 C8.86 191.18 8.78 191.06 8.68 190.96 C8.58 190.85
							 8.46 190.77 8.32 190.71 C8.18 190.65 8.03 190.62 7.88 190.62 L5.63 190.62 C5.47 190.62 5.33 190.65 5.19
							 190.71 C5.06 190.77 4.94 190.85 4.84 190.95 C4.74 191.05 4.66 191.17 4.59 191.31 C4.53 191.45 4.5 191.6
							 4.51 191.75 C4.51 191.91 4.54 192.05 4.59 192.19 C4.65 192.32 4.73 192.44 4.83 192.55 C4.93 192.65 5.05
							 192.73 5.18 192.79 C5.32 192.84 5.47 192.87 5.63 192.87 L7.88 192.87 ZM11.82 206.37 C11.97 206.37 12.1
							 206.31 12.21 206.2 C12.32 206.09 12.38 205.96 12.38 205.8 L12.38 193.44 C12.38 193.28 12.32 193.15 12.21
							 193.04 C12.1 192.93 11.97 192.87 11.82 192.87 L9.83 192.87 C9.63 193.22 9.36 193.5 9.01 193.7 C8.67
							 193.9 8.29 194 7.88 194 L5.63 194 C5.23 194 4.85 193.9 4.51 193.7 C4.16 193.5 3.89 193.22 3.68 192.87
							 L1.7 192.87 C1.54 192.87 1.41 192.93 1.3 193.04 C1.19 193.15 1.13 193.28 1.13 193.44 L1.13 205.8 C1.13
							 205.96 1.19 206.09 1.3 206.2 C1.41 206.31 1.54 206.37 1.7 206.37 L11.82 206.37 ZM4.51 197.37 L4.51 197.33
							 C4.51 197.02 4.57 196.74 4.69 196.48 C4.81 196.21 4.98 195.98 5.18 195.77 C5.39 195.57 5.63 195.41 5.89
							 195.3 C6.16 195.19 6.45 195.13 6.76 195.12 C7.06 195.12 7.35 195.18 7.63 195.3 C7.9 195.42 8.14 195.58
							 8.34 195.78 C8.54 195.99 8.7 196.23 8.82 196.5 C8.94 196.78 9 197.07 9 197.37 C9 197.68 8.95 197.97
							 8.83 198.24 C8.71 198.51 8.55 198.75 8.35 198.95 C8.14 199.16 7.9 199.32 7.63 199.44 C7.35 199.55 7.06
							 199.61 6.76 199.62 C6.45 199.62 6.16 199.56 5.89 199.44 C5.62 199.33 5.38 199.17 5.17 198.96 C4.97 198.76
							 4.81 198.52 4.69 198.25 C4.57 197.98 4.51 197.69 4.51 197.37 ZM7.88 197.37 C7.88 197.22 7.85 197.08
							 7.79 196.94 C7.73 196.81 7.65 196.69 7.55 196.58 C7.46 196.48 7.34 196.39 7.19 196.33 C7.05 196.28 6.91
							 196.25 6.76 196.25 C6.6 196.25 6.45 196.28 6.32 196.33 C6.18 196.39 6.06 196.47 5.96 196.57 C5.87 196.67
							 5.78 196.79 5.72 196.93 C5.65 197.07 5.63 197.22 5.63 197.37 C5.63 197.53 5.66 197.68 5.72 197.81 C5.78
							 197.95 5.86 198.07 5.96 198.17 C6.06 198.28 6.17 198.36 6.31 198.41 C6.44 198.46 6.59 198.49 6.76 198.5
							 C6.91 198.5 7.06 198.47 7.19 198.41 C7.33 198.35 7.45 198.27 7.55 198.17 C7.65 198.07 7.73 197.95 7.79
							 197.81 C7.86 197.67 7.89 197.52 7.88 197.37 ZM2.7 202.21 C2.7 201.99 2.73 201.8 2.8 201.61 C2.87 201.43
							 2.98 201.28 3.11 201.15 C3.24 201.02 3.4 200.92 3.58 200.85 C3.77 200.78 3.97 200.74 4.19 200.74 L9.32
							 200.74 C9.54 200.74 9.74 200.78 9.92 200.85 C10.1 200.92 10.26 201.02 10.39 201.15 C10.53 201.28 10.63
							 201.43 10.7 201.61 C10.77 201.8 10.81 201.99 10.81 202.21 C10.81 202.79 10.69 203.27 10.45 203.66 C10.21
							 204.05 9.9 204.36 9.52 204.59 C9.14 204.83 8.71 204.99 8.22 205.09 C7.74 205.19 7.25 205.24 6.76 205.24
							 C6.26 205.24 5.78 205.19 5.3 205.09 C4.82 204.99 4.38 204.83 4 204.6 C3.61 204.37 3.3 204.06 3.06 203.67
							 C2.82 203.28 2.7 202.79 2.7 202.21 ZM9.69 202.17 C9.69 202.05 9.65 201.97 9.58 201.93 C9.51 201.89 9.43
							 201.87 9.32 201.87 L4.19 201.87 C4.09 201.87 4.01 201.89 3.94 201.93 C3.87 201.97 3.83 202.05 3.82 202.17
							 C3.82 202.58 3.91 202.92 4.09 203.17 C4.28 203.42 4.51 203.62 4.79 203.77 C5.07 203.91 5.38 204.01 5.73
							 204.05 C6.07 204.09 6.42 204.11 6.76 204.12 C7.09 204.12 7.43 204.09 7.77 204.05 C8.12 204 8.44 203.91
							 8.72 203.77 C9.01 203.63 9.24 203.43 9.42 203.18 C9.59 202.93 9.68 202.59 9.69 202.17 Z" class="st2"/>
			</g>
		</g>
		<g id="group1000-32" transform="translate(17.6874,-60.9068)" v:mID="1000" v:groupContext="group" v:layerMember="1">
			<v:userDefs>
				<v:ud v:nameU="visNavOrder" v:prompt="" v:val="VT0(17000):26"/>
			</v:userDefs>
			<title>Sheet.1000</title>
			<g id="shape1001-33" v:mID="1001" v:groupContext="shape" v:layerMember="1" transform="translate(42.5,-17.3838)">
				<title>Sheet.1001</title>
				<desc>ISO 27001: 2022</desc>
				<v:textBlock v:margins="rect(0,0,0,0)"/>
				<v:textRect cx="91.3453" cy="199.27" width="182.7" height="16.4594"/>
				<rect x="0" y="191.041" width="182.691" height="16.4594" class="st3"/>
				<text x="96.68" y="202.87" class="st10" v:langID="1033"><v:paragraph v:spAfter="6" v:horizAlign="2"/><v:tabList/>ISO 27001: 2022</text>			</g>
			<g id="shape1002-36" v:mID="1002" v:groupContext="shape" v:layerMember="1" transform="translate(0,-0.123008)">
				<title>Sheet.1002</title>
				<desc>Annexure A.9.2.2 User access provisioning</desc>
				<v:textBlock v:margins="rect(0,0,0,0)"/>
				<v:textRect cx="112.5" cy="199.27" width="225.01" height="16.4594"/>
				<rect x="0" y="191.041" width="225" height="16.4594" class="st3"/>
				<text x="3.63" y="202.87" class="st10" v:langID="1033"><v:paragraph v:spAfter="6" v:horizAlign="2"/><v:tabList/>Annexure A.9.2.2 User access provisioning</text>			</g>
		</g>
	</g>
</svg>
