<?xml version="1.0" encoding="UTF-8" standalone="no"?>
<!DOCTYPE svg PUBLIC "-//W3C//DTD SVG 1.1//EN" "http://www.w3.org/Graphics/SVG/1.1/DTD/svg11.dtd">
<!-- Generated by Microsoft Visio, SVG Export regulatory-compliance-example-devices.svg Page-1 -->
<svg xmlns="http://www.w3.org/2000/svg" xmlns:xlink="http://www.w3.org/1999/xlink" xmlns:ev="http://www.w3.org/2001/xml-events"
		xmlns:v="http://schemas.microsoft.com/visio/2003/SVGExtensions/" width="5.43438in" height="3.48663in"
		viewBox="0 0 391.275 251.038" xml:space="preserve" color-interpolation-filters="sRGB" class="st21">
	<v:documentProperties v:langID="1033" v:viewMarkup="false"/>

	<style type="text/css">
	<![CDATA[
		.st1 {fill:#f2f2f2;stroke:none;stroke-width:0.25}
		.st2 {fill:none;stroke:none;stroke-width:0.25}
		.st3 {fill:#000000;font-family:Segoe UI Semibold;font-size:1.5em}
		.st4 {stroke:#737373;stroke-linecap:round;stroke-linejoin:round;stroke-width:1}
		.st5 {fill:#243a5e;font-family:Segoe UI Semibold;font-size:1.00001em}
		.st6 {fill:#0078d4;font-family:Segoe UI Semibold;font-size:1.00001em}
		.st7 {fill:#243a5e;font-family:Segoe UI;font-size:1.00001em}
		.st8 {fill:#0078d4;font-family:Segoe UI;font-size:1.00001em}
		.st9 {stroke:#797979;stroke-linecap:round;stroke-linejoin:round;stroke-width:1}
		.st10 {fill:#000000;stroke:none;stroke-width:0.298828}
		.st11 {fill:url(#grad0-44);stroke:none;stroke-width:0.75}
		.st12 {fill:#ffffff;stroke:none;stroke-width:0.75}
		.st13 {fill:url(#grad0-50);stroke:none;stroke-width:0.75}
		.st14 {fill:#32bedd;stroke:none;stroke-width:0.75}
		.st15 {fill:url(#grad0-58);stroke:none;stroke-width:0.75}
		.st16 {fill:#0078d4;stroke:none;stroke-width:0.75}
		.st17 {fill:url(#grad0-65);stroke:none;stroke-width:0.75}
		.st18 {fill:#f2f2f2;stroke:none;stroke-width:0.75}
		.st19 {fill:#76bc2d;stroke:none;stroke-width:0.75}
		.st20 {fill:none;stroke:none;stroke-width:0.75}
		.st21 {fill:none;fill-rule:evenodd;font-size:12px;overflow:visible;stroke-linecap:square;stroke-miterlimit:3}
	]]>
	</style>

	<defs id="Patterns_And_Gradients">
		<linearGradient id="grad0-44" x1="0" y1="0" x2="1" y2="0" gradientTransform="rotate(-90 0.5 0.5)">
			<stop offset="0" stop-color="#0078d4" stop-opacity="1"/>
			<stop offset="0.82" stop-color="#5ea0ef" stop-opacity="1"/>
		</linearGradient>
		<linearGradient id="grad0-50" x1="0" y1="0" x2="1" y2="0" gradientTransform="rotate(-90 0.5 0.5)">
			<stop offset="0" stop-color="#1490df" stop-opacity="1"/>
			<stop offset="0.98" stop-color="#1f56a3" stop-opacity="1"/>
		</linearGradient>
		<linearGradient id="grad0-58" x1="0" y1="0" x2="1" y2="0" gradientTransform="rotate(-90 0.5 0.5)">
			<stop offset="0" stop-color="#d2ebff" stop-opacity="1"/>
			<stop offset="1" stop-color="#f0fffd" stop-opacity="1"/>
		</linearGradient>
		<linearGradient id="grad0-65" x1="0" y1="0" x2="1" y2="0" gradientTransform="rotate(-90 0.5 0.5)">
			<stop offset="0" stop-color="#0078d4" stop-opacity="1"/>
			<stop offset="0.17" stop-color="#1c84dc" stop-opacity="1"/>
			<stop offset="0.38" stop-color="#3990e4" stop-opacity="1"/>
			<stop offset="0.59" stop-color="#4d99ea" stop-opacity="1"/>
			<stop offset="0.8" stop-color="#5a9eee" stop-opacity="1"/>
			<stop offset="1" stop-color="#5ea0ef" stop-opacity="1"/>
		</linearGradient>
	</defs>
	<g v:mID="0" v:index="1" v:groupContext="foregroundPage">
		<v:userDefs>
			<v:ud v:nameU="visNavType" v:val="VT0(1):26"/>
		</v:userDefs>
		<title>Page-1</title>
		<v:pageProperties v:drawingScale="1" v:pageScale="1" v:drawingUnits="0" v:shadowOffsetX="9" v:shadowOffsetY="-9"/>
		<v:layer v:name="Background" v:index="0"/>
		<v:layer v:name="Text" v:index="1"/>
		<v:layer v:name="Headings" v:index="2"/>
		<v:layer v:name="Connector" v:index="3"/>
		<g id="shape1000-1" v:mID="1000" v:groupContext="shape" v:layerMember="0" transform="translate(0.650432,-0.25)">
			<title>Sheet.1000</title>
			<v:userDefs>
				<v:ud v:nameU="visNavOrder" v:prompt="" v:val="VT0(1000):26"/>
			</v:userDefs>
			<rect x="0" y="0.500007" width="390.375" height="250.538" class="st1"/>
		</g>
		<g id="shape1003-3" v:mID="1003" v:groupContext="shape" v:layerMember="1;2" transform="translate(165.069,-165.666)">
			<title>Sheet.1003</title>
			<desc>Devices</desc>
			<v:userDefs>
				<v:ud v:nameU="visNavOrder" v:prompt="" v:val="VT0(3000):26"/>
			</v:userDefs>
			<v:textBlock v:margins="rect(0,0,0,0)"/>
			<v:textRect cx="54" cy="237.538" width="108.01" height="27"/>
			<rect x="0" y="224.038" width="108" height="27" class="st2"/>
			<text x="22.95" y="242.94" class="st3" v:langID="1033"><v:paragraph v:spAfter="6" v:horizAlign="1"/><v:tabList/>Devices</text>		</g>
		<g id="shape1004-6" v:mID="1004" v:groupContext="shape" v:layerMember="3" transform="translate(264.257,-179.912)">
			<title>Dynamic connector</title>
			<v:userDefs>
				<v:ud v:nameU="visNavOrder" v:prompt="" v:val="VT0(4000):26"/>
			</v:userDefs>
			<path d="M0 252.16 L29.19 252.16 L29.19 267.91" class="st4"/>
		</g>
		<g id="shape1005-9" v:mID="1005" v:groupContext="shape" v:layerMember="1;2" transform="translate(42.2754,-142.017)">
			<title>Sheet.1005</title>
			<desc>Regulatory Requirements</desc>
			<v:userDefs>
				<v:ud v:nameU="visNavOrder" v:prompt="" v:val="VT0(5000):26"/>
			</v:userDefs>
			<v:textBlock v:margins="rect(0,0,0,0)"/>
			<v:textRect cx="78.2094" cy="242.808" width="156.42" height="16.4594"/>
			<rect x="0" y="234.578" width="156.419" height="16.4594" class="st2"/>
			<text x="18.05" y="246.41" class="st5" v:langID="1033"><v:paragraph v:spAfter="6" v:horizAlign="2"/><v:tabList/>Regulatory Requirements</text>		</g>
		<g id="shape1006-12" v:mID="1006" v:groupContext="shape" v:layerMember="1;2" transform="translate(239.444,-142.017)">
			<title>Sheet.1006</title>
			<desc>Technical elements</desc>
			<v:userDefs>
				<v:ud v:nameU="visNavOrder" v:prompt="" v:val="VT0(6000):26"/>
			</v:userDefs>
			<v:textBlock v:margins="rect(0,0,0,0)"/>
			<v:textRect cx="54" cy="242.808" width="108.01" height="16.4594"/>
			<rect x="0" y="234.578" width="108" height="16.4594" class="st2"/>
			<text x="0" y="246.41" class="st6" v:langID="1033"><v:paragraph v:spAfter="6"/><v:tabList/>Technical elements</text>		</g>
		<g id="group1007-15" transform="translate(14.7129,-101.455)" v:mID="1007" v:groupContext="group" v:layerMember="1">
			<v:userDefs>
				<v:ud v:nameU="visNavOrder" v:prompt="" v:val="VT0(7000):26"/>
			</v:userDefs>
			<title>Sheet.1007</title>
			<g id="shape1008-16" v:mID="1008" v:groupContext="shape" v:layerMember="1" transform="translate(34.752,-17.3838)">
				<title>Sheet.1008</title>
				<desc>ISO 27001: 2022</desc>
				<v:textBlock v:margins="rect(0,0,0,0)"/>
				<v:textRect cx="74.6925" cy="242.808" width="149.39" height="16.4594"/>
				<rect x="0" y="234.578" width="149.385" height="16.4594" class="st2"/>
				<text x="63.37" y="246.41" class="st7" v:langID="1033"><v:paragraph v:spAfter="6" v:horizAlign="2"/><v:tabList/>ISO 27001: 2022</text>			</g>
			<g id="shape1009-19" v:mID="1009" v:groupContext="shape" v:layerMember="1" transform="translate(-14.4629,-0.123008)">
				<title>Sheet.1009</title>
				<desc>Annexure 8.1.1 Inventory of assets</desc>
				<v:textBlock v:margins="rect(0,0,0,0)"/>
				<v:textRect cx="99.2221" cy="242.808" width="198.45" height="16.4594"/>
				<rect x="0" y="234.578" width="198.444" height="16.4594" class="st2"/>
				<text x="17.96" y="246.41" class="st7" v:langID="1033"><v:paragraph v:spAfter="6" v:horizAlign="2"/><v:tabList/>Annexure 8.1.1 Inventory of assets</text>			</g>
		</g>
		<g id="shape1010-22" v:mID="1010" v:groupContext="shape" v:layerMember="1" transform="translate(261.941,-118.839)">
			<title>Sheet.1010</title>
			<desc>Microsoft Intune</desc>
			<v:userDefs>
				<v:ud v:nameU="visNavOrder" v:prompt="" v:val="VT0(8000):26"/>
			</v:userDefs>
			<v:textBlock v:margins="rect(0,0,0,0)"/>
			<v:textRect cx="54" cy="242.808" width="108.01" height="16.4594"/>
			<rect x="0" y="234.578" width="108" height="16.4594" class="st2"/>
			<text x="0" y="246.41" class="st8" v:langID="1033"><v:paragraph v:spAfter="6"/><v:tabList/>Microsoft Intune</text>		</g>
		<g id="shape1011-25" v:mID="1011" v:groupContext="shape" v:layerMember="1" transform="translate(261.941,-71.6875)">
			<title>Sheet.1011</title>
			<desc>Device management</desc>
			<v:userDefs>
				<v:ud v:nameU="visNavOrder" v:prompt="" v:val="VT0(9000):26"/>
			</v:userDefs>
			<v:textBlock v:margins="rect(0,0,0,0)"/>
			<v:textRect cx="58.3547" cy="242.808" width="116.71" height="16.4594"/>
			<rect x="0" y="234.578" width="116.709" height="16.4594" class="st2"/>
			<text x="0" y="246.41" class="st8" v:langID="1033"><v:paragraph v:spAfter="6"/><v:tabList/>Device management</text>		</g>
		<g id="shape1015-28" v:mID="1015" v:groupContext="shape" transform="translate(544.732,134.35) rotate(90)">
			<title>Sheet.1015</title>
			<v:userDefs>
				<v:ud v:nameU="visNavOrder" v:val="VT0(12000):26"/>
			</v:userDefs>
			<path d="M0 251.04 L21 251.04" class="st9"/>
		</g>
		<g id="shape1016-31" v:mID="1016" v:groupContext="shape" v:layerMember="1" transform="translate(261.444,-19.8078)">
			<title>Sheet.1016</title>
			<desc>Compliance policies</desc>
			<v:userDefs>
				<v:ud v:nameU="visNavOrder" v:prompt="" v:val="VT0(13000):26"/>
			</v:userDefs>
			<v:textBlock v:margins="rect(0,0,0,0)"/>
			<v:textRect cx="54" cy="242.808" width="108.01" height="16.4594"/>
			<rect x="0" y="234.578" width="108" height="16.4594" class="st2"/>
			<text x="0" y="246.41" class="st8" v:langID="1033"><v:paragraph v:spAfter="6"/><v:tabList/>Compliance policies</text>		</g>
		<g id="shape1017-34" v:mID="1017" v:groupContext="shape" transform="translate(544.732,188.35) rotate(90)">
			<title>Sheet.1017</title>
			<v:userDefs>
				<v:ud v:nameU="visNavOrder" v:val="VT0(14000):26"/>
			</v:userDefs>
			<path d="M0 251.04 L21 251.04" class="st9"/>
		</g>
		<g id="group1018-37" transform="translate(193.568,-195.241)" v:mID="1018" v:groupContext="group">
			<v:userDefs>
				<v:ud v:nameU="visNavOrder" v:val="VT0(16000):26"/>
			</v:userDefs>
			<title>Sheet.1018</title>
			<g id="shape1019-38" v:mID="1019" v:groupContext="shape">
				<title>Sheet.1019</title>
				<path d="M5.66 251.04 C4.91 251.04 4.19 250.89 3.52 250.59 C2.84 250.29 2.24 249.87 1.71 249.35 C1.19 248.82 0.77
							 248.22 0.47 247.54 C0.17 246.87 0.02 246.15 0 245.38 L0 222.07 C0 221.32 0.15 220.61 0.45 219.93 C0.75
							 219.25 1.16 218.65 1.69 218.13 C2.22 217.6 2.82 217.19 3.49 216.89 C4.17 216.59 4.89 216.43 5.66 216.41
							 L40.51 216.41 C41.26 216.41 41.97 216.56 42.65 216.86 C43.32 217.17 43.93 217.58 44.45 218.1 C44.98
							 218.63 45.39 219.23 45.69 219.91 C45.99 220.58 46.15 221.31 46.17 222.07 L46.17 245.38 C46.17 246.13
							 46.01 246.84 45.71 247.52 C45.41 248.2 45 248.8 44.47 249.32 C43.95 249.85 43.35 250.26 42.67 250.56
							 C41.99 250.86 41.27 251.02 40.51 251.04 L5.66 251.04 ZM40.39 248.15 C40.8 248.15 41.18 248.08 41.52
							 247.93 C41.87 247.78 42.17 247.57 42.42 247.32 C42.68 247.06 42.89 246.75 43.05 246.39 C43.22 246.03
							 43.29 245.66 43.28 245.27 L43.28 222.18 C43.28 221.79 43.2 221.43 43.05 221.08 C42.9 220.73 42.7 220.43
							 42.45 220.16 C42.19 219.89 41.88 219.67 41.52 219.52 C41.16 219.37 40.79 219.3 40.39 219.3 L5.77 219.3
							 C5.36 219.3 4.99 219.37 4.64 219.52 C4.3 219.67 4 219.88 3.74 220.13 C3.49 220.39 3.28 220.7 3.11 221.06
							 C2.95 221.42 2.87 221.79 2.89 222.18 L2.89 245.27 C2.89 245.67 2.96 246.05 3.11 246.39 C3.26 246.74
							 3.46 247.05 3.72 247.32 C3.97 247.59 4.28 247.79 4.62 247.93 C4.97 248.06 5.35 248.14 5.77 248.15 L40.39
							 248.15 ZM18.75 242.38 C18.36 242.38 18.03 242.24 17.74 241.95 C17.45 241.67 17.31 241.33 17.31 240.94
							 C17.31 240.55 17.45 240.21 17.74 239.92 C18.03 239.64 18.36 239.5 18.75 239.5 L27.41 239.5 C27.8 239.5
							 28.14 239.64 28.42 239.92 C28.71 240.21 28.85 240.55 28.85 240.94 C28.85 241.33 28.71 241.67 28.42 241.95
							 C28.14 242.24 27.8 242.38 27.41 242.38 L18.75 242.38 Z" class="st10"/>
			</g>
		</g>
		<g id="group1020-40" transform="translate(239.168,-121.187)" v:mID="1020" v:groupContext="group">
			<v:userDefs>
				<v:ud v:nameU="visNavOrder" v:val="VT0(17000):26"/>
			</v:userDefs>
			<title>Icon-intune-329</title>
			<g id="shape1021-41" v:mID="1021" v:groupContext="shape" transform="translate(0,-4.3911)">
				<title>Sheet.1021</title>
				<path d="M-0 250.63 a0.405092 0.405092 -180 0 0 0.405083 0.405083 L11.83 251.04 a0.405092 0.405092 -180 0 0 0.405083
							 -0.405083 L12.23 243.29 a0.405092 0.405092 -180 0 0 -0.405083 -0.405083 L0.41 242.89 a0.405092 0.405092
							 -180 0 0 -0.405083 0.405083 L0 250.63 Z" class="st11"/>
			</g>
			<g id="shape1022-45" v:mID="1022" v:groupContext="shape" transform="translate(0.680539,-5.06353)">
				<title>Sheet.1022</title>
				<path d="M0 250.81 a0.226851 0.226851 -180 0 0 0.226846 0.226846 L10.65 251.04 a0.226851 0.226851 -180 0 0 0.226846
							 -0.226846 L10.87 244.47 a0.226851 0.226851 -180 0 0 -0.226846 -0.226846 L0.23 244.24 a0.226851 0.226851
							 -180 0 0 -0.226846 0.226846 L0 250.81 Z" class="st12"/>
			</g>
			<g id="shape1023-47" v:mID="1023" v:groupContext="shape" transform="translate(3.03002,-1.23955)">
				<title>Sheet.1023</title>
				<path d="M5.54 250.36 C4.33 250.17 4.28 249.3 4.29 247.93 L1.86 247.93 C1.86 249.34 1.81 250.21 0.6 250.36 a0.704844
							 0.704844 -180 0 0 -0.599522 0.680539 L6.11 251.04 a0.712945 0.712945 -180 0 0 -0.567116 -0.680539 Z"
						class="st13"/>
			</g>
			<g id="shape1024-51" v:mID="1024" v:groupContext="shape" transform="translate(4.22604,2.84217E-14)">
				<title>Sheet.1024</title>
				<path d="M9.28 242.26 L3.71 242.26 A1.87148 1.87148 -180 1 0 3.71 243.01 L4.28 243.01 L4.28 250.77 a0.267354 0.267354
							 -180 0 0 0.267354 0.267354 L9.27 251.04 a0.267354 0.267354 -180 0 0 0.267354 -0.267354 L9.54 242.53
							 a0.267354 0.267354 -180 0 0 -0.259253 -0.267354 Z" class="st14"/>
			</g>
			<g id="shape1025-53" v:mID="1025" v:groupContext="shape" transform="translate(9.00904,-0.988401)">
				<title>Sheet.1025</title>
				<path d="M0 250.94 a0.0972221 0.0972221 -180 0 0 0.0972198 0.0972198 L4.17 251.04 a0.0972221 0.0972221 -180 0 0 0.0972198
							 -0.0972198 L4.27 244.09 a0.0972221 0.0972221 -180 0 0 -0.0972198 -0.0972198 L0.1 243.99 a0.0972221 0.0972221
							 -180 0 0 -0.0972198 0.0972198 L0 250.94 Z" class="st12"/>
			</g>
			<g id="shape1026-55" v:mID="1026" v:groupContext="shape" transform="translate(4.93391,-7.18616)">
				<title>Sheet.1026</title>
				<ellipse cx="1.18284" cy="249.855" rx="1.18284" ry="1.18284" class="st15"/>
			</g>
			<g id="shape1027-59" v:mID="1027" v:groupContext="shape" transform="translate(8.50673,-3.76173)">
				<title>Sheet.1027</title>
				<path d="M3.14 250 L2.24 249.1 a0.0486099 0.0486099 -180 0 0 -0.0810165 0.0405083 L2.16 249.69 a0.0486099 0.0486099
							 0 0 1 -0.0486099 0.0486099 L0 249.74 L0 250.41 L2.11 250.41 a0.0486099 0.0486099 0 0 1 0.0486099 0.0486099
							 L2.16 251.02 a0.0486099 0.0486099 -180 0 0 0.0810165 -2.84217E-14 L3.14 250.15 a0.0972198 0.0972198
							 -180 0 0 6.21725E-15 -0.14583 Z" class="st16"/>
			</g>
		</g>
		<g id="group1028-61" transform="translate(240.845,-8.68749)" v:mID="1028" v:groupContext="group">
			<v:userDefs>
				<v:ud v:nameU="visNavOrder" v:val="VT0(18000):26"/>
			</v:userDefs>
			<title>Icon-intune-333</title>
			<g id="shape1029-62" v:mID="1029" v:groupContext="shape" transform="translate(0,-12.8504)">
				<title>Sheet.1029</title>
				<path d="M-0 250.61 a0.424748 0.424748 -180 0 0 0.424738 0.424738 L8.05 251.04 a0.424748 0.424748 -180 0 0 0.424738
							 -0.424738 L8.47 237.31 a0.424748 0.424748 -180 0 0 -0.424738 -0.424738 L0.42 236.89 a0.424748 0.424748
							 -180 0 0 -0.424738 0.424738 L0 250.61 Z" class="st17"/>
			</g>
			<g id="shape1030-66" v:mID="1030" v:groupContext="shape" transform="translate(3.75601,-13.1419)">
				<title>Sheet.1030</title>
				<path d="M0 250.81 a0.224866 0.224866 -180 0 0 0.224861 0.224861 L0.72 251.04 a0.224866 0.224866 -180 0 0 0.224861
							 -0.224861 L0.95 250.45 a0.224866 0.224866 -180 0 0 -0.224861 -0.224861 L0.22 250.23 a0.224866 0.224866
							 -180 0 0 -0.224861 0.224861 L0 250.81 Z" class="st18"/>
			</g>
			<g id="shape1031-68" v:mID="1031" v:groupContext="shape" transform="translate(3.25632,-26.2671)">
				<title>Sheet.1031</title>
				<path d="M0 250.91 a0.124926 0.124926 -180 0 0 0.124923 0.124923 L1.82 251.04 a0.124926 0.124926 -180 0 0 0.124923
							 -0.124923 L1.95 250.9 a0.124926 0.124926 -180 0 0 -0.124923 -0.124923 L0.12 250.78 a0.124926 0.124926
							 -180 0 0 -0.124923 0.124923 L0 250.91 Z" class="st18"/>
			</g>
			<g id="shape1032-70" v:mID="1032" v:groupContext="shape" transform="translate(0.791178,-14.4328)">
				<title>Sheet.1032</title>
				<path d="M0 250.88 a0.158239 0.158239 -180 0 0 0.158236 0.158236 L6.72 251.04 a0.158239 0.158239 -180 0 0 0.158236
							 -0.158236 L6.88 239.83 a0.158239 0.158239 -180 0 0 -0.158236 -0.158236 L0.16 239.67 a0.158239 0.158239
							 -180 0 0 -0.158236 0.158236 L0 250.88 Z" class="st15"/>
			</g>
			<g id="shape1033-73" v:mID="1033" v:groupContext="shape" transform="translate(6.59593,-12.8421)">
				<title>Sheet.1033</title>
				<path d="M0 250.8 a0.233195 0.233195 -180 0 0 0.233189 0.233189 L6.03 251.04 a0.233195 0.233195 -180 0 0 0.233189
							 -0.233189 L6.26 245.01 a0.233195 0.233195 -180 0 0 -0.233189 -0.233189 L0.23 244.77 a0.233195 0.233195
							 -180 0 0 -0.233189 0.233189 L0 250.8 Z" class="st19"/>
			</g>
			<g id="shape1034-75" v:mID="1034" v:groupContext="shape" transform="translate(191.675,405.827) rotate(135)">
				<title>Sheet.1034</title>
				<path d="M9.08 248.69 L9.59 248.69 a0.158236 0.158236 0 0 1 0.158236 0.158236 L9.74 250.88 a0.158236 0.158236 0 0
							 1 -0.158236 0.158236 L9.23 251.04 a0.158236 0.158236 0 0 1 -0.158236 -0.158236 L9.07 248.69 L9.08 248.69
							 Z" class="st12"/>
			</g>
			<g id="shape1035-77" v:mID="1035" v:groupContext="shape" transform="translate(-157.23,418.861) rotate(-135)">
				<title>Sheet.1035</title>
				<path d="M11.33 246.22 L11.84 246.22 L11.84 250.88 a0.158236 0.158236 0 0 1 -0.158236 0.158236 L11.33 251.04 a0.158236
							 0.158236 0 0 1 -0.158236 -0.158236 L11.17 246.37 a0.158236 0.158236 0 0 1 0.158236 -0.158236 L11.33
							 246.22 Z" class="st12"/>
			</g>
		</g>
		<g id="group1044-79" transform="translate(240.845,-74.4794)" v:mID="1044" v:groupContext="group">
			<v:userDefs>
				<v:ud v:nameU="visNavOrder" v:val="VT0(20000):26"/>
			</v:userDefs>
			<title>Icon-intune-337</title>
			<g id="shape1045-80" v:mID="1045" v:groupContext="shape" transform="translate(-4.4964E-14,-3.0525)">
				<title>Sheet.1045</title>
				<path d="M0 250.59 a0.45001 0.45001 -180 0 0 0.45 0.45 L12.06 251.04 a0.45001 0.45001 -180 0 0 0.45 -0.45 L12.51
							 242.59 a0.45001 0.45001 -180 0 0 -0.45 -0.45 L0.45 242.14 a0.45001 0.45001 -180 0 0 -0.45 0.45 L0 250.59
							 Z" class="st16"/>
			</g>
			<g id="shape1046-82" v:mID="1046" v:groupContext="shape" transform="translate(0.7275,-3.7575)">
				<title>Sheet.1046</title>
				<path d="M0 250.81 a0.225005 0.225005 -180 0 0 0.225 0.225 L10.83 251.04 a0.225005 0.225005 -180 0 0 0.225 -0.225
							 L11.06 243.69 a0.225005 0.225005 -180 0 0 -0.225 -0.225 L0.22 243.46 a0.225005 0.225005 -180 0 0 -0.225
							 0.225 L0 250.81 Z" class="st15"/>
			</g>
			<g id="shape1047-85" v:mID="1047" v:groupContext="shape" transform="translate(7.725,5.68434E-14)">
				<title>Sheet.1047</title>
				<path d="M0 250.81 a0.225005 0.225005 -180 0 0 0.225 0.225 L5.55 251.04 a0.225005 0.225005 -180 0 0 0.225 -0.225
							 L5.77 241.63 a0.225005 0.225005 -180 0 0 -0.225 -0.225 L0.23 241.4 a0.225005 0.225005 -180 0 0 -0.225
							 0.225 L0 250.81 Z" class="st17"/>
			</g>
			<g id="shape1048-88" v:mID="1048" v:groupContext="shape" transform="translate(9.9525,-9.135)">
				<title>Sheet.1048</title>
				<path d="M0 250.96 a0.0825019 0.0825019 -180 0 0 0.0825 0.0825 L1.24 251.04 a0.0825019 0.0825019 -180 0 0 0.0825
							 -0.0825 L1.33 250.94 a0.0825019 0.0825019 -180 0 0 -0.0825 -0.0825 L0.08 250.86 a0.0825019 0.0825019
							 -180 0 0 -0.0825 0.0825 L0 250.96 Z" class="st18"/>
			</g>
			<g id="shape1049-90" v:mID="1049" v:groupContext="shape" transform="translate(8.2725,-1.08)">
				<title>Sheet.1049</title>
				<path d="M0 250.93 a0.105002 0.105002 -180 0 0 0.105 0.105 L4.58 251.04 a0.105002 0.105002 -180 0 0 0.105 -0.105
							 L4.69 243.4 a0.105002 0.105002 -180 0 0 -0.105 -0.105 L0.1 243.29 a0.105002 0.105002 -180 0 0 -0.105
							 0.105 L0 250.93 Z" class="st20"/>
			</g>
			<g id="shape1050-92" v:mID="1050" v:groupContext="shape" transform="translate(5.61,-11.4975)">
				<title>Sheet.1050</title>
				<path d="M0 250.96 a0.0825019 0.0825019 -180 0 0 0.0825 0.0825 L1.24 251.04 a0.0825019 0.0825019 -180 0 0 0.0825
							 -0.0825 L1.33 250.94 a0.0825019 0.0825019 -180 0 0 -0.0825 -0.0825 L0.08 250.86 a0.0825019 0.0825019
							 -180 0 0 -0.0825 0.0825 L0 250.96 Z" class="st18"/>
			</g>
			<g id="shape1051-94" v:mID="1051" v:groupContext="shape" transform="translate(2.28,-0.6)">
				<title>Sheet.1051</title>
				<path d="M0 247.9 A3.14257 3.14257 -180 0 0 3.14 251.04 L3.17 251.04 A3.14257 3.14257 -180 0 0 6.31 247.9 L6.31 247.87
							 A3.14257 3.14257 -180 0 0 3.17 244.72 L3.14 244.72 A3.14257 3.14257 -180 0 0 0 247.87 L0 247.9 Z"
						class="st19"/>
			</g>
			<g id="shape1052-96" v:mID="1052" v:groupContext="shape" transform="translate(3.18,-1.53)">
				<title>Sheet.1052</title>
				<path d="M4.15 248.4 L2.65 248.4 L2.65 246.9 a0.3525 0.3525 -180 0 0 -0.3375 -0.3075 L2.2 246.59 a0.3525 0.3525 -180
							 0 0 -0.3525 0.3525 L1.84 248.44 L0.34 248.44 a0.3525 0.3525 -180 0 0 -0.345 0.3525 L0 248.84 a0.3525
							 0.3525 -180 0 0 0.345 0.3525 L1.84 249.19 L1.84 250.69 a0.3525 0.3525 -180 0 0 0.3525 0.345 L2.32 251.04
							 a0.3525 0.3525 -180 0 0 0.3525 -0.345 L2.67 249.19 L4.17 249.19 a0.3525 0.3525 -180 0 0 0.3525 -0.3525
							 L4.52 248.72 a0.3525 0.3525 -180 0 0 -0.3675 -0.3225 Z" class="st12"/>
			</g>
			<g id="shape1053-98" v:mID="1053" v:groupContext="shape" transform="translate(10.29,-0.21)">
				<title>Sheet.1053</title>
				<path d="M0 250.89 a0.150003 0.150003 -180 0 0 0.15 0.15 L0.5 251.04 a0.150003 0.150003 -180 0 0 0.15 -0.15 L0.64
							 250.64 a0.150003 0.150003 -180 0 0 -0.15 -0.15 L0.15 250.49 a0.150003 0.150003 -180 0 0 -0.15 0.15 L0
							 250.89 Z" class="st18"/>
			</g>
		</g>
	</g>
</svg>
