<?xml version="1.0" encoding="UTF-8" standalone="no"?>
<!DOCTYPE svg PUBLIC "-//W3C//DTD SVG 1.1//EN" "http://www.w3.org/Graphics/SVG/1.1/DTD/svg11.dtd">
<!-- Generated by Microsoft Visio, SVG Export azure-infra-vm-secure-access.svg Page-1 -->
<svg xmlns="http://www.w3.org/2000/svg" xmlns:xlink="http://www.w3.org/1999/xlink" xmlns:ev="http://www.w3.org/2001/xml-events"
		xmlns:v="http://schemas.microsoft.com/visio/2003/SVGExtensions/" width="6.82305in" height="4.31695in"
		viewBox="0 0 491.26 310.82" xml:space="preserve" color-interpolation-filters="sRGB" class="st30">
	<v:documentProperties v:langID="1033" v:viewMarkup="false"/>

	<style type="text/css">
	<![CDATA[
		.st1 {fill:#ffffff;stroke:none;stroke-width:1}
		.st2 {fill:none;stroke:none;stroke-width:1}
		.st3 {fill:#000000;font-family:Segoe UI;font-size:1.00001em}
		.st4 {font-size:1em}
		.st5 {visibility:visible}
		.st6 {fill:#000000;fill-opacity:0.15;filter:url(#filter_2);stroke:none}
		.st7 {fill:#cce9ff;stroke:none;stroke-width:0.25}
		.st8 {fill:#000000;font-family:Segoe UI Semibold;font-size:1.5em}
		.st9 {fill:#e6e6e6;stroke:none;stroke-width:1}
		.st10 {fill:none;stroke:none;stroke-width:0.25}
		.st11 {fill:#000000;font-family:Segoe UI Semibold;font-size:1.16666em}
		.st12 {fill:#ffffff;stroke:none;stroke-width:0.25}
		.st13 {fill:#000000;font-family:Segoe UI Semibold;font-size:1.00001em}
		.st14 {fill:#cce9ff;stroke:none;stroke-width:1}
		.st15 {fill:url(#grad0-45);stroke:none;stroke-width:0.25}
		.st16 {fill:#50e6ff;stroke:none;stroke-width:0.25}
		.st17 {fill:#c3f1ff;stroke:none;stroke-width:0.25}
		.st18 {fill:#9cebff;stroke:none;stroke-width:0.25}
		.st19 {fill:url(#grad0-59);stroke:none;stroke-width:0.25}
		.st20 {marker-end:url(#mrkr1-108);stroke:#0078d4;stroke-linecap:round;stroke-linejoin:round;stroke-width:1}
		.st21 {fill:#0078d4;fill-opacity:1;stroke:#0078d4;stroke-opacity:1;stroke-width:0.20161290322581}
		.st22 {fill:url(#grad0-122);stroke:none;stroke-width:0.75}
		.st23 {fill:#ffffff;fill-opacity:0.8;stroke:none;stroke-width:0.75}
		.st24 {fill:url(#grad0-128);stroke:none;stroke-width:0.75}
		.st25 {fill:#0078d4;stroke:none;stroke-width:0.75}
		.st26 {fill:url(#grad0-135);stroke:none;stroke-width:0.75}
		.st27 {fill:url(#grad0-139);stroke:none;stroke-width:0.75}
		.st28 {fill:#f2f2f2;stroke:none;stroke-width:0.75}
		.st29 {fill:none;stroke:none;stroke-width:0.75}
		.st30 {fill:none;fill-rule:evenodd;font-size:12px;overflow:visible;stroke-linecap:square;stroke-miterlimit:3}
	]]>
	</style>

	<defs id="Patterns_And_Gradients">
		<linearGradient id="grad0-45" x1="0" y1="0" x2="1" y2="0" gradientTransform="rotate(-90 0.5 0.5)">
			<stop offset="0" stop-color="#0078d4" stop-opacity="1"/>
			<stop offset="0.82" stop-color="#5ea0ef" stop-opacity="1"/>
		</linearGradient>
		<linearGradient id="grad0-59" x1="0" y1="0" x2="1" y2="0" gradientTransform="rotate(-90 0.5 0.5)">
			<stop offset="0.15" stop-color="#cccccc" stop-opacity="1"/>
			<stop offset="1" stop-color="#707070" stop-opacity="1"/>
		</linearGradient>
		<linearGradient id="grad0-122" x1="0" y1="0" x2="1" y2="0" gradientTransform="rotate(90 0.5 0.5)">
			<stop offset="0.22" stop-color="#32d4f5" stop-opacity="1"/>
			<stop offset="1" stop-color="#198ab3" stop-opacity="1"/>
		</linearGradient>
		<linearGradient id="grad0-128" x1="0" y1="0" x2="1" y2="0" gradientTransform="rotate(85.405746668733 0.5 0.5)">
			<stop offset="0.22" stop-color="#32d4f5" stop-opacity="1"/>
			<stop offset="1" stop-color="#198ab3" stop-opacity="1"/>
		</linearGradient>
		<linearGradient id="grad0-135" x1="0" y1="0" x2="1" y2="0" gradientTransform="rotate(-90 0.5 0.5)">
			<stop offset="0" stop-color="#d2ebff" stop-opacity="1"/>
			<stop offset="1" stop-color="#f0fffd" stop-opacity="1"/>
		</linearGradient>
		<linearGradient id="grad0-139" x1="0" y1="0" x2="1" y2="0" gradientTransform="rotate(-90 0.5 0.5)">
			<stop offset="0" stop-color="#0078d4" stop-opacity="1"/>
			<stop offset="0.17" stop-color="#1c84dc" stop-opacity="1"/>
			<stop offset="0.38" stop-color="#3990e4" stop-opacity="1"/>
			<stop offset="0.59" stop-color="#4d99ea" stop-opacity="1"/>
			<stop offset="0.8" stop-color="#5a9eee" stop-opacity="1"/>
			<stop offset="1" stop-color="#5ea0ef" stop-opacity="1"/>
		</linearGradient>
	</defs>
	<defs id="Markers">
		<g id="lend1">
			<path d="M 1 -1 L 0 0 L 1 1 " style="stroke-linecap:round;stroke-linejoin:round;fill:none"/>
		</g>
		<marker id="mrkr1-108" class="st21" v:arrowType="1" v:arrowSize="4" orient="auto" markerUnits="strokeWidth"
				overflow="visible">
			<use xlink:href="#lend1" transform="scale(-4.96,-4.96) "/>
		</marker>
	</defs>
	<defs id="Filters">
		<filter id="filter_2">
			<feGaussianBlur stdDeviation="2"/>
		</filter>
	</defs>
	<g v:mID="0" v:index="1" v:groupContext="foregroundPage">
		<v:userDefs>
			<v:ud v:nameU="visNavType" v:val="VT0(1):26"/>
		</v:userDefs>
		<title>Page-1</title>
		<v:pageProperties v:drawingScale="1" v:pageScale="1" v:drawingUnits="19" v:shadowOffsetX="9" v:shadowOffsetY="-9"/>
		<v:layer v:name="symbols" v:index="0" v:glue="false"/>
		<v:layer v:name="Icons" v:index="1" v:glue="false"/>
		<v:layer v:name="Connector" v:index="2" v:glue="false"/>
		<v:layer v:name="Text" v:index="3" v:glue="false"/>
		<v:layer v:name="Reference Architecture" v:index="4" v:glue="false"/>
		<v:layer v:name="Icon Names" v:index="5" v:glue="false"/>
		<g id="group4981-1" transform="translate(3.97202,-6.50901)" v:mID="4981" v:groupContext="group">
			<v:userDefs>
				<v:ud v:nameU="visNavOrder" v:val="VT0(1143000):26"/>
			</v:userDefs>
			<title>Sheet.4981</title>
			<g id="shape4460-2" v:mID="4460" v:groupContext="shape" transform="translate(6.39488E-14,-0.487509)">
				<title>Sheet.4460</title>
				<v:userDefs>
					<v:ud v:nameU="visNavOrder" v:prompt="" v:val="VT0(1053000):26"/>
				</v:userDefs>
				<rect x="0" y="9.99303" width="486.288" height="300.827" rx="4.5" ry="4.5" class="st1"/>
			</g>
			<g id="shape4931-4" v:mID="4931" v:groupContext="shape" transform="translate(234.088,-268.502)">
				<title>Sheet.4931</title>
				<desc>Set up MFA to the virtual machines</desc>
				<v:userDefs>
					<v:ud v:nameU="visNavOrder" v:val="VT0(1118000):26"/>
				</v:userDefs>
				<v:textBlock v:margins="rect(4,4,4,4)" v:verticalAlign="2"/>
				<v:textRect cx="101.475" cy="298.802" width="202.95" height="24.0373"/>
				<rect x="0" y="286.783" width="202.95" height="24.0373" rx="4.5" ry="4.5" class="st2"/>
				<text x="4" y="302.62" class="st3" v:langID="1033"><v:paragraph/><v:tabList/>Set up MFA to the virtual machines</text>			</g>
			<g id="shape4935-7" v:mID="4935" v:groupContext="shape" transform="translate(234.088,-61.5024)">
				<title>Sheet.4935</title>
				<desc>Use Privileged Access Workstations (PAWs) to access the virtu...</desc>
				<v:userDefs>
					<v:ud v:nameU="visNavOrder" v:val="VT0(1121000):26"/>
				</v:userDefs>
				<v:textBlock v:margins="rect(4,4,4,4)" v:verticalAlign="0"/>
				<v:textRect cx="105.85" cy="298.802" width="211.7" height="24.0373"/>
				<rect x="0" y="286.783" width="211.7" height="24.0373" rx="4.5" ry="4.5" class="st2"/>
				<text x="4" y="301.58" class="st3" v:langID="1033"><v:paragraph/><v:tabList/>Use Privileged Access Workstations <tspan
							x="4" dy="1.35em" class="st4">(PAWs) to access the virtual machines</tspan></text>			</g>
			<g id="shape4818-11" v:mID="4818" v:groupContext="shape" v:layerMember="0">
				<title>Sheet.4818</title>
				<v:userDefs>
					<v:ud v:nameU="visNavOrder" v:prompt="" v:val="VT0(1054000):26"/>
				</v:userDefs>
				<g id="shadow4818-12" v:groupContext="shadow" v:shadowOffsetX="1.22465E-16" v:shadowOffsetY="-2" v:shadowType="1"
						v:shadowScale="1.01" transform="matrix(1.01,0,0,1.01,-0.972,0.400808)" class="st5">
					<rect x="0" y="9.01802" width="194.4" height="301.802" class="st6"/>
				</g>
				<rect x="0" y="9.01802" width="194.4" height="301.802" class="st7"/>
			</g>
			<g id="shape4819-16" v:mID="4819" v:groupContext="shape" transform="translate(9,-245.102)">
				<title>Sheet.4819</title>
				<desc>Microsoft Entra ID tenant</desc>
				<v:userDefs>
					<v:ud v:nameU="visNavOrder" v:prompt="" v:val="VT0(1055000):26"/>
				</v:userDefs>
				<v:textBlock v:margins="rect(4,4,4,0)" v:verticalAlign="0"/>
				<v:textRect cx="79.5695" cy="286.066" width="159.14" height="49.5089"/>
				<rect x="0" y="261.312" width="159.139" height="49.5089" rx="4.5" ry="4.5" class="st2"/>
				<text x="0" y="281.51" class="st8" v:langID="1033"><v:paragraph v:spAfter="6"/><v:tabList/>Microsoft Entra ID <tspan
							x="0" dy="1.2em" class="st4">tenant</tspan></text>			</g>
			<g id="shape4821-20" v:mID="4821" v:groupContext="shape" transform="translate(9,-9.0024)">
				<title>Sheet.4821</title>
				<v:userDefs>
					<v:ud v:nameU="visNavOrder" v:prompt="" v:val="VT0(1059000):26"/>
				</v:userDefs>
				<g id="shadow4821-21" v:groupContext="shadow" v:shadowOffsetX="1.22465E-16" v:shadowOffsetY="-2" v:shadowType="1"
						v:shadowScale="1.01" transform="matrix(1.01,0,0,1.01,-0.882,0.0280638)" class="st5">
					<rect x="0" y="83.5668" width="176.4" height="227.254" rx="4.5" ry="4.5" class="st6"/>
				</g>
				<rect x="0" y="83.5668" width="176.4" height="227.254" rx="4.5" ry="4.5" class="st9"/>
			</g>
			<g id="shape4822-25" v:mID="4822" v:groupContext="shape" v:layerMember="0" transform="translate(18,-208.602)">
				<title>Sheet.4822</title>
				<desc>Management group</desc>
				<v:userDefs>
					<v:ud v:nameU="visNavOrder" v:prompt="" v:val="VT0(1060000):26"/>
				</v:userDefs>
				<v:textBlock v:margins="rect(0,0,0,0)" v:verticalAlign="2"/>
				<v:textRect cx="79.2" cy="303.742" width="158.4" height="14.1574"/>
				<rect x="0" y="296.663" width="158.4" height="14.1574" class="st10"/>
				<text x="0" y="306.62" class="st11" v:langID="1033"><v:paragraph/><v:tabList/>Management group</text>			</g>
			<g id="shape4867-28" v:mID="4867" v:groupContext="shape" v:layerMember="0" transform="translate(18,-18.172)">
				<title>Sheet.4867</title>
				<v:userDefs>
					<v:ud v:nameU="visNavOrder" v:prompt="" v:val="VT0(1109000):26"/>
				</v:userDefs>
				<rect x="0" y="126.32" width="158.4" height="184.5" rx="4.5" ry="4.5" class="st12"/>
			</g>
			<g id="shape4868-30" v:mID="4868" v:groupContext="shape" v:layerMember="0" transform="translate(27,-178.001)">
				<title>Sheet.4868</title>
				<desc>Azure subscription</desc>
				<v:userDefs>
					<v:ud v:nameU="visNavOrder" v:prompt="" v:val="VT0(1110000):26"/>
				</v:userDefs>
				<v:textBlock v:margins="rect(0,0,0,0)"/>
				<v:textRect cx="63.0396" cy="303.742" width="126.08" height="14.1574"/>
				<rect x="0" y="296.663" width="126.079" height="14.1574" class="st10"/>
				<text x="0" y="307.34" class="st13" v:langID="1033"><v:paragraph/><v:tabList/>Azure subscription</text>			</g>
			<g id="shape4869-33" v:mID="4869" v:groupContext="shape" v:layerMember="0" transform="translate(27,-29.4582)">
				<title>Sheet.4869</title>
				<v:userDefs>
					<v:ud v:nameU="visNavOrder" v:prompt="" v:val="VT0(1102000):26"/>
				</v:userDefs>
				<g id="shadow4869-34" v:groupContext="shadow" v:shadowOffsetX="1.22465E-16" v:shadowOffsetY="-2" v:shadowType="1"
						v:shadowScale="1.01" transform="matrix(1.01,0,0,1.01,-0.702,-0.406204)" class="st5">
					<rect x="0" y="170.42" width="140.4" height="140.4" rx="4.5" ry="4.5" class="st6"/>
				</g>
				<rect x="0" y="170.42" width="140.4" height="140.4" rx="4.5" ry="4.5" class="st14"/>
			</g>
			<g id="shape4870-38" v:mID="4870" v:groupContext="shape" v:layerMember="0" transform="translate(33.6877,-146.162)">
				<title>Sheet.4870</title>
				<desc>Resource Group</desc>
				<v:userDefs>
					<v:ud v:nameU="visNavOrder" v:val="VT0(1103000):26"/>
				</v:userDefs>
				<v:textBlock v:margins="rect(0,0,0,0)" v:verticalAlign="0"/>
				<v:textRect cx="62.6886" cy="303.471" width="125.38" height="14.6993"/>
				<rect x="0" y="296.121" width="125.377" height="14.6993" class="st10"/>
				<text x="0" y="306.92" class="st13" v:langID="1033"><v:paragraph v:spAfter="6"/><v:tabList/>Resource Group</text>			</g>
			<g id="group4871-41" transform="translate(36.0012,-111.434)" v:mID="4871" v:groupContext="group" v:layerMember="1">
				<v:userDefs>
					<v:ud v:nameU="visNavOrder" v:prompt="" v:val="VT0(971000):26"/>
				</v:userDefs>
				<title>Virtual Machine.4748</title>
				<g id="shape4872-42" v:mID="4872" v:groupContext="shape" v:layerMember="1" transform="translate(0,-7.51714)">
					<title>Sheet.4872</title>
					<v:userDefs>
						<v:ud v:nameU="msvDisableCustomConnectionPoints" v:prompt="" v:val="VT0(1):5"/>
					</v:userDefs>
					<path d="M0 309.85 a0.900021 0.974166 -180 0 0 0.9 0.974143 L26.1 310.82 a0.900021 0.974166 -180 0 0 0.9 -0.974143
								 L27 292.31 a0.900021 0.974166 -180 0 0 -0.9 -0.974143 L0.9 291.34 a0.900021 0.974166 -180 0 0 -0.9
								 0.974143 L0 309.85 Z" class="st15"/>
				</g>
				<g id="shape4873-46" v:mID="4873" v:groupContext="shape" v:layerMember="1" transform="translate(13.5,-11.5761)">
					<title>Sheet.4873</title>
					<v:userDefs>
						<v:ud v:nameU="msvDisableCustomConnectionPoints" v:prompt="" v:val="VT0(1):5"/>
					</v:userDefs>
					<path d="M4.5 302.3 L4.5 307.96 L0 310.82 L0 305.14 L4.5 302.3 Z" class="st16"/>
				</g>
				<g id="shape4874-48" v:mID="4874" v:groupContext="shape" v:layerMember="1" transform="translate(9,-17.2423)">
					<title>Sheet.4874</title>
					<v:userDefs>
						<v:ud v:nameU="msvDisableCustomConnectionPoints" v:prompt="" v:val="VT0(1):5"/>
					</v:userDefs>
					<path d="M9 307.96 L4.5 310.82 L0 307.96 L4.5 305.12 L9 307.96 Z" class="st17"/>
				</g>
				<g id="shape4875-50" v:mID="4875" v:groupContext="shape" v:layerMember="1" transform="translate(9,-11.5761)">
					<title>Sheet.4875</title>
					<v:userDefs>
						<v:ud v:nameU="msvDisableCustomConnectionPoints" v:prompt="" v:val="VT0(1):5"/>
					</v:userDefs>
					<path d="M4.5 305.15 L4.5 310.82 L0 307.96 L0 302.3 L4.5 305.15 Z" class="st18"/>
				</g>
				<g id="shape4876-52" v:mID="4876" v:groupContext="shape" v:layerMember="1" transform="translate(9,-11.5761)">
					<title>Sheet.4876</title>
					<v:userDefs>
						<v:ud v:nameU="msvDisableCustomConnectionPoints" v:prompt="" v:val="VT0(1):5"/>
					</v:userDefs>
					<path d="M0 307.96 L4.5 305.14 L4.5 310.82 L0 307.96 Z" class="st17"/>
				</g>
				<g id="shape4877-54" v:mID="4877" v:groupContext="shape" v:layerMember="1" transform="translate(13.5,-11.5761)">
					<title>Sheet.4877</title>
					<v:userDefs>
						<v:ud v:nameU="msvDisableCustomConnectionPoints" v:prompt="" v:val="VT0(1):5"/>
					</v:userDefs>
					<path d="M4.5 307.96 L0 305.14 L0 310.82 L4.5 307.96 Z" class="st18"/>
				</g>
				<g id="shape4878-56" v:mID="4878" v:groupContext="shape" v:layerMember="1" transform="translate(6.75,5.68434E-14)">
					<title>Sheet.4878</title>
					<v:userDefs>
						<v:ud v:nameU="msvDisableCustomConnectionPoints" v:prompt="" v:val="VT0(1):5"/>
					</v:userDefs>
					<path d="M12.16 309.2 C9.5 308.74 9.39 306.66 9.39 303.3 L4.09 303.3 C4.09 306.66 4 308.74 1.33 309.2 A1.5 1.62357
								 -180 0 0 0 310.82 L13.5 310.82 A1.5 1.62357 -180 0 0 12.16 309.2 Z" class="st19"/>
				</g>
			</g>
			<g id="group4879-60" transform="translate(36.0012,-75.4337)" v:mID="4879" v:groupContext="group" v:layerMember="1">
				<v:userDefs>
					<v:ud v:nameU="visNavOrder" v:prompt="" v:val="VT0(972000):26"/>
				</v:userDefs>
				<title>Virtual Machine.4756</title>
				<g id="shape4880-61" v:mID="4880" v:groupContext="shape" v:layerMember="1" transform="translate(0,-7.51714)">
					<title>Sheet.4880</title>
					<v:userDefs>
						<v:ud v:nameU="msvDisableCustomConnectionPoints" v:prompt="" v:val="VT0(1):5"/>
					</v:userDefs>
					<path d="M0 309.85 a0.900021 0.974166 -180 0 0 0.9 0.974143 L26.1 310.82 a0.900021 0.974166 -180 0 0 0.9 -0.974143
								 L27 292.31 a0.900021 0.974166 -180 0 0 -0.9 -0.974143 L0.9 291.34 a0.900021 0.974166 -180 0 0 -0.9
								 0.974143 L0 309.85 Z" class="st15"/>
				</g>
				<g id="shape4881-64" v:mID="4881" v:groupContext="shape" v:layerMember="1" transform="translate(13.5,-11.5761)">
					<title>Sheet.4881</title>
					<v:userDefs>
						<v:ud v:nameU="msvDisableCustomConnectionPoints" v:prompt="" v:val="VT0(1):5"/>
					</v:userDefs>
					<path d="M4.5 302.3 L4.5 307.96 L0 310.82 L0 305.14 L4.5 302.3 Z" class="st16"/>
				</g>
				<g id="shape4882-66" v:mID="4882" v:groupContext="shape" v:layerMember="1" transform="translate(9,-17.2423)">
					<title>Sheet.4882</title>
					<v:userDefs>
						<v:ud v:nameU="msvDisableCustomConnectionPoints" v:prompt="" v:val="VT0(1):5"/>
					</v:userDefs>
					<path d="M9 307.96 L4.5 310.82 L0 307.96 L4.5 305.12 L9 307.96 Z" class="st17"/>
				</g>
				<g id="shape4883-68" v:mID="4883" v:groupContext="shape" v:layerMember="1" transform="translate(9,-11.5761)">
					<title>Sheet.4883</title>
					<v:userDefs>
						<v:ud v:nameU="msvDisableCustomConnectionPoints" v:prompt="" v:val="VT0(1):5"/>
					</v:userDefs>
					<path d="M4.5 305.15 L4.5 310.82 L0 307.96 L0 302.3 L4.5 305.15 Z" class="st18"/>
				</g>
				<g id="shape4884-70" v:mID="4884" v:groupContext="shape" v:layerMember="1" transform="translate(9,-11.5761)">
					<title>Sheet.4884</title>
					<v:userDefs>
						<v:ud v:nameU="msvDisableCustomConnectionPoints" v:prompt="" v:val="VT0(1):5"/>
					</v:userDefs>
					<path d="M0 307.96 L4.5 305.14 L4.5 310.82 L0 307.96 Z" class="st17"/>
				</g>
				<g id="shape4885-72" v:mID="4885" v:groupContext="shape" v:layerMember="1" transform="translate(13.5,-11.5761)">
					<title>Sheet.4885</title>
					<v:userDefs>
						<v:ud v:nameU="msvDisableCustomConnectionPoints" v:prompt="" v:val="VT0(1):5"/>
					</v:userDefs>
					<path d="M4.5 307.96 L0 305.14 L0 310.82 L4.5 307.96 Z" class="st18"/>
				</g>
				<g id="shape4886-74" v:mID="4886" v:groupContext="shape" v:layerMember="1" transform="translate(6.75,5.68434E-14)">
					<title>Sheet.4886</title>
					<v:userDefs>
						<v:ud v:nameU="msvDisableCustomConnectionPoints" v:prompt="" v:val="VT0(1):5"/>
					</v:userDefs>
					<path d="M12.16 309.2 C9.5 308.74 9.39 306.66 9.39 303.3 L4.09 303.3 C4.09 306.66 4 308.74 1.33 309.2 A1.5 1.62357
								 -180 0 0 0 310.82 L13.5 310.82 A1.5 1.62357 -180 0 0 12.16 309.2 Z" class="st19"/>
				</g>
			</g>
			<g id="group4887-77" transform="translate(36.0012,-39.4337)" v:mID="4887" v:groupContext="group" v:layerMember="1">
				<v:userDefs>
					<v:ud v:nameU="visNavOrder" v:prompt="" v:val="VT0(973000):26"/>
				</v:userDefs>
				<title>Virtual Machine.4764</title>
				<g id="shape4888-78" v:mID="4888" v:groupContext="shape" v:layerMember="1" transform="translate(0,-7.51714)">
					<title>Sheet.4888</title>
					<v:userDefs>
						<v:ud v:nameU="msvDisableCustomConnectionPoints" v:prompt="" v:val="VT0(1):5"/>
					</v:userDefs>
					<path d="M0 309.85 a0.900021 0.974166 -180 0 0 0.9 0.974143 L26.1 310.82 a0.900021 0.974166 -180 0 0 0.9 -0.974143
								 L27 292.31 a0.900021 0.974166 -180 0 0 -0.9 -0.974143 L0.9 291.34 a0.900021 0.974166 -180 0 0 -0.9
								 0.974143 L0 309.85 Z" class="st15"/>
				</g>
				<g id="shape4889-81" v:mID="4889" v:groupContext="shape" v:layerMember="1" transform="translate(13.5,-11.5761)">
					<title>Sheet.4889</title>
					<v:userDefs>
						<v:ud v:nameU="msvDisableCustomConnectionPoints" v:prompt="" v:val="VT0(1):5"/>
					</v:userDefs>
					<path d="M4.5 302.3 L4.5 307.96 L0 310.82 L0 305.14 L4.5 302.3 Z" class="st16"/>
				</g>
				<g id="shape4890-83" v:mID="4890" v:groupContext="shape" v:layerMember="1" transform="translate(9,-17.2423)">
					<title>Sheet.4890</title>
					<v:userDefs>
						<v:ud v:nameU="msvDisableCustomConnectionPoints" v:prompt="" v:val="VT0(1):5"/>
					</v:userDefs>
					<path d="M9 307.96 L4.5 310.82 L0 307.96 L4.5 305.12 L9 307.96 Z" class="st17"/>
				</g>
				<g id="shape4891-85" v:mID="4891" v:groupContext="shape" v:layerMember="1" transform="translate(9,-11.5761)">
					<title>Sheet.4891</title>
					<v:userDefs>
						<v:ud v:nameU="msvDisableCustomConnectionPoints" v:prompt="" v:val="VT0(1):5"/>
					</v:userDefs>
					<path d="M4.5 305.15 L4.5 310.82 L0 307.96 L0 302.3 L4.5 305.15 Z" class="st18"/>
				</g>
				<g id="shape4892-87" v:mID="4892" v:groupContext="shape" v:layerMember="1" transform="translate(9,-11.5761)">
					<title>Sheet.4892</title>
					<v:userDefs>
						<v:ud v:nameU="msvDisableCustomConnectionPoints" v:prompt="" v:val="VT0(1):5"/>
					</v:userDefs>
					<path d="M0 307.96 L4.5 305.14 L4.5 310.82 L0 307.96 Z" class="st17"/>
				</g>
				<g id="shape4893-89" v:mID="4893" v:groupContext="shape" v:layerMember="1" transform="translate(13.5,-11.5761)">
					<title>Sheet.4893</title>
					<v:userDefs>
						<v:ud v:nameU="msvDisableCustomConnectionPoints" v:prompt="" v:val="VT0(1):5"/>
					</v:userDefs>
					<path d="M4.5 307.96 L0 305.14 L0 310.82 L4.5 307.96 Z" class="st18"/>
				</g>
				<g id="shape4894-91" v:mID="4894" v:groupContext="shape" v:layerMember="1" transform="translate(6.75,5.68434E-14)">
					<title>Sheet.4894</title>
					<v:userDefs>
						<v:ud v:nameU="msvDisableCustomConnectionPoints" v:prompt="" v:val="VT0(1):5"/>
					</v:userDefs>
					<path d="M12.16 309.2 C9.5 308.74 9.39 306.66 9.39 303.3 L4.09 303.3 C4.09 306.66 4 308.74 1.33 309.2 A1.5 1.62357
								 -180 0 0 0 310.82 L13.5 310.82 A1.5 1.62357 -180 0 0 12.16 309.2 Z" class="st19"/>
				</g>
			</g>
			<g id="shape4895-94" v:mID="4895" v:groupContext="shape" v:layerMember="0" transform="translate(73.1323,-115.934)">
				<title>Sheet.4895</title>
				<desc>Virtual machine</desc>
				<v:userDefs>
					<v:ud v:nameU="visNavOrder" v:prompt="" v:val="VT0(876000):26"/>
				</v:userDefs>
				<v:textBlock v:margins="rect(0,0,0,0)"/>
				<v:textRect cx="43.8677" cy="301.82" width="87.74" height="18"/>
				<rect x="0" y="292.82" width="87.7353" height="18" rx="4.5" ry="4.5" class="st10"/>
				<text x="0" y="305.42" class="st3" v:langID="1033"><v:paragraph v:spAfter="6"/><v:tabList/>Virtual machine</text>			</g>
			<g id="shape4896-97" v:mID="4896" v:groupContext="shape" v:layerMember="0" transform="translate(73.1323,-79.9337)">
				<title>Sheet.4896</title>
				<desc>Virtual machine</desc>
				<v:userDefs>
					<v:ud v:nameU="visNavOrder" v:prompt="" v:val="VT0(974000):26"/>
				</v:userDefs>
				<v:textBlock v:margins="rect(0,0,0,0)"/>
				<v:textRect cx="43.8677" cy="301.82" width="87.74" height="18"/>
				<rect x="0" y="292.82" width="87.7353" height="18" rx="4.5" ry="4.5" class="st10"/>
				<text x="0" y="305.42" class="st3" v:langID="1033"><v:paragraph v:spAfter="6"/><v:tabList/>Virtual machine</text>			</g>
			<g id="shape4897-100" v:mID="4897" v:groupContext="shape" v:layerMember="0" transform="translate(73.1323,-43.9337)">
				<title>Sheet.4897</title>
				<desc>Virtual machine</desc>
				<v:userDefs>
					<v:ud v:nameU="visNavOrder" v:prompt="" v:val="VT0(975000):26"/>
				</v:userDefs>
				<v:textBlock v:margins="rect(0,0,0,0)"/>
				<v:textRect cx="43.8677" cy="301.82" width="87.74" height="18"/>
				<rect x="0" y="292.82" width="87.7353" height="18" rx="4.5" ry="4.5" class="st10"/>
				<text x="0" y="305.42" class="st3" v:langID="1033"><v:paragraph v:spAfter="6"/><v:tabList/>Virtual machine</text>			</g>
			<g id="shape4930-103" v:mID="4930" v:groupContext="shape" v:layerMember="2" transform="translate(164.338,-271.521)">
				<title>Dynamic connector.4930</title>
				<v:userDefs>
					<v:ud v:nameU="visNavOrder" v:val="VT0(1120000):26"/>
				</v:userDefs>
				<path d="M0 301.82 L63 301.82" class="st20"/>
			</g>
			<g id="shape4934-109" v:mID="4934" v:groupContext="shape" v:layerMember="2" transform="translate(164.338,-115.934)">
				<title>Dynamic connector.4934</title>
				<v:userDefs>
					<v:ud v:nameU="visNavOrder" v:val="VT0(1123000):26"/>
				</v:userDefs>
				<path d="M0 301.82 L63 301.82" class="st20"/>
			</g>
			<g id="group4967-114" transform="translate(234.088,-93.5439)" v:mID="4967" v:groupContext="group">
				<v:userDefs>
					<v:ud v:nameU="visNavOrder" v:val="VT0(1138000):26"/>
				</v:userDefs>
				<title>Sheet.4967</title>
				<g id="shape4937-115" v:mID="4937" v:groupContext="shape" v:layerMember="3;4;5"
						transform="translate(5.29196,5.68434E-14)">
					<title>Sheet.4937</title>
					<desc>Admin</desc>
					<v:userDefs>
						<v:ud v:nameU="visNavOrder" v:prompt="" v:val="VT0(1124000):26"/>
					</v:userDefs>
					<v:textBlock v:margins="rect(4,4,4,4)"/>
					<v:textRect cx="24.5588" cy="303.995" width="49.12" height="13.6506"/>
					<rect x="0" y="297.17" width="49.1176" height="13.6506" rx="4.5" ry="4.5" class="st2"/>
					<text x="7.14" y="307.6" class="st3" v:langID="1033"><v:paragraph v:spAfter="6" v:horizAlign="1"/><v:tabList/>Admin</text>				</g>
				<g id="group4938-118" transform="translate(-1.57874E-13,-17.8898)" v:mID="4938" v:groupContext="group">
					<v:userDefs>
						<v:ud v:nameU="visNavOrder" v:val="VT0(1125000):26"/>
					</v:userDefs>
					<title>Sheet.4938</title>
					<g id="shape4939-119" v:mID="4939" v:groupContext="shape" v:layerMember="1">
						<title>Sheet.4939</title>
						<v:userDefs>
							<v:ud v:nameU="visNavOrder" v:prompt="" v:val="VT0(112000):26"/>
						</v:userDefs>
						<path d="M22.33 310.82 A2.175 2.175 -180 0 0 24.51 308.65 a0.705 0.705 -180 0 0 4.26326E-14 -0.255 C23.64
									 301.54 19.75 295.96 12.25 295.96 C4.75 295.96 0.76 300.68 0 308.41 A2.19 2.19 -180 0 0 1.96
									 310.82 L22.33 310.82 Z" class="st22"/>
					</g>
					<g id="shape4940-123" v:mID="4940" v:groupContext="shape" v:layerMember="1" transform="translate(8.535,-4.71)">
						<title>Sheet.4940</title>
						<v:userDefs>
							<v:ud v:nameU="visNavOrder" v:prompt="" v:val="VT0(113000):26"/>
						</v:userDefs>
						<path d="M3.72 302.29 A6.885 6.885 0 0 1 0 301.19 L3.72 310.82 L7.38 301.25 A6.795 6.795 0 0 1 3.72 302.29
									 Z" class="st23"/>
					</g>
					<g id="shape4941-125" v:mID="4941" v:groupContext="shape" v:layerMember="1" transform="translate(5.4,-13.26)">
						<title>Sheet.4941</title>
						<v:userDefs>
							<v:ud v:nameU="visNavOrder" v:prompt="" v:val="VT0(114000):26"/>
						</v:userDefs>
						<ellipse cx="6.87" cy="303.95" rx="6.87" ry="6.87" class="st24"/>
					</g>
				</g>
				<g id="group4943-129" transform="translate(35.1799,-19.4348)" v:mID="4943" v:groupContext="group">
					<v:userDefs>
						<v:ud v:nameU="visNavOrder" v:val="VT0(1127000):26"/>
					</v:userDefs>
					<title>Icon-intune-332</title>
					<g id="shape4944-130" v:mID="4944" v:groupContext="shape" transform="translate(-1.35891E-13,-6.105)">
						<title>Sheet.4944</title>
						<path d="M0 309.92 a0.900021 0.900021 -180 0 0 0.9 0.9 L24.12 310.82 a0.900021 0.900021 -180 0 0 0.9 -0.9
									 L25.02 293.92 a0.900021 0.900021 -180 0 0 -0.9 -0.9 L0.9 293.02 a0.900021 0.900021 -180 0 0
									 -0.9 0.9 L0 309.92 Z" class="st25"/>
					</g>
					<g id="shape4945-132" v:mID="4945" v:groupContext="shape" transform="translate(1.455,-7.515)">
						<title>Sheet.4945</title>
						<path d="M0 310.37 a0.45001 0.45001 -180 0 0 0.45 0.45 L21.66 310.82 a0.45001 0.45001 -180 0 0 0.45 -0.45
									 L22.11 296.12 a0.45001 0.45001 -180 0 0 -0.45 -0.45 L0.45 295.67 a0.45001 0.45001 -180 0 0 -0.45
									 0.45 L0 310.37 Z" class="st26"/>
					</g>
					<g id="shape4946-136" v:mID="4946" v:groupContext="shape" transform="translate(15.45,1.7053E-13)">
						<title>Sheet.4946</title>
						<path d="M0 310.37 a0.45001 0.45001 -180 0 0 0.45 0.45 L11.1 310.82 a0.45001 0.45001 -180 0 0 0.45 -0.45
									 L11.55 292 a0.45001 0.45001 -180 0 0 -0.45 -0.45 L0.45 291.55 a0.45001 0.45001 -180 0 0 -0.45
									 0.45 L0 310.37 Z" class="st27"/>
					</g>
					<g id="shape4947-140" v:mID="4947" v:groupContext="shape" transform="translate(19.905,-18.27)">
						<title>Sheet.4947</title>
						<path d="M0 310.66 a0.165004 0.165004 -180 0 0 0.165 0.165 L2.49 310.82 a0.165004 0.165004 -180 0 0 0.165
									 -0.165 L2.65 310.63 a0.165004 0.165004 -180 0 0 -0.165 -0.165 L0.16 310.46 a0.165004 0.165004
									 -180 0 0 -0.165 0.165 L0 310.66 Z" class="st28"/>
					</g>
					<g id="shape4948-142" v:mID="4948" v:groupContext="shape" transform="translate(16.545,-2.16)">
						<title>Sheet.4948</title>
						<path d="M0 310.61 a0.210005 0.210005 -180 0 0 0.21 0.21 L9.16 310.82 a0.210005 0.210005 -180 0 0 0.21 -0.21
									 L9.37 295.54 a0.210005 0.210005 -180 0 0 -0.21 -0.21 L0.21 295.33 a0.210005 0.210005 -180 0
									 0 -0.21 0.21 L0 310.61 Z" class="st29"/>
					</g>
					<g id="shape4949-144" v:mID="4949" v:groupContext="shape" transform="translate(11.22,-22.995)">
						<title>Sheet.4949</title>
						<path d="M0 310.66 a0.165004 0.165004 -180 0 0 0.165 0.165 L2.49 310.82 a0.165004 0.165004 -180 0 0 0.165
									 -0.165 L2.65 310.63 a0.165004 0.165004 -180 0 0 -0.165 -0.165 L0.16 310.46 a0.165004 0.165004
									 -180 0 0 -0.165 0.165 L0 310.66 Z" class="st28"/>
					</g>
					<g id="shape4950-146" v:mID="4950" v:groupContext="shape" transform="translate(20.58,-0.42)">
						<title>Sheet.4950</title>
						<path d="M0 310.52 a0.300007 0.300007 -180 0 0 0.3 0.3 L0.99 310.82 a0.300007 0.300007 -180 0 0 0.3 -0.3
									 L1.29 310.03 a0.300007 0.300007 -180 0 0 -0.3 -0.3 L0.3 309.73 a0.300007 0.300007 -180 0 0 -0.3
									 0.3 L0 310.52 Z" class="st28"/>
					</g>
				</g>
			</g>
		</g>
	</g>
</svg>
