<?xml version="1.0" encoding="UTF-8" standalone="no"?>
<!DOCTYPE svg PUBLIC "-//W3C//DTD SVG 1.1//EN" "http://www.w3.org/Graphics/SVG/1.1/DTD/svg11.dtd">
<!-- Generated by Microsoft Visio, SVG Export azure-infra-vm-subscription-architecture-2.svg Page-1 -->
<svg xmlns="http://www.w3.org/2000/svg" xmlns:xlink="http://www.w3.org/1999/xlink" xmlns:ev="http://www.w3.org/2001/xml-events"
		xmlns:v="http://schemas.microsoft.com/visio/2003/SVGExtensions/" width="6.97615in" height="3.28903in"
		viewBox="0 0 502.283 236.81" xml:space="preserve" color-interpolation-filters="sRGB" class="st29">
	<v:documentProperties v:langID="1033" v:viewMarkup="false"/>

	<style type="text/css">
	<![CDATA[
		.st1 {fill:#ffffff;stroke:none;stroke-width:1}
		.st2 {visibility:visible}
		.st3 {fill:#000000;fill-opacity:0.15;filter:url(#filter_2);stroke:none}
		.st4 {fill:#e6e6e6;stroke:none;stroke-width:1}
		.st5 {fill:none;stroke:none;stroke-width:0.25}
		.st6 {fill:#000000;font-family:Segoe UI Semibold;font-size:1.00001em}
		.st7 {fill:#000000;font-family:Segoe UI;font-size:1.00001em}
		.st8 {font-size:1em}
		.st9 {fill:#0078d4;stroke:none;stroke-width:0.25}
		.st10 {fill:url(#grad0-45);stroke:none;stroke-width:0.75}
		.st11 {fill:#ffffff;stroke:none;stroke-width:0.75}
		.st12 {fill:#0078d4;stroke:none;stroke-width:0.75}
		.st13 {fill:#83b9f9;stroke:none;stroke-width:0.75}
		.st14 {fill:#5ea0ef;stroke:none;stroke-width:0.75}
		.st15 {fill:#83b9f9;fill-opacity:0.2;stroke:none;stroke-width:0.75}
		.st16 {fill:#5ea0ef;fill-opacity:0.2;stroke:none;stroke-width:0.75}
		.st17 {fill:url(#grad0-61);stroke:none;stroke-width:0.75}
		.st18 {fill:#76bc2d;stroke:none;stroke-width:0.75}
		.st19 {fill:#5e9624;stroke:none;stroke-width:0.75}
		.st20 {fill:url(#grad0-79);stroke:none;stroke-width:0.75}
		.st21 {fill:#005ba1;stroke:none;stroke-width:0.75}
		.st22 {fill:#0078d4;stroke:none;stroke-width:1}
		.st23 {fill:#ffffff;font-family:Segoe UI;font-size:1.16666em}
		.st24 {marker-end:url(#mrkr1-104);stroke:#0078d4;stroke-linecap:round;stroke-linejoin:round;stroke-width:1}
		.st25 {fill:#0078d4;fill-opacity:1;stroke:#0078d4;stroke-opacity:1;stroke-width:0.20161290322581}
		.st26 {fill:none;stroke:none;stroke-width:1}
		.st27 {fill:#2f2f2f;font-family:Segoe UI;font-size:1.00001em}
		.st28 {fill:none;stroke:#0078d4;stroke-width:1}
		.st29 {fill:none;fill-rule:evenodd;font-size:12px;overflow:visible;stroke-linecap:square;stroke-miterlimit:3}
	]]>
	</style>

	<defs id="Patterns_And_Gradients">
		<linearGradient id="grad0-45" x1="0" y1="0" x2="1" y2="0" gradientTransform="rotate(-90 0.5 0.5)">
			<stop offset="0" stop-color="#0078d4" stop-opacity="1"/>
			<stop offset="0.82" stop-color="#5ea0ef" stop-opacity="1"/>
		</linearGradient>
		<linearGradient id="grad0-61" x1="0" y1="0" x2="1" y2="0" gradientTransform="rotate(-90 0.5 0.5)">
			<stop offset="0" stop-color="#1490df" stop-opacity="1"/>
			<stop offset="0.98" stop-color="#1f56a3" stop-opacity="1"/>
		</linearGradient>
		<linearGradient id="grad0-79" x1="0" y1="0" x2="1" y2="0" gradientTransform="rotate(76.639598616806 0.5 0.5)">
			<stop offset="0" stop-color="#0078d4" stop-opacity="1"/>
			<stop offset="0.02" stop-color="#0d7ed8" stop-opacity="1"/>
			<stop offset="0.08" stop-color="#2b8ae0" stop-opacity="1"/>
			<stop offset="0.15" stop-color="#4194e7" stop-opacity="1"/>
			<stop offset="0.22" stop-color="#519beb" stop-opacity="1"/>
			<stop offset="0.29" stop-color="#5b9fee" stop-opacity="1"/>
			<stop offset="0.4" stop-color="#5ea0ef" stop-opacity="1"/>
			<stop offset="0.55" stop-color="#5b9fee" stop-opacity="1"/>
			<stop offset="0.68" stop-color="#509aeb" stop-opacity="1"/>
			<stop offset="0.8" stop-color="#3f92e6" stop-opacity="1"/>
			<stop offset="0.91" stop-color="#2688df" stop-opacity="1"/>
			<stop offset="0.99" stop-color="#127fd9" stop-opacity="1"/>
		</linearGradient>
	</defs>
	<defs id="Markers">
		<g id="lend1">
			<path d="M 1 -1 L 0 0 L 1 1 " style="stroke-linecap:round;stroke-linejoin:round;fill:none"/>
		</g>
		<marker id="mrkr1-104" class="st25" v:arrowType="1" v:arrowSize="4" orient="auto" markerUnits="strokeWidth"
				overflow="visible">
			<use xlink:href="#lend1" transform="scale(-4.96,-4.96) "/>
		</marker>
	</defs>
	<defs id="Filters">
		<filter id="filter_2">
			<feGaussianBlur stdDeviation="2"/>
		</filter>
	</defs>
	<g v:mID="0" v:index="1" v:groupContext="foregroundPage">
		<v:userDefs>
			<v:ud v:nameU="visNavType" v:val="VT0(1):26"/>
		</v:userDefs>
		<title>Page-1</title>
		<v:pageProperties v:drawingScale="1" v:pageScale="1" v:drawingUnits="19" v:shadowOffsetX="9" v:shadowOffsetY="-9"/>
		<v:layer v:name="symbols" v:index="0" v:glue="false"/>
		<v:layer v:name="Connector" v:index="1" v:glue="false"/>
		<g id="group4978-1" transform="translate(3.94502,-5.28956)" v:mID="4978" v:groupContext="group">
			<v:userDefs>
				<v:ud v:nameU="visNavOrder" v:val="VT0(1140000):26"/>
			</v:userDefs>
			<title>Sheet.4978</title>
			<g id="shape4961-2" v:mID="4961" v:groupContext="shape">
				<title>Sheet.4961</title>
				<v:userDefs>
					<v:ud v:nameU="visNavOrder" v:prompt="" v:val="VT0(1132000):26"/>
				</v:userDefs>
				<rect x="0" y="7.43219" width="493.038" height="229.378" rx="4.5" ry="4.5" class="st1"/>
			</g>
			<g id="group4965-4" transform="translate(9.59233E-14,-0.853051)" v:mID="4965" v:groupContext="group">
				<v:userDefs>
					<v:ud v:nameU="visNavOrder" v:val="VT0(1136000):26"/>
				</v:userDefs>
				<title>Sheet.4965</title>
				<g id="shape4355-5" v:mID="4355" v:groupContext="shape" v:layerMember="0">
					<title>Sheet.4355</title>
					<v:userDefs>
						<v:ud v:nameU="visNavOrder" v:prompt="" v:val="VT0(990000):26"/>
					</v:userDefs>
					<g id="shadow4355-6" v:groupContext="shadow" v:shadowOffsetX="1.22465E-16" v:shadowOffsetY="-2"
							v:shadowType="1" v:shadowScale="1.01" transform="matrix(1.01,0,0,1.01,-0.945,0.774525)" class="st2">
						<rect x="0" y="8.28524" width="189" height="228.525" rx="4.5" ry="4.5" class="st3"/>
					</g>
					<rect x="0" y="8.28524" width="189" height="228.525" rx="4.5" ry="4.5" class="st4"/>
				</g>
				<g id="shape4356-10" v:mID="4356" v:groupContext="shape" v:layerMember="0" transform="translate(9.00116,-204.828)">
					<title>Sheet.4356</title>
					<desc>Resource Group</desc>
					<v:userDefs>
						<v:ud v:nameU="visNavOrder" v:val="VT0(992000):26"/>
					</v:userDefs>
					<v:textBlock v:margins="rect(0,0,0,0)" v:verticalAlign="0"/>
					<v:textRect cx="84.3744" cy="229.46" width="168.75" height="14.6993"/>
					<rect x="0" y="222.111" width="168.749" height="14.6993" class="st5"/>
					<text x="0" y="232.91" class="st6" v:langID="1033"><v:paragraph v:spAfter="6"/><v:tabList/>Resource Group</text>				</g>
				<g id="shape4357-13" v:mID="4357" v:groupContext="shape" v:layerMember="0" transform="translate(9,-9.5625)">
					<title>Sheet.4357</title>
					<v:userDefs>
						<v:ud v:nameU="visNavOrder" v:prompt="" v:val="VT0(874000):26"/>
					</v:userDefs>
					<g id="shadow4357-14" v:groupContext="shadow" v:shadowOffsetX="1.22465E-16" v:shadowOffsetY="-2"
							v:shadowType="1" v:shadowScale="1.01" transform="matrix(1.01,0,0,1.01,-0.855,0.569589)" class="st2">
						<rect x="0" y="49.2723" width="171" height="187.538" rx="4.5" ry="4.5" class="st3"/>
					</g>
					<rect x="0" y="49.2723" width="171" height="187.538" rx="4.5" ry="4.5" class="st1"/>
				</g>
				<g id="shape4358-18" v:mID="4358" v:groupContext="shape" v:layerMember="0" transform="translate(18.5628,-175.203)">
					<title>Sheet.4358</title>
					<desc>Virtual machine</desc>
					<v:userDefs>
						<v:ud v:nameU="visNavOrder" v:val="VT0(879000):26"/>
					</v:userDefs>
					<v:textBlock v:margins="rect(0,0,0,0)" v:verticalAlign="0"/>
					<v:textRect cx="78.9186" cy="229.46" width="157.84" height="14.6993"/>
					<rect x="0" y="222.111" width="157.837" height="14.6993" class="st5"/>
					<text x="0" y="232.91" class="st6" v:langID="1033"><v:paragraph v:spAfter="6"/><v:tabList/>Virtual machine</text>				</g>
				<g id="shape4359-21" v:mID="4359" v:groupContext="shape" v:layerMember="0" transform="translate(55.6939,-144.974)">
					<title>Sheet.4359</title>
					<desc>Applications</desc>
					<v:userDefs>
						<v:ud v:nameU="visNavOrder" v:prompt="" v:val="VT0(876000):26"/>
					</v:userDefs>
					<v:textBlock v:margins="rect(0,0,0,0)"/>
					<v:textRect cx="49.103" cy="227.81" width="98.21" height="18"/>
					<rect x="0" y="218.81" width="98.2061" height="18" rx="4.5" ry="4.5" class="st5"/>
					<text x="0" y="231.41" class="st7" v:langID="1033"><v:paragraph v:spAfter="6"/><v:tabList/>Applications</text>				</g>
				<g id="shape4360-24" v:mID="4360" v:groupContext="shape" v:layerMember="0" transform="translate(55.6939,-108.974)">
					<title>Sheet.4360</title>
					<desc>Operating system</desc>
					<v:userDefs>
						<v:ud v:nameU="visNavOrder" v:prompt="" v:val="VT0(974000):26"/>
					</v:userDefs>
					<v:textBlock v:margins="rect(0,0,0,0)"/>
					<v:textRect cx="49.103" cy="227.81" width="98.21" height="18"/>
					<rect x="0" y="218.81" width="98.2061" height="18" rx="4.5" ry="4.5" class="st5"/>
					<text x="0" y="231.41" class="st7" v:langID="1033"><v:paragraph v:spAfter="6"/><v:tabList/>Operating system</text>				</g>
				<g id="shape4361-27" v:mID="4361" v:groupContext="shape" v:layerMember="0" transform="translate(55.6939,-72.9741)">
					<title>Sheet.4361</title>
					<desc>Disks</desc>
					<v:userDefs>
						<v:ud v:nameU="visNavOrder" v:prompt="" v:val="VT0(975000):26"/>
					</v:userDefs>
					<v:textBlock v:margins="rect(0,0,0,0)"/>
					<v:textRect cx="49.103" cy="227.81" width="98.21" height="18"/>
					<rect x="0" y="218.81" width="98.2061" height="18" rx="4.5" ry="4.5" class="st5"/>
					<text x="0" y="231.41" class="st7" v:langID="1033"><v:paragraph v:spAfter="6"/><v:tabList/>Disks</text>				</g>
				<g id="shape4362-30" v:mID="4362" v:groupContext="shape" v:layerMember="0" transform="translate(18.8964,-18.072)">
					<title>Sheet.4362</title>
					<desc>Boot loaders OS Kernel Drivers</desc>
					<v:userDefs>
						<v:ud v:nameU="visNavOrder" v:prompt="" v:val="VT0(1001000):26"/>
					</v:userDefs>
					<v:textBlock v:margins="rect(0,0,0,0)" v:verticalAlign="0"/>
					<v:textRect cx="36" cy="216.109" width="72" height="41.4021"/>
					<rect x="0" y="195.408" width="72" height="41.4021" rx="4.5" ry="4.5" class="st5"/>
					<text x="0" y="206.21" class="st7" v:langID="1033"><v:paragraph/><v:tabList/>Boot loaders<v:newlineChar/><tspan
								x="0" dy="1.2em" class="st8">OS Kernel<v:newlineChar/></tspan><tspan x="0" dy="1.2em" class="st8">Drivers</tspan></text>				</g>
				<g id="shape4363-35" v:mID="4363" v:groupContext="shape" v:layerMember="0" transform="translate(99,-29.7731)">
					<title>Sheet.4363</title>
					<desc>TPM</desc>
					<v:userDefs>
						<v:ud v:nameU="visNavOrder" v:prompt="" v:val="VT0(1002000):26"/>
					</v:userDefs>
					<v:textBlock v:margins="rect(0,0,0,0)"/>
					<v:textRect cx="36" cy="227.81" width="72" height="18"/>
					<rect x="0" y="218.81" width="72" height="18" rx="4.5" ry="4.5" class="st5"/>
					<text x="24.11" y="231.41" class="st7" v:langID="1033"><v:paragraph v:spAfter="6" v:horizAlign="1"/><v:tabList/>TPM</text>				</g>
				<g id="group4364-38" transform="translate(18.5628,-140.474)" v:mID="4364" v:groupContext="group">
					<v:userDefs>
						<v:ud v:nameU="visNavOrder" v:val="VT0(1003000):26"/>
					</v:userDefs>
					<title>Apps Blue</title>
					<g id="shape4365-39" v:mID="4365" v:groupContext="shape">
						<title>Sheet.4365</title>
						<path d="M13.35 220.65 L16.16 223.46 L13.35 223.46 L13.35 220.65 ZM17.04 210.98 L13.35 214.66 L13.35 214.49
									 C13.35 212.84 12.02 211.51 10.37 211.51 L2.99 211.51 C1.34 211.51 0 212.84 0 214.49 L0 233.82
									 C0 235.47 1.34 236.81 2.99 236.81 L22.32 236.81 C23.97 236.81 25.3 235.47 25.3 233.82 L25.3
									 226.44 C25.3 224.79 23.97 223.46 22.32 223.46 L22.15 223.46 L25.83 219.77 C27 218.6 27 216.71
									 25.83 215.54 L21.26 210.98 C20.1 209.81 18.21 209.81 17.04 210.98 ZM19.18 225.21 L22.32 225.21
									 C22.99 225.21 23.55 225.76 23.55 226.44 L23.55 233.82 C23.55 234.5 22.99 235.05 22.32 235.05
									 L13.35 235.05 L13.35 225.21 L19.12 225.21 C19.14 225.21 19.16 225.21 19.18 225.21 ZM2.99 213.26
									 L10.37 213.26 C11.05 213.26 11.6 213.81 11.6 214.49 L11.6 223.46 L1.76 223.46 L1.76 214.49 C1.76
									 213.81 2.31 213.26 2.99 213.26 ZM11.6 225.21 L11.6 235.05 L2.99 235.05 C2.31 235.05 1.76 234.5
									 1.76 233.82 L1.76 225.21 L11.6 225.21 Z" class="st9"/>
					</g>
				</g>
				<g id="group4366-41" transform="translate(18.5628,-105.502)" v:mID="4366" v:groupContext="group">
					<v:userDefs>
						<v:ud v:nameU="visNavOrder" v:val="VT0(1004000):26"/>
					</v:userDefs>
					<title>Icon-compute-27</title>
					<g id="shape4367-42" v:mID="4367" v:groupContext="shape" transform="translate(0,-6.945)">
						<title>Sheet.4367</title>
						<path d="M0 235.91 a0.900021 0.900021 -180 0 0 0.9 0.9 L26.1 236.81 a0.900021 0.900021 -180 0 0 0.9 -0.9
									 L27 219.71 a0.900021 0.900021 -180 0 0 -0.9 -0.9 L0.9 218.81 a0.900021 0.900021 -180 0 0 -0.9
									 0.9 L0 235.91 Z" class="st10"/>
					</g>
					<g id="shape4368-46" v:mID="4368" v:groupContext="shape" transform="translate(1.5,-8.445)">
						<title>Sheet.4368</title>
						<path d="M0 236.31 a0.495011 0.495011 -180 0 0 0.495 0.495 L23.51 236.81 a0.495011 0.495011 -180 0 0 0.495
									 -0.495 L24 222.3 a0.495011 0.495011 -180 0 0 -0.495 -0.495 L0.5 221.81 a0.495011 0.495011 -180
									 0 0 -0.495 0.495 L0 236.31 Z" class="st11"/>
					</g>
					<g id="shape4369-48" v:mID="4369" v:groupContext="shape" transform="translate(13.5,-10.695)">
						<title>Sheet.4369</title>
						<path d="M4.5 228.93 L4.5 234.17 L0 236.81 L0 231.56 L4.5 228.93 Z" class="st12"/>
					</g>
					<g id="shape4370-50" v:mID="4370" v:groupContext="shape" transform="translate(9,-15.93)">
						<title>Sheet.4370</title>
						<path d="M9 234.17 L4.5 236.81 L0 234.17 L4.5 231.54 L9 234.17 Z" class="st13"/>
					</g>
					<g id="shape4371-52" v:mID="4371" v:groupContext="shape" transform="translate(9,-10.695)">
						<title>Sheet.4371</title>
						<path d="M4.5 231.57 L4.5 236.81 L0 234.17 L0 228.93 L4.5 231.57 Z" class="st14"/>
					</g>
					<g id="shape4372-54" v:mID="4372" v:groupContext="shape" transform="translate(9,-10.695)">
						<title>Sheet.4372</title>
						<path d="M0 234.17 L4.5 231.56 L4.5 236.81 L0 234.17 Z" class="st15"/>
					</g>
					<g id="shape4373-56" v:mID="4373" v:groupContext="shape" transform="translate(13.5,-10.695)">
						<title>Sheet.4373</title>
						<path d="M4.5 234.17 L0 231.56 L0 236.81 L4.5 234.17 Z" class="st16"/>
					</g>
					<g id="shape4374-58" v:mID="4374" v:groupContext="shape" transform="translate(6.75,2.84217E-14)">
						<title>Sheet.4374</title>
						<path d="M12.16 235.31 C9.49 234.89 9.39 232.97 9.39 229.86 L4.09 229.86 C4.09 232.97 4 234.89 1.33 235.31
									 A1.5 1.5 -180 0 0 -0 236.81 L13.5 236.81 A1.5 1.5 -180 0 0 12.16 235.31 Z" class="st17"/>
					</g>
					<g id="shape4375-62" v:mID="4375" v:groupContext="shape" transform="translate(3.285,-17.34)">
						<title>Sheet.4375</title>
						<path d="M4.62 231.75 L0.9 231.75 a0.885 0.885 -180 0 0 -0.9 0.885 L0 236.36 a0.45 0.45 -180 0 0 0.45 0.45
									 L0.75 236.81 a0.45 0.45 -180 0 0 0.45 -0.45 L1.2 232.92 L4.62 232.92 a0.45 0.45 -180 0 0 0.45
									 -0.45 L5.07 232.19 a0.45 0.45 -180 0 0 -0.45 -0.435 Z" class="st14"/>
					</g>
					<g id="shape4376-64" v:mID="4376" v:groupContext="shape" transform="translate(3.285,-9.51)">
						<title>Sheet.4376</title>
						<path d="M4.62 235.62 L1.19 235.62 L1.19 232.2 a0.45 0.45 -180 0 0 -0.45 -0.45 L0.45 231.75 a0.45 0.45 -180
									 0 0 -0.45 0.45 L0 235.92 a0.885 0.885 -180 0 0 0.9 0.885 L4.62 236.81 a0.45 0.45 -180 0 0 0.45
									 -0.435 L5.07 236.07 a0.45 0.45 -180 0 0 -0.45 -0.45 Z" class="st14"/>
					</g>
					<g id="shape4377-66" v:mID="4377" v:groupContext="shape" transform="translate(18.645,-17.31)">
						<title>Sheet.4377</title>
						<path d="M4.11 231.75 L0.45 231.75 a0.435 0.435 -180 0 0 -0.45 0.45 L0 232.49 a0.435 0.435 -180 0 0 0.45
									 0.435 L3.87 232.92 L3.87 236.37 a0.435 0.435 -180 0 0 0.45 0.435 L4.62 236.81 a0.435 0.435 -180
									 0 0 0.435 -0.435 L5.05 232.65 a0.885 0.885 -180 0 0 -0.945 -0.9 Z" class="st14"/>
					</g>
					<g id="shape4378-68" v:mID="4378" v:groupContext="shape" transform="translate(18.645,-9.465)">
						<title>Sheet.4378</title>
						<path d="M4.62 231.74 L4.34 231.74 a0.45 0.45 -180 0 0 -0.45 0.45 L3.88 235.61 L0.45 235.61 a0.435 0.435
									 -180 0 0 -0.45 0.45 L0 236.36 a0.45 0.45 -180 0 0 0.45 0.45 L4.11 236.81 a0.885 0.885 -180 0
									 0 0.885 -0.9 L4.99 232.19 a0.45 0.45 -180 0 0 -0.375 -0.45 Z" class="st14"/>
					</g>
				</g>
				<g id="group4379-70" transform="translate(20.0178,-70.2255)" v:mID="4379" v:groupContext="group">
					<v:userDefs>
						<v:ud v:nameU="visNavOrder" v:val="VT0(1005000):26"/>
					</v:userDefs>
					<title>Icon-compute-32</title>
					<g id="shape4380-71" v:mID="4380" v:groupContext="shape" transform="translate(0,-2.6909)">
						<title>Sheet.4380</title>
						<ellipse cx="12.013" cy="231.877" rx="12.013" ry="4.93332" class="st18"/>
					</g>
					<g id="shape4381-73" v:mID="4381" v:groupContext="shape" transform="translate(8.32899,-6.5831)">
						<title>Sheet.4381</title>
						<ellipse cx="3.9883" cy="235.721" rx="3.9883" ry="1.08918" class="st19"/>
					</g>
					<g id="shape4382-75" v:mID="4382" v:groupContext="shape" transform="translate(22.248,-5.0935)">
						<title>Sheet.4382</title>
					</g>
					<g id="shape4383-76" v:mID="4383" v:groupContext="shape" transform="translate(0,-13.6307)">
						<title>Sheet.4383</title>
						<ellipse cx="12.013" cy="231.877" rx="12.013" ry="4.93332" class="st20"/>
					</g>
					<g id="shape4384-80" v:mID="4384" v:groupContext="shape" transform="translate(8.32899,-17.5389)">
						<title>Sheet.4384</title>
						<ellipse cx="3.9883" cy="235.721" rx="3.9883" ry="1.08918" class="st21"/>
					</g>
					<g id="shape4385-82" v:mID="4385" v:groupContext="shape">
						<title>Sheet.4385</title>
						<path d="M12.08 234.02 C18.72 234.02 24.09 231.81 24.09 229.09 L24.09 232 C23.87 234.65 18.58 236.81 12.08
									 236.81 C5.57 236.81 0.06 234.6 0.06 231.88 L0.06 229.09 C0 231.81 5.38 234.02 12.08 234.02 Z"
								class="st19"/>
					</g>
					<g id="shape4386-84" v:mID="4386" v:groupContext="shape" transform="translate(22.248,-5.0935)">
						<title>Sheet.4386</title>
					</g>
					<g id="shape4387-85" v:mID="4387" v:groupContext="shape" transform="translate(0,-10.9558)">
						<title>Sheet.4387</title>
						<path d="M12.08 234.02 C18.72 234.02 24.09 231.81 24.09 229.09 L24.09 232 C23.87 234.65 18.58 236.81 12.08
									 236.81 C5.57 236.81 0.06 234.6 0.06 231.88 L0.06 229.09 C0 231.81 5.38 234.02 12.08 234.02 Z"
								class="st12"/>
					</g>
				</g>
				<g id="shape4435-87" v:mID="4435" v:groupContext="shape" transform="translate(209.338,-29.7731)">
					<title>Sheet.4435</title>
					<desc>3</desc>
					<v:userDefs>
						<v:ud v:nameU="visNavOrder" v:val="VT0(1042000):26"/>
					</v:userDefs>
					<v:textBlock v:margins="rect(0,0,0,0)" v:verticalAlign="2"/>
					<v:textRect cx="9" cy="227.81" width="18" height="18"/>
					<ellipse cx="9" cy="227.81" rx="9" ry="8.99999" class="st22"/>
					<text x="5.23" y="232.61" class="st23" v:langID="1033"><v:paragraph v:spAfter="6" v:horizAlign="1"/><v:tabList/>3</text>				</g>
				<g id="shape4434-90" v:mID="4434" v:groupContext="shape" transform="translate(209.338,-90.9741)">
					<title>Sheet.4434</title>
					<desc>4</desc>
					<v:userDefs>
						<v:ud v:nameU="visNavOrder" v:val="VT0(1041000):26"/>
					</v:userDefs>
					<v:textBlock v:margins="rect(0,0,0,0)" v:verticalAlign="2"/>
					<v:textRect cx="9" cy="227.81" width="18" height="18"/>
					<ellipse cx="9" cy="227.81" rx="9" ry="8.99999" class="st22"/>
					<text x="5.23" y="232.61" class="st23" v:langID="1033"><v:paragraph v:spAfter="6" v:horizAlign="1"/><v:tabList/>4</text>				</g>
				<g id="shape4431-93" v:mID="4431" v:groupContext="shape" transform="translate(209.338,-144.974)">
					<title>Sheet.4431</title>
					<desc>5</desc>
					<v:userDefs>
						<v:ud v:nameU="visNavOrder" v:val="VT0(1039000):26"/>
					</v:userDefs>
					<v:textBlock v:margins="rect(0,0,0,0)" v:verticalAlign="2"/>
					<v:textRect cx="9" cy="227.81" width="18" height="18"/>
					<ellipse cx="9" cy="227.81" rx="9" ry="8.99999" class="st22"/>
					<text x="5.23" y="232.61" class="st23" v:langID="1033"><v:paragraph v:spAfter="6" v:horizAlign="1"/><v:tabList/>5</text>				</g>
				<g id="shape4430-96" v:mID="4430" v:groupContext="shape" transform="translate(209.338,-171.752)">
					<title>Sheet.4430</title>
					<desc>2</desc>
					<v:userDefs>
						<v:ud v:nameU="visNavOrder" v:val="VT0(1038000):26"/>
					</v:userDefs>
					<v:textBlock v:margins="rect(0,0,0,0)" v:verticalAlign="2"/>
					<v:textRect cx="9" cy="227.81" width="18" height="18"/>
					<ellipse cx="9" cy="227.81" rx="9" ry="8.99999" class="st22"/>
					<text x="5.23" y="232.61" class="st23" v:langID="1033"><v:paragraph v:spAfter="6" v:horizAlign="1"/><v:tabList/>2</text>				</g>
				<g id="shape4443-99" v:mID="4443" v:groupContext="shape" v:layerMember="1" transform="translate(112.588,-171.752)">
					<title>Dynamic connector.4443</title>
					<v:userDefs>
						<v:ud v:nameU="visNavOrder" v:val="VT0(1044000):26"/>
					</v:userDefs>
					<path d="M0 227.81 L90 227.81" class="st24"/>
				</g>
				<g id="shape4444-105" v:mID="4444" v:groupContext="shape" v:layerMember="1" transform="translate(130.588,-144.974)">
					<title>Dynamic connector.4444</title>
					<v:userDefs>
						<v:ud v:nameU="visNavOrder" v:val="VT0(1045000):26"/>
					</v:userDefs>
					<path d="M0 227.81 L72 227.81" class="st24"/>
				</g>
				<g id="shape4445-110" v:mID="4445" v:groupContext="shape" v:layerMember="1" transform="translate(175.307,-90.9741)">
					<title>Dynamic connector.4445</title>
					<v:userDefs>
						<v:ud v:nameU="visNavOrder" v:val="VT0(1046000):26"/>
					</v:userDefs>
					<path d="M0 227.81 L27.28 227.81" class="st24"/>
				</g>
				<g id="shape4446-115" v:mID="4446" v:groupContext="shape" v:layerMember="1" transform="translate(175.307,-29.7731)">
					<title>Dynamic connector.4446</title>
					<v:userDefs>
						<v:ud v:nameU="visNavOrder" v:val="VT0(1047000):26"/>
					</v:userDefs>
					<path d="M0 227.81 L27.28 227.81" class="st24"/>
				</g>
				<g id="shape4410-120" v:mID="4410" v:groupContext="shape" transform="translate(234.088,-29.2098)">
					<title>Sheet.4410</title>
					<desc>Secure virtual machine boot components</desc>
					<v:userDefs>
						<v:ud v:nameU="visNavOrder" v:val="VT0(1030000):26"/>
					</v:userDefs>
					<v:textBlock v:margins="rect(4,4,4,4)" v:verticalAlign="0"/>
					<v:textRect cx="131.625" cy="226.386" width="263.25" height="20.8483"/>
					<rect x="0" y="215.962" width="263.25" height="20.8483" rx="4.5" ry="4.5" class="st26"/>
					<text x="4" y="230.76" class="st27" v:langID="1033"><v:paragraph/><v:tabList/>Secure virtual machine boot components</text>				</g>
				<g id="shape4407-123" v:mID="4407" v:groupContext="shape" transform="translate(234.088,-76.4598)">
					<title>Sheet.4407</title>
					<desc>Enable customer-managed keys and double encryption</desc>
					<v:userDefs>
						<v:ud v:nameU="visNavOrder" v:val="VT0(1028000):26"/>
					</v:userDefs>
					<v:textBlock v:margins="rect(4,4,4,4)" v:verticalAlign="0"/>
					<v:textRect cx="131.625" cy="219.41" width="263.25" height="34.7993"/>
					<rect x="0" y="202.011" width="263.25" height="34.7993" rx="4.5" ry="4.5" class="st26"/>
					<text x="4" y="216.81" class="st27" v:langID="1033"><v:paragraph/><v:tabList/>Enable customer-managed keys and double <tspan
								x="4" dy="1.2em" class="st8">encryption</tspan></text>				</g>
				<g id="shape4404-127" v:mID="4404" v:groupContext="shape" transform="translate(234.088,-129.784)">
					<title>Sheet.4404</title>
					<desc>Control the applications that are installed on virtual machines</desc>
					<v:userDefs>
						<v:ud v:nameU="visNavOrder" v:val="VT0(1026000):26"/>
					</v:userDefs>
					<v:textBlock v:margins="rect(4,4,4,4)" v:verticalAlign="0"/>
					<v:textRect cx="126.741" cy="219.072" width="253.49" height="35.475"/>
					<rect x="0" y="201.335" width="253.481" height="35.475" rx="4.5" ry="4.5" class="st26"/>
					<text x="4" y="216.14" class="st27" v:langID="1033"><v:paragraph/><v:tabList/>Control the applications that are installed on <tspan
								x="4" dy="1.2em" class="st8">virtual machines</tspan></text>				</g>
				<g id="shape4401-131" v:mID="4401" v:groupContext="shape" transform="translate(234.088,-167.962)">
					<title>Sheet.4401</title>
					<desc>Leverage Role Based Access Control (RBAC)</desc>
					<v:userDefs>
						<v:ud v:nameU="visNavOrder" v:val="VT0(1024000):26"/>
					</v:userDefs>
					<v:textBlock v:margins="rect(4,4,4,4)"/>
					<v:textRect cx="131.625" cy="224.791" width="263.25" height="24.0373"/>
					<rect x="0" y="212.773" width="263.25" height="24.0373" rx="4.5" ry="4.5" class="st26"/>
					<text x="4" y="228.39" class="st27" v:langID="1033"><v:paragraph/><v:tabList/>Leverage Role Based Access Control (RBAC)</text>				</g>
				<g id="shape4458-134" v:mID="4458" v:groupContext="shape" transform="translate(13.0256,-14.0625)">
					<title>Sheet.4458</title>
					<v:userDefs>
						<v:ud v:nameU="visNavOrder" v:val="VT0(1051000):26"/>
					</v:userDefs>
					<rect x="0" y="187.31" width="162" height="49.5" rx="4.5" ry="4.5" class="st28"/>
				</g>
				<g id="shape4459-136" v:mID="4459" v:groupContext="shape" transform="translate(13.0256,-66.2241)">
					<title>Sheet.4459</title>
					<v:userDefs>
						<v:ud v:nameU="visNavOrder" v:val="VT0(1052000):26"/>
					</v:userDefs>
					<rect x="0" y="169.31" width="162" height="67.5" rx="4.5" ry="4.5" class="st28"/>
				</g>
				<g id="shape4429-138" v:mID="4429" v:groupContext="shape" transform="translate(209.338,-203.178)">
					<title>Sheet.4429</title>
					<desc>1</desc>
					<v:userDefs>
						<v:ud v:nameU="visNavOrder" v:val="VT0(1037000):26"/>
					</v:userDefs>
					<v:textBlock v:margins="rect(0,0,0,0)" v:verticalAlign="2"/>
					<v:textRect cx="9" cy="227.81" width="18" height="18"/>
					<ellipse cx="9" cy="227.81" rx="9" ry="8.99999" class="st22"/>
					<text x="5.23" y="232.61" class="st23" v:langID="1033"><v:paragraph v:spAfter="6" v:horizAlign="1"/><v:tabList/>1</text>				</g>
				<g id="shape4442-141" v:mID="4442" v:groupContext="shape" v:layerMember="1" transform="translate(112.588,-203.178)">
					<title>Dynamic connector.4442</title>
					<v:userDefs>
						<v:ud v:nameU="visNavOrder" v:val="VT0(1043000):26"/>
					</v:userDefs>
					<path d="M0 227.81 L90 227.81" class="st24"/>
				</g>
				<g id="shape4390-146" v:mID="4390" v:groupContext="shape" transform="translate(234.088,-187.752)">
					<title>Sheet.4390</title>
					<desc>Configure logical isolation by deploying virtual machines to ...</desc>
					<v:userDefs>
						<v:ud v:nameU="visNavOrder" v:val="VT0(1021000):26"/>
					</v:userDefs>
					<v:textBlock v:margins="rect(4,4,4,4)" v:verticalAlign="0"/>
					<v:textRect cx="131.625" cy="218.979" width="263.25" height="35.6625"/>
					<rect x="0" y="201.147" width="263.25" height="35.6625" rx="4.5" ry="4.5" class="st26"/>
					<text x="4" y="215.95" class="st27" v:langID="1033"><v:paragraph/><v:tabList/>Configure logical isolation by deploying virtual <tspan
								x="4" dy="1.2em" class="st8">machines to a dedicated resource group</tspan></text>				</g>
			</g>
		</g>
	</g>
</svg>
