<?xml version="1.0" encoding="UTF-8" standalone="no"?>
<!DOCTYPE svg PUBLIC "-//W3C//DTD SVG 1.1//EN" "http://www.w3.org/Graphics/SVG/1.1/DTD/svg11.dtd">
<!-- Generated by Microsoft Visio, SVG Export azure-infra-vm-threat-protection.svg Page-1 -->
<svg xmlns="http://www.w3.org/2000/svg" xmlns:xlink="http://www.w3.org/1999/xlink" xmlns:ev="http://www.w3.org/2001/xml-events"
		xmlns:v="http://schemas.microsoft.com/visio/2003/SVGExtensions/" width="7.27958in" height="4.70089in"
		viewBox="0 0 524.13 338.464" xml:space="preserve" color-interpolation-filters="sRGB" class="st25">
	<v:documentProperties v:langID="1033" v:viewMarkup="false"/>

	<style type="text/css">
	<![CDATA[
		.st1 {visibility:visible}
		.st2 {fill:#000000;fill-opacity:0.15;filter:url(#filter_2);stroke:none}
		.st3 {fill:#cce9ff;stroke:none;stroke-width:0.25}
		.st4 {fill:none;stroke:none;stroke-width:1}
		.st5 {fill:#000000;font-family:Segoe UI Semibold;font-size:1.5em}
		.st6 {fill:none;stroke:none;stroke-width:0.25}
		.st7 {fill:#000000;font-family:Segoe UI;font-size:1.00001em}
		.st8 {font-size:1em}
		.st9 {fill:#e6e6e6;stroke:none;stroke-width:1}
		.st10 {fill:#000000;font-family:Segoe UI Semibold;font-size:1.16666em}
		.st11 {fill:#ffffff;stroke:none;stroke-width:0.25}
		.st12 {fill:#000000;font-family:Segoe UI Semibold;font-size:1.00001em}
		.st13 {fill:#cce9ff;stroke:none;stroke-width:1}
		.st14 {fill:url(#grad0-38);stroke:none;stroke-width:0.25}
		.st15 {fill:#50e6ff;stroke:none;stroke-width:0.25}
		.st16 {fill:#c3f1ff;stroke:none;stroke-width:0.25}
		.st17 {fill:#9cebff;stroke:none;stroke-width:0.25}
		.st18 {fill:url(#grad0-52);stroke:none;stroke-width:0.25}
		.st19 {fill:url(#grad0-208);stroke:none;stroke-width:0.75}
		.st20 {fill:#f2f2f2;stroke:none;stroke-width:0.75}
		.st21 {fill:url(#grad0-215);stroke:none;stroke-width:0.75}
		.st22 {fill:none;stroke:none;stroke-width:0.75}
		.st23 {fill:#341a6e;stroke:none;stroke-width:0.75}
		.st24 {stroke:#ff0000;stroke-linecap:round;stroke-linejoin:round;stroke-width:1}
		.st25 {fill:none;fill-rule:evenodd;font-size:12px;overflow:visible;stroke-linecap:square;stroke-miterlimit:3}
	]]>
	</style>

	<defs id="Patterns_And_Gradients">
		<linearGradient id="grad0-38" x1="0" y1="0" x2="1" y2="0" gradientTransform="rotate(-90 0.5 0.5)">
			<stop offset="0" stop-color="#0078d4" stop-opacity="1"/>
			<stop offset="0.82" stop-color="#5ea0ef" stop-opacity="1"/>
		</linearGradient>
		<linearGradient id="grad0-52" x1="0" y1="0" x2="1" y2="0" gradientTransform="rotate(-90 0.5 0.5)">
			<stop offset="0.15" stop-color="#cccccc" stop-opacity="1"/>
			<stop offset="1" stop-color="#707070" stop-opacity="1"/>
		</linearGradient>
		<linearGradient id="grad0-208" x1="0" y1="0" x2="1" y2="0" gradientTransform="rotate(-97.288043508426 0.5 0.5)">
			<stop offset="0.15" stop-color="#0078d4" stop-opacity="1"/>
			<stop offset="0.8" stop-color="#5ea0ef" stop-opacity="1"/>
			<stop offset="1" stop-color="#83b9f9" stop-opacity="1"/>
		</linearGradient>
		<linearGradient id="grad0-215" x1="0" y1="0" x2="1" y2="0" gradientTransform="rotate(0 0.5 0.5)">
			<stop offset="0" stop-color="#b77af4" stop-opacity="1"/>
			<stop offset="1" stop-color="#773adc" stop-opacity="1"/>
		</linearGradient>
	</defs>
	<defs id="Filters">
		<filter id="filter_2">
			<feGaussianBlur stdDeviation="2"/>
		</filter>
	</defs>
	<g v:mID="0" v:index="1" v:groupContext="foregroundPage">
		<v:userDefs>
			<v:ud v:nameU="visNavType" v:val="VT0(1):26"/>
		</v:userDefs>
		<title>Page-1</title>
		<v:pageProperties v:drawingScale="1" v:pageScale="1" v:drawingUnits="19" v:shadowOffsetX="9" v:shadowOffsetY="-9"/>
		<v:layer v:name="symbols" v:index="0" v:glue="false"/>
		<v:layer v:name="Icons" v:index="1" v:glue="false"/>
		<g id="shape4461-1" v:mID="4461" v:groupContext="shape" v:layerMember="0" transform="translate(5.56496,-6.64586)">
			<title>Sheet.4461</title>
			<v:userDefs>
				<v:ud v:nameU="visNavOrder" v:prompt="" v:val="VT0(1054000):26"/>
			</v:userDefs>
			<g id="shadow4461-2" v:groupContext="shadow" v:shadowOffsetX="1.22465E-16" v:shadowOffsetY="-2" v:shadowType="1"
					v:shadowScale="1.01" transform="matrix(1.01,0,0,1.01,-2.565,0.26122)" class="st1">
				<rect x="0" y="9.29172" width="513" height="329.173" class="st2"/>
			</g>
			<rect x="0" y="9.29172" width="513" height="329.173" class="st3"/>
		</g>
		<g id="shape4462-6" v:mID="4462" v:groupContext="shape" transform="translate(14.5624,-304.154)">
			<title>Sheet.4462</title>
			<desc>Microsoft Entra ID tenant</desc>
			<v:userDefs>
				<v:ud v:nameU="visNavOrder" v:prompt="" v:val="VT0(1055000):26"/>
			</v:userDefs>
			<v:textBlock v:margins="rect(4,4,4,0)" v:verticalAlign="0"/>
			<v:textRect cx="230.062" cy="326.976" width="460.13" height="22.9761"/>
			<rect x="0" y="315.488" width="460.124" height="22.9761" rx="4.5" ry="4.5" class="st4"/>
			<text x="0" y="335.69" class="st5" v:langID="1033"><v:paragraph v:spAfter="6"/><v:tabList/>Microsoft Entra ID tenant</text>		</g>
		<g id="shape4497-9" v:mID="4497" v:groupContext="shape" v:layerMember="0" transform="translate(62.1371,-265.013)">
			<title>Sheet.4497</title>
			<desc>Microsoft Defender for Cloud enabled for a management group w...</desc>
			<v:userDefs>
				<v:ud v:nameU="visNavOrder" v:prompt="" v:val="VT0(1087000):26"/>
			</v:userDefs>
			<v:textBlock v:margins="rect(0,0,0,0)" v:verticalAlign="0"/>
			<v:textRect cx="173.985" cy="323.833" width="347.98" height="29.2631"/>
			<rect x="0" y="309.201" width="347.971" height="29.2631" class="st6"/>
			<text x="0" y="320" class="st7" v:langID="1033"><v:paragraph v:spAfter="6"/><v:tabList/>Microsoft Defender for Cloud enabled for a management group <tspan
						x="0" dy="1.2em" class="st8">with Defender for Servers turned on</tspan></text>		</g>
		<g id="shape4495-13" v:mID="4495" v:groupContext="shape" transform="translate(14.5657,-20.8209)">
			<title>Sheet.4495</title>
			<v:userDefs>
				<v:ud v:nameU="visNavOrder" v:prompt="" v:val="VT0(1059000):26"/>
			</v:userDefs>
			<g id="shadow4495-14" v:groupContext="shadow" v:shadowOffsetX="1.22465E-16" v:shadowOffsetY="-2" v:shadowType="1"
					v:shadowScale="1.01" transform="matrix(1.01,0,0,1.01,-2.475,-0.248375)" class="st1">
				<rect x="0" y="111.211" width="495" height="227.254" rx="4.5" ry="4.5" class="st2"/>
			</g>
			<rect x="0" y="111.211" width="495" height="227.254" rx="4.5" ry="4.5" class="st9"/>
		</g>
		<g id="shape4496-18" v:mID="4496" v:groupContext="shape" v:layerMember="0" transform="translate(23.6366,-220.42)">
			<title>Sheet.4496</title>
			<desc>Management group</desc>
			<v:userDefs>
				<v:ud v:nameU="visNavOrder" v:prompt="" v:val="VT0(1060000):26"/>
			</v:userDefs>
			<v:textBlock v:margins="rect(0,0,0,0)" v:verticalAlign="2"/>
			<v:textRect cx="94.5" cy="331.386" width="189.01" height="14.1574"/>
			<rect x="0" y="324.307" width="189" height="14.1574" class="st6"/>
			<text x="0" y="334.26" class="st10" v:langID="1033"><v:paragraph/><v:tabList/>Management group</text>		</g>
		<g id="shape4498-21" v:mID="4498" v:groupContext="shape" v:layerMember="0" transform="translate(23.6366,-29.9905)">
			<title>Sheet.4498</title>
			<v:userDefs>
				<v:ud v:nameU="visNavOrder" v:prompt="" v:val="VT0(1056000):26"/>
			</v:userDefs>
			<rect x="0" y="153.964" width="308.254" height="184.5" rx="4.5" ry="4.5" class="st11"/>
		</g>
		<g id="shape4499-23" v:mID="4499" v:groupContext="shape" v:layerMember="0" transform="translate(32.6366,-189.819)">
			<title>Sheet.4499</title>
			<desc>Azure subscription</desc>
			<v:userDefs>
				<v:ud v:nameU="visNavOrder" v:prompt="" v:val="VT0(1057000):26"/>
			</v:userDefs>
			<v:textBlock v:margins="rect(0,0,0,0)"/>
			<v:textRect cx="63.0396" cy="331.386" width="126.08" height="14.1574"/>
			<rect x="0" y="324.307" width="126.079" height="14.1574" class="st6"/>
			<text x="0" y="334.99" class="st12" v:langID="1033"><v:paragraph/><v:tabList/>Azure subscription</text>		</g>
		<g id="shape4677-26" v:mID="4677" v:groupContext="shape" v:layerMember="0" transform="translate(32.6366,-41.2767)">
			<title>Sheet.4677</title>
			<v:userDefs>
				<v:ud v:nameU="visNavOrder" v:prompt="" v:val="VT0(1102000):26"/>
			</v:userDefs>
			<g id="shadow4677-27" v:groupContext="shadow" v:shadowOffsetX="1.22465E-16" v:shadowOffsetY="-2" v:shadowType="1"
					v:shadowScale="1.01" transform="matrix(1.01,0,0,1.01,-0.702,-0.682643)" class="st1">
				<rect x="0" y="198.064" width="140.4" height="140.4" rx="4.5" ry="4.5" class="st2"/>
			</g>
			<rect x="0" y="198.064" width="140.4" height="140.4" rx="4.5" ry="4.5" class="st13"/>
		</g>
		<g id="shape4678-31" v:mID="4678" v:groupContext="shape" v:layerMember="0" transform="translate(39.3243,-157.981)">
			<title>Sheet.4678</title>
			<desc>Resource Group</desc>
			<v:userDefs>
				<v:ud v:nameU="visNavOrder" v:val="VT0(1103000):26"/>
			</v:userDefs>
			<v:textBlock v:margins="rect(0,0,0,0)" v:verticalAlign="0"/>
			<v:textRect cx="62.6886" cy="331.115" width="125.38" height="14.6993"/>
			<rect x="0" y="323.765" width="125.377" height="14.6993" class="st6"/>
			<text x="0" y="334.57" class="st12" v:langID="1033"><v:paragraph v:spAfter="6"/><v:tabList/>Resource Group</text>		</g>
		<g id="group4680-34" transform="translate(41.6378,-123.252)" v:mID="4680" v:groupContext="group" v:layerMember="1">
			<v:userDefs>
				<v:ud v:nameU="visNavOrder" v:prompt="" v:val="VT0(971000):26"/>
			</v:userDefs>
			<title>Virtual Machine.4680</title>
			<g id="shape4681-35" v:mID="4681" v:groupContext="shape" v:layerMember="1" transform="translate(0,-7.51714)">
				<title>Sheet.4681</title>
				<v:userDefs>
					<v:ud v:nameU="msvDisableCustomConnectionPoints" v:prompt="" v:val="VT0(1):5"/>
				</v:userDefs>
				<path d="M0 337.49 a0.900021 0.974166 -180 0 0 0.9 0.974143 L26.1 338.46 a0.900021 0.974166 -180 0 0 0.9 -0.974143
							 L27 319.96 a0.900021 0.974166 -180 0 0 -0.9 -0.974143 L0.9 318.98 a0.900021 0.974166 -180 0 0 -0.9 0.974143
							 L0 337.49 Z" class="st14"/>
			</g>
			<g id="shape4682-39" v:mID="4682" v:groupContext="shape" v:layerMember="1" transform="translate(13.5,-11.5761)">
				<title>Sheet.4682</title>
				<v:userDefs>
					<v:ud v:nameU="msvDisableCustomConnectionPoints" v:prompt="" v:val="VT0(1):5"/>
				</v:userDefs>
				<path d="M4.5 329.94 L4.5 335.61 L0 338.46 L0 332.78 L4.5 329.94 Z" class="st15"/>
			</g>
			<g id="shape4683-41" v:mID="4683" v:groupContext="shape" v:layerMember="1" transform="translate(9,-17.2423)">
				<title>Sheet.4683</title>
				<v:userDefs>
					<v:ud v:nameU="msvDisableCustomConnectionPoints" v:prompt="" v:val="VT0(1):5"/>
				</v:userDefs>
				<path d="M9 335.61 L4.5 338.46 L0 335.61 L4.5 332.77 L9 335.61 Z" class="st16"/>
			</g>
			<g id="shape4684-43" v:mID="4684" v:groupContext="shape" v:layerMember="1" transform="translate(9,-11.5761)">
				<title>Sheet.4684</title>
				<v:userDefs>
					<v:ud v:nameU="msvDisableCustomConnectionPoints" v:prompt="" v:val="VT0(1):5"/>
				</v:userDefs>
				<path d="M4.5 332.8 L4.5 338.46 L0 335.61 L0 329.94 L4.5 332.8 Z" class="st17"/>
			</g>
			<g id="shape4685-45" v:mID="4685" v:groupContext="shape" v:layerMember="1" transform="translate(9,-11.5761)">
				<title>Sheet.4685</title>
				<v:userDefs>
					<v:ud v:nameU="msvDisableCustomConnectionPoints" v:prompt="" v:val="VT0(1):5"/>
				</v:userDefs>
				<path d="M0 335.61 L4.5 332.78 L4.5 338.46 L0 335.61 Z" class="st16"/>
			</g>
			<g id="shape4686-47" v:mID="4686" v:groupContext="shape" v:layerMember="1" transform="translate(13.5,-11.5761)">
				<title>Sheet.4686</title>
				<v:userDefs>
					<v:ud v:nameU="msvDisableCustomConnectionPoints" v:prompt="" v:val="VT0(1):5"/>
				</v:userDefs>
				<path d="M4.5 335.61 L0 332.78 L0 338.46 L4.5 335.61 Z" class="st17"/>
			</g>
			<g id="shape4687-49" v:mID="4687" v:groupContext="shape" v:layerMember="1" transform="translate(6.75,5.68434E-14)">
				<title>Sheet.4687</title>
				<v:userDefs>
					<v:ud v:nameU="msvDisableCustomConnectionPoints" v:prompt="" v:val="VT0(1):5"/>
				</v:userDefs>
				<path d="M12.16 336.84 C9.5 336.39 9.39 334.31 9.39 330.95 L4.09 330.95 C4.09 334.31 4 336.39 1.33 336.84 A1.5 1.62357
							 -180 0 0 0 338.46 L13.5 338.46 A1.5 1.62357 -180 0 0 12.16 336.84 Z" class="st18"/>
			</g>
		</g>
		<g id="shape4704-53" v:mID="4704" v:groupContext="shape" v:layerMember="0" transform="translate(78.7689,-127.752)">
			<title>Sheet.4704</title>
			<desc>Virtual machine</desc>
			<v:userDefs>
				<v:ud v:nameU="visNavOrder" v:prompt="" v:val="VT0(876000):26"/>
			</v:userDefs>
			<v:textBlock v:margins="rect(0,0,0,0)"/>
			<v:textRect cx="43.8677" cy="329.464" width="87.74" height="18"/>
			<rect x="0" y="320.464" width="87.7353" height="18" rx="4.5" ry="4.5" class="st6"/>
			<text x="0" y="333.06" class="st7" v:langID="1033"><v:paragraph v:spAfter="6"/><v:tabList/>Virtual machine</text>		</g>
		<g id="shape4705-56" v:mID="4705" v:groupContext="shape" v:layerMember="0" transform="translate(78.7689,-91.7521)">
			<title>Sheet.4705</title>
			<desc>Azure SQL</desc>
			<v:userDefs>
				<v:ud v:nameU="visNavOrder" v:prompt="" v:val="VT0(974000):26"/>
			</v:userDefs>
			<v:textBlock v:margins="rect(0,0,0,0)"/>
			<v:textRect cx="43.8677" cy="329.464" width="87.74" height="18"/>
			<rect x="0" y="320.464" width="87.7353" height="18" rx="4.5" ry="4.5" class="st6"/>
			<text x="0" y="333.06" class="st7" v:langID="1033"><v:paragraph v:spAfter="6"/><v:tabList/>Azure SQL</text>		</g>
		<g id="shape4706-59" v:mID="4706" v:groupContext="shape" v:layerMember="0" transform="translate(78.7689,-55.7521)">
			<title>Sheet.4706</title>
			<desc>Kubernetes</desc>
			<v:userDefs>
				<v:ud v:nameU="visNavOrder" v:prompt="" v:val="VT0(975000):26"/>
			</v:userDefs>
			<v:textBlock v:margins="rect(0,0,0,0)"/>
			<v:textRect cx="43.8677" cy="329.464" width="87.74" height="18"/>
			<rect x="0" y="320.464" width="87.7353" height="18" rx="4.5" ry="4.5" class="st6"/>
			<text x="0" y="333.06" class="st7" v:langID="1033"><v:paragraph v:spAfter="6"/><v:tabList/>Kubernetes</text>		</g>
		<g id="shape4712-62" v:mID="4712" v:groupContext="shape" v:layerMember="0" transform="translate(181.707,-41.2767)">
			<title>Sheet.4712</title>
			<v:userDefs>
				<v:ud v:nameU="visNavOrder" v:prompt="" v:val="VT0(1102000):26"/>
			</v:userDefs>
			<g id="shadow4712-63" v:groupContext="shadow" v:shadowOffsetX="1.22465E-16" v:shadowOffsetY="-2" v:shadowType="1"
					v:shadowScale="1.01" transform="matrix(1.01,0,0,1.01,-0.702,-0.682643)" class="st1">
				<rect x="0" y="198.064" width="140.4" height="140.4" rx="4.5" ry="4.5" class="st2"/>
			</g>
			<rect x="0" y="198.064" width="140.4" height="140.4" rx="4.5" ry="4.5" class="st13"/>
		</g>
		<g id="shape4713-67" v:mID="4713" v:groupContext="shape" v:layerMember="0" transform="translate(188.395,-157.981)">
			<title>Sheet.4713</title>
			<desc>Resource Group</desc>
			<v:userDefs>
				<v:ud v:nameU="visNavOrder" v:val="VT0(1103000):26"/>
			</v:userDefs>
			<v:textBlock v:margins="rect(0,0,0,0)" v:verticalAlign="0"/>
			<v:textRect cx="62.6886" cy="331.115" width="125.38" height="14.6993"/>
			<rect x="0" y="323.765" width="125.377" height="14.6993" class="st6"/>
			<text x="0" y="334.57" class="st12" v:langID="1033"><v:paragraph v:spAfter="6"/><v:tabList/>Resource Group</text>		</g>
		<g id="group4715-70" transform="translate(190.708,-123.252)" v:mID="4715" v:groupContext="group" v:layerMember="1">
			<v:userDefs>
				<v:ud v:nameU="visNavOrder" v:prompt="" v:val="VT0(971000):26"/>
			</v:userDefs>
			<title>Virtual Machine.3650</title>
			<g id="shape4716-71" v:mID="4716" v:groupContext="shape" v:layerMember="1" transform="translate(0,-7.51714)">
				<title>Sheet.4716</title>
				<v:userDefs>
					<v:ud v:nameU="msvDisableCustomConnectionPoints" v:prompt="" v:val="VT0(1):5"/>
				</v:userDefs>
				<path d="M0 337.49 a0.900021 0.974166 -180 0 0 0.9 0.974143 L26.1 338.46 a0.900021 0.974166 -180 0 0 0.9 -0.974143
							 L27 319.96 a0.900021 0.974166 -180 0 0 -0.9 -0.974143 L0.9 318.98 a0.900021 0.974166 -180 0 0 -0.9 0.974143
							 L0 337.49 Z" class="st14"/>
			</g>
			<g id="shape4717-74" v:mID="4717" v:groupContext="shape" v:layerMember="1" transform="translate(13.5,-11.5761)">
				<title>Sheet.4717</title>
				<v:userDefs>
					<v:ud v:nameU="msvDisableCustomConnectionPoints" v:prompt="" v:val="VT0(1):5"/>
				</v:userDefs>
				<path d="M4.5 329.94 L4.5 335.61 L0 338.46 L0 332.78 L4.5 329.94 Z" class="st15"/>
			</g>
			<g id="shape4718-76" v:mID="4718" v:groupContext="shape" v:layerMember="1" transform="translate(9,-17.2423)">
				<title>Sheet.4718</title>
				<v:userDefs>
					<v:ud v:nameU="msvDisableCustomConnectionPoints" v:prompt="" v:val="VT0(1):5"/>
				</v:userDefs>
				<path d="M9 335.61 L4.5 338.46 L0 335.61 L4.5 332.77 L9 335.61 Z" class="st16"/>
			</g>
			<g id="shape4719-78" v:mID="4719" v:groupContext="shape" v:layerMember="1" transform="translate(9,-11.5761)">
				<title>Sheet.4719</title>
				<v:userDefs>
					<v:ud v:nameU="msvDisableCustomConnectionPoints" v:prompt="" v:val="VT0(1):5"/>
				</v:userDefs>
				<path d="M4.5 332.8 L4.5 338.46 L0 335.61 L0 329.94 L4.5 332.8 Z" class="st17"/>
			</g>
			<g id="shape4720-80" v:mID="4720" v:groupContext="shape" v:layerMember="1" transform="translate(9,-11.5761)">
				<title>Sheet.4720</title>
				<v:userDefs>
					<v:ud v:nameU="msvDisableCustomConnectionPoints" v:prompt="" v:val="VT0(1):5"/>
				</v:userDefs>
				<path d="M0 335.61 L4.5 332.78 L4.5 338.46 L0 335.61 Z" class="st16"/>
			</g>
			<g id="shape4721-82" v:mID="4721" v:groupContext="shape" v:layerMember="1" transform="translate(13.5,-11.5761)">
				<title>Sheet.4721</title>
				<v:userDefs>
					<v:ud v:nameU="msvDisableCustomConnectionPoints" v:prompt="" v:val="VT0(1):5"/>
				</v:userDefs>
				<path d="M4.5 335.61 L0 332.78 L0 338.46 L4.5 335.61 Z" class="st17"/>
			</g>
			<g id="shape4722-84" v:mID="4722" v:groupContext="shape" v:layerMember="1" transform="translate(6.75,5.68434E-14)">
				<title>Sheet.4722</title>
				<v:userDefs>
					<v:ud v:nameU="msvDisableCustomConnectionPoints" v:prompt="" v:val="VT0(1):5"/>
				</v:userDefs>
				<path d="M12.16 336.84 C9.5 336.39 9.39 334.31 9.39 330.95 L4.09 330.95 C4.09 334.31 4 336.39 1.33 336.84 A1.5 1.62357
							 -180 0 0 0 338.46 L13.5 338.46 A1.5 1.62357 -180 0 0 12.16 336.84 Z" class="st18"/>
			</g>
		</g>
		<g id="group4723-87" transform="translate(190.708,-87.2521)" v:mID="4723" v:groupContext="group" v:layerMember="1">
			<v:userDefs>
				<v:ud v:nameU="visNavOrder" v:prompt="" v:val="VT0(972000):26"/>
			</v:userDefs>
			<title>Virtual Machine.3658</title>
			<g id="shape4724-88" v:mID="4724" v:groupContext="shape" v:layerMember="1" transform="translate(0,-7.51714)">
				<title>Sheet.4724</title>
				<v:userDefs>
					<v:ud v:nameU="msvDisableCustomConnectionPoints" v:prompt="" v:val="VT0(1):5"/>
				</v:userDefs>
				<path d="M0 337.49 a0.900021 0.974166 -180 0 0 0.9 0.974143 L26.1 338.46 a0.900021 0.974166 -180 0 0 0.9 -0.974143
							 L27 319.96 a0.900021 0.974166 -180 0 0 -0.9 -0.974143 L0.9 318.98 a0.900021 0.974166 -180 0 0 -0.9 0.974143
							 L0 337.49 Z" class="st14"/>
			</g>
			<g id="shape4725-91" v:mID="4725" v:groupContext="shape" v:layerMember="1" transform="translate(13.5,-11.5761)">
				<title>Sheet.4725</title>
				<v:userDefs>
					<v:ud v:nameU="msvDisableCustomConnectionPoints" v:prompt="" v:val="VT0(1):5"/>
				</v:userDefs>
				<path d="M4.5 329.94 L4.5 335.61 L0 338.46 L0 332.78 L4.5 329.94 Z" class="st15"/>
			</g>
			<g id="shape4726-93" v:mID="4726" v:groupContext="shape" v:layerMember="1" transform="translate(9,-17.2423)">
				<title>Sheet.4726</title>
				<v:userDefs>
					<v:ud v:nameU="msvDisableCustomConnectionPoints" v:prompt="" v:val="VT0(1):5"/>
				</v:userDefs>
				<path d="M9 335.61 L4.5 338.46 L0 335.61 L4.5 332.77 L9 335.61 Z" class="st16"/>
			</g>
			<g id="shape4727-95" v:mID="4727" v:groupContext="shape" v:layerMember="1" transform="translate(9,-11.5761)">
				<title>Sheet.4727</title>
				<v:userDefs>
					<v:ud v:nameU="msvDisableCustomConnectionPoints" v:prompt="" v:val="VT0(1):5"/>
				</v:userDefs>
				<path d="M4.5 332.8 L4.5 338.46 L0 335.61 L0 329.94 L4.5 332.8 Z" class="st17"/>
			</g>
			<g id="shape4728-97" v:mID="4728" v:groupContext="shape" v:layerMember="1" transform="translate(9,-11.5761)">
				<title>Sheet.4728</title>
				<v:userDefs>
					<v:ud v:nameU="msvDisableCustomConnectionPoints" v:prompt="" v:val="VT0(1):5"/>
				</v:userDefs>
				<path d="M0 335.61 L4.5 332.78 L4.5 338.46 L0 335.61 Z" class="st16"/>
			</g>
			<g id="shape4729-99" v:mID="4729" v:groupContext="shape" v:layerMember="1" transform="translate(13.5,-11.5761)">
				<title>Sheet.4729</title>
				<v:userDefs>
					<v:ud v:nameU="msvDisableCustomConnectionPoints" v:prompt="" v:val="VT0(1):5"/>
				</v:userDefs>
				<path d="M4.5 335.61 L0 332.78 L0 338.46 L4.5 335.61 Z" class="st17"/>
			</g>
			<g id="shape4730-101" v:mID="4730" v:groupContext="shape" v:layerMember="1" transform="translate(6.75,5.68434E-14)">
				<title>Sheet.4730</title>
				<v:userDefs>
					<v:ud v:nameU="msvDisableCustomConnectionPoints" v:prompt="" v:val="VT0(1):5"/>
				</v:userDefs>
				<path d="M12.16 336.84 C9.5 336.39 9.39 334.31 9.39 330.95 L4.09 330.95 C4.09 334.31 4 336.39 1.33 336.84 A1.5 1.62357
							 -180 0 0 0 338.46 L13.5 338.46 A1.5 1.62357 -180 0 0 12.16 336.84 Z" class="st18"/>
			</g>
		</g>
		<g id="group4731-104" transform="translate(190.708,-51.2521)" v:mID="4731" v:groupContext="group" v:layerMember="1">
			<v:userDefs>
				<v:ud v:nameU="visNavOrder" v:prompt="" v:val="VT0(973000):26"/>
			</v:userDefs>
			<title>Virtual Machine.3666</title>
			<g id="shape4732-105" v:mID="4732" v:groupContext="shape" v:layerMember="1" transform="translate(0,-7.51714)">
				<title>Sheet.4732</title>
				<v:userDefs>
					<v:ud v:nameU="msvDisableCustomConnectionPoints" v:prompt="" v:val="VT0(1):5"/>
				</v:userDefs>
				<path d="M0 337.49 a0.900021 0.974166 -180 0 0 0.9 0.974143 L26.1 338.46 a0.900021 0.974166 -180 0 0 0.9 -0.974143
							 L27 319.96 a0.900021 0.974166 -180 0 0 -0.9 -0.974143 L0.9 318.98 a0.900021 0.974166 -180 0 0 -0.9 0.974143
							 L0 337.49 Z" class="st14"/>
			</g>
			<g id="shape4733-108" v:mID="4733" v:groupContext="shape" v:layerMember="1" transform="translate(13.5,-11.5761)">
				<title>Sheet.4733</title>
				<v:userDefs>
					<v:ud v:nameU="msvDisableCustomConnectionPoints" v:prompt="" v:val="VT0(1):5"/>
				</v:userDefs>
				<path d="M4.5 329.94 L4.5 335.61 L0 338.46 L0 332.78 L4.5 329.94 Z" class="st15"/>
			</g>
			<g id="shape4734-110" v:mID="4734" v:groupContext="shape" v:layerMember="1" transform="translate(9,-17.2423)">
				<title>Sheet.4734</title>
				<v:userDefs>
					<v:ud v:nameU="msvDisableCustomConnectionPoints" v:prompt="" v:val="VT0(1):5"/>
				</v:userDefs>
				<path d="M9 335.61 L4.5 338.46 L0 335.61 L4.5 332.77 L9 335.61 Z" class="st16"/>
			</g>
			<g id="shape4735-112" v:mID="4735" v:groupContext="shape" v:layerMember="1" transform="translate(9,-11.5761)">
				<title>Sheet.4735</title>
				<v:userDefs>
					<v:ud v:nameU="msvDisableCustomConnectionPoints" v:prompt="" v:val="VT0(1):5"/>
				</v:userDefs>
				<path d="M4.5 332.8 L4.5 338.46 L0 335.61 L0 329.94 L4.5 332.8 Z" class="st17"/>
			</g>
			<g id="shape4736-114" v:mID="4736" v:groupContext="shape" v:layerMember="1" transform="translate(9,-11.5761)">
				<title>Sheet.4736</title>
				<v:userDefs>
					<v:ud v:nameU="msvDisableCustomConnectionPoints" v:prompt="" v:val="VT0(1):5"/>
				</v:userDefs>
				<path d="M0 335.61 L4.5 332.78 L4.5 338.46 L0 335.61 Z" class="st16"/>
			</g>
			<g id="shape4737-116" v:mID="4737" v:groupContext="shape" v:layerMember="1" transform="translate(13.5,-11.5761)">
				<title>Sheet.4737</title>
				<v:userDefs>
					<v:ud v:nameU="msvDisableCustomConnectionPoints" v:prompt="" v:val="VT0(1):5"/>
				</v:userDefs>
				<path d="M4.5 335.61 L0 332.78 L0 338.46 L4.5 335.61 Z" class="st17"/>
			</g>
			<g id="shape4738-118" v:mID="4738" v:groupContext="shape" v:layerMember="1" transform="translate(6.75,5.68434E-14)">
				<title>Sheet.4738</title>
				<v:userDefs>
					<v:ud v:nameU="msvDisableCustomConnectionPoints" v:prompt="" v:val="VT0(1):5"/>
				</v:userDefs>
				<path d="M12.16 336.84 C9.5 336.39 9.39 334.31 9.39 330.95 L4.09 330.95 C4.09 334.31 4 336.39 1.33 336.84 A1.5 1.62357
							 -180 0 0 0 338.46 L13.5 338.46 A1.5 1.62357 -180 0 0 12.16 336.84 Z" class="st18"/>
			</g>
		</g>
		<g id="shape4739-121" v:mID="4739" v:groupContext="shape" v:layerMember="0" transform="translate(227.839,-127.752)">
			<title>Sheet.4739</title>
			<desc>Virtual machine</desc>
			<v:userDefs>
				<v:ud v:nameU="visNavOrder" v:prompt="" v:val="VT0(876000):26"/>
			</v:userDefs>
			<v:textBlock v:margins="rect(0,0,0,0)"/>
			<v:textRect cx="43.8677" cy="329.464" width="87.74" height="18"/>
			<rect x="0" y="320.464" width="87.7353" height="18" rx="4.5" ry="4.5" class="st6"/>
			<text x="0" y="333.06" class="st7" v:langID="1033"><v:paragraph v:spAfter="6"/><v:tabList/>Virtual machine</text>		</g>
		<g id="shape4740-124" v:mID="4740" v:groupContext="shape" v:layerMember="0" transform="translate(227.839,-91.7521)">
			<title>Sheet.4740</title>
			<desc>Virtual machine</desc>
			<v:userDefs>
				<v:ud v:nameU="visNavOrder" v:prompt="" v:val="VT0(974000):26"/>
			</v:userDefs>
			<v:textBlock v:margins="rect(0,0,0,0)"/>
			<v:textRect cx="43.8677" cy="329.464" width="87.74" height="18"/>
			<rect x="0" y="320.464" width="87.7353" height="18" rx="4.5" ry="4.5" class="st6"/>
			<text x="0" y="333.06" class="st7" v:langID="1033"><v:paragraph v:spAfter="6"/><v:tabList/>Virtual machine</text>		</g>
		<g id="shape4741-127" v:mID="4741" v:groupContext="shape" v:layerMember="0" transform="translate(227.839,-55.7521)">
			<title>Sheet.4741</title>
			<desc>Virtual machine</desc>
			<v:userDefs>
				<v:ud v:nameU="visNavOrder" v:prompt="" v:val="VT0(975000):26"/>
			</v:userDefs>
			<v:textBlock v:margins="rect(0,0,0,0)"/>
			<v:textRect cx="43.8677" cy="329.464" width="87.74" height="18"/>
			<rect x="0" y="320.464" width="87.7353" height="18" rx="4.5" ry="4.5" class="st6"/>
			<text x="0" y="333.06" class="st7" v:langID="1033"><v:paragraph v:spAfter="6"/><v:tabList/>Virtual machine</text>		</g>
		<g id="shape4742-130" v:mID="4742" v:groupContext="shape" v:layerMember="0" transform="translate(341.048,-29.9905)">
			<title>Sheet.4742</title>
			<v:userDefs>
				<v:ud v:nameU="visNavOrder" v:prompt="" v:val="VT0(1109000):26"/>
			</v:userDefs>
			<rect x="0" y="153.964" width="158.4" height="184.5" rx="4.5" ry="4.5" class="st11"/>
		</g>
		<g id="shape4743-132" v:mID="4743" v:groupContext="shape" v:layerMember="0" transform="translate(350.048,-189.819)">
			<title>Sheet.4743</title>
			<desc>Azure subscription</desc>
			<v:userDefs>
				<v:ud v:nameU="visNavOrder" v:prompt="" v:val="VT0(1110000):26"/>
			</v:userDefs>
			<v:textBlock v:margins="rect(0,0,0,0)"/>
			<v:textRect cx="63.0396" cy="331.386" width="126.08" height="14.1574"/>
			<rect x="0" y="324.307" width="126.079" height="14.1574" class="st6"/>
			<text x="0" y="334.99" class="st12" v:langID="1033"><v:paragraph/><v:tabList/>Azure subscription</text>		</g>
		<g id="shape4745-135" v:mID="4745" v:groupContext="shape" v:layerMember="0" transform="translate(350.048,-41.2767)">
			<title>Sheet.4745</title>
			<v:userDefs>
				<v:ud v:nameU="visNavOrder" v:prompt="" v:val="VT0(1102000):26"/>
			</v:userDefs>
			<g id="shadow4745-136" v:groupContext="shadow" v:shadowOffsetX="1.22465E-16" v:shadowOffsetY="-2" v:shadowType="1"
					v:shadowScale="1.01" transform="matrix(1.01,0,0,1.01,-0.702,-0.682643)" class="st1">
				<rect x="0" y="198.064" width="140.4" height="140.4" rx="4.5" ry="4.5" class="st2"/>
			</g>
			<rect x="0" y="198.064" width="140.4" height="140.4" rx="4.5" ry="4.5" class="st13"/>
		</g>
		<g id="shape4746-140" v:mID="4746" v:groupContext="shape" v:layerMember="0" transform="translate(356.736,-157.981)">
			<title>Sheet.4746</title>
			<desc>Resource Group</desc>
			<v:userDefs>
				<v:ud v:nameU="visNavOrder" v:val="VT0(1103000):26"/>
			</v:userDefs>
			<v:textBlock v:margins="rect(0,0,0,0)" v:verticalAlign="0"/>
			<v:textRect cx="62.6886" cy="331.115" width="125.38" height="14.6993"/>
			<rect x="0" y="323.765" width="125.377" height="14.6993" class="st6"/>
			<text x="0" y="334.57" class="st12" v:langID="1033"><v:paragraph v:spAfter="6"/><v:tabList/>Resource Group</text>		</g>
		<g id="group4748-143" transform="translate(359.049,-123.252)" v:mID="4748" v:groupContext="group" v:layerMember="1">
			<v:userDefs>
				<v:ud v:nameU="visNavOrder" v:prompt="" v:val="VT0(971000):26"/>
			</v:userDefs>
			<title>Virtual Machine.4748</title>
			<g id="shape4749-144" v:mID="4749" v:groupContext="shape" v:layerMember="1" transform="translate(0,-7.51714)">
				<title>Sheet.4749</title>
				<v:userDefs>
					<v:ud v:nameU="msvDisableCustomConnectionPoints" v:prompt="" v:val="VT0(1):5"/>
				</v:userDefs>
				<path d="M0 337.49 a0.900021 0.974166 -180 0 0 0.9 0.974143 L26.1 338.46 a0.900021 0.974166 -180 0 0 0.9 -0.974143
							 L27 319.96 a0.900021 0.974166 -180 0 0 -0.9 -0.974143 L0.9 318.98 a0.900021 0.974166 -180 0 0 -0.9 0.974143
							 L0 337.49 Z" class="st14"/>
			</g>
			<g id="shape4750-147" v:mID="4750" v:groupContext="shape" v:layerMember="1" transform="translate(13.5,-11.5761)">
				<title>Sheet.4750</title>
				<v:userDefs>
					<v:ud v:nameU="msvDisableCustomConnectionPoints" v:prompt="" v:val="VT0(1):5"/>
				</v:userDefs>
				<path d="M4.5 329.94 L4.5 335.61 L0 338.46 L0 332.78 L4.5 329.94 Z" class="st15"/>
			</g>
			<g id="shape4751-149" v:mID="4751" v:groupContext="shape" v:layerMember="1" transform="translate(9,-17.2423)">
				<title>Sheet.4751</title>
				<v:userDefs>
					<v:ud v:nameU="msvDisableCustomConnectionPoints" v:prompt="" v:val="VT0(1):5"/>
				</v:userDefs>
				<path d="M9 335.61 L4.5 338.46 L0 335.61 L4.5 332.77 L9 335.61 Z" class="st16"/>
			</g>
			<g id="shape4752-151" v:mID="4752" v:groupContext="shape" v:layerMember="1" transform="translate(9,-11.5761)">
				<title>Sheet.4752</title>
				<v:userDefs>
					<v:ud v:nameU="msvDisableCustomConnectionPoints" v:prompt="" v:val="VT0(1):5"/>
				</v:userDefs>
				<path d="M4.5 332.8 L4.5 338.46 L0 335.61 L0 329.94 L4.5 332.8 Z" class="st17"/>
			</g>
			<g id="shape4753-153" v:mID="4753" v:groupContext="shape" v:layerMember="1" transform="translate(9,-11.5761)">
				<title>Sheet.4753</title>
				<v:userDefs>
					<v:ud v:nameU="msvDisableCustomConnectionPoints" v:prompt="" v:val="VT0(1):5"/>
				</v:userDefs>
				<path d="M0 335.61 L4.5 332.78 L4.5 338.46 L0 335.61 Z" class="st16"/>
			</g>
			<g id="shape4754-155" v:mID="4754" v:groupContext="shape" v:layerMember="1" transform="translate(13.5,-11.5761)">
				<title>Sheet.4754</title>
				<v:userDefs>
					<v:ud v:nameU="msvDisableCustomConnectionPoints" v:prompt="" v:val="VT0(1):5"/>
				</v:userDefs>
				<path d="M4.5 335.61 L0 332.78 L0 338.46 L4.5 335.61 Z" class="st17"/>
			</g>
			<g id="shape4755-157" v:mID="4755" v:groupContext="shape" v:layerMember="1" transform="translate(6.75,5.68434E-14)">
				<title>Sheet.4755</title>
				<v:userDefs>
					<v:ud v:nameU="msvDisableCustomConnectionPoints" v:prompt="" v:val="VT0(1):5"/>
				</v:userDefs>
				<path d="M12.16 336.84 C9.5 336.39 9.39 334.31 9.39 330.95 L4.09 330.95 C4.09 334.31 4 336.39 1.33 336.84 A1.5 1.62357
							 -180 0 0 0 338.46 L13.5 338.46 A1.5 1.62357 -180 0 0 12.16 336.84 Z" class="st18"/>
			</g>
		</g>
		<g id="group4756-160" transform="translate(359.049,-87.2521)" v:mID="4756" v:groupContext="group" v:layerMember="1">
			<v:userDefs>
				<v:ud v:nameU="visNavOrder" v:prompt="" v:val="VT0(972000):26"/>
			</v:userDefs>
			<title>Virtual Machine.4756</title>
			<g id="shape4757-161" v:mID="4757" v:groupContext="shape" v:layerMember="1" transform="translate(0,-7.51714)">
				<title>Sheet.4757</title>
				<v:userDefs>
					<v:ud v:nameU="msvDisableCustomConnectionPoints" v:prompt="" v:val="VT0(1):5"/>
				</v:userDefs>
				<path d="M0 337.49 a0.900021 0.974166 -180 0 0 0.9 0.974143 L26.1 338.46 a0.900021 0.974166 -180 0 0 0.9 -0.974143
							 L27 319.96 a0.900021 0.974166 -180 0 0 -0.9 -0.974143 L0.9 318.98 a0.900021 0.974166 -180 0 0 -0.9 0.974143
							 L0 337.49 Z" class="st14"/>
			</g>
			<g id="shape4758-164" v:mID="4758" v:groupContext="shape" v:layerMember="1" transform="translate(13.5,-11.5761)">
				<title>Sheet.4758</title>
				<v:userDefs>
					<v:ud v:nameU="msvDisableCustomConnectionPoints" v:prompt="" v:val="VT0(1):5"/>
				</v:userDefs>
				<path d="M4.5 329.94 L4.5 335.61 L0 338.46 L0 332.78 L4.5 329.94 Z" class="st15"/>
			</g>
			<g id="shape4759-166" v:mID="4759" v:groupContext="shape" v:layerMember="1" transform="translate(9,-17.2423)">
				<title>Sheet.4759</title>
				<v:userDefs>
					<v:ud v:nameU="msvDisableCustomConnectionPoints" v:prompt="" v:val="VT0(1):5"/>
				</v:userDefs>
				<path d="M9 335.61 L4.5 338.46 L0 335.61 L4.5 332.77 L9 335.61 Z" class="st16"/>
			</g>
			<g id="shape4760-168" v:mID="4760" v:groupContext="shape" v:layerMember="1" transform="translate(9,-11.5761)">
				<title>Sheet.4760</title>
				<v:userDefs>
					<v:ud v:nameU="msvDisableCustomConnectionPoints" v:prompt="" v:val="VT0(1):5"/>
				</v:userDefs>
				<path d="M4.5 332.8 L4.5 338.46 L0 335.61 L0 329.94 L4.5 332.8 Z" class="st17"/>
			</g>
			<g id="shape4761-170" v:mID="4761" v:groupContext="shape" v:layerMember="1" transform="translate(9,-11.5761)">
				<title>Sheet.4761</title>
				<v:userDefs>
					<v:ud v:nameU="msvDisableCustomConnectionPoints" v:prompt="" v:val="VT0(1):5"/>
				</v:userDefs>
				<path d="M0 335.61 L4.5 332.78 L4.5 338.46 L0 335.61 Z" class="st16"/>
			</g>
			<g id="shape4762-172" v:mID="4762" v:groupContext="shape" v:layerMember="1" transform="translate(13.5,-11.5761)">
				<title>Sheet.4762</title>
				<v:userDefs>
					<v:ud v:nameU="msvDisableCustomConnectionPoints" v:prompt="" v:val="VT0(1):5"/>
				</v:userDefs>
				<path d="M4.5 335.61 L0 332.78 L0 338.46 L4.5 335.61 Z" class="st17"/>
			</g>
			<g id="shape4763-174" v:mID="4763" v:groupContext="shape" v:layerMember="1" transform="translate(6.75,5.68434E-14)">
				<title>Sheet.4763</title>
				<v:userDefs>
					<v:ud v:nameU="msvDisableCustomConnectionPoints" v:prompt="" v:val="VT0(1):5"/>
				</v:userDefs>
				<path d="M12.16 336.84 C9.5 336.39 9.39 334.31 9.39 330.95 L4.09 330.95 C4.09 334.31 4 336.39 1.33 336.84 A1.5 1.62357
							 -180 0 0 0 338.46 L13.5 338.46 A1.5 1.62357 -180 0 0 12.16 336.84 Z" class="st18"/>
			</g>
		</g>
		<g id="group4764-177" transform="translate(359.049,-51.2521)" v:mID="4764" v:groupContext="group" v:layerMember="1">
			<v:userDefs>
				<v:ud v:nameU="visNavOrder" v:prompt="" v:val="VT0(973000):26"/>
			</v:userDefs>
			<title>Virtual Machine.4764</title>
			<g id="shape4765-178" v:mID="4765" v:groupContext="shape" v:layerMember="1" transform="translate(0,-7.51714)">
				<title>Sheet.4765</title>
				<v:userDefs>
					<v:ud v:nameU="msvDisableCustomConnectionPoints" v:prompt="" v:val="VT0(1):5"/>
				</v:userDefs>
				<path d="M0 337.49 a0.900021 0.974166 -180 0 0 0.9 0.974143 L26.1 338.46 a0.900021 0.974166 -180 0 0 0.9 -0.974143
							 L27 319.96 a0.900021 0.974166 -180 0 0 -0.9 -0.974143 L0.9 318.98 a0.900021 0.974166 -180 0 0 -0.9 0.974143
							 L0 337.49 Z" class="st14"/>
			</g>
			<g id="shape4766-181" v:mID="4766" v:groupContext="shape" v:layerMember="1" transform="translate(13.5,-11.5761)">
				<title>Sheet.4766</title>
				<v:userDefs>
					<v:ud v:nameU="msvDisableCustomConnectionPoints" v:prompt="" v:val="VT0(1):5"/>
				</v:userDefs>
				<path d="M4.5 329.94 L4.5 335.61 L0 338.46 L0 332.78 L4.5 329.94 Z" class="st15"/>
			</g>
			<g id="shape4767-183" v:mID="4767" v:groupContext="shape" v:layerMember="1" transform="translate(9,-17.2423)">
				<title>Sheet.4767</title>
				<v:userDefs>
					<v:ud v:nameU="msvDisableCustomConnectionPoints" v:prompt="" v:val="VT0(1):5"/>
				</v:userDefs>
				<path d="M9 335.61 L4.5 338.46 L0 335.61 L4.5 332.77 L9 335.61 Z" class="st16"/>
			</g>
			<g id="shape4768-185" v:mID="4768" v:groupContext="shape" v:layerMember="1" transform="translate(9,-11.5761)">
				<title>Sheet.4768</title>
				<v:userDefs>
					<v:ud v:nameU="msvDisableCustomConnectionPoints" v:prompt="" v:val="VT0(1):5"/>
				</v:userDefs>
				<path d="M4.5 332.8 L4.5 338.46 L0 335.61 L0 329.94 L4.5 332.8 Z" class="st17"/>
			</g>
			<g id="shape4769-187" v:mID="4769" v:groupContext="shape" v:layerMember="1" transform="translate(9,-11.5761)">
				<title>Sheet.4769</title>
				<v:userDefs>
					<v:ud v:nameU="msvDisableCustomConnectionPoints" v:prompt="" v:val="VT0(1):5"/>
				</v:userDefs>
				<path d="M0 335.61 L4.5 332.78 L4.5 338.46 L0 335.61 Z" class="st16"/>
			</g>
			<g id="shape4770-189" v:mID="4770" v:groupContext="shape" v:layerMember="1" transform="translate(13.5,-11.5761)">
				<title>Sheet.4770</title>
				<v:userDefs>
					<v:ud v:nameU="msvDisableCustomConnectionPoints" v:prompt="" v:val="VT0(1):5"/>
				</v:userDefs>
				<path d="M4.5 335.61 L0 332.78 L0 338.46 L4.5 335.61 Z" class="st17"/>
			</g>
			<g id="shape4771-191" v:mID="4771" v:groupContext="shape" v:layerMember="1" transform="translate(6.75,5.68434E-14)">
				<title>Sheet.4771</title>
				<v:userDefs>
					<v:ud v:nameU="msvDisableCustomConnectionPoints" v:prompt="" v:val="VT0(1):5"/>
				</v:userDefs>
				<path d="M12.16 336.84 C9.5 336.39 9.39 334.31 9.39 330.95 L4.09 330.95 C4.09 334.31 4 336.39 1.33 336.84 A1.5 1.62357
							 -180 0 0 0 338.46 L13.5 338.46 A1.5 1.62357 -180 0 0 12.16 336.84 Z" class="st18"/>
			</g>
		</g>
		<g id="shape4772-194" v:mID="4772" v:groupContext="shape" v:layerMember="0" transform="translate(396.18,-127.752)">
			<title>Sheet.4772</title>
			<desc>Virtual machine</desc>
			<v:userDefs>
				<v:ud v:nameU="visNavOrder" v:prompt="" v:val="VT0(876000):26"/>
			</v:userDefs>
			<v:textBlock v:margins="rect(0,0,0,0)"/>
			<v:textRect cx="43.8677" cy="329.464" width="87.74" height="18"/>
			<rect x="0" y="320.464" width="87.7353" height="18" rx="4.5" ry="4.5" class="st6"/>
			<text x="0" y="333.06" class="st7" v:langID="1033"><v:paragraph v:spAfter="6"/><v:tabList/>Virtual machine</text>		</g>
		<g id="shape4773-197" v:mID="4773" v:groupContext="shape" v:layerMember="0" transform="translate(396.18,-91.7521)">
			<title>Sheet.4773</title>
			<desc>Virtual machine</desc>
			<v:userDefs>
				<v:ud v:nameU="visNavOrder" v:prompt="" v:val="VT0(974000):26"/>
			</v:userDefs>
			<v:textBlock v:margins="rect(0,0,0,0)"/>
			<v:textRect cx="43.8677" cy="329.464" width="87.74" height="18"/>
			<rect x="0" y="320.464" width="87.7353" height="18" rx="4.5" ry="4.5" class="st6"/>
			<text x="0" y="333.06" class="st7" v:langID="1033"><v:paragraph v:spAfter="6"/><v:tabList/>Virtual machine</text>		</g>
		<g id="shape4774-200" v:mID="4774" v:groupContext="shape" v:layerMember="0" transform="translate(396.18,-55.7521)">
			<title>Sheet.4774</title>
			<desc>Virtual machine</desc>
			<v:userDefs>
				<v:ud v:nameU="visNavOrder" v:prompt="" v:val="VT0(975000):26"/>
			</v:userDefs>
			<v:textBlock v:margins="rect(0,0,0,0)"/>
			<v:textRect cx="43.8677" cy="329.464" width="87.74" height="18"/>
			<rect x="0" y="320.464" width="87.7353" height="18" rx="4.5" ry="4.5" class="st6"/>
			<text x="0" y="333.06" class="st7" v:langID="1033"><v:paragraph v:spAfter="6"/><v:tabList/>Virtual machine</text>		</g>
		<g id="group4783-203" transform="translate(41.6378,-90.9646)" v:mID="4783" v:groupContext="group">
			<v:userDefs>
				<v:ud v:nameU="visNavOrder" v:val="VT0(1112000):26"/>
			</v:userDefs>
			<title>Sheet.4783</title>
			<g id="group4784-204" v:mID="4784" v:groupContext="group">
				<title>a4fd1868-54fe-4ca6-8ff6-3b01866</title>
				<g id="shape4785-205" v:mID="4785" v:groupContext="shape">
					<title>Sheet.4785</title>
					<path d="M21.73 326.37 A7.7205 7.7205 -180 0 0 13.86 318.89 A7.908 7.908 -180 0 0 6.32 324.12 A7.3035 7.3035
								 -180 0 0 0 331.24 A7.419 7.419 -180 0 0 7.6 338.46 L20.73 338.46 A6.438 6.438 -180 0 0 27 332.33
								 A6.1575 6.1575 -180 0 0 21.74 326.37 Z" class="st19"/>
				</g>
				<g id="shape4786-209" v:mID="4786" v:groupContext="shape" transform="translate(6.285,-3.051)">
					<title>Sheet.4786</title>
					<path d="M13.07 335.79 L13.07 330.69 L11.72 330.69 L11.72 336.89 L15.41 336.89 L15.41 335.79 L13.07 335.79 ZM2.36
								 333.29 A2.7375 2.7375 0 0 1 1.59 332.82 a0.6615 0.6615 0 0 1 -0.18 -0.48 a0.513 0.513 0 0 1 0.225
								 -0.45 A1.0245 1.0245 0 0 1 2.27 331.71 A2.43 2.43 0 0 1 3.77 332.15 L3.77 330.86 A3.87 3.87 -180
								 0 0 2.27 330.62 A2.4615 2.4615 -180 0 0 0.63 331.13 A1.62 1.62 -180 0 0 -0 332.46 C0 333.23 0.48
								 333.83 1.5 334.28 A4.3605 4.3605 0 0 1 2.43 334.82 a0.6285 0.6285 0 0 1 0.225 0.48 a0.5715 0.5715
								 0 0 1 -0.24 0.465 A1.209 1.209 0 0 1 1.74 335.93 A2.49 2.49 0 0 1 0.11 335.3 L0.11 336.69 A3.2595
								 3.2595 -180 0 0 1.71 337.05 A2.8155 2.8155 -180 0 0 3.48 336.56 A1.62 1.62 -180 0 0 3.98 335.19
								 A1.572 1.572 -180 0 0 3.6 334.14 A3.6375 3.6375 -180 0 0 2.36 333.29 ZM10.22 335.67 A3.2865 3.2865
								 -180 0 0 10.22 332.19 A2.712 2.712 -180 0 0 9.17 331.07 A3 3 -180 0 0 7.67 330.68 A3.168 3.168 -180
								 0 0 6.05 331.08 A2.784 2.784 -180 0 0 4.95 332.19 A3.6975 3.6975 -180 0 0 4.56 333.9 A3.384 3.384
								 -180 0 0 4.92 335.4 A2.649 2.649 -180 0 0 5.96 336.51 A3.084 3.084 -180 0 0 7.46 336.96 L8.75 338.46
								 L10.56 338.46 L8.72 336.81 A2.685 2.685 -180 0 0 10.22 335.67 ZM8.72 335.3 A1.4115 1.4115 0 0 1
								 7.58 335.82 A1.374 1.374 0 0 1 6.44 335.28 A2.2845 2.2845 0 0 1 6 333.78 A2.2935 2.2935 0 0 1 6.44
								 332.28 A1.5 1.5 0 0 1 7.61 331.73 A1.3035 1.3035 0 0 1 8.73 332.28 A2.4285 2.4285 0 0 1 9.14 333.78
								 A2.1885 2.1885 0 0 1 8.72 335.3 Z" class="st20"/>
				</g>
			</g>
		</g>
		<g id="group4787-211" transform="translate(41.6378,-52.8799)" v:mID="4787" v:groupContext="group">
			<v:userDefs>
				<v:ud v:nameU="visNavOrder" v:val="VT0(1113000):26"/>
			</v:userDefs>
			<title>Icon-compute-23</title>
			<g id="shape4788-212" v:mID="4788" v:groupContext="shape" transform="translate(4.39049,-16.2179)">
				<title>Sheet.4788</title>
				<path d="M4.27 330.94 L0 331.73 L0 337.55 L4.27 338.46 L8.56 336.75 L8.56 332.4 L4.27 330.94 Z" class="st21"/>
			</g>
			<g id="shape4789-216" v:mID="4789" v:groupContext="shape" transform="translate(4.48009,-16.2901)">
				<title>Sheet.4789</title>
				<path d="M4.35 338.45 L8.26 336.86 a0.298673 0.298673 -180 0 0 0.179204 -0.209071 L8.44 332.71 a0.313606 0.313606
							 -180 0 0 -0.194137 -0.268805 L4.29 331.1 L4.11 331.1 L0.22 331.82 a0.298673 0.298673 -180 0 0 -0.224004
							 0.268805 L0 337.36 a0.283739 0.283739 -180 0 0 0.224004 0.283739 L4.15 338.46 a0.477876 0.477876 -180
							 0 0 0.194137 -0.0149336 Z" class="st22"/>
			</g>
			<g id="shape4790-218" v:mID="4790" v:groupContext="shape" transform="translate(4.39049,-16.2179)">
				<title>Sheet.4790</title>
				<path d="M0 331.73 L0 337.55 L4.32 338.46 L4.32 331 L0 331.73 ZM1.82 337.11 L0.61 336.87 L0.61 332.39 L1.82 332.19
							 L1.82 337.11 ZM3.7 337.45 L2.31 337.22 L2.31 332.1 L3.7 331.86 L3.7 337.45 Z" class="st23"/>
			</g>
			<g id="shape4791-220" v:mID="4791" v:groupContext="shape" transform="translate(13.6344,-16.1433)">
				<title>Sheet.4791</title>
				<path d="M4.27 330.94 L0 331.73 L0 337.55 L4.27 338.46 L8.54 336.73 L8.54 332.4 L4.27 330.94 Z" class="st21"/>
			</g>
			<g id="shape4792-223" v:mID="4792" v:groupContext="shape" transform="translate(13.6344,-16.1433)">
				<title>Sheet.4792</title>
				<path d="M0 331.73 L0 337.55 L4.29 338.46 L4.29 331 L0 331.73 ZM1.81 337.11 L0.6 336.87 L0.6 332.39 L1.81 332.19
							 L1.81 337.11 ZM3.69 337.45 L2.3 337.22 L2.3 332.1 L3.69 331.85 L3.69 337.45 Z" class="st23"/>
			</g>
			<g id="shape4793-225" v:mID="4793" v:groupContext="shape" transform="translate(0.0149336,-8.18363)">
				<title>Sheet.4793</title>
				<path d="M4.27 330.94 L0 331.73 L0 337.55 L4.27 338.46 L8.56 336.75 L8.56 332.4 L4.27 330.94 Z" class="st21"/>
			</g>
			<g id="shape4794-228" v:mID="4794" v:groupContext="shape" transform="translate(2.72282E-14,-8.22843)">
				<title>Sheet.4794</title>
				<path d="M0 331.77 L0 337.55 L4.32 338.46 L4.32 331 L0 331.77 ZM1.81 337.17 L0.6 336.91 L0.6 332.43 L1.81 332.22
							 L1.81 337.17 ZM3.7 337.55 L2.31 337.33 L2.31 332.15 L3.7 331.91 L3.7 337.55 Z" class="st23"/>
			</g>
			<g id="shape4795-230" v:mID="4795" v:groupContext="shape" transform="translate(9.22898,-8.22843)">
				<title>Sheet.4795</title>
				<path d="M4.27 330.92 L0 331.71 L0 337.54 L4.27 338.46 L8.54 336.73 L8.54 332.39 L4.27 330.92 Z" class="st21"/>
			</g>
			<g id="shape4796-233" v:mID="4796" v:groupContext="shape" transform="translate(9.22898,-8.22843)">
				<title>Sheet.4796</title>
				<path d="M0 331.71 L0 337.55 L4.3 338.46 L4.3 331 L0 331.71 ZM1.81 337.11 L0.6 336.85 L0.6 332.37 L1.81 332.16 L1.81
							 337.11 ZM3.69 337.43 L2.3 337.21 L2.3 332.09 L3.69 331.85 L3.69 337.43 Z" class="st23"/>
			</g>
			<g id="shape4797-235" v:mID="4797" v:groupContext="shape" transform="translate(18.443,-8.16869)">
				<title>Sheet.4797</title>
				<path d="M4.27 330.94 L0 331.73 L0 337.55 L4.27 338.46 L8.56 336.75 L8.56 332.4 L4.27 330.94 Z" class="st21"/>
			</g>
			<g id="shape4798-238" v:mID="4798" v:groupContext="shape" transform="translate(18.443,-8.22843)">
				<title>Sheet.4798</title>
				<path d="M0 331.79 L0 337.55 L4.32 338.46 L4.32 331 L0 331.79 ZM1.82 337.18 L0.61 336.93 L0.61 332.45 L1.82 332.24
							 L1.82 337.18 ZM3.7 337.51 L2.31 337.28 L2.31 332.16 L3.7 331.92 L3.7 337.51 Z" class="st23"/>
			</g>
			<g id="shape4799-240" v:mID="4799" v:groupContext="shape" transform="translate(4.28595,-0.0597345)">
				<title>Sheet.4799</title>
				<path d="M4.27 330.94 L0 331.71 L0 337.54 L4.27 338.46 L8.56 336.73 L8.56 332.4 L4.27 330.94 Z" class="st21"/>
			</g>
			<g id="shape4800-243" v:mID="4800" v:groupContext="shape" transform="translate(4.36062,-0.162909)">
				<title>Sheet.4800</title>
				<path d="M4.36 338.45 L8.26 336.95 a0.268805 0.268805 -180 0 0 0.179204 -0.268805 L8.44 332.8 a0.298673 0.298673
							 -180 0 0 -0.194137 -0.32854 L4.3 331.13 a0.253872 0.253872 -180 0 0 -0.179204 0 L0.24 331.83 a0.283739
							 0.283739 -180 0 0 -0.238938 0.283739 L0 337.4 a0.283739 0.283739 -180 0 0 0.224004 0.283739 L4.15 338.45
							 a0.343473 0.343473 -180 0 0 0.209071 0 Z" class="st22"/>
			</g>
			<g id="shape4801-245" v:mID="4801" v:groupContext="shape" transform="translate(4.28595,-0.0597345)">
				<title>Sheet.4801</title>
				<path d="M0 331.71 L0 337.54 L4.32 338.46 L4.32 330.88 L0 331.71 ZM1.82 337.11 L0.61 336.85 L0.61 332.37 L1.82 332.16
							 L1.82 337.11 ZM3.7 337.45 L2.31 337.22 L2.31 332.09 L3.7 331.85 L3.7 337.45 Z" class="st23"/>
			</g>
			<g id="shape4802-247" v:mID="4802" v:groupContext="shape" transform="translate(13.5149,-5.68434E-14)">
				<title>Sheet.4802</title>
				<path d="M4.27 330.94 L0 331.73 L0 337.55 L4.27 338.46 L8.56 336.75 L8.56 332.4 L4.27 330.94 Z" class="st21"/>
			</g>
			<g id="shape4803-250" v:mID="4803" v:groupContext="shape" transform="translate(13.5149,-5.68434E-14)">
				<title>Sheet.4803</title>
				<path d="M0 331.73 L0 337.55 L4.32 338.46 L4.32 331 L0 331.73 ZM1.82 337.12 L0.61 336.87 L0.61 332.39 L1.82 332.18
							 L1.82 337.12 ZM3.7 337.45 L2.31 337.22 L2.31 332.1 L3.7 331.86 L3.7 337.45 Z" class="st23"/>
			</g>
		</g>
		<g id="shape5498-252" v:mID="5498" v:groupContext="shape" transform="translate(15.2326,-260.896)">
			<title>Sheet.5498</title>
			<v:userDefs>
				<v:ud v:nameU="visNavOrder" v:val="VT0(1151000):26"/>
			</v:userDefs>
			<path d="M0 338.46 L487.12 338.46" class="st24"/>
		</g>
		<g id="shape5499-255" v:mID="5499" v:groupContext="shape" transform="translate(-281.044,77.006) rotate(-90)">
			<title>Sheet.5499</title>
			<v:userDefs>
				<v:ud v:nameU="visNavOrder" v:val="VT0(1152000):26"/>
			</v:userDefs>
			<path d="M0 338.46 L33.19 338.46" class="st24"/>
		</g>
	</g>
</svg>
