<?xml version="1.0" encoding="UTF-8" standalone="no"?>
<!DOCTYPE svg PUBLIC "-//W3C//DTD SVG 1.1//EN" "http://www.w3.org/Graphics/SVG/1.1/DTD/svg11.dtd">
<!-- Generated by Microsoft Visio, SVG Export vm-security-configure.svg Page-1 -->
<svg xmlns="http://www.w3.org/2000/svg" xmlns:xlink="http://www.w3.org/1999/xlink" xmlns:ev="http://www.w3.org/2001/xml-events"
		xmlns:v="http://schemas.microsoft.com/visio/2003/SVGExtensions/" width="6.38308in" height="3.29955in"
		viewBox="0 0 459.582 237.568" xml:space="preserve" color-interpolation-filters="sRGB" class="st37">
	<v:documentProperties v:langID="1033" v:viewMarkup="false"/>

	<style type="text/css">
	<![CDATA[
		.st1 {fill:#ffffff;stroke:none;stroke-width:1}
		.st2 {visibility:visible}
		.st3 {fill:#000000;fill-opacity:0.15;filter:url(#filter_2);stroke:none}
		.st4 {fill:#cce9ff;stroke:none;stroke-width:1}
		.st5 {fill:none;stroke:none;stroke-width:1}
		.st6 {fill:#000000;font-family:Segoe UI Semibold;font-size:1.5em}
		.st7 {fill:#e6e6e6;stroke:none;stroke-width:1}
		.st8 {fill:none;stroke:none;stroke-width:0.25}
		.st9 {fill:#000000;font-family:Segoe UI Semibold;font-size:1.16666em}
		.st10 {fill:#000000;font-family:Segoe UI Semibold;font-size:1.00001em}
		.st11 {fill:url(#grad0-35);stroke:none;stroke-width:0.25}
		.st12 {fill:#50e6ff;stroke:none;stroke-width:0.25}
		.st13 {fill:#c3f1ff;stroke:none;stroke-width:0.25}
		.st14 {fill:#9cebff;stroke:none;stroke-width:0.25}
		.st15 {fill:url(#grad0-49);stroke:none;stroke-width:0.25}
		.st16 {fill:#000000;font-family:Segoe UI;font-size:1.00001em}
		.st17 {fill:#000000;fill-opacity:0.15;filter:url(#filter_2);stroke:#000000;stroke-opacity:0.15}
		.st18 {fill:#cce9ff;stroke:#ff0000;stroke-width:1}
		.st19 {font-size:1em}
		.st20 {fill:#0078d4;stroke:none;stroke-width:0.25}
		.st21 {fill:url(#grad0-35);stroke:none;stroke-width:0.75}
		.st22 {fill:#ffffff;stroke:none;stroke-width:0.75}
		.st23 {fill:#0078d4;stroke:none;stroke-width:0.75}
		.st24 {fill:#83b9f9;stroke:none;stroke-width:0.75}
		.st25 {fill:#5ea0ef;stroke:none;stroke-width:0.75}
		.st26 {fill:#83b9f9;fill-opacity:0.2;stroke:none;stroke-width:0.75}
		.st27 {fill:#5ea0ef;fill-opacity:0.2;stroke:none;stroke-width:0.75}
		.st28 {fill:url(#grad0-149);stroke:none;stroke-width:0.75}
		.st29 {fill:#76bc2d;stroke:none;stroke-width:0.75}
		.st30 {fill:#5e9624;stroke:none;stroke-width:0.75}
		.st31 {fill:url(#grad0-167);stroke:none;stroke-width:0.75}
		.st32 {fill:#005ba1;stroke:none;stroke-width:0.75}
		.st33 {marker-end:url(#mrkr1-180);stroke:#0078d4;stroke-linecap:round;stroke-linejoin:round;stroke-width:1}
		.st34 {fill:#0078d4;fill-opacity:1;stroke:#0078d4;stroke-opacity:1;stroke-width:0.20161290322581}
		.st35 {fill:#0078d4;stroke:none;stroke-width:1}
		.st36 {fill:#ffffff;font-family:Segoe UI;font-size:1.00001em}
		.st37 {fill:none;fill-rule:evenodd;font-size:12px;overflow:visible;stroke-linecap:square;stroke-miterlimit:3}
	]]>
	</style>

	<defs id="Patterns_And_Gradients">
		<linearGradient id="grad0-35" x1="0" y1="0" x2="1" y2="0" gradientTransform="rotate(-90 0.5 0.5)">
			<stop offset="0" stop-color="#0078d4" stop-opacity="1"/>
			<stop offset="0.82" stop-color="#5ea0ef" stop-opacity="1"/>
		</linearGradient>
		<linearGradient id="grad0-49" x1="0" y1="0" x2="1" y2="0" gradientTransform="rotate(-90 0.5 0.5)">
			<stop offset="0.15" stop-color="#cccccc" stop-opacity="1"/>
			<stop offset="1" stop-color="#707070" stop-opacity="1"/>
		</linearGradient>
		<linearGradient id="grad0-149" x1="0" y1="0" x2="1" y2="0" gradientTransform="rotate(-90 0.5 0.5)">
			<stop offset="0" stop-color="#1490df" stop-opacity="1"/>
			<stop offset="0.98" stop-color="#1f56a3" stop-opacity="1"/>
		</linearGradient>
		<linearGradient id="grad0-167" x1="0" y1="0" x2="1" y2="0" gradientTransform="rotate(76.639598616806 0.5 0.5)">
			<stop offset="0" stop-color="#0078d4" stop-opacity="1"/>
			<stop offset="0.02" stop-color="#0d7ed8" stop-opacity="1"/>
			<stop offset="0.08" stop-color="#2b8ae0" stop-opacity="1"/>
			<stop offset="0.15" stop-color="#4194e7" stop-opacity="1"/>
			<stop offset="0.22" stop-color="#519beb" stop-opacity="1"/>
			<stop offset="0.29" stop-color="#5b9fee" stop-opacity="1"/>
			<stop offset="0.4" stop-color="#5ea0ef" stop-opacity="1"/>
			<stop offset="0.55" stop-color="#5b9fee" stop-opacity="1"/>
			<stop offset="0.68" stop-color="#509aeb" stop-opacity="1"/>
			<stop offset="0.8" stop-color="#3f92e6" stop-opacity="1"/>
			<stop offset="0.91" stop-color="#2688df" stop-opacity="1"/>
			<stop offset="0.99" stop-color="#127fd9" stop-opacity="1"/>
		</linearGradient>
	</defs>
	<defs id="Markers">
		<g id="lend1">
			<path d="M 1 -1 L 0 0 L 1 1 " style="stroke-linecap:round;stroke-linejoin:round;fill:none"/>
		</g>
		<marker id="mrkr1-180" class="st34" v:arrowType="1" v:arrowSize="4" orient="auto" markerUnits="strokeWidth"
				overflow="visible">
			<use xlink:href="#lend1" transform="scale(-4.96,-4.96) "/>
		</marker>
	</defs>
	<defs id="Filters">
		<filter id="filter_2">
			<feGaussianBlur stdDeviation="2"/>
		</filter>
	</defs>
	<g v:mID="0" v:index="1" v:groupContext="foregroundPage">
		<v:userDefs>
			<v:ud v:nameU="visNavType" v:val="VT0(1):26"/>
		</v:userDefs>
		<title>Page-1</title>
		<v:pageProperties v:drawingScale="1" v:pageScale="1" v:drawingUnits="19" v:shadowOffsetX="9" v:shadowOffsetY="-9"/>
		<g id="group4979-1" transform="translate(4.15344,-4.19641)" v:mID="4979" v:groupContext="group">
			<v:userDefs>
				<v:ud v:nameU="visNavOrder" v:val="VT0(1141000):26"/>
			</v:userDefs>
			<title>Sheet.4979</title>
			<g id="shape4966-2" v:mID="4966" v:groupContext="shape" transform="translate(-9.59233E-14,-1.38747)">
				<title>Sheet.4966</title>
				<v:userDefs>
					<v:ud v:nameU="visNavOrder" v:prompt="" v:val="VT0(1137000):26"/>
				</v:userDefs>
				<rect x="0" y="7.73021" width="452.085" height="229.838" rx="4.5" ry="4.5" class="st1"/>
			</g>
			<g id="shape4352-4" v:mID="4352" v:groupContext="shape">
				<title>Sheet.4352</title>
				<v:userDefs>
					<v:ud v:nameU="visNavOrder" v:val="VT0(1018000):26"/>
				</v:userDefs>
				<rect x="0" y="6.34275" width="452.736" height="231.225" rx="4.5" ry="4.5" class="st1"/>
			</g>
			<g id="shape3583-6" v:mID="3583" v:groupContext="shape" transform="translate(-6.39488E-14,-1.94999)">
				<title>Sheet.3583</title>
				<v:userDefs>
					<v:ud v:nameU="visNavOrder" v:val="VT0(868000):26"/>
				</v:userDefs>
				<g id="shadow3583-7" v:groupContext="shadow" v:shadowOffsetX="1.22465E-16" v:shadowOffsetY="-2" v:shadowType="1"
						v:shadowScale="1.01" transform="matrix(1.01,0,0,1.01,-1.15341,0.770698)" class="st2">
					<rect x="0" y="8.29274" width="230.683" height="229.275" rx="4.5" ry="4.5" class="st3"/>
				</g>
				<rect x="0" y="8.29274" width="230.683" height="229.275" rx="4.5" ry="4.5" class="st4"/>
			</g>
			<g id="shape3586-11" v:mID="3586" v:groupContext="shape" transform="translate(8.9964,-198.736)">
				<title>Sheet.3586</title>
				<desc>Microsoft Entra ID tenant</desc>
				<v:userDefs>
					<v:ud v:nameU="visNavOrder" v:prompt="" v:val="VT0(840000):26"/>
				</v:userDefs>
				<v:textBlock v:margins="rect(4,4,4,0)" v:verticalAlign="0"/>
				<v:textRect cx="105.471" cy="223.079" width="210.95" height="28.9784"/>
				<rect x="0" y="208.589" width="210.941" height="28.9784" rx="4.5" ry="4.5" class="st5"/>
				<text x="0" y="228.79" class="st6" v:langID="1033"><v:paragraph v:spAfter="6"/><v:tabList/>Microsoft Entra ID tenant</text>			</g>
			<g id="shape3587-14" v:mID="3587" v:groupContext="shape" transform="translate(9.22731,-11.5125)">
				<title>Sheet.3587</title>
				<v:userDefs>
					<v:ud v:nameU="visNavOrder" v:prompt="" v:val="VT0(841000):26"/>
				</v:userDefs>
				<g id="shadow3587-15" v:groupContext="shadow" v:shadowOffsetX="1.22465E-16" v:shadowOffsetY="-2" v:shadowType="1"
						v:shadowScale="1.01" transform="matrix(1.01,0,0,1.01,-1.06114,0.542868)" class="st2">
					<rect x="0" y="53.8586" width="212.228" height="183.709" rx="4.5" ry="4.5" class="st3"/>
				</g>
				<rect x="0" y="53.8586" width="212.228" height="183.709" rx="4.5" ry="4.5" class="st7"/>
			</g>
			<g id="shape3608-19" v:mID="3608" v:groupContext="shape" transform="translate(17.9996,-161.918)">
				<title>Sheet.3608</title>
				<desc>Azure Subscription</desc>
				<v:userDefs>
					<v:ud v:nameU="visNavOrder" v:prompt="" v:val="VT0(869000):26"/>
				</v:userDefs>
				<v:textBlock v:margins="rect(0,0,0,0)"/>
				<v:textRect cx="96.768" cy="223.168" width="193.54" height="28.8"/>
				<rect x="0" y="208.768" width="193.536" height="28.8" class="st8"/>
				<text x="-0" y="227.37" class="st9" v:langID="1033"><v:paragraph v:spAfter="6"/><v:tabList/>Azure Subscription</text>			</g>
			<g id="shape3588-22" v:mID="3588" v:groupContext="shape" transform="translate(18.4546,-21.4496)">
				<title>Sheet.3588</title>
				<v:userDefs>
					<v:ud v:nameU="visNavOrder" v:prompt="" v:val="VT0(873000):26"/>
				</v:userDefs>
				<g id="shadow3588-23" v:groupContext="shadow" v:shadowOffsetX="1.22465E-16" v:shadowOffsetY="-2" v:shadowType="1"
						v:shadowScale="1.01" transform="matrix(1.01,0,0,1.01,-0.968867,0.326323)" class="st2">
					<rect x="0" y="97.1677" width="193.773" height="140.4" rx="4.5" ry="4.5" class="st3"/>
				</g>
				<rect x="0" y="97.1677" width="193.773" height="140.4" rx="4.5" ry="4.5" class="st1"/>
			</g>
			<g id="shape3590-27" v:mID="3590" v:groupContext="shape" transform="translate(27.0012,-138.153)">
				<title>Sheet.3590</title>
				<desc>Resource Group</desc>
				<v:userDefs>
					<v:ud v:nameU="visNavOrder" v:val="VT0(878000):26"/>
				</v:userDefs>
				<v:textBlock v:margins="rect(0,0,0,0)" v:verticalAlign="0"/>
				<v:textRect cx="84.3744" cy="230.218" width="168.75" height="14.6993"/>
				<rect x="0" y="222.868" width="168.749" height="14.6993" class="st8"/>
				<text x="0" y="233.67" class="st10" v:langID="1033"><v:paragraph v:spAfter="6"/><v:tabList/>Resource Group</text>			</g>
			<g id="group4178-30" transform="translate(27.0012,-31.425)" v:mID="4178" v:groupContext="group">
				<v:userDefs>
					<v:ud v:nameU="visNavOrder" v:val="VT0(996000):26"/>
				</v:userDefs>
				<title>Sheet.4178</title>
				<g id="group4062-31" transform="translate(1.29896E-13,-72)" v:mID="4062" v:groupContext="group">
					<v:userDefs>
						<v:ud v:nameU="visNavOrder" v:prompt="" v:val="VT0(971000):26"/>
					</v:userDefs>
					<title>Virtual Machine.3650</title>
					<g id="shape4063-32" v:mID="4063" v:groupContext="shape" transform="translate(0,-7.51714)">
						<title>Sheet.4063</title>
						<v:userDefs>
							<v:ud v:nameU="msvDisableCustomConnectionPoints" v:prompt="" v:val="VT0(1):5"/>
						</v:userDefs>
						<path d="M0 236.59 a0.900021 0.974166 -180 0 0 0.9 0.974143 L26.1 237.57 a0.900021 0.974166 -180 0 0 0.9
									 -0.974143 L27 219.06 a0.900021 0.974166 -180 0 0 -0.9 -0.974143 L0.9 218.08 a0.900021 0.974166
									 -180 0 0 -0.9 0.974143 L0 236.59 Z" class="st11"/>
					</g>
					<g id="shape4064-36" v:mID="4064" v:groupContext="shape" transform="translate(13.5,-11.5761)">
						<title>Sheet.4064</title>
						<v:userDefs>
							<v:ud v:nameU="msvDisableCustomConnectionPoints" v:prompt="" v:val="VT0(1):5"/>
						</v:userDefs>
						<path d="M4.5 229.04 L4.5 234.71 L0 237.57 L0 231.89 L4.5 229.04 Z" class="st12"/>
					</g>
					<g id="shape4065-38" v:mID="4065" v:groupContext="shape" transform="translate(9,-17.2423)">
						<title>Sheet.4065</title>
						<v:userDefs>
							<v:ud v:nameU="msvDisableCustomConnectionPoints" v:prompt="" v:val="VT0(1):5"/>
						</v:userDefs>
						<path d="M9 234.71 L4.5 237.57 L0 234.71 L4.5 231.87 L9 234.71 Z" class="st13"/>
					</g>
					<g id="shape4066-40" v:mID="4066" v:groupContext="shape" transform="translate(9,-11.5761)">
						<title>Sheet.4066</title>
						<v:userDefs>
							<v:ud v:nameU="msvDisableCustomConnectionPoints" v:prompt="" v:val="VT0(1):5"/>
						</v:userDefs>
						<path d="M4.5 231.9 L4.5 237.57 L0 234.71 L0 229.04 L4.5 231.9 Z" class="st14"/>
					</g>
					<g id="shape4067-42" v:mID="4067" v:groupContext="shape" transform="translate(9,-11.5761)">
						<title>Sheet.4067</title>
						<v:userDefs>
							<v:ud v:nameU="msvDisableCustomConnectionPoints" v:prompt="" v:val="VT0(1):5"/>
						</v:userDefs>
						<path d="M0 234.71 L4.5 231.89 L4.5 237.57 L0 234.71 Z" class="st13"/>
					</g>
					<g id="shape4068-44" v:mID="4068" v:groupContext="shape" transform="translate(13.5,-11.5761)">
						<title>Sheet.4068</title>
						<v:userDefs>
							<v:ud v:nameU="msvDisableCustomConnectionPoints" v:prompt="" v:val="VT0(1):5"/>
						</v:userDefs>
						<path d="M4.5 234.71 L0 231.89 L0 237.57 L4.5 234.71 Z" class="st14"/>
					</g>
					<g id="shape4069-46" v:mID="4069" v:groupContext="shape" transform="translate(6.75,0)">
						<title>Sheet.4069</title>
						<v:userDefs>
							<v:ud v:nameU="msvDisableCustomConnectionPoints" v:prompt="" v:val="VT0(1):5"/>
						</v:userDefs>
						<path d="M12.16 235.94 C9.5 235.49 9.39 233.41 9.39 230.05 L4.09 230.05 C4.09 233.41 4 235.49 1.33 235.94
									 A1.5 1.62357 -180 0 0 0 237.57 L13.5 237.57 A1.5 1.62357 -180 0 0 12.16 235.94 Z" class="st15"/>
					</g>
				</g>
				<g id="group4070-50" transform="translate(1.29896E-13,-36)" v:mID="4070" v:groupContext="group">
					<v:userDefs>
						<v:ud v:nameU="visNavOrder" v:prompt="" v:val="VT0(972000):26"/>
					</v:userDefs>
					<title>Virtual Machine.3658</title>
					<g id="shape4071-51" v:mID="4071" v:groupContext="shape" transform="translate(0,-7.51714)">
						<title>Sheet.4071</title>
						<v:userDefs>
							<v:ud v:nameU="msvDisableCustomConnectionPoints" v:prompt="" v:val="VT0(1):5"/>
						</v:userDefs>
						<path d="M0 236.59 a0.900021 0.974166 -180 0 0 0.9 0.974143 L26.1 237.57 a0.900021 0.974166 -180 0 0 0.9
									 -0.974143 L27 219.06 a0.900021 0.974166 -180 0 0 -0.9 -0.974143 L0.9 218.08 a0.900021 0.974166
									 -180 0 0 -0.9 0.974143 L0 236.59 Z" class="st11"/>
					</g>
					<g id="shape4072-54" v:mID="4072" v:groupContext="shape" transform="translate(13.5,-11.5761)">
						<title>Sheet.4072</title>
						<v:userDefs>
							<v:ud v:nameU="msvDisableCustomConnectionPoints" v:prompt="" v:val="VT0(1):5"/>
						</v:userDefs>
						<path d="M4.5 229.04 L4.5 234.71 L0 237.57 L0 231.89 L4.5 229.04 Z" class="st12"/>
					</g>
					<g id="shape4073-56" v:mID="4073" v:groupContext="shape" transform="translate(9,-17.2423)">
						<title>Sheet.4073</title>
						<v:userDefs>
							<v:ud v:nameU="msvDisableCustomConnectionPoints" v:prompt="" v:val="VT0(1):5"/>
						</v:userDefs>
						<path d="M9 234.71 L4.5 237.57 L0 234.71 L4.5 231.87 L9 234.71 Z" class="st13"/>
					</g>
					<g id="shape4074-58" v:mID="4074" v:groupContext="shape" transform="translate(9,-11.5761)">
						<title>Sheet.4074</title>
						<v:userDefs>
							<v:ud v:nameU="msvDisableCustomConnectionPoints" v:prompt="" v:val="VT0(1):5"/>
						</v:userDefs>
						<path d="M4.5 231.9 L4.5 237.57 L0 234.71 L0 229.04 L4.5 231.9 Z" class="st14"/>
					</g>
					<g id="shape4075-60" v:mID="4075" v:groupContext="shape" transform="translate(9,-11.5761)">
						<title>Sheet.4075</title>
						<v:userDefs>
							<v:ud v:nameU="msvDisableCustomConnectionPoints" v:prompt="" v:val="VT0(1):5"/>
						</v:userDefs>
						<path d="M0 234.71 L4.5 231.89 L4.5 237.57 L0 234.71 Z" class="st13"/>
					</g>
					<g id="shape4076-62" v:mID="4076" v:groupContext="shape" transform="translate(13.5,-11.5761)">
						<title>Sheet.4076</title>
						<v:userDefs>
							<v:ud v:nameU="msvDisableCustomConnectionPoints" v:prompt="" v:val="VT0(1):5"/>
						</v:userDefs>
						<path d="M4.5 234.71 L0 231.89 L0 237.57 L4.5 234.71 Z" class="st14"/>
					</g>
					<g id="shape4077-64" v:mID="4077" v:groupContext="shape" transform="translate(6.75,0)">
						<title>Sheet.4077</title>
						<v:userDefs>
							<v:ud v:nameU="msvDisableCustomConnectionPoints" v:prompt="" v:val="VT0(1):5"/>
						</v:userDefs>
						<path d="M12.16 235.94 C9.5 235.49 9.39 233.41 9.39 230.05 L4.09 230.05 C4.09 233.41 4 235.49 1.33 235.94
									 A1.5 1.62357 -180 0 0 0 237.57 L13.5 237.57 A1.5 1.62357 -180 0 0 12.16 235.94 Z" class="st15"/>
					</g>
				</g>
				<g id="group4078-67" v:mID="4078" v:groupContext="group">
					<v:userDefs>
						<v:ud v:nameU="visNavOrder" v:prompt="" v:val="VT0(973000):26"/>
					</v:userDefs>
					<title>Virtual Machine.3666</title>
					<g id="shape4079-68" v:mID="4079" v:groupContext="shape" transform="translate(0,-7.51714)">
						<title>Sheet.4079</title>
						<v:userDefs>
							<v:ud v:nameU="msvDisableCustomConnectionPoints" v:prompt="" v:val="VT0(1):5"/>
						</v:userDefs>
						<path d="M0 236.59 a0.900021 0.974166 -180 0 0 0.9 0.974143 L26.1 237.57 a0.900021 0.974166 -180 0 0 0.9
									 -0.974143 L27 219.06 a0.900021 0.974166 -180 0 0 -0.9 -0.974143 L0.9 218.08 a0.900021 0.974166
									 -180 0 0 -0.9 0.974143 L0 236.59 Z" class="st11"/>
					</g>
					<g id="shape4080-71" v:mID="4080" v:groupContext="shape" transform="translate(13.5,-11.5761)">
						<title>Sheet.4080</title>
						<v:userDefs>
							<v:ud v:nameU="msvDisableCustomConnectionPoints" v:prompt="" v:val="VT0(1):5"/>
						</v:userDefs>
						<path d="M4.5 229.04 L4.5 234.71 L0 237.57 L0 231.89 L4.5 229.04 Z" class="st12"/>
					</g>
					<g id="shape4081-73" v:mID="4081" v:groupContext="shape" transform="translate(9,-17.2423)">
						<title>Sheet.4081</title>
						<v:userDefs>
							<v:ud v:nameU="msvDisableCustomConnectionPoints" v:prompt="" v:val="VT0(1):5"/>
						</v:userDefs>
						<path d="M9 234.71 L4.5 237.57 L0 234.71 L4.5 231.87 L9 234.71 Z" class="st13"/>
					</g>
					<g id="shape4082-75" v:mID="4082" v:groupContext="shape" transform="translate(9,-11.5761)">
						<title>Sheet.4082</title>
						<v:userDefs>
							<v:ud v:nameU="msvDisableCustomConnectionPoints" v:prompt="" v:val="VT0(1):5"/>
						</v:userDefs>
						<path d="M4.5 231.9 L4.5 237.57 L0 234.71 L0 229.04 L4.5 231.9 Z" class="st14"/>
					</g>
					<g id="shape4083-77" v:mID="4083" v:groupContext="shape" transform="translate(9,-11.5761)">
						<title>Sheet.4083</title>
						<v:userDefs>
							<v:ud v:nameU="msvDisableCustomConnectionPoints" v:prompt="" v:val="VT0(1):5"/>
						</v:userDefs>
						<path d="M0 234.71 L4.5 231.89 L4.5 237.57 L0 234.71 Z" class="st13"/>
					</g>
					<g id="shape4084-79" v:mID="4084" v:groupContext="shape" transform="translate(13.5,-11.5761)">
						<title>Sheet.4084</title>
						<v:userDefs>
							<v:ud v:nameU="msvDisableCustomConnectionPoints" v:prompt="" v:val="VT0(1):5"/>
						</v:userDefs>
						<path d="M4.5 234.71 L0 231.89 L0 237.57 L4.5 234.71 Z" class="st14"/>
					</g>
					<g id="shape4085-81" v:mID="4085" v:groupContext="shape" transform="translate(6.75,0)">
						<title>Sheet.4085</title>
						<v:userDefs>
							<v:ud v:nameU="msvDisableCustomConnectionPoints" v:prompt="" v:val="VT0(1):5"/>
						</v:userDefs>
						<path d="M12.16 235.94 C9.5 235.49 9.39 233.41 9.39 230.05 L4.09 230.05 C4.09 233.41 4 235.49 1.33 235.94
									 A1.5 1.62357 -180 0 0 0 237.57 L13.5 237.57 A1.5 1.62357 -180 0 0 12.16 235.94 Z" class="st15"/>
					</g>
				</g>
				<g id="shape3613-84" v:mID="3613" v:groupContext="shape" transform="translate(37.1312,-76.5)">
					<title>Sheet.3613</title>
					<desc>Virtual machine</desc>
					<v:userDefs>
						<v:ud v:nameU="visNavOrder" v:prompt="" v:val="VT0(876000):26"/>
					</v:userDefs>
					<v:textBlock v:margins="rect(0,0,0,0)"/>
					<v:textRect cx="43.8677" cy="228.568" width="87.74" height="18"/>
					<rect x="0" y="219.568" width="87.7353" height="18" rx="4.5" ry="4.5" class="st8"/>
					<text x="0" y="232.17" class="st16" v:langID="1033"><v:paragraph v:spAfter="6"/><v:tabList/>Virtual machine</text>				</g>
				<g id="shape4090-87" v:mID="4090" v:groupContext="shape" transform="translate(37.1312,-40.5)">
					<title>Sheet.4090</title>
					<desc>Virtual machine</desc>
					<v:userDefs>
						<v:ud v:nameU="visNavOrder" v:prompt="" v:val="VT0(974000):26"/>
					</v:userDefs>
					<v:textBlock v:margins="rect(0,0,0,0)"/>
					<v:textRect cx="43.8677" cy="228.568" width="87.74" height="18"/>
					<rect x="0" y="219.568" width="87.7353" height="18" rx="4.5" ry="4.5" class="st8"/>
					<text x="0" y="232.17" class="st16" v:langID="1033"><v:paragraph v:spAfter="6"/><v:tabList/>Virtual machine</text>				</g>
				<g id="shape4091-90" v:mID="4091" v:groupContext="shape" transform="translate(37.1312,-4.5)">
					<title>Sheet.4091</title>
					<desc>Virtual machine</desc>
					<v:userDefs>
						<v:ud v:nameU="visNavOrder" v:prompt="" v:val="VT0(975000):26"/>
					</v:userDefs>
					<v:textBlock v:margins="rect(0,0,0,0)"/>
					<v:textRect cx="43.8677" cy="228.568" width="87.74" height="18"/>
					<rect x="0" y="219.568" width="87.7353" height="18" rx="4.5" ry="4.5" class="st8"/>
					<text x="0" y="232.17" class="st16" v:langID="1033"><v:paragraph v:spAfter="6"/><v:tabList/>Virtual machine</text>				</g>
			</g>
			<g id="group4330-93" transform="translate(262.483,-2.32519)" v:mID="4330" v:groupContext="group">
				<v:userDefs>
					<v:ud v:nameU="visNavOrder" v:val="VT0(1006000):26"/>
				</v:userDefs>
				<title>Sheet.4330</title>
				<g id="shape4147-94" v:mID="4147" v:groupContext="shape">
					<title>Sheet.4147</title>
					<v:userDefs>
						<v:ud v:nameU="visNavOrder" v:prompt="" v:val="VT0(990000):26"/>
					</v:userDefs>
					<g id="shadow4147-95" v:groupContext="shadow" v:shadowOffsetX="1.22465E-16" v:shadowOffsetY="-2"
							v:shadowType="1" v:shadowScale="1.01" transform="matrix(1.01,0,0,1.01,-0.945,0.766946)" class="st2">
						<rect x="0" y="9.04313" width="189" height="228.525" rx="4.5" ry="4.5" class="st3"/>
					</g>
					<rect x="0" y="9.04313" width="189" height="228.525" rx="4.5" ry="4.5" class="st1"/>
				</g>
				<g id="shape4148-99" v:mID="4148" v:groupContext="shape" transform="translate(9.00116,-204.828)">
					<title>Sheet.4148</title>
					<desc>Resource Group</desc>
					<v:userDefs>
						<v:ud v:nameU="visNavOrder" v:val="VT0(992000):26"/>
					</v:userDefs>
					<v:textBlock v:margins="rect(0,0,0,0)" v:verticalAlign="0"/>
					<v:textRect cx="84.3744" cy="230.218" width="168.75" height="14.6993"/>
					<rect x="0" y="222.868" width="168.749" height="14.6993" class="st8"/>
					<text x="0" y="233.67" class="st10" v:langID="1033"><v:paragraph v:spAfter="6"/><v:tabList/>Resource Group</text>				</g>
				<g id="shape3589-102" v:mID="3589" v:groupContext="shape" transform="translate(9,-9.5625)">
					<title>Sheet.3589</title>
					<v:userDefs>
						<v:ud v:nameU="visNavOrder" v:prompt="" v:val="VT0(874000):26"/>
					</v:userDefs>
					<g id="shadow3589-103" v:groupContext="shadow" v:shadowOffsetX="1.22465E-16" v:shadowOffsetY="-2"
							v:shadowType="1" v:shadowScale="1.01" transform="matrix(1.01,0,0,1.01,-0.855,0.56201)" class="st2">
						<rect x="0" y="50.0302" width="171" height="187.538" rx="4.5" ry="4.5" class="st17"/>
					</g>
					<rect x="0" y="50.0302" width="171" height="187.538" rx="4.5" ry="4.5" class="st18"/>
				</g>
				<g id="shape3591-107" v:mID="3591" v:groupContext="shape" transform="translate(18.5628,-175.203)">
					<title>Sheet.3591</title>
					<desc>Virtual machine</desc>
					<v:userDefs>
						<v:ud v:nameU="visNavOrder" v:val="VT0(879000):26"/>
					</v:userDefs>
					<v:textBlock v:margins="rect(0,0,0,0)" v:verticalAlign="0"/>
					<v:textRect cx="78.9186" cy="230.218" width="157.84" height="14.6993"/>
					<rect x="0" y="222.868" width="157.837" height="14.6993" class="st8"/>
					<text x="-0" y="233.67" class="st10" v:langID="1033"><v:paragraph v:spAfter="6"/><v:tabList/>Virtual machine</text>				</g>
				<g id="shape4234-110" v:mID="4234" v:groupContext="shape" transform="translate(55.6939,-144.974)">
					<title>Sheet.4234</title>
					<desc>Applications</desc>
					<v:userDefs>
						<v:ud v:nameU="visNavOrder" v:prompt="" v:val="VT0(876000):26"/>
					</v:userDefs>
					<v:textBlock v:margins="rect(0,0,0,0)"/>
					<v:textRect cx="49.103" cy="228.568" width="98.21" height="18"/>
					<rect x="0" y="219.568" width="98.2061" height="18" rx="4.5" ry="4.5" class="st8"/>
					<text x="-0" y="232.17" class="st16" v:langID="1033"><v:paragraph v:spAfter="6"/><v:tabList/>Applications</text>				</g>
				<g id="shape4235-113" v:mID="4235" v:groupContext="shape" transform="translate(55.6939,-108.974)">
					<title>Sheet.4235</title>
					<desc>Operating system</desc>
					<v:userDefs>
						<v:ud v:nameU="visNavOrder" v:prompt="" v:val="VT0(974000):26"/>
					</v:userDefs>
					<v:textBlock v:margins="rect(0,0,0,0)"/>
					<v:textRect cx="49.103" cy="228.568" width="98.21" height="18"/>
					<rect x="0" y="219.568" width="98.2061" height="18" rx="4.5" ry="4.5" class="st8"/>
					<text x="-0" y="232.17" class="st16" v:langID="1033"><v:paragraph v:spAfter="6"/><v:tabList/>Operating system</text>				</g>
				<g id="shape4236-116" v:mID="4236" v:groupContext="shape" transform="translate(55.6939,-72.9741)">
					<title>Sheet.4236</title>
					<desc>Disks</desc>
					<v:userDefs>
						<v:ud v:nameU="visNavOrder" v:prompt="" v:val="VT0(975000):26"/>
					</v:userDefs>
					<v:textBlock v:margins="rect(0,0,0,0)"/>
					<v:textRect cx="49.103" cy="228.568" width="98.21" height="18"/>
					<rect x="0" y="219.568" width="98.2061" height="18" rx="4.5" ry="4.5" class="st8"/>
					<text x="-0" y="232.17" class="st16" v:langID="1033"><v:paragraph v:spAfter="6"/><v:tabList/>Disks</text>				</g>
				<g id="shape4268-119" v:mID="4268" v:groupContext="shape" transform="translate(18.8964,-18.072)">
					<title>Sheet.4268</title>
					<desc>Boot loaders OS Kernel Drivers</desc>
					<v:userDefs>
						<v:ud v:nameU="visNavOrder" v:prompt="" v:val="VT0(1001000):26"/>
					</v:userDefs>
					<v:textBlock v:margins="rect(0,0,0,0)" v:verticalAlign="0"/>
					<v:textRect cx="36" cy="216.867" width="72" height="41.4021"/>
					<rect x="0" y="196.166" width="72" height="41.4021" rx="4.5" ry="4.5" class="st8"/>
					<text x="-0" y="206.97" class="st16" v:langID="1033"><v:paragraph/><v:tabList/>Boot loaders<v:newlineChar/><tspan
								x="-0" dy="1.2em" class="st19">OS Kernel<v:newlineChar/></tspan><tspan x="-0" dy="1.2em"
								class="st19">Drivers</tspan></text>				</g>
				<g id="shape4269-124" v:mID="4269" v:groupContext="shape" transform="translate(99,-29.7731)">
					<title>Sheet.4269</title>
					<desc>TPM</desc>
					<v:userDefs>
						<v:ud v:nameU="visNavOrder" v:prompt="" v:val="VT0(1002000):26"/>
					</v:userDefs>
					<v:textBlock v:margins="rect(0,0,0,0)"/>
					<v:textRect cx="36" cy="228.568" width="72" height="18"/>
					<rect x="0" y="219.568" width="72" height="18" rx="4.5" ry="4.5" class="st8"/>
					<text x="24.11" y="232.17" class="st16" v:langID="1033"><v:paragraph v:spAfter="6" v:horizAlign="1"/><v:tabList/>TPM</text>				</g>
				<g id="group4291-127" transform="translate(18.5628,-140.474)" v:mID="4291" v:groupContext="group">
					<v:userDefs>
						<v:ud v:nameU="visNavOrder" v:val="VT0(1003000):26"/>
					</v:userDefs>
					<title>Apps Blue</title>
					<g id="shape4292-128" v:mID="4292" v:groupContext="shape">
						<title>Sheet.4292</title>
						<path d="M13.35 221.41 L16.16 224.21 L13.35 224.21 L13.35 221.41 ZM17.04 211.73 L13.35 215.42 L13.35 215.25
									 C13.35 213.6 12.02 212.26 10.37 212.26 L2.99 212.26 C1.34 212.26 0 213.6 0 215.25 L0 234.58
									 C0 236.23 1.34 237.57 2.99 237.57 L22.32 237.57 C23.97 237.57 25.3 236.23 25.3 234.58 L25.3
									 227.2 C25.3 225.55 23.97 224.21 22.32 224.21 L22.15 224.21 L25.83 220.53 C27 219.36 27 217.47
									 25.83 216.3 L21.26 211.73 C20.1 210.57 18.21 210.57 17.04 211.73 ZM19.18 225.97 L22.32 225.97
									 C22.99 225.97 23.55 226.52 23.55 227.2 L23.55 234.58 C23.55 235.26 22.99 235.81 22.32 235.81
									 L13.35 235.81 L13.35 225.97 L19.12 225.97 C19.14 225.97 19.16 225.97 19.18 225.97 ZM2.99 214.02
									 L10.37 214.02 C11.05 214.02 11.6 214.57 11.6 215.25 L11.6 224.21 L1.76 224.21 L1.76 215.25 C1.76
									 214.57 2.31 214.02 2.99 214.02 ZM11.6 225.97 L11.6 235.81 L2.99 235.81 C2.31 235.81 1.76 235.26
									 1.76 234.58 L1.76 225.97 L11.6 225.97 Z" class="st20"/>
					</g>
				</g>
				<g id="group4293-130" transform="translate(18.5628,-105.502)" v:mID="4293" v:groupContext="group">
					<v:userDefs>
						<v:ud v:nameU="visNavOrder" v:val="VT0(1004000):26"/>
					</v:userDefs>
					<title>Icon-compute-27</title>
					<g id="shape4294-131" v:mID="4294" v:groupContext="shape" transform="translate(0,-6.945)">
						<title>Sheet.4294</title>
						<path d="M0 236.67 a0.900021 0.900021 -180 0 0 0.9 0.9 L26.1 237.57 a0.900021 0.900021 -180 0 0 0.9 -0.9
									 L27 220.47 a0.900021 0.900021 -180 0 0 -0.9 -0.9 L0.9 219.57 a0.900021 0.900021 -180 0 0 -0.9
									 0.9 L0 236.67 Z" class="st21"/>
					</g>
					<g id="shape4295-134" v:mID="4295" v:groupContext="shape" transform="translate(1.5,-8.445)">
						<title>Sheet.4295</title>
						<path d="M0 237.07 a0.495011 0.495011 -180 0 0 0.495 0.495 L23.51 237.57 a0.495011 0.495011 -180 0 0 0.495
									 -0.495 L24 223.06 a0.495011 0.495011 -180 0 0 -0.495 -0.495 L0.5 222.57 a0.495011 0.495011 -180
									 0 0 -0.495 0.495 L0 237.07 Z" class="st22"/>
					</g>
					<g id="shape4296-136" v:mID="4296" v:groupContext="shape" transform="translate(13.5,-10.695)">
						<title>Sheet.4296</title>
						<path d="M4.5 229.69 L4.5 234.93 L0 237.57 L0 232.32 L4.5 229.69 Z" class="st23"/>
					</g>
					<g id="shape4297-138" v:mID="4297" v:groupContext="shape" transform="translate(9,-15.93)">
						<title>Sheet.4297</title>
						<path d="M9 234.93 L4.5 237.57 L0 234.93 L4.5 232.3 L9 234.93 Z" class="st24"/>
					</g>
					<g id="shape4298-140" v:mID="4298" v:groupContext="shape" transform="translate(9,-10.695)">
						<title>Sheet.4298</title>
						<path d="M4.5 232.33 L4.5 237.57 L0 234.93 L0 229.69 L4.5 232.33 Z" class="st25"/>
					</g>
					<g id="shape4299-142" v:mID="4299" v:groupContext="shape" transform="translate(9,-10.695)">
						<title>Sheet.4299</title>
						<path d="M0 234.93 L4.5 232.32 L4.5 237.57 L0 234.93 Z" class="st26"/>
					</g>
					<g id="shape4300-144" v:mID="4300" v:groupContext="shape" transform="translate(13.5,-10.695)">
						<title>Sheet.4300</title>
						<path d="M4.5 234.93 L0 232.32 L0 237.57 L4.5 234.93 Z" class="st27"/>
					</g>
					<g id="shape4301-146" v:mID="4301" v:groupContext="shape" transform="translate(6.75,0)">
						<title>Sheet.4301</title>
						<path d="M12.16 236.07 C9.49 235.65 9.39 233.73 9.39 230.62 L4.09 230.62 C4.09 233.73 4 235.65 1.33 236.07
									 A1.5 1.5 -180 0 0 -0 237.57 L13.5 237.57 A1.5 1.5 -180 0 0 12.16 236.07 Z" class="st28"/>
					</g>
					<g id="shape4302-150" v:mID="4302" v:groupContext="shape" transform="translate(3.285,-17.34)">
						<title>Sheet.4302</title>
						<path d="M4.62 232.51 L0.9 232.51 a0.885 0.885 -180 0 0 -0.9 0.885 L0 237.12 a0.45 0.45 -180 0 0 0.45 0.45
									 L0.75 237.57 a0.45 0.45 -180 0 0 0.45 -0.45 L1.2 233.68 L4.62 233.68 a0.45 0.45 -180 0 0 0.45
									 -0.45 L5.07 232.95 a0.45 0.45 -180 0 0 -0.45 -0.435 Z" class="st25"/>
					</g>
					<g id="shape4303-152" v:mID="4303" v:groupContext="shape" transform="translate(3.285,-9.51)">
						<title>Sheet.4303</title>
						<path d="M4.62 236.38 L1.19 236.38 L1.19 232.96 a0.45 0.45 -180 0 0 -0.45 -0.45 L0.45 232.51 a0.45 0.45 -180
									 0 0 -0.45 0.45 L0 236.68 a0.885 0.885 -180 0 0 0.9 0.885 L4.62 237.57 a0.45 0.45 -180 0 0 0.45
									 -0.435 L5.07 236.83 a0.45 0.45 -180 0 0 -0.45 -0.45 Z" class="st25"/>
					</g>
					<g id="shape4304-154" v:mID="4304" v:groupContext="shape" transform="translate(18.645,-17.31)">
						<title>Sheet.4304</title>
						<path d="M4.11 232.51 L0.45 232.51 a0.435 0.435 -180 0 0 -0.45 0.45 L0 233.25 a0.435 0.435 -180 0 0 0.45
									 0.435 L3.87 233.68 L3.87 237.13 a0.435 0.435 -180 0 0 0.45 0.435 L4.62 237.57 a0.435 0.435 -180
									 0 0 0.435 -0.435 L5.05 233.41 a0.885 0.885 -180 0 0 -0.945 -0.9 Z" class="st25"/>
					</g>
					<g id="shape4305-156" v:mID="4305" v:groupContext="shape" transform="translate(18.645,-9.465)">
						<title>Sheet.4305</title>
						<path d="M4.62 232.5 L4.34 232.5 a0.45 0.45 -180 0 0 -0.45 0.45 L3.88 236.37 L0.45 236.37 a0.435 0.435 -180
									 0 0 -0.45 0.45 L0 237.12 a0.45 0.45 -180 0 0 0.45 0.45 L4.11 237.57 a0.885 0.885 -180 0 0 0.885
									 -0.9 L4.99 232.95 a0.45 0.45 -180 0 0 -0.375 -0.45 Z" class="st25"/>
					</g>
				</g>
				<g id="group4321-158" transform="translate(20.0178,-70.2255)" v:mID="4321" v:groupContext="group">
					<v:userDefs>
						<v:ud v:nameU="visNavOrder" v:val="VT0(1005000):26"/>
					</v:userDefs>
					<title>Icon-compute-32</title>
					<g id="shape4322-159" v:mID="4322" v:groupContext="shape" transform="translate(0,-2.6909)">
						<title>Sheet.4322</title>
						<ellipse cx="12.013" cy="232.634" rx="12.013" ry="4.93332" class="st29"/>
					</g>
					<g id="shape4323-161" v:mID="4323" v:groupContext="shape" transform="translate(8.32899,-6.5831)">
						<title>Sheet.4323</title>
						<ellipse cx="3.9883" cy="236.479" rx="3.9883" ry="1.08918" class="st30"/>
					</g>
					<g id="shape4324-163" v:mID="4324" v:groupContext="shape" transform="translate(22.248,-5.0935)">
						<title>Sheet.4324</title>
					</g>
					<g id="shape4325-164" v:mID="4325" v:groupContext="shape" transform="translate(0,-13.6307)">
						<title>Sheet.4325</title>
						<ellipse cx="12.013" cy="232.634" rx="12.013" ry="4.93332" class="st31"/>
					</g>
					<g id="shape4326-168" v:mID="4326" v:groupContext="shape" transform="translate(8.32899,-17.5389)">
						<title>Sheet.4326</title>
						<ellipse cx="3.9883" cy="236.479" rx="3.9883" ry="1.08918" class="st32"/>
					</g>
					<g id="shape4327-170" v:mID="4327" v:groupContext="shape">
						<title>Sheet.4327</title>
						<path d="M12.08 234.78 C18.72 234.78 24.09 232.57 24.09 229.85 L24.09 232.76 C23.87 235.41 18.58 237.57 12.08
									 237.57 C5.57 237.57 0.06 235.36 0.06 232.63 L0.06 229.85 C0 232.57 5.38 234.78 12.08 234.78
									 Z" class="st30"/>
					</g>
					<g id="shape4328-172" v:mID="4328" v:groupContext="shape" transform="translate(22.248,-5.0935)">
						<title>Sheet.4328</title>
					</g>
					<g id="shape4329-173" v:mID="4329" v:groupContext="shape" transform="translate(0,-10.9558)">
						<title>Sheet.4329</title>
						<path d="M12.08 234.78 C18.72 234.78 24.09 232.57 24.09 229.85 L24.09 232.76 C23.87 235.41 18.58 237.57 12.08
									 237.57 C5.57 237.57 0.06 235.36 0.06 232.63 L0.06 229.85 C0 232.57 5.38 234.78 12.08 234.78
									 Z" class="st23"/>
					</g>
				</g>
			</g>
			<g id="shape4331-175" v:mID="4331" v:groupContext="shape" transform="translate(168.75,-116.7)">
				<title>Dynamic connector</title>
				<v:userDefs>
					<v:ud v:nameU="visNavOrder" v:val="VT0(1007000):26"/>
				</v:userDefs>
				<path d="M0 237.57 L68.68 237.57 A4.5 4.5 -180 0 0 73.18 233.07 L73.18 173.99 A4.5 4.5 0 0 1 77.68 169.49 L86.9 169.49"
						class="st33"/>
			</g>
		</g>
		<g id="shape4983-181" v:mID="4983" v:groupContext="shape" transform="translate(10.4874,-140.732)">
			<title>Sheet.4983</title>
			<desc>A</desc>
			<v:userDefs>
				<v:ud v:nameU="visNavOrder" v:val="VT0(1147000):26"/>
			</v:userDefs>
			<v:textBlock v:margins="rect(4,4,4,4)"/>
			<v:textRect cx="9" cy="228.568" width="18" height="18"/>
			<ellipse cx="9" cy="228.568" rx="9" ry="9" class="st35"/>
			<text x="5.13" y="232.17" class="st36" v:langID="1033"><v:paragraph v:spAfter="6" v:horizAlign="1"/><v:tabList/>A</text>		</g>
		<g id="shape5495-184" v:mID="5495" v:groupContext="shape" transform="translate(261.559,-180.048)">
			<title>Sheet.5495</title>
			<desc>B</desc>
			<v:userDefs>
				<v:ud v:nameU="visNavOrder" v:val="VT0(1148000):26"/>
			</v:userDefs>
			<v:textBlock v:margins="rect(4,4,4,4)"/>
			<v:textRect cx="9" cy="228.568" width="18" height="18"/>
			<ellipse cx="9" cy="228.568" rx="9" ry="9" class="st35"/>
			<text x="5.56" y="232.17" class="st36" v:langID="1033"><v:paragraph v:spAfter="6" v:horizAlign="1"/><v:tabList/>B</text>		</g>
	</g>
</svg>
