<?xml version="1.0" encoding="UTF-8" standalone="no"?>
<!DOCTYPE svg PUBLIC "-//W3C//DTD SVG 1.1//EN" "http://www.w3.org/Graphics/SVG/1.1/DTD/svg11.dtd">
<!-- Generated by Microsoft Visio, SVG Export adoption-phases.svg Page-1 -->
<svg xmlns="http://www.w3.org/2000/svg" xmlns:xlink="http://www.w3.org/1999/xlink" xmlns:ev="http://www.w3.org/2001/xml-events"
		xmlns:v="http://schemas.microsoft.com/visio/2003/SVGExtensions/" width="5.09542in" height="2.18935in"
		viewBox="0 0 366.87 157.634" xml:space="preserve" color-interpolation-filters="sRGB" class="st11">
	<title>Diagrams for applying Zero Trust principles to Azure IaaS infrastructure</title>
	<v:documentProperties v:langID="1033" v:viewMarkup="false"/>

	<style type="text/css">
	<![CDATA[
		.st1 {fill:#0078d4;stroke:none;stroke-linecap:round;stroke-linejoin:round;stroke-width:0.24}
		.st2 {fill:#ffffff;font-family:Segoe UI Semibold;font-size:1.00001em}
		.st3 {marker-end:url(#mrkr4-10);stroke:#000000;stroke-linecap:round;stroke-linejoin:round;stroke-width:1}
		.st4 {fill:#000000;fill-opacity:1;stroke:#000000;stroke-opacity:1;stroke-width:0.28409090909091}
		.st5 {fill:#cce4f7;stroke:none;stroke-linecap:round;stroke-linejoin:round;stroke-width:0.24}
		.st6 {fill:#000000;font-family:Segoe UI Semibold;font-size:1.00001em}
		.st7 {fill:#c2c2c2;stroke:none;stroke-linecap:butt;stroke-width:1.45327}
		.st8 {fill:#0078d4;stroke:none;stroke-linecap:butt;stroke-width:1.45327}
		.st9 {fill:#cce4f7;stroke:none;stroke-linecap:butt;stroke-width:1.45327}
		.st10 {fill:#c2c2c2;stroke:none;stroke-linecap:round;stroke-linejoin:round;stroke-width:0.24}
		.st11 {fill:none;fill-rule:evenodd;font-size:12px;overflow:visible;stroke-linecap:square;stroke-miterlimit:3}
	]]>
	</style>

	<defs id="Markers">
		<g id="lend4">
			<path d="M 2 1 L 0 0 L 2 -1 L 2 1 " style="stroke:none"/>
		</g>
		<marker id="mrkr4-10" class="st4" v:arrowType="4" v:arrowSize="2" v:setback="7.04" refX="-7.04" orient="auto"
				markerUnits="strokeWidth" overflow="visible">
			<use xlink:href="#lend4" transform="scale(-3.52,-3.52) "/>
		</marker>
	</defs>
	<g v:mID="0" v:index="1" v:groupContext="foregroundPage">
		<v:userDefs>
			<v:ud v:nameU="visNavType" v:val="VT0(1):26"/>
		</v:userDefs>
		<title>Page-1</title>
		<v:pageProperties v:drawingScale="1" v:pageScale="1" v:drawingUnits="19" v:shadowOffsetX="9" v:shadowOffsetY="-9"/>
		<v:layer v:name="Connector" v:index="0"/>
		<g id="group1807-1" transform="translate(6.39488E-14,-1.45327)" v:mID="1807" v:groupContext="group">
			<v:userDefs>
				<v:ud v:nameU="visNavOrder" v:val="VT0(341000):26"/>
			</v:userDefs>
			<title>Sheet.1807</title>
			<g id="shape1808-2" v:mID="1808" v:groupContext="shape" transform="translate(9.4396,-61.5943)">
				<title>Rectangle.3771</title>
				<desc>Evaluate</desc>
				<v:userDefs>
					<v:ud v:nameU="visVersion" v:val="VT0(15):26"/>
				</v:userDefs>
				<v:textBlock v:margins="rect(10,10,10,10)"/>
				<v:textRect cx="39.3794" cy="147.175" width="78.76" height="20.9171"/>
				<rect x="0" y="136.716" width="78.7589" height="20.9171" class="st1"/>
				<text x="10" y="150.78" class="st2" v:langID="1033"><v:paragraph/><v:tabList/>Evaluate</text>			</g>
			<g id="shape1809-5" v:mID="1809" v:groupContext="shape" v:layerMember="0" transform="translate(88.1985,-80.9811)">
				<title>Dynamic connector.3772</title>
				<path d="M0 166.56 L15.15 166.66" class="st3"/>
			</g>
			<g id="shape1810-11" v:mID="1810" v:groupContext="shape" transform="translate(258.362,-13.8424)">
				<title>Rectangle.3773</title>
				<desc>Full deployment</desc>
				<v:userDefs>
					<v:ud v:nameU="visVersion" v:val="VT0(15):26"/>
				</v:userDefs>
				<v:textBlock v:margins="rect(10,10,10,10)"/>
				<v:textRect cx="54.1938" cy="147.175" width="108.39" height="20.9171"/>
				<rect x="0" y="136.716" width="108.388" height="20.9171" class="st5"/>
				<text x="10" y="150.78" class="st6" v:langID="1033"><v:paragraph/><v:tabList/>Full deployment</text>			</g>
			<g id="shape1811-14" v:mID="1811" v:groupContext="shape" v:layerMember="0" transform="translate(312.556,-34.7595)">
				<title>Dynamic connector.3774</title>
				<path d="M0 157.63 L0 125.22 L-50.55 125.22" class="st3"/>
			</g>
			<g id="shape1812-19" v:mID="1812" v:groupContext="shape" transform="translate(114.865,-86.6158)">
				<title>Sheet.1812</title>
				<path d="M67.16 128.6 L67.16 100.04 C36.13 100.47 9.99 119.46 0 148.83 L27.08 157.63 C32.95 141.01 48.62 129.02 67.16
							 128.6 Z" class="st7"/>
			</g>
			<g id="shape1813-21" v:mID="1813" v:groupContext="shape" transform="translate(109.708,-50.8579)">
				<title>Sheet.1813</title>
				<path d="M29.76 136.38 C29.76 132.05 30.39 127.87 31.57 123.92 L4.49 115.12 C0 129.55 0 143.21 4.49 157.63 L31.57
							 148.83 C30.39 144.89 29.76 140.71 29.76 136.38 L29.76 136.38 Z" class="st8"/>
			</g>
			<g id="shape1814-23" v:mID="1814" v:groupContext="shape" transform="translate(114.865,-7.95808E-13)">
				<title>Sheet.1814</title>
				<path d="M69.31 13.42 L69.31 41.98 C92.83 42.6 111.71 61.86 111.71 85.52 C111.71 109.19 92.21 129.08 68.15 129.08
							 C49.18 129.08 33.05 116.95 27.08 100.03 L0 108.83 C10.11 138.55 36.74 157.63 68.23 157.63 C108.06 157.63
							 140.35 125.35 140.35 85.52 C140.35 45.69 108.64 14 69.31 13.42 Z" class="st9"/>
			</g>
			<g id="shape1815-25" v:mID="1815" v:groupContext="shape" transform="translate(21.6986,-135.143)">
				<title>Rectangle.3783</title>
				<desc>Pilot</desc>
				<v:userDefs>
					<v:ud v:nameU="visVersion" v:val="VT0(15):26"/>
				</v:userDefs>
				<v:textBlock v:margins="rect(10,10,10,10)"/>
				<v:textRect cx="39.3794" cy="147.175" width="78.76" height="20.9171"/>
				<rect x="0" y="136.716" width="78.7589" height="20.9171" class="st10"/>
				<text x="10" y="150.78" class="st6" v:langID="1033"><v:paragraph/><v:tabList/>Pilot</text>			</g>
			<g id="shape1816-28" v:mID="1816" v:groupContext="shape" v:layerMember="0" transform="translate(100.457,-145.602)">
				<title>Dynamic connector.3784</title>
				<path d="M0 157.63 L6.75 157.63 L6.75 187.82 L17.74 187.82" class="st3"/>
			</g>
		</g>
	</g>
</svg>
