<?xml version="1.0" encoding="UTF-8" standalone="no"?>
<!DOCTYPE svg PUBLIC "-//W3C//DTD SVG 1.1//EN" "http://www.w3.org/Graphics/SVG/1.1/DTD/svg11.dtd">
<!-- Generated by Microsoft Visio, SVG Export regulatory-compliance-example-devices.svg Page-1 -->
<svg xmlns="http://www.w3.org/2000/svg" xmlns:xlink="http://www.w3.org/1999/xlink" xmlns:ev="http://www.w3.org/2001/xml-events"
		xmlns:v="http://schemas.microsoft.com/visio/2003/SVGExtensions/" width="7.40538in" height="3.63194in"
		viewBox="0 0 533.187 261.5" xml:space="preserve" color-interpolation-filters="sRGB" class="st21">
	<v:documentProperties v:langID="1033" v:viewMarkup="false"/>

	<style type="text/css">
	<![CDATA[
		.st1 {fill:#f2f2f2;stroke:none;stroke-width:0.25}
		.st2 {fill:none;stroke:none;stroke-width:0.25}
		.st3 {fill:#000000;font-family:Segoe UI Semibold;font-size:1.5em}
		.st4 {stroke:#737373;stroke-linecap:round;stroke-linejoin:round;stroke-width:1}
		.st5 {fill:#243a5e;font-family:Segoe UI Semibold;font-size:1.00001em}
		.st6 {fill:#0078d4;font-family:Segoe UI Semibold;font-size:1.00001em}
		.st7 {fill:#243a5e;font-family:Segoe UI;font-size:1.00001em}
		.st8 {fill:#0078d4;font-family:Segoe UI;font-size:1.00001em}
		.st9 {stroke:#797979;stroke-linecap:round;stroke-linejoin:round;stroke-width:1}
		.st10 {fill:#000000;stroke:none;stroke-width:0.298828}
		.st11 {fill:url(#grad0-44);stroke:none;stroke-width:0.75}
		.st12 {fill:#ffffff;stroke:none;stroke-width:0.75}
		.st13 {fill:url(#grad0-50);stroke:none;stroke-width:0.75}
		.st14 {fill:#32bedd;stroke:none;stroke-width:0.75}
		.st15 {fill:url(#grad0-58);stroke:none;stroke-width:0.75}
		.st16 {fill:#0078d4;stroke:none;stroke-width:0.75}
		.st17 {fill:url(#grad0-65);stroke:none;stroke-width:0.75}
		.st18 {fill:#f2f2f2;stroke:none;stroke-width:0.75}
		.st19 {fill:#76bc2d;stroke:none;stroke-width:0.75}
		.st20 {fill:none;stroke:none;stroke-width:0.75}
		.st21 {fill:none;fill-rule:evenodd;font-size:12px;overflow:visible;stroke-linecap:square;stroke-miterlimit:3}
	]]>
	</style>

	<defs id="Patterns_And_Gradients">
		<linearGradient id="grad0-44" x1="0" y1="0" x2="1" y2="0" gradientTransform="rotate(-90 0.5 0.5)">
			<stop offset="0" stop-color="#0078d4" stop-opacity="1"/>
			<stop offset="0.82" stop-color="#5ea0ef" stop-opacity="1"/>
		</linearGradient>
		<linearGradient id="grad0-50" x1="0" y1="0" x2="1" y2="0" gradientTransform="rotate(-90 0.5 0.5)">
			<stop offset="0" stop-color="#1490df" stop-opacity="1"/>
			<stop offset="0.98" stop-color="#1f56a3" stop-opacity="1"/>
		</linearGradient>
		<linearGradient id="grad0-58" x1="0" y1="0" x2="1" y2="0" gradientTransform="rotate(-90 0.5 0.5)">
			<stop offset="0" stop-color="#d2ebff" stop-opacity="1"/>
			<stop offset="1" stop-color="#f0fffd" stop-opacity="1"/>
		</linearGradient>
		<linearGradient id="grad0-65" x1="0" y1="0" x2="1" y2="0" gradientTransform="rotate(-90 0.5 0.5)">
			<stop offset="0" stop-color="#0078d4" stop-opacity="1"/>
			<stop offset="0.17" stop-color="#1c84dc" stop-opacity="1"/>
			<stop offset="0.38" stop-color="#3990e4" stop-opacity="1"/>
			<stop offset="0.59" stop-color="#4d99ea" stop-opacity="1"/>
			<stop offset="0.8" stop-color="#5a9eee" stop-opacity="1"/>
			<stop offset="1" stop-color="#5ea0ef" stop-opacity="1"/>
		</linearGradient>
	</defs>
	<g v:mID="0" v:index="1" v:groupContext="foregroundPage">
		<v:userDefs>
			<v:ud v:nameU="visNavType" v:val="VT0(1):26"/>
		</v:userDefs>
		<title>Page-1</title>
		<v:pageProperties v:drawingScale="1" v:pageScale="1" v:drawingUnits="0" v:shadowOffsetX="9" v:shadowOffsetY="-9"/>
		<v:layer v:name="Background" v:index="0"/>
		<v:layer v:name="Text" v:index="1"/>
		<v:layer v:name="Headings" v:index="2"/>
		<v:layer v:name="Connector" v:index="3"/>
		<g id="shape1000-1" v:mID="1000" v:groupContext="shape" v:layerMember="0" transform="translate(0.25,-0.25)">
			<title>Sheet.1000</title>
			<v:userDefs>
				<v:ud v:nameU="visNavOrder" v:prompt="" v:val="VT0(1000):26"/>
			</v:userDefs>
			<rect x="0" y="0.500006" width="532.687" height="261" class="st1"/>
		</g>
		<g id="shape1003-3" v:mID="1003" v:groupContext="shape" v:layerMember="1;2" transform="translate(209.313,-176.128)">
			<title>Sheet.1003</title>
			<desc>Devices</desc>
			<v:userDefs>
				<v:ud v:nameU="visNavOrder" v:prompt="" v:val="VT0(3000):26"/>
			</v:userDefs>
			<v:textBlock v:margins="rect(0,0,0,0)"/>
			<v:textRect cx="54" cy="248" width="108.01" height="27"/>
			<rect x="0" y="234.5" width="108" height="27" class="st2"/>
			<text x="22.95" y="253.4" class="st3" v:langID="1033"><v:paragraph v:spAfter="6" v:horizAlign="1"/><v:tabList/>Devices</text>		</g>
		<g id="shape1004-6" v:mID="1004" v:groupContext="shape" v:layerMember="3" transform="translate(308.5,-190.375)">
			<title>Dynamic connector</title>
			<v:userDefs>
				<v:ud v:nameU="visNavOrder" v:prompt="" v:val="VT0(4000):26"/>
			</v:userDefs>
			<path d="M0 262.63 L29.19 262.63 L29.19 278.38" class="st4"/>
		</g>
		<g id="shape1005-9" v:mID="1005" v:groupContext="shape" v:layerMember="1;2" transform="translate(26.6874,-152.48)">
			<title>Sheet.1005</title>
			<desc>Regulatory Requirements</desc>
			<v:userDefs>
				<v:ud v:nameU="visNavOrder" v:prompt="" v:val="VT0(5000):26"/>
			</v:userDefs>
			<v:textBlock v:margins="rect(0,0,0,0)"/>
			<v:textRect cx="108.125" cy="253.27" width="216.26" height="16.4594"/>
			<rect x="0" y="245.041" width="216.25" height="16.4594" class="st2"/>
			<text x="77.88" y="256.87" class="st5" v:langID="1033"><v:paragraph v:spAfter="6" v:horizAlign="2"/><v:tabList/>Regulatory Requirements</text>		</g>
		<g id="shape1006-12" v:mID="1006" v:groupContext="shape" v:layerMember="1;2" transform="translate(283.688,-152.48)">
			<title>Sheet.1006</title>
			<desc>Technical elements</desc>
			<v:userDefs>
				<v:ud v:nameU="visNavOrder" v:prompt="" v:val="VT0(6000):26"/>
			</v:userDefs>
			<v:textBlock v:margins="rect(0,0,0,0)"/>
			<v:textRect cx="54" cy="253.27" width="108.01" height="16.4594"/>
			<rect x="0" y="245.041" width="108" height="16.4594" class="st2"/>
			<text x="0" y="256.87" class="st6" v:langID="1033"><v:paragraph v:spAfter="6"/><v:tabList/>Technical elements</text>		</g>
		<g id="group1007-15" transform="translate(17.9375,-111.918)" v:mID="1007" v:groupContext="group" v:layerMember="1">
			<v:userDefs>
				<v:ud v:nameU="visNavOrder" v:prompt="" v:val="VT0(7000):26"/>
			</v:userDefs>
			<title>Sheet.1007</title>
			<g id="shape1008-16" v:mID="1008" v:groupContext="shape" v:layerMember="1" transform="translate(42.5,-17.3838)">
				<title>Sheet.1008</title>
				<desc>ISO 27001: 2022</desc>
				<v:textBlock v:margins="rect(0,0,0,0)"/>
				<v:textRect cx="91.3453" cy="253.27" width="182.7" height="16.4594"/>
				<rect x="0" y="245.041" width="182.691" height="16.4594" class="st2"/>
				<text x="96.68" y="256.87" class="st7" v:langID="1033"><v:paragraph v:spAfter="6" v:horizAlign="2"/><v:tabList/>ISO 27001: 2022</text>			</g>
			<g id="shape1009-19" v:mID="1009" v:groupContext="shape" v:layerMember="1" transform="translate(-17.6875,-0.123008)">
				<title>Sheet.1009</title>
				<desc>Annexure 8.1.1 Inventory of assets</desc>
				<v:textBlock v:margins="rect(0,0,0,0)"/>
				<v:textRect cx="121.344" cy="253.27" width="242.69" height="16.4594"/>
				<rect x="0" y="245.041" width="242.687" height="16.4594" class="st2"/>
				<text x="62.2" y="256.87" class="st7" v:langID="1033"><v:paragraph v:spAfter="6" v:horizAlign="2"/><v:tabList/>Annexure 8.1.1 Inventory of assets</text>			</g>
		</g>
		<g id="shape1010-22" v:mID="1010" v:groupContext="shape" v:layerMember="1" transform="translate(306.184,-129.301)">
			<title>Sheet.1010</title>
			<desc>Microsoft Intune</desc>
			<v:userDefs>
				<v:ud v:nameU="visNavOrder" v:prompt="" v:val="VT0(8000):26"/>
			</v:userDefs>
			<v:textBlock v:margins="rect(0,0,0,0)"/>
			<v:textRect cx="71.5922" cy="253.27" width="143.19" height="16.4594"/>
			<rect x="0" y="245.041" width="143.184" height="16.4594" class="st2"/>
			<text x="0" y="256.87" class="st8" v:langID="1033"><v:paragraph v:spAfter="6"/><v:tabList/>Microsoft Intune</text>		</g>
		<g id="shape1011-25" v:mID="1011" v:groupContext="shape" v:layerMember="1" transform="translate(306.184,-82.15)">
			<title>Sheet.1011</title>
			<desc>Device management</desc>
			<v:userDefs>
				<v:ud v:nameU="visNavOrder" v:prompt="" v:val="VT0(9000):26"/>
			</v:userDefs>
			<v:textBlock v:margins="rect(0,0,0,0)"/>
			<v:textRect cx="104.252" cy="253.27" width="208.51" height="16.4594"/>
			<rect x="0" y="245.041" width="208.503" height="16.4594" class="st2"/>
			<text x="0" y="256.87" class="st8" v:langID="1033"><v:paragraph v:spAfter="6"/><v:tabList/>Device management</text>		</g>
		<g id="shape1015-28" v:mID="1015" v:groupContext="shape" transform="translate(599.437,134.35) rotate(90)">
			<title>Sheet.1015</title>
			<v:userDefs>
				<v:ud v:nameU="visNavOrder" v:val="VT0(12000):26"/>
			</v:userDefs>
			<path d="M0 261.5 L21 261.5" class="st9"/>
		</g>
		<g id="shape1016-31" v:mID="1016" v:groupContext="shape" v:layerMember="1" transform="translate(305.687,-30.2703)">
			<title>Sheet.1016</title>
			<desc>Compliance policies</desc>
			<v:userDefs>
				<v:ud v:nameU="visNavOrder" v:prompt="" v:val="VT0(13000):26"/>
			</v:userDefs>
			<v:textBlock v:margins="rect(0,0,0,0)"/>
			<v:textRect cx="104.252" cy="253.27" width="208.51" height="16.4594"/>
			<rect x="0" y="245.041" width="208.503" height="16.4594" class="st2"/>
			<text x="0" y="256.87" class="st8" v:langID="1033"><v:paragraph v:spAfter="6"/><v:tabList/>Compliance policies</text>		</g>
		<g id="shape1017-34" v:mID="1017" v:groupContext="shape" transform="translate(599.437,188.35) rotate(90)">
			<title>Sheet.1017</title>
			<v:userDefs>
				<v:ud v:nameU="visNavOrder" v:val="VT0(14000):26"/>
			</v:userDefs>
			<path d="M0 261.5 L21 261.5" class="st9"/>
		</g>
		<g id="group1018-37" transform="translate(237.811,-205.703)" v:mID="1018" v:groupContext="group">
			<v:userDefs>
				<v:ud v:nameU="visNavOrder" v:val="VT0(16000):26"/>
			</v:userDefs>
			<title>Sheet.1018</title>
			<g id="shape1019-38" v:mID="1019" v:groupContext="shape">
				<title>Sheet.1019</title>
				<path d="M5.66 261.5 C4.91 261.5 4.19 261.35 3.52 261.05 C2.84 260.75 2.24 260.34 1.71 259.81 C1.19 259.28 0.77 258.68
							 0.47 258.01 C0.17 257.33 0.02 256.61 0 255.84 L0 232.53 C0 231.78 0.15 231.07 0.45 230.39 C0.75 229.72
							 1.16 229.12 1.69 228.59 C2.22 228.06 2.82 227.65 3.49 227.35 C4.17 227.05 4.89 226.89 5.66 226.88 L40.51
							 226.88 C41.26 226.88 41.97 227.03 42.65 227.33 C43.32 227.63 43.93 228.04 44.45 228.57 C44.98 229.09
							 45.39 229.69 45.69 230.37 C45.99 231.05 46.15 231.77 46.17 232.53 L46.17 255.84 C46.17 256.59 46.01
							 257.31 45.71 257.98 C45.41 258.66 45 259.26 44.47 259.79 C43.95 260.31 43.35 260.73 42.67 261.03 C41.99
							 261.33 41.27 261.48 40.51 261.5 L5.66 261.5 ZM40.39 258.61 C40.8 258.61 41.18 258.54 41.52 258.39 C41.87
							 258.24 42.17 258.04 42.42 257.78 C42.68 257.53 42.89 257.22 43.05 256.86 C43.22 256.5 43.29 256.12 43.28
							 255.73 L43.28 232.65 C43.28 232.26 43.2 231.89 43.05 231.54 C42.9 231.2 42.7 230.89 42.45 230.62 C42.19
							 230.35 41.88 230.14 41.52 229.99 C41.16 229.84 40.79 229.76 40.39 229.76 L5.77 229.76 C5.36 229.76 4.99
							 229.84 4.64 229.99 C4.3 230.14 4 230.34 3.74 230.6 C3.49 230.85 3.28 231.16 3.11 231.52 C2.95 231.88
							 2.87 232.26 2.89 232.65 L2.89 255.73 C2.89 256.14 2.96 256.51 3.11 256.86 C3.26 257.2 3.46 257.51 3.72
							 257.78 C3.97 258.05 4.28 258.25 4.62 258.39 C4.97 258.52 5.35 258.6 5.77 258.61 L40.39 258.61 ZM18.75
							 252.84 C18.36 252.84 18.03 252.7 17.74 252.42 C17.45 252.13 17.31 251.79 17.31 251.4 C17.31 251.01 17.45
							 250.67 17.74 250.39 C18.03 250.1 18.36 249.96 18.75 249.96 L27.41 249.96 C27.8 249.96 28.14 250.1 28.42
							 250.39 C28.71 250.67 28.85 251.01 28.85 251.4 C28.85 251.79 28.71 252.13 28.42 252.42 C28.14 252.7 27.8
							 252.84 27.41 252.84 L18.75 252.84 Z" class="st10"/>
			</g>
		</g>
		<g id="group1020-40" transform="translate(283.411,-131.65)" v:mID="1020" v:groupContext="group">
			<v:userDefs>
				<v:ud v:nameU="visNavOrder" v:val="VT0(17000):26"/>
			</v:userDefs>
			<title>Icon-intune-329</title>
			<g id="shape1021-41" v:mID="1021" v:groupContext="shape" transform="translate(0,-4.3911)">
				<title>Sheet.1021</title>
				<path d="M-0 261.09 a0.405092 0.405092 -180 0 0 0.405083 0.405083 L11.83 261.5 a0.405092 0.405092 -180 0 0 0.405083
							 -0.405083 L12.23 253.75 a0.405092 0.405092 -180 0 0 -0.405083 -0.405083 L0.41 253.35 a0.405092 0.405092
							 -180 0 0 -0.405083 0.405083 L0 261.09 Z" class="st11"/>
			</g>
			<g id="shape1022-45" v:mID="1022" v:groupContext="shape" transform="translate(0.680539,-5.06353)">
				<title>Sheet.1022</title>
				<path d="M0 261.27 a0.226851 0.226851 -180 0 0 0.226846 0.226846 L10.65 261.5 a0.226851 0.226851 -180 0 0 0.226846
							 -0.226846 L10.87 254.93 a0.226851 0.226851 -180 0 0 -0.226846 -0.226846 L0.23 254.7 a0.226851 0.226851
							 -180 0 0 -0.226846 0.226846 L0 261.27 Z" class="st12"/>
			</g>
			<g id="shape1023-47" v:mID="1023" v:groupContext="shape" transform="translate(3.03002,-1.23955)">
				<title>Sheet.1023</title>
				<path d="M5.54 260.82 C4.33 260.63 4.28 259.76 4.29 258.39 L1.86 258.39 C1.86 259.8 1.81 260.67 0.6 260.82 a0.704844
							 0.704844 -180 0 0 -0.599522 0.680539 L6.11 261.5 a0.712945 0.712945 -180 0 0 -0.567116 -0.680539 Z"
						class="st13"/>
			</g>
			<g id="shape1024-51" v:mID="1024" v:groupContext="shape" transform="translate(4.22604,0)">
				<title>Sheet.1024</title>
				<path d="M9.28 252.73 L3.71 252.73 A1.87148 1.87148 -180 1 0 3.71 253.47 L4.28 253.47 L4.28 261.23 a0.267354 0.267354
							 -180 0 0 0.267354 0.267354 L9.27 261.5 a0.267354 0.267354 -180 0 0 0.267354 -0.267354 L9.54 252.99 a0.267354
							 0.267354 -180 0 0 -0.259253 -0.267354 Z" class="st14"/>
			</g>
			<g id="shape1025-53" v:mID="1025" v:groupContext="shape" transform="translate(9.00904,-0.988401)">
				<title>Sheet.1025</title>
				<path d="M0 261.4 a0.0972221 0.0972221 -180 0 0 0.0972198 0.0972198 L4.17 261.5 a0.0972221 0.0972221 -180 0 0 0.0972198
							 -0.0972198 L4.27 254.55 a0.0972221 0.0972221 -180 0 0 -0.0972198 -0.0972198 L0.1 254.45 a0.0972221 0.0972221
							 -180 0 0 -0.0972198 0.0972198 L0 261.4 Z" class="st12"/>
			</g>
			<g id="shape1026-55" v:mID="1026" v:groupContext="shape" transform="translate(4.93391,-7.18616)">
				<title>Sheet.1026</title>
				<ellipse cx="1.18284" cy="260.317" rx="1.18284" ry="1.18284" class="st15"/>
			</g>
			<g id="shape1027-59" v:mID="1027" v:groupContext="shape" transform="translate(8.50673,-3.76173)">
				<title>Sheet.1027</title>
				<path d="M3.14 260.47 L2.24 259.56 a0.0486099 0.0486099 -180 0 0 -0.0810165 0.0405083 L2.16 260.15 a0.0486099 0.0486099
							 0 0 1 -0.0486099 0.0486099 L0 260.2 L0 260.87 L2.11 260.87 a0.0486099 0.0486099 0 0 1 0.0486099 0.0486099
							 L2.16 261.48 a0.0486099 0.0486099 -180 0 0 0.0810165 0 L3.14 260.61 a0.0972198 0.0972198 -180 0 0 6.21725E-15
							 -0.14583 Z" class="st16"/>
			</g>
		</g>
		<g id="group1028-61" transform="translate(285.088,-19.15)" v:mID="1028" v:groupContext="group">
			<v:userDefs>
				<v:ud v:nameU="visNavOrder" v:val="VT0(18000):26"/>
			</v:userDefs>
			<title>Icon-intune-333</title>
			<g id="shape1029-62" v:mID="1029" v:groupContext="shape" transform="translate(0,-12.8504)">
				<title>Sheet.1029</title>
				<path d="M-0 261.08 a0.424748 0.424748 -180 0 0 0.424738 0.424738 L8.05 261.5 a0.424748 0.424748 -180 0 0 0.424738
							 -0.424738 L8.47 247.78 a0.424748 0.424748 -180 0 0 -0.424738 -0.424738 L0.42 247.35 a0.424748 0.424748
							 -180 0 0 -0.424738 0.424738 L0 261.08 Z" class="st17"/>
			</g>
			<g id="shape1030-66" v:mID="1030" v:groupContext="shape" transform="translate(3.75601,-13.1419)">
				<title>Sheet.1030</title>
				<path d="M0 261.28 a0.224866 0.224866 -180 0 0 0.224861 0.224861 L0.72 261.5 a0.224866 0.224866 -180 0 0 0.224861
							 -0.224861 L0.95 260.92 a0.224866 0.224866 -180 0 0 -0.224861 -0.224861 L0.22 260.69 a0.224866 0.224866
							 -180 0 0 -0.224861 0.224861 L0 261.28 Z" class="st18"/>
			</g>
			<g id="shape1031-68" v:mID="1031" v:groupContext="shape" transform="translate(3.25632,-26.2671)">
				<title>Sheet.1031</title>
				<path d="M0 261.38 a0.124926 0.124926 -180 0 0 0.124923 0.124923 L1.82 261.5 a0.124926 0.124926 -180 0 0 0.124923
							 -0.124923 L1.95 261.37 a0.124926 0.124926 -180 0 0 -0.124923 -0.124923 L0.12 261.24 a0.124926 0.124926
							 -180 0 0 -0.124923 0.124923 L0 261.38 Z" class="st18"/>
			</g>
			<g id="shape1032-70" v:mID="1032" v:groupContext="shape" transform="translate(0.791178,-14.4328)">
				<title>Sheet.1032</title>
				<path d="M0 261.34 a0.158239 0.158239 -180 0 0 0.158236 0.158236 L6.72 261.5 a0.158239 0.158239 -180 0 0 0.158236
							 -0.158236 L6.88 250.29 a0.158239 0.158239 -180 0 0 -0.158236 -0.158236 L0.16 250.13 a0.158239 0.158239
							 -180 0 0 -0.158236 0.158236 L0 261.34 Z" class="st15"/>
			</g>
			<g id="shape1033-73" v:mID="1033" v:groupContext="shape" transform="translate(6.59593,-12.8421)">
				<title>Sheet.1033</title>
				<path d="M0 261.27 a0.233195 0.233195 -180 0 0 0.233189 0.233189 L6.03 261.5 a0.233195 0.233195 -180 0 0 0.233189
							 -0.233189 L6.26 255.47 a0.233195 0.233195 -180 0 0 -0.233189 -0.233189 L0.23 255.24 a0.233195 0.233195
							 -180 0 0 -0.233189 0.233189 L0 261.27 Z" class="st19"/>
			</g>
			<g id="shape1034-75" v:mID="1034" v:groupContext="shape" transform="translate(199.073,423.687) rotate(135)">
				<title>Sheet.1034</title>
				<path d="M9.08 259.15 L9.59 259.15 a0.158236 0.158236 0 0 1 0.158236 0.158236 L9.74 261.34 a0.158236 0.158236 0 0
							 1 -0.158236 0.158236 L9.23 261.5 a0.158236 0.158236 0 0 1 -0.158236 -0.158236 L9.07 259.15 L9.08 259.15
							 Z" class="st12"/>
			</g>
			<g id="shape1035-77" v:mID="1035" v:groupContext="shape" transform="translate(-164.628,436.721) rotate(-135)">
				<title>Sheet.1035</title>
				<path d="M11.33 256.68 L11.84 256.68 L11.84 261.34 a0.158236 0.158236 0 0 1 -0.158236 0.158236 L11.33 261.5 a0.158236
							 0.158236 0 0 1 -0.158236 -0.158236 L11.17 256.84 a0.158236 0.158236 0 0 1 0.158236 -0.158236 L11.33
							 256.68 Z" class="st12"/>
			</g>
		</g>
		<g id="group1044-79" transform="translate(285.088,-84.9419)" v:mID="1044" v:groupContext="group">
			<v:userDefs>
				<v:ud v:nameU="visNavOrder" v:val="VT0(20000):26"/>
			</v:userDefs>
			<title>Icon-intune-337</title>
			<g id="shape1045-80" v:mID="1045" v:groupContext="shape" transform="translate(-4.4964E-14,-3.0525)">
				<title>Sheet.1045</title>
				<path d="M0 261.05 a0.45001 0.45001 -180 0 0 0.45 0.45 L12.06 261.5 a0.45001 0.45001 -180 0 0 0.45 -0.45 L12.51 253.05
							 a0.45001 0.45001 -180 0 0 -0.45 -0.45 L0.45 252.6 a0.45001 0.45001 -180 0 0 -0.45 0.45 L0 261.05 Z"
						class="st16"/>
			</g>
			<g id="shape1046-82" v:mID="1046" v:groupContext="shape" transform="translate(0.7275,-3.7575)">
				<title>Sheet.1046</title>
				<path d="M0 261.28 a0.225005 0.225005 -180 0 0 0.225 0.225 L10.83 261.5 a0.225005 0.225005 -180 0 0 0.225 -0.225
							 L11.06 254.15 a0.225005 0.225005 -180 0 0 -0.225 -0.225 L0.22 253.93 a0.225005 0.225005 -180 0 0 -0.225
							 0.225 L0 261.28 Z" class="st15"/>
			</g>
			<g id="shape1047-85" v:mID="1047" v:groupContext="shape" transform="translate(7.725,5.68434E-14)">
				<title>Sheet.1047</title>
				<path d="M0 261.28 a0.225005 0.225005 -180 0 0 0.225 0.225 L5.55 261.5 a0.225005 0.225005 -180 0 0 0.225 -0.225 L5.77
							 252.09 a0.225005 0.225005 -180 0 0 -0.225 -0.225 L0.23 251.86 a0.225005 0.225005 -180 0 0 -0.225 0.225
							 L0 261.28 Z" class="st17"/>
			</g>
			<g id="shape1048-88" v:mID="1048" v:groupContext="shape" transform="translate(9.9525,-9.135)">
				<title>Sheet.1048</title>
				<path d="M0 261.42 a0.0825019 0.0825019 -180 0 0 0.0825 0.0825 L1.24 261.5 a0.0825019 0.0825019 -180 0 0 0.0825 -0.0825
							 L1.33 261.4 a0.0825019 0.0825019 -180 0 0 -0.0825 -0.0825 L0.08 261.32 a0.0825019 0.0825019 -180 0 0
							 -0.0825 0.0825 L0 261.42 Z" class="st18"/>
			</g>
			<g id="shape1049-90" v:mID="1049" v:groupContext="shape" transform="translate(8.2725,-1.08)">
				<title>Sheet.1049</title>
				<path d="M0 261.4 a0.105002 0.105002 -180 0 0 0.105 0.105 L4.58 261.5 a0.105002 0.105002 -180 0 0 0.105 -0.105 L4.69
							 253.86 a0.105002 0.105002 -180 0 0 -0.105 -0.105 L0.1 253.75 a0.105002 0.105002 -180 0 0 -0.105 0.105
							 L0 261.4 Z" class="st20"/>
			</g>
			<g id="shape1050-92" v:mID="1050" v:groupContext="shape" transform="translate(5.61,-11.4975)">
				<title>Sheet.1050</title>
				<path d="M0 261.42 a0.0825019 0.0825019 -180 0 0 0.0825 0.0825 L1.24 261.5 a0.0825019 0.0825019 -180 0 0 0.0825 -0.0825
							 L1.33 261.4 a0.0825019 0.0825019 -180 0 0 -0.0825 -0.0825 L0.08 261.32 a0.0825019 0.0825019 -180 0 0
							 -0.0825 0.0825 L0 261.42 Z" class="st18"/>
			</g>
			<g id="shape1051-94" v:mID="1051" v:groupContext="shape" transform="translate(2.28,-0.6)">
				<title>Sheet.1051</title>
				<path d="M0 258.36 A3.14257 3.14257 -180 0 0 3.14 261.5 L3.17 261.5 A3.14257 3.14257 -180 0 0 6.31 258.36 L6.31 258.33
							 A3.14257 3.14257 -180 0 0 3.17 255.19 L3.14 255.19 A3.14257 3.14257 -180 0 0 0 258.33 L0 258.36 Z"
						class="st19"/>
			</g>
			<g id="shape1052-96" v:mID="1052" v:groupContext="shape" transform="translate(3.18,-1.53)">
				<title>Sheet.1052</title>
				<path d="M4.15 258.86 L2.65 258.86 L2.65 257.36 a0.3525 0.3525 -180 0 0 -0.3375 -0.3075 L2.2 257.05 a0.3525 0.3525
							 -180 0 0 -0.3525 0.3525 L1.84 258.91 L0.34 258.91 a0.3525 0.3525 -180 0 0 -0.345 0.3525 L0 259.3 a0.3525
							 0.3525 -180 0 0 0.345 0.3525 L1.84 259.66 L1.84 261.16 a0.3525 0.3525 -180 0 0 0.3525 0.345 L2.32 261.5
							 a0.3525 0.3525 -180 0 0 0.3525 -0.345 L2.67 259.66 L4.17 259.66 a0.3525 0.3525 -180 0 0 0.3525 -0.3525
							 L4.52 259.18 a0.3525 0.3525 -180 0 0 -0.3675 -0.3225 Z" class="st12"/>
			</g>
			<g id="shape1053-98" v:mID="1053" v:groupContext="shape" transform="translate(10.29,-0.21)">
				<title>Sheet.1053</title>
				<path d="M0 261.35 a0.150003 0.150003 -180 0 0 0.15 0.15 L0.5 261.5 a0.150003 0.150003 -180 0 0 0.15 -0.15 L0.64
							 261.1 a0.150003 0.150003 -180 0 0 -0.15 -0.15 L0.15 260.95 a0.150003 0.150003 -180 0 0 -0.15 0.15 L0
							 261.35 Z" class="st18"/>
			</g>
		</g>
	</g>
</svg>
