<?xml version="1.0" encoding="UTF-8" standalone="no"?>
<!DOCTYPE svg PUBLIC "-//W3C//DTD SVG 1.1//EN" "http://www.w3.org/Graphics/SVG/1.1/DTD/svg11.dtd">
<!-- Generated by Microsoft Visio, SVG Export regulatory-compliance-example-threat-intelligence.svg Page-1 -->
<svg xmlns="http://www.w3.org/2000/svg" xmlns:xlink="http://www.w3.org/1999/xlink" xmlns:ev="http://www.w3.org/2001/xml-events"
		xmlns:v="http://schemas.microsoft.com/visio/2003/SVGExtensions/" width="6.86673in" height="4.36944in"
		viewBox="0 0 494.405 314.6" xml:space="preserve" color-interpolation-filters="sRGB" class="st12">
	<v:documentProperties v:langID="1033" v:viewMarkup="false"/>

	<style type="text/css">
	<![CDATA[
		.st1 {fill:#f2f2f2;stroke:none;stroke-width:0.25}
		.st2 {fill:none;stroke:none;stroke-width:0.25}
		.st3 {fill:#000000;font-family:Segoe UI Semibold;font-size:1.5em}
		.st4 {stroke:#737373;stroke-linecap:round;stroke-linejoin:round;stroke-width:1}
		.st5 {fill:#243a5e;font-family:Segoe UI Semibold;font-size:1.00001em}
		.st6 {fill:#0078d4;font-family:Segoe UI Semibold;font-size:1.00001em}
		.st7 {fill:#243a5e;font-family:Segoe UI;font-size:1.00001em}
		.st8 {fill:#0078d4;font-family:Segoe UI;font-size:1.00001em}
		.st9 {font-size:1em}
		.st10 {fill:#000000;stroke:none;stroke-width:0.298828}
		.st11 {stroke:#797979;stroke-linecap:round;stroke-linejoin:round;stroke-width:1}
		.st12 {fill:none;fill-rule:evenodd;font-size:12px;overflow:visible;stroke-linecap:square;stroke-miterlimit:3}
	]]>
	</style>

	<g v:mID="0" v:index="1" v:groupContext="foregroundPage">
		<v:userDefs>
			<v:ud v:nameU="visNavType" v:val="VT0(1):26"/>
		</v:userDefs>
		<title>Page-1</title>
		<v:pageProperties v:drawingScale="1" v:pageScale="1" v:drawingUnits="0" v:shadowOffsetX="9" v:shadowOffsetY="-9"/>
		<v:layer v:name="Background" v:index="0"/>
		<v:layer v:name="Text" v:index="1"/>
		<v:layer v:name="Headings" v:index="2"/>
		<v:layer v:name="Connector" v:index="3"/>
		<v:layer v:name="Icons" v:index="4"/>
		<g id="shape1000-1" v:mID="1000" v:groupContext="shape" v:layerMember="0" transform="translate(6.1109,-0.25)">
			<title>Sheet.1000</title>
			<v:userDefs>
				<v:ud v:nameU="visNavOrder" v:prompt="" v:val="VT0(1000):26"/>
			</v:userDefs>
			<rect x="0" y="0.499997" width="488.044" height="314.1" class="st1"/>
		</g>
		<g id="shape1003-3" v:mID="1003" v:groupContext="shape" v:layerMember="1;2" transform="translate(105.111,-229.228)">
			<title>Sheet.1003</title>
			<desc>Threat intelligence</desc>
			<v:userDefs>
				<v:ud v:nameU="visNavOrder" v:prompt="" v:val="VT0(3000):26"/>
			</v:userDefs>
			<v:textBlock v:margins="rect(0,0,0,0)"/>
			<v:textRect cx="86.7094" cy="301.1" width="173.42" height="27"/>
			<rect x="0" y="287.6" width="173.419" height="27" class="st2"/>
			<text x="10.81" y="306.5" class="st3" v:langID="1033"><v:paragraph v:spAfter="6" v:horizAlign="1"/><v:tabList/>Threat intelligence</text>		</g>
		<g id="shape1004-6" v:mID="1004" v:groupContext="shape" v:layerMember="3" transform="translate(269.717,-243.475)">
			<title>Dynamic connector</title>
			<v:userDefs>
				<v:ud v:nameU="visNavOrder" v:prompt="" v:val="VT0(4000):26"/>
			</v:userDefs>
			<path d="M0 315.72 L29.19 315.72 L29.19 331.47" class="st4"/>
		</g>
		<g id="shape1005-9" v:mID="1005" v:groupContext="shape" v:layerMember="1;2" transform="translate(15.1109,-205.58)">
			<title>Sheet.1005</title>
			<desc>Regulatory Requirements</desc>
			<v:userDefs>
				<v:ud v:nameU="visNavOrder" v:prompt="" v:val="VT0(5000):26"/>
			</v:userDefs>
			<v:textBlock v:margins="rect(0,0,0,0)"/>
			<v:textRect cx="94.5219" cy="306.37" width="189.05" height="16.4594"/>
			<rect x="0" y="298.141" width="189.044" height="16.4594" class="st2"/>
			<text x="50.68" y="309.97" class="st5" v:langID="1033"><v:paragraph v:spAfter="6" v:horizAlign="2"/><v:tabList/>Regulatory Requirements</text>		</g>
		<g id="shape1006-12" v:mID="1006" v:groupContext="shape" v:layerMember="1;2" transform="translate(244.905,-205.58)">
			<title>Sheet.1006</title>
			<desc>Technical elements</desc>
			<v:userDefs>
				<v:ud v:nameU="visNavOrder" v:prompt="" v:val="VT0(6000):26"/>
			</v:userDefs>
			<v:textBlock v:margins="rect(0,0,0,0)"/>
			<v:textRect cx="54" cy="306.37" width="108.01" height="16.4594"/>
			<rect x="0" y="298.141" width="108" height="16.4594" class="st2"/>
			<text x="0" y="309.97" class="st6" v:langID="1033"><v:paragraph v:spAfter="6"/><v:tabList/>Technical elements</text>		</g>
		<g id="group1007-15" transform="translate(15.1109,-165.018)" v:mID="1007" v:groupContext="group" v:layerMember="1">
			<v:userDefs>
				<v:ud v:nameU="visNavOrder" v:prompt="" v:val="VT0(7000):26"/>
			</v:userDefs>
			<title>Sheet.1007</title>
			<g id="shape1008-16" v:mID="1008" v:groupContext="shape" v:layerMember="1" transform="translate(35.7083,-17.3838)">
				<title>Sheet.1008</title>
				<desc>ISO 27001: 2022</desc>
				<v:textBlock v:margins="rect(0,0,0,0)"/>
				<v:textRect cx="76.7478" cy="306.37" width="153.5" height="16.4594"/>
				<rect x="0" y="298.141" width="153.496" height="16.4594" class="st2"/>
				<text x="67.49" y="309.97" class="st7" v:langID="1033"><v:paragraph v:spAfter="6" v:horizAlign="2"/><v:tabList/>ISO 27001: 2022</text>			</g>
			<g id="shape1009-19" v:mID="1009" v:groupContext="shape" v:layerMember="1" transform="translate(-14.8609,-0.123008)">
				<title>Sheet.1009</title>
				<desc>Annexure A.5.7 Threat intelligence</desc>
				<v:textBlock v:margins="rect(0,0,0,0)"/>
				<v:textRect cx="101.952" cy="306.37" width="203.91" height="16.4594"/>
				<rect x="0" y="298.141" width="203.905" height="16.4594" class="st2"/>
				<text x="23.41" y="309.97" class="st7" v:langID="1033"><v:paragraph v:spAfter="6" v:horizAlign="2"/><v:tabList/>Annexure A.5.7 Threat intelligence</text>			</g>
		</g>
		<g id="shape1010-22" v:mID="1010" v:groupContext="shape" v:layerMember="1" transform="translate(267.111,-160.77)">
			<title>Sheet.1010</title>
			<desc>Microsoft 365 Defender Microsoft Defender for Cloud Microsoft...</desc>
			<v:userDefs>
				<v:ud v:nameU="visNavOrder" v:prompt="" v:val="VT0(8000):26"/>
			</v:userDefs>
			<v:textBlock v:margins="rect(0,0,0,0)"/>
			<v:textRect cx="104.252" cy="306.37" width="208.51" height="16.4594"/>
			<rect x="0" y="298.141" width="208.503" height="16.4594" class="st2"/>
			<text x="0" y="289.57" class="st8" v:langID="1033"><v:paragraph v:spAfter="6"/><v:tabList/>Microsoft 365 Defender<v:newlineChar/><tspan
						x="0" dy="1.7em" class="st9">Microsoft Defender for Cloud<v:newlineChar/></tspan><tspan x="0" dy="1.7em"
						class="st9">Microsoft Sentinel</tspan></text>		</g>
		<g id="group1013-27" transform="translate(243.126,-20.5)" v:mID="1013" v:groupContext="group" v:layerMember="4">
			<v:userDefs>
				<v:ud v:nameU="visNavOrder" v:prompt="" v:val="VT0(11000):26"/>
			</v:userDefs>
			<title>Sheet.1013</title>
			<g id="shape1014-28" v:mID="1014" v:groupContext="shape" v:layerMember="4">
				<title>Sheet.1014</title>
				<path d="M1.7 314.59 C1.47 314.59 1.25 314.55 1.05 314.46 C0.84 314.37 0.66 314.25 0.51 314.1 C0.36 313.95 0.23 313.77
							 0.14 313.55 C0.05 313.34 0 313.13 0.01 312.9 L0.01 300.54 C0.01 300.31 0.05 300.09 0.14 299.89 C0.23
							 299.68 0.35 299.5 0.5 299.35 C0.65 299.2 0.83 299.07 1.05 298.98 C1.26 298.89 1.47 298.84 1.7 298.85
							 L3.38 298.85 L3.38 298.8 C3.38 298.51 3.44 298.23 3.56 297.97 C3.67 297.71 3.84 297.47 4.04 297.27 C4.25
							 297.06 4.48 296.9 4.74 296.78 C5.01 296.67 5.29 296.61 5.59 296.6 L7.92 296.6 C8.2 296.6 8.48 296.66
							 8.74 296.78 C9 296.89 9.24 297.05 9.45 297.26 C9.66 297.46 9.83 297.69 9.94 297.94 C10.06 298.2 10.12
							 298.47 10.13 298.77 L10.13 298.85 L11.82 298.85 C12.04 298.85 12.26 298.89 12.47 298.98 C12.67 299.07
							 12.85 299.19 13 299.34 C13.15 299.49 13.28 299.67 13.37 299.89 C13.46 300.1 13.51 300.31 13.5 300.54
							 L13.5 312.9 C13.5 313.13 13.46 313.35 13.37 313.55 C13.28 313.76 13.16 313.94 13.01 314.09 C12.86 314.24
							 12.68 314.37 12.47 314.46 C12.25 314.55 12.04 314.6 11.82 314.59 L1.7 314.59 ZM7.88 299.97 C8.04 299.97
							 8.18 299.94 8.32 299.89 C8.45 299.83 8.57 299.75 8.67 299.65 C8.77 299.55 8.85 299.43 8.92 299.29 C8.98
							 299.15 9.01 299 9 298.85 C9 298.7 8.98 298.55 8.92 298.42 C8.86 298.28 8.78 298.16 8.68 298.06 C8.58
							 297.95 8.46 297.87 8.32 297.81 C8.18 297.75 8.03 297.72 7.88 297.72 L5.63 297.72 C5.47 297.72 5.33 297.75
							 5.19 297.81 C5.06 297.87 4.94 297.95 4.84 298.05 C4.74 298.15 4.66 298.27 4.59 298.41 C4.53 298.55 4.5
							 298.7 4.51 298.85 C4.51 299.01 4.54 299.15 4.59 299.29 C4.65 299.42 4.73 299.54 4.83 299.65 C4.93 299.75
							 5.05 299.83 5.18 299.89 C5.32 299.94 5.47 299.97 5.63 299.97 L7.88 299.97 ZM11.82 313.47 C11.97 313.47
							 12.1 313.41 12.21 313.3 C12.32 313.19 12.38 313.06 12.38 312.9 L12.38 300.54 C12.38 300.38 12.32 300.25
							 12.21 300.14 C12.1 300.03 11.97 299.97 11.82 299.97 L9.83 299.97 C9.63 300.32 9.36 300.6 9.01 300.8
							 C8.67 301 8.29 301.1 7.88 301.1 L5.63 301.1 C5.23 301.1 4.85 301 4.51 300.8 C4.16 300.6 3.89 300.32
							 3.68 299.97 L1.7 299.97 C1.54 299.97 1.41 300.03 1.3 300.14 C1.19 300.25 1.13 300.38 1.13 300.54 L1.13
							 312.9 C1.13 313.06 1.19 313.19 1.3 313.3 C1.41 313.41 1.54 313.47 1.7 313.47 L11.82 313.47 ZM4.51 304.47
							 L4.51 304.43 C4.51 304.12 4.57 303.84 4.69 303.58 C4.81 303.31 4.98 303.08 5.18 302.87 C5.39 302.67
							 5.63 302.51 5.89 302.4 C6.16 302.29 6.45 302.23 6.76 302.22 C7.06 302.22 7.35 302.28 7.63 302.4 C7.9
							 302.52 8.14 302.68 8.34 302.88 C8.54 303.09 8.7 303.33 8.82 303.6 C8.94 303.88 9 304.17 9 304.47 C9
							 304.78 8.95 305.07 8.83 305.34 C8.71 305.61 8.55 305.85 8.35 306.05 C8.14 306.26 7.9 306.42 7.63 306.54
							 C7.35 306.65 7.06 306.71 6.76 306.72 C6.45 306.72 6.16 306.66 5.89 306.54 C5.62 306.43 5.38 306.27 5.17
							 306.06 C4.97 305.86 4.81 305.62 4.69 305.35 C4.57 305.08 4.51 304.79 4.51 304.47 ZM7.88 304.47 C7.88
							 304.32 7.85 304.18 7.79 304.04 C7.73 303.91 7.65 303.79 7.55 303.68 C7.46 303.58 7.34 303.49 7.19 303.43
							 C7.05 303.38 6.91 303.35 6.76 303.35 C6.6 303.35 6.45 303.38 6.32 303.43 C6.18 303.49 6.06 303.57 5.96
							 303.67 C5.87 303.77 5.78 303.89 5.72 304.03 C5.65 304.17 5.63 304.32 5.63 304.47 C5.63 304.63 5.66 304.78
							 5.72 304.91 C5.78 305.05 5.86 305.17 5.96 305.27 C6.06 305.38 6.17 305.46 6.31 305.51 C6.44 305.56 6.59
							 305.59 6.76 305.6 C6.91 305.6 7.06 305.57 7.19 305.51 C7.33 305.45 7.45 305.37 7.55 305.27 C7.65 305.17
							 7.73 305.05 7.79 304.91 C7.86 304.77 7.89 304.62 7.88 304.47 ZM2.7 309.31 C2.7 309.09 2.73 308.9 2.8
							 308.71 C2.87 308.53 2.98 308.38 3.11 308.25 C3.24 308.12 3.4 308.02 3.58 307.95 C3.77 307.88 3.97 307.84
							 4.19 307.84 L9.32 307.84 C9.54 307.84 9.74 307.88 9.92 307.95 C10.1 308.02 10.26 308.12 10.39 308.25
							 C10.53 308.38 10.63 308.53 10.7 308.71 C10.77 308.9 10.81 309.09 10.81 309.31 C10.81 309.89 10.69 310.37
							 10.45 310.76 C10.21 311.15 9.9 311.46 9.52 311.69 C9.14 311.93 8.71 312.09 8.22 312.19 C7.74 312.29
							 7.25 312.34 6.76 312.34 C6.26 312.34 5.78 312.29 5.3 312.19 C4.82 312.09 4.38 311.93 4 311.7 C3.61 311.47
							 3.3 311.16 3.06 310.77 C2.82 310.38 2.7 309.89 2.7 309.31 ZM9.69 309.27 C9.69 309.15 9.65 309.07 9.58
							 309.03 C9.51 308.99 9.43 308.97 9.32 308.97 L4.19 308.97 C4.09 308.97 4.01 308.99 3.94 309.03 C3.87
							 309.07 3.83 309.15 3.82 309.27 C3.82 309.68 3.91 310.02 4.09 310.27 C4.28 310.52 4.51 310.72 4.79 310.87
							 C5.07 311.01 5.38 311.11 5.73 311.15 C6.07 311.19 6.42 311.21 6.76 311.22 C7.09 311.22 7.43 311.19 7.77
							 311.15 C8.12 311.1 8.44 311.01 8.72 310.87 C9.01 310.73 9.24 310.53 9.42 310.28 C9.59 310.03 9.68 309.69
							 9.69 309.27 Z" class="st10"/>
			</g>
		</g>
		<g id="shape1015-30" v:mID="1015" v:groupContext="shape" transform="translate(613.755,180.85) rotate(90)">
			<title>Sheet.1015</title>
			<v:userDefs>
				<v:ud v:nameU="visNavOrder" v:val="VT0(12000):26"/>
			</v:userDefs>
			<path d="M0 314.6 L30 314.6" class="st11"/>
		</g>
		<g id="shape1016-33" v:mID="1016" v:groupContext="shape" v:layerMember="1" transform="translate(266.905,-50.5203)">
			<title>Sheet.1016</title>
			<desc>Automated investigation &#38; remediation Rapid remediation Advan...</desc>
			<v:userDefs>
				<v:ud v:nameU="visNavOrder" v:prompt="" v:val="VT0(13000):26"/>
			</v:userDefs>
			<v:textBlock v:margins="rect(0,0,0,0)"/>
			<v:textRect cx="108.125" cy="306.37" width="216.26" height="16.4594"/>
			<rect x="0" y="298.141" width="216.25" height="16.4594" class="st2"/>
			<text x="0" y="279.37" class="st8" v:langID="1033"><v:paragraph v:spAfter="6"/><v:tabList/>Automated investigation &#38; remediation<v:newlineChar/><tspan
						x="0" dy="1.7em" class="st9">Rapid remediation<v:newlineChar/></tspan><tspan x="0" dy="1.7em" class="st9">Advanced analysis <v:newlineChar/></tspan><tspan
						x="0" dy="1.7em" class="st9">Proactive hunting &#38; advanced forensics</tspan></text>		</g>
		<g id="group1017-39" transform="translate(206.926,-258.803)" v:mID="1017" v:groupContext="group">
			<v:userDefs>
				<v:ud v:nameU="visNavOrder" v:val="VT0(15000):26"/>
			</v:userDefs>
			<title>Sheet.1017</title>
			<g id="shape1018-40" v:mID="1018" v:groupContext="shape">
				<title>Sheet.1018</title>
				<path d="M0 294.45 L0 283.79 C0 283.44 0.09 283.18 0.28 283.01 C0.46 282.84 0.71 282.71 1.02 282.62 C1.29 282.55
							 1.57 282.5 1.87 282.47 C2.17 282.45 2.45 282.4 2.72 282.32 C3.19 282.24 3.65 282.14 4.11 282.05 C4.57
							 281.95 5.04 281.82 5.52 281.67 C6.48 281.4 7.41 281.1 8.3 280.77 C9.18 280.43 10.05 280.07 10.89 279.67
							 C11.73 279.28 12.57 278.85 13.41 278.38 C14.25 277.91 15.09 277.41 15.93 276.88 C16.04 276.82 16.14
							 276.77 16.24 276.73 C16.34 276.69 16.46 276.67 16.59 276.67 C16.73 276.67 16.85 276.69 16.94 276.73
							 C17.04 276.77 17.15 276.82 17.26 276.88 C18.11 277.41 18.95 277.91 19.78 278.38 C20.6 278.85 21.44 279.28
							 22.28 279.67 C23.12 280.07 23.99 280.43 24.89 280.77 C25.79 281.1 26.72 281.4 27.67 281.67 C28.14 281.81
							 28.6 281.93 29.05 282.03 C29.51 282.13 29.98 282.22 30.46 282.32 C30.73 282.38 31.02 282.43 31.31 282.45
							 C31.61 282.48 31.89 282.53 32.17 282.62 C32.46 282.71 32.7 282.84 32.89 283.01 C33.07 283.18 33.17 283.44
							 33.18 283.79 L33.18 294.45 C33.18 297.06 32.77 299.4 31.94 301.49 C31.12 303.58 29.98 305.44 28.54 307.08
							 C27.09 308.72 25.38 310.16 23.41 311.38 C21.43 312.6 19.3 313.65 17.02 314.53 C16.91 314.58 16.77 314.6
							 16.59 314.6 C16.53 314.6 16.46 314.59 16.39 314.58 C16.31 314.57 16.24 314.55 16.17 314.53 C13.88 313.66
							 11.76 312.62 9.8 311.4 C7.83 310.17 6.12 308.74 4.67 307.08 C3.21 305.43 2.07 303.56 1.24 301.47 C0.41
							 299.38 0 297.04 0 294.45 ZM30.81 294.45 L30.81 284.8 C28.28 284.37 25.82 283.69 23.43 282.77 C21.03
							 281.84 18.75 280.67 16.59 279.27 C14.43 280.67 12.15 281.84 9.76 282.77 C7.36 283.69 4.9 284.37 2.37
							 284.8 L2.37 294.45 C2.37 296.76 2.73 298.83 3.46 300.66 C4.19 302.48 5.19 304.12 6.46 305.56 C7.73 307.01
							 9.24 308.26 10.98 309.32 C12.72 310.38 14.59 311.32 16.59 312.14 C18.6 311.35 20.47 310.41 22.2 309.34
							 C23.93 308.27 25.43 307.01 26.7 305.56 C27.97 304.12 28.98 302.49 29.72 300.67 C30.46 298.86 30.83 296.79
							 30.81 294.45 Z" class="st10"/>
			</g>
		</g>
		<g id="group1019-42" transform="translate(241.652,-81.25)" v:mID="1019" v:groupContext="group">
			<v:userDefs>
				<v:ud v:nameU="visNavOrder" v:val="VT0(16000):26"/>
			</v:userDefs>
			<title>Sheet.1019</title>
			<g id="shape1020-43" v:mID="1020" v:groupContext="shape">
				<title>Sheet.1020</title>
				<path d="M5.32 311.51 C5.15 311.69 4.97 311.85 4.8 312.01 C4.62 312.17 4.46 312.35 4.31 312.54 L3.09 312.54 C2.67
							 312.54 2.28 312.46 1.91 312.31 C1.54 312.15 1.21 311.94 0.92 311.66 C0.63 311.38 0.41 311.06 0.25 310.7
							 C0.09 310.34 0.01 309.95 0 309.52 L0 301.16 C0 300.76 0.08 300.38 0.24 300.01 C0.4 299.65 0.62 299.33
							 0.9 299.05 C1.18 298.77 1.5 298.55 1.86 298.39 C2.23 298.23 2.61 298.15 3.02 298.14 L11.38 298.14 C11.78
							 298.14 12.17 298.22 12.53 298.38 C12.89 298.54 13.22 298.76 13.49 299.04 C13.77 299.32 13.99 299.64
							 14.15 300.01 C14.31 300.37 14.4 300.76 14.4 301.16 L14.4 302.58 C14 302.39 13.58 302.24 13.16 302.14
							 C12.73 302.05 12.29 302 11.83 302 C11.42 302 11.02 302.04 10.62 302.12 C10.56 302.13 10.46 302.16 10.35
							 302.2 C10.24 302.24 10.15 302.26 10.09 302.26 L1.03 302.26 L1.03 309.5 C1.03 309.78 1.08 310.04 1.2
							 310.28 C1.31 310.52 1.46 310.73 1.65 310.92 C1.84 311.11 2.05 311.25 2.3 311.35 C2.54 311.45 2.81 311.51
							 3.09 311.51 L5.32 311.51 ZM3.05 299.17 C2.78 299.17 2.52 299.22 2.28 299.33 C2.04 299.44 1.83 299.58
							 1.64 299.77 C1.45 299.96 1.3 300.17 1.2 300.42 C1.09 300.66 1.03 300.91 1.03 301.19 L1.03 301.23 L13.37
							 301.23 L13.37 301.19 C13.37 300.92 13.32 300.66 13.21 300.42 C13.11 300.18 12.96 299.97 12.77 299.78
							 C12.58 299.59 12.37 299.45 12.13 299.34 C11.89 299.23 11.63 299.17 11.36 299.17 L3.05 299.17 ZM16.46
							 307.91 C16.46 308.55 16.34 309.15 16.1 309.71 C15.86 310.28 15.52 310.77 15.1 311.18 C14.68 311.6 14.19
							 311.93 13.63 312.17 C13.07 312.41 12.47 312.54 11.83 312.54 C11.34 312.54 10.87 312.47 10.42 312.33
							 C9.97 312.18 9.55 311.97 9.15 311.69 L6.46 314.37 C6.31 314.52 6.13 314.6 5.92 314.6 C5.7 314.6 5.51
							 314.53 5.37 314.38 C5.22 314.24 5.15 314.05 5.14 313.83 C5.14 313.61 5.22 313.43 5.37 313.28 L8.05 310.6
							 C7.77 310.2 7.56 309.78 7.42 309.33 C7.27 308.88 7.2 308.41 7.2 307.91 C7.2 307.28 7.32 306.68 7.56
							 306.11 C7.8 305.55 8.14 305.06 8.56 304.64 C8.98 304.22 9.47 303.89 10.03 303.65 C10.59 303.41 11.19
							 303.29 11.83 303.28 C12.25 303.28 12.66 303.34 13.05 303.44 C13.44 303.55 13.81 303.71 14.16 303.91
							 C14.51 304.11 14.82 304.36 15.1 304.64 C15.38 304.93 15.62 305.24 15.82 305.58 C16.03 305.93 16.18 306.29
							 16.29 306.68 C16.4 307.07 16.45 307.48 16.46 307.91 ZM7.14 304.31 C7.01 304.47 6.9 304.64 6.8 304.81
							 C6.7 304.98 6.6 305.16 6.5 305.34 L2.57 305.34 C2.43 305.34 2.31 305.29 2.21 305.19 C2.11 305.09 2.06
							 304.97 2.06 304.83 C2.06 304.69 2.11 304.57 2.21 304.47 C2.31 304.36 2.43 304.31 2.57 304.31 L7.14 304.31
							 ZM14.4 309.62 C14.74 309.09 14.92 308.52 14.92 307.91 C14.92 307.64 14.88 307.37 14.8 307.09 C14.67
							 307.19 14.53 307.27 14.37 307.32 C14.21 307.37 14.05 307.4 13.89 307.4 C13.68 307.4 13.48 307.36 13.29
							 307.28 C13.11 307.2 12.94 307.09 12.8 306.95 C12.66 306.81 12.55 306.64 12.47 306.45 C12.38 306.26 12.34
							 306.06 12.34 305.86 C12.34 305.69 12.37 305.53 12.42 305.37 C12.48 305.22 12.55 305.07 12.65 304.94
							 C12.38 304.86 12.1 304.83 11.83 304.83 C11.74 304.83 11.66 304.83 11.57 304.84 C11.49 304.84 11.4 304.85
							 11.32 304.87 L11.32 306.88 C11.32 307.02 11.26 307.14 11.16 307.25 C11.06 307.35 10.94 307.4 10.8 307.4
							 C10.66 307.4 10.54 307.35 10.44 307.25 C10.34 307.14 10.29 307.02 10.29 306.88 L10.29 305.24 C10.05
							 305.38 9.83 305.54 9.64 305.74 C9.46 305.93 9.3 306.14 9.16 306.37 C9.03 306.6 8.93 306.85 8.86 307.11
							 C8.79 307.37 8.75 307.64 8.74 307.91 C8.74 308.56 8.93 309.14 9.29 309.67 C9.33 309.48 9.39 309.32 9.48
							 309.17 C9.57 309.02 9.69 308.89 9.82 308.78 C9.95 308.67 10.1 308.59 10.27 308.52 C10.44 308.46 10.61
							 308.43 10.8 308.43 C11.01 308.43 11.21 308.47 11.4 308.55 C11.58 308.63 11.75 308.74 11.89 308.88 C12.03
							 309.02 12.14 309.18 12.22 309.38 C12.31 309.57 12.35 309.77 12.34 309.97 C12.34 310.16 12.31 310.34
							 12.24 310.52 C12.17 310.69 12.07 310.85 11.95 311 C12.2 310.99 12.45 310.95 12.68 310.88 C12.92 310.81
							 13.15 310.71 13.37 310.59 L13.37 308.94 C13.37 308.8 13.42 308.68 13.53 308.58 C13.63 308.48 13.75 308.43
							 13.89 308.43 C14 308.43 14.09 308.45 14.16 308.49 C14.23 308.53 14.28 308.59 14.32 308.67 C14.36 308.74
							 14.38 308.83 14.39 308.92 C14.4 309.01 14.41 309.1 14.41 309.2 L14.41 309.42 C14.41 309.49 14.41 309.55
							 14.4 309.62 ZM13.37 305.86 C13.37 306 13.42 306.12 13.53 306.22 C13.63 306.32 13.75 306.37 13.89 306.37
							 C14.09 306.37 14.24 306.28 14.34 306.11 C14.14 305.84 13.9 305.6 13.63 305.41 C13.46 305.51 13.37 305.66
							 13.37 305.86 ZM5.93 307.4 C5.93 307.49 5.92 307.58 5.92 307.66 C5.92 307.74 5.92 307.82 5.92 307.91
							 L5.92 308.17 C5.92 308.26 5.92 308.34 5.93 308.43 L2.57 308.43 C2.43 308.43 2.31 308.38 2.21 308.28
							 C2.11 308.17 2.06 308.05 2.06 307.91 C2.06 307.77 2.11 307.65 2.21 307.55 C2.31 307.45 2.43 307.4 2.57
							 307.4 L5.93 307.4 ZM10.8 310.49 C10.94 310.49 11.06 310.43 11.16 310.33 C11.26 310.23 11.32 310.11 11.32
							 309.97 C11.32 309.83 11.26 309.71 11.16 309.61 C11.06 309.51 10.94 309.46 10.8 309.46 C10.66 309.46
							 10.54 309.51 10.44 309.61 C10.34 309.71 10.29 309.83 10.29 309.97 C10.29 310.11 10.34 310.23 10.44 310.33
							 C10.54 310.43 10.66 310.49 10.8 310.49 Z" class="st10"/>
			</g>
		</g>
		<g id="group1021-45" transform="translate(243.126,-42.1)" v:mID="1021" v:groupContext="group">
			<v:userDefs>
				<v:ud v:nameU="visNavOrder" v:val="VT0(17000):26"/>
			</v:userDefs>
			<title>Sheet.1021</title>
			<g id="shape1022-46" v:mID="1022" v:groupContext="shape">
				<title>Sheet.1022</title>
				<path d="M2.83 314.6 C2.46 314.6 2.1 314.52 1.76 314.37 C1.41 314.22 1.11 314.02 0.85 313.76 C0.59 313.49 0.38 313.19
							 0.23 312.85 C0.08 312.51 0.01 312.15 0 311.77 L0 303.92 C0 303.55 0.08 303.19 0.23 302.85 C0.38 302.5
							 0.58 302.2 0.84 301.94 C1.11 301.68 1.41 301.47 1.75 301.32 C2.09 301.17 2.45 301.09 2.83 301.09 L10.68
							 301.09 C11.05 301.09 11.41 301.16 11.75 301.32 C12.1 301.47 12.4 301.67 12.66 301.93 C12.92 302.19 13.13
							 302.5 13.28 302.84 C13.43 303.18 13.51 303.54 13.51 303.92 L13.51 311.77 C13.51 312.14 13.44 312.5 13.28
							 312.84 C13.13 313.19 12.93 313.49 12.67 313.75 C12.41 314.01 12.1 314.22 11.76 314.37 C11.42 314.52
							 11.06 314.59 10.68 314.6 L2.83 314.6 ZM10.65 313.63 C10.9 313.63 11.14 313.58 11.37 313.48 C11.6 313.38
							 11.8 313.25 11.97 313.07 C12.15 312.89 12.29 312.69 12.39 312.47 C12.49 312.24 12.54 312 12.55 311.74
							 L12.55 303.95 C12.55 303.7 12.5 303.46 12.4 303.23 C12.29 303 12.16 302.8 11.98 302.63 C11.8 302.45
							 11.6 302.31 11.38 302.21 C11.15 302.11 10.91 302.06 10.65 302.05 L2.86 302.05 C2.61 302.05 2.37 302.1
							 2.14 302.2 C1.92 302.31 1.71 302.44 1.54 302.62 C1.36 302.8 1.22 303 1.12 303.22 C1.02 303.45 0.97 303.69
							 0.97 303.95 L0.97 311.74 C0.97 311.99 1.02 312.23 1.12 312.46 C1.22 312.68 1.35 312.89 1.53 313.06 C1.71
							 313.24 1.91 313.38 2.13 313.48 C2.36 313.58 2.6 313.63 2.86 313.63 L10.65 313.63 ZM7.68 311.7 C7.58
							 311.7 7.49 311.67 7.42 311.6 C7.34 311.53 7.29 311.45 7.26 311.36 L5.73 306 L4.8 308.49 C4.76 308.59
							 4.7 308.66 4.62 308.72 C4.54 308.77 4.45 308.8 4.34 308.81 L2.41 308.81 C2.28 308.81 2.17 308.76 2.07
							 308.67 C1.98 308.57 1.93 308.46 1.93 308.33 C1.93 308.2 1.98 308.08 2.07 307.99 C2.17 307.89 2.28 307.84
							 2.41 307.84 L4.01 307.84 L5.34 304.29 C5.37 304.2 5.43 304.13 5.51 304.07 C5.59 304.02 5.68 303.99 5.78
							 303.98 C5.89 303.98 5.99 304.02 6.08 304.08 C6.17 304.15 6.23 304.23 6.26 304.33 L7.84 309.9 L8.74 308.11
							 C8.78 308.03 8.84 307.97 8.92 307.92 C9 307.87 9.08 307.85 9.17 307.84 L11.1 307.84 C11.23 307.84 11.34
							 307.89 11.44 307.99 C11.53 308.08 11.58 308.2 11.58 308.33 C11.58 308.46 11.53 308.57 11.44 308.67 C11.34
							 308.76 11.23 308.81 11.1 308.81 L9.47 308.81 L8.15 311.44 C8.1 311.54 8.03 311.6 7.95 311.64 C7.87 311.68
							 7.78 311.7 7.68 311.7 Z" class="st10"/>
			</g>
		</g>
		<g id="group1023-48" transform="translate(241.652,-164.434)" v:mID="1023" v:groupContext="group">
			<v:userDefs>
				<v:ud v:nameU="visNavOrder" v:val="VT0(18000):26"/>
			</v:userDefs>
			<title>Sheet.1023</title>
			<g id="shape1024-49" v:mID="1024" v:groupContext="shape">
				<title>Sheet.1024</title>
				<path d="M3.31 314.6 C2.86 314.6 2.44 314.51 2.03 314.32 C1.63 314.13 1.28 313.88 0.98 313.57 C0.68 313.26 0.44 312.9
							 0.27 312.49 C0.09 312.07 0 311.65 0 311.2 C0 310.74 0.08 310.31 0.23 309.89 C0.39 309.47 0.61 309.1
							 0.88 308.78 C1.16 308.46 1.5 308.2 1.9 307.99 C2.29 307.79 2.72 307.68 3.19 307.66 L3.45 307.65 C3.51
							 306.99 3.66 306.39 3.92 305.86 C4.18 305.32 4.52 304.86 4.93 304.48 C5.35 304.1 5.84 303.81 6.4 303.6
							 C6.95 303.39 7.57 303.28 8.23 303.28 C8.89 303.28 9.5 303.39 10.05 303.6 C10.61 303.81 11.1 304.1 11.52
							 304.48 C11.95 304.86 12.29 305.32 12.54 305.86 C12.79 306.39 12.95 306.99 13.01 307.65 L13.14 307.65
							 C13.61 307.65 14.04 307.74 14.44 307.93 C14.84 308.12 15.19 308.37 15.49 308.7 C15.8 309.03 16.03 309.4
							 16.2 309.81 C16.37 310.22 16.46 310.66 16.46 311.13 C16.46 311.58 16.37 312.02 16.2 312.44 C16.03 312.86
							 15.8 313.23 15.5 313.55 C15.21 313.87 14.86 314.12 14.45 314.31 C14.04 314.5 13.61 314.59 13.15 314.6
							 L3.31 314.6 ZM13.13 313.57 C13.46 313.57 13.76 313.5 14.04 313.37 C14.32 313.24 14.56 313.05 14.77 312.82
							 C14.98 312.59 15.14 312.33 15.25 312.04 C15.37 311.75 15.43 311.45 15.43 311.13 C15.43 310.79 15.37
							 310.47 15.25 310.17 C15.12 309.88 14.95 309.62 14.74 309.39 C14.53 309.17 14.27 308.99 13.97 308.87
							 C13.67 308.75 13.35 308.68 13.01 308.68 C12.73 308.68 12.5 308.59 12.32 308.42 C12.14 308.25 12.03 308.03
							 11.98 307.75 C11.96 307.56 11.93 307.37 11.89 307.19 C11.86 307.01 11.81 306.82 11.73 306.64 C11.59
							 306.25 11.41 305.91 11.18 305.62 C10.95 305.33 10.68 305.09 10.38 304.9 C10.07 304.71 9.74 304.56 9.38
							 304.46 C9.02 304.36 8.64 304.31 8.23 304.31 C7.83 304.31 7.45 304.36 7.09 304.46 C6.73 304.55 6.4 304.7
							 6.09 304.89 C5.79 305.08 5.52 305.33 5.29 305.61 C5.06 305.9 4.87 306.24 4.73 306.63 C4.66 306.81 4.61
							 307 4.57 307.18 C4.54 307.36 4.51 307.55 4.48 307.75 C4.43 308.07 4.31 308.3 4.11 308.45 C3.9 308.6
							 3.65 308.68 3.34 308.68 C3.01 308.68 2.71 308.74 2.43 308.88 C2.15 309.01 1.9 309.19 1.7 309.42 C1.49
							 309.65 1.32 309.92 1.21 310.21 C1.09 310.51 1.03 310.81 1.03 311.13 C1.03 311.44 1.09 311.75 1.21 312.04
							 C1.32 312.34 1.48 312.6 1.69 312.82 C1.89 313.05 2.13 313.23 2.41 313.36 C2.69 313.5 3 313.57 3.33 313.57
							 L13.13 313.57 Z" class="st10"/>
			</g>
		</g>
		<g id="group1025-51" transform="translate(243.126,-144.239)" v:mID="1025" v:groupContext="group">
			<v:userDefs>
				<v:ud v:nameU="visNavOrder" v:val="VT0(19000):26"/>
			</v:userDefs>
			<title>Sheet.1025</title>
			<g id="shape1026-52" v:mID="1026" v:groupContext="shape">
				<title>Sheet.1026</title>
				<path d="M13.51 302.36 L13.51 305.73 C13.51 305.85 13.47 305.95 13.39 306.03 C13.3 306.11 13.2 306.16 13.09 306.16
							 L9.71 306.16 C9.6 306.16 9.5 306.11 9.41 306.03 C9.33 305.95 9.29 305.85 9.29 305.73 C9.29 305.62 9.33
							 305.52 9.41 305.44 C9.5 305.35 9.6 305.31 9.71 305.31 L12.09 305.31 C11.85 304.78 11.54 304.31 11.17
							 303.89 C10.8 303.47 10.37 303.12 9.9 302.83 C9.42 302.54 8.91 302.32 8.38 302.16 C7.84 302.01 7.28 301.93
							 6.7 301.93 C6.21 301.93 5.73 302 5.26 302.12 C4.79 302.25 4.34 302.43 3.91 302.67 C3.49 302.9 3.09 303.18
							 2.74 303.51 C2.38 303.84 2.07 304.21 1.79 304.61 C1.62 304.87 1.48 305.15 1.35 305.44 C1.32 305.51 1.3
							 305.58 1.27 305.65 C1.25 305.73 1.22 305.8 1.18 305.87 C1.13 305.96 1.08 306.03 1.03 306.08 C0.98 306.12
							 0.9 306.15 0.79 306.16 C0.67 306.16 0.57 306.11 0.49 306.03 C0.4 305.95 0.36 305.85 0.36 305.73 C0.36
							 305.68 0.37 305.63 0.38 305.59 C0.62 304.94 0.94 304.33 1.37 303.78 C1.79 303.23 2.28 302.76 2.83 302.36
							 C3.38 301.96 3.99 301.65 4.64 301.43 C5.3 301.21 5.98 301.09 6.68 301.09 C7.3 301.09 7.91 301.17 8.5
							 301.33 C9.09 301.48 9.64 301.71 10.15 302.01 C10.67 302.3 11.14 302.67 11.57 303.1 C12 303.54 12.37
							 304.03 12.67 304.57 L12.67 302.36 C12.67 302.24 12.71 302.14 12.79 302.06 C12.88 301.98 12.97 301.93
							 13.09 301.93 C13.2 301.93 13.3 301.98 13.39 302.06 C13.47 302.14 13.51 302.24 13.51 302.36 ZM13.06 309.96
							 C13.06 310.03 13.03 310.14 12.98 310.29 C12.92 310.43 12.85 310.58 12.77 310.75 C12.68 310.91 12.6 311.06
							 12.53 311.2 C12.45 311.34 12.39 311.45 12.33 311.53 C12.02 311.99 11.66 312.41 11.25 312.79 C10.84 313.17
							 10.39 313.49 9.91 313.76 C9.43 314.03 8.92 314.24 8.39 314.38 C7.86 314.53 7.31 314.6 6.74 314.6 C6.13
							 314.6 5.54 314.53 4.97 314.38 C4.4 314.24 3.85 314.02 3.34 313.74 C2.83 313.45 2.37 313.1 1.94 312.69
							 C1.51 312.27 1.15 311.8 0.84 311.28 L0.84 313.33 C0.84 313.45 0.8 313.55 0.72 313.63 C0.64 313.71 0.54
							 313.76 0.42 313.76 C0.31 313.76 0.21 313.71 0.13 313.63 C0.04 313.55 0 313.45 0 313.33 L0 309.96 C0
							 309.84 0.04 309.74 0.13 309.66 C0.21 309.58 0.31 309.53 0.42 309.53 L3.8 309.53 C3.91 309.53 4.01 309.58
							 4.1 309.66 C4.18 309.74 4.22 309.84 4.22 309.96 C4.22 310.07 4.18 310.17 4.1 310.25 C4.01 310.34 3.91
							 310.38 3.8 310.38 L1.33 310.38 C1.57 310.91 1.88 311.38 2.26 311.8 C2.63 312.21 3.06 312.57 3.52 312.86
							 C3.99 313.15 4.49 313.37 5.04 313.52 C5.59 313.68 6.15 313.76 6.72 313.76 C7.21 313.76 7.69 313.69 8.16
							 313.57 C8.63 313.45 9.08 313.27 9.5 313.03 C9.92 312.79 10.32 312.51 10.68 312.19 C11.05 311.86 11.36
							 311.49 11.62 311.08 C11.8 310.82 11.94 310.54 12.07 310.25 C12.1 310.18 12.12 310.11 12.15 310.03 C12.17
							 309.96 12.2 309.89 12.24 309.82 C12.29 309.73 12.34 309.66 12.39 309.61 C12.44 309.56 12.52 309.54 12.63
							 309.53 C12.75 309.53 12.85 309.57 12.94 309.65 C13.02 309.73 13.06 309.83 13.06 309.96 Z" class="st10"/>
			</g>
		</g>
		<g id="group1027-54" transform="translate(241.652,-60.549)" v:mID="1027" v:groupContext="group">
			<v:userDefs>
				<v:ud v:nameU="visNavOrder" v:val="VT0(20000):26"/>
			</v:userDefs>
			<title>Sheet.1027</title>
			<g id="shape1028-55" v:mID="1028" v:groupContext="shape">
				<title>Sheet.1028</title>
				<path d="M0.32 306.37 C0.21 306.1 0.13 305.82 0.08 305.54 C0.03 305.26 0 304.98 0 304.68 C0 304.07 0.11 303.49 0.35
							 302.95 C0.58 302.41 0.89 301.93 1.29 301.52 C1.68 301.1 2.15 300.78 2.69 300.55 C3.23 300.32 3.82 300.2
							 4.44 300.2 C5 300.2 5.55 300.3 6.08 300.51 C6.61 300.72 7.09 301.02 7.5 301.42 L7.86 301.78 C7.98 301.9
							 8.1 302.02 8.22 302.15 C8.34 302.03 8.47 301.9 8.58 301.78 C8.7 301.66 8.82 301.54 8.94 301.42 C9.35
							 301.03 9.82 300.73 10.34 300.53 C10.86 300.32 11.4 300.22 11.97 300.21 C12.6 300.21 13.18 300.33 13.73
							 300.58 C14.27 300.82 14.75 301.14 15.15 301.55 C15.55 301.96 15.87 302.44 16.11 302.99 C16.34 303.55
							 16.46 304.14 16.46 304.75 C16.46 305.03 16.44 305.3 16.39 305.57 C16.34 305.85 16.26 306.11 16.16 306.37
							 L15.03 306.37 C15.3 305.86 15.43 305.32 15.43 304.74 C15.43 304.26 15.34 303.81 15.17 303.39 C14.99
							 302.97 14.74 302.6 14.43 302.28 C14.11 301.96 13.74 301.71 13.33 301.53 C12.91 301.35 12.46 301.26 11.97
							 301.25 C11.51 301.25 11.07 301.33 10.66 301.5 C10.26 301.67 9.89 301.92 9.56 302.26 C9.46 302.36 9.36
							 302.47 9.27 302.57 C9.17 302.67 9.07 302.77 8.95 302.87 C8.75 303.08 8.51 303.18 8.22 303.18 C7.94 303.18
							 7.69 303.08 7.49 302.87 C7.38 302.77 7.28 302.66 7.18 302.56 C7.09 302.46 6.98 302.35 6.87 302.25 C6.55
							 301.92 6.18 301.67 5.76 301.49 C5.34 301.32 4.9 301.23 4.44 301.23 C3.96 301.23 3.51 301.32 3.1 301.5
							 C2.69 301.68 2.33 301.93 2.02 302.24 C1.71 302.55 1.47 302.92 1.29 303.34 C1.12 303.76 1.03 304.21 1.03
							 304.67 C1.03 304.97 1.07 305.27 1.14 305.55 C1.22 305.83 1.32 306.11 1.46 306.37 L0.32 306.37 ZM8.21
							 310.49 C8.12 310.49 8.04 310.46 7.96 310.4 C7.88 310.35 7.81 310.28 7.77 310.2 L5.59 305.85 L4.03 308.19
							 C3.92 308.35 3.78 308.43 3.6 308.43 L0.51 308.43 C0.38 308.43 0.25 308.38 0.15 308.28 C0.05 308.17 0
							 308.05 0 307.91 C0 307.77 0.05 307.65 0.15 307.55 C0.25 307.45 0.38 307.4 0.51 307.4 L3.33 307.4 L5.23
							 304.54 C5.28 304.46 5.34 304.41 5.42 304.37 C5.49 304.33 5.58 304.31 5.67 304.31 C5.76 304.31 5.84 304.34
							 5.92 304.39 C6 304.43 6.07 304.5 6.12 304.59 L8.28 308.92 L10.37 305.58 C10.47 305.42 10.61 305.34 10.79
							 305.34 C10.94 305.34 11.06 305.39 11.16 305.49 L13.08 307.4 L15.95 307.4 C16.08 307.4 16.2 307.45 16.31
							 307.55 C16.41 307.65 16.46 307.77 16.46 307.91 C16.46 308.05 16.41 308.17 16.31 308.28 C16.2 308.38
							 16.08 308.43 15.95 308.43 L12.86 308.43 C12.72 308.43 12.6 308.38 12.5 308.28 L10.9 306.68 L8.66 310.24
							 C8.56 310.4 8.41 310.49 8.21 310.49 ZM2.88 309.46 L4.32 309.46 L8.25 313.43 L12.18 309.46 L13.64 309.46
							 L8.74 314.4 C8.61 314.53 8.45 314.6 8.25 314.6 C8.07 314.6 7.91 314.53 7.77 314.4 L2.88 309.46 Z"
						class="st10"/>
			</g>
		</g>
	</g>
</svg>
