<?xml version="1.0" encoding="UTF-8" standalone="no"?>
<!DOCTYPE svg PUBLIC "-//W3C//DTD SVG 1.1//EN" "http://www.w3.org/Graphics/SVG/1.1/DTD/svg11.dtd">
<!-- Generated by Microsoft Visio, SVG Export azure-infra-storage-subscription-architecture-1.svg Page-1 -->
<svg xmlns="http://www.w3.org/2000/svg" xmlns:xlink="http://www.w3.org/1999/xlink" xmlns:ev="http://www.w3.org/2001/xml-events"
		xmlns:v="http://schemas.microsoft.com/visio/2003/SVGExtensions/" width="4.75458in" height="3.87083in"
		viewBox="0 0 342.33 278.7" xml:space="preserve" color-interpolation-filters="sRGB" class="st14">
	<v:documentProperties v:langID="1033" v:viewMarkup="false"/>

	<style type="text/css">
	<![CDATA[
		.st1 {visibility:visible}
		.st2 {fill:#000000;fill-opacity:0.15;filter:url(#filter_2);stroke:none}
		.st3 {fill:#cce9ff;stroke:none;stroke-width:1}
		.st4 {fill:none;stroke:none;stroke-width:1}
		.st5 {fill:#000000;font-family:Segoe UI Semibold;font-size:1.5em}
		.st6 {fill:#e6e6e6;stroke:none;stroke-width:1}
		.st7 {fill:none;stroke:none;stroke-width:0.25}
		.st8 {fill:#000000;font-family:Segoe UI Semibold;font-size:1.16666em}
		.st9 {fill:#ffffff;stroke:none;stroke-width:1}
		.st10 {fill:#000000;font-family:Segoe UI Semibold;font-size:1.00001em}
		.st11 {fill:#e6e6e6;stroke:none;stroke-width:0.25}
		.st12 {fill:#000000;font-family:Segoe UI;font-size:1.00001em}
		.st13 {fill:#0078d4;stroke:none;stroke-width:0.25}
		.st14 {fill:none;fill-rule:evenodd;font-size:12px;overflow:visible;stroke-linecap:square;stroke-miterlimit:3}
	]]>
	</style>

	<defs id="Filters">
		<filter id="filter_2">
			<feGaussianBlur stdDeviation="2"/>
		</filter>
	</defs>
	<g v:mID="0" v:index="1" v:groupContext="foregroundPage">
		<v:userDefs>
			<v:ud v:nameU="visNavType" v:val="VT0(1):26"/>
		</v:userDefs>
		<title>Page-1</title>
		<v:pageProperties v:drawingScale="1" v:pageScale="1" v:drawingUnits="19" v:shadowOffsetX="9" v:shadowOffsetY="-9"/>
		<v:layer v:name="symbols" v:index="0" v:glue="false"/>
		<g id="group4102-1" transform="translate(4.66502,-6.35001)" v:mID="4102" v:groupContext="group">
			<v:userDefs>
				<v:ud v:nameU="visNavOrder" v:val="VT0(982000):26"/>
			</v:userDefs>
			<title>Sheet.4102</title>
			<g id="shape3583-2" v:mID="3583" v:groupContext="shape">
				<title>Sheet.3583</title>
				<v:userDefs>
					<v:ud v:nameU="visNavOrder" v:val="VT0(868000):26"/>
				</v:userDefs>
				<g id="shadow3583-3" v:groupContext="shadow" v:shadowOffsetX="1.22465E-16" v:shadowOffsetY="-2" v:shadowType="1"
						v:shadowScale="1.01" transform="matrix(1.01,0,0,1.01,-1.665,0.563)" class="st1">
					<rect x="0" y="8.7" width="333" height="270" rx="4.5" ry="4.5" class="st2"/>
				</g>
				<rect x="0" y="8.7" width="333" height="270" rx="4.5" ry="4.5" class="st3"/>
			</g>
			<g id="shape3586-7" v:mID="3586" v:groupContext="shape" transform="translate(8.9964,-237.511)">
				<title>Sheet.3586</title>
				<desc>Microsoft Entra ID tenant</desc>
				<v:userDefs>
					<v:ud v:nameU="visNavOrder" v:prompt="" v:val="VT0(840000):26"/>
				</v:userDefs>
				<v:textBlock v:margins="rect(4,4,4,0)" v:verticalAlign="0"/>
				<v:textRect cx="123.9" cy="264.211" width="247.81" height="28.9784"/>
				<rect x="0" y="249.722" width="247.8" height="28.9784" rx="4.5" ry="4.5" class="st4"/>
				<text x="0" y="269.92" class="st5" v:langID="1033"><v:paragraph v:spAfter="6"/><v:tabList/>Microsoft Entra ID tenant</text>			</g>
			<g id="shape3587-10" v:mID="3587" v:groupContext="shape" v:layerMember="0" transform="translate(8.9964,-8.99661)">
				<title>Sheet.3587</title>
				<v:userDefs>
					<v:ud v:nameU="visNavOrder" v:prompt="" v:val="VT0(841000):26"/>
				</v:userDefs>
				<g id="shadow3587-11" v:groupContext="shadow" v:shadowOffsetX="1.22465E-16" v:shadowOffsetY="-2" v:shadowType="1"
						v:shadowScale="1.01" transform="matrix(1.01,0,0,1.01,-1.575,0.338)" class="st1">
					<rect x="0" y="53.7" width="315" height="225" rx="4.5" ry="4.5" class="st2"/>
				</g>
				<rect x="0" y="53.7" width="315" height="225" rx="4.5" ry="4.5" class="st6"/>
			</g>
			<g id="shape3608-15" v:mID="3608" v:groupContext="shape" transform="translate(17.9996,-200.693)">
				<title>Sheet.3608</title>
				<desc>Azure Subscription</desc>
				<v:userDefs>
					<v:ud v:nameU="visNavOrder" v:prompt="" v:val="VT0(869000):26"/>
				</v:userDefs>
				<v:textBlock v:margins="rect(0,0,0,0)"/>
				<v:textRect cx="114.186" cy="264.3" width="228.38" height="28.8"/>
				<rect x="0" y="249.9" width="228.372" height="28.8" class="st7"/>
				<text x="0" y="268.5" class="st8" v:langID="1033"><v:paragraph v:spAfter="6"/><v:tabList/>Azure Subscription</text>			</g>
			<g id="group3903-18" transform="translate(17.9996,-18.3746)" v:mID="3903" v:groupContext="group">
				<v:userDefs>
					<v:ud v:nameU="visNavOrder" v:val="VT0(945000):26"/>
				</v:userDefs>
				<title>Sheet.3903</title>
				<g id="shape3588-19" v:mID="3588" v:groupContext="shape" v:layerMember="0">
					<title>Sheet.3588</title>
					<v:userDefs>
						<v:ud v:nameU="visNavOrder" v:prompt="" v:val="VT0(873000):26"/>
					</v:userDefs>
					<g id="shadow3588-20" v:groupContext="shadow" v:shadowOffsetX="1.22465E-16" v:shadowOffsetY="-2"
							v:shadowType="1" v:shadowScale="1.01" transform="matrix(1.01,0,0,1.01,-1.485,0.12425)" class="st1">
						<rect x="0" y="96.45" width="297" height="182.25" rx="4.5" ry="4.5" class="st2"/>
					</g>
					<rect x="0" y="96.45" width="297" height="182.25" rx="4.5" ry="4.5" class="st9"/>
				</g>
				<g id="shape3589-24" v:mID="3589" v:groupContext="shape" v:layerMember="0" transform="translate(8.43784,-7.64408)">
					<title>Sheet.3589</title>
					<v:userDefs>
						<v:ud v:nameU="visNavOrder" v:prompt="" v:val="VT0(874000):26"/>
					</v:userDefs>
					<rect x="0" y="134.7" width="279" height="144" rx="4.5" ry="4.5" class="st3"/>
				</g>
				<g id="shape3590-26" v:mID="3590" v:groupContext="shape" v:layerMember="0" transform="translate(9.00156,-158.554)">
					<title>Sheet.3590</title>
					<desc>Storage resource group</desc>
					<v:userDefs>
						<v:ud v:nameU="visNavOrder" v:val="VT0(878000):26"/>
					</v:userDefs>
					<v:textBlock v:margins="rect(0,0,0,0)" v:verticalAlign="0"/>
					<v:textRect cx="127.124" cy="271.35" width="254.25" height="14.6993"/>
					<rect x="0" y="264.001" width="254.248" height="14.6993" class="st7"/>
					<text x="0" y="274.8" class="st10" v:langID="1033"><v:paragraph v:spAfter="6"/><v:tabList/>Storage resource group</text>				</g>
				<g id="shape3591-29" v:mID="3591" v:groupContext="shape" v:layerMember="0" transform="translate(17.9994,-129.747)">
					<title>Sheet.3591</title>
					<desc>Storage accounts</desc>
					<v:userDefs>
						<v:ud v:nameU="visNavOrder" v:val="VT0(879000):26"/>
					</v:userDefs>
					<v:textBlock v:margins="rect(0,0,0,0)" v:verticalAlign="0"/>
					<v:textRect cx="122.061" cy="271.35" width="244.13" height="14.6993"/>
					<rect x="0" y="264.001" width="244.123" height="14.6993" class="st7"/>
					<text x="0" y="274.8" class="st10" v:langID="1033"><v:paragraph v:spAfter="6"/><v:tabList/>Storage accounts</text>				</g>
				<g id="shape3612-32" v:mID="3612" v:groupContext="shape" v:layerMember="0" transform="translate(17.9994,-16.6475)">
					<title>Sheet.3612</title>
					<v:userDefs>
						<v:ud v:nameU="visNavOrder" v:prompt="" v:val="VT0(875000):26"/>
					</v:userDefs>
					<rect x="0" y="170.7" width="126" height="108" class="st11"/>
				</g>
				<g id="shape3613-34" v:mID="3613" v:groupContext="shape" v:layerMember="0" transform="translate(61.8894,-71.0677)">
					<title>Sheet.3613</title>
					<desc>Data set</desc>
					<v:userDefs>
						<v:ud v:nameU="visNavOrder" v:prompt="" v:val="VT0(876000):26"/>
					</v:userDefs>
					<v:textBlock v:margins="rect(0,0,0,0)"/>
					<v:textRect cx="23.6097" cy="269.7" width="47.22" height="18"/>
					<rect x="0" y="260.7" width="47.2195" height="18" rx="4.5" ry="4.5" class="st7"/>
					<text x="0" y="273.3" class="st12" v:langID="1033"><v:paragraph v:spAfter="6"/><v:tabList/>Data set</text>				</g>
				<g id="shape3614-37" v:mID="3614" v:groupContext="shape" v:layerMember="0" transform="translate(26.9988,-100.95)">
					<title>Sheet.3614</title>
					<desc>Blob Storage service</desc>
					<v:userDefs>
						<v:ud v:nameU="visNavOrder" v:val="VT0(880000):26"/>
					</v:userDefs>
					<v:textBlock v:margins="rect(0,0,0,0)" v:verticalAlign="0"/>
					<v:textRect cx="58.5737" cy="271.35" width="117.15" height="14.6993"/>
					<rect x="0" y="264.001" width="117.147" height="14.6993" class="st7"/>
					<text x="0" y="274.8" class="st10" v:langID="1033"><v:paragraph v:spAfter="6"/><v:tabList/>Blob Storage service</text>				</g>
				<g id="group3615-40" transform="translate(26.9988,-66.5677)" v:mID="3615" v:groupContext="group">
					<v:userDefs>
						<v:ud v:nameU="visNavOrder" v:val="VT0(882000):26"/>
					</v:userDefs>
					<title>Data Usage Blue.3615</title>
					<g id="shape3616-41" v:mID="3616" v:groupContext="shape">
						<title>Sheet.3616</title>
						<path d="M22.87 251.7 C25.15 251.7 27 253.55 27 255.83 L27 274.58 C27 276.85 25.15 278.7 22.87 278.7 L4.13
									 278.7 C1.85 278.7 0 276.85 0 274.58 L0 255.83 C0 253.55 1.85 251.7 4.12 251.7 L22.87 251.7 ZM7.12
									 260.7 C6.5 260.7 6 261.21 6 261.83 L6 271.58 C6 272.2 6.5 272.7 7.12 272.7 C7.75 272.7 8.25
									 272.2 8.25 271.58 L8.25 261.83 C8.25 261.21 7.75 260.7 7.12 260.7 ZM19.87 257.7 C19.25 257.7
									 18.75 258.19 18.75 258.8 L18.75 271.61 C18.75 272.22 19.25 272.7 19.87 272.7 C20.5 272.7 21
									 272.22 21 271.61 L21 258.8 C21 258.19 20.5 257.7 19.87 257.7 ZM13.46 265.2 C12.86 265.21 12.37
									 265.7 12.38 266.3 L12.43 271.62 C12.43 272.22 12.93 272.71 13.54 272.7 C14.14 272.69 14.63 272.2
									 14.62 271.6 L14.57 266.28 C14.57 265.68 14.07 265.19 13.46 265.2 Z" class="st13"/>
					</g>
				</g>
				<g id="shape3617-43" v:mID="3617" v:groupContext="shape" v:layerMember="0" transform="translate(61.8894,-30.2555)">
					<title>Sheet.3617</title>
					<desc>Data set</desc>
					<v:userDefs>
						<v:ud v:nameU="visNavOrder" v:prompt="" v:val="VT0(877000):26"/>
					</v:userDefs>
					<v:textBlock v:margins="rect(0,0,0,0)"/>
					<v:textRect cx="23.6097" cy="269.7" width="47.22" height="18"/>
					<rect x="0" y="260.7" width="47.2195" height="18" rx="4.5" ry="4.5" class="st7"/>
					<text x="0" y="273.3" class="st12" v:langID="1033"><v:paragraph v:spAfter="6"/><v:tabList/>Data set</text>				</g>
				<g id="shape3618-46" v:mID="3618" v:groupContext="shape" v:layerMember="0" transform="translate(153.359,-16.6475)">
					<title>Sheet.3618</title>
					<v:userDefs>
						<v:ud v:nameU="visNavOrder" v:prompt="" v:val="VT0(884000):26"/>
					</v:userDefs>
					<rect x="0" y="170.7" width="126" height="108" class="st11"/>
				</g>
				<g id="shape3619-48" v:mID="3619" v:groupContext="shape" v:layerMember="0" transform="translate(162.357,-100.95)">
					<title>Sheet.3619</title>
					<desc>Azure Files service</desc>
					<v:userDefs>
						<v:ud v:nameU="visNavOrder" v:val="VT0(881000):26"/>
					</v:userDefs>
					<v:textBlock v:margins="rect(0,0,0,0)" v:verticalAlign="0"/>
					<v:textRect cx="58.5737" cy="271.35" width="117.15" height="14.6993"/>
					<rect x="0" y="264.001" width="117.147" height="14.6993" class="st7"/>
					<text x="0" y="274.8" class="st10" v:langID="1033"><v:paragraph v:spAfter="6"/><v:tabList/>Azure Files service</text>				</g>
				<g id="group3620-51" transform="translate(26.9988,-25.7555)" v:mID="3620" v:groupContext="group">
					<v:userDefs>
						<v:ud v:nameU="visNavOrder" v:val="VT0(883000):26"/>
					</v:userDefs>
					<title>Data Usage Blue.3620</title>
					<g id="shape3621-52" v:mID="3621" v:groupContext="shape">
						<title>Sheet.3621</title>
						<path d="M22.87 251.7 C25.15 251.7 27 253.55 27 255.83 L27 274.58 C27 276.85 25.15 278.7 22.87 278.7 L4.13
									 278.7 C1.85 278.7 0 276.85 0 274.58 L0 255.83 C0 253.55 1.85 251.7 4.12 251.7 L22.87 251.7 ZM7.12
									 260.7 C6.5 260.7 6 261.21 6 261.83 L6 271.58 C6 272.2 6.5 272.7 7.12 272.7 C7.75 272.7 8.25
									 272.2 8.25 271.58 L8.25 261.83 C8.25 261.21 7.75 260.7 7.12 260.7 ZM19.87 257.7 C19.25 257.7
									 18.75 258.19 18.75 258.8 L18.75 271.61 C18.75 272.22 19.25 272.7 19.87 272.7 C20.5 272.7 21
									 272.22 21 271.61 L21 258.8 C21 258.19 20.5 257.7 19.87 257.7 ZM13.46 265.2 C12.86 265.21 12.37
									 265.7 12.38 266.3 L12.43 271.62 C12.43 272.22 12.93 272.71 13.54 272.7 C14.14 272.69 14.63 272.2
									 14.62 271.6 L14.57 266.28 C14.57 265.68 14.07 265.19 13.46 265.2 Z" class="st13"/>
					</g>
				</g>
				<g id="shape3733-54" v:mID="3733" v:groupContext="shape" v:layerMember="0" transform="translate(197.248,-71.0677)">
					<title>Sheet.3733</title>
					<desc>Data set</desc>
					<v:userDefs>
						<v:ud v:nameU="visNavOrder" v:prompt="" v:val="VT0(909000):26"/>
					</v:userDefs>
					<v:textBlock v:margins="rect(0,0,0,0)"/>
					<v:textRect cx="23.6097" cy="269.7" width="47.22" height="18"/>
					<rect x="0" y="260.7" width="47.2195" height="18" rx="4.5" ry="4.5" class="st7"/>
					<text x="0" y="273.3" class="st12" v:langID="1033"><v:paragraph v:spAfter="6"/><v:tabList/>Data set</text>				</g>
				<g id="group3734-57" transform="translate(162.357,-66.5677)" v:mID="3734" v:groupContext="group">
					<v:userDefs>
						<v:ud v:nameU="visNavOrder" v:val="VT0(911000):26"/>
					</v:userDefs>
					<title>Data Usage Blue.3734</title>
					<g id="shape3735-58" v:mID="3735" v:groupContext="shape">
						<title>Sheet.3735</title>
						<path d="M22.87 251.7 C25.15 251.7 27 253.55 27 255.83 L27 274.58 C27 276.85 25.15 278.7 22.87 278.7 L4.13
									 278.7 C1.85 278.7 0 276.85 0 274.58 L0 255.83 C0 253.55 1.85 251.7 4.12 251.7 L22.87 251.7 ZM7.12
									 260.7 C6.5 260.7 6 261.21 6 261.83 L6 271.58 C6 272.2 6.5 272.7 7.12 272.7 C7.75 272.7 8.25
									 272.2 8.25 271.58 L8.25 261.83 C8.25 261.21 7.75 260.7 7.12 260.7 ZM19.87 257.7 C19.25 257.7
									 18.75 258.19 18.75 258.8 L18.75 271.61 C18.75 272.22 19.25 272.7 19.87 272.7 C20.5 272.7 21
									 272.22 21 271.61 L21 258.8 C21 258.19 20.5 257.7 19.87 257.7 ZM13.46 265.2 C12.86 265.21 12.37
									 265.7 12.38 266.3 L12.43 271.62 C12.43 272.22 12.93 272.71 13.54 272.7 C14.14 272.69 14.63 272.2
									 14.62 271.6 L14.57 266.28 C14.57 265.68 14.07 265.19 13.46 265.2 Z" class="st13"/>
					</g>
				</g>
				<g id="shape3736-60" v:mID="3736" v:groupContext="shape" v:layerMember="0" transform="translate(197.248,-30.2555)">
					<title>Sheet.3736</title>
					<desc>Data set</desc>
					<v:userDefs>
						<v:ud v:nameU="visNavOrder" v:prompt="" v:val="VT0(910000):26"/>
					</v:userDefs>
					<v:textBlock v:margins="rect(0,0,0,0)"/>
					<v:textRect cx="23.6097" cy="269.7" width="47.22" height="18"/>
					<rect x="0" y="260.7" width="47.2195" height="18" rx="4.5" ry="4.5" class="st7"/>
					<text x="0" y="273.3" class="st12" v:langID="1033"><v:paragraph v:spAfter="6"/><v:tabList/>Data set</text>				</g>
				<g id="group3737-63" transform="translate(162.357,-25.7555)" v:mID="3737" v:groupContext="group">
					<v:userDefs>
						<v:ud v:nameU="visNavOrder" v:val="VT0(912000):26"/>
					</v:userDefs>
					<title>Data Usage Blue.3737</title>
					<g id="shape3738-64" v:mID="3738" v:groupContext="shape">
						<title>Sheet.3738</title>
						<path d="M22.87 251.7 C25.15 251.7 27 253.55 27 255.83 L27 274.58 C27 276.85 25.15 278.7 22.87 278.7 L4.13
									 278.7 C1.85 278.7 0 276.85 0 274.58 L0 255.83 C0 253.55 1.85 251.7 4.12 251.7 L22.87 251.7 ZM7.12
									 260.7 C6.5 260.7 6 261.21 6 261.83 L6 271.58 C6 272.2 6.5 272.7 7.12 272.7 C7.75 272.7 8.25
									 272.2 8.25 271.58 L8.25 261.83 C8.25 261.21 7.75 260.7 7.12 260.7 ZM19.87 257.7 C19.25 257.7
									 18.75 258.19 18.75 258.8 L18.75 271.61 C18.75 272.22 19.25 272.7 19.87 272.7 C20.5 272.7 21
									 272.22 21 271.61 L21 258.8 C21 258.19 20.5 257.7 19.87 257.7 ZM13.46 265.2 C12.86 265.21 12.37
									 265.7 12.38 266.3 L12.43 271.62 C12.43 272.22 12.93 272.71 13.54 272.7 C14.14 272.69 14.63 272.2
									 14.62 271.6 L14.57 266.28 C14.57 265.68 14.07 265.19 13.46 265.2 Z" class="st13"/>
					</g>
				</g>
			</g>
		</g>
	</g>
</svg>
