<svg width="64" height="64" xmlns="http://www.w3.org/2000/svg" xmlns:xlink="http://www.w3.org/1999/xlink" xml:space="preserve" overflow="hidden"><defs><linearGradient x1="839.556" y1="359.849" x2="858.06" y2="370.916" gradientUnits="userSpaceOnUse" spreadMethod="pad" id="fill0"><stop offset="0" stop-color="#0047B3"/><stop offset="1" stop-color="#0266DF"/></linearGradient><radialGradient cx="0" cy="0" r="1" gradientUnits="userSpaceOnUse" spreadMethod="pad" id="fill1" gradientTransform="matrix(-13.3931 -5.4011 4.67464 -11.5917 856.123 362.261)"><stop offset="0" stop-color="#001633" stop-opacity="0"/><stop offset="0.565" stop-color="#001633" stop-opacity="0"/><stop offset="0.89" stop-color="#001633" stop-opacity="0.3"/><stop offset="1" stop-color="#001633" stop-opacity="0"/></radialGradient><linearGradient x1="845.849" y1="379.333" x2="845.849" y2="383.463" gradientUnits="userSpaceOnUse" spreadMethod="pad" id="fill2"><stop offset="0" stop-color="#000000" stop-opacity="0"/><stop offset="0.015" stop-color="#000000" stop-opacity="0"/><stop offset="0.0425531" stop-color="#000000" stop-opacity="0.3"/><stop offset="1" stop-color="#000000" stop-opacity="0"/></linearGradient><radialGradient cx="0" cy="0" r="1" gradientUnits="userSpaceOnUse" spreadMethod="pad" id="fill3" gradientTransform="matrix(5.6652 7.82388 -15.1692 10.9839 833.133 379.902)"><stop offset="0" stop-color="#000000" stop-opacity="0.3"/><stop offset="0.97" stop-color="#000000" stop-opacity="0"/><stop offset="1" stop-color="#000000" stop-opacity="0"/></radialGradient><linearGradient x1="917.471" y1="411.275" x2="833.219" y2="342.672" gradientUnits="userSpaceOnUse" spreadMethod="pad" id="fill4"><stop offset="0" stop-color="#0F62AC"/><stop offset="0.531118" stop-color="#18A6EC"/><stop offset="0.776602" stop-color="#3CCEF9"/><stop offset="1" stop-color="#A8F0FF"/></linearGradient></defs><g transform="translate(-825 -338)"><path d="M837.657 392.924C834.936 391.905 833.133 389.305 833.133 386.399L833.133 353.943C833.133 349.069 838.008 345.702 842.566 347.427L851.623 350.855C854.332 351.88 856.123 354.474 856.123 357.371L856.123 394.814C856.123 397.245 853.696 398.929 851.419 398.076L837.657 392.924Z" fill="url(#fill0)"/><path d="M837.657 392.924C834.936 391.905 833.133 389.305 833.133 386.399L833.133 353.943C833.133 349.069 838.008 345.702 842.566 347.427L851.623 350.855C854.332 351.88 856.123 354.474 856.123 357.371L856.123 394.814C856.123 397.245 853.696 398.929 851.419 398.076L837.657 392.924Z" fill="url(#fill1)"/><path d="M837.657 392.924C834.936 391.905 833.133 389.305 833.133 386.399L833.133 353.943C833.133 349.069 838.008 345.702 842.566 347.427L851.623 350.855C854.332 351.88 856.123 354.474 856.123 357.371L856.123 394.814C856.123 397.245 853.696 398.929 851.419 398.076L837.657 392.924Z" fill="url(#fill2)"/><path d="M837.657 392.924C834.936 391.905 833.133 389.305 833.133 386.399L833.133 353.943C833.133 349.069 838.008 345.702 842.566 347.427L851.623 350.855C854.332 351.88 856.123 354.474 856.123 357.371L856.123 394.814C856.123 397.245 853.696 398.929 851.419 398.076L837.657 392.924Z" fill="url(#fill3)"/><path d="M833.133 386.708C833.133 381.985 837.698 379.962 841.685 379.962L870.584 379.962C875.655 379.962 879.765 375.852 879.765 370.782L879.765 350.496C879.765 345.426 875.655 341.316 870.584 341.316L842.313 341.316C837.243 341.316 833.133 345.426 833.133 350.496L833.133 386.708ZM856.104 371.379C862.304 371.379 867.329 366.354 867.329 360.154 867.329 353.955 862.304 348.929 856.104 348.929 849.905 348.929 844.879 353.955 844.879 360.154 844.879 366.354 849.905 371.379 856.104 371.379Z" fill="url(#fill4)" fill-rule="evenodd"/></g></svg>