<svg width="59" height="59" xmlns="http://www.w3.org/2000/svg" xmlns:xlink="http://www.w3.org/1999/xlink" xml:space="preserve" overflow="hidden"><defs><linearGradient x1="972.782" y1="392.98" x2="989.926" y2="356.237" gradientUnits="userSpaceOnUse" spreadMethod="pad" id="fill0"><stop offset="0" stop-color="#1169DA"/><stop offset="0.02" stop-color="#1169DA"/><stop offset="0.434784" stop-color="#0151BD"/><stop offset="0.614436" stop-color="#014DB7"/><stop offset="1" stop-color="#126AD9"/></linearGradient><radialGradient cx="0" cy="0" r="1" gradientUnits="userSpaceOnUse" spreadMethod="pad" id="fill1" gradientTransform="matrix(-12.1647 32.9667 -24.7247 -9.12341 995.317 339.516)"><stop offset="0" stop-color="#004AFF" stop-opacity="0.1"/><stop offset="0.422966" stop-color="#004AFF" stop-opacity="0.1"/><stop offset="0.728672" stop-color="#014DB9"/><stop offset="0.836135" stop-color="#014DB9" stop-opacity="0.9"/><stop offset="0.955" stop-color="#014DB9" stop-opacity="0"/><stop offset="1" stop-color="#014DB9" stop-opacity="0"/></radialGradient><radialGradient cx="0" cy="0" r="1" gradientUnits="userSpaceOnUse" spreadMethod="pad" id="fill2" gradientTransform="matrix(7.8896 -26.8383 32.7365 9.62349 958.644 391.544)"><stop offset="0" stop-color="#004AFF" stop-opacity="0.1"/><stop offset="0.0908532" stop-color="#004AFF" stop-opacity="0.1"/><stop offset="0.56036" stop-color="#014DB9"/><stop offset="0.749466" stop-color="#014DB9" stop-opacity="0.99"/><stop offset="1" stop-color="#014DB9" stop-opacity="0"/></radialGradient><radialGradient cx="0" cy="0" r="1" gradientUnits="userSpaceOnUse" spreadMethod="pad" id="fill3" gradientTransform="matrix(-47.2288 48.7126 -37.5216 -36.3787 1005.04 346.02)"><stop offset="0" stop-color="#23C0FE"/><stop offset="0.249322" stop-color="#23C0FE"/><stop offset="0.717207" stop-color="#23C0FE"/><stop offset="0.995168" stop-color="#1C91FF"/><stop offset="1" stop-color="#1C91FF"/></radialGradient><radialGradient cx="0" cy="0" r="1" gradientUnits="userSpaceOnUse" spreadMethod="pad" id="fill4" gradientTransform="matrix(33.8015 34.8359 -8.28756 8.04147 966.576 349.832)"><stop offset="0" stop-color="#096DD6" stop-opacity="0"/><stop offset="0.165" stop-color="#096DD6" stop-opacity="0"/><stop offset="0.484233" stop-color="#096DD6" stop-opacity="0.25"/><stop offset="0.900505" stop-color="#0876DE" stop-opacity="0.203467"/><stop offset="1" stop-color="#029AFF" stop-opacity="0"/></radialGradient><radialGradient cx="0" cy="0" r="1" gradientUnits="userSpaceOnUse" spreadMethod="pad" id="fill5" gradientTransform="matrix(-0.219204 7.78677 -7.02369 -0.197722 998.582 374.827)"><stop offset="0" stop-color="#0068B3" stop-opacity="0.55"/><stop offset="0.93" stop-color="#006CB8" stop-opacity="0"/><stop offset="1" stop-color="#006CB8" stop-opacity="0"/></radialGradient><linearGradient x1="965.945" y1="357.095" x2="974.03" y2="391.504" gradientUnits="userSpaceOnUse" spreadMethod="pad" id="fill6"><stop offset="0" stop-color="#92EEFE"/><stop offset="0.564559" stop-color="#35DDFF"/><stop offset="1" stop-color="#08B1F9"/></linearGradient><radialGradient cx="0" cy="0" r="1" gradientUnits="userSpaceOnUse" spreadMethod="pad" id="fill7" gradientTransform="matrix(4.21026 11.2195 -9.073 3.40475 960.293 346.02)"><stop offset="0" stop-color="#CCF9FF" stop-opacity="0.3255"/><stop offset="1" stop-color="#35DDFF" stop-opacity="0.35"/></radialGradient></defs><g transform="translate(-947 -340)"><path d="M952.214 353.288C952.214 347.146 960.258 343.784 965.571 347.704L977.123 356.221 986.871 350.705C992.024 347.9 1000.28 349.912 1000.38 357.58L1000.38 385.838C1000.38 391.98 992.57 395.182 987.257 391.261L975.495 382.559 965.735 388.075C960.534 390.907 952.222 388.734 952.222 381.272 952.222 372.314 952.214 375.754 952.214 353.288Z" fill="url(#fill0)"/><path d="M952.214 353.288C952.214 347.146 960.258 343.784 965.571 347.704L977.123 356.221 986.871 350.705C992.024 347.9 1000.28 349.912 1000.38 357.58L1000.38 385.838C1000.38 391.98 992.57 395.182 987.257 391.261L975.495 382.559 965.735 388.075C960.534 390.907 952.222 388.734 952.222 381.272 952.222 372.314 952.214 375.754 952.214 353.288Z" fill="url(#fill1)"/><path d="M952.214 353.288C952.214 347.146 960.258 343.784 965.571 347.704L977.123 356.221 986.871 350.705C992.024 347.9 1000.28 349.912 1000.38 357.58L1000.38 385.838C1000.38 391.98 992.57 395.182 987.257 391.261L975.495 382.559 965.735 388.075C960.534 390.907 952.222 388.734 952.222 381.272 952.222 372.314 952.214 375.754 952.214 353.288Z" fill="url(#fill2)"/><path d="M965.571 347.704C960.258 343.784 952.214 347.146 952.214 353.288L952.214 380.924C952.214 380.252 952.557 378.914 952.557 378.914 954.142 373.742 960.879 371.803 965.54 375.211L987.257 391.261C992.57 395.182 1000.38 391.98 1000.38 385.838L1000.38 357.58C1000.38 362.827 993.509 368.093 987.021 363.53L965.571 347.704Z" fill="url(#fill3)"/><path d="M965.571 347.704C960.258 343.784 952.214 347.146 952.214 353.288L952.214 380.924C952.214 380.252 952.557 378.914 952.557 378.914 954.142 373.742 960.879 371.803 965.54 375.211L987.257 391.261C992.57 395.182 1000.38 391.98 1000.38 385.838L1000.38 357.58C1000.38 362.827 993.509 368.093 987.021 363.53L965.571 347.704Z" fill="url(#fill4)"/><path d="M965.571 347.704C960.258 343.784 952.214 347.146 952.214 353.288L952.214 380.924C952.214 380.252 952.557 378.914 952.557 378.914 954.142 373.742 960.879 371.803 965.54 375.211L987.257 391.261C992.57 395.182 1000.38 391.98 1000.38 385.838L1000.38 357.58C1000.38 362.827 993.509 368.093 987.021 363.53L965.571 347.704Z" fill="url(#fill5)"/><path d="M965.571 363.366C960.258 359.446 952.214 362.808 952.214 368.95L952.214 353.288C952.214 347.146 960.258 343.784 965.571 347.704 972.721 352.979 979.871 358.255 987.021 363.53 993.509 368.093 1000.38 362.827 1000.38 357.58L1000.38 373.609C1000.38 379.75 992.334 383.112 987.021 379.192 979.871 373.917 972.721 368.641 965.571 363.366Z" fill="url(#fill6)"/><path d="M965.571 363.366C960.258 359.446 952.214 362.808 952.214 368.95L952.214 353.288C952.214 347.146 960.258 343.784 965.571 347.704 972.721 352.979 979.871 358.255 987.021 363.53 993.509 368.093 1000.38 362.827 1000.38 357.58L1000.38 373.609C1000.38 379.75 992.334 383.112 987.021 379.192 979.871 373.917 972.721 368.641 965.571 363.366Z" fill="url(#fill7)"/></g></svg>