<svg width="181" height="190" viewBox="0 0 181 190" fill="none" xmlns="http://www.w3.org/2000/svg">
<g clip-path="url(#clip0_991_260)">
<path d="M126.058 139.589C126.058 139.589 129.081 136.365 128.387 133.196C127.577 130.221 126.567 127.304 125.364 124.465C125.364 124.465 119.994 130.319 120.186 131.854C120.907 137.772 121.729 137.872 126.058 139.589Z" fill="#4165D2"/>
<path d="M114.186 145.9C114.186 145.9 116.789 142.347 115.73 139.279C114.574 136.43 113.229 133.663 111.702 130.995C111.702 130.995 107.081 137.388 107.446 138.923C108.871 144.713 109.693 144.713 114.186 145.9Z" fill="#226ED3"/>
<path d="M138.243 131.26C138.243 131.26 142.7 125.68 141.074 122.328C139.448 118.976 135.886 113.304 135.886 113.304C135.886 113.304 130.808 119.917 132.644 124.09C133.971 126.856 135.881 129.302 138.243 131.26Z" fill="#615CD0"/>
<path d="M148.947 119.177C146.132 117.667 143.964 115.183 142.846 112.191C141.589 108.554 141.321 104.649 142.07 100.875C142.07 100.875 149.86 106.765 149.942 109.167C150.025 111.569 148.947 119.177 148.947 119.177Z" fill="#994CCE"/>
<path d="M156.5 102.454C155.623 102.524 154.742 102.408 153.913 102.112C153.085 101.816 152.33 101.347 151.696 100.737C149.632 98.6729 146.353 89.0557 146.353 89.0557C146.353 89.0557 155.13 92.4897 156.847 94.5356C158.564 96.5814 156.5 102.454 156.5 102.454Z" fill="#BA42CD"/>
<path d="M166.436 89.6953C167.633 86.3982 169.56 81.6126 172.254 79.8225C174.948 78.0324 180.036 75.0276 180.036 75.0276C180.291 74.7536 178.839 83.704 176.446 86.0969C174.245 88.2797 166.436 89.6953 166.436 89.6953Z" fill="#CB45C8"/>
<path d="M164.811 70.0132C164.811 70.0132 165.058 62.451 166.519 59.2727C167.794 56.9097 169.444 54.7689 171.405 52.9341C171.405 52.9341 173.944 59.9029 171.213 64.5516C169.606 67.2916 167.249 68.5519 164.811 70.0132Z" fill="#DC64B4"/>
<path d="M158.427 48.1662C158.427 48.1662 156.089 44.0107 156.089 40.6314C156.089 37.2521 156.345 33.0874 156.345 33.0874C158.797 34.6878 160.633 37.0743 161.551 39.8552C163.113 44.5314 161.03 46.093 158.427 48.1662Z" fill="#EC81A1"/>
<path d="M162.181 106.564C162.181 106.564 164.574 100.865 168.364 99.6044C172.154 98.3441 178.949 98.0244 178.949 98.0244C178.949 98.0244 177.68 103.714 172.62 105.614C169.265 106.753 165.687 107.079 162.181 106.564Z" fill="#BA42CD"/>
<path d="M154.098 123.753C155.699 120.981 158.269 118.899 161.313 117.908C166.464 116.191 174.017 118.255 174.017 118.255C174.017 118.255 172.3 123.406 167.834 125.47C163.368 127.534 157.532 123.753 154.098 123.753Z" fill="#994CCE"/>
<path d="M158.107 84.7355C158.107 84.7355 152.253 84.2333 149.367 79.8494C147.393 76.6535 145.791 73.243 144.59 69.6841C144.59 69.6841 153.276 72.8624 156.08 74.4881C158.884 76.1138 158.107 84.7355 158.107 84.7355Z" fill="#CB45C8"/>
<path d="M154.764 63.9854C154.764 63.9854 148.216 63.9398 145.394 62.6885C142.571 61.4373 138.315 50.9341 138.315 50.9341C138.315 50.9341 149.074 52.5141 151.595 54.8157C154.116 57.1172 154.764 63.9854 154.764 63.9854Z" fill="#DC64B4"/>
<path d="M146.162 32.0649C146.162 32.0649 141.851 26.4298 141.851 24.1008C141.851 21.7719 142.18 13.8169 142.18 13.8169C142.18 13.8169 148.482 20.1187 148.482 23.1052C148.482 26.0918 146.162 32.0649 146.162 32.0649Z" fill="#F0889D"/>
<path d="M146.179 44.0929C146.179 44.0929 141.156 38.3117 139.32 37.6997C135.448 36.348 129.191 39.2706 129.191 39.2706C129.191 39.2706 134.9 45.262 138.324 45.8921C141.749 46.5223 146.179 44.0929 146.179 44.0929Z" fill="#EC81A1"/>
<path d="M136.032 21.8265C136.488 20.7703 136.572 19.5905 136.27 18.4805C135.968 17.3705 135.298 16.3958 134.37 15.7162C131.036 12.9763 126.041 12.063 126.041 12.063C126.041 12.063 127.429 17.342 129.091 18.7302C130.753 20.1185 136.032 21.8265 136.032 21.8265Z" fill="#FFA28C"/>
<path d="M147.056 137.343C150.39 135.964 150.773 133.617 156.801 135.334C162.829 137.051 165.304 138.841 165.304 138.841C165.304 138.841 163.77 142.302 156.929 142.796C150.088 143.289 147.056 137.343 147.056 137.343Z" fill="#615CD0"/>
<path d="M127.374 22.3193C148.664 34.85 162.866 57.3268 162.866 82.9727C162.866 115.542 139.978 142.996 108.734 151.471" stroke="url(#paint0_linear_991_260)" stroke-width="1.49802" stroke-miterlimit="10" stroke-linecap="round"/>
<path d="M134.525 32.7315C134.525 32.7315 132.269 29.0783 129.62 29.3888C127.802 29.6206 125.998 29.9466 124.214 30.3659C124.214 30.3659 126.817 33.5534 129.383 34.0192C131.949 34.485 134.525 32.7315 134.525 32.7315Z" fill="#F0889D"/>
<path d="M55.4356 139.589C55.4356 139.589 52.4125 136.365 53.1067 133.196C53.9167 130.221 54.9267 127.304 56.1298 124.465C56.1298 124.465 61.5 130.319 61.3082 131.854C60.5867 137.772 59.7648 137.872 55.4356 139.589Z" fill="#4165D2"/>
<path d="M67.3076 145.9C67.3076 145.9 64.7047 142.347 65.7642 139.279C66.9193 136.43 68.2649 133.663 69.7918 130.995C69.7918 130.995 74.4131 137.388 74.0478 138.923C72.623 144.713 71.8011 144.713 67.3076 145.9Z" fill="#226ED3"/>
<path d="M43.2509 131.26C43.2509 131.26 38.7941 125.68 40.4198 122.328C42.0455 118.976 45.6074 113.304 45.6074 113.304C45.6074 113.304 50.6854 119.917 48.8497 124.09C47.5228 126.856 45.6127 129.302 43.2509 131.26Z" fill="#615CD0"/>
<path d="M32.5467 119.177C35.3614 117.667 37.53 115.183 38.6476 112.191C39.9046 108.554 40.1726 104.649 39.424 100.875C39.424 100.875 31.6336 106.765 31.5514 109.167C31.4692 111.569 32.5467 119.177 32.5467 119.177Z" fill="#994CCE"/>
<path d="M24.9937 102.454C25.8704 102.524 26.7521 102.408 27.5803 102.112C28.4084 101.816 29.1642 101.347 29.7978 100.737C31.8619 98.6729 35.1407 89.0557 35.1407 89.0557C35.1407 89.0557 26.3638 92.4897 24.6468 94.5356C22.9297 96.5814 24.9937 102.454 24.9937 102.454Z" fill="#BA42CD"/>
<path d="M15.0574 89.6953C13.861 86.3982 11.9338 81.6126 9.23951 79.8225C6.54523 78.0324 1.45806 75.0276 1.45806 75.0276C1.20233 74.7536 2.65466 83.704 5.04754 86.0969C7.24863 88.2797 15.0574 89.6953 15.0574 89.6953Z" fill="#CB45C8"/>
<path d="M16.6829 70.0132C16.6829 70.0132 16.4362 62.451 14.9749 59.2727C13.6994 56.9097 12.0494 54.7689 10.0888 52.9341C10.0888 52.9341 7.54974 59.9029 10.2805 64.5516C11.888 67.2916 14.2443 68.5519 16.6829 70.0132Z" fill="#DC64B4"/>
<path d="M23.0663 48.1662C23.0663 48.1662 25.4043 44.0107 25.4043 40.6314C25.4043 37.2521 25.1487 33.0874 25.1487 33.0874C22.6963 34.6878 20.8604 37.0743 19.9427 39.8552C18.3809 44.5314 20.4634 46.093 23.0663 48.1662Z" fill="#EC81A1"/>
<path d="M19.313 106.564C19.313 106.564 16.9201 100.865 13.1298 99.6044C9.33957 98.3441 2.54465 98.0244 2.54465 98.0244C2.54465 98.0244 3.8141 103.714 8.87386 105.614C12.2292 106.753 15.8072 107.079 19.313 106.564Z" fill="#BA42CD"/>
<path d="M27.3962 123.753C25.7944 120.981 23.2245 118.899 20.1809 117.908C15.0298 116.191 7.47678 118.255 7.47678 118.255C7.47678 118.255 9.19383 123.406 13.6599 125.47C18.126 127.534 23.9622 123.753 27.3962 123.753Z" fill="#994CCE"/>
<path d="M23.3865 84.7355C23.3865 84.7355 29.2409 84.2333 32.127 79.8494C34.1003 76.6535 35.7028 73.243 36.9036 69.6841C36.9036 69.6841 28.2179 72.8624 25.414 74.4881C22.6101 76.1138 23.3865 84.7355 23.3865 84.7355Z" fill="#CB45C8"/>
<path d="M26.7296 63.9854C26.7296 63.9854 33.278 63.9398 36.1002 62.6885C38.9223 61.4373 43.1784 50.9341 43.1784 50.9341C43.1784 50.9341 32.4195 52.5141 29.8987 54.8157C27.378 57.1172 26.7296 63.9854 26.7296 63.9854Z" fill="#DC64B4"/>
<path d="M35.3319 32.0649C35.3319 32.0649 39.6427 26.4298 39.6427 24.1008C39.6427 21.7719 39.3141 13.8169 39.3141 13.8169C39.3141 13.8169 33.0121 20.1187 33.0121 23.1052C33.0121 26.0918 35.3319 32.0649 35.3319 32.0649Z" fill="#F0889D"/>
<path d="M35.3147 44.0929C35.3147 44.0929 40.3379 38.3117 42.1737 37.6997C46.0461 36.348 52.3024 39.2706 52.3024 39.2706C52.3024 39.2706 46.5942 45.262 43.1693 45.8921C39.7443 46.5223 35.3147 44.0929 35.3147 44.0929Z" fill="#EC81A1"/>
<path d="M45.4616 21.8265C45.0056 20.7703 44.9217 19.5905 45.2237 18.4805C45.5256 17.3705 46.1955 16.3958 47.1236 15.7162C50.4572 12.9763 55.4532 12.063 55.4532 12.063C55.4532 12.063 54.0649 17.342 52.4026 18.7302C50.7404 20.1185 45.4616 21.8265 45.4616 21.8265Z" fill="#FFA28C"/>
<path d="M34.4376 137.343C31.104 135.964 30.7205 133.617 24.6926 135.334C18.6647 137.051 16.1896 138.841 16.1896 138.841C16.1896 138.841 17.7239 142.302 24.5646 142.796C31.4053 143.289 34.4376 137.343 34.4376 137.343Z" fill="#615CD0"/>
<path d="M54.1194 22.3193C32.8301 34.85 18.6279 57.3268 18.6279 82.9727C18.6279 115.542 41.5156 142.996 72.7601 151.471" stroke="url(#paint1_linear_991_260)" stroke-width="1.49802" stroke-miterlimit="10" stroke-linecap="round"/>
<path d="M46.9686 32.7315C46.9686 32.7315 49.2246 29.0783 51.8732 29.3888C53.6912 29.6206 55.4959 29.9466 57.28 30.3659C57.28 30.3659 54.6771 33.5534 52.1107 34.0192C49.5443 34.485 46.9686 32.7315 46.9686 32.7315Z" fill="#F0889D"/>
<g filter="url(#filter0_b_991_260)">
<path fill-rule="evenodd" clip-rule="evenodd" d="M97.4317 28.3849C95.4074 27.1456 93.1601 26.5259 90.9045 26.5259C88.6489 26.5259 86.4015 27.1538 84.3773 28.3849L38.001 56.7494C33.8533 59.2859 31.2838 64.0367 31.2838 69.2006V125.467C31.2838 130.614 33.8451 135.382 38.001 137.918L84.3773 166.283C86.4015 167.522 88.6489 168.142 90.9045 168.142C93.1601 168.142 95.4074 167.53 97.4317 166.283L143.808 137.918C147.956 135.382 150.525 130.614 150.525 125.467V69.2006C150.525 64.0532 147.964 59.3024 143.808 56.7494L97.4317 28.3849Z" fill="white"/>
</g>
<g filter="url(#filter1_dddd_991_260)">
<path d="M90.9037 177.715C93.5199 177.715 96.0933 176.989 98.3674 175.604L151.348 143.407C156.085 140.525 159.017 135.114 159.017 129.266V65.3929C159.017 59.5622 156.085 54.1419 151.348 51.2522L98.3674 19.055C93.8106 16.285 87.9798 16.3021 83.4486 19.055L30.4678 51.2693C25.7314 54.1504 22.7818 59.5622 22.7818 65.41V129.274C22.7818 134.199 24.8764 138.833 28.3817 141.885V141.91L83.4486 175.621C85.7057 176.989 88.2876 177.715 90.9037 177.715ZM91.4595 22.9279C93.1266 22.9279 95.2469 23.9624 96.7088 24.8601L148.655 56.6554C151.861 58.6047 153.674 64.2473 153.674 68.3083L153.135 129.266C153.135 133.327 150.399 136.977 147.193 138.927L95.5546 170.029C92.6222 171.816 90.2369 171.816 87.2959 170.029L34.9648 138.85C31.7587 136.9 29.1768 133.31 29.1768 129.266V66.3077C29.1768 62.2553 31.5108 58.0746 34.7339 56.1168L86.5264 24.8601C87.9798 23.9709 89.7923 22.9279 91.4595 22.9279Z" fill="white"/>
</g>
<path fill-rule="evenodd" clip-rule="evenodd" d="M90.904 28.117C92.2845 28.117 93.8375 28.8319 95.5303 29.859L143.577 59.0632C146.576 60.8874 148.556 64.3962 148.556 68.3651V126.28C148.556 130.241 146.576 133.758 143.577 135.582L95.5385 164.786C93.9279 165.764 92.3502 166.381 90.9122 166.381C89.4742 166.381 87.8965 165.764 86.2859 164.786L38.2314 135.59C36.5797 134.58 35.3882 133.594 34.5829 132.271C33.7776 130.956 33.2517 129.132 33.2517 126.289V68.3733C33.2517 64.4044 35.2321 60.8956 38.2314 59.0714L86.2695 29.8673C87.9869 28.8401 89.5153 28.117 90.904 28.117ZM97.2395 167.605L145.278 138.401C149.32 135.944 151.835 131.326 151.835 126.289V68.3733C151.835 63.3361 149.32 58.718 145.278 56.2611L97.2395 27.057C95.5056 26.0051 93.2788 24.8301 90.904 24.8301C88.521 24.8301 86.2941 26.0134 84.5767 27.0487H84.5685L36.5222 56.2611C32.4793 58.718 29.9648 63.3361 29.9648 68.3733V126.289C29.9648 129.543 30.5729 132 31.7726 133.98C32.9723 135.952 34.6651 137.267 36.5222 138.393L84.5603 167.597C86.3845 168.706 88.5785 169.676 90.8958 169.676C93.213 169.676 95.4153 168.714 97.2395 167.605Z" fill="url(#paint2_linear_991_260)"/>
<path fill-rule="evenodd" clip-rule="evenodd" d="M90.9045 25.3221C92.3408 25.3221 93.9566 26.0659 95.7178 27.1346L145.706 57.5193C148.827 59.4173 150.887 63.0679 150.887 67.1973V127.454C150.887 131.575 148.827 135.234 145.706 137.132L95.7264 167.516C94.0507 168.534 92.4092 169.175 90.913 169.175C89.4169 169.175 87.7754 168.534 86.0997 167.516L36.1026 137.14C34.3842 136.089 33.1445 135.063 32.3066 133.686C31.4688 132.318 30.9216 130.42 30.9216 127.462V67.2058C30.9216 63.0764 32.982 59.4258 36.1026 57.5278L86.0826 27.1431C87.8694 26.0745 89.4596 25.3221 90.9045 25.3221ZM97.4961 170.449L147.476 140.064C151.682 137.508 154.299 132.703 154.299 127.462V67.2058C154.299 61.965 151.682 57.1602 147.476 54.6039L97.4961 24.2192C95.6922 23.1249 93.3753 21.9023 90.9045 21.9023C88.4252 21.9023 86.1083 23.1335 84.3214 24.2107H84.3129L34.3243 54.6039C30.118 57.1602 27.5019 61.965 27.5019 67.2058V127.462C27.5019 130.848 28.1345 133.404 29.3827 135.465C30.631 137.516 32.3921 138.884 34.3243 140.056L84.3043 170.44C86.2023 171.594 88.485 172.603 90.8959 172.603C93.3069 172.603 95.5981 171.603 97.4961 170.449Z" fill="url(#paint3_linear_991_260)"/>
<g filter="url(#filter2_ddddd_991_260)">
<path d="M132.8 113.286C134.936 114.518 134.942 117.6 132.81 118.84L92.52 142.281C91.5255 142.86 90.2973 142.862 89.301 142.286L48.6934 118.826C46.5575 117.592 46.5545 114.51 48.688 113.272L88.9912 89.8829C89.9845 89.3065 91.2101 89.3048 92.2049 89.8785L132.8 113.286Z" fill="#0078D4"/>
</g>
<g filter="url(#filter3_ddddd_991_260)">
<path d="M132.802 95.4698C134.938 96.7035 134.941 99.7847 132.809 101.023L92.518 124.426C91.5245 125.003 90.2983 125.005 89.303 124.431L48.6933 101.009C46.557 99.7766 46.5512 96.6954 48.6828 95.4552L88.9737 72.0137C89.9682 71.4351 91.1964 71.4332 92.1927 72.0088L132.802 95.4698Z" fill="#32B0E7"/>
</g>
<g filter="url(#filter4_ddddd_991_260)">
<path d="M132.801 76.139C134.937 77.3728 134.94 80.4546 132.807 81.6929L92.5173 105.082C91.5241 105.658 90.2985 105.66 89.3036 105.087L48.6952 81.6782C46.5584 80.4464 46.5522 77.3647 48.6841 76.1244L88.9736 52.6836C89.9682 52.105 91.1964 52.1031 92.1927 52.6787L132.801 76.139Z" fill="url(#paint4_linear_991_260)"/>
</g>
<g filter="url(#filter5_f_991_260)">
<path d="M126.057 146.157C126.057 146.157 129.077 142.937 128.387 139.767C127.577 136.787 126.567 133.877 125.367 131.037C125.367 131.037 119.997 136.897 120.187 138.427C120.907 144.347 121.727 144.447 126.057 146.167V146.157Z" fill="url(#paint5_linear_991_260)"/>
<path d="M114.187 152.467C114.187 152.467 116.787 148.917 115.727 145.847C114.577 142.997 113.227 140.227 111.697 137.567C111.697 137.567 107.077 143.957 107.437 145.497C108.857 151.287 109.687 151.287 114.177 152.477L114.187 152.467Z" fill="url(#paint6_linear_991_260)"/>
<path d="M138.247 137.827C138.247 137.827 142.707 132.247 141.077 128.897C139.457 125.547 135.887 119.877 135.887 119.877C135.887 119.877 130.807 126.487 132.647 130.667C133.977 133.427 135.887 135.877 138.247 137.837V137.827Z" fill="url(#paint7_linear_991_260)"/>
<path d="M149.947 115.737C149.937 115.357 149.717 114.887 149.377 114.367V122.497C149.667 120.127 149.997 117.097 149.947 115.737Z" fill="url(#paint8_linear_991_260)"/>
<path d="M142.067 107.447C141.317 111.217 141.587 115.127 142.847 118.767C143.967 121.757 146.137 124.247 148.947 125.757C148.947 125.757 149.147 124.327 149.377 122.507V114.377C147.587 111.627 142.077 107.457 142.077 107.457L142.067 107.447Z" fill="url(#paint9_linear_991_260)"/>
<path d="M149.367 103.307V96.8872C147.657 96.1372 146.347 95.6272 146.347 95.6272C146.347 95.6272 147.787 99.8572 149.367 103.307Z" fill="url(#paint10_linear_991_260)"/>
<path d="M149.367 86.4172V78.0772C146.807 77.0672 144.587 76.2472 144.587 76.2472C145.787 79.8072 147.387 83.2172 149.367 86.4172Z" fill="url(#paint11_linear_991_260)"/>
<path d="M145.397 69.2572C146.087 69.5572 146.987 69.7972 147.967 69.9672C146.827 67.5472 145.047 65.4872 142.787 64.0972L140.787 62.8672C142.207 65.6572 143.987 68.6172 145.397 69.2472V69.2572Z" fill="url(#paint12_linear_991_260)"/>
<path d="M108.537 157.317C108.137 157.427 107.907 157.837 108.007 158.237C108.097 158.567 108.397 158.787 108.727 158.787C108.787 158.787 108.857 158.787 108.927 158.757C125.607 154.227 139.677 144.397 149.367 131.527C149.367 131.517 149.367 131.497 149.367 131.487V128.997C139.847 142.407 125.587 152.687 108.537 157.317Z" fill="url(#paint13_linear_991_260)"/>
<path d="M53.1069 139.767C52.4169 142.937 55.4369 146.157 55.4369 146.157C59.7669 144.437 60.587 144.337 61.3069 138.417C61.497 136.887 56.1269 131.027 56.1269 131.027C54.9269 133.867 53.9169 136.787 53.1069 139.757V139.767Z" fill="url(#paint14_linear_991_260)"/>
<path d="M65.767 145.847C64.707 148.917 67.307 152.467 67.307 152.467C71.797 151.277 72.627 151.277 74.047 145.487C74.417 143.957 69.787 137.557 69.787 137.557C68.257 140.227 66.917 142.987 65.757 145.837L65.767 145.847Z" fill="url(#paint15_linear_991_260)"/>
<path d="M40.417 128.897C38.787 132.247 43.247 137.827 43.247 137.827C45.607 135.867 47.517 133.427 48.847 130.657C50.687 126.487 45.607 119.867 45.607 119.867C45.607 119.867 42.047 125.537 40.417 128.887V128.897Z" fill="url(#paint16_linear_991_260)"/>
<path d="M31.5468 115.737C31.4768 117.667 32.1568 122.947 32.4368 124.947V113.907C31.9168 114.607 31.5668 115.237 31.5468 115.727V115.737Z" fill="url(#paint17_linear_991_260)"/>
<path d="M38.6468 118.757C39.9068 115.117 40.1668 111.217 39.4268 107.437C39.4268 107.437 34.4968 111.177 32.4368 113.907V124.947C32.5068 125.437 32.5468 125.747 32.5468 125.747C35.3568 124.237 37.5268 121.757 38.6468 118.757Z" fill="url(#paint18_linear_991_260)"/>
<path d="M32.4368 96.7472V102.607C33.8868 99.3072 35.1368 95.6272 35.1368 95.6272C35.1368 95.6272 33.9768 96.0772 32.4368 96.7472Z" fill="url(#paint19_linear_991_260)"/>
<path d="M32.4368 77.9572V85.8872C34.2668 82.8472 35.7668 79.6172 36.9068 76.2572C36.9068 76.2572 34.8668 77.0072 32.4368 77.9572Z" fill="url(#paint20_linear_991_260)"/>
<path d="M40.567 63.1572L39.027 64.0972C36.787 65.4672 35.017 67.4972 33.877 69.8972C34.717 69.7272 35.497 69.5172 36.107 69.2472C37.477 68.6372 39.177 65.8572 40.577 63.1472L40.567 63.1572Z" fill="url(#paint21_linear_991_260)"/>
<path d="M72.5668 158.767C72.6368 158.787 72.6968 158.797 72.7668 158.797C73.0968 158.797 73.3968 158.577 73.4868 158.247C73.5968 157.847 73.3568 157.437 72.9568 157.327C56.0968 152.757 41.9568 142.657 32.4368 129.467V131.507C32.4368 131.667 32.4368 131.827 32.4468 131.987C42.1268 144.647 56.0668 154.307 72.5568 158.777L72.5668 158.767Z" fill="url(#paint22_linear_991_260)"/>
</g>
</g>
<defs>
<filter id="filter0_b_991_260" x="15.2388" y="10.4809" width="151.331" height="173.706" filterUnits="userSpaceOnUse" color-interpolation-filters="sRGB">
<feFlood flood-opacity="0" result="BackgroundImageFix"/>
<feGaussianBlur in="BackgroundImageFix" stdDeviation="8.02249"/>
<feComposite in2="SourceAlpha" operator="in" result="effect1_backgroundBlur_991_260"/>
<feBlend mode="normal" in="SourceGraphic" in2="effect1_backgroundBlur_991_260" result="shape"/>
</filter>
<filter id="filter1_dddd_991_260" x="18.7818" y="16.9839" width="144.235" height="174.731" filterUnits="userSpaceOnUse" color-interpolation-filters="sRGB">
<feFlood flood-opacity="0" result="BackgroundImageFix"/>
<feColorMatrix in="SourceAlpha" type="matrix" values="0 0 0 0 0 0 0 0 0 0 0 0 0 0 0 0 0 0 127 0" result="hardAlpha"/>
<feOffset dy="1"/>
<feGaussianBlur stdDeviation="0.5"/>
<feColorMatrix type="matrix" values="0 0 0 0 0 0 0 0 0 0 0 0 0 0 0 0 0 0 0.1 0"/>
<feBlend mode="normal" in2="BackgroundImageFix" result="effect1_dropShadow_991_260"/>
<feColorMatrix in="SourceAlpha" type="matrix" values="0 0 0 0 0 0 0 0 0 0 0 0 0 0 0 0 0 0 127 0" result="hardAlpha"/>
<feOffset dy="2"/>
<feGaussianBlur stdDeviation="1"/>
<feColorMatrix type="matrix" values="0 0 0 0 0 0 0 0 0 0 0 0 0 0 0 0 0 0 0.09 0"/>
<feBlend mode="normal" in2="effect1_dropShadow_991_260" result="effect2_dropShadow_991_260"/>
<feColorMatrix in="SourceAlpha" type="matrix" values="0 0 0 0 0 0 0 0 0 0 0 0 0 0 0 0 0 0 127 0" result="hardAlpha"/>
<feOffset dy="5"/>
<feGaussianBlur stdDeviation="1.5"/>
<feColorMatrix type="matrix" values="0 0 0 0 0 0 0 0 0 0 0 0 0 0 0 0 0 0 0.05 0"/>
<feBlend mode="normal" in2="effect2_dropShadow_991_260" result="effect3_dropShadow_991_260"/>
<feColorMatrix in="SourceAlpha" type="matrix" values="0 0 0 0 0 0 0 0 0 0 0 0 0 0 0 0 0 0 127 0" result="hardAlpha"/>
<feOffset dy="10"/>
<feGaussianBlur stdDeviation="2"/>
<feColorMatrix type="matrix" values="0 0 0 0 0 0 0 0 0 0 0 0 0 0 0 0 0 0 0.01 0"/>
<feBlend mode="normal" in2="effect3_dropShadow_991_260" result="effect4_dropShadow_991_260"/>
<feBlend mode="normal" in="SourceGraphic" in2="effect4_dropShadow_991_260" result="shape"/>
</filter>
<filter id="filter2_ddddd_991_260" x="38.5324" y="87.3099" width="104.43" height="84.2879" filterUnits="userSpaceOnUse" color-interpolation-filters="sRGB">
<feFlood flood-opacity="0" result="BackgroundImageFix"/>
<feColorMatrix in="SourceAlpha" type="matrix" values="0 0 0 0 0 0 0 0 0 0 0 0 0 0 0 0 0 0 127 0" result="hardAlpha"/>
<feOffset/>
<feColorMatrix type="matrix" values="0 0 0 0 0.0588235 0 0 0 0 0.0862745 0 0 0 0 0.141176 0 0 0 0.1 0"/>
<feBlend mode="normal" in2="BackgroundImageFix" result="effect1_dropShadow_991_260"/>
<feColorMatrix in="SourceAlpha" type="matrix" values="0 0 0 0 0 0 0 0 0 0 0 0 0 0 0 0 0 0 127 0" result="hardAlpha"/>
<feOffset dy="1.06967"/>
<feGaussianBlur stdDeviation="1.6045"/>
<feColorMatrix type="matrix" values="0 0 0 0 0.0588235 0 0 0 0 0.0862745 0 0 0 0 0.141176 0 0 0 0.1 0"/>
<feBlend mode="normal" in2="effect1_dropShadow_991_260" result="effect2_dropShadow_991_260"/>
<feColorMatrix in="SourceAlpha" type="matrix" values="0 0 0 0 0 0 0 0 0 0 0 0 0 0 0 0 0 0 127 0" result="hardAlpha"/>
<feOffset dy="5.34833"/>
<feGaussianBlur stdDeviation="2.67416"/>
<feColorMatrix type="matrix" values="0 0 0 0 0.0588235 0 0 0 0 0.0862745 0 0 0 0 0.141176 0 0 0 0.09 0"/>
<feBlend mode="normal" in2="effect2_dropShadow_991_260" result="effect3_dropShadow_991_260"/>
<feColorMatrix in="SourceAlpha" type="matrix" values="0 0 0 0 0 0 0 0 0 0 0 0 0 0 0 0 0 0 127 0" result="hardAlpha"/>
<feOffset dy="11.7663"/>
<feGaussianBlur stdDeviation="3.74383"/>
<feColorMatrix type="matrix" values="0 0 0 0 0.0588235 0 0 0 0 0.0862745 0 0 0 0 0.141176 0 0 0 0.05 0"/>
<feBlend mode="normal" in2="effect3_dropShadow_991_260" result="effect4_dropShadow_991_260"/>
<feColorMatrix in="SourceAlpha" type="matrix" values="0 0 0 0 0 0 0 0 0 0 0 0 0 0 0 0 0 0 127 0" result="hardAlpha"/>
<feOffset dy="20.3237"/>
<feGaussianBlur stdDeviation="4.27866"/>
<feColorMatrix type="matrix" values="0 0 0 0 0.0588235 0 0 0 0 0.0862745 0 0 0 0 0.141176 0 0 0 0.01 0"/>
<feBlend mode="normal" in2="effect4_dropShadow_991_260" result="effect5_dropShadow_991_260"/>
<feBlend mode="normal" in="SourceGraphic" in2="effect5_dropShadow_991_260" result="shape"/>
</filter>
<filter id="filter3_ddddd_991_260" x="38.5303" y="69.4393" width="104.433" height="84.3016" filterUnits="userSpaceOnUse" color-interpolation-filters="sRGB">
<feFlood flood-opacity="0" result="BackgroundImageFix"/>
<feColorMatrix in="SourceAlpha" type="matrix" values="0 0 0 0 0 0 0 0 0 0 0 0 0 0 0 0 0 0 127 0" result="hardAlpha"/>
<feOffset/>
<feColorMatrix type="matrix" values="0 0 0 0 0.0588235 0 0 0 0 0.0862745 0 0 0 0 0.141176 0 0 0 0.1 0"/>
<feBlend mode="normal" in2="BackgroundImageFix" result="effect1_dropShadow_991_260"/>
<feColorMatrix in="SourceAlpha" type="matrix" values="0 0 0 0 0 0 0 0 0 0 0 0 0 0 0 0 0 0 127 0" result="hardAlpha"/>
<feOffset dy="1.06967"/>
<feGaussianBlur stdDeviation="1.6045"/>
<feColorMatrix type="matrix" values="0 0 0 0 0.0588235 0 0 0 0 0.0862745 0 0 0 0 0.141176 0 0 0 0.1 0"/>
<feBlend mode="normal" in2="effect1_dropShadow_991_260" result="effect2_dropShadow_991_260"/>
<feColorMatrix in="SourceAlpha" type="matrix" values="0 0 0 0 0 0 0 0 0 0 0 0 0 0 0 0 0 0 127 0" result="hardAlpha"/>
<feOffset dy="5.34833"/>
<feGaussianBlur stdDeviation="2.67416"/>
<feColorMatrix type="matrix" values="0 0 0 0 0.0588235 0 0 0 0 0.0862745 0 0 0 0 0.141176 0 0 0 0.09 0"/>
<feBlend mode="normal" in2="effect2_dropShadow_991_260" result="effect3_dropShadow_991_260"/>
<feColorMatrix in="SourceAlpha" type="matrix" values="0 0 0 0 0 0 0 0 0 0 0 0 0 0 0 0 0 0 127 0" result="hardAlpha"/>
<feOffset dy="11.7663"/>
<feGaussianBlur stdDeviation="3.209"/>
<feColorMatrix type="matrix" values="0 0 0 0 0.0588235 0 0 0 0 0.0862745 0 0 0 0 0.141176 0 0 0 0.05 0"/>
<feBlend mode="normal" in2="effect3_dropShadow_991_260" result="effect4_dropShadow_991_260"/>
<feColorMatrix in="SourceAlpha" type="matrix" values="0 0 0 0 0 0 0 0 0 0 0 0 0 0 0 0 0 0 127 0" result="hardAlpha"/>
<feOffset dy="20.3237"/>
<feGaussianBlur stdDeviation="4.27866"/>
<feColorMatrix type="matrix" values="0 0 0 0 0.0588235 0 0 0 0 0.0862745 0 0 0 0 0.141176 0 0 0 0.01 0"/>
<feBlend mode="normal" in2="effect4_dropShadow_991_260" result="effect5_dropShadow_991_260"/>
<feBlend mode="normal" in="SourceGraphic" in2="effect5_dropShadow_991_260" result="shape"/>
</filter>
<filter id="filter4_ddddd_991_260" x="38.5315" y="50.1092" width="104.431" height="84.2874" filterUnits="userSpaceOnUse" color-interpolation-filters="sRGB">
<feFlood flood-opacity="0" result="BackgroundImageFix"/>
<feColorMatrix in="SourceAlpha" type="matrix" values="0 0 0 0 0 0 0 0 0 0 0 0 0 0 0 0 0 0 127 0" result="hardAlpha"/>
<feOffset/>
<feColorMatrix type="matrix" values="0 0 0 0 0.0588235 0 0 0 0 0.0862745 0 0 0 0 0.141176 0 0 0 0.1 0"/>
<feBlend mode="normal" in2="BackgroundImageFix" result="effect1_dropShadow_991_260"/>
<feColorMatrix in="SourceAlpha" type="matrix" values="0 0 0 0 0 0 0 0 0 0 0 0 0 0 0 0 0 0 127 0" result="hardAlpha"/>
<feOffset dy="1.06967"/>
<feGaussianBlur stdDeviation="1.6045"/>
<feColorMatrix type="matrix" values="0 0 0 0 0.0588235 0 0 0 0 0.0862745 0 0 0 0 0.141176 0 0 0 0.1 0"/>
<feBlend mode="normal" in2="effect1_dropShadow_991_260" result="effect2_dropShadow_991_260"/>
<feColorMatrix in="SourceAlpha" type="matrix" values="0 0 0 0 0 0 0 0 0 0 0 0 0 0 0 0 0 0 127 0" result="hardAlpha"/>
<feOffset dy="5.34833"/>
<feGaussianBlur stdDeviation="2.67416"/>
<feColorMatrix type="matrix" values="0 0 0 0 0.0588235 0 0 0 0 0.0862745 0 0 0 0 0.141176 0 0 0 0.09 0"/>
<feBlend mode="normal" in2="effect2_dropShadow_991_260" result="effect3_dropShadow_991_260"/>
<feColorMatrix in="SourceAlpha" type="matrix" values="0 0 0 0 0 0 0 0 0 0 0 0 0 0 0 0 0 0 127 0" result="hardAlpha"/>
<feOffset dy="11.7663"/>
<feGaussianBlur stdDeviation="3.209"/>
<feColorMatrix type="matrix" values="0 0 0 0 0.0588235 0 0 0 0 0.0862745 0 0 0 0 0.141176 0 0 0 0.05 0"/>
<feBlend mode="normal" in2="effect3_dropShadow_991_260" result="effect4_dropShadow_991_260"/>
<feColorMatrix in="SourceAlpha" type="matrix" values="0 0 0 0 0 0 0 0 0 0 0 0 0 0 0 0 0 0 127 0" result="hardAlpha"/>
<feOffset dy="20.3237"/>
<feGaussianBlur stdDeviation="4.27866"/>
<feColorMatrix type="matrix" values="0 0 0 0 0.0588235 0 0 0 0 0.0862745 0 0 0 0 0.141176 0 0 0 0.01 0"/>
<feBlend mode="normal" in2="effect4_dropShadow_991_260" result="effect5_dropShadow_991_260"/>
<feBlend mode="normal" in="SourceGraphic" in2="effect5_dropShadow_991_260" result="shape"/>
</filter>
<filter id="filter5_f_991_260" x="11.5418" y="42.8672" width="158.41" height="135.93" filterUnits="userSpaceOnUse" color-interpolation-filters="sRGB">
<feFlood flood-opacity="0" result="BackgroundImageFix"/>
<feBlend mode="normal" in="SourceGraphic" in2="BackgroundImageFix" result="shape"/>
<feGaussianBlur stdDeviation="10" result="effect1_foregroundBlur_991_260"/>
</filter>
<linearGradient id="paint0_linear_991_260" x1="131.855" y1="150.499" x2="137.011" y2="29.0337" gradientUnits="userSpaceOnUse">
<stop stop-color="#1772D3"/>
<stop offset="0.364583" stop-color="#9B4BCE"/>
<stop offset="0.71875" stop-color="#DA5FB7"/>
<stop offset="1" stop-color="#FFA28C"/>
</linearGradient>
<linearGradient id="paint1_linear_991_260" x1="49.639" y1="150.499" x2="44.4824" y2="29.0337" gradientUnits="userSpaceOnUse">
<stop stop-color="#1772D3"/>
<stop offset="0.364583" stop-color="#9B4BCE"/>
<stop offset="0.71875" stop-color="#DA5FB7"/>
<stop offset="1" stop-color="#FFA28C"/>
</linearGradient>
<linearGradient id="paint2_linear_991_260" x1="57.0942" y1="32.4053" x2="136.739" y2="165.917" gradientUnits="userSpaceOnUse">
<stop offset="0.0001" stop-color="#50E6FF"/>
<stop offset="0.96471" stop-color="#0078D4"/>
</linearGradient>
<linearGradient id="paint3_linear_991_260" x1="44.8399" y1="19.612" x2="187.339" y2="260.989" gradientUnits="userSpaceOnUse">
<stop stop-color="#007ED8"/>
<stop offset="0.7065" stop-color="#002D4C"/>
</linearGradient>
<linearGradient id="paint4_linear_991_260" x1="61.8192" y1="64.6494" x2="154.657" y2="143.04" gradientUnits="userSpaceOnUse">
<stop stop-color="#50E6FF"/>
<stop offset="1" stop-color="#3BC8F4"/>
</linearGradient>
<linearGradient id="paint5_linear_991_260" x1="81.6714" y1="157.551" x2="82.9691" y2="68.1345" gradientUnits="userSpaceOnUse">
<stop stop-color="#1772D3"/>
<stop offset="0.364583" stop-color="#9B4BCE"/>
<stop offset="0.71875" stop-color="#DA5FB7"/>
<stop offset="1" stop-color="#FFA28C"/>
</linearGradient>
<linearGradient id="paint6_linear_991_260" x1="81.6714" y1="157.551" x2="82.9691" y2="68.1345" gradientUnits="userSpaceOnUse">
<stop stop-color="#1772D3"/>
<stop offset="0.364583" stop-color="#9B4BCE"/>
<stop offset="0.71875" stop-color="#DA5FB7"/>
<stop offset="1" stop-color="#FFA28C"/>
</linearGradient>
<linearGradient id="paint7_linear_991_260" x1="81.6714" y1="157.551" x2="82.9691" y2="68.1345" gradientUnits="userSpaceOnUse">
<stop stop-color="#1772D3"/>
<stop offset="0.364583" stop-color="#9B4BCE"/>
<stop offset="0.71875" stop-color="#DA5FB7"/>
<stop offset="1" stop-color="#FFA28C"/>
</linearGradient>
<linearGradient id="paint8_linear_991_260" x1="81.6714" y1="157.551" x2="82.9691" y2="68.1345" gradientUnits="userSpaceOnUse">
<stop stop-color="#1772D3"/>
<stop offset="0.364583" stop-color="#9B4BCE"/>
<stop offset="0.71875" stop-color="#DA5FB7"/>
<stop offset="1" stop-color="#FFA28C"/>
</linearGradient>
<linearGradient id="paint9_linear_991_260" x1="81.6714" y1="157.551" x2="82.9691" y2="68.1345" gradientUnits="userSpaceOnUse">
<stop stop-color="#1772D3"/>
<stop offset="0.364583" stop-color="#9B4BCE"/>
<stop offset="0.71875" stop-color="#DA5FB7"/>
<stop offset="1" stop-color="#FFA28C"/>
</linearGradient>
<linearGradient id="paint10_linear_991_260" x1="81.6714" y1="157.551" x2="82.9691" y2="68.1345" gradientUnits="userSpaceOnUse">
<stop stop-color="#1772D3"/>
<stop offset="0.364583" stop-color="#9B4BCE"/>
<stop offset="0.71875" stop-color="#DA5FB7"/>
<stop offset="1" stop-color="#FFA28C"/>
</linearGradient>
<linearGradient id="paint11_linear_991_260" x1="81.6714" y1="157.551" x2="82.9691" y2="68.1345" gradientUnits="userSpaceOnUse">
<stop stop-color="#1772D3"/>
<stop offset="0.364583" stop-color="#9B4BCE"/>
<stop offset="0.71875" stop-color="#DA5FB7"/>
<stop offset="1" stop-color="#FFA28C"/>
</linearGradient>
<linearGradient id="paint12_linear_991_260" x1="81.6714" y1="157.551" x2="82.9691" y2="68.1345" gradientUnits="userSpaceOnUse">
<stop stop-color="#1772D3"/>
<stop offset="0.364583" stop-color="#9B4BCE"/>
<stop offset="0.71875" stop-color="#DA5FB7"/>
<stop offset="1" stop-color="#FFA28C"/>
</linearGradient>
<linearGradient id="paint13_linear_991_260" x1="81.6714" y1="157.551" x2="82.9691" y2="68.1345" gradientUnits="userSpaceOnUse">
<stop stop-color="#1772D3"/>
<stop offset="0.364583" stop-color="#9B4BCE"/>
<stop offset="0.71875" stop-color="#DA5FB7"/>
<stop offset="1" stop-color="#FFA28C"/>
</linearGradient>
<linearGradient id="paint14_linear_991_260" x1="81.6714" y1="157.551" x2="82.9691" y2="68.1345" gradientUnits="userSpaceOnUse">
<stop stop-color="#1772D3"/>
<stop offset="0.364583" stop-color="#9B4BCE"/>
<stop offset="0.71875" stop-color="#DA5FB7"/>
<stop offset="1" stop-color="#FFA28C"/>
</linearGradient>
<linearGradient id="paint15_linear_991_260" x1="81.6714" y1="157.551" x2="82.9691" y2="68.1345" gradientUnits="userSpaceOnUse">
<stop stop-color="#1772D3"/>
<stop offset="0.364583" stop-color="#9B4BCE"/>
<stop offset="0.71875" stop-color="#DA5FB7"/>
<stop offset="1" stop-color="#FFA28C"/>
</linearGradient>
<linearGradient id="paint16_linear_991_260" x1="81.6714" y1="157.551" x2="82.9691" y2="68.1345" gradientUnits="userSpaceOnUse">
<stop stop-color="#1772D3"/>
<stop offset="0.364583" stop-color="#9B4BCE"/>
<stop offset="0.71875" stop-color="#DA5FB7"/>
<stop offset="1" stop-color="#FFA28C"/>
</linearGradient>
<linearGradient id="paint17_linear_991_260" x1="81.6714" y1="157.551" x2="82.9691" y2="68.1345" gradientUnits="userSpaceOnUse">
<stop stop-color="#1772D3"/>
<stop offset="0.364583" stop-color="#9B4BCE"/>
<stop offset="0.71875" stop-color="#DA5FB7"/>
<stop offset="1" stop-color="#FFA28C"/>
</linearGradient>
<linearGradient id="paint18_linear_991_260" x1="81.6714" y1="157.551" x2="82.9691" y2="68.1345" gradientUnits="userSpaceOnUse">
<stop stop-color="#1772D3"/>
<stop offset="0.364583" stop-color="#9B4BCE"/>
<stop offset="0.71875" stop-color="#DA5FB7"/>
<stop offset="1" stop-color="#FFA28C"/>
</linearGradient>
<linearGradient id="paint19_linear_991_260" x1="81.6714" y1="157.551" x2="82.9691" y2="68.1345" gradientUnits="userSpaceOnUse">
<stop stop-color="#1772D3"/>
<stop offset="0.364583" stop-color="#9B4BCE"/>
<stop offset="0.71875" stop-color="#DA5FB7"/>
<stop offset="1" stop-color="#FFA28C"/>
</linearGradient>
<linearGradient id="paint20_linear_991_260" x1="81.6714" y1="157.551" x2="82.9691" y2="68.1345" gradientUnits="userSpaceOnUse">
<stop stop-color="#1772D3"/>
<stop offset="0.364583" stop-color="#9B4BCE"/>
<stop offset="0.71875" stop-color="#DA5FB7"/>
<stop offset="1" stop-color="#FFA28C"/>
</linearGradient>
<linearGradient id="paint21_linear_991_260" x1="81.6714" y1="157.551" x2="82.9691" y2="68.1345" gradientUnits="userSpaceOnUse">
<stop stop-color="#1772D3"/>
<stop offset="0.364583" stop-color="#9B4BCE"/>
<stop offset="0.71875" stop-color="#DA5FB7"/>
<stop offset="1" stop-color="#FFA28C"/>
</linearGradient>
<linearGradient id="paint22_linear_991_260" x1="81.6714" y1="157.551" x2="82.9691" y2="68.1345" gradientUnits="userSpaceOnUse">
<stop stop-color="#1772D3"/>
<stop offset="0.364583" stop-color="#9B4BCE"/>
<stop offset="0.71875" stop-color="#DA5FB7"/>
<stop offset="1" stop-color="#FFA28C"/>
</linearGradient>
<clipPath id="clip0_991_260">
<rect width="180" height="190" fill="white" transform="translate(0.746826)"/>
</clipPath>
</defs>
</svg>
