<svg width="181" height="190" viewBox="0 0 181 190" fill="none" xmlns="http://www.w3.org/2000/svg">
<g clip-path="url(#clip0_991_232)">
<g filter="url(#filter0_b_991_232)">
<path fill-rule="evenodd" clip-rule="evenodd" d="M97.4317 28.3851C95.4074 27.1458 93.1601 26.5261 90.9045 26.5261C88.6489 26.5261 86.4015 27.1541 84.3773 28.3851L38.001 56.7496C33.8533 59.2861 31.2838 64.0369 31.2838 69.2009V125.467C31.2838 130.615 33.8451 135.382 38.001 137.918L84.3773 166.283C86.4015 167.522 88.6489 168.142 90.9045 168.142C93.1601 168.142 95.4074 167.53 97.4317 166.283L143.808 137.918C147.956 135.382 150.525 130.615 150.525 125.467V69.2009C150.525 64.0535 147.964 59.3027 143.808 56.7496L97.4317 28.3851Z" fill="white"/>
</g>
<g filter="url(#filter1_dddd_991_232)">
<path d="M90.9037 177.716C93.5199 177.716 96.0933 176.989 98.3674 175.604L151.348 143.407C156.085 140.526 159.017 135.114 159.017 129.266V65.3934C159.017 59.5627 156.085 54.1424 151.348 51.2527L98.3674 19.0555C93.8106 16.2855 87.9798 16.3026 83.4486 19.0555L30.4678 51.2698C25.7314 54.1509 22.7818 59.5627 22.7818 65.4105V129.275C22.7818 134.199 24.8764 138.833 28.3817 141.885V141.911L83.4486 175.621C85.7057 176.989 88.2876 177.716 90.9037 177.716ZM91.4595 22.9284C93.1266 22.9284 95.2469 23.9629 96.7088 24.8605L148.655 56.6559C151.861 58.6052 153.674 64.2478 153.674 68.3088L153.135 129.266C153.135 133.327 150.399 136.978 147.193 138.927L95.5546 170.03C92.6222 171.817 90.2369 171.817 87.2959 170.03L34.9648 138.85C31.7587 136.901 29.1768 133.31 29.1768 129.266V66.3082C29.1768 62.2558 31.5108 58.0751 34.7339 56.1173L86.5264 24.8605C87.9798 23.9714 89.7923 22.9284 91.4595 22.9284Z" fill="white"/>
</g>
<path fill-rule="evenodd" clip-rule="evenodd" d="M90.904 28.1172C92.2845 28.1172 93.8375 28.8321 95.5303 29.8593L143.577 59.0634C146.576 60.8876 148.556 64.3964 148.556 68.3653V126.281C148.556 130.241 146.576 133.758 143.577 135.582L95.5385 164.787C93.9279 165.764 92.3502 166.381 90.9122 166.381C89.4742 166.381 87.8965 165.764 86.2859 164.787L38.2314 135.591C36.5797 134.58 35.3882 133.594 34.5829 132.271C33.7776 130.956 33.2517 129.132 33.2517 126.289V68.3736C33.2517 64.4046 35.2321 60.8959 38.2314 59.0716L86.2695 29.8675C87.9869 28.8403 89.5153 28.1172 90.904 28.1172ZM97.2395 167.605L145.278 138.401C149.32 135.944 151.835 131.326 151.835 126.289V68.3736C151.835 63.3364 149.32 58.7183 145.278 56.2613L97.2395 27.0572C95.5056 26.0054 93.2788 24.8303 90.904 24.8303C88.521 24.8303 86.2941 26.0136 84.5767 27.049H84.5685L36.5222 56.2613C32.4793 58.7183 29.9648 63.3364 29.9648 68.3736V126.289C29.9648 129.543 30.5729 132 31.7726 133.98C32.9723 135.952 34.6651 137.267 36.5222 138.393L84.5603 167.597C86.3845 168.706 88.5785 169.676 90.8958 169.676C93.213 169.676 95.4153 168.714 97.2395 167.605Z" fill="url(#paint0_linear_991_232)"/>
<path fill-rule="evenodd" clip-rule="evenodd" d="M90.9045 25.3221C92.3408 25.3221 93.9566 26.0659 95.7178 27.1346L145.706 57.5193C148.827 59.4173 150.887 63.0679 150.887 67.1973V127.454C150.887 131.575 148.827 135.234 145.706 137.132L95.7264 167.516C94.0507 168.534 92.4092 169.175 90.913 169.175C89.4169 169.175 87.7754 168.534 86.0997 167.516L36.1026 137.14C34.3842 136.089 33.1445 135.063 32.3066 133.686C31.4688 132.318 30.9216 130.42 30.9216 127.462V67.2058C30.9216 63.0764 32.982 59.4258 36.1026 57.5278L86.0826 27.1431C87.8694 26.0745 89.4596 25.3221 90.9045 25.3221ZM97.4961 170.449L147.476 140.064C151.682 137.508 154.299 132.703 154.299 127.462V67.2058C154.299 61.965 151.682 57.1602 147.476 54.6039L97.4961 24.2192C95.6922 23.1249 93.3753 21.9023 90.9045 21.9023C88.4252 21.9023 86.1083 23.1335 84.3214 24.2107H84.3129L34.3243 54.6039C30.118 57.1602 27.5019 61.965 27.5019 67.2058V127.462C27.5019 130.848 28.1345 133.404 29.3827 135.465C30.631 137.516 32.3921 138.884 34.3243 140.056L84.3043 170.44C86.2023 171.594 88.485 172.603 90.8959 172.603C93.3069 172.603 95.5981 171.603 97.4961 170.449Z" fill="url(#paint1_linear_991_232)"/>
<g filter="url(#filter2_ddddd_991_232)">
<path d="M132.8 113.286C134.936 114.518 134.942 117.6 132.81 118.84L92.52 142.281C91.5255 142.86 90.2973 142.862 89.301 142.286L48.6934 118.826C46.5575 117.592 46.5545 114.51 48.688 113.272L88.9912 89.8829C89.9845 89.3065 91.2101 89.3048 92.2049 89.8785L132.8 113.286Z" fill="#0078D4"/>
</g>
<g filter="url(#filter3_ddddd_991_232)">
<path d="M132.802 95.4698C134.938 96.7035 134.941 99.7847 132.809 101.023L92.518 124.426C91.5245 125.003 90.2983 125.005 89.303 124.431L48.6933 101.009C46.557 99.7766 46.5512 96.6954 48.6828 95.4552L88.9737 72.0137C89.9682 71.4351 91.1964 71.4332 92.1927 72.0088L132.802 95.4698Z" fill="#32B0E7"/>
</g>
<g filter="url(#filter4_ddddd_991_232)">
<path d="M132.801 76.139C134.937 77.3728 134.94 80.4546 132.807 81.6929L92.5173 105.082C91.5241 105.658 90.2985 105.66 89.3036 105.087L48.6952 81.6782C46.5584 80.4464 46.5522 77.3647 48.6841 76.1244L88.9736 52.6836C89.9682 52.105 91.1964 52.1031 92.1927 52.6787L132.801 76.139Z" fill="url(#paint2_linear_991_232)"/>
</g>
</g>
<defs>
<filter id="filter0_b_991_232" x="15.2388" y="10.4811" width="151.331" height="173.706" filterUnits="userSpaceOnUse" color-interpolation-filters="sRGB">
<feFlood flood-opacity="0" result="BackgroundImageFix"/>
<feGaussianBlur in="BackgroundImageFix" stdDeviation="8.02249"/>
<feComposite in2="SourceAlpha" operator="in" result="effect1_backgroundBlur_991_232"/>
<feBlend mode="normal" in="SourceGraphic" in2="effect1_backgroundBlur_991_232" result="shape"/>
</filter>
<filter id="filter1_dddd_991_232" x="18.7818" y="16.9844" width="144.235" height="174.731" filterUnits="userSpaceOnUse" color-interpolation-filters="sRGB">
<feFlood flood-opacity="0" result="BackgroundImageFix"/>
<feColorMatrix in="SourceAlpha" type="matrix" values="0 0 0 0 0 0 0 0 0 0 0 0 0 0 0 0 0 0 127 0" result="hardAlpha"/>
<feOffset dy="1"/>
<feGaussianBlur stdDeviation="0.5"/>
<feColorMatrix type="matrix" values="0 0 0 0 0 0 0 0 0 0 0 0 0 0 0 0 0 0 0.1 0"/>
<feBlend mode="normal" in2="BackgroundImageFix" result="effect1_dropShadow_991_232"/>
<feColorMatrix in="SourceAlpha" type="matrix" values="0 0 0 0 0 0 0 0 0 0 0 0 0 0 0 0 0 0 127 0" result="hardAlpha"/>
<feOffset dy="2"/>
<feGaussianBlur stdDeviation="1"/>
<feColorMatrix type="matrix" values="0 0 0 0 0 0 0 0 0 0 0 0 0 0 0 0 0 0 0.09 0"/>
<feBlend mode="normal" in2="effect1_dropShadow_991_232" result="effect2_dropShadow_991_232"/>
<feColorMatrix in="SourceAlpha" type="matrix" values="0 0 0 0 0 0 0 0 0 0 0 0 0 0 0 0 0 0 127 0" result="hardAlpha"/>
<feOffset dy="5"/>
<feGaussianBlur stdDeviation="1.5"/>
<feColorMatrix type="matrix" values="0 0 0 0 0 0 0 0 0 0 0 0 0 0 0 0 0 0 0.05 0"/>
<feBlend mode="normal" in2="effect2_dropShadow_991_232" result="effect3_dropShadow_991_232"/>
<feColorMatrix in="SourceAlpha" type="matrix" values="0 0 0 0 0 0 0 0 0 0 0 0 0 0 0 0 0 0 127 0" result="hardAlpha"/>
<feOffset dy="10"/>
<feGaussianBlur stdDeviation="2"/>
<feColorMatrix type="matrix" values="0 0 0 0 0 0 0 0 0 0 0 0 0 0 0 0 0 0 0.01 0"/>
<feBlend mode="normal" in2="effect3_dropShadow_991_232" result="effect4_dropShadow_991_232"/>
<feBlend mode="normal" in="SourceGraphic" in2="effect4_dropShadow_991_232" result="shape"/>
</filter>
<filter id="filter2_ddddd_991_232" x="38.5324" y="87.3101" width="104.43" height="84.2874" filterUnits="userSpaceOnUse" color-interpolation-filters="sRGB">
<feFlood flood-opacity="0" result="BackgroundImageFix"/>
<feColorMatrix in="SourceAlpha" type="matrix" values="0 0 0 0 0 0 0 0 0 0 0 0 0 0 0 0 0 0 127 0" result="hardAlpha"/>
<feOffset/>
<feColorMatrix type="matrix" values="0 0 0 0 0.0588235 0 0 0 0 0.0862745 0 0 0 0 0.141176 0 0 0 0.1 0"/>
<feBlend mode="normal" in2="BackgroundImageFix" result="effect1_dropShadow_991_232"/>
<feColorMatrix in="SourceAlpha" type="matrix" values="0 0 0 0 0 0 0 0 0 0 0 0 0 0 0 0 0 0 127 0" result="hardAlpha"/>
<feOffset dy="1.06967"/>
<feGaussianBlur stdDeviation="1.6045"/>
<feColorMatrix type="matrix" values="0 0 0 0 0.0588235 0 0 0 0 0.0862745 0 0 0 0 0.141176 0 0 0 0.1 0"/>
<feBlend mode="normal" in2="effect1_dropShadow_991_232" result="effect2_dropShadow_991_232"/>
<feColorMatrix in="SourceAlpha" type="matrix" values="0 0 0 0 0 0 0 0 0 0 0 0 0 0 0 0 0 0 127 0" result="hardAlpha"/>
<feOffset dy="5.34833"/>
<feGaussianBlur stdDeviation="2.67416"/>
<feColorMatrix type="matrix" values="0 0 0 0 0.0588235 0 0 0 0 0.0862745 0 0 0 0 0.141176 0 0 0 0.09 0"/>
<feBlend mode="normal" in2="effect2_dropShadow_991_232" result="effect3_dropShadow_991_232"/>
<feColorMatrix in="SourceAlpha" type="matrix" values="0 0 0 0 0 0 0 0 0 0 0 0 0 0 0 0 0 0 127 0" result="hardAlpha"/>
<feOffset dy="11.7663"/>
<feGaussianBlur stdDeviation="3.74383"/>
<feColorMatrix type="matrix" values="0 0 0 0 0.0588235 0 0 0 0 0.0862745 0 0 0 0 0.141176 0 0 0 0.05 0"/>
<feBlend mode="normal" in2="effect3_dropShadow_991_232" result="effect4_dropShadow_991_232"/>
<feColorMatrix in="SourceAlpha" type="matrix" values="0 0 0 0 0 0 0 0 0 0 0 0 0 0 0 0 0 0 127 0" result="hardAlpha"/>
<feOffset dy="20.3237"/>
<feGaussianBlur stdDeviation="4.27866"/>
<feColorMatrix type="matrix" values="0 0 0 0 0.0588235 0 0 0 0 0.0862745 0 0 0 0 0.141176 0 0 0 0.01 0"/>
<feBlend mode="normal" in2="effect4_dropShadow_991_232" result="effect5_dropShadow_991_232"/>
<feBlend mode="normal" in="SourceGraphic" in2="effect5_dropShadow_991_232" result="shape"/>
</filter>
<filter id="filter3_ddddd_991_232" x="38.5303" y="69.439" width="104.433" height="84.302" filterUnits="userSpaceOnUse" color-interpolation-filters="sRGB">
<feFlood flood-opacity="0" result="BackgroundImageFix"/>
<feColorMatrix in="SourceAlpha" type="matrix" values="0 0 0 0 0 0 0 0 0 0 0 0 0 0 0 0 0 0 127 0" result="hardAlpha"/>
<feOffset/>
<feColorMatrix type="matrix" values="0 0 0 0 0.0588235 0 0 0 0 0.0862745 0 0 0 0 0.141176 0 0 0 0.1 0"/>
<feBlend mode="normal" in2="BackgroundImageFix" result="effect1_dropShadow_991_232"/>
<feColorMatrix in="SourceAlpha" type="matrix" values="0 0 0 0 0 0 0 0 0 0 0 0 0 0 0 0 0 0 127 0" result="hardAlpha"/>
<feOffset dy="1.06967"/>
<feGaussianBlur stdDeviation="1.6045"/>
<feColorMatrix type="matrix" values="0 0 0 0 0.0588235 0 0 0 0 0.0862745 0 0 0 0 0.141176 0 0 0 0.1 0"/>
<feBlend mode="normal" in2="effect1_dropShadow_991_232" result="effect2_dropShadow_991_232"/>
<feColorMatrix in="SourceAlpha" type="matrix" values="0 0 0 0 0 0 0 0 0 0 0 0 0 0 0 0 0 0 127 0" result="hardAlpha"/>
<feOffset dy="5.34833"/>
<feGaussianBlur stdDeviation="2.67416"/>
<feColorMatrix type="matrix" values="0 0 0 0 0.0588235 0 0 0 0 0.0862745 0 0 0 0 0.141176 0 0 0 0.09 0"/>
<feBlend mode="normal" in2="effect2_dropShadow_991_232" result="effect3_dropShadow_991_232"/>
<feColorMatrix in="SourceAlpha" type="matrix" values="0 0 0 0 0 0 0 0 0 0 0 0 0 0 0 0 0 0 127 0" result="hardAlpha"/>
<feOffset dy="11.7663"/>
<feGaussianBlur stdDeviation="3.209"/>
<feColorMatrix type="matrix" values="0 0 0 0 0.0588235 0 0 0 0 0.0862745 0 0 0 0 0.141176 0 0 0 0.05 0"/>
<feBlend mode="normal" in2="effect3_dropShadow_991_232" result="effect4_dropShadow_991_232"/>
<feColorMatrix in="SourceAlpha" type="matrix" values="0 0 0 0 0 0 0 0 0 0 0 0 0 0 0 0 0 0 127 0" result="hardAlpha"/>
<feOffset dy="20.3237"/>
<feGaussianBlur stdDeviation="4.27866"/>
<feColorMatrix type="matrix" values="0 0 0 0 0.0588235 0 0 0 0 0.0862745 0 0 0 0 0.141176 0 0 0 0.01 0"/>
<feBlend mode="normal" in2="effect4_dropShadow_991_232" result="effect5_dropShadow_991_232"/>
<feBlend mode="normal" in="SourceGraphic" in2="effect5_dropShadow_991_232" result="shape"/>
</filter>
<filter id="filter4_ddddd_991_232" x="38.5315" y="50.109" width="104.431" height="84.2876" filterUnits="userSpaceOnUse" color-interpolation-filters="sRGB">
<feFlood flood-opacity="0" result="BackgroundImageFix"/>
<feColorMatrix in="SourceAlpha" type="matrix" values="0 0 0 0 0 0 0 0 0 0 0 0 0 0 0 0 0 0 127 0" result="hardAlpha"/>
<feOffset/>
<feColorMatrix type="matrix" values="0 0 0 0 0.0588235 0 0 0 0 0.0862745 0 0 0 0 0.141176 0 0 0 0.1 0"/>
<feBlend mode="normal" in2="BackgroundImageFix" result="effect1_dropShadow_991_232"/>
<feColorMatrix in="SourceAlpha" type="matrix" values="0 0 0 0 0 0 0 0 0 0 0 0 0 0 0 0 0 0 127 0" result="hardAlpha"/>
<feOffset dy="1.06967"/>
<feGaussianBlur stdDeviation="1.6045"/>
<feColorMatrix type="matrix" values="0 0 0 0 0.0588235 0 0 0 0 0.0862745 0 0 0 0 0.141176 0 0 0 0.1 0"/>
<feBlend mode="normal" in2="effect1_dropShadow_991_232" result="effect2_dropShadow_991_232"/>
<feColorMatrix in="SourceAlpha" type="matrix" values="0 0 0 0 0 0 0 0 0 0 0 0 0 0 0 0 0 0 127 0" result="hardAlpha"/>
<feOffset dy="5.34833"/>
<feGaussianBlur stdDeviation="2.67416"/>
<feColorMatrix type="matrix" values="0 0 0 0 0.0588235 0 0 0 0 0.0862745 0 0 0 0 0.141176 0 0 0 0.09 0"/>
<feBlend mode="normal" in2="effect2_dropShadow_991_232" result="effect3_dropShadow_991_232"/>
<feColorMatrix in="SourceAlpha" type="matrix" values="0 0 0 0 0 0 0 0 0 0 0 0 0 0 0 0 0 0 127 0" result="hardAlpha"/>
<feOffset dy="11.7663"/>
<feGaussianBlur stdDeviation="3.209"/>
<feColorMatrix type="matrix" values="0 0 0 0 0.0588235 0 0 0 0 0.0862745 0 0 0 0 0.141176 0 0 0 0.05 0"/>
<feBlend mode="normal" in2="effect3_dropShadow_991_232" result="effect4_dropShadow_991_232"/>
<feColorMatrix in="SourceAlpha" type="matrix" values="0 0 0 0 0 0 0 0 0 0 0 0 0 0 0 0 0 0 127 0" result="hardAlpha"/>
<feOffset dy="20.3237"/>
<feGaussianBlur stdDeviation="4.27866"/>
<feColorMatrix type="matrix" values="0 0 0 0 0.0588235 0 0 0 0 0.0862745 0 0 0 0 0.141176 0 0 0 0.01 0"/>
<feBlend mode="normal" in2="effect4_dropShadow_991_232" result="effect5_dropShadow_991_232"/>
<feBlend mode="normal" in="SourceGraphic" in2="effect5_dropShadow_991_232" result="shape"/>
</filter>
<linearGradient id="paint0_linear_991_232" x1="57.0942" y1="32.4055" x2="136.739" y2="165.917" gradientUnits="userSpaceOnUse">
<stop offset="0.0001" stop-color="#50E6FF"/>
<stop offset="0.96471" stop-color="#0078D4"/>
</linearGradient>
<linearGradient id="paint1_linear_991_232" x1="44.8399" y1="19.612" x2="187.339" y2="260.989" gradientUnits="userSpaceOnUse">
<stop stop-color="#007ED8"/>
<stop offset="0.7065" stop-color="#002D4C"/>
</linearGradient>
<linearGradient id="paint2_linear_991_232" x1="61.8192" y1="64.6494" x2="118.683" y2="106.446" gradientUnits="userSpaceOnUse">
<stop stop-color="#50E6FF"/>
<stop offset="1" stop-color="#3BC8F4"/>
</linearGradient>
<clipPath id="clip0_991_232">
<rect width="180" height="190" fill="white" transform="translate(0.746826)"/>
</clipPath>
</defs>
</svg>
