<svg xmlns="http://www.w3.org/2000/svg" height="64" width="64" viewBox="0 0 64 64"><defs><style>.cls-1,.cls-3{fill:none;}.cls-2{fill:#e3e3e3;fill-opacity:0.3;}.cls-3{stroke:#c8c8c8;stroke-miterlimit:10;stroke-width:2px;}.cls-4{fill:#919191;}.cls-5{fill:#c8c8c8;}.cls-6{fill:#0079d6;}.cls-7{fill:#fff;}</style></defs><title>WhatsNew_64px</title><g id="Layer_1" data-name="Layer 1"><rect class="cls-1" x="0.04" width="64" height="64"/><rect class="cls-1" x="-0.04" width="64" height="64"/><path class="cls-2" d="M54.16,16v35a1.86,1.86,0,0,1-2.64,1.69A74.73,74.73,0,0,0,42.8,49.3C29.1,45,12,42.54,6.57,41.85A1.87,1.87,0,0,1,5,40V26.89A1.87,1.87,0,0,1,6.57,25c5.43-.7,22.53-3.1,36.23-7.46a76.6,76.6,0,0,0,8.72-3.3A1.85,1.85,0,0,1,54.16,16Z"/><path class="cls-3" d="M32.16,46.19v1.47a6.28,6.28,0,0,1-6.28,6.28h-.81A7,7,0,0,1,18.12,47v-3.7"/><path class="cls-4" d="M59.05,33.44A7,7,0,0,1,49.56,40c-.18-2.07-.28-4.27-.28-6.54s.1-4.51.28-6.6a7,7,0,0,1,9.49,6.57Z"/><path class="cls-5" d="M52.3,15.44a.52.52,0,0,1,.52.53v35a.52.52,0,0,1-.52.52.59.59,0,0,1-.22,0A76.54,76.54,0,0,0,43.21,48c-13.88-4.41-31.42-6.86-36.47-7.5A.52.52,0,0,1,6.3,40V26.89a.53.53,0,0,1,.45-.52c6.47-.83,23-3.22,36.46-7.51a76.64,76.64,0,0,0,8.87-3.36.46.46,0,0,1,.22-.06m0-1.34a1.85,1.85,0,0,0-.78.18,76.6,76.6,0,0,1-8.72,3.3C29.1,21.94,12,24.34,6.57,25A1.87,1.87,0,0,0,5,26.89V40a1.87,1.87,0,0,0,1.62,1.85C12,42.54,29.1,45,42.8,49.3a74.73,74.73,0,0,1,8.72,3.31,1.83,1.83,0,0,0,.78.17,1.86,1.86,0,0,0,1.86-1.86V16A1.86,1.86,0,0,0,52.3,14.1Z"/><path class="cls-5" d="M54.16,16v35a1.86,1.86,0,0,1-2.64,1.69A74.73,74.73,0,0,0,42.8,49.3V17.58a76.6,76.6,0,0,0,8.72-3.3A1.85,1.85,0,0,1,54.16,16Z"/><circle class="cls-6" cx="26.29" cy="21.3" r="9.8"/><polygon class="cls-7" points="26.3 15.36 27.77 19.9 32.54 19.9 28.68 22.7 30.15 27.24 26.3 24.43 22.44 27.24 23.91 22.7 20.05 19.9 24.82 19.9 26.3 15.36"/></g></svg>