<?xml version="1.0" encoding="UTF-8" standalone="no"?>
<!DOCTYPE svg PUBLIC "-//W3C//DTD SVG 1.1//EN" "http://www.w3.org/Graphics/SVG/1.1/DTD/svg11.dtd">
<!-- Generated by Microsoft Visio, SVG Export m365-defender-mcas-architecture-d.svg Page-1 -->
<svg xmlns="http://www.w3.org/2000/svg" xmlns:xlink="http://www.w3.org/1999/xlink" xmlns:ev="http://www.w3.org/2001/xml-events"
		xmlns:v="http://schemas.microsoft.com/visio/2003/SVGExtensions/" width="7.72717in" height="3.58972in"
		viewBox="0 0 556.356 258.46" xml:space="preserve" color-interpolation-filters="sRGB" class="st25">
	<v:documentProperties v:langID="1033" v:viewMarkup="false"/>

	<style type="text/css">
	<![CDATA[
		.st1 {fill:#ffffff;stroke:none;stroke-width:1}
		.st2 {visibility:visible}
		.st3 {fill:#000000;fill-opacity:0.098;filter:url(#filter_2);stroke:none}
		.st4 {fill:#cce9ff;stroke:none;stroke-width:1}
		.st5 {fill:#000000;fill-opacity:0.098;filter:url(#filter_2);stroke:#000000;stroke-opacity:0.098}
		.st6 {fill:#ffffff;stroke:#e6e6e6;stroke-width:1}
		.st7 {fill:none;stroke:none;stroke-linecap:round;stroke-linejoin:round;stroke-width:0.24}
		.st8 {fill:#000000;font-family:Segoe UI Semibold;font-size:1.33333em}
		.st9 {fill:#0078d4;stroke:none;stroke-width:0.25}
		.st10 {fill:#e6e6e6;stroke:none;stroke-width:1}
		.st11 {fill:#000000;font-family:Segoe UI;font-size:1.00001em}
		.st12 {fill:#0078d4;stroke:none;stroke-width:1}
		.st13 {fill:#ffffff;font-family:Segoe UI Semibold;font-size:1.5em}
		.st14 {fill:#000000;font-family:Segoe UI Semibold;font-size:1.16666em}
		.st15 {marker-end:url(#mrkr1-39);stroke:#2a446f;stroke-linecap:round;stroke-linejoin:round;stroke-width:1}
		.st16 {fill:#2a446f;fill-opacity:1;stroke:#2a446f;stroke-opacity:1;stroke-width:0.20161290322581}
		.st17 {fill:none;stroke:none;stroke-linecap:butt;stroke-width:0.75}
		.st18 {fill:#000000;font-family:Segoe UI Semibold;font-size:0.833336em}
		.st19 {font-size:1em}
		.st20 {fill:#2a446f;stroke:none;stroke-width:0.25}
		.st21 {marker-end:url(#mrkr1-117);stroke:#d83b01;stroke-linecap:round;stroke-linejoin:round;stroke-width:1}
		.st22 {fill:#d83b01;fill-opacity:1;stroke:#d83b01;stroke-opacity:1;stroke-width:0.20161290322581}
		.st23 {fill:none;stroke:none;stroke-linecap:round;stroke-linejoin:round;stroke-width:0.749999}
		.st24 {fill:#000000;font-family:Segoe UI;font-size:0.833336em}
		.st25 {fill:none;fill-rule:evenodd;font-size:12px;overflow:visible;stroke-linecap:square;stroke-miterlimit:3}
	]]>
	</style>

	<defs id="Markers">
		<g id="lend1">
			<path d="M 1 -1 L 0 0 L 1 1 " style="stroke-linecap:round;stroke-linejoin:round;fill:none"/>
		</g>
		<marker id="mrkr1-39" class="st16" v:arrowType="1" v:arrowSize="4" orient="auto" markerUnits="strokeWidth"
				overflow="visible">
			<use xlink:href="#lend1" transform="scale(-4.96,-4.96) "/>
		</marker>
		<marker id="mrkr1-117" class="st22" v:arrowType="1" v:arrowSize="4" orient="auto" markerUnits="strokeWidth"
				overflow="visible">
			<use xlink:href="#lend1" transform="scale(-4.96,-4.96) "/>
		</marker>
	</defs>
	<defs id="Filters">
		<filter id="filter_2">
			<feGaussianBlur stdDeviation="2"/>
		</filter>
	</defs>
	<g v:mID="0" v:index="1" v:groupContext="foregroundPage">
		<v:userDefs>
			<v:ud v:nameU="visNavType" v:val="VT0(1):26"/>
		</v:userDefs>
		<title>Page-1</title>
		<v:pageProperties v:drawingScale="1" v:pageScale="1" v:drawingUnits="19" v:shadowOffsetX="9" v:shadowOffsetY="-9"/>
		<v:layer v:name="Shapes" v:index="0" v:glue="false"/>
		<v:layer v:name="Icons" v:index="1" v:glue="false"/>
		<v:layer v:name="Connector" v:index="2" v:glue="false"/>
		<v:layer v:name="Text" v:index="3" v:glue="false"/>
		<g id="shape2915-1" v:mID="2915" v:groupContext="shape" v:layerMember="0" transform="translate(4.10611,-1)">
			<title>Sheet.2915</title>
			<v:userDefs>
				<v:ud v:nameU="visNavOrder" v:val="VT0(611000):26"/>
			</v:userDefs>
			<rect x="0" y="2.19041" width="551.25" height="256.269" rx="4.5" ry="4.5" class="st1"/>
		</g>
		<g id="shape2813-3" v:mID="2813" v:groupContext="shape" v:layerMember="0" transform="translate(4.74995,-64.8407)">
			<title>Rectangle.2813</title>
			<v:userDefs>
				<v:ud v:nameU="visVersion" v:val="VT0(15):26"/>
				<v:ud v:nameU="visNavOrder" v:val="VT0(522000):26"/>
			</v:userDefs>
			<g id="shadow2813-4" v:groupContext="shadow" v:shadowOffsetX="4.40873E-24" v:shadowOffsetY="-2" v:shadowType="1"
					v:shadowScale="1.01" transform="matrix(1.01,0,0,1.01,-1.74994,0.373707)" class="st2">
				<rect x="0" y="66.799" width="349.989" height="191.661" rx="4.5" ry="4.5" class="st3"/>
			</g>
			<rect x="0" y="66.799" width="349.989" height="191.661" rx="4.5" ry="4.5" class="st4"/>
		</g>
		<g id="shape2851-8" v:mID="2851" v:groupContext="shape" v:layerMember="0" transform="translate(21.5558,-81.1167)">
			<title>Rectangle.2851</title>
			<v:userDefs>
				<v:ud v:nameU="visVersion" v:val="VT0(15):26"/>
				<v:ud v:nameU="visNavOrder" v:val="VT0(597000):26"/>
			</v:userDefs>
			<g id="shadow2851-9" v:groupContext="shadow" v:shadowOffsetX="4.40873E-24" v:shadowOffsetY="-2" v:shadowType="1"
					v:shadowScale="1.01" transform="matrix(1.01,0,0,1.01,-1.58258,-0.126278)" class="st2">
				<rect x="0" y="166.796" width="316.517" height="91.6638" rx="4.5" ry="4.5" class="st5"/>
			</g>
			<rect x="0" y="166.796" width="316.517" height="91.6638" rx="4.5" ry="4.5" class="st6"/>
		</g>
		<g id="shape2852-13" v:mID="2852" v:groupContext="shape" transform="translate(35.8143,-141.091)">
			<title>Rectangle.2852</title>
			<desc>Microsoft Defender for Identity</desc>
			<v:userDefs>
				<v:ud v:nameU="visVersion" v:val="VT0(15):26"/>
				<v:ud v:nameU="visNavOrder" v:val="VT0(598000):26"/>
			</v:userDefs>
			<v:textBlock v:margins="rect(9.99999,9.99999,9.99999,9.99999)"/>
			<v:textRect cx="143.999" cy="246.783" width="288.01" height="23.3526"/>
			<rect x="0" y="235.107" width="288" height="23.3526" class="st7"/>
			<text x="16.37" y="251.58" class="st8" v:langID="1033"><v:paragraph v:horizAlign="1"/><v:tabList/>Microsoft Defender for Cloud Apps</text>		</g>
		<g id="group2853-16" transform="translate(70.7384,-103.413)" v:mID="2853" v:groupContext="group" v:layerMember="1">
			<v:userDefs>
				<v:ud v:nameU="visNavOrder" v:val="VT0(595000):26"/>
			</v:userDefs>
			<title>Sheet.2853</title>
			<g id="shape2854-17" v:mID="2854" v:groupContext="shape" v:layerMember="1">
				<title>Sheet.2854</title>
				<path d="M6.71 258.46 C5.79 258.46 4.93 258.27 4.12 257.89 C3.3 257.51 2.59 257.01 1.99 256.38 C1.38 255.75 0.9 255.01
							 0.54 254.18 C0.18 253.34 0 252.48 0 251.58 C0 250.65 0.16 249.77 0.47 248.92 C0.79 248.08 1.23 247.33
							 1.79 246.68 C2.36 246.03 3.04 245.49 3.84 245.08 C4.64 244.67 5.52 244.44 6.46 244.4 L6.98 244.38 C7.1
							 243.05 7.42 241.84 7.94 240.75 C8.46 239.67 9.15 238.74 9.99 237.97 C10.84 237.2 11.83 236.6 12.96 236.18
							 C14.08 235.76 15.32 235.54 16.67 235.54 C18 235.54 19.23 235.76 20.36 236.18 C21.49 236.6 22.48 237.2
							 23.34 237.97 C24.2 238.74 24.88 239.67 25.39 240.75 C25.9 241.84 26.22 243.05 26.35 244.38 L26.61 244.38
							 C27.55 244.38 28.43 244.57 29.25 244.95 C30.06 245.33 30.77 245.85 31.38 246.51 C31.99 247.18 32.46
							 247.92 32.81 248.76 C33.16 249.59 33.33 250.48 33.33 251.43 C33.33 252.35 33.16 253.24 32.81 254.08
							 C32.46 254.93 31.99 255.68 31.4 256.33 C30.8 256.98 30.09 257.49 29.26 257.87 C28.44 258.25 27.56 258.45
							 26.63 258.46 L6.71 258.46 ZM26.59 256.38 C27.26 256.38 27.87 256.24 28.43 255.97 C29 255.7 29.49 255.33
							 29.91 254.86 C30.34 254.4 30.66 253.87 30.89 253.28 C31.12 252.7 31.24 252.08 31.25 251.43 C31.25 250.73
							 31.12 250.09 30.87 249.49 C30.63 248.89 30.28 248.37 29.85 247.91 C29.41 247.46 28.89 247.1 28.29 246.86
							 C27.68 246.61 27.03 246.48 26.35 246.46 C25.79 246.46 25.32 246.29 24.95 245.94 C24.58 245.6 24.35 245.15
							 24.27 244.59 C24.21 244.2 24.15 243.82 24.09 243.45 C24.02 243.08 23.91 242.71 23.76 242.33 C23.48 241.55
							 23.11 240.87 22.64 240.28 C22.17 239.69 21.63 239.21 21.01 238.82 C20.39 238.42 19.72 238.13 18.99 237.92
							 C18.27 237.71 17.49 237.62 16.67 237.63 C15.85 237.63 15.08 237.72 14.36 237.92 C13.63 238.12 12.96
							 238.41 12.34 238.8 C11.72 239.19 11.18 239.68 10.71 240.26 C10.24 240.85 9.86 241.53 9.57 242.31 C9.43
							 242.69 9.33 243.07 9.26 243.44 C9.2 243.81 9.13 244.19 9.07 244.59 C8.98 245.23 8.73 245.7 8.32 246.01
							 C7.91 246.31 7.38 246.46 6.75 246.46 C6.09 246.46 5.48 246.6 4.92 246.87 C4.35 247.14 3.86 247.51 3.43
							 247.98 C3.01 248.45 2.68 248.98 2.44 249.57 C2.2 250.17 2.08 250.79 2.08 251.43 C2.08 252.07 2.2 252.69
							 2.44 253.28 C2.68 253.88 3.01 254.41 3.42 254.86 C3.83 255.32 4.32 255.68 4.88 255.95 C5.45 256.23 6.07
							 256.36 6.74 256.38 L26.59 256.38 Z" class="st9"/>
			</g>
		</g>
		<g id="shape2855-19" v:mID="2855" v:groupContext="shape" v:layerMember="0" transform="translate(122.229,-102.003)">
			<title>Sheet.2855</title>
			<desc>Shared signals</desc>
			<v:userDefs>
				<v:ud v:nameU="visNavOrder" v:val="VT0(596000):26"/>
			</v:userDefs>
			<v:textBlock v:margins="rect(4,4,4,4)"/>
			<v:textRect cx="83.3307" cy="245.959" width="166.67" height="24.9992"/>
			<g id="shadow2855-20" v:groupContext="shadow" v:shadowOffsetX="4.40873E-24" v:shadowOffsetY="-2" v:shadowType="1"
					v:shadowScale="1.01" transform="matrix(1.01,0,0,1.01,-0.833307,-0.4596)" class="st2">
				<path d="M0 245.96 A15.6249 12.4999 -180 0 0 15.62 258.46 L151.04 258.46 A15.6249 12.4999 -180 0 0 166.66 245.96
							 A15.6249 12.4999 -180 0 0 151.04 233.46 L15.62 233.46 A15.6249 12.4999 -180 0 0 0 245.96 Z"
						class="st3"/>
			</g>
			<path d="M0 245.96 A15.6249 12.4999 -180 0 0 15.62 258.46 L151.04 258.46 A15.6249 12.4999 -180 0 0 166.66 245.96 A15.6249
						 12.4999 -180 0 0 151.04 233.46 L15.62 233.46 A15.6249 12.4999 -180 0 0 0 245.96 Z" class="st10"/>
			<text x="42.05" y="249.56" class="st11" v:langID="1033"><v:paragraph v:spAfter="6" v:horizAlign="1"/><v:tabList/>Session policies</text>		</g>
		<g id="shape2814-25" v:mID="2814" v:groupContext="shape" v:layerMember="0" transform="translate(4.74995,-223.169)">
			<title>Rectangle.2814</title>
			<desc>Microsoft Defender XDR</desc>
			<v:userDefs>
				<v:ud v:nameU="visVersion" v:val="VT0(15):26"/>
				<v:ud v:nameU="visNavOrder" v:val="VT0(523000):26"/>
			</v:userDefs>
			<v:textBlock v:margins="rect(4,4,4,4)"/>
			<v:textRect cx="174.994" cy="241.794" width="350" height="33.3323"/>
			<rect x="0" y="225.127" width="349.989" height="33.3323" rx="4.5" ry="4.5" class="st12"/>
			<text x="75.29" y="247.19" class="st13" v:langID="1033"><v:paragraph v:spAfter="6" v:horizAlign="1"/><v:tabList/>Microsoft Defender XDR</text>		</g>
		<g id="shape2815-28" v:mID="2815" v:groupContext="shape" v:layerMember="0" transform="translate(21.4161,-185.837)">
			<title>Sheet.2815</title>
			<desc>Shared signals</desc>
			<v:userDefs>
				<v:ud v:nameU="visNavOrder" v:val="VT0(524000):26"/>
			</v:userDefs>
			<v:textBlock v:margins="rect(4,4,4,4)" v:verticalAlign="2"/>
			<v:textRect cx="158.328" cy="246.125" width="316.66" height="24.6687"/>
			<g id="shadow2815-29" v:groupContext="shadow" v:shadowOffsetX="4.40873E-24" v:shadowOffsetY="-2" v:shadowType="1"
					v:shadowScale="1.01" transform="matrix(1.01,0,0,1.01,-1.58328,-0.461253)" class="st2">
				<path d="M0 246.13 A12.3881 12.3346 -180 0 0 12.39 258.46 L304.27 258.46 A12.3881 12.3346 -180 0 0 316.66 246.13
							 A12.3881 12.3346 -180 0 0 304.27 233.79 L12.39 233.79 A12.3881 12.3346 -180 0 0 -0 246.13 Z"
						class="st3"/>
			</g>
			<path d="M0 246.13 A12.3881 12.3346 -180 0 0 12.39 258.46 L304.27 258.46 A12.3881 12.3346 -180 0 0 316.66 246.13 A12.3881
						 12.3346 -180 0 0 304.27 233.79 L12.39 233.79 A12.3881 12.3346 -180 0 0 -0 246.13 Z" class="st10"/>
			<text x="112.69" y="250.26" class="st14" v:langID="1033"><v:paragraph v:spAfter="6" v:horizAlign="1"/><v:tabList/>Shared signals</text>		</g>
		<g id="shape2822-34" v:mID="2822" v:groupContext="shape" v:layerMember="2" transform="translate(170.744,-172.179)">
			<title>Dynamic connector.2822</title>
			<v:userDefs>
				<v:ud v:nameU="visNavOrder" v:val="VT0(545000):26"/>
			</v:userDefs>
			<path d="M9 257.79 L9 241.13" class="st15"/>
		</g>
		<g id="shape2823-40" v:mID="2823" v:groupContext="shape" v:layerMember="0" transform="translate(374.149,-68.7504)">
			<title>Rectangle.2823</title>
			<v:userDefs>
				<v:ud v:nameU="visVersion" v:val="VT0(15):26"/>
				<v:ud v:nameU="visNavOrder" v:val="VT0(534000):26"/>
			</v:userDefs>
			<g id="shadow2823-41" v:groupContext="shadow" v:shadowOffsetX="4.40873E-24" v:shadowOffsetY="-2" v:shadowType="1"
					v:shadowScale="1.01" transform="matrix(1.01,0,0,1.01,-0.874972,0.187513)" class="st2">
				<rect x="0" y="104.038" width="174.994" height="154.422" rx="4.5" ry="4.5" class="st3"/>
			</g>
			<rect x="0" y="104.038" width="174.994" height="154.422" rx="4.5" ry="4.5" class="st10"/>
		</g>
		<g id="shape2824-45" v:mID="2824" v:groupContext="shape" v:layerMember="3" transform="translate(410.36,-189.84)">
			<title>Rectangle.2824</title>
			<desc>Microsoft Defender for Identity</desc>
			<v:userDefs>
				<v:ud v:nameU="visVersion" v:val="VT0(15):26"/>
				<v:ud v:nameU="visNavOrder" v:val="VT0(535000):26"/>
			</v:userDefs>
			<v:textBlock v:margins="rect(9.99999,9.99999,9.99999,9.99999)"/>
			<v:textRect cx="51.2857" cy="241.793" width="102.58" height="33.3323"/>
			<rect x="0" y="225.127" width="102.572" height="33.3323" class="st7"/>
			<text x="15.6" y="245.99" class="st14" v:langID="1033"><v:paragraph v:horizAlign="1"/><v:tabList/>Cloud apps</text>		</g>
		<g id="shape2825-48" v:mID="2825" v:groupContext="shape" v:layerMember="0" transform="translate(382.482,-76.9502)">
			<title>Rectangle.2825</title>
			<v:userDefs>
				<v:ud v:nameU="visVersion" v:val="VT0(15):26"/>
				<v:ud v:nameU="visNavOrder" v:val="VT0(559000):26"/>
			</v:userDefs>
			<g id="shadow2825-49" v:groupContext="shadow" v:shadowOffsetX="4.40873E-24" v:shadowOffsetY="-2" v:shadowType="1"
					v:shadowScale="1.01" transform="matrix(1.01,0,0,1.01,-0.374988,-0.0208143)" class="st2">
				<rect x="0" y="145.703" width="74.9976" height="112.756" rx="4.5" ry="4.5" class="st3"/>
			</g>
			<rect x="0" y="145.703" width="74.9976" height="112.756" rx="4.5" ry="4.5" class="st1"/>
		</g>
		<g id="shape2826-53" v:mID="2826" v:groupContext="shape" v:layerMember="3" transform="translate(384.565,-162.532)">
			<title>Rectangle.2826</title>
			<desc>Microsoft Defender for Identity</desc>
			<v:userDefs>
				<v:ud v:nameU="visVersion" v:val="VT0(15):26"/>
				<v:ud v:nameU="visNavOrder" v:val="VT0(550000):26"/>
			</v:userDefs>
			<v:textBlock v:margins="rect(4,4,4,4)" v:verticalAlign="0"/>
			<v:textRect cx="35.4154" cy="244.872" width="70.84" height="27.1744"/>
			<rect x="0" y="231.285" width="70.8311" height="27.1744" class="st17"/>
			<text x="10.13" y="244.29" class="st18" v:langID="1033"><v:paragraph v:spAfter="6" v:horizAlign="1"/><v:tabList/>Sanctioned <tspan
						x="24.62" dy="1.2em" class="st19">apps</tspan></text>		</g>
		<g id="group2827-57" transform="translate(409.98,-131.266)" v:mID="2827" v:groupContext="group" v:layerMember="1">
			<v:userDefs>
				<v:ud v:nameU="visNavOrder" v:val="VT0(564000):26"/>
			</v:userDefs>
			<title>Sheet.2827</title>
			<g id="group2828-58" transform="translate(0,-5.00059)" v:mID="2828" v:groupContext="group" v:layerMember="1">
				<v:userDefs>
					<v:ud v:nameU="visNavOrder" v:val="VT0(543000):26"/>
				</v:userDefs>
				<title>Apps Blue</title>
				<g id="shape2829-59" v:mID="2829" v:groupContext="shape" v:layerMember="1">
					<title>Sheet.2829</title>
					<path d="M9.89 246.49 L11.97 248.57 L9.89 248.57 L9.89 246.49 ZM12.62 239.33 L9.89 242.06 L9.89 241.93 C9.89
								 240.71 8.9 239.72 7.68 239.72 L2.21 239.72 C0.99 239.72 0 240.71 0 241.93 L0 256.25 C0 257.47 0.99
								 258.46 2.21 258.46 L16.53 258.46 C17.75 258.46 18.74 257.47 18.74 256.25 L18.74 250.78 C18.74 249.56
								 17.75 248.57 16.53 248.57 L16.41 248.57 L19.14 245.84 C20 244.97 20 243.57 19.14 242.71 L15.75 239.33
								 C14.89 238.46 13.49 238.46 12.62 239.33 ZM14.21 249.87 L16.53 249.87 C17.03 249.87 17.44 250.28
								 17.44 250.78 L17.44 256.25 C17.44 256.75 17.03 257.16 16.53 257.16 L9.89 257.16 L9.89 249.87 L14.16
								 249.87 C14.18 249.87 14.2 249.87 14.21 249.87 ZM2.21 241.02 L7.68 241.02 C8.18 241.02 8.59 241.43
								 8.59 241.93 L8.59 248.57 L1.3 248.57 L1.3 241.93 C1.3 241.43 1.71 241.02 2.21 241.02 ZM8.59 249.87
								 L8.59 257.16 L2.21 257.16 C1.71 257.16 1.3 256.75 1.3 256.25 L1.3 249.87 L8.59 249.87 Z"
							class="st9"/>
				</g>
			</g>
			<g id="group2830-61" transform="translate(11.626,0)" v:mID="2830" v:groupContext="group" v:layerMember="1">
				<v:userDefs>
					<v:ud v:nameU="visNavOrder" v:val="VT0(542000):26"/>
				</v:userDefs>
				<title>Cloud Dark Blue</title>
				<g id="shape2831-62" v:mID="2831" v:groupContext="shape" v:layerMember="1">
					<title>Sheet.2831</title>
					<path d="M6.69 249.49 C4.67 249.49 3.01 251.03 2.83 253.01 L2.73 253.01 C1.22 253.01 0 254.23 0 255.73 C0 257.24
								 1.22 258.46 2.73 258.46 L10.65 258.46 C12.15 258.46 13.37 257.24 13.37 255.73 C13.37 254.23 12.15
								 253.01 10.65 253.01 L10.54 253.01 C10.36 251.03 8.71 249.49 6.69 249.49 Z" class="st20"/>
				</g>
			</g>
		</g>
		<g id="shape2832-64" v:mID="2832" v:groupContext="shape" v:layerMember="0" transform="translate(465.813,-76.9502)">
			<title>Rectangle.2832</title>
			<v:userDefs>
				<v:ud v:nameU="visVersion" v:val="VT0(15):26"/>
				<v:ud v:nameU="visNavOrder" v:val="VT0(560000):26"/>
			</v:userDefs>
			<g id="shadow2832-65" v:groupContext="shadow" v:shadowOffsetX="4.40873E-24" v:shadowOffsetY="-2" v:shadowType="1"
					v:shadowScale="1.01" transform="matrix(1.01,0,0,1.01,-0.374988,-0.0208143)" class="st2">
				<rect x="0" y="145.703" width="74.9976" height="112.756" rx="4.5" ry="4.5" class="st3"/>
			</g>
			<rect x="0" y="145.703" width="74.9976" height="112.756" rx="4.5" ry="4.5" class="st1"/>
		</g>
		<g id="shape2833-69" v:mID="2833" v:groupContext="shape" v:layerMember="3" transform="translate(467.311,-173.296)">
			<title>Rectangle.2833</title>
			<desc>Microsoft Defender for Identity</desc>
			<v:userDefs>
				<v:ud v:nameU="visVersion" v:val="VT0(15):26"/>
				<v:ud v:nameU="visNavOrder" v:val="VT0(561000):26"/>
			</v:userDefs>
			<v:textBlock v:margins="rect(4,4,4,4)" v:verticalAlign="0"/>
			<v:textRect cx="35.9999" cy="250.254" width="72.01" height="16.4108"/>
			<rect x="0" y="242.049" width="72" height="16.4108" class="st17"/>
			<text x="4.85" y="255.05" class="st18" v:langID="1033"><v:paragraph v:spAfter="6" v:horizAlign="1"/><v:tabList/>Unsanctioned <tspan
						x="25.21" dy="1.2em" class="st19">apps</tspan></text>		</g>
		<g id="group2834-73" transform="translate(493.311,-136.249)" v:mID="2834" v:groupContext="group">
			<v:userDefs>
				<v:ud v:nameU="visNavOrder" v:val="VT0(543000):26"/>
			</v:userDefs>
			<title>Apps Blue.2834</title>
		</g>
		<g id="group2836-74" transform="translate(409.98,-99.5019)" v:mID="2836" v:groupContext="group" v:layerMember="1">
			<v:userDefs>
				<v:ud v:nameU="visNavOrder" v:val="VT0(558000):26"/>
			</v:userDefs>
			<title>Sheet.2836</title>
			<g id="group2837-75" transform="translate(-1.39888E-14,-5.00172)" v:mID="2837" v:groupContext="group" v:layerMember="1">
				<v:userDefs>
					<v:ud v:nameU="visNavOrder" v:val="VT0(543000):26"/>
				</v:userDefs>
				<title>Apps Blue.2575</title>
				<g id="shape2838-76" v:mID="2838" v:groupContext="shape" v:layerMember="1">
					<title>Sheet.2838</title>
					<path d="M9.89 246.49 L11.97 248.57 L9.89 248.57 L9.89 246.49 ZM12.62 239.33 L9.89 242.06 L9.89 241.93 C9.89
								 240.71 8.9 239.72 7.68 239.72 L2.21 239.72 C0.99 239.72 0 240.71 0 241.93 L0 256.25 C0 257.47 0.99
								 258.46 2.21 258.46 L16.53 258.46 C17.75 258.46 18.74 257.47 18.74 256.25 L18.74 250.78 C18.74 249.56
								 17.75 248.57 16.53 248.57 L16.41 248.57 L19.14 245.84 C20 244.97 20 243.57 19.14 242.71 L15.75 239.33
								 C14.89 238.46 13.49 238.46 12.62 239.33 ZM14.21 249.87 L16.53 249.87 C17.03 249.87 17.44 250.28
								 17.44 250.78 L17.44 256.25 C17.44 256.75 17.03 257.16 16.53 257.16 L9.89 257.16 L9.89 249.87 L14.16
								 249.87 C14.18 249.87 14.19 249.87 14.21 249.87 ZM2.21 241.02 L7.68 241.02 C8.18 241.02 8.59 241.43
								 8.59 241.93 L8.59 248.57 L1.3 248.57 L1.3 241.93 C1.3 241.43 1.71 241.02 2.21 241.02 ZM8.59 249.87
								 L8.59 257.16 L2.21 257.16 C1.71 257.16 1.3 256.75 1.3 256.25 L1.3 249.87 L8.59 249.87 Z"
							class="st9"/>
				</g>
			</g>
			<g id="group2839-78" transform="translate(11.6254,0)" v:mID="2839" v:groupContext="group" v:layerMember="1">
				<v:userDefs>
					<v:ud v:nameU="visNavOrder" v:val="VT0(556000):26"/>
				</v:userDefs>
				<title>Cloud Blue</title>
				<g id="shape2840-79" v:mID="2840" v:groupContext="shape" v:layerMember="1">
					<title>Sheet.2840</title>
					<path d="M6.69 249.49 C4.67 249.49 3.01 251.03 2.83 253 L2.73 253 C1.22 253 0 254.23 0 255.73 C0 257.24 1.22
								 258.46 2.73 258.46 L10.65 258.46 C12.15 258.46 13.37 257.24 13.37 255.73 C13.37 254.23 12.15 253
								 10.65 253 L10.54 253 C10.36 251.03 8.71 249.49 6.69 249.49 Z" class="st9"/>
				</g>
			</g>
		</g>
		<g id="group2841-81" transform="translate(493.311,-99.5019)" v:mID="2841" v:groupContext="group" v:layerMember="1">
			<v:userDefs>
				<v:ud v:nameU="visNavOrder" v:val="VT0(566000):26"/>
			</v:userDefs>
			<title>Sheet.2841</title>
			<g id="group2842-82" transform="translate(-1.39888E-14,-5.00059)" v:mID="2842" v:groupContext="group" v:layerMember="1">
				<v:userDefs>
					<v:ud v:nameU="visNavOrder" v:val="VT0(543000):26"/>
				</v:userDefs>
				<title>Apps Blue</title>
				<g id="shape2843-83" v:mID="2843" v:groupContext="shape" v:layerMember="1">
					<title>Sheet.2843</title>
					<path d="M9.89 246.49 L11.97 248.57 L9.89 248.57 L9.89 246.49 ZM12.62 239.33 L9.89 242.06 L9.89 241.93 C9.89
								 240.71 8.9 239.72 7.68 239.72 L2.21 239.72 C0.99 239.72 0 240.71 0 241.93 L0 256.25 C0 257.47 0.99
								 258.46 2.21 258.46 L16.53 258.46 C17.75 258.46 18.74 257.47 18.74 256.25 L18.74 250.78 C18.74 249.56
								 17.75 248.57 16.53 248.57 L16.41 248.57 L19.14 245.84 C20 244.97 20 243.57 19.14 242.71 L15.75 239.33
								 C14.89 238.46 13.49 238.46 12.62 239.33 ZM14.21 249.87 L16.53 249.87 C17.03 249.87 17.44 250.28
								 17.44 250.78 L17.44 256.25 C17.44 256.75 17.03 257.16 16.53 257.16 L9.89 257.16 L9.89 249.87 L14.16
								 249.87 C14.18 249.87 14.2 249.87 14.21 249.87 ZM2.21 241.02 L7.68 241.02 C8.18 241.02 8.59 241.43
								 8.59 241.93 L8.59 248.57 L1.3 248.57 L1.3 241.93 C1.3 241.43 1.71 241.02 2.21 241.02 ZM8.59 249.87
								 L8.59 257.16 L2.21 257.16 C1.71 257.16 1.3 256.75 1.3 256.25 L1.3 249.87 L8.59 249.87 Z"
							class="st9"/>
				</g>
			</g>
			<g id="group2844-85" transform="translate(11.626,0)" v:mID="2844" v:groupContext="group" v:layerMember="1">
				<v:userDefs>
					<v:ud v:nameU="visNavOrder" v:val="VT0(542000):26"/>
				</v:userDefs>
				<title>Cloud Dark Blue</title>
				<g id="shape2845-86" v:mID="2845" v:groupContext="shape" v:layerMember="1">
					<title>Sheet.2845</title>
					<path d="M6.69 249.49 C4.67 249.49 3.01 251.03 2.83 253.01 L2.73 253.01 C1.22 253.01 0 254.23 0 255.73 C0 257.24
								 1.22 258.46 2.73 258.46 L10.65 258.46 C12.15 258.46 13.37 257.24 13.37 255.73 C13.37 254.23 12.15
								 253.01 10.65 253.01 L10.54 253.01 C10.36 251.03 8.71 249.49 6.69 249.49 Z" class="st20"/>
				</g>
			</g>
		</g>
		<g id="group2846-88" transform="translate(493.311,-131.266)" v:mID="2846" v:groupContext="group" v:layerMember="1">
			<v:userDefs>
				<v:ud v:nameU="visNavOrder" v:val="VT0(567000):26"/>
			</v:userDefs>
			<title>Sheet.2846</title>
			<g id="shape2847-89" v:mID="2847" v:groupContext="shape" v:layerMember="1" transform="translate(-1.39888E-14,-5.00059)">
				<title>Sheet.2847</title>
				<v:userDefs>
					<v:ud v:nameU="visNavOrder" v:prompt="" v:val="VT0(1000):26"/>
				</v:userDefs>
				<path d="M9.89 246.49 L11.97 248.57 L9.89 248.57 L9.89 246.49 ZM12.62 239.33 L9.89 242.06 L9.89 241.93 C9.89 240.71
							 8.9 239.72 7.68 239.72 L2.21 239.72 C0.99 239.72 0 240.71 0 241.93 L0 256.25 C0 257.47 0.99 258.46 2.21
							 258.46 L16.53 258.46 C17.75 258.46 18.74 257.47 18.74 256.25 L18.74 250.78 C18.74 249.56 17.75 248.57
							 16.53 248.57 L16.41 248.57 L19.14 245.84 C20 244.97 20 243.57 19.14 242.71 L15.75 239.33 C14.89 238.46
							 13.49 238.46 12.62 239.33 ZM14.21 249.87 L16.53 249.87 C17.03 249.87 17.44 250.28 17.44 250.78 L17.44
							 256.25 C17.44 256.75 17.03 257.16 16.53 257.16 L9.89 257.16 L9.89 249.87 L14.16 249.87 C14.18 249.87
							 14.2 249.87 14.21 249.87 ZM2.21 241.02 L7.68 241.02 C8.18 241.02 8.59 241.43 8.59 241.93 L8.59 248.57
							 L1.3 248.57 L1.3 241.93 C1.3 241.43 1.71 241.02 2.21 241.02 ZM8.59 249.87 L8.59 257.16 L2.21 257.16
							 C1.71 257.16 1.3 256.75 1.3 256.25 L1.3 249.87 L8.59 249.87 Z" class="st9"/>
			</g>
			<g id="group2848-91" transform="translate(11.626,0)" v:mID="2848" v:groupContext="group" v:layerMember="1">
				<v:userDefs>
					<v:ud v:nameU="visNavOrder" v:val="VT0(542000):26"/>
				</v:userDefs>
				<title>Cloud Dark Blue.2613</title>
				<g id="shape2849-92" v:mID="2849" v:groupContext="shape" v:layerMember="1">
					<title>Sheet.2849</title>
					<path d="M6.69 249.49 C4.67 249.49 3.01 251.03 2.83 253.01 L2.73 253.01 C1.22 253.01 0 254.23 0 255.73 C0 257.24
								 1.22 258.46 2.73 258.46 L10.65 258.46 C12.15 258.46 13.37 257.24 13.37 255.73 C13.37 254.23 12.15
								 253.01 10.65 253.01 L10.54 253.01 C10.36 251.03 8.71 249.49 6.69 249.49 Z" class="st20"/>
				</g>
			</g>
		</g>
		<g id="shape2850-94" v:mID="2850" v:groupContext="shape" v:layerMember="2" transform="translate(289.568,-105.502)">
			<title>Dynamic connector.2850</title>
			<v:userDefs>
				<v:ud v:nameU="visNavOrder" v:val="VT0(546000):26"/>
			</v:userDefs>
			<path d="M0 249.46 L114.5 249.46" class="st15"/>
		</g>
		<g id="group2857-99" transform="translate(163.148,-4.49038)" v:mID="2857" v:groupContext="group" v:layerMember="1">
			<v:userDefs>
				<v:ud v:nameU="visNavOrder" v:val="VT0(600000):26"/>
			</v:userDefs>
			<title>People Community Blue.2857</title>
			<g id="shape2858-100" v:mID="2858" v:groupContext="shape" v:layerMember="1" transform="translate(7.4998,-1.13687E-13)">
				<title>Sheet.2858</title>
				<path d="M0 250.5 C0 248.91 1.29 247.63 2.87 247.63 L15.46 247.63 C17.05 247.63 18.33 248.91 18.33 250.5 L18.33 250.86
							 C18.33 251.19 18.33 253.08 17.15 254.91 C15.91 256.82 13.53 258.46 9.17 258.46 C4.81 258.46 2.42 256.82
							 1.18 254.91 C0 253.08 0 251.19 0 250.86 L0 250.5 Z" class="st9"/>
			</g>
			<g id="shape2859-102" v:mID="2859" v:groupContext="shape" v:layerMember="1" transform="translate(21.0757,-10.2455)">
				<title>Sheet.2859</title>
				<path d="M1.88 256.21 C3.56 256.21 5.02 257.11 5.81 258.46 C8.49 257.93 10.12 256.62 11.07 255.15 C12.26 253.32 12.26
							 251.43 12.26 251.1 L12.26 250.74 C12.26 249.16 10.97 247.87 9.38 247.87 L1.37 247.87 C1.93 248.85 2.26
							 249.99 2.26 251.21 C2.26 253.2 1.38 254.98 0 256.21 L1.88 256.21 Z" class="st9"/>
			</g>
			<g id="shape2860-104" v:mID="2860" v:groupContext="shape" v:layerMember="1" transform="translate(19.1661,-22.4993)">
				<title>Sheet.2860</title>
				<path d="M5 258.46 C7.76 258.46 10 256.22 10 253.46 C10 250.7 7.76 248.46 5 248.46 C2.24 248.46 0 250.7 0 253.46
							 C0 256.22 2.24 258.46 5 258.46 Z" class="st9"/>
			</g>
			<g id="shape2861-106" v:mID="2861" v:groupContext="shape" v:layerMember="1" transform="translate(4.16657,-22.4993)">
				<title>Sheet.2861</title>
				<path d="M5 258.46 C7.76 258.46 10 256.22 10 253.46 C10 250.7 7.76 248.46 5 248.46 C2.24 248.46 0 250.7 0 253.46
							 C0 256.22 2.24 258.46 5 258.46 Z" class="st9"/>
			</g>
			<g id="shape2862-108" v:mID="2862" v:groupContext="shape" v:layerMember="1" transform="translate(1.66867E-13,-10.2455)">
				<title>Sheet.2862</title>
				<path d="M0 250.74 C0 249.16 1.29 247.87 2.87 247.87 L10.89 247.87 C10.32 248.85 10 249.99 10 251.21 C10 253.2 10.87
							 254.98 12.26 256.21 L10.37 256.21 C8.7 256.21 7.24 257.11 6.45 258.46 C3.76 257.93 2.13 256.62 1.18
							 255.15 C0 253.32 0 251.43 0 251.1 L0 250.74 Z" class="st9"/>
			</g>
			<g id="shape2863-110" v:mID="2863" v:groupContext="shape" v:layerMember="1" transform="translate(11.6663,-12.4996)">
				<title>Sheet.2863</title>
				<path d="M10 253.46 C10 256.22 7.76 258.46 5 258.46 C2.24 258.46 0 256.22 0 253.46 C0 250.7 2.24 248.46 5 248.46
							 C7.76 248.46 10 250.7 10 253.46 Z" class="st9"/>
			</g>
		</g>
		<g id="shape2864-112" v:mID="2864" v:groupContext="shape" v:layerMember="2" transform="translate(201.544,-20.7399)">
			<title>Dynamic connector.2864</title>
			<v:userDefs>
				<v:ud v:nameU="visNavOrder" v:val="VT0(601000):26"/>
			</v:userDefs>
			<path d="M0 258.46 L299.35 258.46 A4.5 4.5 -180 0 0 303.85 253.96 L303.85 182.01" class="st21"/>
		</g>
		<g id="shape2865-118" v:mID="2865" v:groupContext="shape" v:layerMember="3" transform="translate(312.804,-20.7399)">
			<title>Rectangle.2865</title>
			<desc>Microsoft Defender for Identity</desc>
			<v:userDefs>
				<v:ud v:nameU="visVersion" v:val="VT0(15):26"/>
				<v:ud v:nameU="visNavOrder" v:val="VT0(602000):26"/>
			</v:userDefs>
			<v:textBlock v:margins="rect(4,4,4,4)" v:verticalAlign="2"/>
			<v:textRect cx="43.3577" cy="249.208" width="86.72" height="18.5031"/>
			<rect x="0" y="239.957" width="86.7157" height="18.5031" class="st23"/>
			<text x="6.56" y="251.46" class="st24" v:langID="1033"><v:paragraph v:horizAlign="1"/><v:tabList/>Cloud app traffic</text>		</g>
		<g id="shape2866-121" v:mID="2866" v:groupContext="shape" v:layerMember="2" transform="translate(170.814,-41.9799)">
			<title>Dynamic connector.2866</title>
			<v:userDefs>
				<v:ud v:nameU="visNavOrder" v:val="VT0(603000):26"/>
			</v:userDefs>
			<path d="M9 258.46 L9 200.33" class="st15"/>
		</g>
		<g id="shape2867-126" v:mID="2867" v:groupContext="shape" v:layerMember="3" transform="translate(182.066,-39.4569)">
			<title>Rectangle.2867</title>
			<desc>Microsoft Defender for Identity</desc>
			<v:userDefs>
				<v:ud v:nameU="visVersion" v:val="VT0(15):26"/>
				<v:ud v:nameU="visNavOrder" v:val="VT0(604000):26"/>
			</v:userDefs>
			<v:textBlock v:margins="rect(4,4,4,4)"/>
			<v:textRect cx="42.0832" cy="247.002" width="84.17" height="22.9162"/>
			<rect x="0" y="235.543" width="84.1668" height="22.9162" class="st23"/>
			<text x="4" y="250" class="st24" v:langID="1033"><v:paragraph/><v:tabList/>Cloud app traffic</text>		</g>
	</g>
</svg>
