<?xml version="1.0" encoding="UTF-8" standalone="no"?>
<!DOCTYPE svg PUBLIC "-//W3C//DTD SVG 1.1//EN" "http://www.w3.org/Graphics/SVG/1.1/DTD/svg11.dtd">
<!-- Generated by Microsoft Visio, SVG Export security-for-ai-step-protect.svg Page-1 -->
<svg xmlns="http://www.w3.org/2000/svg" xmlns:xlink="http://www.w3.org/1999/xlink" xmlns:ev="http://www.w3.org/2001/xml-events"
		xmlns:v="http://schemas.microsoft.com/visio/2003/SVGExtensions/" width="6.44779in" height="2.25903in"
		viewBox="0 0 464.241 162.65" xml:space="preserve" color-interpolation-filters="sRGB" class="st17">
	<v:documentProperties v:langID="1033" v:viewMarkup="false"/>

	<style type="text/css">
	<![CDATA[
		.st1 {fill:#ffffff;stroke:#e3e3e3;stroke-width:1}
		.st2 {visibility:visible}
		.st3 {fill:#000000;fill-opacity:0.15;filter:url(#filter_2);stroke:none}
		.st4 {fill:#c3e5fe;stroke:none;stroke-width:1}
		.st5 {stroke:#2f2f2f;stroke-dasharray:4.5,4.5;stroke-linecap:round;stroke-linejoin:round;stroke-width:1.5}
		.st6 {stroke:#2f2f2f;stroke-linecap:round;stroke-linejoin:round;stroke-width:1.5}
		.st7 {fill:none;stroke:none;stroke-width:1}
		.st8 {fill:#2f2f2f;font-family:Segoe UI;font-size:0.833336em}
		.st9 {font-size:1em}
		.st10 {stroke:#0078d4;stroke-linecap:round;stroke-linejoin:round;stroke-width:1.5}
		.st11 {fill:#0078d4;font-family:Segoe UI Semibold;font-size:1.33333em}
		.st12 {fill:#000000;fill-opacity:0.15;filter:url(#filter_2);stroke:#000000;stroke-opacity:0.15}
		.st13 {fill:#0078d4;stroke:#0078d4;stroke-width:1}
		.st14 {fill:#000000;font-family:Segoe UI Semibold;font-size:1.16666em}
		.st15 {fill:#ffffff;stroke:none;stroke-width:0.75}
		.st16 {fill:#ffffff;stroke:none;stroke-width:0.298828}
		.st17 {fill:none;fill-rule:evenodd;font-size:12px;overflow:visible;stroke-linecap:square;stroke-miterlimit:3}
	]]>
	</style>

	<defs id="Filters">
		<filter id="filter_2">
			<feGaussianBlur stdDeviation="2"/>
		</filter>
	</defs>
	<g v:mID="0" v:index="1" v:groupContext="foregroundPage">
		<v:userDefs>
			<v:ud v:nameU="visNavType" v:val="VT0(1):26"/>
		</v:userDefs>
		<title>Page-1</title>
		<v:pageProperties v:drawingScale="1" v:pageScale="1" v:drawingUnits="19" v:shadowOffsetX="9" v:shadowOffsetY="-9"/>
		<v:layer v:name="Drawing" v:index="0"/>
		<v:layer v:name="Text" v:index="1"/>
		<g id="shape1075-1" v:mID="1075" v:groupContext="shape" v:layerMember="0" transform="translate(1,-1)">
			<title>Sheet.1075</title>
			<v:userDefs>
				<v:ud v:nameU="visNavOrder" v:prompt="" v:val="VT0(78000):26"/>
			</v:userDefs>
			<rect x="0" y="2" width="462.241" height="160.65" rx="4.5" ry="4.5" class="st1"/>
		</g>
		<g id="shape1076-3" v:mID="1076" v:groupContext="shape" v:layerMember="0" transform="translate(238.304,-9.97757)">
			<title>Sheet.1076</title>
			<v:userDefs>
				<v:ud v:nameU="visNavOrder" v:val="VT0(96000):26"/>
			</v:userDefs>
			<g id="shadow1076-4" v:groupContext="shadow" v:shadowOffsetX="1.22465E-16" v:shadowOffsetY="-2" v:shadowType="1"
					v:shadowScale="1.01" transform="matrix(1.01,0,0,1.01,-0.531562,0.950284)" class="st2">
				<rect x="0" y="47.293" width="106.312" height="115.357" rx="4.5" ry="4.5" class="st3"/>
			</g>
			<rect x="0" y="47.293" width="106.312" height="115.357" rx="4.5" ry="4.5" class="st4"/>
		</g>
		<g id="shape1077-8" v:mID="1077" v:groupContext="shape" v:layerMember="0" transform="translate(416.54,-69.5001)">
			<title>Sheet.1077</title>
			<v:userDefs>
				<v:ud v:nameU="visNavOrder" v:val="VT0(76000):26"/>
			</v:userDefs>
			<path d="M0 162.65 L31.07 162.65" class="st5"/>
		</g>
		<g id="shape1078-11" v:mID="1078" v:groupContext="shape" v:layerMember="0"
				transform="translate(21.7892,-69.4999) rotate(-0.0856713)">
			<title>Sheet.1078</title>
			<v:userDefs>
				<v:ud v:nameU="visNavOrder" v:val="VT0(77000):26"/>
			</v:userDefs>
			<path d="M0 162.65 L363.02 162.65" class="st6"/>
		</g>
		<g id="shape1079-14" v:mID="1079" v:groupContext="shape" v:layerMember="1" transform="translate(14.5856,-23.5894)">
			<title>Sheet.1079</title>
			<desc>Foundation security protections</desc>
			<v:userDefs>
				<v:ud v:nameU="visNavOrder" v:val="VT0(79000):26"/>
			</v:userDefs>
			<v:textBlock v:margins="rect(6,6,6,6)"/>
			<v:textRect cx="53.7188" cy="153.581" width="107.44" height="18.1375"/>
			<rect x="0" y="144.513" width="107.438" height="18.1375" rx="4.5" ry="4.5" class="st7"/>
			<text x="10.23" y="150.58" class="st8" v:langID="1033"><v:paragraph v:horizAlign="1"/><v:tabList/>Foundation security <tspan
						x="28.71" dy="1.2em" class="st9">protections</tspan></text>		</g>
		<g id="shape1080-18" v:mID="1080" v:groupContext="shape" v:layerMember="0" transform="translate(20.4658,-118.903)">
			<title>Sheet.1080</title>
			<v:userDefs>
				<v:ud v:nameU="visNavOrder" v:val="VT0(80000):26"/>
			</v:userDefs>
			<path d="M0 162.65 L95.68 162.65" class="st10"/>
		</g>
		<g id="shape1081-21" v:mID="1081" v:groupContext="shape" v:layerMember="1" transform="translate(139.555,-23.5894)">
			<title>Sheet.1081</title>
			<desc>AI apps, data, &#38; usage</desc>
			<v:userDefs>
				<v:ud v:nameU="visNavOrder" v:val="VT0(81000):26"/>
			</v:userDefs>
			<v:textBlock v:margins="rect(6,6,6,6)"/>
			<v:textRect cx="40.5445" cy="153.581" width="81.09" height="18.1375"/>
			<rect x="0" y="144.513" width="81.089" height="18.1375" rx="4.5" ry="4.5" class="st7"/>
			<text x="10.81" y="150.58" class="st8" v:langID="1033"><v:paragraph v:horizAlign="1"/><v:tabList/>AI apps, data, <tspan
						x="22.12" dy="1.2em" class="st9">&#38; usage</tspan></text>		</g>
		<g id="shape1082-25" v:mID="1082" v:groupContext="shape" v:layerMember="1" transform="translate(245.469,-23.5894)">
			<title>Sheet.1082</title>
			<desc>AI-specific data &#38; threat protections</desc>
			<v:userDefs>
				<v:ud v:nameU="visNavOrder" v:val="VT0(82000):26"/>
			</v:userDefs>
			<v:textBlock v:margins="rect(6,6,6,6)"/>
			<v:textRect cx="45.9823" cy="153.581" width="91.97" height="18.1375"/>
			<rect x="0" y="144.513" width="91.9647" height="18.1375" rx="4.5" ry="4.5" class="st7"/>
			<text x="6.68" y="150.58" class="st8" v:langID="1033"><v:paragraph v:horizAlign="1"/><v:tabList/>AI-specific data &#38; <tspan
						x="6.48" dy="1.2em" class="st9">threat protections</tspan></text>		</g>
		<g id="shape1083-29" v:mID="1083" v:groupContext="shape" v:layerMember="1;0" transform="translate(16.8291,-136.215)">
			<title>Sheet.1083</title>
			<desc>Build a strong security posture for AI</desc>
			<v:userDefs>
				<v:ud v:nameU="visNavOrder" v:prompt="" v:val="VT0(83000):26"/>
			</v:userDefs>
			<v:textBlock v:margins="rect(0,0,0,0)"/>
			<v:textRect cx="158.198" cy="154.027" width="316.4" height="17.2455"/>
			<rect x="0" y="145.405" width="316.397" height="17.2455" rx="4.5" ry="4.5" class="st7"/>
			<text x="0" y="158.83" class="st11" v:langID="1033"><v:paragraph/><v:tabList/>Build a strong security posture for AI</text>		</g>
		<g id="shape1084-32" v:mID="1084" v:groupContext="shape" transform="translate(49.1506,-53.7642)">
			<title>Sheet.1084</title>
			<v:userDefs>
				<v:ud v:nameU="visNavOrder" v:val="VT0(84000):26"/>
			</v:userDefs>
			<g id="shadow1084-33" v:groupContext="shadow" v:shadowOffsetX="1.22465E-16" v:shadowOffsetY="-2" v:shadowType="1"
					v:shadowScale="1.01" transform="matrix(1.01,0,0,1.01,-0.169129,0.537654)" class="st2">
				<ellipse cx="16.9129" cy="146.235" rx="16.9129" ry="16.4155" class="st12"/>
			</g>
			<ellipse cx="16.9129" cy="146.235" rx="16.9129" ry="16.4155" class="st13"/>
		</g>
		<g id="shape1085-37" v:mID="1085" v:groupContext="shape" v:layerMember="1" transform="translate(20.9085,-101.118)">
			<title>Sheet.1085</title>
			<desc>Prepare</desc>
			<v:userDefs>
				<v:ud v:nameU="visNavOrder" v:val="VT0(85000):26"/>
			</v:userDefs>
			<v:textBlock v:margins="rect(0,0,0,0)"/>
			<v:textRect cx="38.7534" cy="153.581" width="77.51" height="18.1375"/>
			<rect x="0" y="144.513" width="77.5068" height="18.1375" rx="4.5" ry="4.5" class="st7"/>
			<text x="0" y="157.78" class="st14" v:langID="1033"><v:paragraph/><v:tabList/>Prepare</text>		</g>
		<g id="shape1086-40" v:mID="1086" v:groupContext="shape" transform="translate(163.186,-52.516)">
			<title>Sheet.1086</title>
			<v:userDefs>
				<v:ud v:nameU="visNavOrder" v:val="VT0(86000):26"/>
			</v:userDefs>
			<g id="shadow1086-41" v:groupContext="shadow" v:shadowOffsetX="1.22465E-16" v:shadowOffsetY="-2" v:shadowType="1"
					v:shadowScale="1.01" transform="matrix(1.01,0,0,1.01,-0.169129,0.537654)" class="st2">
				<ellipse cx="16.9129" cy="146.235" rx="16.9129" ry="16.4155" class="st12"/>
			</g>
			<ellipse cx="16.9129" cy="146.235" rx="16.9129" ry="16.4155" class="st13"/>
		</g>
		<g id="shape1087-45" v:mID="1087" v:groupContext="shape" transform="translate(274.539,-52.0075)">
			<title>Sheet.1087</title>
			<v:userDefs>
				<v:ud v:nameU="visNavOrder" v:val="VT0(87000):26"/>
			</v:userDefs>
			<g id="shadow1087-46" v:groupContext="shadow" v:shadowOffsetX="1.22465E-16" v:shadowOffsetY="-2" v:shadowType="1"
					v:shadowScale="1.01" transform="matrix(1.01,0,0,1.01,-0.169129,0.537654)" class="st2">
				<ellipse cx="16.9129" cy="146.235" rx="16.9129" ry="16.4155" class="st12"/>
			</g>
			<ellipse cx="16.9129" cy="146.235" rx="16.9129" ry="16.4155" class="st13"/>
		</g>
		<g id="shape1088-50" v:mID="1088" v:groupContext="shape" transform="translate(385.891,-53.533)">
			<title>Sheet.1088</title>
			<v:userDefs>
				<v:ud v:nameU="visNavOrder" v:val="VT0(88000):26"/>
			</v:userDefs>
			<g id="shadow1088-51" v:groupContext="shadow" v:shadowOffsetX="1.22465E-16" v:shadowOffsetY="-2" v:shadowType="1"
					v:shadowScale="1.01" transform="matrix(1.01,0,0,1.01,-0.169129,0.537654)" class="st2">
				<ellipse cx="16.9129" cy="146.235" rx="16.9129" ry="16.4155" class="st12"/>
			</g>
			<ellipse cx="16.9129" cy="146.235" rx="16.9129" ry="16.4155" class="st13"/>
		</g>
		<g id="shape1089-55" v:mID="1089" v:groupContext="shape" v:layerMember="1" transform="translate(350.719,-23.5894)">
			<title>Sheet.1089</title>
			<desc>Govern AI for compliance</desc>
			<v:userDefs>
				<v:ud v:nameU="visNavOrder" v:val="VT0(89000):26"/>
			</v:userDefs>
			<v:textBlock v:margins="rect(6,6,6,6)"/>
			<v:textRect cx="52.0847" cy="153.581" width="104.17" height="18.1375"/>
			<rect x="0" y="144.513" width="104.169" height="18.1375" rx="4.5" ry="4.5" class="st7"/>
			<text x="22.62" y="150.58" class="st8" v:langID="1033"><v:paragraph v:horizAlign="1"/><v:tabList/>Govern AI for <tspan
						x="26.88" dy="1.2em" class="st9">compliance</tspan></text>		</g>
		<g id="shape1090-59" v:mID="1090" v:groupContext="shape" v:layerMember="0" transform="translate(132.261,-118.903)">
			<title>Sheet.1090</title>
			<v:userDefs>
				<v:ud v:nameU="visNavOrder" v:val="VT0(90000):26"/>
			</v:userDefs>
			<path d="M0 162.65 L95.68 162.65" class="st10"/>
		</g>
		<g id="shape1091-62" v:mID="1091" v:groupContext="shape" v:layerMember="1" transform="translate(132.261,-101.118)">
			<title>Sheet.1091</title>
			<desc>Discover</desc>
			<v:userDefs>
				<v:ud v:nameU="visNavOrder" v:val="VT0(91000):26"/>
			</v:userDefs>
			<v:textBlock v:margins="rect(0,0,0,0)"/>
			<v:textRect cx="38.7534" cy="153.581" width="77.51" height="18.1375"/>
			<rect x="0" y="144.513" width="77.5068" height="18.1375" rx="4.5" ry="4.5" class="st7"/>
			<text x="0" y="157.78" class="st14" v:langID="1033"><v:paragraph/><v:tabList/>Discover</text>		</g>
		<g id="shape1092-65" v:mID="1092" v:groupContext="shape" v:layerMember="0" transform="translate(243.613,-118.903)">
			<title>Sheet.1092</title>
			<v:userDefs>
				<v:ud v:nameU="visNavOrder" v:val="VT0(92000):26"/>
			</v:userDefs>
			<path d="M0 162.65 L95.68 162.65" class="st10"/>
		</g>
		<g id="shape1093-68" v:mID="1093" v:groupContext="shape" v:layerMember="1" transform="translate(243.613,-101.118)">
			<title>Sheet.1093</title>
			<desc>Protect</desc>
			<v:userDefs>
				<v:ud v:nameU="visNavOrder" v:val="VT0(93000):26"/>
			</v:userDefs>
			<v:textBlock v:margins="rect(0,0,0,0)"/>
			<v:textRect cx="38.7534" cy="153.581" width="77.51" height="18.1375"/>
			<rect x="0" y="144.513" width="77.5068" height="18.1375" rx="4.5" ry="4.5" class="st7"/>
			<text x="0" y="157.78" class="st14" v:langID="1033"><v:paragraph/><v:tabList/>Protect</text>		</g>
		<g id="shape1094-71" v:mID="1094" v:groupContext="shape" v:layerMember="0" transform="translate(354.965,-118.903)">
			<title>Sheet.1094</title>
			<v:userDefs>
				<v:ud v:nameU="visNavOrder" v:val="VT0(94000):26"/>
			</v:userDefs>
			<path d="M0 162.65 L95.68 162.65" class="st10"/>
		</g>
		<g id="shape1095-74" v:mID="1095" v:groupContext="shape" v:layerMember="1" transform="translate(354.965,-101.118)">
			<title>Sheet.1095</title>
			<desc>Govern</desc>
			<v:userDefs>
				<v:ud v:nameU="visNavOrder" v:val="VT0(95000):26"/>
			</v:userDefs>
			<v:textBlock v:margins="rect(0,0,0,0)"/>
			<v:textRect cx="38.7534" cy="153.581" width="77.51" height="18.1375"/>
			<rect x="0" y="144.513" width="77.5068" height="18.1375" rx="4.5" ry="4.5" class="st7"/>
			<text x="0" y="157.78" class="st14" v:langID="1033"><v:paragraph/><v:tabList/>Govern</text>		</g>
		<g id="shape1096-77" v:mID="1096" v:groupContext="shape" transform="translate(282.138,-58.657)">
			<title>Sheet.1096</title>
			<v:userDefs>
				<v:ud v:nameU="visNavOrder" v:prompt="" v:val="VT0(99000):26"/>
			</v:userDefs>
			<path d="M14.24 149.49 C14.55 149.2 14.57 148.71 14.28 148.4 C13.99 148.08 13.5 148.06 13.19 148.35 L7.53 153.54 L5.46
						 151.48 C5.16 151.17 4.67 151.17 4.37 151.48 C4.06 151.78 4.06 152.27 4.37 152.57 L6.95 155.16 C7.25 155.45
						 7.72 155.46 8.03 155.18 L14.24 149.49 ZM17.85 145.04 C15.1 145.04 12.41 144.06 9.78 142.09 C9.5 141.88 9.12
						 141.88 8.85 142.09 C6.22 144.06 3.53 145.04 0.78 145.04 C0.35 145.04 0 145.39 0 145.82 L0 151.25 C0 156.42
						 3.06 160.23 9.03 162.58 C9.21 162.65 9.42 162.65 9.6 162.58 C15.57 160.23 18.63 156.42 18.63 151.25 L18.63
						 145.82 C18.63 145.39 18.28 145.04 17.85 145.04 ZM1.55 146.57 C4.22 146.41 6.81 145.44 9.31 143.67 C11.82
						 145.44 14.41 146.41 17.08 146.57 L17.08 151.25 C17.08 155.65 14.54 158.88 9.31 161.02 C4.09 158.88 1.55
						 155.65 1.55 151.25 L1.55 146.57 Z" class="st15"/>
		</g>
		<g id="shape1097-79" v:mID="1097" v:groupContext="shape" transform="translate(393.957,-61.3247)">
			<title>Sheet.1097</title>
			<v:userDefs>
				<v:ud v:nameU="visNavOrder" v:prompt="" v:val="VT0(100000):26"/>
			</v:userDefs>
			<path d="M0 159.33 L0 153.8 L3.32 153.8 L3.32 159.33 L0 159.33 ZM16.59 148.27 L16.59 151.59 L13.27 151.59 L13.27 148.27
						 L16.59 148.27 ZM12.16 144.96 L12.16 151.59 L9.95 151.59 L9.95 159.33 L8.85 159.33 L8.85 144.96 L12.16 144.96
						 ZM4.42 159.33 L4.42 148.27 L7.74 148.27 L7.74 159.33 L4.42 159.33 ZM11.06 152.7 L17.69 152.7 L17.69 162.65
						 L14.38 160.44 L11.06 162.65 L11.06 152.7 ZM16.59 153.8 L12.16 153.8 L12.16 160.59 C12.54 160.34 12.91 160.09
						 13.27 159.85 C13.63 159.61 14 159.36 14.38 159.11 C14.75 159.35 15.12 159.59 15.48 159.84 C15.84 160.09
						 16.21 160.34 16.59 160.59 L16.59 153.8 Z" class="st16"/>
		</g>
		<g id="shape1098-81" v:mID="1098" v:groupContext="shape" transform="translate(55.8625,-62.1087)">
			<title>Sheet.1098</title>
			<v:userDefs>
				<v:ud v:nameU="visNavOrder" v:prompt="" v:val="VT0(97000):26"/>
			</v:userDefs>
			<path d="M2.66 146.9 C1.19 146.9 0 148.1 0 149.57 L0 153.92 C0 155.39 1.19 156.58 2.66 156.58 L8.71 156.58 L8.71 155.13
						 L2.66 155.13 C1.99 155.13 1.45 154.59 1.45 153.92 L1.45 149.57 C1.45 148.9 1.99 148.36 2.66 148.36 L14.76
						 148.36 C15.43 148.36 15.97 148.9 15.97 149.57 L15.97 150.86 C16.41 151.39 16.93 151.73 17.43 151.95 L17.43
						 149.57 C17.43 148.1 16.23 146.9 14.76 146.9 L2.66 146.9 ZM14.52 151.02 C14.29 151.02 14.06 151.13 13.93
						 151.32 L13.92 151.34 C13.9 151.37 13.82 151.46 13.7 151.6 C13.54 151.78 13.3 152.02 12.99 152.26 C12.36
						 152.74 11.49 153.2 10.41 153.2 C10.01 153.2 9.68 153.52 9.68 153.92 L9.68 156.58 C9.68 158.17 10.1 159.44
						 10.94 160.44 C11.76 161.42 12.92 162.08 14.27 162.59 C14.43 162.65 14.61 162.65 14.78 162.59 C16.12 162.08
						 17.28 161.42 18.1 160.44 C18.94 159.44 19.36 158.17 19.36 156.58 L19.36 153.92 C19.36 153.52 19.04 153.2
						 18.64 153.2 C17.56 153.2 16.68 152.74 16.05 152.26 C15.74 152.02 15.5 151.78 15.34 151.6 C15.22 151.46 15.15
						 151.37 15.12 151.34 L15.11 151.33 C14.98 151.13 14.76 151.02 14.52 151.02 ZM13.88 153.41 C14.13 153.21 14.34
						 153.02 14.52 152.84 C14.7 153.02 14.91 153.21 15.17 153.41 C15.82 153.91 16.75 154.44 17.91 154.6 L17.91
						 156.58 C17.91 157.9 17.57 158.81 16.99 159.51 C16.44 160.17 15.62 160.69 14.52 161.13 C13.42 160.69 12.6
						 160.17 12.05 159.51 C11.48 158.81 11.13 157.9 11.13 156.58 L11.13 154.6 C12.29 154.44 13.22 153.91 13.88
						 153.41 ZM13.93 151.32 C13.93 151.32 13.93 151.33 13.93 151.33 L13.93 151.32 Z" class="st15"/>
		</g>
		<g id="shape1099-83" v:mID="1099" v:groupContext="shape" transform="translate(169.81,-59.3652)">
			<title>Sheet.1099</title>
			<v:userDefs>
				<v:ud v:nameU="visNavOrder" v:prompt="" v:val="VT0(98000):26"/>
			</v:userDefs>
			<path d="M8.85 156.56 C9.93 156.56 10.92 156.22 11.74 155.64 L14.63 158.53 C14.95 158.86 15.48 158.86 15.8 158.53 C16.13
						 158.21 16.13 157.68 15.8 157.36 L12.91 154.47 C13.49 153.66 13.83 152.66 13.83 151.58 C13.83 148.83 11.6
						 146.61 8.85 146.61 C6.1 146.61 3.87 148.83 3.87 151.58 C3.87 154.33 6.1 156.56 8.85 156.56 ZM8.85 154.9
						 C7.02 154.9 5.53 153.42 5.53 151.58 C5.53 149.75 7.02 148.27 8.85 148.27 C10.69 148.27 12.17 149.75 12.17
						 151.58 C12.17 153.42 10.69 154.9 8.85 154.9 ZM3.6 142.73 C1.61 142.73 0 144.34 0 146.33 L0 159.05 C0 161.04
						 1.61 162.65 3.6 162.65 L16.32 162.65 C18.31 162.65 19.92 161.04 19.92 159.05 L19.92 146.33 C19.92 144.34
						 18.31 142.73 16.32 142.73 L3.6 142.73 ZM1.66 146.33 C1.66 145.26 2.53 144.39 3.6 144.39 L16.32 144.39 C17.39
						 144.39 18.26 145.26 18.26 146.33 L18.26 159.05 C18.26 160.12 17.39 160.99 16.32 160.99 L3.6 160.99 C2.53
						 160.99 1.66 160.12 1.66 159.05 L1.66 146.33 Z" class="st15"/>
		</g>
	</g>
</svg>
