<svg width="103" height="103" viewBox="0 0 103 103" fill="none" xmlns="http://www.w3.org/2000/svg">
<path d="M51.4672 97.9432C25.6172 97.9432 4.65723 76.9932 4.65723 51.1332C4.65723 25.2732 25.6172 4.32324 51.4672 4.32324C77.3172 4.32324 98.2772 25.2832 98.2772 51.1332C98.2772 76.9832 77.3172 97.9432 51.4672 97.9432Z" fill="url(#paint0_linear_451_51140)"/>
<path fill-rule="evenodd" clip-rule="evenodd" d="M97.3671 51.1332C97.3671 76.4832 76.8171 97.0332 51.4671 97.0332C26.1171 97.0332 5.56715 76.4832 5.56715 51.1332C5.56715 25.7832 26.1171 5.23317 51.4671 5.23317C76.8171 5.23317 97.3671 25.7832 97.3671 51.1332ZM51.4671 1.49316C78.8871 1.49316 101.107 23.7132 101.107 51.1332C101.107 78.5532 78.8771 100.773 51.4671 100.773C24.0471 100.773 1.82715 78.5432 1.82715 51.1332C1.82715 23.7132 24.0471 1.49316 51.4671 1.49316Z" fill="#F2F1F0"/>
<path fill-rule="evenodd" clip-rule="evenodd" d="M94.5572 51.1327C94.5572 74.9327 75.2672 94.2227 51.4672 94.2227C27.6672 94.2227 8.37721 74.9327 8.37721 51.1327C8.37721 27.3327 27.6672 8.04274 51.4672 8.04274C75.2672 8.04274 94.5572 27.3327 94.5572 51.1327ZM51.4672 4.30273C77.3272 4.30273 98.2972 25.2727 98.2972 51.1327C98.2972 76.9927 77.3272 97.9628 51.4672 97.9628C25.6072 97.9628 4.63721 76.9927 4.63721 51.1327C4.63721 25.2727 25.5972 4.30273 51.4672 4.30273Z" fill="url(#paint1_linear_451_51140)"/>
<path opacity="0.15" d="M70.5958 23.9082H28.7801C27.8759 23.9082 27.1465 24.6377 27.1465 25.5418V80.0974C27.1465 81.0015 27.8759 81.731 28.7801 81.731H70.5958C71.4999 81.731 72.2294 81.0015 72.2294 80.0974V25.5418C72.2088 24.6377 71.4793 23.9082 70.5958 23.9082Z" fill="#1F1D20"/>
<path d="M70.5958 21.8936H28.7801C27.8759 21.8936 27.1465 22.623 27.1465 23.5271V78.0827C27.1465 78.9869 27.8759 79.7163 28.7801 79.7163H70.5958C71.4999 79.7163 72.2294 78.9869 72.2294 78.0827V23.5271C72.2088 22.623 71.4793 21.8936 70.5958 21.8936Z" fill="#F2F2F2"/>
<path fill-rule="evenodd" clip-rule="evenodd" d="M52.5032 14.3738C54.0752 15.206 54.9999 16.8807 54.9999 18.6478V19.0793C54.9999 19.2437 54.9896 19.3876 54.9793 19.552H58.38C59.3972 19.552 60.3424 20.0554 60.8561 20.939C62.2945 23.4458 60.5273 26.0041 58.1437 26.0041H40.9962C39.9791 26.0041 39.0339 25.5007 38.5202 24.6171C37.0818 22.1102 38.8489 19.552 41.2325 19.552H44.397C44.3867 19.4081 44.3867 19.2437 44.3867 19.0793V18.9458C44.3867 15.1238 48.4552 12.2368 52.5032 14.3738Z" fill="#1F56A3"/>
<path d="M49.6879 21.4422C50.9002 21.4422 51.8763 20.4662 51.8763 19.2538C51.8763 18.0415 50.9002 17.0654 49.6879 17.0654C48.4756 17.0654 47.4995 18.0415 47.4995 19.2538C47.4995 20.4662 48.4756 21.4422 49.6879 21.4422Z" fill="#F2F2F2"/>
<path d="M62.1299 33.4521H37.6466C37.1946 33.4521 36.8247 33.822 36.8247 34.2741V37.346H62.9415V34.2741C62.9415 33.822 62.5819 33.4521 62.1299 33.4521Z" fill="#0188EE"/>
<path d="M62.9415 39.1426H36.8247V47.2591H62.9415V39.1426V39.1426Z" fill="#0162C5"/>
<path d="M36.8247 48.9561V68.2406C36.8247 68.6926 37.1946 69.0625 37.6466 69.0625H53.1811L54.7531 63.2782C54.9996 62.3843 55.4825 61.5727 56.1709 60.9357L62.9518 54.6582V48.9561H36.8247Z" fill="#01548F"/>
<path d="M56.2533 63.2363L75.096 44.558C76.7605 42.9038 79.4215 42.8114 81.1989 44.3422C83.1921 46.0477 83.3153 49.1094 81.4352 50.9587L62.4691 69.7912L54.7225 71.7947C54.3423 71.8871 54.0033 71.5481 54.106 71.168L56.2533 63.2363Z" fill="url(#paint2_linear_451_51140)"/>
<path d="M56.2739 63.2159L73.3187 46.3252L79.9147 52.4794L62.4898 69.7913L56.2739 63.2159Z" fill="url(#paint3_linear_451_51140)"/>
<path d="M56.2841 71.3933L54.7225 71.794C54.3423 71.8864 54.0033 71.5474 54.106 71.1673L54.5478 69.5439L56.2841 71.3933Z" fill="url(#paint4_linear_451_51140)"/>
<path opacity="0.15" d="M50.201 52.8747C56.0166 52.8747 60.7204 48.1709 60.7204 42.3553C60.7204 36.5397 56.0166 31.8359 50.201 31.8359C44.3854 31.8359 39.6816 36.5397 39.6816 42.3553C39.6816 48.1709 44.3997 52.8747 50.201 52.8747Z" fill="#1F1D20"/>
<path d="M50.201 51.9333C56.0166 51.9333 60.7204 47.2295 60.7204 41.4139C60.7204 35.5983 56.0166 30.8945 50.201 30.8945C44.3854 30.8945 39.6816 35.5983 39.6816 41.4139C39.6816 47.2295 44.3997 51.9333 50.201 51.9333Z" fill="white"/>
<path d="M55.3328 45.6913C55.0477 43.0828 52.8098 41.0303 50.1016 41.0303C47.4076 41.0303 45.1982 43.0401 44.8704 45.62C44.8276 45.8053 44.8276 46.0049 44.8276 46.1759C44.8989 46.9171 45.3978 47.6298 46.3671 48.1857C48.4196 49.3688 51.7836 49.3688 53.8219 48.1857C54.7911 47.6298 55.2758 46.9171 55.347 46.1759C55.3755 46.0191 55.347 45.8481 55.3328 45.6913Z" fill="url(#paint5_linear_451_51140)"/>
<path d="M50.1015 40.2739C51.8547 40.2739 53.2801 38.8627 53.2801 37.1237C53.2801 35.3848 51.869 33.9736 50.1015 33.9736C48.334 33.9736 46.9229 35.3705 46.9229 37.1237C46.9229 38.877 48.3482 40.2739 50.1015 40.2739Z" fill="url(#paint6_linear_451_51140)"/>
<defs>
<linearGradient id="paint0_linear_451_51140" x1="49.6933" y1="-13.6563" x2="53.6753" y2="132.114" gradientUnits="userSpaceOnUse">
<stop stop-color="#00ABDE"/>
<stop offset="1" stop-color="#007ED8"/>
</linearGradient>
<linearGradient id="paint1_linear_451_51140" x1="2.89761" y1="-20.4899" x2="98.4251" y2="120.392" gradientUnits="userSpaceOnUse">
<stop stop-color="#007ED8"/>
<stop offset="0.7065" stop-color="#002D4C"/>
</linearGradient>
<linearGradient id="paint2_linear_451_51140" x1="54.0853" y1="57.53" x2="82.7669" y2="57.53" gradientUnits="userSpaceOnUse">
<stop stop-color="#007ED8"/>
<stop offset="0.7065" stop-color="#002D4C"/>
</linearGradient>
<linearGradient id="paint3_linear_451_51140" x1="67.188" y1="35.5862" x2="69.6739" y2="96.626" gradientUnits="userSpaceOnUse">
<stop stop-color="#007ED8"/>
<stop offset="0.7065" stop-color="#002D4C"/>
</linearGradient>
<linearGradient id="paint4_linear_451_51140" x1="53.7527" y1="36.1322" x2="56.2384" y2="97.1731" gradientUnits="userSpaceOnUse">
<stop stop-color="#007ED8"/>
<stop offset="0.7065" stop-color="#002D4C"/>
</linearGradient>
<linearGradient id="paint5_linear_451_51140" x1="50.0934" y1="41.0303" x2="50.0934" y2="49.073" gradientUnits="userSpaceOnUse">
<stop stop-color="#008BF1"/>
<stop offset="0.22" stop-color="#0086EC"/>
<stop offset="0.49" stop-color="#0078DD"/>
<stop offset="0.79" stop-color="#0061C4"/>
<stop offset="1" stop-color="#004DAE"/>
</linearGradient>
<linearGradient id="paint6_linear_451_51140" x1="50.1015" y1="33.9736" x2="50.1015" y2="40.2739" gradientUnits="userSpaceOnUse">
<stop stop-color="#008BF1"/>
<stop offset="0.22" stop-color="#0086EC"/>
<stop offset="0.49" stop-color="#0078DD"/>
<stop offset="0.79" stop-color="#0061C4"/>
<stop offset="1" stop-color="#004DAE"/>
</linearGradient>
</defs>
</svg>
