<svg width="103" height="103" viewBox="0 0 103 103" fill="none" xmlns="http://www.w3.org/2000/svg">
<path d="M51.9106 98.1627C26.0606 98.1627 5.10059 77.2127 5.10059 51.3527C5.10059 25.4927 26.0606 4.54272 51.9106 4.54272C77.7606 4.54272 98.7206 25.5027 98.7206 51.3527C98.7206 77.2027 77.7606 98.1627 51.9106 98.1627Z" fill="url(#paint0_linear)"/>
<path fill-rule="evenodd" clip-rule="evenodd" d="M97.8105 51.3529C97.8105 76.7029 77.2605 97.2529 51.9105 97.2529C26.5605 97.2529 6.01051 76.7029 6.01051 51.3529C6.01051 26.0029 26.5605 5.45289 51.9105 5.45289C77.2605 5.45289 97.8105 26.0029 97.8105 51.3529ZM51.9105 1.71289C79.3305 1.71289 101.551 23.9329 101.551 51.3529C101.551 78.7729 79.3205 100.993 51.9105 100.993C24.4905 100.993 2.27051 78.7629 2.27051 51.3529C2.27051 23.9329 24.4905 1.71289 51.9105 1.71289Z" fill="#F2F1F0"/>
<path fill-rule="evenodd" clip-rule="evenodd" d="M95.0001 51.3527C95.0001 75.1527 75.7101 94.4427 51.9101 94.4427C28.1101 94.4427 8.82008 75.1527 8.82008 51.3527C8.82008 27.5527 28.1101 8.2627 51.9101 8.2627C75.7101 8.2627 95.0001 27.5527 95.0001 51.3527ZM51.9101 4.52271C77.7701 4.52271 98.7401 25.4927 98.7401 51.3527C98.7401 77.2127 77.7701 98.1827 51.9101 98.1827C26.0501 98.1827 5.08008 77.2127 5.08008 51.3527C5.08008 25.4927 26.0401 4.52271 51.9101 4.52271Z" fill="url(#paint1_linear)"/>
<path fill-rule="evenodd" clip-rule="evenodd" d="M43.1504 49.9927H52.0404V50.9927H43.1504V49.9927Z" fill="white"/>
<path d="M51.29 48.8328L54.17 50.4928L51.29 52.1528V48.8328Z" fill="white"/>
<path opacity="0.2" d="M26.13 68.4728H47.01C47.94 68.4728 48.7 67.7128 48.7 66.7828V36.1128H15.54V66.7828C15.54 67.7128 16.3 68.4728 17.23 68.4728H20.84H26.13Z" fill="#1F1D21"/>
<path d="M26.13 66.8329H47.56C48.2 66.8329 48.71 66.3129 48.71 65.6829V35.6229C48.7 34.9829 48.19 34.4729 47.56 34.4729H16.69C16.05 34.4729 15.54 34.9929 15.54 35.6229V65.6829C15.54 66.3229 16.06 66.8329 16.69 66.8329H20.84H26.13Z" fill="#F2F2F2"/>
<path d="M48.71 35.0528C48.71 34.4128 48.19 33.9028 47.56 33.9028H16.69C16.05 33.9028 15.54 34.4228 15.54 35.0528V36.1428H48.71V35.0528Z" fill="#0D3868"/>
<path opacity="0.2" d="M65.5002 68.5626H86.3902C87.3202 68.5626 88.0802 67.8026 88.0802 66.8726V36.2026H54.9102V66.8726C54.9102 67.8026 55.6702 68.5626 56.6002 68.5626H60.2102H65.5002V68.5626Z" fill="#1F1D21"/>
<path d="M65.5002 66.9227H86.9302C87.5702 66.9227 88.0802 66.4027 88.0802 65.7727V35.7127C88.0702 35.0727 87.5602 34.5627 86.9302 34.5627H56.0602C55.4202 34.5627 54.9102 35.0827 54.9102 35.7127V65.7727C54.9102 66.4127 55.4302 66.9227 56.0602 66.9227H60.2102H65.5002V66.9227Z" fill="#F2F2F2"/>
<path d="M88.0802 35.1427C88.0802 34.5027 87.5602 33.9927 86.9302 33.9927H56.0602C55.4202 33.9927 54.9102 34.5127 54.9102 35.1427V36.2327H88.0802V35.1427Z" fill="#0D3868"/>
<path d="M81.7502 50.4027C81.7502 57.0927 73.6502 62.4827 71.8902 63.5827C71.7902 63.6427 71.6702 63.6827 71.5502 63.6827C71.4302 63.6827 71.3102 63.6527 71.2102 63.5827C69.3902 62.4827 61.2402 57.0827 61.2402 50.4027V42.3527C61.2402 42.1827 61.3102 42.0227 61.4202 41.9027C61.5402 41.7827 61.7002 41.7127 61.8702 41.7127C68.2302 41.5527 66.7802 38.7827 71.4902 38.7827C76.2102 38.7827 74.7602 41.5527 81.0502 41.7127C81.2202 41.7127 81.3802 41.7827 81.5002 41.9027C81.6202 42.0227 81.6802 42.1827 81.6802 42.3527L81.7502 50.4027Z" fill="#1B93EB"/>
<path d="M80.8404 50.4627C80.8404 56.6127 73.4204 61.5527 71.8004 62.5427C71.7104 62.6027 71.6004 62.6327 71.4904 62.6327C71.3804 62.6327 71.2704 62.6027 71.1804 62.5427C69.5704 61.5427 62.1404 56.6127 62.1404 50.4627V43.1427C62.1304 43.0627 62.1304 42.9727 62.1504 42.8927C62.1704 42.8127 62.2104 42.7327 62.2604 42.6627C62.3104 42.5927 62.3804 42.5427 62.4504 42.5027C62.5304 42.4627 62.6104 42.4427 62.6904 42.4327C68.4604 42.2727 67.0804 39.7527 71.4804 39.7527C75.8704 39.7527 74.4804 42.3327 80.2704 42.4327C80.4204 42.4427 80.5604 42.5027 80.6704 42.6127C80.7804 42.7227 80.8404 42.8627 80.8404 43.0227V50.4627Z" fill="url(#paint2_linear)"/>
<path d="M71.5003 47.6128C72.5103 47.6128 73.4903 47.9828 74.2503 48.6528C75.0103 49.3128 75.5103 50.2328 75.6603 51.2328C75.6903 51.4028 75.7803 51.5528 75.9103 51.6528C76.0403 51.7628 76.2103 51.8128 76.3803 51.8128H78.4303C78.5303 51.8128 78.6303 51.7928 78.7203 51.7528C78.8103 51.7128 78.9003 51.6528 78.9703 51.5828C79.0403 51.5128 79.0903 51.4228 79.1303 51.3228C79.1603 51.2328 79.1803 51.1228 79.1703 51.0228C78.9703 49.1328 78.0703 47.3828 76.6603 46.1128C75.2503 44.8428 73.4103 44.1428 71.5103 44.1428C69.6103 44.1428 67.7803 44.8428 66.3603 46.1128C64.9503 47.3828 64.0503 49.1328 63.8503 51.0228C63.8403 51.1228 63.8503 51.2228 63.8903 51.3228C63.9203 51.4128 63.9803 51.5028 64.0503 51.5828C64.1203 51.6528 64.2003 51.7128 64.3003 51.7528C64.3903 51.7928 64.4903 51.8128 64.5903 51.8128H66.6403C66.8103 51.8128 66.9703 51.7628 67.1103 51.6528C67.2403 51.5428 67.3303 51.3928 67.3603 51.2328C67.5003 50.2328 68.0003 49.3128 68.7703 48.6528C69.5103 47.9828 70.4903 47.6128 71.5003 47.6128Z" fill="#C3F1FF"/>
<path d="M71.5002 54.6027C73.0402 54.6027 74.3002 53.3527 74.3002 51.8027C74.3002 50.2627 73.0502 49.0027 71.5002 49.0027C69.9602 49.0027 68.7002 50.2527 68.7002 51.8027C68.7002 53.3527 69.9502 54.6027 71.5002 54.6027Z" fill="white"/>
<path d="M81.7502 50.4027C81.7502 57.0927 73.6502 62.4827 71.8902 63.5827C71.7902 63.6427 71.6702 63.6827 71.5502 63.6827C71.4302 63.6827 71.3102 63.6527 71.2102 63.5827C69.3902 62.4827 61.2402 57.0827 61.2402 50.4027V42.3527C61.2402 42.1827 61.3102 42.0227 61.4202 41.9027C61.5402 41.7827 61.7002 41.7127 61.8702 41.7127C68.2302 41.5527 66.7802 38.7827 71.4902 38.7827C76.2102 38.7827 74.7602 41.5527 81.0502 41.7127C81.2202 41.7127 81.3802 41.7827 81.5002 41.9027C81.6202 42.0227 81.6802 42.1827 81.6802 42.3527L81.7502 50.4027Z" fill="#1B93EB"/>
<path d="M80.8404 50.4627C80.8404 56.6127 73.4204 61.5527 71.8004 62.5427C71.7104 62.6027 71.6004 62.6327 71.4904 62.6327C71.3804 62.6327 71.2704 62.6027 71.1804 62.5427C69.5704 61.5427 62.1404 56.6127 62.1404 50.4627V43.1427C62.1304 43.0627 62.1304 42.9727 62.1504 42.8927C62.1704 42.8127 62.2104 42.7327 62.2604 42.6627C62.3104 42.5927 62.3804 42.5427 62.4504 42.5027C62.5304 42.4627 62.6104 42.4427 62.6904 42.4327C68.4604 42.2727 67.0804 39.7527 71.4804 39.7527C75.8704 39.7527 74.4804 42.3327 80.2704 42.4327C80.4204 42.4427 80.5604 42.5027 80.6704 42.6127C80.7804 42.7227 80.8404 42.8627 80.8404 43.0227V50.4627Z" fill="url(#paint3_linear)"/>
<path d="M71.5003 47.6128C72.5103 47.6128 73.4903 47.9828 74.2503 48.6528C75.0103 49.3128 75.5103 50.2328 75.6603 51.2328C75.6903 51.4028 75.7803 51.5528 75.9103 51.6528C76.0403 51.7628 76.2103 51.8128 76.3803 51.8128H78.4303C78.5303 51.8128 78.6303 51.7928 78.7203 51.7528C78.8103 51.7128 78.9003 51.6528 78.9703 51.5828C79.0403 51.5128 79.0903 51.4228 79.1303 51.3228C79.1603 51.2328 79.1803 51.1228 79.1703 51.0228C78.9703 49.1328 78.0703 47.3828 76.6603 46.1128C75.2503 44.8428 73.4103 44.1428 71.5103 44.1428C69.6103 44.1428 67.7803 44.8428 66.3603 46.1128C64.9503 47.3828 64.0503 49.1328 63.8503 51.0228C63.8403 51.1228 63.8503 51.2228 63.8903 51.3228C63.9203 51.4128 63.9803 51.5028 64.0503 51.5828C64.1203 51.6528 64.2003 51.7128 64.3003 51.7528C64.3903 51.7928 64.4903 51.8128 64.5903 51.8128H66.6403C66.8103 51.8128 66.9703 51.7628 67.1103 51.6528C67.2403 51.5428 67.3303 51.3928 67.3603 51.2328C67.5003 50.2328 68.0003 49.3128 68.7703 48.6528C69.5103 47.9828 70.4903 47.6128 71.5003 47.6128Z" fill="#C3F1FF"/>
<path d="M71.5002 54.6027C73.0402 54.6027 74.3002 53.3527 74.3002 51.8027C74.3002 50.2627 73.0502 49.0027 71.5002 49.0027C69.9602 49.0027 68.7002 50.2527 68.7002 51.8027C68.7002 53.3527 69.9502 54.6027 71.5002 54.6027Z" fill="white"/>
<path fill-rule="evenodd" clip-rule="evenodd" d="M28.8703 47.0429C28.8703 47.6029 28.4103 48.0429 27.8503 48.0429C27.2803 48.0329 26.8203 47.5929 26.8203 47.0429C26.8203 46.4829 27.2803 46.0429 27.8403 46.0429C28.4103 46.0329 28.8703 46.4929 28.8703 47.0429Z" fill="#1F9CF0"/>
<path fill-rule="evenodd" clip-rule="evenodd" d="M28.8703 51.3927C28.8703 51.9527 28.4103 52.3927 27.8503 52.3927C27.2803 52.3827 26.8203 51.9327 26.8203 51.3927C26.8203 50.8327 27.2803 50.3927 27.8403 50.3927C28.4103 50.3827 28.8703 50.8327 28.8703 51.3927Z" fill="#0065A9"/>
<path fill-rule="evenodd" clip-rule="evenodd" d="M28.8703 55.5828C28.8703 56.1428 28.4103 56.5828 27.8503 56.5828C27.2803 56.5828 26.8203 56.1328 26.8203 55.5828C26.8203 55.0228 27.2803 54.5828 27.8403 54.5828C28.4103 54.5828 28.8703 55.0328 28.8703 55.5828Z" fill="#00527F"/>
<path fill-rule="evenodd" clip-rule="evenodd" d="M37.5297 56.5328H31.1897C30.8997 56.5328 30.6797 56.2628 30.6797 55.9328C30.6797 55.6028 30.9097 55.3328 31.1897 55.3328H37.5297C37.8197 55.3328 38.0397 55.6028 38.0397 55.9328C38.0397 56.2628 37.8097 56.5328 37.5297 56.5328Z" fill="#00527F"/>
<path fill-rule="evenodd" clip-rule="evenodd" d="M43.7398 56.5328H39.8398C39.4198 56.5328 39.0898 56.2628 39.0898 55.9328C39.0898 55.6028 39.4298 55.3328 39.8398 55.3328H43.7398C44.1598 55.3328 44.4898 55.6028 44.4898 55.9328C44.4898 56.2628 44.1598 56.5328 43.7398 56.5328Z" fill="#00527F"/>
<path fill-rule="evenodd" clip-rule="evenodd" d="M37.2799 47.3729H31.4199C30.9999 47.3729 30.6699 47.1029 30.6699 46.7729C30.6699 46.4429 31.0099 46.1729 31.4199 46.1729H37.2799C37.6999 46.1729 38.0299 46.4429 38.0299 46.7729C38.0299 47.1029 37.6899 47.3729 37.2799 47.3729Z" fill="#1F9CF0"/>
<path fill-rule="evenodd" clip-rule="evenodd" d="M37.5297 53.4529H31.2397C30.9297 53.4529 30.6797 53.1829 30.6797 52.8529C30.6797 52.5229 30.9297 52.2529 31.2397 52.2529H37.5297C37.8397 52.2529 38.0897 52.5229 38.0897 52.8529C38.0897 53.1829 37.8397 53.4529 37.5297 53.4529Z" fill="#0065A9"/>
<path fill-rule="evenodd" clip-rule="evenodd" d="M45.7598 53.4529H39.6498C39.3398 53.4529 39.0898 53.1829 39.0898 52.8529C39.0898 52.5229 39.3398 52.2529 39.6498 52.2529H45.7598C46.0698 52.2529 46.3198 52.5229 46.3198 52.8529C46.3098 53.1829 46.0598 53.4529 45.7598 53.4529Z" fill="#0065A9"/>
<path fill-rule="evenodd" clip-rule="evenodd" d="M31.3102 50.4727C30.9502 50.4727 30.6602 50.2027 30.6602 49.8727C30.6602 49.5427 30.9502 49.2727 31.3102 49.2727H37.4802C37.8402 49.2727 38.1302 49.5427 38.1302 49.8727C38.1302 50.2027 37.8402 50.4727 37.4802 50.4727H31.3102Z" fill="#007ACC"/>
<path d="M21.6001 45.5128C19.5201 45.3828 17.7201 46.9728 17.5901 49.0528C17.4601 51.1328 21.3501 56.2928 21.3501 56.2928C21.3501 56.2928 25.0101 51.6028 25.1401 49.5128C25.2801 47.4428 23.6901 45.6428 21.6001 45.5128Z" fill="#01BCF3"/>
<path d="M23.9903 49.4429C23.9003 50.8929 22.6603 51.9929 21.2103 51.9029C19.7603 51.8129 18.6603 50.5729 18.7503 49.1229C18.8403 47.6729 20.0803 46.5729 21.5303 46.6629C22.9803 46.7529 24.0803 47.9929 23.9903 49.4429Z" fill="#F2F2F2"/>
<path d="M39.6201 45.3829L39.6301 47.3829L42.2401 47.393L42.2301 45.0229L39.6201 45.3829Z" fill="#01BCF3"/>
<path d="M39.6299 47.6228L39.6399 49.6728L42.2299 50.0328L42.2199 47.6428L39.6299 47.6228Z" fill="#01BCF3"/>
<path d="M42.4902 47.6428L42.5002 50.0428L45.9802 50.5128L45.9702 47.6328L42.4902 47.6428Z" fill="#01BCF3"/>
<path d="M42.4805 44.9629L42.4905 47.3829L45.9705 47.3529L45.9605 44.4729L42.4805 44.9629Z" fill="#01BCF3"/>
<defs>
<linearGradient id="paint0_linear" x1="50.1407" y1="-13.4369" x2="54.1227" y2="132.334" gradientUnits="userSpaceOnUse">
<stop stop-color="#00ABDE"/>
<stop offset="1" stop-color="#007ED8"/>
</linearGradient>
<linearGradient id="paint1_linear" x1="3.34328" y1="-20.2718" x2="98.8713" y2="120.61" gradientUnits="userSpaceOnUse">
<stop stop-color="#007ED8"/>
<stop offset="0.7065" stop-color="#002D4C"/>
</linearGradient>
<linearGradient id="paint2_linear" x1="71.5032" y1="61.7868" x2="71.5032" y2="38.9557" gradientUnits="userSpaceOnUse">
<stop stop-color="#1B93EB"/>
<stop offset="0.21" stop-color="#2095EB"/>
<stop offset="0.44" stop-color="#2E9CED"/>
<stop offset="0.69" stop-color="#45A7EF"/>
<stop offset="0.95" stop-color="#64B6F1"/>
<stop offset="1" stop-color="#6BB9F2"/>
</linearGradient>
<linearGradient id="paint3_linear" x1="71.5032" y1="61.7868" x2="71.5032" y2="38.9557" gradientUnits="userSpaceOnUse">
<stop stop-color="#1B93EB"/>
<stop offset="0.21" stop-color="#2095EB"/>
<stop offset="0.44" stop-color="#2E9CED"/>
<stop offset="0.69" stop-color="#45A7EF"/>
<stop offset="0.95" stop-color="#64B6F1"/>
<stop offset="1" stop-color="#6BB9F2"/>
</linearGradient>
</defs>
</svg>
