<?xml version="1.0" encoding="UTF-8"?>
<svg width="100px" height="118px" viewBox="0 0 100 118" version="1.1" xmlns="http://www.w3.org/2000/svg" xmlns:xlink="http://www.w3.org/1999/xlink">
    <!-- Generator: Sketch 59 (86127) - https://sketch.com -->
    <title>Implement virtual machine host security in Azure/implement-virtual-machine-host-security-in-azure</title>
    <desc>Created with Sketch.</desc>
    <defs>
        <path d="M42.7425,1.49663266 C44.3745,0.498877554 46.1865,0 48,0 C49.8135,0 51.627,0.498877554 53.256,1.49663266 L90.591,24.3316189 C93.933,26.3773408 96,30.2031485 96,34.3529027 L96,79.6470973 C96,83.7952317 93.933,87.6242789 90.591,89.6683811 L53.256,112.504987 C51.627,113.501122 49.8135,114 48,114 C46.1865,114 44.3745,113.501122 42.7425,112.504987 L5.409,89.6683811 C2.0655,87.6242789 0,83.7952317 0,79.6470973 L0,34.3529027 C0,30.2031485 2.0655,26.3773408 5.409,24.3316189 L42.7425,1.49663266 Z" id="path-1"></path>
        <filter x="-6.2%" y="-6.2%" width="112.5%" height="112.3%" filterUnits="objectBoundingBox" id="filter-3">
            <feOffset dx="0" dy="2" in="SourceAlpha" result="shadowOffsetOuter1"></feOffset>
            <feColorMatrix values="0 0 0 0 0   0 0 0 0 0   0 0 0 0 0  0 0 0 0.0964956975 0" type="matrix" in="shadowOffsetOuter1" result="shadowMatrixOuter1"></feColorMatrix>
            <feMerge>
                <feMergeNode in="shadowMatrixOuter1"></feMergeNode>
                <feMergeNode in="SourceGraphic"></feMergeNode>
            </feMerge>
        </filter>
        <filter x="-13.3%" y="-9.1%" width="126.7%" height="118.2%" filterUnits="objectBoundingBox" id="filter-4">
            <feOffset dx="0" dy="2" in="SourceAlpha" result="shadowOffsetOuter1"></feOffset>
            <feColorMatrix values="0 0 0 0 0   0 0 0 0 0   0 0 0 0 0  0 0 0 0.0964956975 0" type="matrix" in="shadowOffsetOuter1" result="shadowMatrixOuter1"></feColorMatrix>
            <feMerge>
                <feMergeNode in="shadowMatrixOuter1"></feMergeNode>
                <feMergeNode in="SourceGraphic"></feMergeNode>
            </feMerge>
        </filter>
        <filter x="-22.2%" y="-20.8%" width="155.6%" height="145.5%" filterUnits="objectBoundingBox" id="filter-5">
            <feOffset dx="0" dy="2" in="SourceAlpha" result="shadowOffsetOuter1"></feOffset>
            <feColorMatrix values="0 0 0 0 0   0 0 0 0 0   0 0 0 0 0  0 0 0 0.104562953 0" type="matrix" in="shadowOffsetOuter1" result="shadowMatrixOuter1"></feColorMatrix>
            <feMerge>
                <feMergeNode in="shadowMatrixOuter1"></feMergeNode>
                <feMergeNode in="SourceGraphic"></feMergeNode>
            </feMerge>
        </filter>
    </defs>
    <g id="Badges" stroke="none" stroke-width="1" fill="none" fill-rule="evenodd">
        <g id="Implement-virtual-machine-host-security-in-Azure" transform="translate(-50.000000, -50.000000)">
            <g id="Implement-virtual-machine-host-security-in-Azure/implement-virtual-machine-host-security-in-azure" transform="translate(50.000000, 50.000000)">
                <g id="Mask" transform="translate(2.000000, 2.000000)">
                    <mask id="mask-2" fill="white">
                        <use xlink:href="#path-1"></use>
                    </mask>
                    <use id="Trophy-1" fill="#55A2FF" xlink:href="#path-1"></use>
                    <g id="Hosting/Storage/Network" filter="url(#filter-3)" mask="url(#mask-2)">
                        <g transform="translate(16.000000, 26.000000)">
                            <polygon id="Fill-454" fill="#182A37" points="29 24.001 35 24.001 35 16.001 29 16.001"></polygon>
                            <path d="M60,0 L4,0 C1.791,0 0,1.791 0,4 L0,14 C0,16.209 1.791,18 4,18 L60,18 C62.209,18 64,16.208 64,13.999 L64,3.999 C64,1.79 62.209,0 60,0" id="Fill-456" fill="#30404D"></path>
                            <path d="M14.586,10.363 C13.805,9.583 13.805,8.316 14.586,7.535 C15.366,6.754 16.634,6.755 17.414,7.535 C18.194,8.315 18.195,9.583 17.414,10.363 C16.634,11.144 15.366,11.144 14.586,10.363" id="Fill-457" fill="#EFB252"></path>
                            <path d="M8.593,10.381 C7.813,9.601 7.813,8.333 8.593,7.553 C9.374,6.772 10.641,6.773 11.422,7.553 C12.202,8.333 12.202,9.601 11.422,10.381 C10.641,11.162 9.373,11.162 8.593,10.381" id="Fill-458" fill="#EFB252"></path>
                            <path d="M32,4 L32,14 C32,15.105 31.105,16 30,16 L0.555,16 C1.248,17.191 2.523,18 4,18 L60,18 C62.209,18 64,16.208 64,13.999 L64,3.999 C64,3.267 63.789,2.59 63.446,2 L34,2 C32.895,2 32,2.895 32,4" id="Fill-459" fill="#182A37"></path>
                            <path d="M56,7 L44,7 C42.896,7 42,7.896 42,9 C42,10.103 42.896,11 44,11 L56,11 C57.104,11 58,10.103 58,9 C58,7.896 57.104,7 56,7" id="Fill-460" fill="#7CB65A"></path>
                            <path d="M44,8 L56,8 C56.93,8 57.706,8.639 57.929,9.5 C57.971,9.339 58,9.174 58,9 C58,7.896 57.104,7 56,7 L44,7 C42.896,7 42,7.896 42,9 C42,9.174 42.029,9.339 42.071,9.5 C42.294,8.639 43.07,8 44,8" id="Fill-461" fill="#69994E"></path>
                            <path d="M16.671,9.62 C16.02,10.271 15.033,10.371 14.27,9.936 C14.356,10.088 14.456,10.234 14.586,10.363 C15.366,11.144 16.634,11.144 17.414,10.363 C18.195,9.583 18.194,8.315 17.414,7.535 C17.285,7.405 17.139,7.306 16.987,7.219 C17.422,7.982 17.322,8.969 16.671,9.62" id="Fill-462" fill="#D8A34B"></path>
                            <path d="M10.715,9.602 C10.063,10.254 9.077,10.353 8.313,9.918 C8.4,10.07 8.5,10.216 8.629,10.345 C9.409,11.126 10.677,11.126 11.458,10.345 C12.238,9.565 12.238,8.297 11.458,7.517 C11.328,7.388 11.182,7.288 11.03,7.201 C11.465,7.964 11.366,8.951 10.715,9.602" id="Fill-463" fill="#D8A34B"></path>
                            <path d="M60,22 L4,22 C1.791,22 0,23.791 0,26 L0,36 C0,38.209 1.791,40 4,40 L60,40 C62.209,40 64,38.208 64,35.999 L64,25.999 C64,23.79 62.209,22 60,22" id="Fill-464" fill="#30404D"></path>
                            <path d="M14.586,32.363 C13.805,31.583 13.805,30.316 14.586,29.535 C15.366,28.754 16.634,28.755 17.414,29.535 C18.194,30.315 18.195,31.583 17.414,32.363 C16.634,33.144 15.366,33.144 14.586,32.363" id="Fill-465" fill="#EFB252"></path>
                            <path d="M8.593,32.381 C7.813,31.601 7.813,30.333 8.593,29.553 C9.374,28.772 10.641,28.773 11.422,29.553 C12.202,30.333 12.202,31.601 11.422,32.381 C10.641,33.162 9.373,33.162 8.593,32.381" id="Fill-466" fill="#EFB252"></path>
                            <path d="M32,26 L32,36 C32,37.105 31.105,38 30,38 L0.555,38 C1.248,39.191 2.523,40 4,40 L60,40 C62.209,40 64,38.208 64,35.999 L64,25.999 C64,25.267 63.789,24.59 63.446,24 L34,24 C32.895,24 32,24.895 32,26" id="Fill-467" fill="#182A37"></path>
                            <path d="M56,29 L44,29 C42.896,29 42,29.896 42,31 C42,32.103 42.896,33 44,33 L56,33 C57.104,33 58,32.103 58,31 C58,29.896 57.104,29 56,29" id="Fill-468" fill="#7CB65A"></path>
                            <path d="M44,30 L56,30 C56.93,30 57.706,30.639 57.929,31.5 C57.971,31.339 58,31.174 58,31 C58,29.896 57.104,29 56,29 L44,29 C42.896,29 42,29.896 42,31 C42,31.174 42.029,31.339 42.071,31.5 C42.294,30.639 43.07,30 44,30" id="Fill-469" fill="#69994E"></path>
                            <path d="M16.671,31.62 C16.02,32.271 15.033,32.371 14.27,31.936 C14.356,32.088 14.456,32.234 14.586,32.363 C15.366,33.144 16.634,33.144 17.414,32.363 C18.195,31.583 18.194,30.315 17.414,29.535 C17.285,29.405 17.139,29.306 16.987,29.219 C17.422,29.982 17.322,30.969 16.671,31.62" id="Fill-470" fill="#D8A34B"></path>
                            <path d="M10.715,31.602 C10.063,32.254 9.077,32.353 8.313,31.918 C8.4,32.07 8.5,32.216 8.629,32.345 C9.409,33.126 10.677,33.126 11.458,32.345 C12.238,31.565 12.238,30.297 11.458,29.517 C11.328,29.388 11.182,29.288 11.03,29.201 C11.465,29.964 11.366,30.951 10.715,31.602" id="Fill-471" fill="#D8A34B"></path>
                            <path d="M29,18 L29,19 L31,19 C31.552,19 32,19.448 32,20 L32,22 L35,22 L35,18 L29,18" id="Fill-472" fill="#12202B"></path>
                            <g id="Group-11" stroke-width="1" fill="none" transform="translate(9.000000, 38.000000)">
                                <path d="M44,23.001 L2,23.001 C0.895,23.001 0,22.105 0,21.001 C0,19.896 0.895,19.001 2,19.001 L44,19.001 C45.104,19.001 46,19.896 46,21.001 C46,22.105 45.104,23.001 44,23.001" id="Fill-453" fill="#182A37"></path>
                                <polygon id="Fill-455" fill="#182A37" points="20 21.001 26 21.001 26 0.001 20 0.001"></polygon>
                                <path d="M20,2 L20,3 L22,3 C22.552,3 23,3.448 23,4 L23,16 L26,16 L26,2 L20,2" id="Fill-473" fill="#12202B"></path>
                                <path d="M0,21.001 C0,22.105 0.896,23.001 2,23.001 L44,23.001 C45.104,23.001 46,22.105 46,21.001 L46,21 L0,21 L0,21.001" id="Fill-474" fill="#12202B"></path>
                                <path d="M31,25.001 C31,25.551 30.55,26.001 30,26.001 L16,26.001 C15.45,26.001 15,25.551 15,25.001 L15,17.001 C15,16.451 15.45,16.001 16,16.001 L30,16.001 C30.55,16.001 31,16.451 31,17.001 L31,25.001" id="Fill-475" fill="#30404D"></path>
                                <path d="M30,16.001 L23,16.001 L23,22 C23,23.105 22.105,24 21,24 L15,24 L15,25.001 C15,25.551 15.45,26.001 16,26.001 L30,26.001 C30.55,26.001 31,25.551 31,25.001 L31,17.001 C31,16.451 30.55,16.001 30,16.001" id="Fill-476" fill="#182A37"></path>
                            </g>
                        </g>
                    </g>
                    <g id="Square-Lock" filter="url(#filter-4)" mask="url(#mask-2)">
                        <g transform="translate(33.000000, 55.000000)">
                            <g id="Lower" transform="translate(0.000000, 14.444444)">
                                <path d="M29.806847,26.201256 C29.806847,27.6915983 28.587476,28.9109693 27.0971336,28.9109693 L2.70971336,28.9109693 C1.21937101,28.9109693 0,27.6915983 0,26.201256 L0,5.87840577 L29.806847,5.87840577 L29.806847,26.201256" id="Fill-53" fill="#30404D"></path>
                                <path d="M29.806847,5.87840577 C29.806847,7.36874812 28.587476,8.58811913 27.0971336,8.58811913 L2.70971336,8.58811913 C1.21937101,8.58811913 0,7.36874812 0,5.87840577 L0,3.16869241 C0,1.67835006 1.21937101,0.458979047 2.70971336,0.458979047 L27.0971336,0.458979047 C28.587476,0.458979047 29.806847,1.67835006 29.806847,3.16869241 L29.806847,5.87840577" id="Fill-54" fill="#546670"></path>
                                <path d="M27.0971336,9.26554747 L16.2582802,9.26554747 C15.5097219,9.26554747 14.9034235,9.87184584 14.9034235,10.6204042 L14.9034235,26.201256 C14.9034235,26.9498143 14.2971251,27.5561127 13.5485668,27.5561127 L2.70971336,27.5561127 C1.21937101,27.5561127 0,26.3367417 0,24.8463993 L0,26.201256 C0,27.6915983 1.21937101,28.9109693 2.70971336,28.9109693 L27.0971336,28.9109693 C28.587476,28.9109693 29.806847,27.6915983 29.806847,26.201256 L29.806847,6.55583411 C29.806847,8.04617646 28.587476,9.26554747 27.0971336,9.26554747" id="Fill-55" fill="#182A37"></path>
                                <path d="M8.80656843,4.52354909 C8.80656843,5.64537042 7.59329427,6.55583411 6.09685506,6.55583411 C4.60041586,6.55583411 3.3871417,5.64537042 3.3871417,4.52354909 C3.3871417,3.40172776 4.60041586,2.49126407 6.09685506,2.49126407 C7.59329427,2.49126407 8.80656843,3.40172776 8.80656843,4.52354909" id="Fill-60" fill="#182A37"></path>
                                <path d="M26.4197053,4.52354909 C26.4197053,5.64537042 25.2064311,6.55583411 23.7099919,6.55583411 C22.2135527,6.55583411 21.0002786,5.64537042 21.0002786,4.52354909 C21.0002786,3.40172776 22.2135527,2.49126407 23.7099919,2.49126407 C25.2064311,2.49126407 26.4197053,3.40172776 26.4197053,4.52354909" id="Fill-61" fill="#182A37"></path>
                            </g>
                            <g id="Top" transform="translate(4.064570, 0.000000)">
                                <path d="M10.8388534,0 C4.86258063,0 0,4.86258063 0,10.8388534 L0,20.2991402 C0.496554974,20.7252426 1.21801616,21.0002786 2.03228502,21.0002786 C2.84655389,21.0002786 3.56801507,20.7252426 4.06457004,20.2991402 L4.06457004,10.8388534 C4.06457004,7.10351358 7.10351358,4.06457004 10.8388534,4.06457004 C14.5741933,4.06457004 17.6131369,7.10351358 17.6131369,10.8388534 L17.6131369,18.9679935 C17.6131369,19.7158744 18.5229231,20.3228502 19.6454219,20.3228502 C20.7679206,20.3228502 21.6777069,19.7158744 21.6777069,18.9679935 L21.6777069,10.8388534 C21.6777069,4.86258063 16.8151263,0 10.8388534,0" id="Fill-63" fill="#F5F8F5"></path>
                                <path d="M6.95312449,4.57873815 C4.33892852,5.6721075 2.70971336,8.31814259 2.70971336,11.1518253 L2.70971336,18.0859818 C2.70971336,18.9720581 1.86902479,19.6332282 1.01478765,19.3981605 C0.589362656,19.2809654 0.212035071,19.1265118 0,18.9442835 L0,20.2991402 C0.496554974,20.7252426 1.21801616,21.0002786 2.03228502,21.0002786 C2.26803008,21.0002786 2.49293629,20.9711491 2.70971336,20.9284712 C2.84655389,20.9020514 2.97865241,20.8668252 3.10600894,20.825502 C3.17171949,20.8038243 3.23268804,20.7767272 3.29501145,20.7516624 C3.38849656,20.7137264 3.47927196,20.6730807 3.56598278,20.627693 C3.61272534,20.6026281 3.6594679,20.5789181 3.70417817,20.551821 C3.83356698,20.4745942 3.95618151,20.3926253 4.06457004,20.2991402 L4.06457004,10.8388534 C4.06457004,7.33180693 6.7431217,4.44054277 10.1614251,4.09911889 C9.14392774,3.99614978 8.06342954,4.11402231 6.95312449,4.57873815" id="Fill-64" fill="#C5CCCD"></path>
                                <path d="M10.8388534,0 C10.6105601,0 10.3870087,0.0196454219 10.1614251,0.0345488454 C15.8220163,0.386811582 20.3228502,5.09155141 20.3228502,10.8388534 L20.3228502,18.0859818 C20.3228502,18.9720581 19.4821616,19.6332282 18.6279245,19.3981605 C18.2024995,19.2809654 17.8251719,19.1265118 17.6131369,18.9442835 L17.6131369,20.2991402 C18.1096918,20.7252426 18.8318304,21.0002786 19.6454219,21.0002786 C20.4596907,21.0002786 21.1811519,20.7252426 21.6777069,20.2991402 L21.6777069,10.8388534 C21.6777069,4.86258063 16.8151263,0 10.8388534,0" id="Fill-65" fill="#C5CCCD"></path>
                            </g>
                        </g>
                    </g>
                    <g id="Virtual-Machine-Gift" filter="url(#filter-5)" mask="url(#mask-2)">
                        <g transform="translate(39.000000, 78.000000)">
                            <circle id="Bulb" fill="#30404D" opacity="0.100000001" cx="8.90141494" cy="9.99457116" r="7.82573877"></circle>
                            <polygon id="Front-Copy-4" fill="#362D56" points="7.11357212 16.8001384 5.2625162 17.7853625 3.4007699 16.6997374 5.13392227 15.6884025"></polygon>
                            <polygon id="Front-Copy-6" fill="#362D56" points="14.2463945 2.63943942 14.2463945 5.24432965 12.3877172 4.15891371 12.3877172 1.60072949"></polygon>
                            <polygon id="Front-Copy-4" fill="#362D56" points="10.5203305 16.8001384 12.4999803 15.6884025 14.2331327 16.6997374 12.3713864 17.7853625"></polygon>
                            <polygon id="Front-Copy-6" fill="#362D56" points="3.38750815 2.63943942 5.24618544 1.60072949 5.24618544 4.15891371 3.38750815 5.24432965"></polygon>
                            <g id="Cube" stroke-width="1" fill="none" transform="translate(0.022807, 0.121322)">
                                <g id="Right" transform="translate(9.096514, 5.550415)">
                                    <path d="M4.89365604,1.58537907 L1.10722542,3.7376067 C0.450576881,4.11084928 0.0449537403,4.80797738 0.0449537403,5.56329011 L0.0449537403,9.74485649 C0.0449537403,10.9046545 0.985155766,11.8448565 2.14495374,11.8448565 C2.51666085,11.8448565 2.88170777,11.746196 3.20280882,11.558952 L6.54260591,9.6114133 C7.46448005,9.07384005 8.03138436,8.08701128 8.03138436,7.01984825 L8.03138436,3.41106248 C8.03138436,2.25126451 7.09118234,1.31106248 5.93138436,1.31106248 C5.56755226,1.31106248 5.20996187,1.40558913 4.89365604,1.58537907 Z" id="Back" fill="#50398A"></path>
                                    <path d="M5.1753737,1.75042448 L1.38894308,3.90265212 C0.732294542,4.27589469 0.326671402,4.9730228 0.326671402,5.72833553 L0.326671402,9.90990191 C0.326671402,11.0696999 1.26687343,12.0099019 2.4266714,12.0099019 C2.79837851,12.0099019 3.16342543,11.9112414 3.48452648,11.7239974 L6.82432357,9.77645872 C7.74619771,9.23888546 8.31310203,8.25205669 8.31310203,7.18489366 L8.31310203,3.5761079 C8.31310203,2.41630992 7.3729,1.4761079 6.21310203,1.4761079 C5.84926992,1.4761079 5.49167953,1.57063454 5.1753737,1.75042448 Z" id="Front" fill="#6D56A6"></path>
                                </g>
                                <g id="Left" transform="translate(0.154178, 5.550415)">
                                    <path d="M0.409386015,3.41116799 L0.409386015,7.01447005 C0.409386015,8.08096079 0.975582175,9.06727335 1.89653817,9.60508608 L5.38729458,11.6435909 C6.34113306,12.2006061 7.56592197,11.8789173 8.12293716,10.9250788 C8.30167135,10.6190125 8.39585981,10.2709462 8.39585981,9.91651356 L8.39585981,5.56340853 C8.39585981,4.80809405 7.99023481,4.11096462 7.33358389,3.73772271 L3.5471101,1.58548217 C2.53881166,1.01236298 1.25681938,1.36514547 0.68370019,2.37344391 C0.503911801,2.68974872 0.409386015,3.04733754 0.409386015,3.41116799 Z" id="Back" fill="#684DAB"></path>
                                    <path d="M0.110821926,3.58284355 L0.110821926,7.18614561 C0.110821926,8.25263635 0.677018085,9.23894891 1.59797408,9.77676164 L5.08873049,11.8152665 C6.04256897,12.3722817 7.26735788,12.0505928 7.82437307,11.0967544 C8.00310726,10.7906881 8.09729572,10.4426217 8.09729572,10.0881891 L8.09729572,5.73508409 C8.09729572,4.97976961 7.69167072,4.28264018 7.0350198,3.90939827 L3.24854601,1.75715773 C2.24024757,1.18403854 0.958255286,1.53682103 0.385136101,2.54511947 C0.205347712,2.86142428 0.110821926,3.2190131 0.110821926,3.58284355 Z" id="Front" fill="#8066C0"></path>
                                </g>
                                <g id="Top" transform="translate(0.983426, 0.000000)">
                                    <path d="M2.02693016,5.99329934 L6.46984004,8.52079096 C7.32794544,9.00895171 8.37971104,9.00914112 9.23799221,8.52128946 L13.6741786,5.99973715 C14.3463766,5.61765614 14.581563,4.76299407 14.199482,4.090796 C14.07257,3.8675188 13.8866854,3.68345411 13.6621704,3.55874502 L8.78987045,0.852377577 C8.18298871,0.515279082 7.44470812,0.517001664 6.83940604,0.856928468 L2.03367297,3.55574208 C1.35950768,3.93434123 1.11990398,4.78777543 1.49850313,5.46194071 C1.62308841,5.68378767 1.80577586,5.86748863 2.02693016,5.99329934 Z" id="Back" fill="#7454B8"></path>
                                    <path d="M2.02693016,5.68494295 L6.46984004,8.21243456 C7.32794544,8.70059531 8.37971104,8.70078472 9.23799221,8.21293306 L13.6741786,5.69138076 C14.3463766,5.30929974 14.581563,4.45463767 14.199482,3.7824396 C14.07257,3.55916241 13.8866854,3.37509772 13.6621704,3.25038862 L8.78987045,0.544021182 C8.18298871,0.206922688 7.44470812,0.208645269 6.83940604,0.548572073 L2.03367297,3.24738568 C1.35950768,3.62598483 1.11990398,4.47941903 1.49850313,5.15358432 C1.62308841,5.37543128 1.80577586,5.55913223 2.02693016,5.68494295 Z" id="Front" fill="#A684D3"></path>
                                </g>
                            </g>
                        </g>
                    </g>
                </g>
                <g id="Azure-Hex-Border" stroke="#0078D4" stroke-width="4">
                    <path d="M45.5618501,3.25844398 L45.5621963,3.25823359 L6.67338401,26.8942953 C3.79673288,28.6432593 2,31.9508238 2,35.5582677 L2,82.4417323 C2,86.0486597 3.79764663,89.3586805 6.67318764,91.1055853 L45.560618,114.742485 C46.9289662,115.572418 48.4546283,116 50,116 C51.5458817,116 53.0723633,115.572188 54.4362178,114.743457 L93.3268764,91.1055464 C96.2016145,89.3583456 98,86.0476286 98,82.4417323 L98,35.5582677 C98,31.9518547 96.202529,28.6435953 93.3268966,26.8944659 L54.4351916,3.25759524 C53.0721095,2.42798656 51.5462432,2 50,2 C48.4542664,2 46.9292165,2.42775755 45.5618501,3.25844398 Z"></path>
                </g>
            </g>
        </g>
    </g>
</svg>