<svg width="19" height="13" viewBox="0 0 19 13" fill="none" xmlns="http://www.w3.org/2000/svg">
<path d="M9.49989 9.4525C11.1966 9.4525 12.5721 8.13145 12.5721 6.50185C12.5721 4.87226 11.1966 3.55121 9.49989 3.55121C7.80319 3.55121 6.42773 4.87226 6.42773 6.50185C6.42773 8.13145 7.80319 9.4525 9.49989 9.4525Z" fill="#D83B01"/>
<path d="M5.00242 11.0491C3.68967 9.84791 2.96338 8.23643 2.96338 6.50185C2.96338 4.76728 3.68578 3.1558 5.00242 1.95465L5.80639 2.76412C4.72667 3.74891 4.13243 5.07689 4.13243 6.50185C4.13243 7.92682 4.72667 9.25106 5.80639 10.2396L5.00242 11.0491Z" fill="#D83B01"/>
<path d="M13.9973 11.0491L13.1934 10.2359C14.2731 9.25108 14.8712 7.9231 14.8712 6.49814C14.8712 5.07317 14.277 3.74893 13.1934 2.7604L13.9973 1.9472C15.314 3.14462 16.0364 4.75983 16.0364 6.49441C16.0364 8.22898 15.314 9.84419 13.9973 11.0416V11.0491Z" fill="#D83B01"/>
<path d="M2.73038 12.8993C0.970973 11.1833 0 8.91161 0 6.50186C0 4.0921 0.970973 1.82036 2.73038 0.100708L3.56153 0.887796C2.01574 2.39483 1.16517 4.38679 1.16517 6.50186C1.16517 8.61692 2.01574 10.6089 3.56153 12.1159L2.73038 12.903V12.8993Z" fill="#D83B01"/>
<path d="M16.2657 12.8993L15.4346 12.1122C16.9804 10.6052 17.8309 8.60947 17.8309 6.49813C17.8309 4.3868 16.9804 2.3911 15.4346 0.884072L16.2657 0.0969849C18.029 1.81664 18.9961 4.08838 18.9961 6.49813C18.9961 8.90789 18.0251 11.1796 16.2657 12.8993Z" fill="#D83B01"/>
<path d="M16.1647 13L15.3452 12.2017L15.4384 12.1159L16.2696 12.8993L16.1647 13Z" fill="#D83B01"/>
<path d="M15.4384 0.884075L15.3452 0.798278L16.1647 0L16.2696 0.100717L15.4384 0.884075Z" fill="#D83B01"/>
<path d="M2.83533 13L2.73047 12.8993L3.56162 12.1159L3.65095 12.2017L2.83533 13Z" fill="#D83B01"/>
</svg>
