<svg width="103" height="103" viewBox="0 0 103 103" fill="none" xmlns="http://www.w3.org/2000/svg">
<path d="M51.3369 98.6298C25.4869 98.6298 4.52692 77.6798 4.52692 51.8198C4.52692 25.9598 25.4869 5.00977 51.3369 5.00977C77.1869 5.00977 98.1469 25.9698 98.1469 51.8198C98.1469 77.6698 77.1869 98.6298 51.3369 98.6298Z" fill="url(#paint0_linear)"/>
<path fill-rule="evenodd" clip-rule="evenodd" d="M97.2369 51.8197C97.2369 77.1697 76.6869 97.7197 51.3369 97.7197C25.9869 97.7197 5.4369 77.1697 5.4369 51.8197C5.4369 26.4697 25.9869 5.91969 51.3369 5.91969C76.6869 5.91969 97.2369 26.4697 97.2369 51.8197ZM51.3369 2.17969C78.7569 2.17969 100.977 24.3997 100.977 51.8197C100.977 79.2397 78.7469 101.46 51.3369 101.46C23.9169 101.46 1.6969 79.2297 1.6969 51.8197C1.6969 24.3997 23.9169 2.17969 51.3369 2.17969Z" fill="#F2F1F0"/>
<path fill-rule="evenodd" clip-rule="evenodd" d="M94.4269 51.8197C94.4269 75.6197 75.1369 94.9097 51.3369 94.9097C27.5369 94.9097 8.2469 75.6197 8.2469 51.8197C8.2469 28.0197 27.5369 8.72975 51.3369 8.72975C75.1369 8.72975 94.4269 28.0197 94.4269 51.8197ZM51.3369 4.98975C77.1969 4.98975 98.1669 25.9597 98.1669 51.8197C98.1669 77.6797 77.1969 98.6497 51.3369 98.6497C25.4769 98.6497 4.5069 77.6797 4.5069 51.8197C4.5069 25.9597 25.4669 4.98975 51.3369 4.98975Z" fill="url(#paint1_linear)"/>
<path opacity="0.15" fill-rule="evenodd" clip-rule="evenodd" d="M40.0469 76.5197C40.0469 77.5797 39.1769 78.4497 38.1169 78.4497H20.7369C19.6769 78.4597 18.8069 77.5797 18.8069 76.5197V74.5897C18.8069 73.5297 19.6769 72.6597 20.7369 72.6597H38.1269C39.1869 72.6597 40.0569 73.5297 40.0569 74.5897V76.5197H40.0469Z" fill="#1F1D20"/>
<path d="M82.957 27.1396H31.757C31.407 27.1396 31.127 27.4196 31.127 27.7696V62.6796C31.127 63.0296 31.407 63.3097 31.757 63.3097H82.957C83.307 63.3097 83.587 63.0296 83.587 62.6796V27.7696C83.587 27.4296 83.307 27.1396 82.957 27.1396Z" fill="url(#paint2_linear)"/>
<path d="M68.2369 74.6696C62.8769 73.7996 62.6569 69.7896 62.6569 63.3296H52.0169C52.0169 69.8096 51.8369 73.7996 46.4669 74.6696C44.9269 74.8496 43.7669 76.1896 43.7769 77.7896H70.9069C70.9369 76.1896 69.7869 74.8396 68.2369 74.6696Z" fill="url(#paint3_linear)"/>
<path opacity="0.15" d="M63.0369 35.6299C59.2969 35.6299 56.2569 38.6599 56.2569 42.3999C56.2569 43.6499 56.5969 44.8299 57.1869 45.8299L46.6169 56.3699V58.8199H49.0669H50.2269V56.3999H50.1469L50.1669 56.3799H52.7069V53.9699H55.1569L55.1469 51.4599H57.5869V51.3899L60.3469 48.6299C61.1669 48.9899 62.0769 49.1899 63.0369 49.1899C66.7769 49.1899 69.8169 46.1599 69.8169 42.4199C69.8169 38.6599 66.7769 35.6299 63.0369 35.6299ZM65.5069 41.8099C64.4969 41.8099 63.6769 40.9899 63.6769 39.9799C63.6769 38.9699 64.4969 38.1499 65.5069 38.1499C66.5169 38.1499 67.3369 38.9699 67.3369 39.9799C67.3369 40.9899 66.5169 41.8099 65.5069 41.8099Z" fill="#1F1D20"/>
<path d="M63.0369 33.9297C59.2969 33.9297 56.2569 36.9597 56.2569 40.6997C56.2569 41.9497 56.5969 43.1297 57.1869 44.1297L46.6169 54.6697V57.1197H49.0669H50.2269V54.6997H50.1469L50.1669 54.6797H52.7069V52.2697H55.1569L55.1469 49.7597H57.5869V49.6897L60.3469 46.9297C61.1669 47.2897 62.0769 47.4897 63.0369 47.4897C66.7769 47.4897 69.8169 44.4597 69.8169 40.7197C69.8169 36.9597 66.7769 33.9297 63.0369 33.9297ZM65.5069 40.1097C64.4969 40.1097 63.6769 39.2897 63.6769 38.2797C63.6769 37.2697 64.4969 36.4497 65.5069 36.4497C66.5169 36.4497 67.3369 37.2697 67.3369 38.2797C67.3369 39.2897 66.5169 40.1097 65.5069 40.1097Z" fill="#F5F8F5"/>
<path fill-rule="evenodd" clip-rule="evenodd" d="M40.0469 75.51C40.0469 76.57 39.1769 77.44 38.1169 77.44H20.7369C19.6769 77.44 18.8069 76.57 18.8069 75.51V61.02H40.0469V75.51V75.51Z" fill="#30404D"/>
<path fill-rule="evenodd" clip-rule="evenodd" d="M40.0469 61.0202C40.0469 62.0802 39.1769 62.9502 38.1169 62.9502H20.7369C19.6769 62.9602 18.8069 62.0802 18.8069 61.0202V59.0902C18.8069 58.0302 19.6769 57.1602 20.7369 57.1602H38.1269C39.1869 57.1602 40.0569 58.0302 40.0569 59.0902V61.0202H40.0469Z" fill="#546670"/>
<path fill-rule="evenodd" clip-rule="evenodd" d="M38.1169 63.44H30.3869C29.8569 63.44 29.4169 63.87 29.4169 64.41V75.52C29.4169 76.05 28.9869 76.49 28.4469 76.49H20.7369C19.6769 76.49 18.8069 75.62 18.8069 74.55V75.52C18.8069 76.58 19.6769 77.45 20.7369 77.45H38.1269C39.1869 77.45 40.0569 76.58 40.0569 75.52V61.52C40.0469 62.57 39.1769 63.44 38.1169 63.44Z" fill="#182A37"/>
<path fill-rule="evenodd" clip-rule="evenodd" d="M29.4269 65.8599C27.1169 65.8599 25.2269 67.7399 25.2269 70.0599C25.2269 72.3699 27.1069 74.2599 29.4269 74.2599C31.7469 74.2599 33.6269 72.3799 33.6269 70.0599C33.6169 67.7399 31.7369 65.8599 29.4269 65.8599Z" fill="#ADBDC4"/>
<path fill-rule="evenodd" clip-rule="evenodd" d="M25.0869 60.0599C25.0869 60.8599 24.2169 61.5099 23.1569 61.5099C22.0969 61.5099 21.2269 60.8599 21.2269 60.0599C21.2269 59.2599 22.0969 58.6099 23.1569 58.6099C24.2169 58.6099 25.0869 59.2599 25.0869 60.0599Z" fill="#182A37"/>
<path fill-rule="evenodd" clip-rule="evenodd" d="M37.6369 60.0599C37.6369 60.8599 36.7669 61.5099 35.7069 61.5099C34.6469 61.5099 33.7769 60.8599 33.7769 60.0599C33.7769 59.2599 34.6469 58.6099 35.7069 58.6099C36.7669 58.6099 37.6369 59.2599 37.6369 60.0599Z" fill="#182A37"/>
<path fill-rule="evenodd" clip-rule="evenodd" d="M29.4269 46.54C25.1669 46.54 21.6969 50.01 21.6969 54.27V61.01C22.0469 61.31 22.5669 61.51 23.1469 61.51C23.7269 61.51 24.2469 61.31 24.5969 61.01V54.27C24.5969 51.61 26.7669 49.44 29.4269 49.44C32.0869 49.44 34.2569 51.61 34.2569 54.27V60.06C34.2569 60.59 34.9069 61.03 35.7069 61.03C36.5069 61.03 37.1569 60.59 37.1569 60.06V54.27C37.1469 50 33.6869 46.54 29.4269 46.54Z" fill="#F5F8F5"/>
<path fill-rule="evenodd" clip-rule="evenodd" d="M26.6569 49.8C24.7969 50.58 23.6369 52.47 23.6369 54.48V59.42C23.6369 60.05 23.0369 60.52 22.4269 60.36C22.1269 60.28 21.8569 60.17 21.7069 60.04V61.01C22.0569 61.31 22.5769 61.51 23.1569 61.51C23.3269 61.51 23.4869 61.49 23.6369 61.46C23.7369 61.44 23.8269 61.42 23.9169 61.39C23.9569 61.38 24.0069 61.36 24.0469 61.34C24.1069 61.31 24.1769 61.28 24.2369 61.25C24.2669 61.23 24.2969 61.22 24.3369 61.2C24.4269 61.14 24.5169 61.08 24.5969 61.02V54.27C24.5969 51.77 26.5069 49.71 28.9369 49.46C28.2169 49.38 27.4469 49.47 26.6569 49.8Z" fill="#C5CCCD"/>
<path fill-rule="evenodd" clip-rule="evenodd" d="M29.4269 46.54C29.2669 46.54 29.1069 46.55 28.9469 46.57C32.9869 46.82 36.1869 50.17 36.1869 54.27V59.43C36.1869 60.06 35.5869 60.53 34.9769 60.37C34.6769 60.29 34.4069 60.18 34.2569 60.05V61.02C34.6069 61.32 35.1269 61.52 35.7069 61.52C36.2869 61.52 36.8069 61.32 37.1569 61.02V54.27C37.1469 50 33.6869 46.54 29.4269 46.54Z" fill="#C5CCCD"/>
<defs>
<linearGradient id="paint0_linear" x1="49.567" y1="-12.9698" x2="53.549" y2="132.801" gradientUnits="userSpaceOnUse">
<stop stop-color="#00ABDE"/>
<stop offset="1" stop-color="#007ED8"/>
</linearGradient>
<linearGradient id="paint1_linear" x1="2.7702" y1="-19.8051" x2="98.2982" y2="121.077" gradientUnits="userSpaceOnUse">
<stop stop-color="#007ED8"/>
<stop offset="0.7065" stop-color="#002D4C"/>
</linearGradient>
<linearGradient id="paint2_linear" x1="57.3574" y1="27.3864" x2="57.3574" y2="63.3207" gradientUnits="userSpaceOnUse">
<stop stop-color="#007ED8"/>
<stop offset="0.7065" stop-color="#002D4C"/>
</linearGradient>
<linearGradient id="paint3_linear" x1="57.3439" y1="77.7974" x2="57.3439" y2="63.3352" gradientUnits="userSpaceOnUse">
<stop offset="0.15" stop-color="#CCCCCC"/>
<stop offset="1" stop-color="#707070"/>
</linearGradient>
</defs>
</svg>
