<?xml version="1.0" encoding="UTF-8" standalone="no"?>
<!DOCTYPE svg PUBLIC "-//W3C//DTD SVG 1.1//EN" "http://www.w3.org/Graphics/SVG/1.1/DTD/svg11.dtd">
<!-- Generated by Microsoft Visio, SVG Export identity-access-enterprise-tier.svg Page-1 -->
<svg xmlns="http://www.w3.org/2000/svg" xmlns:xlink="http://www.w3.org/1999/xlink" xmlns:ev="http://www.w3.org/2001/xml-events"
		xmlns:v="http://schemas.microsoft.com/visio/2003/SVGExtensions/" width="17.0278in" height="8.65278in"
		viewBox="0 0 1226 623" xml:space="preserve" color-interpolation-filters="sRGB" class="st32">
	<v:documentProperties v:langID="1033" v:viewMarkup="false"/>

	<style type="text/css">
	<![CDATA[
		.st1 {fill:#ffffff;stroke:none;stroke-width:1}
		.st2 {fill:#ffffff;stroke:none;stroke-linecap:round;stroke-linejoin:round;stroke-width:0.75}
		.st3 {fill:none}
		.st4 {stroke:#999999;stroke-width:1}
		.st5 {fill:#0078d4;stroke:#0078d4;stroke-width:1}
		.st6 {fill:#ffffff;font-family:Segoe UI Semibold;font-size:1.16666em}
		.st7 {font-size:1em}
		.st8 {fill:none;stroke:none;stroke-linecap:round;stroke-linejoin:round;stroke-width:0.75}
		.st9 {fill:#0078d4;font-family:Segoe UI Semibold;font-size:1.16666em}
		.st10 {fill:#000000;font-family:Segoe UI Semibold;font-size:1.16666em}
		.st11 {fill:#0070c0;font-family:Segoe UI Semibold;font-size:1.16666em}
		.st12 {stroke:#bfbfbf;stroke-width:1}
		.st13 {visibility:visible}
		.st14 {fill:#000000;fill-opacity:0.098;filter:url(#filter_2);stroke:none}
		.st15 {fill:#cce9fe;stroke:none;stroke-width:1}
		.st16 {fill:#000000;font-family:Segoe UI;font-size:0.874992em}
		.st17 {stroke:#cce9fe;stroke-width:6}
		.st18 {font-family:Segoe UI Semibold;font-size:1em}
		.st19 {font-size:1em;font-style:italic}
		.st20 {stroke:#cce9fe;stroke-linecap:round;stroke-linejoin:round;stroke-width:6}
		.st21 {fill:#0078d4;stroke:none;stroke-width:0.25}
		.st22 {fill:#8dc8e8;stroke:none;stroke-width:0.25}
		.st23 {font-size:1em;font-weight:bold}
		.st24 {fill:#000000;font-family:Segoe UI;font-size:0.833336em}
		.st25 {fill:#000000;font-family:Segoe UI;font-size:0.833336em;font-weight:bold}
		.st26 {font-size:1em;font-weight:normal}
		.st27 {fill:#000000;font-family:Segoe UI;font-size:0.75em}
		.st28 {fill:#000000;font-family:Segoe UI Semibold;font-size:0.833336em}
		.st29 {font-family:Calibri;font-size:1em}
		.st30 {fill:#00b050;stroke:#00b050;stroke-width:1}
		.st31 {fill:none;stroke:#ee0000;stroke-width:2.25}
		.st32 {fill:none;fill-rule:evenodd;font-size:12px;overflow:visible;stroke-linecap:square;stroke-miterlimit:3}
	]]>
	</style>

	<defs id="Filters">
		<filter id="filter_2">
			<feGaussianBlur stdDeviation="2"/>
		</filter>
	</defs>
	<g v:mID="0" v:index="1" v:groupContext="foregroundPage">
		<v:userDefs>
			<v:ud v:nameU="visNavType" v:val="VT0(1):26"/>
		</v:userDefs>
		<title>Page-1</title>
		<v:pageProperties v:drawingScale="1" v:pageScale="1" v:drawingUnits="19" v:shadowOffsetX="9" v:shadowOffsetY="-9"/>
		<v:layer v:name="Shapes" v:index="0" v:glue="false"/>
		<v:layer v:name="Connector" v:index="1"/>
		<v:layer v:name="Text" v:index="2" v:glue="false"/>
		<v:layer v:name="Icons" v:index="3" v:glue="false"/>
		<g id="shape1972-1" v:mID="1972" v:groupContext="shape" transform="translate(1,-1)">
			<title>Sheet.1972</title>
			<v:userDefs>
				<v:ud v:nameU="visNavOrder" v:val="VT0(218000):26"/>
			</v:userDefs>
			<rect x="0" y="2" width="1224" height="621" rx="4.5" ry="4.5" class="st1"/>
		</g>
		<g id="shape2006-3" v:mID="2006" v:groupContext="shape" transform="translate(41.5,-64)">
			<title>Sheet.2006</title>
			<v:userDefs>
				<v:ud v:nameU="visNavOrder" v:prompt="" v:val="VT0(206000):26"/>
			</v:userDefs>
			<rect x="0" y="461" width="1152" height="162" class="st2"/>
		</g>
		<g id="shape1885-5" v:mID="1885" v:groupContext="shape" transform="translate(46,-389.054)">
			<title>Sheet.1885</title>
			<v:userDefs>
				<v:ud v:nameU="visNavOrder" v:prompt="" v:val="VT0(151000):26"/>
			</v:userDefs>
			<rect x="0" y="461" width="1143" height="162" class="st2"/>
		</g>
		<g id="shape1680-7" v:mID="1680" v:groupContext="shape" v:layerMember="0" transform="translate(37,-5.536)">
			<title>Sheet.1680</title>
			<v:userDefs>
				<v:ud v:nameU="visNavOrder" v:val="VT0(14000):26"/>
			</v:userDefs>
			<rect x="0" y="18.9848" width="1152" height="604.015" class="st2"/>
		</g>
		<g id="shape1682-9" v:mID="1682" v:groupContext="shape" v:layerMember="1" transform="translate(173.001,-308.052)">
			<title>Arrow 1 - gray.3208</title>
			<v:userDefs>
				<v:ud v:nameU="visNavOrder" v:prompt="" v:val="VT0(6000):26"/>
			</v:userDefs>
			<path d="M0 623 L1007 623 L0 623 Z" class="st3"/>
			<path d="M0 623 L1007 623" class="st4"/>
		</g>
		<g id="shape1683-12" v:mID="1683" v:groupContext="shape" v:layerMember="2;0" transform="translate(269.746,-555.551)">
			<title>Sheet.1683</title>
			<desc>Microsoft Entra Conditional Access policies</desc>
			<v:userDefs>
				<v:ud v:nameU="visNavOrder" v:prompt="" v:val="VT0(9000):26"/>
			</v:userDefs>
			<v:textBlock v:margins="rect(4,4,4,4)"/>
			<v:textRect cx="326.789" cy="596" width="653.59" height="54"/>
			<rect x="0" y="569" width="653.58" height="54" class="st5"/>
			<text x="11.2" y="592.15" class="st6" v:langID="1033"><v:paragraph v:indentLeft="7.2" v:spLine="-1.1"/><v:tabList/>Microsoft Entra Conditional Access <v:newlineChar/><tspan
						x="11.2" dy="1.1em" class="st7">policies</tspan></text>		</g>
		<g id="shape1684-16" v:mID="1684" v:groupContext="shape" v:layerMember="2" transform="translate(50.5,-555.551)">
			<title>Sheet.1684</title>
			<desc>Protection level</desc>
			<v:userDefs>
				<v:ud v:nameU="visNavOrder" v:prompt="" v:val="VT0(10000):26"/>
			</v:userDefs>
			<v:textBlock v:margins="rect(0,0,0,0)"/>
			<v:textRect cx="53.9995" cy="596" width="108.02" height="54"/>
			<rect x="0" y="569" width="108" height="54" class="st8"/>
			<text x="-0.01" y="600.2" class="st9" v:langID="1033"><v:paragraph/><v:tabList/>Protection level</text>		</g>
		<g id="shape1685-19" v:mID="1685" v:groupContext="shape" v:layerMember="2" transform="translate(55,-450.047)">
			<title>Sheet.1685</title>
			<desc>Starting point</desc>
			<v:userDefs>
				<v:ud v:nameU="visNavOrder" v:prompt="" v:val="VT0(11000):26"/>
			</v:userDefs>
			<v:textBlock v:margins="rect(0,0,0,0)"/>
			<v:textRect cx="53.9995" cy="605.243" width="108.02" height="35.5133"/>
			<rect x="0" y="587.487" width="108" height="35.5133" class="st8"/>
			<text x="-0.01" y="609.44" class="st10" v:langID="1033"><v:paragraph/><v:tabList/>Starting point</text>		</g>
		<g id="shape1687-22" v:mID="1687" v:groupContext="shape" v:layerMember="2" transform="translate(150.299,-555.551)">
			<title>Sheet.1687</title>
			<desc>Device type</desc>
			<v:userDefs>
				<v:ud v:nameU="visNavOrder" v:prompt="" v:val="VT0(13000):26"/>
			</v:userDefs>
			<v:textBlock v:margins="rect(0,0,0,0)"/>
			<v:textRect cx="59.5001" cy="596" width="119.02" height="54"/>
			<rect x="0" y="569" width="119.002" height="54" class="st8"/>
			<text x="22.42" y="600.2" class="st11" v:langID="1033"><v:paragraph v:horizAlign="1"/><v:tabList/>Device type</text>		</g>
		<g id="shape1690-25" v:mID="1690" v:groupContext="shape" v:layerMember="2;0" transform="translate(927.97,-555.551)">
			<title>Sheet.1690</title>
			<desc>Intune device compliance policy</desc>
			<v:userDefs>
				<v:ud v:nameU="visNavOrder" v:prompt="" v:val="VT0(15000):26"/>
			</v:userDefs>
			<v:textBlock v:margins="rect(4,4,4,4)"/>
			<v:textRect cx="63.5575" cy="596" width="127.13" height="54"/>
			<rect x="0" y="569" width="127.116" height="54" class="st5"/>
			<text x="11.19" y="584.45" class="st6" v:langID="1033"><v:paragraph v:indentLeft="7.2" v:spLine="-1.1"/><v:tabList/>Intune device <tspan
						x="11.19" dy="1.1em" class="st7">compliance <v:newlineChar/></tspan><tspan x="11.19" dy="1.1em" class="st7">policy  </tspan>  </text>		</g>
		<g id="shape1691-30" v:mID="1691" v:groupContext="shape" v:layerMember="2;0" transform="translate(1059.63,-555.551)">
			<title>Sheet.1691</title>
			<desc>Intune app protection policies</desc>
			<v:userDefs>
				<v:ud v:nameU="visNavOrder" v:prompt="" v:val="VT0(16000):26"/>
			</v:userDefs>
			<v:textBlock v:margins="rect(4,4,4,4)"/>
			<v:textRect cx="63.5578" cy="596" width="127.12" height="54"/>
			<rect x="0" y="569" width="127.116" height="54" class="st5"/>
			<text x="11.2" y="584.45" class="st6" v:langID="1033"><v:paragraph v:indentLeft="7.2" v:spLine="-1.1"/><v:tabList/>Intune app <tspan
						x="11.2" dy="1.1em" class="st7">protection <v:newlineChar/></tspan><tspan x="11.2" dy="1.1em" class="st7">policies</tspan></text>		</g>
		<g id="shape1692-35" v:mID="1692" v:groupContext="shape" v:layerMember="1" transform="translate(173.001,-470.054)">
			<title>Arrow 1 - gray.3217</title>
			<v:userDefs>
				<v:ud v:nameU="visNavOrder" v:prompt="" v:val="VT0(17000):26"/>
			</v:userDefs>
			<path d="M0 623 L1007 623 L0 623 Z" class="st3"/>
			<path d="M0 623 L1007 623" class="st12"/>
		</g>
		<g id="shape1695-38" v:mID="1695" v:groupContext="shape" v:layerMember="1" transform="translate(173.001,-146.054)">
			<title>Arrow 1 - gray.3220</title>
			<v:userDefs>
				<v:ud v:nameU="visNavOrder" v:prompt="" v:val="VT0(22000):26"/>
			</v:userDefs>
			<path d="M0 623 L1007 623 L0 623 Z" class="st3"/>
			<path d="M0 623 L1007 623" class="st12"/>
		</g>
		<g id="shape1697-41" v:mID="1697" v:groupContext="shape" v:layerMember="2;0" transform="translate(930.22,-71.9763)">
			<title>Sheet.1697</title>
			<desc>Define compliance policies (one for each platform)</desc>
			<v:userDefs>
				<v:ud v:nameU="visNavOrder" v:prompt="" v:val="VT0(125000):26"/>
			</v:userDefs>
			<v:textBlock v:margins="rect(6,6,6,6)" v:verticalAlign="0"/>
			<v:textRect cx="61.3075" cy="468.268" width="122.63" height="309.463"/>
			<g id="shadow1697-42" v:groupContext="shadow" v:shadowOffsetX="4.40873E-24" v:shadowOffsetY="-2" v:shadowType="1"
					v:shadowScale="1.01" transform="matrix(1.01,0,0,1.01,-0.61308,-2.68268)" class="st13">
				<rect x="0" y="313.537" width="122.616" height="309.463" rx="4.5" ry="4.5" class="st14"/>
			</g>
			<rect x="0" y="313.537" width="122.616" height="309.463" rx="4.5" ry="4.5" class="st15"/>
			<text x="5.99" y="328.99" class="st16" v:langID="1033"><v:paragraph v:spAfter="6"/><v:tabList/>Define compliance <tspan
						x="5.99" dy="1.2em" class="st7">policies (one for <v:lf/></tspan><tspan x="5.99" dy="1.2em" class="st7">each platform).</tspan></text>		</g>
		<g id="shape1700-49" v:mID="1700" v:groupContext="shape" v:layerMember="1"
				transform="translate(1746.19,213.173) rotate(90)">
			<title>Sheet.1700</title>
			<v:userDefs>
				<v:ud v:nameU="visNavOrder" v:prompt="" v:val="VT0(27000):26"/>
			</v:userDefs>
			<path d="M0 623 L269.77 623 L0 623 Z" class="st3"/>
			<path d="M0 623 L269.77 623" class="st17"/>
		</g>
		<g id="shape1708-52" v:mID="1708" v:groupContext="shape" v:layerMember="2;0" transform="translate(666.892,-71.9763)">
			<title>Sheet.1708</title>
			<desc>Require compliant PCs and mobile devices This policy enforces...</desc>
			<v:userDefs>
				<v:ud v:nameU="visNavOrder" v:prompt="" v:val="VT0(135000):26"/>
			</v:userDefs>
			<v:textBlock v:margins="rect(6,6,6,6)" v:verticalAlign="0"/>
			<v:textRect cx="61.3075" cy="468.268" width="122.63" height="309.463"/>
			<g id="shadow1708-53" v:groupContext="shadow" v:shadowOffsetX="4.40873E-24" v:shadowOffsetY="-2" v:shadowType="1"
					v:shadowScale="1.01" transform="matrix(1.01,0,0,1.01,-0.61308,-2.68268)" class="st13">
				<rect x="0" y="313.537" width="122.616" height="309.463" rx="4.5" ry="4.5" class="st14"/>
			</g>
			<rect x="0" y="313.537" width="122.616" height="309.463" rx="4.5" ry="4.5" class="st15"/>
			<text x="5.99" y="328.99" class="st16" v:langID="1033"><v:paragraph v:spAfter="6"/><v:tabList/>Require compliant <v:lf/><tspan
						x="5.99" dy="1.2em" class="st7">PCs </tspan><tspan class="st18">and </tspan>mobile <tspan x="5.99"
						dy="1.2em" class="st7">devices.<v:newlineChar/></tspan><tspan x="5.99" dy="1.771em" class="st19">Enforces Intune </tspan><tspan
						x="5.99" dy="1.2em" class="st19">management <v:lf/></tspan><tspan x="5.99" dy="1.2em" class="st19">for PCs and mobile </tspan><tspan
						x="5.99" dy="1.2em" class="st19">devices.</tspan></text>		</g>
		<g id="shape1710-65" v:mID="1710" v:groupContext="shape" v:layerMember="2;0" transform="translate(535.228,-71.9763)">
			<title>Sheet.1710</title>
			<desc>Block clients that don’t support modern authentication Client...</desc>
			<v:userDefs>
				<v:ud v:nameU="visNavOrder" v:prompt="" v:val="VT0(136000):26"/>
			</v:userDefs>
			<v:textBlock v:margins="rect(6,6,6,6)" v:verticalAlign="0"/>
			<v:textRect cx="61.3075" cy="387.614" width="122.63" height="470.772"/>
			<g id="shadow1710-66" v:groupContext="shadow" v:shadowOffsetX="4.40873E-24" v:shadowOffsetY="-2" v:shadowType="1"
					v:shadowScale="1.01" transform="matrix(1.01,0,0,1.01,-0.61308,-1.87614)" class="st13">
				<rect x="0" y="152.228" width="122.616" height="470.772" rx="4.5" ry="4.5" class="st14"/>
			</g>
			<rect x="0" y="152.228" width="122.616" height="470.772" rx="4.5" ry="4.5" class="st15"/>
			<text x="5.99" y="167.68" class="st16" v:langID="1033"><v:paragraph v:spAfter="6"/><v:tabList/>Block clients that don’t <tspan
						x="5.99" dy="1.2em" class="st7">support modern </tspan><tspan x="5.99" dy="1.2em" class="st7">authentication.<v:newlineChar/></tspan><tspan
						x="5.99" dy="1.771em" class="st19">Clients that don</tspan><tspan class="st19">’</tspan><tspan class="st19">t use </tspan><tspan
						x="5.99" dy="1.2em" class="st19">modern authentication </tspan><tspan x="5.99" dy="1.2em" class="st19">can bypass Conditional </tspan><tspan
						x="5.99" dy="1.2em" class="st19">Access policies.</tspan></text>		</g>
		<g id="shape1711-79" v:mID="1711" v:groupContext="shape" v:layerMember="1" transform="translate(1087.87,208) rotate(90)">
			<title>Sheet.1711</title>
			<v:userDefs>
				<v:ud v:nameU="visNavOrder" v:prompt="" v:val="VT0(33000):26"/>
			</v:userDefs>
			<path d="M0 623 L274.94 623 L0 623 Z" class="st3"/>
			<path d="M0 623 L274.94 623" class="st20"/>
		</g>
		<g id="group1838-82" transform="translate(194.8,-94.6785)" v:mID="1838" v:groupContext="group" v:layerMember="3">
			<v:userDefs>
				<v:ud v:nameU="visNavOrder" v:val="VT0(122000):26"/>
			</v:userDefs>
			<title>Phone Tablet Blue.1838</title>
			<g id="shape1839-83" v:mID="1839" v:groupContext="shape" v:layerMember="3" transform="translate(6.01956,-4.5)">
				<title>Sheet.1839</title>
				<path d="M23.97 606.64 C23.85 604.89 22.39 603.5 20.6 603.5 L3.35 603.5 L3.11 603.51 C1.48 603.63 0.18 604.89 0 606.5
							 L3.73 606.5 L3.98 606.51 C5.93 606.63 7.48 608.26 7.48 610.25 L7.48 623 L20.6 623 L20.84 622.99 C22.59
							 622.87 23.98 621.41 23.98 619.62 L23.98 606.87 L23.97 606.64 ZM10.1 617.75 L13.85 617.75 L14.01 617.76
							 C14.56 617.83 14.98 618.31 14.98 618.87 C14.98 619.5 14.48 620 13.85 620 L10.1 620 L9.95 619.99 C9.4
							 619.92 8.98 619.44 8.98 618.87 C8.98 618.25 9.48 617.75 10.1 617.75 Z" class="st21"/>
			</g>
			<g id="shape1840-85" v:mID="1840" v:groupContext="shape" v:layerMember="3">
				<title>Sheet.1840</title>
				<path d="M9.38 603.5 C10.83 603.5 12.01 604.68 12.01 606.12 L12.01 620.37 C12.01 621.82 10.83 623 9.38 623 L2.63
							 623 C1.18 623 0 621.82 0 620.37 L0 606.12 C0 604.68 1.18 603.5 2.63 603.5 L9.38 603.5 ZM5.63 617.74
							 L6.38 617.74 L6.53 617.75 C7.08 617.83 7.5 618.3 7.5 618.87 C7.5 619.44 7.08 619.91 6.53 619.98 L6.38
							 619.99 L5.63 619.99 L5.48 619.98 C4.93 619.91 4.5 619.44 4.5 618.87 C4.5 618.3 4.93 617.83 5.48 617.75
							 L5.63 617.74 Z" class="st22"/>
			</g>
		</g>
		<g id="group1841-87" transform="translate(194.8,-172.678)" v:mID="1841" v:groupContext="group" v:layerMember="3">
			<v:userDefs>
				<v:ud v:nameU="visNavOrder" v:val="VT0(123000):26"/>
			</v:userDefs>
			<title>Desktop Tower Blue.1841</title>
			<g id="shape1842-88" v:mID="1842" v:groupContext="shape" v:layerMember="3">
				<title>Sheet.1842</title>
				<path d="M3.37 593 C1.51 593 0 594.51 0 596.37 L0 619.62 C0 621.49 1.51 623 3.37 623 L10 623 C9.84 622.66 9.75 622.28
							 9.75 621.87 C9.75 620.43 10.93 619.25 12.37 619.25 L12.75 619.25 L12.75 618.5 L10.87 618.5 C8.18 618.5
							 6 616.32 6 613.62 L6 603.87 C6 601.18 8.18 599 10.87 599 L15 599 L15 596.37 C15 594.51 13.49 593 11.62
							 593 L3.37 593 Z" class="st21"/>
			</g>
			<g id="shape1843-90" v:mID="1843" v:groupContext="shape" v:layerMember="3" transform="translate(7.5,1.13687E-13)">
				<title>Sheet.1843</title>
				<path d="M3.37 600.5 C1.51 600.5 0 602.01 0 603.87 L0 613.62 C0 615.49 1.51 617 3.37 617 L6.75 617 L6.75 620.75 L4.88
							 620.75 C4.25 620.75 3.75 621.25 3.75 621.87 C3.75 622.5 4.25 623 4.88 623 L17.62 623 C18.25 623 18.75
							 622.5 18.75 621.87 C18.75 621.25 18.25 620.75 17.62 620.75 L15.75 620.75 L15.75 617 L19.12 617 C20.99
							 617 22.5 615.49 22.5 613.62 L22.5 603.87 C22.5 602.01 20.99 600.5 19.12 600.5 L3.37 600.5 ZM13.5 620.75
							 L13.5 617 L9 617 L9 620.75 L13.5 620.75 Z" class="st22"/>
			</g>
		</g>
		<g id="group1829-92" transform="translate(194.8,-255.553)" v:mID="1829" v:groupContext="group" v:layerMember="3">
			<v:userDefs>
				<v:ud v:nameU="visNavOrder" v:val="VT0(122000):26"/>
			</v:userDefs>
			<title>Phone Tablet Blue.1829</title>
			<g id="shape1830-93" v:mID="1830" v:groupContext="shape" v:layerMember="3" transform="translate(6.01956,-4.5)">
				<title>Sheet.1830</title>
				<path d="M23.97 606.64 C23.85 604.89 22.39 603.5 20.6 603.5 L3.35 603.5 L3.11 603.51 C1.48 603.63 0.18 604.89 0 606.5
							 L3.73 606.5 L3.98 606.51 C5.93 606.63 7.48 608.26 7.48 610.25 L7.48 623 L20.6 623 L20.84 622.99 C22.59
							 622.87 23.98 621.41 23.98 619.62 L23.98 606.87 L23.97 606.64 ZM10.1 617.75 L13.85 617.75 L14.01 617.76
							 C14.56 617.83 14.98 618.31 14.98 618.87 C14.98 619.5 14.48 620 13.85 620 L10.1 620 L9.95 619.99 C9.4
							 619.92 8.98 619.44 8.98 618.87 C8.98 618.25 9.48 617.75 10.1 617.75 Z" class="st21"/>
			</g>
			<g id="shape1831-95" v:mID="1831" v:groupContext="shape" v:layerMember="3">
				<title>Sheet.1831</title>
				<path d="M9.38 603.5 C10.83 603.5 12.01 604.68 12.01 606.12 L12.01 620.37 C12.01 621.82 10.83 623 9.38 623 L2.63
							 623 C1.18 623 0 621.82 0 620.37 L0 606.12 C0 604.68 1.18 603.5 2.63 603.5 L9.38 603.5 ZM5.63 617.74
							 L6.38 617.74 L6.53 617.75 C7.08 617.83 7.5 618.3 7.5 618.87 C7.5 619.44 7.08 619.91 6.53 619.98 L6.38
							 619.99 L5.63 619.99 L5.48 619.98 C4.93 619.91 4.5 619.44 4.5 618.87 C4.5 618.3 4.93 617.83 5.48 617.75
							 L5.63 617.74 Z" class="st22"/>
			</g>
		</g>
		<g id="group1832-97" transform="translate(194.8,-333.554)" v:mID="1832" v:groupContext="group" v:layerMember="3">
			<v:userDefs>
				<v:ud v:nameU="visNavOrder" v:val="VT0(123000):26"/>
			</v:userDefs>
			<title>Desktop Tower Blue.1832</title>
			<g id="shape1833-98" v:mID="1833" v:groupContext="shape" v:layerMember="3">
				<title>Sheet.1833</title>
				<path d="M3.37 593 C1.51 593 0 594.51 0 596.37 L0 619.62 C0 621.49 1.51 623 3.37 623 L10 623 C9.84 622.66 9.75 622.28
							 9.75 621.87 C9.75 620.43 10.93 619.25 12.37 619.25 L12.75 619.25 L12.75 618.5 L10.87 618.5 C8.18 618.5
							 6 616.32 6 613.62 L6 603.87 C6 601.18 8.18 599 10.87 599 L15 599 L15 596.37 C15 594.51 13.49 593 11.62
							 593 L3.37 593 Z" class="st21"/>
			</g>
			<g id="shape1834-100" v:mID="1834" v:groupContext="shape" v:layerMember="3" transform="translate(7.5,1.13687E-13)">
				<title>Sheet.1834</title>
				<path d="M3.37 600.5 C1.51 600.5 0 602.01 0 603.87 L0 613.62 C0 615.49 1.51 617 3.37 617 L6.75 617 L6.75 620.75 L4.88
							 620.75 C4.25 620.75 3.75 621.25 3.75 621.87 C3.75 622.5 4.25 623 4.88 623 L17.62 623 C18.25 623 18.75
							 622.5 18.75 621.87 C18.75 621.25 18.25 620.75 17.62 620.75 L15.75 620.75 L15.75 617 L19.12 617 C20.99
							 617 22.5 615.49 22.5 613.62 L22.5 603.87 C22.5 602.01 20.99 600.5 19.12 600.5 L3.37 600.5 ZM13.5 620.75
							 L13.5 617 L9 617 L9 620.75 L13.5 620.75 Z" class="st22"/>
			</g>
		</g>
		<g id="shape1704-102" v:mID="1704" v:groupContext="shape" v:layerMember="2;0" transform="translate(1061.88,-71.9763)">
			<title>Sheet.1704</title>
			<desc>Apply Level 3 APP data protection</desc>
			<v:userDefs>
				<v:ud v:nameU="visNavOrder" v:prompt="" v:val="VT0(133000):26"/>
			</v:userDefs>
			<v:textBlock v:margins="rect(6,6,6,6)" v:verticalAlign="0"/>
			<v:textRect cx="61.3075" cy="589.249" width="122.63" height="67.5"/>
			<g id="shadow1704-103" v:groupContext="shadow" v:shadowOffsetX="4.40873E-24" v:shadowOffsetY="-2" v:shadowType="1"
					v:shadowScale="1.01" transform="matrix(1.01,0,0,1.01,-0.61308,-3.8925)" class="st13">
				<rect x="0" y="555.5" width="122.616" height="67.5" rx="4.5" ry="4.5" class="st14"/>
			</g>
			<rect x="0" y="555.5" width="122.616" height="67.5" rx="4.5" ry="4.5" class="st15"/>
			<text x="5.99" y="570.95" class="st16" v:langID="1033"><v:paragraph v:spAfter="6"/><v:tabList/>Apply <tspan
						class="st23">Level 3</tspan> APP <v:lf/><tspan x="5.99" dy="1.2em" class="st7">data protection.</tspan></text>		</g>
		<g id="shape1721-110" v:mID="1721" v:groupContext="shape" v:layerMember="2;0" transform="translate(271.9,-71.9763)">
			<title>Sheet.1721</title>
			<desc>Require MFA always This is also available for all Microsoft 365 ...</desc>
			<v:userDefs>
				<v:ud v:nameU="visNavOrder" v:prompt="" v:val="VT0(143000):26"/>
			</v:userDefs>
			<v:textBlock v:margins="rect(6,6,6,6)" v:verticalAlign="0"/>
			<v:textRect cx="61.3076" cy="548.924" width="122.63" height="148.154"/>
			<g id="shadow1721-111" v:groupContext="shadow" v:shadowOffsetX="4.40873E-24" v:shadowOffsetY="-2" v:shadowType="1"
					v:shadowScale="1.01" transform="matrix(1.01,0,0,1.01,-0.61308,-3.48923)" class="st13">
				<rect x="0" y="474.846" width="122.616" height="148.154" rx="4.5" ry="4.5" class="st14"/>
			</g>
			<rect x="0" y="474.846" width="122.616" height="148.154" rx="4.5" ry="4.5" class="st15"/>
			<text x="6" y="490.3" class="st16" v:langID="1033"><v:paragraph v:spAfter="6"/><v:tabList/>Require MFA <tspan
						class="st23">always</tspan>.<v:newlineChar/><v:newlineChar/><tspan x="6" dy="3.543em" class="st19">Available for all </tspan><tspan
						x="6" dy="1.2em" class="st19">Microsoft 365 Enterprise </tspan><tspan x="6" dy="1.2em" class="st19">plans.</tspan></text>		</g>
		<g id="shape1732-120" v:mID="1732" v:groupContext="shape" v:layerMember="2;0" transform="translate(403.564,-71.9763)">
			<title>Sheet.1732</title>
			<desc>Require approved apps</desc>
			<v:userDefs>
				<v:ud v:nameU="visNavOrder" v:prompt="" v:val="VT0(137000):26"/>
			</v:userDefs>
			<v:textBlock v:margins="rect(6,6,6,6)" v:verticalAlign="0"/>
			<v:textRect cx="61.3075" cy="589.249" width="122.63" height="67.5"/>
			<g id="shadow1732-121" v:groupContext="shadow" v:shadowOffsetX="4.40873E-24" v:shadowOffsetY="-2" v:shadowType="1"
					v:shadowScale="1.01" transform="matrix(1.01,0,0,1.01,-0.61308,-3.8925)" class="st13">
				<rect x="0" y="555.5" width="122.616" height="67.5" rx="4.5" ry="4.5" class="st14"/>
			</g>
			<rect x="0" y="555.5" width="122.616" height="67.5" rx="4.5" ry="4.5" class="st15"/>
			<text x="5.99" y="570.95" class="st16" v:langID="1033"><v:paragraph v:spAfter="6"/><v:tabList/>Require approved apps.</text>		</g>
		<g id="shape1706-126" v:mID="1706" v:groupContext="shape" v:layerMember="2;0" transform="translate(1061.88,-395.976)">
			<title>Sheet.1706</title>
			<desc>Apply Level 2 App Protection Policies (APP) data protection (...</desc>
			<v:userDefs>
				<v:ud v:nameU="visNavOrder" v:prompt="" v:val="VT0(134000):26"/>
			</v:userDefs>
			<v:textBlock v:margins="rect(6,6,6,6)" v:verticalAlign="0"/>
			<v:textRect cx="61.3075" cy="589.25" width="122.63" height="67.5"/>
			<g id="shadow1706-127" v:groupContext="shadow" v:shadowOffsetX="4.40873E-24" v:shadowOffsetY="-2" v:shadowType="1"
					v:shadowScale="1.01" transform="matrix(1.01,0,0,1.01,-0.61308,-3.8925)" class="st13">
				<rect x="0" y="555.5" width="122.616" height="67.5" rx="4.5" ry="4.5" class="st14"/>
			</g>
			<rect x="0" y="555.5" width="122.616" height="67.5" rx="4.5" ry="4.5" class="st15"/>
			<text x="5.99" y="570.95" class="st16" v:langID="1033"><v:paragraph v:spAfter="6"/><v:tabList/>Apply <tspan
						class="st23">Level 2</tspan> App <tspan x="5.99" dy="1.2em" class="st7">Protection Policies </tspan><tspan
						x="5.99" dy="1.2em" class="st7">(APP) data protection.<v:newlineChar/></tspan><tspan x="5.99" dy="1.771em"
						class="st19">(one for each platform)</tspan></text>		</g>
		<g id="shape1715-136" v:mID="1715" v:groupContext="shape" v:layerMember="2;0" transform="translate(403.564,-395.976)">
			<title>Sheet.1715</title>
			<desc>Require approved apps This policy enforces mobile app protect...</desc>
			<v:userDefs>
				<v:ud v:nameU="visNavOrder" v:prompt="" v:val="VT0(140000):26"/>
			</v:userDefs>
			<v:textBlock v:margins="rect(6,6,6,6)" v:verticalAlign="0"/>
			<v:textRect cx="61.3075" cy="589.25" width="122.63" height="67.5"/>
			<g id="shadow1715-137" v:groupContext="shadow" v:shadowOffsetX="4.40873E-24" v:shadowOffsetY="-2" v:shadowType="1"
					v:shadowScale="1.01" transform="matrix(1.01,0,0,1.01,-0.61308,-3.8925)" class="st13">
				<rect x="0" y="555.5" width="122.616" height="67.5" rx="4.5" ry="4.5" class="st14"/>
			</g>
			<rect x="0" y="555.5" width="122.616" height="67.5" rx="4.5" ry="4.5" class="st15"/>
			<text x="5.99" y="570.95" class="st16" v:langID="1033"><v:paragraph v:spAfter="6"/><v:tabList/>Require approved apps.<v:newlineChar/><tspan
						x="5.99" dy="1.771em" class="st19">Enforces app protection </tspan><tspan x="5.99" dy="1.2em" class="st19">for mobile devices.</tspan></text>		</g>
		<g id="shape1702-144" v:mID="1702" v:groupContext="shape" v:layerMember="2;0" transform="translate(1061.88,-233.975)">
			<title>Sheet.1702</title>
			<desc>Apply Level 2 APP data protection</desc>
			<v:userDefs>
				<v:ud v:nameU="visNavOrder" v:prompt="" v:val="VT0(132000):26"/>
			</v:userDefs>
			<v:textBlock v:margins="rect(6,6,6,6)" v:verticalAlign="0"/>
			<v:textRect cx="61.3075" cy="589.25" width="122.63" height="67.5"/>
			<g id="shadow1702-145" v:groupContext="shadow" v:shadowOffsetX="4.40873E-24" v:shadowOffsetY="-2" v:shadowType="1"
					v:shadowScale="1.01" transform="matrix(1.01,0,0,1.01,-0.61308,-3.8925)" class="st13">
				<rect x="0" y="555.5" width="122.616" height="67.5" rx="4.5" ry="4.5" class="st14"/>
			</g>
			<rect x="0" y="555.5" width="122.616" height="67.5" rx="4.5" ry="4.5" class="st15"/>
			<text x="5.99" y="570.95" class="st16" v:langID="1033"><v:paragraph v:spAfter="6"/><v:tabList/>Apply <tspan
						class="st23">Level 2</tspan> APP data <tspan x="5.99" dy="1.2em" class="st7">protection.</tspan></text>		</g>
		<g id="shape1713-152" v:mID="1713" v:groupContext="shape" v:layerMember="2;0" transform="translate(403.564,-233.975)">
			<title>Sheet.1713</title>
			<desc>Require approved apps</desc>
			<v:userDefs>
				<v:ud v:nameU="visNavOrder" v:prompt="" v:val="VT0(139000):26"/>
			</v:userDefs>
			<v:textBlock v:margins="rect(6,6,6,6)" v:verticalAlign="0"/>
			<v:textRect cx="61.3075" cy="589.25" width="122.63" height="67.5"/>
			<g id="shadow1713-153" v:groupContext="shadow" v:shadowOffsetX="4.40873E-24" v:shadowOffsetY="-2" v:shadowType="1"
					v:shadowScale="1.01" transform="matrix(1.01,0,0,1.01,-0.61308,-3.8925)" class="st13">
				<rect x="0" y="555.5" width="122.616" height="67.5" rx="4.5" ry="4.5" class="st14"/>
			</g>
			<rect x="0" y="555.5" width="122.616" height="67.5" rx="4.5" ry="4.5" class="st15"/>
			<text x="5.99" y="570.95" class="st16" v:langID="1033"><v:paragraph v:spAfter="6"/><v:tabList/>Require approved apps.</text>		</g>
		<g id="shape1694-158" v:mID="1694" v:groupContext="shape" v:layerMember="3" transform="translate(186.299,-394.152)">
			<title>Sheet.1694</title>
			<desc>Phones and tablets</desc>
			<v:userDefs>
				<v:ud v:nameU="visNavOrder" v:prompt="" v:val="VT0(21000):26"/>
			</v:userDefs>
			<v:textBlock v:margins="rect(4,4,4,4)" v:verticalAlign="0"/>
			<v:textRect cx="23.5006" cy="608" width="47.01" height="30"/>
			<rect x="0" y="593" width="47.0016" height="30" class="st8"/>
			<text x="8.1" y="606" class="st24" v:langID="1033"><v:paragraph v:horizAlign="1"/><v:tabList/>Mobile <tspan x="7.29"
						dy="1.2em" class="st7">devices</tspan></text>		</g>
		<g id="group1806-162" transform="translate(194.8,-424.455)" v:mID="1806" v:groupContext="group" v:layerMember="3">
			<v:userDefs>
				<v:ud v:nameU="visNavOrder" v:val="VT0(122000):26"/>
			</v:userDefs>
			<title>Phone Tablet Blue</title>
			<g id="shape1807-163" v:mID="1807" v:groupContext="shape" v:layerMember="3" transform="translate(6.01956,-4.5)">
				<title>Sheet.1807</title>
				<path d="M23.97 606.64 C23.85 604.89 22.39 603.5 20.6 603.5 L3.35 603.5 L3.11 603.51 C1.48 603.63 0.18 604.89 0 606.5
							 L3.73 606.5 L3.98 606.51 C5.93 606.63 7.48 608.26 7.48 610.25 L7.48 623 L20.6 623 L20.84 622.99 C22.59
							 622.87 23.98 621.41 23.98 619.62 L23.98 606.87 L23.97 606.64 ZM10.1 617.75 L13.85 617.75 L14.01 617.76
							 C14.56 617.83 14.98 618.31 14.98 618.87 C14.98 619.5 14.48 620 13.85 620 L10.1 620 L9.95 619.99 C9.4
							 619.92 8.98 619.44 8.98 618.87 C8.98 618.25 9.48 617.75 10.1 617.75 Z" class="st21"/>
			</g>
			<g id="shape1808-165" v:mID="1808" v:groupContext="shape" v:layerMember="3">
				<title>Sheet.1808</title>
				<path d="M9.38 603.5 C10.83 603.5 12.01 604.68 12.01 606.12 L12.01 620.37 C12.01 621.82 10.83 623 9.38 623 L2.63
							 623 C1.18 623 0 621.82 0 620.37 L0 606.12 C0 604.68 1.18 603.5 2.63 603.5 L9.38 603.5 ZM5.63 617.74
							 L6.38 617.74 L6.53 617.75 C7.08 617.83 7.5 618.3 7.5 618.87 C7.5 619.44 7.08 619.91 6.53 619.98 L6.38
							 619.99 L5.63 619.99 L5.48 619.98 C4.93 619.91 4.5 619.44 4.5 618.87 C4.5 618.3 4.93 617.83 5.48 617.75
							 L5.63 617.74 Z" class="st22"/>
			</g>
		</g>
		<g id="shape1693-167" v:mID="1693" v:groupContext="shape" v:layerMember="3" transform="translate(186.299,-483.705)">
			<title>Sheet.1693</title>
			<desc>PCs</desc>
			<v:userDefs>
				<v:ud v:nameU="visNavOrder" v:prompt="" v:val="VT0(19000):26"/>
			</v:userDefs>
			<v:textBlock v:margins="rect(4,4,4,4)" v:verticalAlign="0"/>
			<v:textRect cx="23.5003" cy="614" width="47.01" height="18"/>
			<rect x="0" y="605" width="47.0016" height="18" class="st8"/>
			<text x="15.48" y="618" class="st24" v:langID="1033"><v:paragraph v:horizAlign="1"/><v:tabList/>PCs</text>		</g>
		<g id="group1810-170" transform="translate(194.8,-502.08)" v:mID="1810" v:groupContext="group" v:layerMember="3">
			<v:userDefs>
				<v:ud v:nameU="visNavOrder" v:val="VT0(123000):26"/>
			</v:userDefs>
			<title>Desktop Tower Blue</title>
			<g id="shape1811-171" v:mID="1811" v:groupContext="shape" v:layerMember="3">
				<title>Sheet.1811</title>
				<path d="M3.37 593 C1.51 593 0 594.51 0 596.37 L0 619.62 C0 621.49 1.51 623 3.37 623 L10 623 C9.84 622.66 9.75 622.28
							 9.75 621.87 C9.75 620.43 10.93 619.25 12.37 619.25 L12.75 619.25 L12.75 618.5 L10.87 618.5 C8.18 618.5
							 6 616.32 6 613.62 L6 603.87 C6 601.18 8.18 599 10.87 599 L15 599 L15 596.37 C15 594.51 13.49 593 11.62
							 593 L3.37 593 Z" class="st21"/>
			</g>
			<g id="shape1812-173" v:mID="1812" v:groupContext="shape" v:layerMember="3" transform="translate(7.5,1.13687E-13)">
				<title>Sheet.1812</title>
				<path d="M3.37 600.5 C1.51 600.5 0 602.01 0 603.87 L0 613.62 C0 615.49 1.51 617 3.37 617 L6.75 617 L6.75 620.75 L4.88
							 620.75 C4.25 620.75 3.75 621.25 3.75 621.87 C3.75 622.5 4.25 623 4.88 623 L17.62 623 C18.25 623 18.75
							 622.5 18.75 621.87 C18.75 621.25 18.25 620.75 17.62 620.75 L15.75 620.75 L15.75 617 L19.12 617 C20.99
							 617 22.5 615.49 22.5 613.62 L22.5 603.87 C22.5 602.01 20.99 600.5 19.12 600.5 L3.37 600.5 ZM13.5 620.75
							 L13.5 617 L9 617 L9 620.75 L13.5 620.75 Z" class="st22"/>
			</g>
		</g>
		<g id="shape1727-175" v:mID="1727" v:groupContext="shape" v:layerMember="2" transform="translate(46,-41.5)">
			<title>Sheet.1727</title>
			<desc>PCs include devices running the Windows or macOS platforms</desc>
			<v:userDefs>
				<v:ud v:nameU="visNavOrder" v:prompt="" v:val="VT0(44000):26"/>
			</v:userDefs>
			<v:textBlock v:margins="rect(4,4,4,4)" v:verticalAlign="0"/>
			<v:textRect cx="178.969" cy="614" width="357.95" height="18"/>
			<rect x="0" y="605" width="357.937" height="18" class="st8"/>
			<text x="4" y="618" class="st25" v:langID="1033"><v:paragraph/><v:tabList/>PCs<tspan class="st26"> </tspan><tspan
						class="st26">running on Windows or macOS platforms.</tspan></text>		</g>
		<g id="shape1728-180" v:mID="1728" v:groupContext="shape" transform="translate(46,-18.195)">
			<title>Sheet.1728</title>
			<desc>Phones and tablets include devices running the iOS, iPadOS, o...</desc>
			<v:userDefs>
				<v:ud v:nameU="visNavOrder" v:prompt="" v:val="VT0(45000):26"/>
			</v:userDefs>
			<v:textBlock v:margins="rect(4,4,4,4)" v:verticalAlign="0"/>
			<v:textRect cx="178.969" cy="611" width="357.95" height="24"/>
			<rect x="0" y="599" width="357.937" height="24" class="st8"/>
			<text x="4" y="612" class="st25" v:langID="1033"><v:paragraph/><v:tabList/>Mobile devices<tspan class="st26"> </tspan><tspan
						class="st26">running on iOS, iPadOS, or Android platforms.</tspan></text>		</g>
		<g id="shape1730-185" v:mID="1730" v:groupContext="shape" v:layerMember="2" transform="translate(489.063,-5.536)">
			<title>Sheet.1730</title>
			<desc>Requires Microsoft 365 E5, Microsoft 365 E3 with the E5 Ident...</desc>
			<v:userDefs>
				<v:ud v:nameU="visNavOrder" v:prompt="" v:val="VT0(47000):26"/>
			</v:userDefs>
			<v:textBlock v:margins="rect(0,0,0,0)" v:tabSpace="18" v:verticalAlign="0"/>
			<v:textRect cx="106.968" cy="596.018" width="213.94" height="53.964"/>
			<rect x="0" y="569.036" width="213.937" height="53.964" class="st8"/>
			<text x="-0" y="577.14" class="st27" v:langID="1033"><v:paragraph/><v:tabList/>Requires one of the following subscriptions:<v:newlineChar/><tspan
						x="-0" dy="1.2em" class="st7">• </tspan>Microsoft 365 E5<v:newlineChar/><tspan x="-0" dy="1.2em"
						class="st7">• </tspan>Microsoft 365 E3 with the E5 Identity add-on<v:newlineChar/><tspan x="-0" dy="1.2em"
						class="st7">• </tspan>Microsoft 365 with EMS E5<v:newlineChar/><tspan x="-0" dy="1.2em" class="st7">• </tspan>Individual Microsoft Entra ID P2 licenses</text>		</g>
		<g id="group2000-192" transform="translate(271.9,-395.976)" v:mID="2000" v:groupContext="group" v:layerMember="2;0">
			<v:userDefs>
				<v:ud v:nameU="visNavOrder" v:val="VT0(201000):26"/>
			</v:userDefs>
			<title>Sheet.2000</title>
			<g id="shape1719-193" v:mID="1719" v:groupContext="shape" v:layerMember="0;2">
				<title>Sheet.1719</title>
				<desc>Require multifactor authentication (MFA) when sign-in risk is...</desc>
				<v:userDefs>
					<v:ud v:nameU="visNavOrder" v:prompt="" v:val="VT0(142000):26"/>
				</v:userDefs>
				<v:textBlock v:margins="rect(6,6,6,6)" v:verticalAlign="0"/>
				<v:textRect cx="61.3076" cy="548.923" width="122.63" height="148.154"/>
				<g id="shadow1719-194" v:groupContext="shadow" v:shadowOffsetX="4.40873E-24" v:shadowOffsetY="-2" v:shadowType="1"
						v:shadowScale="1.01" transform="matrix(1.01,0,0,1.01,-0.61308,-3.48923)" class="st13">
					<rect x="0" y="474.846" width="122.616" height="148.154" rx="4.5" ry="4.5" class="st14"/>
				</g>
				<rect x="0" y="474.846" width="122.616" height="148.154" rx="4.5" ry="4.5" class="st15"/>
				<text x="6" y="490.3" class="st16" v:langID="1033"><v:paragraph v:spAfter="6"/><v:tabList/>Require multifactor <tspan
							x="6" dy="1.2em" class="st7">authentication (MFA) </tspan><tspan x="6" dy="1.2em" class="st7">when sign</tspan>-in risk is <tspan
							x="6" dy="1.2em" class="st23">Medium</tspan> or <tspan class="st23">High</tspan>.</text>			</g>
		</g>
		<g id="group2001-203" transform="translate(271.9,-233.975)" v:mID="2001" v:groupContext="group" v:layerMember="2;0">
			<v:userDefs>
				<v:ud v:nameU="visNavOrder" v:val="VT0(202000):26"/>
			</v:userDefs>
			<title>Sheet.2001</title>
			<g id="shape1717-204" v:mID="1717" v:groupContext="shape" v:layerMember="0;2">
				<title>Sheet.1717</title>
				<desc>Require MFA when sign-in risk is low, medium, or high</desc>
				<v:userDefs>
					<v:ud v:nameU="visNavOrder" v:prompt="" v:val="VT0(141000):26"/>
				</v:userDefs>
				<v:textBlock v:margins="rect(6,6,6,6)" v:verticalAlign="0"/>
				<v:textRect cx="61.3076" cy="548.924" width="122.63" height="148.154"/>
				<g id="shadow1717-205" v:groupContext="shadow" v:shadowOffsetX="4.40873E-24" v:shadowOffsetY="-2" v:shadowType="1"
						v:shadowScale="1.01" transform="matrix(1.01,0,0,1.01,-0.61308,-3.48923)" class="st13">
					<rect x="0" y="474.846" width="122.616" height="148.154" rx="4.5" ry="4.5" class="st14"/>
				</g>
				<rect x="0" y="474.846" width="122.616" height="148.154" rx="4.5" ry="4.5" class="st15"/>
				<text x="6" y="490.3" class="st16" v:langID="1033"><v:paragraph v:spAfter="6"/><v:tabList/>Require MFA when <v:lf/><tspan
							x="6" dy="1.2em" class="st7">sign</tspan>-in risk is <tspan class="st23">Low</tspan>, <tspan x="6"
							dy="1.2em" class="st23">Medium</tspan>, or <tspan class="st23">High</tspan>.</text>			</g>
		</g>
		<g id="group2002-214" transform="translate(798.556,-71.9763)" v:mID="2002" v:groupContext="group" v:layerMember="2;0">
			<v:userDefs>
				<v:ud v:nameU="visNavOrder" v:val="VT0(203000):26"/>
			</v:userDefs>
			<title>Sheet.2002</title>
			<g id="shape1699-215" v:mID="1699" v:groupContext="shape" v:layerMember="0;2">
				<title>Sheet.1699</title>
				<desc>High-risk users must change password This policy forces users...</desc>
				<v:userDefs>
					<v:ud v:nameU="visNavOrder" v:prompt="" v:val="VT0(126000):26"/>
				</v:userDefs>
				<v:textBlock v:margins="rect(6,6,6,6)" v:verticalAlign="0"/>
				<v:textRect cx="61.3077" cy="387.614" width="122.63" height="470.772"/>
				<g id="shadow1699-216" v:groupContext="shadow" v:shadowOffsetX="4.40873E-24" v:shadowOffsetY="-2" v:shadowType="1"
						v:shadowScale="1.01" transform="matrix(1.01,0,0,1.01,-0.61308,-1.87614)" class="st13">
					<rect x="0" y="152.228" width="122.616" height="470.772" rx="4.5" ry="4.5" class="st14"/>
				</g>
				<rect x="0" y="152.228" width="122.616" height="470.772" rx="4.5" ry="4.5" class="st15"/>
				<text x="6" y="167.68" class="st16" v:langID="1033"><v:paragraph v:spAfter="6"/><v:tabList/>High-risk users must <tspan
							x="6" dy="1.2em" class="st7">change password.<v:newlineChar/></tspan><tspan x="6" dy="1.771em"
							class="st19">Forces users to change </tspan><tspan x="6" dy="1.2em" class="st19">their password when </tspan><tspan
							x="6" dy="1.2em" class="st19">signing in if high</tspan><tspan class="st19">-</tspan><tspan
							class="st19">risk </tspan><tspan x="6" dy="1.2em" class="st19">activity is detected for </tspan><tspan
							x="6" dy="1.2em" class="st19">their account.</tspan></text>			</g>
		</g>
		<g id="group2004-229" transform="translate(55,-288.328)" v:mID="2004" v:groupContext="group" v:layerMember="2">
			<v:userDefs>
				<v:ud v:nameU="visNavOrder" v:val="VT0(204000):26"/>
			</v:userDefs>
			<title>Sheet.2004</title>
			<g id="shape1725-230" v:mID="1725" v:groupContext="shape" v:layerMember="2" transform="translate(0,-21.4493)">
				<title>Sheet.1725</title>
				<desc>Enterprise (Recommended for Zero Trust)</desc>
				<v:userDefs>
					<v:ud v:nameU="visNavOrder" v:prompt="" v:val="VT0(42000):26"/>
				</v:userDefs>
				<v:textBlock v:margins="rect(0,0,0,0)" v:verticalAlign="0"/>
				<v:textRect cx="53.9995" cy="614" width="108.02" height="18"/>
				<rect x="0" y="605" width="108" height="18" class="st8"/>
				<text x="-0.01" y="617.6" class="st10" v:langID="1033"><v:paragraph/><v:tabList/>Enterprise</text>			</g>
			<g id="shape1878-233" v:mID="1878" v:groupContext="shape" v:layerMember="2">
				<title>Sheet.1878</title>
				<desc>Enterprise (Recommended for Zero Trust)</desc>
				<v:userDefs>
					<v:ud v:nameU="visNavOrder" v:prompt="" v:val="VT0(148000):26"/>
				</v:userDefs>
				<v:textBlock v:margins="rect(0,0,0,0)" v:verticalAlign="0"/>
				<v:textRect cx="53.9995" cy="614" width="108.02" height="18"/>
				<rect x="0" y="605" width="108" height="18" class="st8"/>
				<text x="-0.01" y="612.69" class="st28" v:langID="1033"><v:paragraph v:spLine="-1"/><v:tabList/>(<tspan
							class="st29">Recommended for<v:newlineChar/></tspan><tspan x="-0.01" dy="1.006em" class="st29">Zero Trust)</tspan></text>			</g>
		</g>
		<g id="group2005-238" transform="translate(55,-116.875)" v:mID="2005" v:groupContext="group" v:layerMember="2">
			<v:userDefs>
				<v:ud v:nameU="visNavOrder" v:val="VT0(205000):26"/>
			</v:userDefs>
			<title>Sheet.2005</title>
			<g id="shape1686-239" v:mID="1686" v:groupContext="shape" v:layerMember="2" transform="translate(0,-20.736)">
				<title>Sheet.1686</title>
				<desc>Specialized security (only if needed for specific data sets o...</desc>
				<v:userDefs>
					<v:ud v:nameU="visNavOrder" v:prompt="" v:val="VT0(12000):26"/>
				</v:userDefs>
				<v:textBlock v:margins="rect(0,0,0,0)" v:verticalAlign="0"/>
				<v:textRect cx="53.9995" cy="605.244" width="108.02" height="35.5133"/>
				<rect x="0" y="587.487" width="108" height="35.5133" class="st8"/>
				<text x="-0.01" y="600.09" class="st10" v:langID="1033"><v:paragraph/><v:tabList/>Specialized <tspan x="-0.01"
							dy="1.2em" class="st7">security</tspan></text>			</g>
			<g id="shape1877-243" v:mID="1877" v:groupContext="shape" v:layerMember="2">
				<title>Sheet.1877</title>
				<desc>Specialized security (only if needed for specific data sets o...</desc>
				<v:userDefs>
					<v:ud v:nameU="visNavOrder" v:prompt="" v:val="VT0(147000):26"/>
				</v:userDefs>
				<v:textBlock v:margins="rect(0,0,0,0)" v:verticalAlign="0"/>
				<v:textRect cx="53.9995" cy="614" width="108.02" height="18"/>
				<rect x="0" y="605" width="108" height="18" class="st8"/>
				<text x="-0.01" y="612.69" class="st28" v:langID="1033"><v:paragraph v:spLine="-1"/><v:tabList/>(<tspan
							class="st29">only if needed for <v:lf/></tspan><tspan x="-0.01" dy="1.006em" class="st29">specific data sets or users)</tspan></text>			</g>
		</g>
		<g id="shape1966-248" v:mID="1966" v:groupContext="shape" transform="translate(374.5,-406)">
			<title>Sheet.1966</title>
			<v:userDefs>
				<v:ud v:nameU="visNavOrder" v:val="VT0(211000):26"/>
			</v:userDefs>
			<ellipse cx="4.5" cy="618.5" rx="4.5" ry="4.5" class="st30"/>
		</g>
		<g id="shape1967-250" v:mID="1967" v:groupContext="shape" transform="translate(374.5,-244)">
			<title>Sheet.1967</title>
			<v:userDefs>
				<v:ud v:nameU="visNavOrder" v:val="VT0(212000):26"/>
			</v:userDefs>
			<ellipse cx="4.5" cy="618.5" rx="4.5" ry="4.5" class="st30"/>
		</g>
		<g id="shape1968-252" v:mID="1968" v:groupContext="shape" transform="translate(901,-82)">
			<title>Sheet.1968</title>
			<v:userDefs>
				<v:ud v:nameU="visNavOrder" v:val="VT0(213000):26"/>
			</v:userDefs>
			<ellipse cx="4.5" cy="618.5" rx="4.5" ry="4.5" class="st30"/>
		</g>
		<g id="shape1969-254" v:mID="1969" v:groupContext="shape" transform="translate(473.5,-48.25)">
			<title>Sheet.1969</title>
			<v:userDefs>
				<v:ud v:nameU="visNavOrder" v:val="VT0(214000):26"/>
			</v:userDefs>
			<ellipse cx="4.5" cy="618.5" rx="4.5" ry="4.5" class="st30"/>
		</g>
		<g id="shape1971-256" v:mID="1971" v:groupContext="shape" transform="translate(19,-226)">
			<title>Sheet.1971</title>
			<v:userDefs>
				<v:ud v:nameU="visNavOrder" v:val="VT0(217000):26"/>
			</v:userDefs>
			<rect x="0" y="461" width="1188" height="162" rx="4.5" ry="4.5" class="st31"/>
		</g>
	</g>
</svg>
