<svg width="108" height="115" xmlns="http://www.w3.org/2000/svg" xmlns:xlink="http://www.w3.org/1999/xlink" xml:space="preserve" overflow="hidden"><defs><clipPath id="clip0"><rect x="354" y="475" width="108" height="115"/></clipPath><linearGradient x1="54.1255" y1="5.56819" x2="54.1255" y2="107.84" gradientUnits="userSpaceOnUse" spreadMethod="pad" id="fill1"><stop offset="0" stop-color="#00ABDE"/><stop offset="1" stop-color="#007ED8"/></linearGradient><linearGradient x1="21.9759" y1="2.46003" x2="121.43" y2="170.923" gradientUnits="userSpaceOnUse" spreadMethod="pad" id="fill2"><stop offset="0" stop-color="#007ED8"/><stop offset="0.7065" stop-color="#002D4C"/><stop offset="1" stop-color="#002D4C"/></linearGradient><linearGradient x1="52.6905" y1="-7.23194" x2="55.735" y2="128.417" gradientUnits="userSpaceOnUse" spreadMethod="pad" id="fill3"><stop offset="0" stop-color="#007ED8"/><stop offset="0.7065" stop-color="#002D4C"/><stop offset="1" stop-color="#002D4C"/></linearGradient><linearGradient x1="40.5304" y1="38.2309" x2="65.6598" y2="113.619" gradientUnits="userSpaceOnUse" spreadMethod="pad" id="fill4"><stop offset="0" stop-color="#007ED8"/><stop offset="0.7065" stop-color="#002D4C"/><stop offset="1" stop-color="#002D4C"/></linearGradient><linearGradient x1="36.4672" y1="82.5705" x2="54.6255" y2="48.716" gradientUnits="userSpaceOnUse" spreadMethod="pad" id="fill5"><stop offset="0" stop-color="#1B93EB"/><stop offset="0.21" stop-color="#2095EB"/><stop offset="0.44" stop-color="#2E9CED"/><stop offset="0.69" stop-color="#45A7EF"/><stop offset="0.95" stop-color="#64B6F1"/><stop offset="1" stop-color="#6BB9F2"/></linearGradient></defs><g clip-path="url(#clip0)" transform="translate(-354 -475)"><path d="M54.1255 112.805C55.9514 112.805 57.7474 112.297 59.3346 111.331L96.3109 88.8595C99.6166 86.8487 101.663 83.0717 101.663 78.9904L101.663 34.4118C101.663 30.3424 99.6166 26.5594 96.3109 24.5426L59.3346 2.07144C56.1543 0.138179 52.0849 0.150113 48.9225 2.07144L11.9459 24.5545C8.64024 26.5654 6.58168 30.3424 6.58168 34.4237L6.58168 78.9963C6.58168 82.4332 8.04355 85.6673 10.49 87.7974L10.49 87.8153 48.9225 111.343C50.4977 112.297 52.2997 112.805 54.1255 112.805ZM54.5134 4.77442C55.6769 4.77442 57.1567 5.49641 58.177 6.12294L94.4314 28.3137C96.669 29.6741 97.9339 33.6122 97.9339 36.4465L97.558 78.9904C97.558 81.8246 95.6486 84.3725 93.4111 85.7329L57.3715 107.44C55.3249 108.687 53.6601 108.687 51.6075 107.44L15.0844 85.6792C12.8469 84.3188 11.0449 81.8127 11.0449 78.9904L11.0449 35.0502C11.0449 32.222 12.6738 29.3042 14.9233 27.9378L51.0705 6.12294C52.0849 5.50238 53.3499 4.77442 54.5134 4.77442Z" fill="#F2F1F0" transform="matrix(1 0 0 1.00907 354 475)"/><path d="M58.8394 6.91063C57.3775 6.0156 55.7545 5.56807 54.1255 5.56807 52.4966 5.56807 50.8736 6.02157 49.4117 6.91063L15.9198 27.3948C12.9244 29.2267 11.0687 32.6576 11.0687 36.3869L11.0687 77.0213C11.0687 80.7387 12.9185 84.1815 15.9198 86.0134L49.4117 106.498C50.8736 107.393 52.4966 107.84 54.1255 107.84 55.7545 107.84 57.3775 107.399 58.8394 106.498L92.3311 86.0134C95.3264 84.1815 97.1821 80.7387 97.1821 77.0213L97.1821 36.3869C97.1821 32.6695 95.3324 29.2386 92.3311 27.3948L58.8394 6.91063Z" fill="url(#fill1)" fill-rule="evenodd" transform="matrix(1 0 0 1.00907 354 475)"/><path d="M54.1255 6.44515C55.128 6.44515 56.2557 6.96427 57.4849 7.71013L92.3728 28.9163C94.5507 30.241 95.9887 32.7888 95.9887 35.6708L95.9887 77.7254C95.9887 80.6014 94.5507 83.1552 92.3728 84.4799L57.4909 105.686C56.3214 106.396 55.1757 106.844 54.1315 106.844 53.0873 106.844 51.9417 106.396 50.7722 105.686L15.878 84.4858C14.6787 83.7519 13.8135 83.0359 13.2287 82.0752 12.644 81.1205 12.2621 79.7959 12.2621 77.7314L12.2621 35.6768C12.2621 32.7948 13.7001 30.2469 15.878 28.9223L50.7602 7.71609C52.0073 6.97024 53.1171 6.44515 54.1255 6.44515ZM58.726 107.733 93.608 86.5265C96.5437 84.7424 98.3695 81.389 98.3695 77.7314L98.3695 35.6768C98.3695 32.0191 96.5437 28.6657 93.608 26.8816L58.726 5.67545C57.467 4.9117 55.85 4.05844 54.1255 4.05844 52.3952 4.05844 50.7781 4.91766 49.5311 5.66949L49.5251 5.66949 14.6369 26.8816C11.7012 28.6657 9.87538 32.0191 9.87538 35.6768L9.87538 77.7314C9.87538 80.0942 10.3169 81.8783 11.1881 83.3163 12.0592 84.7484 13.2884 85.7031 14.6369 86.5205L49.5191 107.727C50.8438 108.532 52.4369 109.236 54.1196 109.236 55.8022 109.236 57.4013 108.538 58.726 107.733Z" fill="url(#fill2)" fill-rule="evenodd" transform="matrix(1 0 0 1.00907 354 475)"/><path d="M54.1255 112.805C55.9514 112.805 57.7474 112.297 59.3346 111.331L96.3109 88.8595C99.6166 86.8487 101.663 83.0717 101.663 78.9904L101.663 34.4118C101.663 30.3424 99.6166 26.5594 96.3109 24.5426L59.3346 2.07144C56.1543 0.138179 52.0849 0.150113 48.9225 2.07144L11.9459 24.5545C8.64024 26.5654 6.58168 30.3424 6.58168 34.4237L6.58168 78.9963C6.58168 82.4332 8.04355 85.6673 10.49 87.7974L10.49 87.8153 48.9225 111.343C50.4977 112.297 52.2997 112.805 54.1255 112.805ZM54.5134 4.77442C55.6769 4.77442 57.1567 5.49641 58.177 6.12294L94.4314 28.3137C96.669 29.6741 97.9339 33.6122 97.9339 36.4465L97.558 78.9904C97.558 81.8246 95.6486 84.3725 93.4111 85.7329L57.3715 107.44C55.3249 108.687 53.6601 108.687 51.6075 107.44L15.0844 85.6792C12.8469 84.3188 11.0449 81.8127 11.0449 78.9904L11.0449 35.0502C11.0449 32.222 12.6738 29.3042 14.9233 27.9378L51.0705 6.12294C52.0849 5.50238 53.3499 4.77442 54.5134 4.77442Z" fill="#F2F1F0" transform="matrix(1 0 0 1.00907 354 475)"/><path d="M58.8394 6.91063C57.3775 6.0156 55.7545 5.56807 54.1255 5.56807 52.4966 5.56807 50.8736 6.02157 49.4117 6.91063L15.9198 27.3948C12.9244 29.2267 11.0687 32.6576 11.0687 36.3869L11.0687 77.0213C11.0687 80.7387 12.9185 84.1815 15.9198 86.0134L49.4117 106.498C50.8736 107.393 52.4966 107.84 54.1255 107.84 55.7545 107.84 57.3775 107.399 58.8394 106.498L92.3311 86.0134C95.3264 84.1815 97.1821 80.7387 97.1821 77.0213L97.1821 36.3869C97.1821 32.6695 95.3324 29.2386 92.3311 27.3948L58.8394 6.91063Z" fill="url(#fill3)" fill-rule="evenodd" transform="matrix(1 0 0 1.00907 354 475)"/><path d="M54.1255 6.44515C55.128 6.44515 56.2557 6.96427 57.4849 7.71013L92.3728 28.9163C94.5507 30.241 95.9887 32.7888 95.9887 35.6708L95.9887 77.7254C95.9887 80.6014 94.5507 83.1552 92.3728 84.4799L57.4909 105.686C56.3214 106.396 55.1757 106.844 54.1315 106.844 53.0873 106.844 51.9417 106.396 50.7722 105.686L15.878 84.4858C14.6787 83.7519 13.8135 83.0359 13.2287 82.0752 12.644 81.1205 12.2621 79.7959 12.2621 77.7314L12.2621 35.6768C12.2621 32.7948 13.7001 30.2469 15.878 28.9223L50.7602 7.71609C52.0073 6.97024 53.1171 6.44515 54.1255 6.44515ZM58.726 107.733 93.608 86.5265C96.5437 84.7424 98.3695 81.389 98.3695 77.7314L98.3695 35.6768C98.3695 32.0191 96.5437 28.6657 93.608 26.8816L58.726 5.67545C57.467 4.9117 55.85 4.05844 54.1255 4.05844 52.3952 4.05844 50.7781 4.91766 49.5311 5.66949L49.5251 5.66949 14.6369 26.8816C11.7012 28.6657 9.87538 32.0191 9.87538 35.6768L9.87538 77.7314C9.87538 80.0942 10.3169 81.8783 11.1881 83.3163 12.0592 84.7484 13.2884 85.7031 14.6369 86.5205L49.5191 107.727C50.8438 108.532 52.4369 109.236 54.1196 109.236 55.8022 109.236 57.4013 108.538 58.726 107.733Z" fill="#002D4C" fill-rule="evenodd" transform="matrix(1 0 0 1.00907 354 475)"/><path d="M92.516 83.1552 54.4895 105.543 15.5618 82.9225 53.6542 60.5349 92.516 83.1552Z" fill="#1F1D21" fill-opacity="0.4" transform="matrix(1 0 0 1.00907 354 475)"/><path d="M54.5253 101.199 54.3941 103.085 15.5618 80.6671 15.5618 78.7815 54.5253 101.199Z" fill="#0078D4" transform="matrix(1 0 0 1.00907 354 475)"/><path d="M15.5618 78.7815 53.5289 56.3221 92.516 78.7398 54.5253 101.199 15.5618 78.7815Z" fill="url(#fill4)" transform="matrix(1 0 0 1.00907 354 475)"/><path d="M54.5253 101.199 92.516 78.7398 92.516 80.6253 54.3941 103.085 54.5253 101.199Z" fill="#185A97" transform="matrix(1 0 0 1.00907 354 475)"/><path d="M16.6239 33.5168 53.9108 11.4096 91.2212 33.1409 53.9108 54.6514 16.6239 33.5168Z" fill="#1E9FE0" fill-opacity="0.5" transform="matrix(1 0 0 1.00907 354 475)"/><path d="M16.6239 76.168 53.9406 54.6514 91.2212 75.7862 53.5886 97.2967 16.6239 76.168Z" fill="#1E9FE0" fill-opacity="0.5" transform="matrix(1 0 0 1.00907 354 475)"/><path d="M53.9406 54.6514 53.5588 97.2967 91.2272 75.7802 91.2272 33.1349 53.9406 54.6514Z" fill="#1E9FE0" fill-opacity="0.25" transform="matrix(1 0 0 1.00907 354 475)"/><path d="M16.6239 33.5168 16.6239 76.168 53.9108 54.6574 53.9108 11.4096 16.6239 33.5168Z" fill="#1E9FE0" fill-opacity="0.25" transform="matrix(1 0 0 1.00907 354 475)"/><path d="M16.6239 33.5168 53.9108 11.4096 91.2212 33.1409 53.9108 54.6514 16.6239 33.5168Z" fill="#1E9FE0" fill-opacity="0.25" transform="matrix(1 0 0 1.00907 354 475)"/><path d="M16.6239 76.168 53.9406 54.6514 91.2212 75.7862 53.5886 97.2967 16.6239 76.168Z" fill="#1E9FE0" fill-opacity="0.25" transform="matrix(1 0 0 1.00907 354 475)"/><path d="M54.1215 11.281C54.1682 11.2536 54.226 11.2536 54.2727 11.281L91.297 33.0123C91.3429 33.0391 91.371 33.0882 91.3704 33.1413 91.3704 33.1942 91.3423 33.2432 91.2964 33.2699L54.2722 54.7804C54.2264 54.807 54.1701 54.8073 54.1241 54.7814L16.5508 33.6468C16.5043 33.6206 16.4753 33.5717 16.4748 33.5182 16.4742 33.4649 16.5023 33.4153 16.5483 33.3882L54.1215 11.281ZM54.1973 11.5827 16.923 33.5139 54.196 54.4796 90.9259 33.1402 54.1973 11.5827Z" fill="#50E6FF" fill-rule="evenodd" transform="matrix(1 0 0 1.00907 354 475)"/><path d="M54.135 54.5219C54.1809 54.4957 54.2372 54.4957 54.2831 54.5219L91.3012 75.6567C91.3477 75.6829 91.3764 75.7325 91.3764 75.7856 91.377 75.8393 91.3483 75.8888 91.3018 75.9151L53.9375 97.4256C53.8917 97.4524 53.8354 97.4524 53.7894 97.4262L16.5503 76.2975C16.5037 76.2713 16.4748 76.2217 16.4748 76.168 16.4747 76.1143 16.5033 76.0648 16.5498 76.0386L54.135 54.5219ZM54.2092 54.8232 16.9252 76.1674 53.8625 97.1248 90.9277 75.7868 54.2092 54.8232Z" fill="#50E6FF" fill-rule="evenodd" transform="matrix(1 0 0 1.00907 354 475)"/><path d="M91.2958 33.0057C91.3423 33.0323 91.3704 33.0816 91.3704 33.1349L91.3704 75.7802C91.3704 75.8333 91.3423 75.8828 91.2958 75.9091L53.8956 97.4256C53.8493 97.4524 53.7922 97.4524 53.746 97.4256 53.6998 97.3981 53.6716 97.3486 53.6721 97.2955L54.0539 54.6501C54.0544 54.5974 54.0826 54.5489 54.1282 54.5225L91.1466 33.006C91.1926 32.9791 91.2499 32.979 91.2958 33.0057ZM54.3516 54.7377 53.9727 97.0371 91.0721 75.6937 91.0721 33.3942 54.3516 54.7377Z" fill="#50E6FF" fill-rule="evenodd" transform="matrix(1 0 0 1.00907 354 475)"/><path d="M54.2832 11.2802C54.3296 11.3067 54.3583 11.3561 54.3583 11.4096L54.3583 54.6574C54.3583 54.7109 54.3297 54.7603 54.2832 54.7869L16.6981 76.2975C16.6519 76.3238 16.5951 76.3238 16.5491 76.2969 16.5031 76.2701 16.4748 76.2212 16.4748 76.168L16.4748 33.5168C16.4748 33.464 16.5028 33.415 16.5483 33.3882L54.1335 11.281C54.1796 11.254 54.2368 11.2536 54.2832 11.2802ZM16.7731 33.6021 16.7731 75.9109 54.06 54.5709 54.06 11.6704 16.7731 33.6021Z" fill="#50E6FF" fill-rule="evenodd" transform="matrix(1 0 0 1.00907 354 475)"/><path d="M54.1215 11.281C54.1682 11.2536 54.226 11.2536 54.2727 11.281L91.297 33.0123C91.3429 33.0391 91.371 33.0882 91.3704 33.1413 91.3704 33.1942 91.3423 33.2432 91.2964 33.2699L54.2722 54.7804C54.2264 54.807 54.1701 54.8073 54.1241 54.7814L16.5508 33.6468C16.5043 33.6206 16.4753 33.5717 16.4748 33.5182 16.4742 33.4649 16.5023 33.4153 16.5483 33.3882L54.1215 11.281ZM54.1973 11.5827 16.923 33.5139 54.196 54.4796 90.9259 33.1402 54.1973 11.5827Z" fill="#50E6FF" fill-rule="evenodd" transform="matrix(1 0 0 1.00907 354 475)"/><path d="M54.135 54.5219C54.1809 54.4957 54.2372 54.4957 54.2831 54.5219L91.3012 75.6567C91.3477 75.6829 91.3764 75.7325 91.3764 75.7856 91.377 75.8393 91.3483 75.8888 91.3018 75.9151L53.9375 97.4256C53.8917 97.4524 53.8354 97.4524 53.7894 97.4262L16.5503 76.2975C16.5037 76.2713 16.4748 76.2217 16.4748 76.168 16.4747 76.1143 16.5033 76.0648 16.5498 76.0386L54.135 54.5219ZM54.2092 54.8232 16.9252 76.1674 53.8625 97.1248 90.9277 75.7868 54.2092 54.8232Z" fill="#50E6FF" fill-rule="evenodd" transform="matrix(1 0 0 1.00907 354 475)"/><path d="M76.2802 48.7621 71.4113 51.6202 71.4709 68.1546C71.453 75.2074 67.6044 79.3424 63.4515 81.753L68.3204 78.8949C72.4734 76.4843 76.316 72.3433 76.3399 65.2905L76.2802 48.7621Z" fill="#0088DB" transform="matrix(1 0 0 1.00907 354 475)"/><path d="M75.958 47.6522C75.7492 47.2882 75.4687 46.9839 75.1704 46.8049 63.9587 39.9967 66.5543 35.8318 58.1592 30.9808 49.7698 26.1357 52.3356 33.284 41.0224 27.0844 40.7241 26.9233 40.4376 26.8935 40.2228 27.0128L35.3539 29.871C35.5687 29.7456 35.8551 29.7755 36.1535 29.9426 47.4666 36.1421 44.9068 28.9938 53.2902 33.8389 61.6853 38.684 59.09 42.8548 70.2955 49.657 70.5938 49.836 70.8802 50.1344 71.0831 50.5043 71.2919 50.8743 71.4053 51.274 71.4053 51.6142L76.2743 48.756C76.2802 48.4219 76.1669 48.0161 75.958 47.6522Z" fill="#1CA5F9" transform="matrix(1 0 0 1.00907 354 475)"/><path d="M53.2902 33.8389C61.6859 38.684 59.09 42.8548 70.2961 49.657 70.5944 49.836 70.8808 50.1344 71.0837 50.5043 71.2925 50.8743 71.4059 51.274 71.4059 51.6142L71.4656 68.1486C71.4238 81.8306 56.9837 84.5395 53.8511 84.9751 53.6721 84.999 53.4633 84.9512 53.2485 84.826 53.0396 84.7066 52.8308 84.5157 52.6518 84.283 49.4297 80.1718 34.9362 60.7378 34.978 47.0793L35.0257 30.6049C35.0257 30.2648 35.1451 29.9963 35.3539 29.871 35.5687 29.7456 35.8551 29.7755 36.1535 29.9426 47.4666 36.1421 44.9068 28.9998 53.2902 33.8389Z" fill="url(#fill5)" transform="matrix(1 0 0 1.00907 354 475)"/><path d="M71.4119 51.6201 71.4715 68.1546C71.4298 81.8366 56.9897 84.5455 53.8511 84.9811 53.6781 85.0109 53.4692 84.9572 53.2544 84.8379 53.0396 84.7185 52.8308 84.5216 52.6518 84.2889 49.4297 80.1778 34.9422 60.7497 34.9839 47.0853L35.0317 30.6108C35.0317 30.2707 35.151 30.0022 35.3599 29.8769 35.5687 29.7516 35.8551 29.7814 36.1594 29.9485 47.4666 36.1421 44.9068 28.9998 53.2962 33.8449 61.6859 38.69 59.09 42.8548 70.2961 49.663 70.5944 49.842 70.8808 50.1403 71.0897 50.5163 71.2985 50.8743 71.4119 51.28 71.4119 51.6201ZM69.8545 67.3431 69.9261 52.1452C69.9202 51.829 69.8128 51.471 69.6218 51.1428 69.4368 50.8146 69.1803 50.5282 68.9118 50.3552 58.6186 44.2033 61.1071 40.3547 53.2843 35.8438 45.4677 31.3269 47.8962 37.8964 37.6273 32.2935 37.4721 32.2219 37.3289 32.1861 37.1976 32.1861 37.0604 32.1861 36.947 32.2338 36.8516 32.3114 36.7621 32.3949 36.6905 32.5083 36.6487 32.6575 36.6129 32.8066 36.6069 32.9737 36.6308 33.1587L36.589 48.1355C36.5532 60.7139 49.74 78.4354 52.6041 82.1289 52.7711 82.3437 52.9561 82.5108 53.153 82.6182 53.3499 82.7316 53.5349 82.7853 53.702 82.7614 56.578 82.3855 69.8187 79.9212 69.8545 67.3431Z" fill="#1B93EB" transform="matrix(1 0 0 1.00907 354 475)"/><path d="M53.0099 54.1621C55.7546 55.7492 57.9803 59.5979 57.9683 62.7546 57.9564 65.917 55.7188 67.1879 52.9741 65.6008 50.2233 64.0136 47.9977 60.165 48.0037 57.0023 48.0156 53.8458 50.2532 52.5689 53.0099 54.1621Z" fill="#FFFFFF" transform="matrix(1 0 0 1.00907 354 475)"/><path d="M53.0337 44.2212C56.4169 46.1724 59.6691 49.4959 62.1812 53.5474 64.6872 57.5989 66.2744 62.0922 66.6265 66.1676 66.6384 66.3824 66.6205 66.5793 66.5549 66.7345 66.5012 66.8956 66.3997 67.0209 66.2744 67.0984 66.1551 67.176 66.0059 67.2058 65.8388 67.1879 65.6897 67.176 65.5286 67.1223 65.3615 67.0268L61.668 64.8967C61.3458 64.7117 61.0654 64.4313 60.8386 64.0911 60.6059 63.7331 60.4448 63.3393 60.3911 62.9634 60.1405 60.7676 59.2572 58.3865 57.9027 56.2385 56.5482 54.1023 54.8119 52.3361 53.0158 51.292 51.2138 50.2597 49.4715 50.0091 48.1111 50.5819 46.7506 51.1607 45.8556 52.5211 45.5931 54.4186 45.5394 54.7289 45.3783 54.9377 45.1396 55.0272 44.9128 55.1048 44.6324 55.063 44.34 54.8959L40.6585 52.7717C40.4496 52.6524 40.2885 52.5211 40.1394 52.36 39.9723 52.187 39.8231 51.9781 39.7038 51.7633 39.5785 51.5366 39.483 51.2979 39.4293 51.0771 39.3696 50.8504 39.3458 50.6296 39.3637 50.4327 39.7336 46.775 41.3387 44.1198 43.8627 42.9801 46.3867 41.8226 49.6505 42.2641 53.0337 44.2212Z" fill="#C3F1FF" transform="matrix(1 0 0 1.00907 354 475)"/><path d="M21.0811 60.702 21.6002 60.4036C21.8628 60.2485 22.2148 60.2724 22.6146 60.511L22.1074 60.8094C21.7136 60.5707 21.3496 60.5528 21.0811 60.702Z" fill="#243A5E" transform="matrix(1 0 0 1.00907 354 475)"/><path d="M20.4844 60.2067C20.1145 59.9979 19.8042 60.165 19.8042 60.6005 19.8042 61.0361 20.1085 61.5552 20.4785 61.77L21.3437 62.2772C21.2243 61.9729 21.1587 61.6746 21.1587 61.3822 21.1587 61.0958 21.2243 60.881 21.3437 60.7199L20.4844 60.2067Z" fill="#EAF7FA" transform="matrix(1 0 0 1.00907 354 475)"/><path d="M20.4725 65.6187C20.1026 65.4098 19.7923 65.5829 19.7923 66.0125 19.7923 66.448 20.0966 66.9672 20.4665 67.1879L26.0575 70.416C25.9381 70.1117 25.8725 69.8193 25.8725 69.5269 25.8725 69.2405 25.9381 69.0138 26.0575 68.8527L20.4725 65.6187Z" fill="#B5E3F0" transform="matrix(1 0 0 1.00907 354 475)"/><path d="M20.4606 71.036C20.0847 70.8271 19.7803 71.0002 19.7803 71.4238 19.7803 71.8594 20.0847 72.3785 20.4546 72.5933L30.7236 78.5184C30.6042 78.2141 30.5386 77.9217 30.5386 77.6293 30.5386 77.3429 30.6042 77.1222 30.7236 76.967L20.4606 71.036Z" fill="#74CFEB" transform="matrix(1 0 0 1.00907 354 475)"/><path d="M23.6887 62.0558C23.808 62.3482 23.8677 62.6466 23.8677 62.933 23.8677 63.2194 23.6648 63.3686 23.5454 63.5297L33.9337 69.5323C34.3096 69.7531 34.6139 69.5741 34.6139 69.1385 34.6139 68.7029 34.3096 68.1838 33.9397 67.969L23.6887 62.0558Z" fill="#EAF7FA" transform="matrix(1 0 0 1.00907 354 475)"/><path d="M28.4024 70.2066C28.5217 70.4989 28.5814 70.8033 28.5814 71.0897 28.5814 71.3761 28.5158 71.6028 28.3964 71.7639L33.9277 74.9562C34.3036 75.1769 34.6079 74.9926 34.6079 74.563 34.6079 74.1274 34.3036 73.6077 33.9337 73.3929L28.4024 70.2066Z" fill="#B5E3F0" transform="matrix(1 0 0 1.00907 354 475)"/><path d="M33.0506 78.3042C33.17 78.5966 33.2296 78.8949 33.2296 79.1813 33.2296 79.4677 33.164 79.6945 33.0447 79.8615L33.9039 80.3568C34.2798 80.5776 34.5841 80.3985 34.5841 79.963 34.5841 79.5274 34.2798 79.0083 33.9099 78.7935L33.0506 78.3042Z" fill="#74CFEB" transform="matrix(1 0 0 1.00907 354 475)"/><path d="M30.4848 77.0452 30.9622 76.7767C31.2068 76.6335 31.541 76.6514 31.9109 76.8781L31.4336 77.1466C31.0696 76.9258 30.7295 76.902 30.4848 77.0452Z" fill="#243A5E" transform="matrix(1 0 0 1.00907 354 475)"/><path d="M32.8537 80.0226 32.3764 80.2911C32.621 80.1479 32.7702 79.8556 32.7702 79.4319 32.7702 78.5846 32.1795 77.5583 31.4455 77.1227L31.9229 76.8542C32.6568 77.2839 33.2595 78.3161 33.2475 79.1634 33.2475 79.5811 33.0984 79.8794 32.8537 80.0226Z" fill="#243A5E" transform="matrix(1 0 0 1.00907 354 475)"/><path d="M31.4455 77.1406C32.1795 77.5703 32.7821 78.6025 32.7702 79.4498 32.7702 80.2971 32.1735 80.6372 31.4336 80.2136 30.6997 79.784 30.097 78.7517 30.109 77.9104 30.097 77.0511 30.6937 76.717 31.4455 77.1406Z" fill="#2E76BC" transform="matrix(1 0 0 1.00907 354 475)"/><path d="M25.8486 68.8044 26.326 68.5359C26.5706 68.3926 26.9048 68.4105 27.2747 68.6373L26.7974 68.9058C26.4334 68.685 26.0992 68.6671 25.8486 68.8044Z" fill="#243A5E" transform="matrix(1 0 0 1.00907 354 475)"/><path d="M28.2234 71.7764 27.7461 72.045C27.9907 71.9017 28.1399 71.6094 28.1399 71.1857 28.1399 70.3384 27.5492 69.3121 26.8153 68.8766L27.2926 68.608C28.0265 69.0377 28.6292 70.0699 28.6173 70.9172 28.6113 71.3468 28.4621 71.6332 28.2234 71.7764Z" fill="#243A5E" transform="matrix(1 0 0 1.00907 354 475)"/><path d="M26.8033 68.8945C27.5372 69.3241 28.1398 70.3557 28.1279 71.203 28.1279 72.0503 27.5312 72.3904 26.7913 71.9668 26.0574 71.5372 25.4548 70.5049 25.4667 69.6636 25.4667 68.8103 26.0753 68.4708 26.8033 68.8945Z" fill="#2E76BC" transform="matrix(1 0 0 1.00907 354 475)"/><path d="M23.4858 63.6436 23.0084 63.9121C23.253 63.7689 23.4022 63.4766 23.4022 63.0529 23.4022 62.2056 22.728 61.1913 21.9941 60.7557L22.5549 60.4752C23.2889 60.9048 23.8915 61.9371 23.8796 62.7844 23.8796 63.214 23.7244 63.5064 23.4858 63.6436Z" fill="#243A5E" transform="matrix(1 0 0 1.00907 354 475)"/><path d="M22.0716 60.7616C22.8055 61.1913 23.4082 62.2235 23.3963 63.0708 23.3963 63.9181 22.7996 64.2582 22.0597 63.8346 21.3317 63.405 20.7291 62.3727 20.735 61.5314 20.735 60.6841 21.3377 60.338 22.0716 60.7616Z" fill="#2E76BC" transform="matrix(1 0 0 1.00907 354 475)"/><path d="M54.1215 11.281C54.1682 11.2536 54.226 11.2536 54.2727 11.281L91.297 33.0123C91.3429 33.0391 91.371 33.0882 91.3704 33.1413 91.3704 33.1942 91.3423 33.2432 91.2964 33.2699L54.2722 54.7804C54.2264 54.807 54.1701 54.8073 54.1241 54.7814L16.5508 33.6468C16.5043 33.6206 16.4753 33.5717 16.4748 33.5182 16.4742 33.4649 16.5023 33.4153 16.5483 33.3882L54.1215 11.281ZM54.1973 11.5827 16.923 33.5139 54.196 54.4796 90.9259 33.1402 54.1973 11.5827Z" fill="#50E6FF" fill-rule="evenodd" transform="matrix(1 0 0 1.00907 354 475)"/><path d="M54.2031 54.6514 53.8212 97.2967" stroke="#50E6FF" stroke-width="0.298343" stroke-linejoin="round" stroke-miterlimit="10" fill="none" transform="matrix(1 0 0 1.00907 354 475)"/></g></svg>