<svg width="181" height="191" viewBox="0 0 181 191" fill="none" xmlns="http://www.w3.org/2000/svg">
<path d="M90.806 189.681C93.866 189.681 96.876 188.831 99.536 187.211L161.506 149.551C167.046 146.181 170.476 139.851 170.476 133.011V58.3012C170.476 51.4812 167.046 45.1412 161.506 41.7612L99.536 4.10122C94.206 0.861217 87.386 0.881217 82.086 4.10122L20.116 41.7812C14.576 45.1512 11.126 51.4812 11.126 58.3212V133.021C11.126 138.781 13.576 144.201 17.676 147.771V147.801L82.086 187.231C84.726 188.831 87.746 189.681 90.806 189.681ZM91.456 8.63122C93.406 8.63122 95.886 9.84122 97.596 10.8912L158.356 48.0812C162.106 50.3612 164.226 56.9612 164.226 61.7112L163.596 133.011C163.596 137.761 160.396 142.031 156.646 144.311L96.246 180.691C92.816 182.781 90.026 182.781 86.586 180.691L25.376 144.221C21.626 141.941 18.606 137.741 18.606 133.011V59.3712C18.606 54.6312 21.336 49.7412 25.106 47.4512L85.686 10.8912C87.386 9.85122 89.506 8.63122 91.456 8.63122Z" fill="#F2F1F0"/>
<path fill-rule="evenodd" clip-rule="evenodd" d="M98.7055 12.2109C96.2555 10.7109 93.5355 9.96094 90.8055 9.96094C88.0755 9.96094 85.3555 10.7209 82.9055 12.2109L26.7755 46.5409C21.7555 49.6109 18.6455 55.3609 18.6455 61.6109V129.711C18.6455 135.941 21.7455 141.711 26.7755 144.781L82.9055 179.111C85.3555 180.611 88.0755 181.361 90.8055 181.361C93.5355 181.361 96.2555 180.621 98.7055 179.111L154.836 144.781C159.856 141.711 162.966 135.941 162.966 129.711V61.6109C162.966 55.3809 159.866 49.6309 154.836 46.5409L98.7055 12.2109Z" fill="url(#paint0_linear)"/>
<path fill-rule="evenodd" clip-rule="evenodd" d="M90.8055 11.4312C92.4855 11.4312 94.3755 12.3012 96.4355 13.5512L154.906 49.0912C158.556 51.3112 160.966 55.5812 160.966 60.4112V130.891C160.966 135.711 158.556 139.991 154.906 142.211L96.4455 177.751C94.4855 178.941 92.5655 179.691 90.8155 179.691C89.0655 179.691 87.1455 178.941 85.1855 177.751L26.7055 142.221C24.6955 140.991 23.2455 139.791 22.2655 138.181C21.2855 136.581 20.6455 134.361 20.6455 130.901V60.4212C20.6455 55.5912 23.0555 51.3212 26.7055 49.1012L85.1655 13.5612C87.2555 12.3112 89.1155 11.4312 90.8055 11.4312ZM98.5155 181.181L156.976 145.641C161.896 142.651 164.956 137.031 164.956 130.901V60.4212C164.956 54.2912 161.896 48.6712 156.976 45.6812L98.5155 10.1412C96.4055 8.86115 93.6955 7.43115 90.8055 7.43115C87.9055 7.43115 85.1955 8.87115 83.1055 10.1312H83.0955L24.6255 45.6812C19.7055 48.6712 16.6455 54.2912 16.6455 60.4212V130.901C16.6455 134.861 17.3855 137.851 18.8455 140.261C20.3055 142.661 22.3655 144.261 24.6255 145.631L83.0855 181.171C85.3055 182.521 87.9755 183.701 90.7955 183.701C93.6155 183.701 96.2955 182.531 98.5155 181.181Z" fill="url(#paint1_linear)"/>
<path opacity="0.5" d="M149.366 132.841C152.436 134.571 152.446 137.371 149.376 139.111L96.5061 170.021C93.5761 171.761 88.6461 171.771 85.5661 170.041L30.8261 138.551C27.7561 136.821 27.7461 134.021 30.8161 132.281L83.6961 101.371C86.6261 99.6313 91.5561 99.6213 94.6361 101.351L149.366 132.841Z" fill="#1F1D20"/>
<path d="M149.356 131.021V131.151L96.6063 161.941C93.5463 163.681 88.7463 163.691 85.6663 161.961L30.9263 130.471V130.601C29.4563 129.671 28.4863 131.411 28.4863 130.211L28.4963 133.101C28.4963 134.301 29.4663 135.361 30.9363 136.301L85.6763 167.661C88.7463 169.391 93.6863 169.381 96.6163 167.641L149.366 136.861C150.836 136.061 151.626 134.721 151.626 133.651L151.616 131.021C151.616 132.211 150.956 130.221 149.356 131.021Z" fill="#989899"/>
<path d="M149.336 127.571C152.406 129.301 152.416 132.101 149.346 133.841L96.4659 164.751C93.5359 166.491 88.6059 166.501 85.5259 164.771L30.7959 133.281C29.2159 132.391 28.4459 131.221 28.4859 130.051C28.5259 128.951 29.2959 127.861 30.7759 127.011L83.6559 96.1013C86.5859 94.3613 91.5159 94.3513 94.5959 96.0813L149.336 127.571Z" fill="white"/>
<path d="M106.115 125.101L130.515 138.801" stroke="url(#paint2_linear)" stroke-width="0.9" stroke-miterlimit="10" stroke-linejoin="round"/>
<path fill-rule="evenodd" clip-rule="evenodd" d="M114.985 147.733L90.7246 134.063L91.1664 133.279L115.426 146.949L114.985 147.733Z" fill="url(#paint3_linear)"/>
<path fill-rule="evenodd" clip-rule="evenodd" d="M121.22 116.926C121.356 116.852 121.519 116.853 121.654 116.928L145.654 130.278C145.797 130.357 145.885 130.507 145.885 130.671C145.886 130.834 145.797 130.984 145.655 131.064L91.055 161.584C90.9172 161.661 90.7491 161.66 90.612 161.582L66.252 147.652C66.1104 147.571 66.0237 147.42 66.0254 147.256C66.0271 147.093 66.1169 146.944 66.2601 146.866L121.22 116.926ZM67.3986 147.271L90.8379 160.674L144.511 130.672L121.433 117.835L67.3986 147.271Z" fill="url(#paint4_linear)"/>
<path opacity="0.2" d="M92.2461 104.951L129.716 126.581L134.106 124.051L97.1761 102.051L92.2461 104.951Z" fill="#1F1D21"/>
<path d="M129.826 70.1312L134.206 68.9912V121.281L129.746 123.881L129.826 70.1312Z" fill="#1D4A79"/>
<path d="M129.826 66.1512V61.6712L92.2656 40.0112V102.221L129.746 123.881L129.826 71.5912V66.1512Z" fill="#185A97"/>
<path d="M92.2656 40.0111L96.6756 37.4111L126.686 54.7011L124.046 58.4211L92.2656 40.0111Z" fill="#50E6FF"/>
<path d="M126.676 54.7012L122.386 57.4712L129.856 71.6212L134.206 68.9912L126.676 54.7012Z" fill="#32B0E7"/>
<path d="M95.9564 45.2513C96.7364 45.6913 97.2864 46.6813 97.2864 47.5713C97.2864 48.4513 96.7364 48.7912 95.9564 48.3512C95.1764 47.9112 94.5264 46.8112 94.5264 46.0312C94.5264 45.2512 95.1864 44.8113 95.9564 45.2513Z" fill="#399DE5"/>
<path d="M129.596 109.161L100.926 92.6709V79.4409L129.616 95.9609L129.596 109.161Z" fill="#243A5E"/>
<path d="M129.616 95.9608L134.206 93.3608V106.611L129.596 109.161L129.616 95.9608Z" fill="#1A2C45"/>
<path opacity="0.2" d="M76.3564 112.901L113.826 134.531L118.686 131.631L81.2764 110.001L76.3564 112.901Z" fill="#1F1D21"/>
<path d="M113.927 78.0814L118.337 76.9414L118.257 129.231L113.847 131.831L113.927 78.0814Z" fill="#0078D4"/>
<path d="M113.926 74.1014V69.6214L76.3662 47.9614V110.171L113.856 131.831L113.926 79.5414V74.1014Z" fill="#399DE5"/>
<path d="M76.3662 47.9613L80.7762 45.3613L110.786 62.6513L108.146 66.3713L76.3662 47.9613Z" fill="#50E6FF"/>
<path d="M110.786 62.6514L106.496 65.4114L113.966 79.5714L118.336 76.9414L110.786 62.6514Z" fill="#32B0E7"/>
<path d="M80.0667 53.1912C80.8467 53.6312 81.3967 54.6212 81.3967 55.5112C81.3967 56.3912 80.8467 56.7312 80.0667 56.2912C79.2867 55.8512 78.6367 54.7512 78.6367 53.9712C78.6367 53.1912 79.2867 52.7512 80.0667 53.1912Z" fill="#45CAF2"/>
<path d="M114.016 118.271L85.3457 101.781V88.5513L114.036 105.071L114.016 118.271Z" fill="#1988D9"/>
<path d="M114.045 105.081L118.485 102.481L118.415 115.731L114.025 118.281L114.045 105.081Z" fill="#1D4A79"/>
<path opacity="0.2" d="M59.7061 120.851L97.1761 142.481L102.036 139.581L64.6261 117.951L59.7061 120.851Z" fill="#1F1D21"/>
<path d="M97.2763 86.0213L101.686 84.8813L101.606 137.171L97.1963 139.771L97.2763 86.0213Z" fill="#32B0E7"/>
<path d="M97.2758 82.0514V77.5614L59.7158 55.9014V118.121L97.2058 139.781L97.2758 87.4914V82.0514Z" fill="#9CEBFF"/>
<path d="M59.7158 55.9013L64.1258 53.3013L94.1358 70.5913L91.4958 74.3113L59.7158 55.9013Z" fill="#50E6FF"/>
<path d="M94.1357 70.5913L89.8457 73.3613L97.3057 87.5113L101.686 84.8913L94.1357 70.5913Z" fill="#45CAF2"/>
<path d="M63.4163 61.1414C64.1963 61.5814 64.7463 62.5714 64.7463 63.4614C64.7463 64.3414 64.1963 64.6814 63.4163 64.2414C62.6363 63.8014 61.9863 62.7014 61.9863 61.9214C61.9863 61.1414 62.6363 60.7014 63.4163 61.1414Z" fill="#45CAF2"/>
<path d="M97.2364 127.391L68.5664 110.901V97.6709L97.2564 114.191L97.2364 127.391Z" fill="#1988D9"/>
<path d="M97.2661 114.191L101.706 111.591L101.636 124.841L97.2461 127.391L97.2661 114.191Z" fill="#1D4A79"/>
<path d="M143.735 129.881C143.065 130.271 143.065 130.891 143.725 131.271C144.395 131.661 145.455 131.661 146.125 131.271C146.795 130.881 146.795 130.271 146.135 129.881C145.485 129.491 144.395 129.491 143.735 129.881Z" fill="#0078D4"/>
<path d="M144.195 130.151C143.775 130.391 143.775 130.771 144.195 131.011C144.595 131.251 145.265 131.251 145.675 131.011C146.095 130.771 146.095 130.391 145.675 130.151C145.275 129.911 144.605 129.911 144.195 130.151Z" fill="white"/>
<path d="M65.8954 146.371C65.2254 146.761 65.2254 147.381 65.8854 147.761C66.5554 148.151 67.6154 148.151 68.2854 147.761C68.9554 147.371 68.9554 146.761 68.2954 146.371C67.6454 145.981 66.5654 145.981 65.8954 146.371Z" fill="#9CEBFF"/>
<path d="M66.355 146.631C65.935 146.871 65.935 147.251 66.355 147.491C66.755 147.731 67.425 147.731 67.835 147.491C68.255 147.251 68.255 146.871 67.835 146.631C67.435 146.391 66.775 146.391 66.355 146.631Z" fill="white"/>
<path d="M129.206 137.941C128.536 138.331 128.536 138.951 129.196 139.331C129.866 139.721 130.926 139.721 131.596 139.331C132.266 138.941 132.266 138.331 131.606 137.941C130.956 137.561 129.876 137.561 129.206 137.941Z" fill="#0078D4"/>
<path d="M129.666 138.211C129.246 138.451 129.246 138.831 129.666 139.071C130.066 139.311 130.736 139.311 131.146 139.071C131.566 138.831 131.566 138.451 131.146 138.211C130.746 137.971 130.086 137.971 129.666 138.211Z" fill="white"/>
<path d="M114.015 146.431C113.345 146.821 113.345 147.441 114.005 147.821C114.675 148.211 115.735 148.211 116.405 147.821C117.075 147.431 117.075 146.821 116.415 146.431C115.765 146.041 114.685 146.041 114.015 146.431Z" fill="#0078D4"/>
<path d="M114.475 146.691C114.055 146.931 114.055 147.311 114.475 147.551C114.875 147.791 115.545 147.791 115.955 147.551C116.375 147.311 116.375 146.931 115.955 146.691C115.555 146.461 114.895 146.461 114.475 146.691Z" fill="white"/>
<path fill-rule="evenodd" clip-rule="evenodd" d="M62.6265 130.399L79.4265 139.869L78.9846 140.653L62.1846 131.183L62.6265 130.399Z" fill="url(#paint5_linear)"/>
<path d="M91.966 94.7207L89.446 96.0907L89.516 117.961C89.486 127.291 84.406 132.761 78.916 135.951L81.436 134.581C86.916 131.391 92.016 125.921 92.046 116.591L91.966 94.7207Z" fill="#0088DB"/>
<path d="M91.5356 93.2509C91.2656 92.7609 90.8856 92.3708 90.4856 92.1308C75.6656 83.1308 79.0956 77.6309 68.0056 71.2109C56.9056 64.8109 60.2956 74.2508 45.3356 66.0608C44.9456 65.8408 44.5756 65.8209 44.2856 65.9709L41.7656 67.3409C42.0556 67.1809 42.4256 67.2109 42.8256 67.4309C57.7856 75.6309 54.3956 66.1809 65.4956 72.5809C76.5956 78.9809 73.1656 84.5009 87.9956 93.5009C88.3856 93.7409 88.7756 94.1309 89.0456 94.6209C89.3156 95.1109 89.4756 95.6409 89.4756 96.0809L91.9956 94.7109C91.9656 94.2709 91.8056 93.7309 91.5356 93.2509Z" fill="#1CA5F9"/>
<path d="M65.4858 72.5808C76.5858 78.9808 73.1558 84.5008 87.9858 93.5008C88.3758 93.7408 88.7658 94.1308 89.0358 94.6208C89.3058 95.1108 89.4658 95.6408 89.4658 96.0808L89.5358 117.951C89.4758 136.041 70.3858 139.621 66.2458 140.201C66.0058 140.231 65.7258 140.171 65.4458 140.001C65.1758 139.841 64.8958 139.581 64.6558 139.281C60.3758 133.851 41.2058 108.151 41.2658 90.0808L41.3258 68.3008C41.3258 67.8408 41.4858 67.5008 41.7558 67.3208C42.0458 67.1608 42.4158 67.1908 42.8158 67.4108C57.7758 75.6208 54.3858 66.1808 65.4858 72.5808Z" fill="url(#paint6_linear)"/>
<path d="M89.4458 96.081L89.5158 117.951C89.4558 136.041 70.3658 139.621 66.2158 140.201C65.9858 140.241 65.7158 140.171 65.4258 140.011C65.1358 139.851 64.8658 139.591 64.6358 139.291C60.3558 133.831 41.2058 108.151 41.2658 90.091L41.3258 68.301C41.3258 67.841 41.4858 67.501 41.7558 67.321C42.0458 67.161 42.4158 67.211 42.8158 67.421C57.7658 75.601 54.3758 66.161 65.4858 72.571C76.5958 78.991 73.1558 84.491 87.9658 93.491C88.3558 93.731 88.7458 94.121 89.0158 94.611C89.2958 95.111 89.4458 95.641 89.4458 96.081ZM87.3858 116.871L87.4858 96.771C87.4758 96.351 87.3258 95.881 87.0858 95.431C86.8458 95.001 86.4958 94.611 86.1358 94.401C72.5258 86.281 75.8058 81.181 65.4758 75.221C55.1358 69.251 58.3558 77.931 44.7758 70.531C44.5758 70.431 44.3858 70.391 44.2058 70.391C44.0158 70.391 43.8758 70.451 43.7458 70.561C43.6358 70.671 43.5458 70.821 43.4858 71.021C43.4458 71.221 43.4258 71.441 43.4758 71.681L43.4058 91.491C43.3458 108.121 60.7958 131.551 64.5858 136.441C64.8058 136.731 65.0558 136.941 65.3058 137.091C65.5658 137.231 65.8058 137.311 66.0258 137.281C69.8258 136.771 87.3358 133.511 87.3858 116.871Z" fill="#1B93EB"/>
<path d="M65.2157 97.1008C68.8457 99.2008 71.7957 104.291 71.7757 108.461C71.7657 112.641 68.8057 114.321 65.1757 112.221C61.5457 110.121 58.5957 105.031 58.5957 100.851C58.6057 96.6908 61.5657 95.0108 65.2157 97.1008Z" fill="white"/>
<path d="M65.246 83.9609C69.726 86.5409 74.016 90.941 77.336 96.291C80.656 101.651 82.746 107.591 83.206 112.971C83.216 113.261 83.196 113.521 83.106 113.721C83.036 113.941 82.906 114.091 82.736 114.211C82.576 114.311 82.376 114.351 82.166 114.321C81.976 114.311 81.746 114.231 81.536 114.101L76.656 111.291C76.226 111.051 75.856 110.671 75.546 110.231C75.226 109.761 75.026 109.241 74.956 108.741C74.626 105.841 73.466 102.681 71.666 99.8509C69.876 97.0209 67.576 94.7009 65.206 93.3209C62.826 91.9609 60.526 91.6309 58.716 92.3909C56.926 93.1509 55.726 94.9509 55.386 97.4609C55.316 97.8809 55.096 98.151 54.786 98.261C54.486 98.361 54.116 98.301 53.736 98.091L48.886 95.2509C48.616 95.0909 48.396 94.9209 48.196 94.7009C47.976 94.4709 47.776 94.201 47.626 93.911C47.466 93.611 47.336 93.291 47.266 93.011C47.176 92.711 47.156 92.421 47.176 92.161C47.666 87.321 49.786 83.821 53.116 82.301C56.446 80.791 60.776 81.3809 65.246 83.9609Z" fill="#C3F1FF"/>
<path d="M89.6664 92.0911C89.6264 92.0911 89.5764 92.0811 89.5364 92.0611L89.3164 91.9311C89.1964 91.8611 89.1564 91.7011 89.2264 91.5811C89.2964 91.4611 89.4564 91.4211 89.5764 91.4911L89.7964 91.6211C89.9164 91.6911 89.9564 91.8511 89.8864 91.9711C89.8364 92.0511 89.7564 92.0911 89.6664 92.0911ZM90.9964 92.0211C90.9064 92.0211 90.8264 91.9711 90.7764 91.8911C90.7064 91.7711 90.7464 91.6111 90.8664 91.5411L91.0864 91.4111C91.2064 91.3411 91.3664 91.3811 91.4364 91.5011C91.5064 91.6211 91.4664 91.7811 91.3464 91.8511L91.1264 91.9811C91.0764 92.0111 91.0364 92.0211 90.9964 92.0211ZM88.1164 91.1911C88.0764 91.1911 88.0264 91.1811 87.9864 91.1511L87.7664 91.0211C87.6464 90.9511 87.6064 90.7911 87.6764 90.6711C87.7464 90.5511 87.9064 90.5011 88.0264 90.5811L88.2464 90.7111C88.3664 90.7811 88.4064 90.9411 88.3364 91.0611C88.2864 91.1511 88.1964 91.1911 88.1164 91.1911ZM92.5364 91.1111C92.4464 91.1111 92.3664 91.0611 92.3164 90.9811C92.2464 90.8611 92.2864 90.7011 92.4064 90.6311L92.6264 90.5011C92.7464 90.4311 92.9064 90.4711 92.9764 90.5911C93.0464 90.7111 93.0064 90.8711 92.8864 90.9411L92.6664 91.0711C92.6264 91.1011 92.5864 91.1111 92.5364 91.1111ZM86.5664 90.2911C86.5264 90.2911 86.4764 90.2811 86.4364 90.2511L86.2164 90.1211C86.0964 90.0511 86.0564 89.8911 86.1264 89.7711C86.1964 89.6511 86.3564 89.6111 86.4764 89.6811L86.6964 89.8111C86.8164 89.8811 86.8564 90.0411 86.7864 90.1611C86.7364 90.2411 86.6464 90.2911 86.5664 90.2911ZM94.0864 90.2011C93.9964 90.2011 93.9164 90.1511 93.8664 90.0711C93.7964 89.9511 93.8364 89.7911 93.9564 89.7211L94.1764 89.5911C94.2964 89.5211 94.4564 89.5611 94.5264 89.6811C94.5964 89.8011 94.5564 89.9611 94.4364 90.0311L94.2164 90.1611C94.1764 90.1911 94.1264 90.2011 94.0864 90.2011ZM85.0164 89.3911C84.9764 89.3911 84.9264 89.3811 84.8864 89.3611L84.6664 89.2311C84.5464 89.1611 84.5064 89.0011 84.5764 88.8811C84.6464 88.7611 84.8064 88.7211 84.9264 88.7911L85.1464 88.9211C85.2664 88.9911 85.3064 89.1511 85.2364 89.2711C85.1864 89.3411 85.0964 89.3911 85.0164 89.3911ZM95.6364 89.2911C95.5464 89.2911 95.4664 89.2411 95.4164 89.1611C95.3464 89.0411 95.3864 88.8811 95.5064 88.8111L95.7264 88.6811C95.8464 88.6111 96.0064 88.6511 96.0764 88.7711C96.1464 88.8911 96.1064 89.0511 95.9864 89.1211L95.7664 89.2511C95.7164 89.2811 95.6764 89.2911 95.6364 89.2911ZM83.4664 88.4811C83.4264 88.4811 83.3764 88.4711 83.3364 88.4411L83.1164 88.3111C82.9964 88.2411 82.9564 88.0811 83.0264 87.9611C83.0964 87.8411 83.2564 87.8011 83.3764 87.8711L83.5964 88.0011C83.7164 88.0711 83.7564 88.2311 83.6864 88.3511C83.6364 88.4411 83.5464 88.4811 83.4664 88.4811ZM97.1764 88.3811C97.0864 88.3811 97.0064 88.3311 96.9564 88.2511C96.8864 88.1311 96.9264 87.9711 97.0464 87.9011L97.2664 87.7711C97.3864 87.7011 97.5464 87.7411 97.6164 87.8611C97.6864 87.9811 97.6464 88.1411 97.5264 88.2111L97.3064 88.3411C97.2664 88.3711 97.2264 88.3811 97.1764 88.3811ZM81.9064 87.5811C81.8664 87.5811 81.8164 87.5711 81.7764 87.5411L81.5564 87.4111C81.4364 87.3411 81.3964 87.1811 81.4664 87.0611C81.5364 86.9411 81.6964 86.8911 81.8164 86.9711L82.0364 87.1011C82.1564 87.1711 82.1964 87.3311 82.1264 87.4511C82.0864 87.5411 81.9964 87.5811 81.9064 87.5811ZM98.7264 87.4711C98.6364 87.4711 98.5564 87.4211 98.5064 87.3411C98.4364 87.2211 98.4764 87.0611 98.5964 86.9911L98.8164 86.8611C98.9364 86.7911 99.0964 86.8311 99.1664 86.9511C99.2364 87.0711 99.1964 87.2311 99.0764 87.3011L98.8564 87.4311C98.8164 87.4611 98.7664 87.4711 98.7264 87.4711ZM80.3564 86.6811C80.3164 86.6811 80.2664 86.6711 80.2264 86.6511L80.0064 86.5211C79.8864 86.4511 79.8464 86.2911 79.9164 86.1711C79.9864 86.0511 80.1464 86.0111 80.2664 86.0811L80.4864 86.2111C80.6064 86.2811 80.6464 86.4411 80.5764 86.5611C80.5364 86.6311 80.4464 86.6811 80.3564 86.6811ZM100.276 86.5611C100.186 86.5611 100.106 86.5111 100.056 86.4311C99.9864 86.3111 100.026 86.1511 100.146 86.0811L100.366 85.9511C100.486 85.8711 100.646 85.9211 100.716 86.0411C100.786 86.1611 100.746 86.3211 100.626 86.3911L100.406 86.5211C100.356 86.5511 100.316 86.5611 100.276 86.5611ZM78.8064 85.7811C78.7664 85.7811 78.7164 85.7711 78.6764 85.7411L78.4564 85.6111C78.3364 85.5411 78.2964 85.3811 78.3664 85.2611C78.4364 85.1411 78.5964 85.0911 78.7164 85.1711L78.9364 85.3011C79.0564 85.3711 79.0964 85.5311 79.0264 85.6511C78.9864 85.7311 78.8964 85.7811 78.8064 85.7811ZM101.816 85.6611C101.726 85.6611 101.646 85.6111 101.596 85.5311C101.526 85.4111 101.566 85.2511 101.686 85.1811L101.906 85.0511C102.026 84.9811 102.186 85.0211 102.256 85.1411C102.326 85.2611 102.286 85.4211 102.166 85.4911L101.946 85.6211C101.906 85.6411 101.866 85.6611 101.816 85.6611ZM77.2564 84.8711C77.2164 84.8711 77.1664 84.8611 77.1264 84.8311L76.9064 84.7011C76.7864 84.6311 76.7464 84.4711 76.8164 84.3511C76.8864 84.2311 77.0464 84.1811 77.1664 84.2611L77.3864 84.3911C77.5064 84.4611 77.5464 84.6211 77.4764 84.7411C77.4364 84.8311 77.3464 84.8711 77.2564 84.8711ZM103.366 84.7511C103.276 84.7511 103.196 84.7011 103.146 84.6211C103.076 84.5011 103.116 84.3411 103.236 84.2711L103.456 84.1411C103.576 84.0711 103.736 84.1111 103.806 84.2311C103.876 84.3511 103.836 84.5111 103.716 84.5811L103.496 84.7111C103.456 84.7311 103.406 84.7511 103.366 84.7511ZM75.7064 83.9711C75.6664 83.9711 75.6164 83.9611 75.5764 83.9411L75.3564 83.8111C75.2364 83.7411 75.1964 83.5811 75.2664 83.4611C75.3364 83.3411 75.4964 83.3011 75.6164 83.3711L75.8364 83.5011C75.9564 83.5711 75.9964 83.7311 75.9264 83.8511C75.8864 83.9211 75.7964 83.9711 75.7064 83.9711ZM104.906 83.8411C104.816 83.8411 104.736 83.7911 104.686 83.7111C104.616 83.5911 104.656 83.4311 104.776 83.3611L104.996 83.2311C105.116 83.1511 105.276 83.2011 105.346 83.3211C105.416 83.4411 105.376 83.6011 105.256 83.6711L105.036 83.8011C104.996 83.8311 104.956 83.8411 104.906 83.8411ZM74.1564 83.0711C74.1164 83.0711 74.0664 83.0611 74.0264 83.0311L73.8064 82.9011C73.6864 82.8311 73.6464 82.6711 73.7164 82.5511C73.7864 82.4311 73.9464 82.3811 74.0664 82.4611L74.2864 82.5911C74.4064 82.6611 74.4464 82.8211 74.3764 82.9411C74.3364 83.0211 74.2464 83.0711 74.1564 83.0711ZM106.456 82.9311C106.366 82.9311 106.286 82.8811 106.236 82.8011C106.166 82.6811 106.206 82.5211 106.326 82.4511L106.546 82.3211C106.666 82.2511 106.826 82.2911 106.896 82.4111C106.966 82.5311 106.926 82.6911 106.806 82.7611L106.586 82.8911C106.546 82.9211 106.496 82.9311 106.456 82.9311ZM72.6064 82.1611C72.5664 82.1611 72.5164 82.1511 72.4764 82.1211L72.2564 81.9911C72.1364 81.9211 72.0964 81.7611 72.1664 81.6411C72.2364 81.5211 72.3964 81.4811 72.5164 81.5511L72.7364 81.6811C72.8564 81.7511 72.8964 81.9111 72.8264 82.0311C72.7864 82.1211 72.6964 82.1611 72.6064 82.1611ZM108.006 82.0211C107.916 82.0211 107.836 81.9711 107.786 81.8911C107.716 81.7711 107.756 81.6111 107.876 81.5411L108.096 81.4111C108.216 81.3411 108.376 81.3811 108.446 81.5011C108.516 81.6211 108.476 81.7811 108.356 81.8511L108.136 81.9811C108.096 82.0111 108.046 82.0211 108.006 82.0211ZM71.0564 81.2611C71.0164 81.2611 70.9664 81.2511 70.9264 81.2211L70.7064 81.0911C70.5864 81.0211 70.5464 80.8611 70.6164 80.7411C70.6864 80.6211 70.8464 80.5711 70.9664 80.6511L71.1864 80.7811C71.3064 80.8511 71.3464 81.0111 71.2764 81.1311C71.2264 81.2211 71.1464 81.2611 71.0564 81.2611ZM109.546 81.1111C109.456 81.1111 109.376 81.0611 109.326 80.9811C109.256 80.8611 109.296 80.7011 109.416 80.6311L109.636 80.5011C109.756 80.4311 109.916 80.4711 109.986 80.5911C110.056 80.7111 110.016 80.8711 109.896 80.9411L109.676 81.0711C109.636 81.1011 109.596 81.1111 109.546 81.1111ZM69.5064 80.3611C69.4664 80.3611 69.4164 80.3511 69.3764 80.3211L69.1564 80.1911C69.0364 80.1211 68.9964 79.9611 69.0664 79.8411C69.1364 79.7211 69.2964 79.6811 69.4164 79.7511L69.6364 79.8811C69.7564 79.9511 69.7964 80.1111 69.7264 80.2311C69.6764 80.3111 69.5964 80.3611 69.5064 80.3611ZM111.096 80.2011C111.006 80.2011 110.926 80.1511 110.876 80.0711C110.806 79.9511 110.846 79.7911 110.966 79.7211L111.186 79.5911C111.306 79.5211 111.466 79.5611 111.536 79.6811C111.606 79.8011 111.566 79.9611 111.446 80.0311L111.226 80.1611C111.186 80.1911 111.136 80.2011 111.096 80.2011ZM67.9564 79.4611C67.9164 79.4611 67.8664 79.4511 67.8264 79.4211L67.6064 79.2911C67.4864 79.2211 67.4464 79.0611 67.5164 78.9411C67.5864 78.8211 67.7464 78.7711 67.8664 78.8511L68.0864 78.9811C68.2064 79.0511 68.2464 79.2111 68.1764 79.3311C68.1264 79.4111 68.0464 79.4611 67.9564 79.4611ZM112.646 79.2911C112.556 79.2911 112.476 79.2411 112.426 79.1611C112.356 79.0411 112.396 78.8811 112.516 78.8111L112.736 78.6811C112.856 78.6111 113.016 78.6511 113.086 78.7711C113.156 78.8911 113.116 79.0511 112.996 79.1211L112.776 79.2511C112.736 79.2811 112.686 79.2911 112.646 79.2911ZM66.4064 78.5511C66.3664 78.5511 66.3164 78.5411 66.2764 78.5111L66.0564 78.3811C65.9364 78.3111 65.8964 78.1511 65.9664 78.0311C66.0364 77.9111 66.1964 77.8711 66.3164 77.9411L66.5364 78.0711C66.6564 78.1411 66.6964 78.3011 66.6264 78.4211C66.5764 78.5111 66.4964 78.5511 66.4064 78.5511ZM114.186 78.3811C114.096 78.3811 114.016 78.3311 113.966 78.2511C113.896 78.1311 113.936 77.9711 114.056 77.9011L114.276 77.7711C114.396 77.7011 114.556 77.7411 114.626 77.8611C114.696 77.9811 114.656 78.1411 114.536 78.2111L114.316 78.3411C114.276 78.3711 114.236 78.3811 114.186 78.3811ZM64.8564 77.6511C64.8164 77.6511 64.7664 77.6411 64.7264 77.6111L64.5064 77.4811C64.3864 77.4111 64.3464 77.2511 64.4164 77.1311C64.4864 77.0111 64.6464 76.9611 64.7664 77.0411L64.9864 77.1711C65.1064 77.2411 65.1464 77.4011 65.0764 77.5211C65.0264 77.6111 64.9464 77.6511 64.8564 77.6511ZM115.736 77.4711C115.646 77.4711 115.566 77.4211 115.516 77.3411C115.446 77.2211 115.486 77.0611 115.606 76.9911L115.826 76.8611C115.946 76.7911 116.106 76.8311 116.176 76.9511C116.246 77.0711 116.206 77.2311 116.086 77.3011L115.866 77.4311C115.826 77.4611 115.776 77.4711 115.736 77.4711ZM63.3064 76.7511C63.2664 76.7511 63.2164 76.7411 63.1764 76.7111L62.9564 76.5811C62.8364 76.5111 62.7964 76.3511 62.8664 76.2311C62.9364 76.1111 63.0964 76.0611 63.2164 76.1411L63.4364 76.2711C63.5564 76.3411 63.5964 76.5011 63.5264 76.6211C63.4764 76.7011 63.3964 76.7511 63.3064 76.7511ZM117.286 76.5611C117.196 76.5611 117.116 76.5111 117.066 76.4311C116.996 76.3111 117.036 76.1511 117.156 76.0811L117.376 75.9511C117.496 75.8811 117.656 75.9211 117.726 76.0411C117.796 76.1611 117.756 76.3211 117.636 76.3911L117.416 76.5211C117.376 76.5511 117.326 76.5611 117.286 76.5611ZM61.7564 75.8511C61.7164 75.8511 61.6664 75.8411 61.6264 75.8111L61.4064 75.6811C61.2864 75.6111 61.2464 75.4511 61.3164 75.3311C61.3864 75.2111 61.5464 75.1611 61.6664 75.2411L61.8864 75.3711C62.0064 75.4411 62.0464 75.6011 61.9764 75.7211C61.9264 75.8011 61.8464 75.8511 61.7564 75.8511ZM118.826 75.6511C118.736 75.6511 118.656 75.6011 118.606 75.5211C118.536 75.4011 118.576 75.2411 118.696 75.1711L118.916 75.0411C119.036 74.9711 119.196 75.0111 119.266 75.1311C119.336 75.2511 119.296 75.4111 119.176 75.4811L118.956 75.6111C118.916 75.6411 118.876 75.6511 118.826 75.6511ZM60.2064 74.9411C60.1664 74.9411 60.1164 74.9311 60.0764 74.9011L59.8564 74.7711C59.7364 74.7011 59.6964 74.5411 59.7664 74.4211C59.8364 74.3011 59.9964 74.2511 60.1164 74.3311L60.3364 74.4611C60.4564 74.5311 60.4964 74.6911 60.4264 74.8111C60.3764 74.9011 60.2864 74.9411 60.2064 74.9411ZM120.376 74.7411C120.286 74.7411 120.206 74.6911 120.156 74.6111C120.086 74.4911 120.126 74.3311 120.246 74.2611L120.466 74.1311C120.586 74.0611 120.746 74.1011 120.816 74.2211C120.886 74.3411 120.846 74.5011 120.726 74.5711L120.506 74.7011C120.466 74.7311 120.416 74.7411 120.376 74.7411ZM58.6564 74.0411C58.6164 74.0411 58.5664 74.0311 58.5264 74.0011L58.3064 73.8711C58.1864 73.8011 58.1464 73.6411 58.2164 73.5211C58.2864 73.4011 58.4464 73.3611 58.5664 73.4311L58.7864 73.5611C58.9064 73.6311 58.9464 73.7911 58.8764 73.9111C58.8264 73.9911 58.7364 74.0411 58.6564 74.0411ZM121.926 73.8311C121.836 73.8311 121.756 73.7811 121.706 73.7011C121.636 73.5811 121.676 73.4211 121.796 73.3511L122.016 73.2211C122.136 73.1511 122.296 73.1911 122.366 73.3111C122.436 73.4311 122.396 73.5911 122.276 73.6611L122.056 73.7911C122.016 73.8211 121.966 73.8311 121.926 73.8311ZM57.1064 73.1411C57.0664 73.1411 57.0164 73.1311 56.9764 73.1011L56.7564 72.9711C56.6364 72.9011 56.5964 72.7411 56.6664 72.6211C56.7364 72.5011 56.8964 72.4511 57.0164 72.5311L57.2364 72.6611C57.3564 72.7311 57.3964 72.8911 57.3264 73.0111C57.2764 73.0911 57.1864 73.1411 57.1064 73.1411ZM123.466 72.9211C123.376 72.9211 123.296 72.8711 123.246 72.7911C123.176 72.6711 123.216 72.5111 123.336 72.4411L123.556 72.3111C123.676 72.2411 123.836 72.2811 123.906 72.4011C123.976 72.5211 123.936 72.6811 123.816 72.7511L123.596 72.8811C123.556 72.9111 123.516 72.9211 123.466 72.9211ZM55.5464 72.2311C55.5064 72.2311 55.4564 72.2211 55.4164 72.1911L55.1964 72.0611C55.0764 71.9911 55.0364 71.8311 55.1064 71.7111C55.1764 71.5911 55.3364 71.5511 55.4564 71.6211L55.6764 71.7511C55.7964 71.8211 55.8364 71.9811 55.7664 72.1011C55.7264 72.1911 55.6364 72.2311 55.5464 72.2311ZM125.016 72.0111C124.926 72.0111 124.846 71.9611 124.796 71.8811C124.726 71.7611 124.766 71.6011 124.886 71.5311L125.106 71.4011C125.226 71.3311 125.386 71.3711 125.456 71.4911C125.526 71.6111 125.486 71.7711 125.366 71.8411L125.146 71.9711C125.106 72.0011 125.056 72.0111 125.016 72.0111ZM53.9964 71.3311C53.9564 71.3311 53.9064 71.3211 53.8664 71.2911L53.6464 71.1611C53.5264 71.0911 53.4864 70.9311 53.5564 70.8111C53.6264 70.6911 53.7864 70.6411 53.9064 70.7211L54.1264 70.8511C54.2464 70.9211 54.2864 71.0811 54.2164 71.2011C54.1764 71.2911 54.0864 71.3311 53.9964 71.3311ZM126.566 71.1011C126.476 71.1011 126.396 71.0511 126.346 70.9711C126.276 70.8511 126.316 70.6911 126.436 70.6211L126.656 70.4911C126.776 70.4211 126.936 70.4611 127.006 70.5811C127.076 70.7011 127.036 70.8611 126.916 70.9311L126.696 71.0611C126.656 71.0911 126.606 71.1011 126.566 71.1011ZM52.4464 70.4311C52.4064 70.4311 52.3564 70.4211 52.3164 70.3911L52.0964 70.2611C51.9764 70.1911 51.9364 70.0311 52.0064 69.9111C52.0764 69.7911 52.2364 69.7511 52.3564 69.8211L52.5764 69.9511C52.6964 70.0211 52.7364 70.1811 52.6664 70.3011C52.6264 70.3811 52.5364 70.4311 52.4464 70.4311ZM128.106 70.1911C128.016 70.1911 127.936 70.1411 127.886 70.0611C127.816 69.9411 127.856 69.7811 127.976 69.7111L128.196 69.5811C128.316 69.5011 128.476 69.5511 128.546 69.6711C128.616 69.7911 128.576 69.9511 128.456 70.0211L128.236 70.1511C128.196 70.1811 128.156 70.1911 128.106 70.1911ZM50.8964 69.5311C50.8564 69.5311 50.8064 69.5211 50.7664 69.4911L50.5464 69.3611C50.4264 69.2911 50.3864 69.1311 50.4564 69.0111C50.5264 68.8911 50.6864 68.8411 50.8064 68.9211L51.0264 69.0511C51.1464 69.1211 51.1864 69.2811 51.1164 69.4011C51.0764 69.4811 50.9864 69.5311 50.8964 69.5311ZM129.656 69.2811C129.566 69.2811 129.486 69.2311 129.436 69.1511C129.366 69.0311 129.406 68.8711 129.526 68.8011L129.746 68.6711C129.866 68.6011 130.026 68.6411 130.096 68.7611C130.166 68.8811 130.126 69.0411 130.006 69.1111L129.786 69.2411C129.746 69.2711 129.696 69.2811 129.656 69.2811ZM49.3464 68.6211C49.3064 68.6211 49.2564 68.6111 49.2164 68.5911L48.9964 68.4611C48.8764 68.3911 48.8364 68.2311 48.9064 68.1111C48.9764 67.9911 49.1364 67.9511 49.2564 68.0211L49.4764 68.1511C49.5964 68.2211 49.6364 68.3811 49.5664 68.5011C49.5264 68.5811 49.4364 68.6211 49.3464 68.6211ZM131.206 68.3711C131.116 68.3711 131.036 68.3211 130.986 68.2411C130.916 68.1211 130.956 67.9611 131.076 67.8911L131.296 67.7611C131.416 67.6911 131.576 67.7311 131.646 67.8511C131.716 67.9711 131.676 68.1311 131.556 68.2011L131.336 68.3311C131.296 68.3611 131.246 68.3711 131.206 68.3711ZM47.7964 67.7211C47.7564 67.7211 47.7064 67.7111 47.6664 67.6811L47.4464 67.5511C47.3264 67.4811 47.2864 67.3211 47.3564 67.2011C47.4264 67.0811 47.5864 67.0311 47.7064 67.1111L47.9264 67.2411C48.0464 67.3111 48.0864 67.4711 48.0164 67.5911C47.9764 67.6711 47.8864 67.7211 47.7964 67.7211ZM132.746 67.4611C132.656 67.4611 132.576 67.4111 132.526 67.3311C132.456 67.2111 132.496 67.0511 132.616 66.9811L132.836 66.8511C132.956 66.7811 133.116 66.8211 133.186 66.9411C133.256 67.0611 133.216 67.2211 133.096 67.2911L132.876 67.4211C132.836 67.4511 132.796 67.4611 132.746 67.4611ZM46.2464 66.8211C46.2064 66.8211 46.1564 66.8111 46.1164 66.7811L45.8964 66.6511C45.7764 66.5811 45.7364 66.4211 45.8064 66.3011C45.8764 66.1811 46.0364 66.1311 46.1564 66.2111L46.3764 66.3411C46.4964 66.4111 46.5364 66.5711 46.4664 66.6911C46.4164 66.7711 46.3364 66.8211 46.2464 66.8211ZM134.296 66.5511C134.206 66.5511 134.126 66.5011 134.076 66.4211C134.006 66.3011 134.046 66.1411 134.166 66.0711L134.386 65.9411C134.506 65.8711 134.666 65.9111 134.736 66.0311C134.806 66.1511 134.766 66.3111 134.646 66.3811L134.426 66.5111C134.386 66.5411 134.346 66.5511 134.296 66.5511ZM44.6964 65.9111C44.6564 65.9111 44.6064 65.9011 44.5664 65.8811L44.3464 65.7511C44.2264 65.6811 44.1864 65.5211 44.2564 65.4011C44.3264 65.2811 44.4864 65.2411 44.6064 65.3111L44.8264 65.4411C44.9464 65.5111 44.9864 65.6711 44.9164 65.7911C44.8664 65.8711 44.7864 65.9111 44.6964 65.9111ZM135.846 65.6411C135.756 65.6411 135.676 65.5911 135.626 65.5111C135.556 65.3911 135.596 65.2311 135.716 65.1611L135.936 65.0311C136.056 64.9611 136.216 65.0011 136.286 65.1211C136.356 65.2411 136.316 65.4011 136.196 65.4711L135.976 65.6011C135.936 65.6311 135.886 65.6411 135.846 65.6411ZM43.1464 65.0111C43.1064 65.0111 43.0564 65.0011 43.0164 64.9711L42.7964 64.8411C42.6764 64.7711 42.6364 64.6111 42.7064 64.4911C42.7764 64.3711 42.9364 64.3211 43.0564 64.4011L43.2764 64.5311C43.3964 64.6011 43.4364 64.7611 43.3664 64.8811C43.3164 64.9711 43.2364 65.0111 43.1464 65.0111ZM137.386 64.7411C137.296 64.7411 137.216 64.6911 137.166 64.6111C137.096 64.4911 137.136 64.3311 137.256 64.2611L137.476 64.1311C137.596 64.0611 137.756 64.1011 137.826 64.2211C137.896 64.3411 137.856 64.5011 137.736 64.5711L137.516 64.7011C137.476 64.7211 137.436 64.7411 137.386 64.7411ZM41.5964 64.1111C41.5564 64.1111 41.5064 64.1011 41.4664 64.0711L41.2464 63.9411C41.1264 63.8711 41.0864 63.7111 41.1564 63.5911C41.2264 63.4711 41.3864 63.4311 41.5064 63.5011L41.7264 63.6311C41.8464 63.7011 41.8864 63.8611 41.8164 63.9811C41.7664 64.0611 41.6864 64.1111 41.5964 64.1111ZM138.936 63.8311C138.846 63.8311 138.766 63.7811 138.716 63.7011C138.646 63.5811 138.686 63.4211 138.806 63.3511L139.026 63.2211C139.146 63.1511 139.306 63.1911 139.376 63.3111C139.446 63.4311 139.406 63.5911 139.286 63.6611L139.066 63.7911C139.026 63.8111 138.986 63.8311 138.936 63.8311ZM40.0464 63.2111C40.0064 63.2111 39.9564 63.2011 39.9164 63.1811L39.6964 63.0511C39.5764 62.9811 39.5364 62.8211 39.6064 62.7011C39.6764 62.5811 39.8364 62.5411 39.9564 62.6111L40.1764 62.7411C40.2964 62.8111 40.3364 62.9711 40.2664 63.0911C40.2164 63.1611 40.1364 63.2111 40.0464 63.2111ZM140.486 62.9211C140.396 62.9211 140.316 62.8711 140.266 62.7911C140.196 62.6711 140.236 62.5111 140.356 62.4411L140.576 62.3111C140.696 62.2411 140.856 62.2811 140.926 62.4011C140.996 62.5211 140.956 62.6811 140.836 62.7511L140.616 62.8811C140.576 62.9011 140.526 62.9211 140.486 62.9211ZM38.4964 62.3011C38.4564 62.3011 38.4064 62.2911 38.3664 62.2611L38.1464 62.1311C38.0264 62.0611 37.9864 61.9011 38.0564 61.7811C38.1264 61.6611 38.2864 61.6211 38.4064 61.6911L38.6264 61.8211C38.7464 61.8911 38.7864 62.0511 38.7164 62.1711C38.6664 62.2611 38.5864 62.3011 38.4964 62.3011ZM142.026 62.0111C141.936 62.0111 141.856 61.9611 141.806 61.8811C141.736 61.7611 141.776 61.6011 141.896 61.5311L142.116 61.4011C142.236 61.3311 142.396 61.3711 142.466 61.4911C142.536 61.6111 142.496 61.7711 142.376 61.8411L142.156 61.9711C142.116 61.9911 142.076 62.0111 142.026 62.0111ZM36.9464 61.4011C36.9064 61.4011 36.8564 61.3911 36.8164 61.3611L36.5964 61.2311C36.4764 61.1611 36.4364 61.0011 36.5064 60.8811C36.5764 60.7611 36.7364 60.7111 36.8564 60.7911L37.0764 60.9211C37.1964 60.9911 37.2364 61.1511 37.1664 61.2711C37.1164 61.3511 37.0364 61.4011 36.9464 61.4011ZM143.576 61.1011C143.486 61.1011 143.406 61.0511 143.356 60.9711C143.286 60.8511 143.326 60.6911 143.446 60.6211L143.666 60.4911C143.786 60.4211 143.946 60.4611 144.016 60.5811C144.086 60.7011 144.046 60.8611 143.926 60.9311L143.706 61.0611C143.666 61.0911 143.626 61.1011 143.576 61.1011ZM35.3964 60.5011C35.3564 60.5011 35.3064 60.4911 35.2664 60.4711L35.0464 60.3411C34.9264 60.2711 34.8864 60.1111 34.9564 59.9911C35.0264 59.8711 35.1864 59.8311 35.3064 59.9011L35.5264 60.0311C35.6464 60.1011 35.6864 60.2611 35.6164 60.3811C35.5664 60.4511 35.4864 60.5011 35.3964 60.5011ZM145.126 60.1911C145.036 60.1911 144.956 60.1411 144.906 60.0611C144.836 59.9411 144.876 59.7811 144.996 59.7111L145.216 59.5811C145.336 59.5111 145.496 59.5511 145.566 59.6711C145.636 59.7911 145.596 59.9511 145.476 60.0211L145.256 60.1511C145.216 60.1811 145.166 60.1911 145.126 60.1911ZM33.8464 59.5911C33.8064 59.5911 33.7564 59.5811 33.7164 59.5511L33.4964 59.4211C33.3764 59.3511 33.3364 59.1911 33.4064 59.0711C33.4764 58.9511 33.6364 58.9011 33.7564 58.9811L33.9764 59.1111C34.0964 59.1811 34.1364 59.3411 34.0664 59.4611C34.0164 59.5511 33.9264 59.5911 33.8464 59.5911ZM146.666 59.2811C146.576 59.2811 146.496 59.2311 146.446 59.1511C146.376 59.0311 146.416 58.8711 146.536 58.8011L146.756 58.6711C146.876 58.6011 147.036 58.6411 147.106 58.7611C147.176 58.8811 147.136 59.0411 147.016 59.1111L146.796 59.2411C146.756 59.2711 146.716 59.2811 146.666 59.2811ZM32.2964 58.6911C32.2564 58.6911 32.2064 58.6811 32.1664 58.6511L31.9464 58.5211C31.8264 58.4511 31.7864 58.2911 31.8564 58.1711C31.9264 58.0511 32.0864 58.0011 32.2064 58.0811L32.4264 58.2111C32.5464 58.2811 32.5864 58.4411 32.5164 58.5611C32.4664 58.6511 32.3764 58.6911 32.2964 58.6911ZM148.216 58.3711C148.126 58.3711 148.046 58.3211 147.996 58.2411C147.926 58.1211 147.966 57.9611 148.086 57.8911L148.306 57.7611C148.426 57.6911 148.586 57.7311 148.656 57.8511C148.726 57.9711 148.686 58.1311 148.566 58.2011L148.346 58.3311C148.306 58.3611 148.256 58.3711 148.216 58.3711ZM30.7464 57.7911C30.7064 57.7911 30.6564 57.7811 30.6164 57.7611L30.3964 57.6311C30.2764 57.5611 30.2364 57.4011 30.3064 57.2811C30.3764 57.1611 30.5364 57.1211 30.6564 57.1911L30.8764 57.3211C30.9964 57.3911 31.0364 57.5511 30.9664 57.6711C30.9164 57.7411 30.8264 57.7911 30.7464 57.7911ZM149.766 57.4611C149.676 57.4611 149.596 57.4111 149.546 57.3311C149.476 57.2111 149.516 57.0511 149.636 56.9811L149.856 56.8511C149.976 56.7811 150.136 56.8211 150.206 56.9411C150.276 57.0611 150.236 57.2211 150.116 57.2911L149.896 57.4211C149.856 57.4511 149.806 57.4611 149.766 57.4611ZM29.1864 56.8911C29.1464 56.8911 29.0964 56.8811 29.0564 56.8511L28.8364 56.7211C28.7164 56.6511 28.6764 56.4911 28.7464 56.3711C28.8164 56.2511 28.9764 56.2011 29.0964 56.2811L29.3164 56.4111C29.4364 56.4811 29.4764 56.6411 29.4064 56.7611C29.3664 56.8411 29.2764 56.8911 29.1864 56.8911Z" fill="white"/>
<path d="M90.2756 156.181C90.1356 156.181 90.0156 156.061 90.0156 155.921V155.661C90.0156 155.521 90.1356 155.401 90.2756 155.401C90.4156 155.401 90.5356 155.521 90.5356 155.661V155.921C90.5356 156.071 90.4256 156.181 90.2756 156.181ZM90.2756 154.391C90.1356 154.391 90.0156 154.271 90.0156 154.131V153.871C90.0156 153.731 90.1356 153.611 90.2756 153.611C90.4156 153.611 90.5356 153.731 90.5356 153.871V154.131C90.5356 154.271 90.4256 154.391 90.2756 154.391ZM90.2756 152.601C90.1356 152.601 90.0156 152.481 90.0156 152.341V152.081C90.0156 151.941 90.1356 151.821 90.2756 151.821C90.4156 151.821 90.5356 151.941 90.5356 152.081V152.341C90.5356 152.481 90.4256 152.601 90.2756 152.601ZM90.2756 150.801C90.1356 150.801 90.0156 150.681 90.0156 150.541V150.281C90.0156 150.141 90.1356 150.021 90.2756 150.021C90.4156 150.021 90.5356 150.141 90.5356 150.281V150.541C90.5356 150.691 90.4256 150.801 90.2756 150.801ZM90.2756 149.011C90.1356 149.011 90.0156 148.891 90.0156 148.751V148.491C90.0156 148.351 90.1356 148.231 90.2756 148.231C90.4156 148.231 90.5356 148.351 90.5356 148.491V148.751C90.5356 148.891 90.4256 149.011 90.2756 149.011ZM90.2756 147.211C90.1356 147.211 90.0156 147.091 90.0156 146.951V146.691C90.0156 146.551 90.1356 146.431 90.2756 146.431C90.4156 146.431 90.5356 146.551 90.5356 146.691V146.951C90.5356 147.101 90.4256 147.211 90.2756 147.211ZM90.2756 145.421C90.1356 145.421 90.0156 145.301 90.0156 145.161V144.901C90.0156 144.761 90.1356 144.641 90.2756 144.641C90.4156 144.641 90.5356 144.761 90.5356 144.901V145.161C90.5356 145.301 90.4256 145.421 90.2756 145.421ZM90.2756 143.621C90.1356 143.621 90.0156 143.501 90.0156 143.361V143.101C90.0156 142.961 90.1356 142.841 90.2756 142.841C90.4156 142.841 90.5356 142.961 90.5356 143.101V143.361C90.5356 143.511 90.4256 143.621 90.2756 143.621ZM90.2756 141.831C90.1356 141.831 90.0156 141.711 90.0156 141.571V141.311C90.0156 141.171 90.1356 141.051 90.2756 141.051C90.4156 141.051 90.5356 141.171 90.5356 141.311V141.571C90.5356 141.711 90.4256 141.831 90.2756 141.831ZM90.2756 140.041C90.1356 140.041 90.0156 139.921 90.0156 139.781V139.521C90.0156 139.381 90.1356 139.261 90.2756 139.261C90.4156 139.261 90.5356 139.381 90.5356 139.521V139.781C90.5356 139.921 90.4256 140.041 90.2756 140.041ZM90.2756 138.241C90.1356 138.241 90.0156 138.121 90.0156 137.981V137.721C90.0156 137.581 90.1356 137.461 90.2756 137.461C90.4156 137.461 90.5356 137.581 90.5356 137.721V137.981C90.5356 138.131 90.4256 138.241 90.2756 138.241ZM90.2756 136.451C90.1356 136.451 90.0156 136.331 90.0156 136.191V135.931C90.0156 135.791 90.1356 135.671 90.2756 135.671C90.4156 135.671 90.5356 135.791 90.5356 135.931V136.191C90.5356 136.331 90.4256 136.451 90.2756 136.451ZM90.2756 134.651C90.1356 134.651 90.0156 134.531 90.0156 134.391V134.131C90.0156 133.991 90.1356 133.871 90.2756 133.871C90.4156 133.871 90.5356 133.991 90.5356 134.131V134.391C90.5356 134.541 90.4256 134.651 90.2756 134.651ZM90.2756 132.861C90.1356 132.861 90.0156 132.741 90.0156 132.601V132.341C90.0156 132.201 90.1356 132.081 90.2756 132.081C90.4156 132.081 90.5356 132.201 90.5356 132.341V132.601C90.5356 132.741 90.4256 132.861 90.2756 132.861ZM90.2756 131.061C90.1356 131.061 90.0156 130.941 90.0156 130.801V130.541C90.0156 130.401 90.1356 130.281 90.2756 130.281C90.4156 130.281 90.5356 130.401 90.5356 130.541V130.801C90.5356 130.951 90.4256 131.061 90.2756 131.061ZM90.2756 129.271C90.1356 129.271 90.0156 129.151 90.0156 129.011V128.751C90.0156 128.611 90.1356 128.491 90.2756 128.491C90.4156 128.491 90.5356 128.611 90.5356 128.751V129.011C90.5356 129.151 90.4256 129.271 90.2756 129.271ZM90.2756 127.481C90.1356 127.481 90.0156 127.361 90.0156 127.221V126.961C90.0156 126.821 90.1356 126.701 90.2756 126.701C90.4156 126.701 90.5356 126.821 90.5356 126.961V127.221C90.5356 127.361 90.4256 127.481 90.2756 127.481ZM90.2756 125.681C90.1356 125.681 90.0156 125.561 90.0156 125.421V125.161C90.0156 125.021 90.1356 124.901 90.2756 124.901C90.4156 124.901 90.5356 125.021 90.5356 125.161V125.421C90.5356 125.571 90.4256 125.681 90.2756 125.681ZM90.2756 123.891C90.1356 123.891 90.0156 123.771 90.0156 123.631V123.371C90.0156 123.231 90.1356 123.111 90.2756 123.111C90.4156 123.111 90.5356 123.231 90.5356 123.371V123.631C90.5356 123.771 90.4256 123.891 90.2756 123.891ZM90.2756 122.091C90.1356 122.091 90.0156 121.971 90.0156 121.831V121.571C90.0156 121.431 90.1356 121.311 90.2756 121.311C90.4156 121.311 90.5356 121.431 90.5356 121.571V121.831C90.5356 121.981 90.4256 122.091 90.2756 122.091ZM90.2756 120.301C90.1356 120.301 90.0156 120.181 90.0156 120.041V119.781C90.0156 119.641 90.1356 119.521 90.2756 119.521C90.4156 119.521 90.5356 119.641 90.5356 119.781V120.041C90.5356 120.181 90.4256 120.301 90.2756 120.301ZM90.2756 118.501C90.1356 118.501 90.0156 118.381 90.0156 118.241V117.981C90.0156 117.841 90.1356 117.721 90.2756 117.721C90.4156 117.721 90.5356 117.841 90.5356 117.981V118.241C90.5356 118.391 90.4256 118.501 90.2756 118.501ZM90.2756 116.711C90.1356 116.711 90.0156 116.591 90.0156 116.451V116.191C90.0156 116.051 90.1356 115.931 90.2756 115.931C90.4156 115.931 90.5356 116.051 90.5356 116.191V116.451C90.5356 116.591 90.4256 116.711 90.2756 116.711ZM90.2756 114.921C90.1356 114.921 90.0156 114.801 90.0156 114.661V114.401C90.0156 114.261 90.1356 114.141 90.2756 114.141C90.4156 114.141 90.5356 114.261 90.5356 114.401V114.661C90.5356 114.801 90.4256 114.921 90.2756 114.921ZM90.2756 113.121C90.1356 113.121 90.0156 113.001 90.0156 112.861V112.601C90.0156 112.461 90.1356 112.341 90.2756 112.341C90.4156 112.341 90.5356 112.461 90.5356 112.601V112.861C90.5356 113.011 90.4256 113.121 90.2756 113.121ZM90.2756 111.331C90.1356 111.331 90.0156 111.211 90.0156 111.071V110.811C90.0156 110.671 90.1356 110.551 90.2756 110.551C90.4156 110.551 90.5356 110.671 90.5356 110.811V111.071C90.5356 111.211 90.4256 111.331 90.2756 111.331ZM90.2756 109.531C90.1356 109.531 90.0156 109.411 90.0156 109.271V109.011C90.0156 108.871 90.1356 108.751 90.2756 108.751C90.4156 108.751 90.5356 108.871 90.5356 109.011V109.271C90.5356 109.421 90.4256 109.531 90.2756 109.531ZM90.2756 107.741C90.1356 107.741 90.0156 107.621 90.0156 107.481V107.221C90.0156 107.081 90.1356 106.961 90.2756 106.961C90.4156 106.961 90.5356 107.081 90.5356 107.221V107.481C90.5356 107.621 90.4256 107.741 90.2756 107.741ZM90.2756 105.941C90.1356 105.941 90.0156 105.821 90.0156 105.681V105.421C90.0156 105.281 90.1356 105.161 90.2756 105.161C90.4156 105.161 90.5356 105.281 90.5356 105.421V105.681C90.5356 105.831 90.4256 105.941 90.2756 105.941ZM90.2756 104.151C90.1356 104.151 90.0156 104.031 90.0156 103.891V103.631C90.0156 103.491 90.1356 103.371 90.2756 103.371C90.4156 103.371 90.5356 103.491 90.5356 103.631V103.891C90.5356 104.031 90.4256 104.151 90.2756 104.151ZM90.2756 102.361C90.1356 102.361 90.0156 102.241 90.0156 102.101V101.841C90.0156 101.701 90.1356 101.581 90.2756 101.581C90.4156 101.581 90.5356 101.701 90.5356 101.841V102.101C90.5356 102.241 90.4256 102.361 90.2756 102.361ZM90.2756 100.561C90.1356 100.561 90.0156 100.441 90.0156 100.301V100.041C90.0156 99.9011 90.1356 99.7811 90.2756 99.7811C90.4156 99.7811 90.5356 99.9011 90.5356 100.041V100.301C90.5356 100.451 90.4256 100.561 90.2756 100.561ZM90.2756 98.7711C90.1356 98.7711 90.0156 98.6511 90.0156 98.5111V98.2511C90.0156 98.1111 90.1356 97.9911 90.2756 97.9911C90.4156 97.9911 90.5356 98.1111 90.5356 98.2511V98.5111C90.5356 98.6511 90.4256 98.7711 90.2756 98.7711ZM90.2756 96.9711C90.1356 96.9711 90.0156 96.8511 90.0156 96.7111V96.4511C90.0156 96.3111 90.1356 96.1911 90.2756 96.1911C90.4156 96.1911 90.5356 96.3111 90.5356 96.4511V96.7111C90.5356 96.8611 90.4256 96.9711 90.2756 96.9711ZM90.2756 95.1811C90.1356 95.1811 90.0156 95.0611 90.0156 94.9211V94.6611C90.0156 94.5211 90.1356 94.4011 90.2756 94.4011C90.4156 94.4011 90.5356 94.5211 90.5356 94.6611V94.9211C90.5356 95.0611 90.4256 95.1811 90.2756 95.1811ZM90.2756 93.3811C90.1356 93.3811 90.0156 93.2611 90.0156 93.1211V92.8611C90.0156 92.7211 90.1356 92.6011 90.2756 92.6011C90.4156 92.6011 90.5356 92.7211 90.5356 92.8611V93.1211C90.5356 93.2711 90.4256 93.3811 90.2756 93.3811Z" fill="white"/>
<path d="M29.6861 56.5311L90.2561 21.1211L150.646 56.4811V130.441L151.676 130.511V56.1811C151.676 56.0011 151.576 55.8311 151.426 55.7411L90.5161 20.0811C90.3561 19.9911 90.1561 19.9811 89.9961 20.0811L28.9161 55.7911C28.7561 55.8811 28.6661 56.0511 28.6561 56.2311L28.4561 130.401L29.4861 130.331L29.6861 56.5311Z" fill="white"/>
<path d="M77.8055 139.271C77.1355 139.661 77.1355 140.281 77.7955 140.661C78.4655 141.051 79.5255 141.051 80.1955 140.661C80.8655 140.271 80.8655 139.661 80.2055 139.271C79.5455 138.881 78.4655 138.881 77.8055 139.271Z" fill="#9CEBFF"/>
<path d="M78.2652 139.531C77.8452 139.771 77.8452 140.151 78.2652 140.391C78.6652 140.631 79.3352 140.631 79.7452 140.391C80.1652 140.151 80.1652 139.771 79.7452 139.531C79.3452 139.301 78.6752 139.301 78.2652 139.531Z" fill="white"/>
<path opacity="0.2" d="M57.3057 144.061L66.4957 149.131L69.6657 147.241L60.5157 142.171L57.3057 144.061Z" fill="#1F1D21"/>
<defs>
<linearGradient id="paint0_linear" x1="90.8054" y1="9.96124" x2="90.8054" y2="181.362" gradientUnits="userSpaceOnUse">
<stop stop-color="#00ABDE"/>
<stop offset="1" stop-color="#007ED8"/>
</linearGradient>
<linearGradient id="paint1_linear" x1="36.925" y1="4.75245" x2="203.603" y2="287.083" gradientUnits="userSpaceOnUse">
<stop stop-color="#007ED8"/>
<stop offset="0.7065" stop-color="#002D4C"/>
</linearGradient>
<linearGradient id="paint2_linear" x1="111.87" y1="121.368" x2="124.76" y2="142.545" gradientUnits="userSpaceOnUse">
<stop stop-color="#50E6FF"/>
<stop offset="1" stop-color="#0078D4"/>
</linearGradient>
<linearGradient id="paint3_linear" x1="96.6595" y1="129.969" x2="109.496" y2="151.058" gradientUnits="userSpaceOnUse">
<stop stop-color="#50E6FF"/>
<stop offset="1" stop-color="#0078D4"/>
</linearGradient>
<linearGradient id="paint4_linear" x1="98.7502" y1="127.128" x2="113.174" y2="150.825" gradientUnits="userSpaceOnUse">
<stop stop-color="#50E6FF"/>
<stop offset="1" stop-color="#0078D4"/>
</linearGradient>
<linearGradient id="paint5_linear" x1="75.2789" y1="142.882" x2="66.3174" y2="128.159" gradientUnits="userSpaceOnUse">
<stop stop-color="#50E6FF"/>
<stop offset="1" stop-color="#0078D4"/>
</linearGradient>
<linearGradient id="paint6_linear" x1="43.2336" y1="137.016" x2="67.2459" y2="92.2482" gradientUnits="userSpaceOnUse">
<stop stop-color="#1B93EB"/>
<stop offset="0.21" stop-color="#2095EB"/>
<stop offset="0.44" stop-color="#2E9CED"/>
<stop offset="0.69" stop-color="#45A7EF"/>
<stop offset="0.95" stop-color="#64B6F1"/>
<stop offset="1" stop-color="#6BB9F2"/>
</linearGradient>
</defs>
</svg>
