<svg width="103" height="103" viewBox="0 0 103 103" fill="none" xmlns="http://www.w3.org/2000/svg">
<path d="M51.5561 98.3639C25.7061 98.3639 4.74609 77.4139 4.74609 51.5539C4.74609 25.6939 25.7061 4.7439 51.5561 4.7439C77.4061 4.7439 98.3661 25.7039 98.3661 51.5539C98.3661 77.4039 77.4061 98.3639 51.5561 98.3639Z" fill="url(#paint0_linear)"/>
<path fill-rule="evenodd" clip-rule="evenodd" d="M97.456 51.5541C97.456 76.9041 76.906 97.4541 51.556 97.4541C26.206 97.4541 5.65602 76.9041 5.65602 51.5541C5.65602 26.2041 26.206 5.65406 51.556 5.65406C76.906 5.65406 97.456 26.2041 97.456 51.5541ZM51.556 1.91406C78.976 1.91406 101.196 24.1341 101.196 51.5541C101.196 78.9741 78.966 101.194 51.556 101.194C24.136 101.194 1.91602 78.9641 1.91602 51.5541C1.91602 24.1341 24.136 1.91406 51.556 1.91406Z" fill="#F2F1F0"/>
<path fill-rule="evenodd" clip-rule="evenodd" d="M94.6456 51.5539C94.6456 75.3539 75.3556 94.6439 51.5556 94.6439C27.7556 94.6439 8.46559 75.3539 8.46559 51.5539C8.46559 27.7539 27.7556 8.46388 51.5556 8.46388C75.3556 8.46388 94.6456 27.7539 94.6456 51.5539ZM51.5556 4.72388C77.4156 4.72388 98.3856 25.6939 98.3856 51.5539C98.3856 77.4139 77.4156 98.3839 51.5556 98.3839C25.6956 98.3839 4.72559 77.4139 4.72559 51.5539C4.72559 25.6939 25.6856 4.72388 51.5556 4.72388Z" fill="url(#paint1_linear)"/>
<path fill-rule="evenodd" clip-rule="evenodd" d="M43.5059 50.1838H52.3959V51.1838H43.5059V50.1838Z" fill="white"/>
<path d="M51.6455 49.0239L54.5255 50.6839L51.6455 52.3439V49.0239Z" fill="#FAF9F8"/>
<path opacity="0.2" d="M26.4757 68.664H47.3657C48.2957 68.664 49.0557 67.904 49.0557 66.974V36.304H15.8857V66.974C15.8857 67.904 16.6457 68.664 17.5757 68.664H21.1857H26.4757Z" fill="#1F1D21"/>
<path d="M26.4755 67.0241H47.9055C48.5455 67.0241 49.0555 66.5041 49.0555 65.8741V35.8141C49.0455 35.1741 48.5355 34.6641 47.9055 34.6641H17.0455C16.4055 34.6641 15.8955 35.1841 15.8955 35.8141V65.8741C15.8955 66.5141 16.4155 67.0241 17.0455 67.0241H21.1955H26.4755Z" fill="#F2F2F2"/>
<path d="M49.0655 35.244C49.0655 34.604 48.5455 34.094 47.9155 34.094H17.0455C16.4055 34.094 15.8955 34.614 15.8955 35.244V36.334H49.0655V35.244Z" fill="#0D3868"/>
<g opacity="0.15">
<path opacity="0.15" d="M23.3154 45.064V50.854C23.3154 50.984 23.4254 51.094 23.5554 51.094H31.6554C31.7754 51.094 31.8654 51.004 31.8654 50.884V42.744C31.8654 42.514 31.6554 42.334 31.4254 42.374C30.9854 42.454 30.2554 42.624 29.5454 42.994C28.4054 43.594 27.7254 44.194 26.2654 44.464C25.2454 44.654 24.2154 44.684 23.6854 44.684C23.4854 44.684 23.3154 44.854 23.3154 45.064Z" fill="#1F1D20"/>
<path opacity="0.15" d="M41.6355 45.064V50.854C41.6355 50.984 41.5255 51.094 41.3955 51.094H33.3155C33.1955 51.094 33.1055 51.004 33.1055 50.884V42.314C33.1055 42.314 34.2855 42.394 35.4155 42.994C36.5555 43.594 37.2355 44.194 38.6955 44.464C39.7155 44.654 40.7355 44.684 41.2555 44.684C41.4755 44.684 41.6355 44.854 41.6355 45.064Z" fill="#1F1D20"/>
<path opacity="0.15" d="M33.1055 61.8239V52.4939C33.1055 52.3739 33.1955 52.2839 33.3155 52.2839H41.4155C41.5255 52.2839 41.6055 52.3939 41.5755 52.4939C41.3855 53.2339 40.6055 55.7539 38.4255 57.9939C36.4855 59.9939 34.1755 61.4839 33.3855 61.9739C33.2655 62.0639 33.1055 61.9739 33.1055 61.8239Z" fill="#1F1D20"/>
<path opacity="0.15" d="M31.8553 61.8239V52.4939C31.8553 52.3739 31.7653 52.2839 31.6453 52.2839H23.5453C23.4353 52.2839 23.3553 52.3939 23.3853 52.4939C23.5753 53.2339 24.3553 55.7539 26.5353 57.9939C28.4753 59.9939 30.7753 61.4839 31.5753 61.9739C31.6853 62.0639 31.8553 61.9739 31.8553 61.8239Z" fill="#1F1D20"/>
</g>
<path d="M23.3154 44.4739V50.2639C23.3154 50.3939 23.4254 50.5039 23.5554 50.5039H31.6554C31.7754 50.5039 31.8654 50.4139 31.8654 50.2939V42.1539C31.8654 41.9239 31.6554 41.7439 31.4254 41.7839C30.9854 41.8639 30.2554 42.0339 29.5454 42.4039C28.4054 43.0039 27.7254 43.6039 26.2654 43.8739C25.2454 44.0639 24.2154 44.0939 23.6854 44.0939C23.4854 44.1039 23.3154 44.2739 23.3154 44.4739Z" fill="#0078D6"/>
<path d="M41.6355 44.4739V50.2639C41.6355 50.3939 41.5255 50.5039 41.3955 50.5039H33.3155C33.1955 50.5039 33.1055 50.4139 33.1055 50.2939V41.7239C33.1055 41.7239 34.2855 41.8039 35.4155 42.4039C36.5455 43.0039 37.2355 43.6039 38.6955 43.8739C39.7155 44.0639 40.7355 44.0939 41.2555 44.0939C41.4755 44.1039 41.6355 44.2739 41.6355 44.4739Z" fill="#0078D6"/>
<path d="M33.1055 61.2439V51.9139C33.1055 51.7939 33.1955 51.7039 33.3155 51.7039H41.4155C41.5255 51.7039 41.6055 51.8139 41.5755 51.9139C41.3855 52.6539 40.6055 55.1739 38.4255 57.4139C36.4855 59.4139 34.1755 60.9039 33.3855 61.3939C33.2655 61.4739 33.1055 61.3839 33.1055 61.2439Z" fill="#0078D6"/>
<path d="M31.8553 61.2439V51.9139C31.8553 51.7939 31.7653 51.7039 31.6453 51.7039H23.5453C23.4353 51.7039 23.3553 51.8139 23.3853 51.9139C23.5753 52.6539 24.3553 55.1739 26.5353 57.4139C28.4753 59.4139 30.7753 60.9039 31.5753 61.3939C31.6853 61.4739 31.8553 61.3839 31.8553 61.2439Z" fill="#0078D6"/>
<path opacity="0.2" d="M65.8556 68.7538H86.7456C87.6756 68.7538 88.4356 67.9938 88.4356 67.0638V36.3938H55.2656V67.0638C55.2656 67.9938 56.0256 68.7538 56.9556 68.7538H60.5656H65.8556Z" fill="#1F1D21"/>
<path d="M65.8556 67.1239H87.2856C87.9256 67.1239 88.4356 66.6039 88.4356 65.9739V35.9039C88.4256 35.2639 87.9156 34.7539 87.2856 34.7539H56.4156C55.7756 34.7539 55.2656 35.2739 55.2656 35.9039V65.9639C55.2656 66.6039 55.7856 67.1139 56.4156 67.1139H60.5656H65.8556V67.1239Z" fill="#F2F2F2"/>
<path d="M88.4356 35.3338C88.4356 34.6938 87.9156 34.1838 87.2856 34.1838H56.4156C55.7756 34.1838 55.2656 34.7038 55.2656 35.3338V36.4238H88.4356V35.3338Z" fill="#0D3868"/>
<path d="M82.1057 50.6039C82.1057 57.2939 74.0057 62.6839 72.2457 63.7839C72.1457 63.8439 72.0257 63.8839 71.9057 63.8839C71.7857 63.8839 71.6657 63.8539 71.5657 63.7839C69.7457 62.6839 61.5957 57.2839 61.5957 50.6039V42.5539C61.5957 42.3839 61.6657 42.2239 61.7757 42.1039C61.8957 41.9839 62.0557 41.9139 62.2257 41.9139C68.5857 41.7539 67.1357 38.9839 71.8457 38.9839C76.5557 38.9839 75.1157 41.7539 81.4057 41.9139C81.5757 41.9139 81.7357 41.9839 81.8557 42.1039C81.9757 42.2239 82.0357 42.3839 82.0357 42.5539L82.1057 50.6039Z" fill="#1B93EB"/>
<path d="M81.1958 50.6639C81.1958 56.8139 73.7758 61.7539 72.1558 62.7439C72.0658 62.8039 71.9558 62.8339 71.8458 62.8339C71.7358 62.8339 71.6258 62.8039 71.5358 62.7439C69.9258 61.7439 62.4958 56.8139 62.4958 50.6639V43.3439C62.4858 43.2639 62.4858 43.1739 62.5058 43.0939C62.5258 43.0139 62.5658 42.9339 62.6158 42.8639C62.6658 42.7939 62.7358 42.7439 62.8058 42.7039C62.8858 42.6639 62.9658 42.6439 63.0458 42.6339C68.8158 42.4739 67.4358 39.9539 71.8358 39.9539C76.2258 39.9539 74.8358 42.5339 80.6258 42.6339C80.7758 42.6439 80.9158 42.7039 81.0258 42.8139C81.1358 42.9239 81.1958 43.0639 81.1958 43.2239V50.6639Z" fill="url(#paint2_linear)"/>
<path d="M71.8558 47.804C72.8658 47.804 73.8458 48.174 74.6058 48.844C75.3658 49.504 75.8658 50.424 76.0158 51.424C76.0458 51.594 76.1358 51.744 76.2658 51.844C76.3958 51.954 76.5658 52.004 76.7358 52.004H78.7858C78.8858 52.004 78.9858 51.984 79.0758 51.944C79.1658 51.904 79.2558 51.844 79.3258 51.774C79.3958 51.704 79.4458 51.614 79.4858 51.514C79.5158 51.424 79.5358 51.314 79.5258 51.214C79.3258 49.324 78.4258 47.574 77.0158 46.304C75.6058 45.034 73.7658 44.334 71.8658 44.334C69.9658 44.334 68.1358 45.034 66.7158 46.304C65.3058 47.574 64.4058 49.324 64.2058 51.214C64.1958 51.314 64.2058 51.414 64.2458 51.514C64.2758 51.604 64.3358 51.694 64.4058 51.774C64.4758 51.844 64.5558 51.904 64.6558 51.944C64.7458 51.984 64.8458 52.004 64.9458 52.004H66.9958C67.1658 52.004 67.3258 51.954 67.4658 51.844C67.5958 51.734 67.6858 51.584 67.7158 51.424C67.8558 50.424 68.3558 49.504 69.1258 48.844C69.8658 48.174 70.8458 47.804 71.8558 47.804Z" fill="#C3F1FF"/>
<path d="M71.8557 54.8039C73.3957 54.8039 74.6557 53.5539 74.6557 52.0039C74.6557 50.4639 73.4057 49.2039 71.8557 49.2039C70.3157 49.2039 69.0557 50.4539 69.0557 52.0039C69.0557 53.5439 70.3057 54.8039 71.8557 54.8039Z" fill="white"/>
<defs>
<linearGradient id="paint0_linear" x1="49.7862" y1="-13.2357" x2="53.7682" y2="132.535" gradientUnits="userSpaceOnUse">
<stop stop-color="#00ABDE"/>
<stop offset="1" stop-color="#007ED8"/>
</linearGradient>
<linearGradient id="paint1_linear" x1="2.98879" y1="-20.0706" x2="98.5168" y2="120.811" gradientUnits="userSpaceOnUse">
<stop stop-color="#007ED8"/>
<stop offset="0.7065" stop-color="#002D4C"/>
</linearGradient>
<linearGradient id="paint2_linear" x1="71.8573" y1="61.9801" x2="71.8573" y2="39.1496" gradientUnits="userSpaceOnUse">
<stop stop-color="#1B93EB"/>
<stop offset="0.21" stop-color="#2095EB"/>
<stop offset="0.44" stop-color="#2E9CED"/>
<stop offset="0.69" stop-color="#45A7EF"/>
<stop offset="0.95" stop-color="#64B6F1"/>
<stop offset="1" stop-color="#6BB9F2"/>
</linearGradient>
</defs>
</svg>
