<svg width="103" height="103" viewBox="0 0 103 103" fill="none" xmlns="http://www.w3.org/2000/svg">
<path d="M51.1611 98.6211C25.3111 98.6211 4.35107 77.6711 4.35107 51.8111C4.35107 25.9511 25.3111 5.0011 51.1611 5.0011C77.0111 5.0011 97.9711 25.9611 97.9711 51.8111C97.9711 77.6611 77.0111 98.6211 51.1611 98.6211Z" fill="url(#paint0_linear)"/>
<path fill-rule="evenodd" clip-rule="evenodd" d="M97.2711 51.8111C97.2711 77.1611 76.7211 97.7111 51.3711 97.7111C26.0211 97.7111 5.47108 77.1611 5.47108 51.8111C5.47108 26.4611 26.0211 5.91114 51.3711 5.91114C76.7211 5.91114 97.2711 26.4611 97.2711 51.8111ZM51.3711 2.17114C78.7911 2.17114 101.011 24.3911 101.011 51.8111C101.011 79.2311 78.7811 101.451 51.3711 101.451C23.9511 101.451 1.73108 79.2211 1.73108 51.8111C1.73108 24.3911 23.9511 2.17114 51.3711 2.17114Z" fill="#F2F1F0"/>
<path fill-rule="evenodd" clip-rule="evenodd" d="M94.4611 51.8112C94.4611 75.6112 75.1711 94.9012 51.3711 94.9012C27.5711 94.9012 8.28114 75.6112 8.28114 51.8112C8.28114 28.0112 27.5711 8.7212 51.3711 8.7212C75.1711 8.7212 94.4611 28.0112 94.4611 51.8112ZM51.3711 4.9812C77.2311 4.9812 98.2011 25.9512 98.2011 51.8112C98.2011 77.6712 77.2311 98.6412 51.3711 98.6412C25.5111 98.6412 4.54114 77.6712 4.54114 51.8112C4.54114 25.9512 25.5011 4.9812 51.3711 4.9812Z" fill="url(#paint1_linear)"/>
<path opacity="0.15" d="M51.5411 31.2811H20.8511C20.1811 31.2811 19.6511 31.8111 19.6511 32.4811V72.5311C19.6511 73.2011 20.1811 73.7311 20.8511 73.7311H51.5411C52.2111 73.7311 52.7411 73.2011 52.7411 72.5311V32.4711C52.7311 31.8111 52.2011 31.2811 51.5411 31.2811Z" fill="#1F1D20"/>
<path d="M51.5411 29.7911H20.8511C20.1811 29.7911 19.6511 30.3211 19.6511 30.9911V71.0411C19.6511 71.7111 20.1811 72.2411 20.8511 72.2411H51.5411C52.2111 72.2411 52.7411 71.7111 52.7411 71.0411V30.9911C52.7311 30.3311 52.2011 29.7911 51.5411 29.7911Z" fill="#F2F2F2"/>
<path opacity="0.15" d="M81.7311 31.1111H56.8611C55.7111 31.1111 54.7711 32.0411 54.7711 33.2011V48.8411C54.7711 49.9911 55.7011 50.9311 56.8611 50.9311H81.0411C82.1911 50.9311 83.1311 50.0011 83.1311 48.8411V32.5011C83.1211 31.7211 82.4911 31.1111 81.7311 31.1111Z" fill="#1F1D20"/>
<path d="M56.3211 49.6211H81.5711C82.4311 49.6211 83.1311 48.9311 83.1311 48.0611V31.3611C83.1311 30.5011 82.4411 29.8011 81.5711 29.8011H56.3211C55.4611 29.8011 54.7611 30.4911 54.7611 31.3611V48.0611C54.7711 48.9211 55.4711 49.6211 56.3211 49.6211Z" fill="#F2F2F2"/>
<path opacity="0.15" d="M81.7311 53.7112H56.8611C55.7111 53.7112 54.7711 54.6412 54.7711 55.8012V71.4412C54.7711 72.5912 55.7011 73.5312 56.8611 73.5312H81.0411C82.1911 73.5312 83.1311 72.6012 83.1311 71.4412V55.1012C83.1211 54.3312 82.4911 53.7112 81.7311 53.7112Z" fill="#1F1D20"/>
<path d="M56.3211 72.2211H81.5711C82.4311 72.2211 83.1311 71.5311 83.1311 70.6611V53.9711C83.1311 53.1111 82.4411 52.4111 81.5711 52.4111H56.3211C55.4611 52.4111 54.7611 53.1011 54.7611 53.9711V70.6711C54.7711 71.5311 55.4711 72.2211 56.3211 72.2211Z" fill="#F2F2F2"/>
<path d="M48.6411 50.271C48.6411 58.231 39.0011 64.651 36.9111 65.951C36.7911 66.031 36.6511 66.071 36.5111 66.071C36.3711 66.071 36.2311 66.031 36.1111 65.951C33.9511 64.641 24.2411 58.211 24.2411 50.271V40.681C24.2411 40.481 24.3211 40.291 24.4611 40.141C24.6011 40.001 24.7911 39.911 24.9911 39.911C32.5511 39.721 30.8311 36.421 36.4411 36.421C42.0511 36.421 40.3311 39.711 47.8211 39.911C48.0211 39.911 48.2111 40.001 48.3511 40.141C48.4911 40.281 48.5711 40.481 48.5711 40.681L48.6411 50.271Z" fill="#1B93EB"/>
<path d="M47.5611 50.3411C47.5611 57.6611 38.7211 63.5311 36.8111 64.7211C36.7011 64.7911 36.5711 64.8211 36.4411 64.8211C36.3111 64.8211 36.1811 64.7811 36.0711 64.7211C34.1511 63.5311 25.3211 57.6611 25.3211 50.3411V41.6311C25.3011 41.5311 25.3111 41.4311 25.3311 41.3311C25.3511 41.2311 25.4011 41.1411 25.4611 41.0611C25.5211 40.9811 25.6011 40.9211 25.6911 40.8711C25.7811 40.8211 25.8811 40.8011 25.9811 40.7911C32.8511 40.6011 31.2111 37.6011 36.4411 37.6011C41.6711 37.6011 40.0111 40.6711 46.9011 40.7911C47.0811 40.8011 47.2511 40.8811 47.3811 41.0011C47.5111 41.1311 47.5811 41.3011 47.5811 41.4811L47.5611 50.3411Z" fill="url(#paint2_linear)"/>
<path d="M36.4411 46.941C37.6411 46.941 38.8111 47.381 39.7211 48.171C40.6311 48.961 41.2211 50.051 41.3911 51.241C41.4311 51.441 41.5311 51.621 41.6911 51.741C41.8511 51.871 42.0411 51.941 42.2411 51.931H44.6811C44.8011 51.931 44.9211 51.911 45.0311 51.861C45.1411 51.811 45.2411 51.751 45.3211 51.661C45.4011 51.571 45.4711 51.471 45.5011 51.361C45.5411 51.251 45.5511 51.131 45.5511 51.011C45.3111 48.761 44.2411 46.681 42.5611 45.171C40.8811 43.661 38.7011 42.821 36.4311 42.821C34.1611 42.821 31.9911 43.661 30.3011 45.171C28.6211 46.681 27.5511 48.761 27.3111 51.011C27.3011 51.131 27.3211 51.251 27.3611 51.361C27.4011 51.471 27.4611 51.581 27.5411 51.661C27.6211 51.751 27.7211 51.821 27.8311 51.861C27.9411 51.911 28.0611 51.931 28.1811 51.931H30.6211C30.8211 51.931 31.0211 51.871 31.1711 51.741C31.3311 51.611 31.4311 51.431 31.4711 51.241C31.6411 50.051 32.2411 48.961 33.1411 48.171C34.0411 47.381 35.2411 46.951 36.4411 46.941Z" fill="#C3F1FF"/>
<path d="M36.4411 55.271C38.2811 55.271 39.7711 53.781 39.7711 51.941C39.7711 50.101 38.2811 48.611 36.4411 48.611C34.6011 48.611 33.1111 50.101 33.1111 51.941C33.1111 53.781 34.6011 55.271 36.4411 55.271Z" fill="white"/>
<path opacity="0.25" d="M61.751 35.8012L68.741 31.7112L75.731 35.7312L68.741 39.8212L61.751 35.8012Z" fill="#1E9FE0"/>
<path opacity="0.25" d="M61.681 43.9112L68.741 39.8212L75.661 43.8412L68.671 47.9312L61.681 43.9112Z" fill="#1E9FE0"/>
<path opacity="0.05" d="M68.741 39.8212L68.671 47.9312L75.661 43.8412L75.731 35.7312L68.741 39.8212Z" fill="#1E9FE0"/>
<path fill-rule="evenodd" clip-rule="evenodd" d="M68.991 31.2858V39.9653L61.4272 44.3471L61.5023 35.6569L68.991 31.2858ZM61.9998 35.9454L61.9348 43.4752L68.491 39.6771V32.1566L61.9998 35.9454Z" fill="#1B93EB"/>
<path fill-rule="evenodd" clip-rule="evenodd" d="M68.6648 31.4954C68.7422 31.4501 68.8379 31.4498 68.9157 31.4945L75.9057 35.5145C75.9829 35.5589 76.0307 35.6411 76.031 35.7302C76.0314 35.8194 75.9842 35.9019 75.9073 35.947L68.9173 40.037C68.8399 40.0822 68.7441 40.0826 68.6664 40.0379L61.6764 36.0179C61.5991 35.9735 61.5514 35.8913 61.551 35.8021C61.5507 35.713 61.5978 35.6304 61.6748 35.5854L68.6648 31.4954ZM68.7921 32.0002L62.2992 35.7993L68.7899 39.5322L75.2828 35.733L68.7921 32.0002Z" fill="#50E6FF"/>
<path fill-rule="evenodd" clip-rule="evenodd" d="M68.6758 39.6048C68.7534 39.5599 68.8491 39.5599 68.9267 39.605L75.8467 43.625C75.9236 43.6697 75.9709 43.7518 75.9711 43.8408C75.9712 43.9297 75.9241 44.012 75.8473 44.0569L68.8573 48.1469C68.7799 48.1922 68.6842 48.1926 68.6065 48.1479L61.6165 44.1279C61.539 44.0834 61.4912 44.0009 61.4911 43.9116C61.4909 43.8222 61.5385 43.7396 61.6158 43.6948L68.6758 39.6048ZM62.2412 43.9104L68.73 47.6421L75.2247 43.8419L68.8009 40.1102L62.2412 43.9104Z" fill="#50E6FF"/>
<path fill-rule="evenodd" clip-rule="evenodd" d="M76.0349 35.2931L75.9598 43.9853L68.4673 48.3694L68.5423 39.6771L76.0349 35.2931ZM69.0398 39.9653L68.9749 47.4931L75.4623 43.6971L75.5273 36.1694L69.0398 39.9653Z" fill="#1B93EB"/>
<path fill-rule="evenodd" clip-rule="evenodd" d="M69.0411 31.2858V39.9653L61.4773 44.3471L61.5523 35.6569L69.0411 31.2858ZM62.0498 35.9454L61.9848 43.4752L68.5411 39.6771V32.1566L62.0498 35.9454Z" fill="#1B93EB"/>
<path fill-rule="evenodd" clip-rule="evenodd" d="M68.79 31.4221L76.2793 35.7293L68.7922 40.1102L61.3029 35.803L68.79 31.4221ZM68.7922 32.0002L62.2993 35.7993L68.79 39.5321L75.2829 35.733L68.7922 32.0002Z" fill="#1B93EB"/>
<path fill-rule="evenodd" clip-rule="evenodd" d="M68.8012 39.5321L76.2174 43.8404L68.7321 48.2201L61.241 43.9119L68.8012 39.5321ZM62.2411 43.9103L68.73 47.6421L75.2247 43.8419L68.8009 40.1101L62.2411 43.9103Z" fill="#1B93EB"/>
<path d="M75.671 36.5012C75.321 36.5012 75.011 36.1912 75.011 35.8412C75.011 35.4912 75.321 35.1812 75.671 35.1812C76.021 35.1812 76.301 35.4912 76.301 35.8412C76.301 36.1912 76.021 36.5012 75.671 36.5012Z" fill="white"/>
<path d="M75.6411 35.5511C75.8011 35.5511 75.9211 35.6811 75.9211 35.8311C75.9211 35.9811 75.7911 36.1111 75.6411 36.1111C75.4811 36.1111 75.3611 35.9811 75.3611 35.8311C75.3611 35.6811 75.4911 35.5511 75.6411 35.5511ZM75.6411 35.1611C75.2811 35.1611 74.9711 35.4711 74.9711 35.8311C74.9711 36.1911 75.2811 36.5011 75.6411 36.5011C76.0011 36.5011 76.3111 36.1911 76.3111 35.8311C76.3111 35.4711 76.0111 35.1611 75.6411 35.1611Z" fill="#45CAF2"/>
<path d="M68.801 40.5112C68.451 40.5112 68.141 40.2012 68.141 39.8512C68.141 39.5012 68.451 39.1912 68.801 39.1912C69.151 39.1912 69.431 39.5012 69.431 39.8512C69.431 40.2012 69.151 40.5112 68.801 40.5112Z" fill="white"/>
<path d="M68.7811 39.5611C68.9411 39.5611 69.0611 39.6911 69.0611 39.8411C69.0611 39.9911 68.9311 40.1211 68.7811 40.1211C68.6211 40.1211 68.5011 39.9911 68.5011 39.8411C68.4911 39.6911 68.6211 39.5611 68.7811 39.5611ZM68.7811 39.1711C68.4211 39.1711 68.1111 39.4811 68.1111 39.8411C68.1111 40.2011 68.4211 40.5111 68.7811 40.5111C69.1411 40.5111 69.4511 40.2011 69.4511 39.8411C69.4511 39.4811 69.1411 39.1711 68.7811 39.1711Z" fill="#45CAF2"/>
<path d="M68.7811 32.4212C68.4311 32.4212 68.1211 32.1112 68.1211 31.7612C68.1211 31.4112 68.4311 31.1012 68.7811 31.1012C69.1311 31.1012 69.4111 31.4112 69.4111 31.7612C69.4111 32.1112 69.1411 32.4212 68.7811 32.4212Z" fill="white"/>
<path d="M68.7811 31.4812C68.9411 31.4812 69.0611 31.6112 69.0611 31.7612C69.0611 31.9112 68.9311 32.0412 68.7811 32.0412C68.6211 32.0412 68.5011 31.9112 68.5011 31.7612C68.5011 31.6112 68.6211 31.4812 68.7811 31.4812ZM68.7811 31.0912C68.4211 31.0912 68.1111 31.4012 68.1111 31.7612C68.1111 32.1212 68.4211 32.4312 68.7811 32.4312C69.1411 32.4312 69.4511 32.1212 69.4511 31.7612C69.4511 31.4012 69.1411 31.0912 68.7811 31.0912Z" fill="#45CAF2"/>
<path d="M61.7511 36.5012C61.4011 36.5012 61.0911 36.1912 61.0911 35.8412C61.0911 35.4912 61.4011 35.1812 61.7511 35.1812C62.1011 35.1812 62.3811 35.4912 62.3811 35.8412C62.3811 36.1912 62.1011 36.5012 61.7511 36.5012Z" fill="white"/>
<path d="M61.731 35.5511C61.891 35.5511 62.011 35.6811 62.011 35.8311C62.011 35.9811 61.881 36.1111 61.731 36.1111C61.571 36.1111 61.451 35.9811 61.451 35.8311C61.451 35.6811 61.571 35.5511 61.731 35.5511ZM61.731 35.1611C61.371 35.1611 61.061 35.4711 61.061 35.8311C61.061 36.1911 61.371 36.5011 61.731 36.5011C62.091 36.5011 62.401 36.1911 62.401 35.8311C62.401 35.4711 62.091 35.1611 61.731 35.1611Z" fill="#45CAF2"/>
<path d="M61.7511 44.5812C61.4011 44.5812 61.0911 44.2712 61.0911 43.9212C61.0911 43.5712 61.4011 43.2612 61.7511 43.2612C62.1011 43.2612 62.3811 43.5712 62.3811 43.9212C62.3811 44.2612 62.1011 44.5812 61.7511 44.5812Z" fill="white"/>
<path d="M61.731 43.6212C61.891 43.6212 62.011 43.7512 62.011 43.9012C62.011 44.0612 61.881 44.1812 61.731 44.1812C61.571 44.1812 61.451 44.0512 61.451 43.9012C61.441 43.7512 61.571 43.6212 61.731 43.6212ZM61.731 43.2312C61.371 43.2312 61.061 43.5412 61.061 43.9012C61.061 44.2612 61.371 44.5712 61.731 44.5712C62.091 44.5712 62.401 44.2612 62.401 43.9012C62.401 43.5512 62.091 43.2312 61.731 43.2312Z" fill="#45CAF2"/>
<path d="M68.801 48.5812C68.451 48.5812 68.141 48.2712 68.141 47.9212C68.141 47.5712 68.451 47.2612 68.801 47.2612C69.151 47.2612 69.431 47.5712 69.431 47.9212C69.431 48.2612 69.151 48.5812 68.801 48.5812Z" fill="white"/>
<path d="M68.7811 47.6312C68.9411 47.6312 69.0611 47.7612 69.0611 47.9112C69.0611 48.0612 68.9311 48.1912 68.7811 48.1912C68.6211 48.1912 68.5011 48.0612 68.5011 47.9112C68.5011 47.7612 68.6211 47.6312 68.7811 47.6312ZM68.7811 47.2412C68.4211 47.2412 68.1111 47.5512 68.1111 47.9112C68.1111 48.2712 68.4211 48.5812 68.7811 48.5812C69.1411 48.5812 69.4511 48.2712 69.4511 47.9112C69.4511 47.5512 69.1411 47.2412 68.7811 47.2412Z" fill="#45CAF2"/>
<path d="M75.671 44.5812C75.321 44.5812 75.011 44.2712 75.011 43.9212C75.011 43.5712 75.321 43.2612 75.671 43.2612C76.021 43.2612 76.301 43.5712 76.301 43.9212C76.301 44.2612 76.021 44.5812 75.671 44.5812Z" fill="white"/>
<path d="M75.6411 43.6212C75.8011 43.6212 75.9211 43.7512 75.9211 43.9012C75.9211 44.0612 75.7911 44.1812 75.6411 44.1812C75.4811 44.1812 75.3611 44.0512 75.3611 43.9012C75.3611 43.7512 75.4911 43.6212 75.6411 43.6212ZM75.6411 43.2312C75.2811 43.2312 74.9711 43.5412 74.9711 43.9012C74.9711 44.2612 75.2811 44.5712 75.6411 44.5712C76.0011 44.5712 76.3111 44.2612 76.3111 43.9012C76.3211 43.5512 76.0111 43.2312 75.6411 43.2312Z" fill="#45CAF2"/>
<path d="M72.9311 58.0213C72.9311 57.5813 72.5711 57.2213 72.1311 57.2213H62.5211C62.0811 57.2113 61.7211 57.5713 61.7211 58.0213C61.7211 58.4713 62.0811 58.8213 62.5211 58.8213H72.1311C72.5711 58.8113 72.9311 58.4613 72.9311 58.0213Z" fill="url(#paint3_linear)"/>
<path d="M75.6411 58.0213C75.6411 57.5813 75.2811 57.2213 74.8411 57.2213H72.2311C71.7911 57.2213 72.0711 57.5813 72.0711 58.0213C72.0711 58.4613 71.7911 58.8213 72.2311 58.8213H74.8511C75.2911 58.8113 75.6411 58.4613 75.6411 58.0213Z" fill="#D1D1D1"/>
<path d="M70.941 58.0213C70.941 58.9013 71.651 59.6113 72.531 59.6113C73.411 59.6113 74.121 58.9013 74.121 58.0213C74.121 57.1413 73.411 56.4313 72.531 56.4313C71.651 56.4413 70.941 57.1413 70.941 58.0213Z" fill="#50E6FF"/>
<path d="M69.9811 62.0413C69.9811 61.6013 69.6211 61.2413 69.1811 61.2413H62.5211C62.0811 61.2413 61.7211 61.6013 61.7211 62.0413C61.7211 62.4813 62.0811 62.8413 62.5211 62.8413H69.1911C69.6311 62.8413 69.9811 62.4813 69.9811 62.0413Z" fill="url(#paint4_linear)"/>
<path d="M75.6411 62.0413C75.6411 61.6013 75.2811 61.2413 74.8411 61.2413H69.6611C69.2211 61.2413 68.8611 61.6013 68.8611 62.0413C68.8611 62.4813 69.2211 62.8413 69.6611 62.8413H74.8511C75.2911 62.8413 75.6411 62.4813 75.6411 62.0413Z" fill="#D1D1D1"/>
<path d="M67.4711 62.0413C67.4711 62.9213 68.1811 63.6313 69.0611 63.6313C69.9411 63.6313 70.6511 62.9213 70.6511 62.0413C70.6511 61.1613 69.9411 60.4513 69.0611 60.4513C68.1811 60.4513 67.4711 61.1613 67.4711 62.0413Z" fill="#35AFE4"/>
<path d="M66.2711 66.3012C66.2711 65.8612 65.9111 65.5012 65.4711 65.5012H62.5211C62.0811 65.5012 61.7211 65.8612 61.7211 66.3012C61.7211 66.7412 62.0811 67.1012 62.5211 67.1012H65.4711C65.9211 67.0912 66.2711 66.7412 66.2711 66.3012Z" fill="url(#paint5_linear)"/>
<path d="M75.641 66.3012C75.641 65.8612 75.281 65.5012 74.841 65.5012H66.251C65.811 65.5012 65.451 65.8612 65.451 66.3012C65.451 66.7412 65.811 67.1012 66.251 67.1012H74.841C75.291 67.0912 75.641 66.7412 75.641 66.3012Z" fill="#D1D1D1"/>
<path d="M64.191 66.3013C64.191 67.1813 64.901 67.8913 65.781 67.8913C66.661 67.8913 67.371 67.1813 67.371 66.3013C67.371 65.4213 66.661 64.7113 65.781 64.7113C64.901 64.7113 64.191 65.4213 64.191 66.3013Z" fill="#2E76BC"/>
<path d="M79.8212 74.6012C83.6212 74.6012 86.7112 71.5212 86.7112 67.7112C86.7012 63.9112 83.6112 60.8412 79.8212 60.8412C76.0312 60.8412 72.9312 63.9212 72.9312 67.7312C72.9312 71.5312 76.0112 74.6012 79.8212 74.6012Z" fill="#002D4C"/>
<path d="M80.3612 63.6812H79.2312V71.7412H80.3612V63.6812Z" fill="#F2F2F2"/>
<path d="M83.8211 67.2112H75.7711V68.3412H83.8311L83.8211 67.2112Z" fill="#F2F2F2"/>
<defs>
<linearGradient id="paint0_linear" x1="49.3886" y1="-12.978" x2="53.3706" y2="132.792" gradientUnits="userSpaceOnUse">
<stop stop-color="#00ABDE"/>
<stop offset="1" stop-color="#007ED8"/>
</linearGradient>
<linearGradient id="paint1_linear" x1="2.80434" y1="-19.8138" x2="98.3323" y2="121.068" gradientUnits="userSpaceOnUse">
<stop stop-color="#007ED8"/>
<stop offset="0.7065" stop-color="#002D4C"/>
</linearGradient>
<linearGradient id="paint2_linear" x1="36.4482" y1="63.814" x2="36.4482" y2="36.6441" gradientUnits="userSpaceOnUse">
<stop stop-color="#1B93EB"/>
<stop offset="0.21" stop-color="#2095EB"/>
<stop offset="0.44" stop-color="#2E9CED"/>
<stop offset="0.69" stop-color="#45A7EF"/>
<stop offset="0.95" stop-color="#64B6F1"/>
<stop offset="1" stop-color="#6BB9F2"/>
</linearGradient>
<linearGradient id="paint3_linear" x1="67.006" y1="57.1179" x2="73.5746" y2="75.6394" gradientUnits="userSpaceOnUse">
<stop stop-color="#15548F"/>
<stop offset="0.4179" stop-color="#243A5E"/>
<stop offset="0.9677" stop-color="#1A2C45"/>
</linearGradient>
<linearGradient id="paint4_linear" x1="64.7515" y1="58.9353" x2="69.9715" y2="73.6541" gradientUnits="userSpaceOnUse">
<stop stop-color="#15548F"/>
<stop offset="0.4179" stop-color="#243A5E"/>
<stop offset="0.9677" stop-color="#1A2C45"/>
</linearGradient>
<linearGradient id="paint5_linear" x1="62.6495" y1="62.4938" x2="66.1755" y2="72.4362" gradientUnits="userSpaceOnUse">
<stop stop-color="#15548F"/>
<stop offset="0.4179" stop-color="#243A5E"/>
<stop offset="0.9677" stop-color="#1A2C45"/>
</linearGradient>
</defs>
</svg>
