<?xml version="1.0" encoding="UTF-8" standalone="no"?>
<!DOCTYPE svg PUBLIC "-//W3C//DTD SVG 1.1//EN" "http://www.w3.org/Graphics/SVG/1.1/DTD/svg11.dtd">
<!-- Generated by Microsoft Visio, SVG Export defender-xdr-pilot-deploy-flow.svg Page-1 -->
<svg xmlns="http://www.w3.org/2000/svg" xmlns:xlink="http://www.w3.org/1999/xlink" xmlns:ev="http://www.w3.org/2001/xml-events"
		xmlns:v="http://schemas.microsoft.com/visio/2003/SVGExtensions/" width="7.31978in" height="2.8559in"
		viewBox="0 0 527.024 205.625" xml:space="preserve" color-interpolation-filters="sRGB" class="st25">
	<v:documentProperties v:langID="1033" v:viewMarkup="false"/>

	<style type="text/css">
	<![CDATA[
		.st1 {fill:#ffffff;stroke:#e3e3e3;stroke-width:1}
		.st2 {stroke:#2f2f2f;stroke-dasharray:4.5,4.5;stroke-linecap:round;stroke-linejoin:round;stroke-width:1.5}
		.st3 {stroke:#2f2f2f;stroke-linecap:round;stroke-linejoin:round;stroke-width:1.5}
		.st4 {visibility:visible}
		.st5 {fill:#000000;fill-opacity:0.15;filter:url(#filter_2);stroke:none}
		.st6 {fill:#ffb900;stroke:none;stroke-width:1}
		.st7 {fill:#0078d4;stroke:none;stroke-width:1}
		.st8 {fill:#ffffff;stroke:none;stroke-width:0.75}
		.st9 {fill:#107c10;stroke:none;stroke-width:1}
		.st10 {fill:none;stroke:none;stroke-width:1}
		.st11 {fill:#2f2f2f;font-family:Segoe UI;font-size:0.833336em}
		.st12 {font-size:1em}
		.st13 {stroke:#0078d4;stroke-linecap:round;stroke-linejoin:round;stroke-width:1.5}
		.st14 {fill:#0078d4;font-family:Segoe UI Semibold;font-size:1.5em}
		.st15 {fill:#ffffff;stroke:none;stroke-width:0.25}
		.st16 {fill:#000000;stroke:none;stroke-width:0.75}
		.st17 {fill:none;filter:url(#filter_2);stroke:#000000;stroke-dasharray:3,3;stroke-linecap:round;stroke-linejoin:round;stroke-opacity:0.15}
		.st18 {stroke:#000000;stroke-dasharray:3,3;stroke-linecap:round;stroke-linejoin:round;stroke-width:1}
		.st19 {stroke:#107c10;stroke-linecap:round;stroke-linejoin:round;stroke-width:1.5}
		.st20 {stroke:#ffb900;stroke-linecap:round;stroke-linejoin:round;stroke-width:1.5}
		.st21 {fill:#ffffff;stroke:none;stroke-width:0.298828}
		.st22 {fill:#2f2f2f;font-family:Segoe UI Semibold;font-size:2.16666em}
		.st23 {fill:#0078d4;font-family:Segoe UI Semibold;font-size:2.16666em}
		.st24 {fill:#107c10;font-family:Segoe UI Semibold;font-size:2.16666em}
		.st25 {fill:none;fill-rule:evenodd;font-size:12px;overflow:visible;stroke-linecap:square;stroke-miterlimit:3}
	]]>
	</style>

	<defs id="Filters">
		<filter id="filter_2">
			<feGaussianBlur stdDeviation="2"/>
		</filter>
	</defs>
	<g v:mID="0" v:index="1" v:groupContext="foregroundPage">
		<v:userDefs>
			<v:ud v:nameU="visNavType" v:val="VT0(1):26"/>
		</v:userDefs>
		<title>Page-1</title>
		<v:pageProperties v:drawingScale="1" v:pageScale="1" v:drawingUnits="19" v:shadowOffsetX="9" v:shadowOffsetY="-9"/>
		<v:layer v:name="Drawing" v:index="0"/>
		<v:layer v:name="Icons" v:index="1" v:glue="false"/>
		<v:layer v:name="Text" v:index="2"/>
		<g id="shape100-1" v:mID="100" v:groupContext="shape" v:layerMember="0" transform="translate(1,-1)">
			<title>Sheet.100</title>
			<v:userDefs>
				<v:ud v:nameU="visNavOrder" v:prompt="" v:val="VT0(6000):26"/>
			</v:userDefs>
			<rect x="0" y="2" width="525.024" height="203.625" rx="4.5" ry="4.5" class="st1"/>
		</g>
		<g id="shape101-3" v:mID="101" v:groupContext="shape" v:layerMember="0" transform="translate(471.964,-75.5239)">
			<title>Sheet.101</title>
			<v:userDefs>
				<v:ud v:nameU="visNavOrder" v:val="VT0(3000):26"/>
			</v:userDefs>
			<path d="M0 205.63 L39.58 205.63" class="st2"/>
		</g>
		<g id="shape102-6" v:mID="102" v:groupContext="shape" v:layerMember="0" transform="translate(11.0414,-75.5239)">
			<title>Sheet.102</title>
			<v:userDefs>
				<v:ud v:nameU="visNavOrder" v:val="VT0(4000):26"/>
			</v:userDefs>
			<path d="M0 205.63 L466.5 205.63" class="st3"/>
		</g>
		<g id="shape103-9" v:mID="103" v:groupContext="shape" v:layerMember="1;0" transform="translate(47.5853,-56.2678)">
			<title>Sheet.103</title>
			<v:userDefs>
				<v:ud v:nameU="visNavOrder" v:prompt="" v:val="VT0(8000):26"/>
			</v:userDefs>
			<g id="shadow103-10" v:groupContext="shadow" v:shadowOffsetX="1.22465E-16" v:shadowOffsetY="-2" v:shadowType="1"
					v:shadowScale="1.01" transform="matrix(1.01,0,0,1.01,-0.192561,0.136311)" class="st4">
				<ellipse cx="19.2561" cy="186.369" rx="19.2561" ry="19.2561" class="st5"/>
			</g>
			<ellipse cx="19.2561" cy="186.369" rx="19.2561" ry="19.2561" class="st6"/>
		</g>
		<g id="shape107-14" v:mID="107" v:groupContext="shape" v:layerMember="1;0" transform="translate(274.764,-56.2678)">
			<title>Sheet.107</title>
			<v:userDefs>
				<v:ud v:nameU="visNavOrder" v:prompt="" v:val="VT0(22000):26"/>
			</v:userDefs>
			<g id="shadow107-15" v:groupContext="shadow" v:shadowOffsetX="1.22465E-16" v:shadowOffsetY="-2" v:shadowType="1"
					v:shadowScale="1.01" transform="matrix(1.01,0,0,1.01,-0.192561,0.136311)" class="st4">
				<ellipse cx="19.2561" cy="186.369" rx="19.2561" ry="19.2561" class="st5"/>
			</g>
			<ellipse cx="19.2561" cy="186.369" rx="19.2561" ry="19.2561" class="st7"/>
		</g>
		<g id="group108-19" transform="translate(284.392,-65.8958)" v:mID="108" v:groupContext="group" v:layerMember="0">
			<v:userDefs>
				<v:ud v:nameU="visNavOrder" v:prompt="" v:val="VT0(24000):26"/>
			</v:userDefs>
			<title>Sheet.108</title>
			<g id="shape109-20" v:mID="109" v:groupContext="shape" v:layerMember="0">
				<title>Sheet.109</title>
				<path d="M4.45 186.37 C3.32 186.37 2.41 187.28 2.41 188.41 L2.41 191.66 L3.61 191.66 L3.61 188.41 C3.61 187.95 3.99
							 187.57 4.45 187.57 L17.21 187.57 C17.68 187.57 18.05 187.95 18.05 188.41 L18.05 196.84 C18.05 197.3
							 17.68 197.68 17.21 197.68 L8.67 197.68 L8.67 198.89 L12.28 198.89 L12.28 201.29 L8.67 201.29 L8.67 202.5
							 L14.8 202.5 C15.14 202.5 15.4 202.23 15.4 201.89 C15.4 201.56 15.14 201.29 14.8 201.29 L13.48 201.29
							 L13.48 198.89 L17.21 198.89 C18.34 198.89 19.26 197.97 19.26 196.84 L19.26 188.41 C19.26 187.28 18.34
							 186.37 17.21 186.37 L4.45 186.37 ZM2.65 202.86 C2.65 202.52 2.92 202.26 3.25 202.26 L4.45 202.26 C4.79
							 202.26 5.05 202.52 5.05 202.86 C5.05 203.19 4.79 203.46 4.45 203.46 L3.25 203.46 C2.92 203.46 2.65 203.19
							 2.65 202.86 ZM2.05 192.63 C0.92 192.63 0 193.54 0 194.67 L0 203.58 C0 204.71 0.92 205.63 2.05 205.63
							 L5.66 205.63 C6.79 205.63 7.7 204.71 7.7 203.58 L7.7 194.67 C7.7 193.54 6.79 192.63 5.66 192.63 L2.05
							 192.63 ZM1.2 194.67 C1.2 194.21 1.58 193.83 2.05 193.83 L5.66 193.83 C6.12 193.83 6.5 194.21 6.5 194.67
							 L6.5 203.58 C6.5 204.04 6.12 204.42 5.66 204.42 L2.05 204.42 C1.58 204.42 1.2 204.04 1.2 203.58 L1.2
							 194.67 Z" class="st8"/>
			</g>
		</g>
		<g id="shape110-22" v:mID="110" v:groupContext="shape" v:layerMember="1;0" transform="translate(209.309,-56.2678)">
			<title>Sheet.110</title>
			<v:userDefs>
				<v:ud v:nameU="visNavOrder" v:prompt="" v:val="VT0(18000):26"/>
			</v:userDefs>
			<g id="shadow110-23" v:groupContext="shadow" v:shadowOffsetX="1.22465E-16" v:shadowOffsetY="-2" v:shadowType="1"
					v:shadowScale="1.01" transform="matrix(1.01,0,0,1.01,-0.192561,0.136311)" class="st4">
				<ellipse cx="19.2561" cy="186.369" rx="19.2561" ry="19.2561" class="st5"/>
			</g>
			<ellipse cx="19.2561" cy="186.369" rx="19.2561" ry="19.2561" class="st7"/>
		</g>
		<g id="shape113-27" v:mID="113" v:groupContext="shape" v:layerMember="1;0" transform="translate(143.854,-56.2678)">
			<title>Sheet.113</title>
			<v:userDefs>
				<v:ud v:nameU="visNavOrder" v:prompt="" v:val="VT0(14000):26"/>
			</v:userDefs>
			<g id="shadow113-28" v:groupContext="shadow" v:shadowOffsetX="1.22465E-16" v:shadowOffsetY="-2" v:shadowType="1"
					v:shadowScale="1.01" transform="matrix(1.01,0,0,1.01,-0.192561,0.136311)" class="st4">
				<ellipse cx="19.2561" cy="186.369" rx="19.2561" ry="19.2561" class="st5"/>
			</g>
			<ellipse cx="19.2561" cy="186.369" rx="19.2561" ry="19.2561" class="st7"/>
		</g>
		<g id="shape116-32" v:mID="116" v:groupContext="shape" v:layerMember="1;0" transform="translate(340.219,-56.2678)">
			<title>Sheet.116</title>
			<v:userDefs>
				<v:ud v:nameU="visNavOrder" v:prompt="" v:val="VT0(26000):26"/>
			</v:userDefs>
			<g id="shadow116-33" v:groupContext="shadow" v:shadowOffsetX="1.22465E-16" v:shadowOffsetY="-2" v:shadowType="1"
					v:shadowScale="1.01" transform="matrix(1.01,0,0,1.01,-0.192561,0.136311)" class="st4">
				<ellipse cx="19.2561" cy="186.369" rx="19.2561" ry="19.2561" class="st5"/>
			</g>
			<ellipse cx="19.2561" cy="186.369" rx="19.2561" ry="19.2561" class="st7"/>
		</g>
		<g id="shape119-37" v:mID="119" v:groupContext="shape" v:layerMember="1;0" transform="translate(436.488,-56.2678)">
			<title>Sheet.119</title>
			<v:userDefs>
				<v:ud v:nameU="visNavOrder" v:prompt="" v:val="VT0(30000):26"/>
			</v:userDefs>
			<g id="shadow119-38" v:groupContext="shadow" v:shadowOffsetX="1.22465E-16" v:shadowOffsetY="-2" v:shadowType="1"
					v:shadowScale="1.01" transform="matrix(1.01,0,0,1.01,-0.192561,0.136311)" class="st4">
				<ellipse cx="19.2561" cy="186.369" rx="19.2561" ry="19.2561" class="st5"/>
			</g>
			<ellipse cx="19.2561" cy="186.369" rx="19.2561" ry="19.2561" class="st9"/>
		</g>
		<g id="group120-42" transform="translate(446.116,-67.353)" v:mID="120" v:groupContext="group" v:layerMember="0">
			<v:userDefs>
				<v:ud v:nameU="visNavOrder" v:prompt="" v:val="VT0(32000):26"/>
			</v:userDefs>
			<title>Sheet.120</title>
			<g id="shape121-43" v:mID="121" v:groupContext="shape" v:layerMember="0">
				<title>Sheet.121</title>
				<path d="M0 197.45 C0 197.1 0.28 196.82 0.63 196.82 L17.07 196.82 L10.58 190.43 C10.33 190.19 10.32 189.79 10.57
							 189.54 C10.81 189.29 11.22 189.28 11.47 189.53 L19.06 197 C19.06 197 19.07 197.01 19.07 197.01 C19.18
							 197.12 19.24 197.26 19.25 197.4 C19.26 197.44 19.26 197.48 19.25 197.52 C19.24 197.66 19.18 197.79 19.07
							 197.9 C19.07 197.91 19.06 197.91 19.05 197.92 L11.47 205.38 C11.22 205.63 10.81 205.62 10.57 205.37
							 C10.32 205.12 10.33 204.72 10.58 204.48 L17.07 198.09 L0.63 198.09 C0.28 198.09 0 197.8 0 197.45 Z"
						class="st8"/>
			</g>
		</g>
		<g id="shape125-45" v:mID="125" v:groupContext="shape" v:layerMember="2" transform="translate(159.593,-120.578)">
			<title>Sheet.125</title>
			<desc>Pilot and deploy Microsoft Defender XDR components</desc>
			<v:userDefs>
				<v:ud v:nameU="visNavOrder" v:val="VT0(11000):26"/>
			</v:userDefs>
			<v:textBlock v:margins="rect(0,0,0,0)"/>
			<v:textRect cx="93.7349" cy="194.071" width="187.47" height="23.1073"/>
			<rect x="0" y="182.518" width="187.47" height="23.1073" rx="4.5" ry="4.5" class="st10"/>
			<text x="0" y="191.07" class="st11" v:langID="1033"><v:paragraph/><v:tabList/>Pilot and deploy Microsoft Defender XDR <tspan
						x="0" dy="1.2em" class="st12">components</tspan></text>		</g>
		<g id="shape126-49" v:mID="126" v:groupContext="shape" v:layerMember="2" transform="translate(132.3,-25.7634)">
			<title>Sheet.126</title>
			<desc>Defender for Identity</desc>
			<v:userDefs>
				<v:ud v:nameU="visNavOrder" v:val="VT0(13000):26"/>
			</v:userDefs>
			<v:textBlock v:margins="rect(6,6,6,6)"/>
			<v:textRect cx="30.8098" cy="194.071" width="61.62" height="23.1073"/>
			<rect x="0" y="182.518" width="61.6195" height="23.1073" rx="4.5" ry="4.5" class="st10"/>
			<text x="10.38" y="191.07" class="st11" v:langID="1033"><v:paragraph v:horizAlign="1"/><v:tabList/>Defender <tspan
						x="6.47" dy="1.2em" class="st12">for Identity</tspan></text>		</g>
		<g id="shape133-53" v:mID="133" v:groupContext="shape" v:layerMember="0" transform="translate(133.493,-150.165)">
			<title>Sheet.133</title>
			<v:userDefs>
				<v:ud v:nameU="visNavOrder" v:val="VT0(27000):26"/>
			</v:userDefs>
			<path d="M0 205.63 L255.6 205.63" class="st13"/>
		</g>
		<g id="shape135-56" v:mID="135" v:groupContext="shape" v:layerMember="2" transform="translate(192.253,-26.3707)">
			<title>Sheet.135</title>
			<desc>Defender for Office 365</desc>
			<v:userDefs>
				<v:ud v:nameU="visNavOrder" v:val="VT0(31000):26"/>
			</v:userDefs>
			<v:textBlock v:margins="rect(6,6,6,6)"/>
			<v:textRect cx="36.3125" cy="194.375" width="72.63" height="22.5"/>
			<rect x="0" y="183.125" width="72.625" height="22.5" rx="4.5" ry="4.5" class="st10"/>
			<text x="8.28" y="191.37" class="st11" v:langID="1033"><v:paragraph v:horizAlign="1"/><v:tabList/>Defender for <tspan
						x="13.82" dy="1.2em" class="st12">Office 365</tspan></text>		</g>
		<g id="shape136-60" v:mID="136" v:groupContext="shape" v:layerMember="2" transform="translate(259.99,-25.7634)">
			<title>Sheet.136</title>
			<desc>Defender for Endpoint</desc>
			<v:userDefs>
				<v:ud v:nameU="visNavOrder" v:val="VT0(33000):26"/>
			</v:userDefs>
			<v:textBlock v:margins="rect(6,6,6,6)"/>
			<v:textRect cx="34.0305" cy="194.071" width="68.07" height="23.1073"/>
			<rect x="0" y="182.518" width="68.0609" height="23.1073" rx="4.5" ry="4.5" class="st10"/>
			<text x="6" y="191.07" class="st11" v:langID="1033"><v:paragraph v:horizAlign="1"/><v:tabList/>Defender for <tspan
						x="14.12" dy="1.2em" class="st12">Endpoint</tspan></text>		</g>
		<g id="shape137-64" v:mID="137" v:groupContext="shape" v:layerMember="2" transform="translate(325.445,-25.7634)">
			<title>Sheet.137</title>
			<desc>Defender for Cloud Apps</desc>
			<v:userDefs>
				<v:ud v:nameU="visNavOrder" v:val="VT0(34000):26"/>
			</v:userDefs>
			<v:textBlock v:margins="rect(6,6,6,6)"/>
			<v:textRect cx="34.0305" cy="194.071" width="68.07" height="23.1073"/>
			<rect x="0" y="182.518" width="68.0609" height="23.1073" rx="4.5" ry="4.5" class="st10"/>
			<text x="6" y="191.07" class="st11" v:langID="1033"><v:paragraph v:horizAlign="1"/><v:tabList/>Defender for <tspan
						x="8.42" dy="1.2em" class="st12">Cloud Apps</tspan></text>		</g>
		<g id="shape140-68" v:mID="140" v:groupContext="shape" v:layerMember="2;0" transform="translate(11.0414,-172.22)">
			<title>Sheet.140</title>
			<desc>Pilot and deploy Microsoft Defender XDR</desc>
			<v:userDefs>
				<v:ud v:nameU="visNavOrder" v:prompt="" v:val="VT0(37000):26"/>
			</v:userDefs>
			<v:textBlock v:margins="rect(0,0,0,0)"/>
			<v:textRect cx="201.546" cy="194.64" width="403.1" height="21.9709"/>
			<rect x="0" y="183.654" width="403.092" height="21.9709" rx="4.5" ry="4.5" class="st10"/>
			<text x="0" y="200.04" class="st14" v:langID="1033"><v:paragraph/><v:tabList/>Pilot and deploy Microsoft Defender XDR</text>		</g>
		<g id="group155-71" transform="translate(220.863,-65.8958)" v:mID="155" v:groupContext="group" v:layerMember="0">
			<v:userDefs>
				<v:ud v:nameU="visNavOrder" v:val="VT0(41000):26"/>
			</v:userDefs>
			<title>Sheet.155</title>
			<g id="shape156-72" v:mID="156" v:groupContext="shape" v:layerMember="0">
				<title>Sheet.156</title>
				<path d="M2.05 186.37 C0.92 186.37 0 187.28 0 188.41 L0 203.58 C0 204.71 0.92 205.63 2.05 205.63 L13.36 205.63 C14.49
							 205.63 15.4 204.71 15.4 203.58 L15.4 193.31 C15.4 193.02 15.29 192.75 15.09 192.54 L9.23 186.69 C9.03
							 186.48 8.75 186.37 8.47 186.37 L2.05 186.37 ZM1.2 188.41 C1.2 187.95 1.58 187.57 2.05 187.57 L7.7 187.57
							 L7.7 191.78 C7.7 192.78 8.51 193.59 9.51 193.59 L14.2 193.59 L14.2 203.58 C14.2 204.04 13.82 204.42
							 13.36 204.42 L2.05 204.42 C1.58 204.42 1.2 204.04 1.2 203.58 L1.2 188.41 ZM13.23 192.39 L9.51 192.39
							 C9.18 192.39 8.91 192.12 8.91 191.78 L8.91 188.06 L13.23 192.39 Z" class="st8"/>
			</g>
		</g>
		<g id="group157-74" transform="translate(346.547,-66.6354)" v:mID="157" v:groupContext="group" v:layerMember="0">
			<v:userDefs>
				<v:ud v:nameU="visNavOrder" v:val="VT0(42000):26"/>
			</v:userDefs>
			<title>Sheet.157</title>
			<g id="shape158-75" v:mID="158" v:groupContext="shape" v:layerMember="0">
				<title>Sheet.158</title>
				<path d="M5.2 205.63 C4.49 205.63 3.83 205.48 3.19 205.18 C2.56 204.89 2.01 204.5 1.54 204.01 C1.07 203.52 0.69 202.95
							 0.42 202.3 C0.14 201.66 0 200.98 0 200.28 C0 199.57 0.12 198.88 0.37 198.23 C0.61 197.57 0.95 196.99
							 1.39 196.48 C1.83 195.98 2.36 195.57 2.98 195.25 C3.6 194.93 4.28 194.75 5.01 194.72 L5.42 194.7 C5.51
							 193.67 5.76 192.73 6.16 191.89 C6.57 191.05 7.1 190.33 7.75 189.73 C8.41 189.13 9.18 188.67 10.05 188.34
							 C10.92 188.01 11.88 187.85 12.93 187.85 C13.96 187.85 14.92 188.01 15.79 188.34 C16.67 188.67 17.44
							 189.13 18.11 189.73 C18.77 190.33 19.3 191.05 19.7 191.89 C20.09 192.73 20.34 193.67 20.44 194.7 L20.64
							 194.7 C21.38 194.7 22.06 194.85 22.69 195.15 C23.32 195.44 23.87 195.84 24.34 196.36 C24.81 196.87 25.18
							 197.45 25.45 198.1 C25.72 198.75 25.86 199.44 25.86 200.17 C25.86 200.89 25.72 201.57 25.45 202.23 C25.18
							 202.89 24.82 203.47 24.35 203.97 C23.89 204.48 23.34 204.88 22.7 205.17 C22.06 205.46 21.38 205.62 20.66
							 205.63 L5.2 205.63 ZM20.63 204.01 C21.14 204.01 21.62 203.9 22.06 203.69 C22.5 203.48 22.88 203.2 23.21
							 202.83 C23.53 202.47 23.79 202.06 23.96 201.61 C24.14 201.16 24.23 200.68 24.24 200.17 C24.24 199.63
							 24.14 199.13 23.95 198.67 C23.76 198.2 23.49 197.8 23.16 197.44 C22.82 197.09 22.41 196.82 21.94 196.62
							 C21.47 196.43 20.97 196.33 20.44 196.32 C20 196.32 19.64 196.18 19.36 195.92 C19.07 195.65 18.89 195.3
							 18.82 194.87 C18.78 194.56 18.74 194.27 18.69 193.98 C18.64 193.7 18.55 193.41 18.43 193.11 C18.22 192.51
							 17.92 191.98 17.56 191.52 C17.2 191.07 16.78 190.69 16.3 190.39 C15.82 190.08 15.3 189.85 14.73 189.69
							 C14.17 189.53 13.57 189.46 12.93 189.46 C12.3 189.46 11.7 189.54 11.14 189.69 C10.57 189.84 10.05 190.07
							 9.57 190.37 C9.09 190.68 8.67 191.06 8.31 191.51 C7.95 191.96 7.65 192.49 7.42 193.1 C7.31 193.39 7.23
							 193.68 7.18 193.97 C7.13 194.26 7.08 194.56 7.03 194.87 C6.97 195.36 6.77 195.73 6.45 195.97 C6.13 196.2
							 5.73 196.32 5.24 196.32 C4.73 196.32 4.25 196.42 3.81 196.64 C3.37 196.85 2.99 197.13 2.66 197.49 C2.34
							 197.86 2.08 198.27 1.89 198.73 C1.71 199.19 1.62 199.67 1.62 200.17 C1.62 200.67 1.71 201.15 1.89 201.61
							 C2.08 202.07 2.33 202.48 2.65 202.83 C2.97 203.19 3.35 203.47 3.79 203.68 C4.23 203.89 4.71 204 5.23
							 204.01 L20.63 204.01 Z" class="st15"/>
			</g>
		</g>
		<g id="group173-77" transform="translate(54.4013,-64.0101)" v:mID="173" v:groupContext="group" v:layerMember="0">
			<v:userDefs>
				<v:ud v:nameU="visNavOrder" v:val="VT0(53000):26"/>
			</v:userDefs>
			<title>Sheet.173</title>
			<g id="group174-78" transform="translate(8.57463,-9.54009)" v:mID="174" v:groupContext="group" v:layerMember="0">
				<v:userDefs>
					<v:ud v:nameU="visNavOrder" v:prompt="" v:val="VT0(35000):26"/>
				</v:userDefs>
				<title>Sheet.174</title>
				<g id="shape175-79" v:mID="175" v:groupContext="shape" v:layerMember="0">
					<title>Sheet.175</title>
					<path d="M0 192.58 C0 192.34 0.2 192.14 0.44 192.14 L11.98 192.14 C12.15 192.14 12.3 192.23 12.37 192.38 C12.45
								 192.53 12.44 192.71 12.34 192.84 L9.34 196.93 L12.34 201.01 C12.44 201.15 12.45 201.33 12.37 201.48
								 C12.3 201.63 12.15 201.72 11.98 201.72 L0.89 201.72 L0.89 205.18 C0.89 205.43 0.69 205.63 0.44 205.63
								 C0.2 205.63 0 205.43 0 205.18 L0 192.58 ZM0.89 200.83 L11.1 200.83 L8.43 197.19 C8.31 197.04 8.31
								 196.82 8.43 196.67 L11.1 193.02 L0.89 193.02 L0.89 200.83 Z" class="st16"/>
				</g>
			</g>
			<g id="shape176-81" v:mID="176" v:groupContext="shape" v:layerMember="0"
					transform="translate(177.989,96.4831) rotate(59.5344)">
				<title>Sheet.176</title>
				<v:userDefs>
					<v:ud v:nameU="visNavOrder" v:prompt="" v:val="VT0(36000):26"/>
				</v:userDefs>
				<g id="shadow176-82" v:groupContext="shadow" v:shadowOffsetX="1.22465E-16" v:shadowOffsetY="-2" v:shadowType="1"
						v:shadowScale="1.01" transform="matrix(1.01,1.11022E-16,-1.11022E-16,1.01,1.6725,-0.963924)" class="st4">
					<path d="M0 197.8 C-2.27 204.07 -0.75 206.25 0.65 205.5 C1.82 204.87 2.91 202.2 4.37 198.23 C6.51 192.43 9.46
								 183.88 11.11 185.47 C12.14 186.47 12.66 191.45 10.27 197.8" class="st17"/>
				</g>
				<path d="M0 197.8 C-2.27 204.07 -0.75 206.25 0.65 205.5 C1.82 204.87 2.91 202.2 4.37 198.23 C6.51 192.43 9.46 183.88
							 11.11 185.47 C12.14 186.47 12.66 191.45 10.27 197.8" class="st18"/>
			</g>
		</g>
		<g id="shape128-89" v:mID="128" v:groupContext="shape" v:layerMember="2" transform="translate(426.044,-120.578)">
			<title>Sheet.128</title>
			<desc>Investigate and respond to threats</desc>
			<v:userDefs>
				<v:ud v:nameU="visNavOrder" v:val="VT0(17000):26"/>
			</v:userDefs>
			<v:textBlock v:margins="rect(0,0,0,0)" v:verticalAlign="0"/>
			<v:textRect cx="42.75" cy="194.071" width="85.5" height="23.1073"/>
			<rect x="0" y="182.518" width="85.5" height="23.1073" rx="4.5" ry="4.5" class="st10"/>
			<text x="0" y="191.52" class="st11" v:langID="1033"><v:paragraph/><v:tabList/>Investigate and <tspan x="0" dy="1.2em"
						class="st12">respond to threats</tspan></text>		</g>
		<g id="shape134-93" v:mID="134" v:groupContext="shape" v:layerMember="0" transform="translate(399.944,-150.165)">
			<title>Sheet.134</title>
			<v:userDefs>
				<v:ud v:nameU="visNavOrder" v:val="VT0(29000):26"/>
			</v:userDefs>
			<path d="M0 205.63 L111.6 205.63" class="st19"/>
		</g>
		<g id="shape123-96" v:mID="123" v:groupContext="shape" v:layerMember="2" transform="translate(37.1414,-120.578)">
			<title>Sheet.123</title>
			<desc>Start the pilot</desc>
			<v:userDefs>
				<v:ud v:nameU="visNavOrder" v:val="VT0(7000):26"/>
			</v:userDefs>
			<v:textBlock v:margins="rect(0,0,0,0)"/>
			<v:textRect cx="42.75" cy="194.071" width="85.5" height="23.1073"/>
			<rect x="0" y="182.518" width="85.5" height="23.1073" rx="4.5" ry="4.5" class="st10"/>
			<text x="0" y="197.07" class="st11" v:langID="1033"><v:paragraph/><v:tabList/>Start the pilot</text>		</g>
		<g id="shape132-99" v:mID="132" v:groupContext="shape" v:layerMember="0" transform="translate(11.0414,-150.165)">
			<title>Sheet.132</title>
			<v:userDefs>
				<v:ud v:nameU="visNavOrder" v:val="VT0(25000):26"/>
			</v:userDefs>
			<path d="M0 205.63 L111.6 205.63" class="st20"/>
		</g>
		<g id="group159-102" transform="translate(155.555,-65.4561)" v:mID="159" v:groupContext="group" v:layerMember="0">
			<v:userDefs>
				<v:ud v:nameU="visNavOrder" v:val="VT0(43000):26"/>
			</v:userDefs>
			<title>Sheet.159</title>
			<g id="shape160-103" v:mID="160" v:groupContext="shape" v:layerMember="0">
				<title>Sheet.160</title>
				<path d="M1.89 205.62 C1.64 205.62 1.4 205.57 1.17 205.47 C0.94 205.37 0.74 205.24 0.57 205.07 C0.4 204.9 0.26 204.69
							 0.15 204.46 C0.05 204.22 0 203.98 0.01 203.73 L0.01 189.89 C0.01 189.64 0.06 189.39 0.15 189.17 C0.25
							 188.94 0.39 188.74 0.56 188.57 C0.73 188.4 0.93 188.26 1.17 188.15 C1.4 188.05 1.65 188 1.89 188.01
							 L3.78 188.01 L3.78 187.96 C3.78 187.63 3.85 187.32 3.98 187.02 C4.11 186.73 4.29 186.47 4.52 186.24
							 C4.75 186.01 5.01 185.83 5.3 185.7 C5.6 185.57 5.91 185.5 6.25 185.49 L8.86 185.49 C9.18 185.49 9.48
							 185.56 9.78 185.69 C10.07 185.82 10.34 186 10.57 186.23 C10.81 186.46 10.99 186.71 11.12 186.99 C11.25
							 187.28 11.32 187.58 11.33 187.92 L11.33 188.01 L13.22 188.01 C13.47 188.01 13.71 188.05 13.94 188.15
							 C14.17 188.25 14.37 188.39 14.54 188.56 C14.71 188.73 14.85 188.93 14.96 189.17 C15.06 189.4 15.11 189.64
							 15.1 189.89 L15.1 203.73 C15.1 203.99 15.05 204.23 14.96 204.46 C14.86 204.69 14.72 204.89 14.55 205.06
							 C14.38 205.23 14.18 205.37 13.94 205.47 C13.71 205.58 13.46 205.63 13.22 205.62 L1.89 205.62 ZM8.81
							 189.26 C8.99 189.26 9.15 189.23 9.3 189.17 C9.45 189.1 9.59 189.01 9.7 188.9 C9.81 188.79 9.9 188.65
							 9.97 188.5 C10.04 188.34 10.08 188.18 10.07 188.01 C10.07 187.84 10.04 187.67 9.97 187.52 C9.91 187.37
							 9.82 187.24 9.71 187.12 C9.6 187 9.46 186.91 9.3 186.85 C9.15 186.78 8.98 186.75 8.81 186.75 L6.3 186.75
							 C6.12 186.75 5.96 186.78 5.81 186.85 C5.66 186.91 5.52 187 5.41 187.11 C5.3 187.22 5.21 187.36 5.14
							 187.51 C5.07 187.67 5.03 187.84 5.04 188.01 C5.04 188.18 5.07 188.35 5.14 188.5 C5.2 188.65 5.29 188.78
							 5.4 188.9 C5.51 189.02 5.65 189.11 5.8 189.17 C5.95 189.22 6.11 189.26 6.3 189.26 L8.81 189.26 ZM13.22
							 204.36 C13.39 204.36 13.53 204.3 13.66 204.17 C13.78 204.05 13.85 203.9 13.85 203.73 L13.85 189.89 C13.85
							 189.72 13.78 189.58 13.66 189.45 C13.53 189.33 13.39 189.26 13.22 189.26 L11 189.26 C10.77 189.66 10.47
							 189.96 10.08 190.19 C9.69 190.41 9.27 190.52 8.81 190.52 L6.3 190.52 C5.84 190.52 5.43 190.41 5.04 190.19
							 C4.65 189.96 4.34 189.66 4.12 189.26 L1.89 189.26 C1.72 189.26 1.58 189.33 1.45 189.45 C1.33 189.58
							 1.26 189.72 1.26 189.89 L1.26 203.73 C1.26 203.9 1.33 204.05 1.45 204.17 C1.58 204.3 1.72 204.36 1.89
							 204.36 L13.22 204.36 ZM5.04 194.3 L5.04 194.25 C5.04 193.91 5.11 193.59 5.25 193.29 C5.38 193 5.57 192.74
							 5.8 192.51 C6.02 192.28 6.29 192.1 6.59 191.98 C6.89 191.85 7.21 191.79 7.56 191.78 C7.9 191.78 8.22
							 191.85 8.53 191.98 C8.84 192.11 9.1 192.29 9.32 192.52 C9.55 192.75 9.73 193.02 9.86 193.32 C10 193.63
							 10.07 193.95 10.07 194.3 C10.07 194.64 10.01 194.97 9.87 195.27 C9.74 195.57 9.56 195.84 9.33 196.06
							 C9.11 196.29 8.84 196.47 8.53 196.61 C8.22 196.74 7.9 196.81 7.56 196.81 C7.21 196.81 6.88 196.75 6.58
							 196.62 C6.28 196.48 6.01 196.3 5.79 196.07 C5.56 195.85 5.38 195.58 5.25 195.28 C5.11 194.98 5.05 194.65
							 5.04 194.3 ZM8.81 194.3 C8.81 194.13 8.78 193.96 8.71 193.81 C8.65 193.66 8.56 193.53 8.45 193.41 C8.34
							 193.29 8.2 193.2 8.05 193.14 C7.89 193.07 7.73 193.04 7.56 193.04 C7.38 193.04 7.21 193.07 7.06 193.14
							 C6.91 193.2 6.78 193.29 6.67 193.4 C6.56 193.51 6.47 193.65 6.4 193.8 C6.32 193.96 6.29 194.13 6.3 194.3
							 C6.3 194.47 6.33 194.64 6.4 194.79 C6.46 194.94 6.55 195.07 6.66 195.19 C6.77 195.31 6.9 195.4 7.05
							 195.46 C7.2 195.51 7.37 195.55 7.56 195.55 C7.73 195.55 7.9 195.52 8.05 195.46 C8.2 195.39 8.33 195.3
							 8.44 195.19 C8.55 195.08 8.64 194.94 8.71 194.79 C8.79 194.63 8.82 194.47 8.81 194.3 ZM3.01 199.71 C3.01
							 199.47 3.05 199.25 3.13 199.04 C3.21 198.84 3.33 198.67 3.48 198.52 C3.63 198.38 3.8 198.27 4.01 198.19
							 C4.21 198.11 4.44 198.07 4.69 198.07 L10.42 198.07 C10.67 198.07 10.89 198.11 11.09 198.19 C11.3 198.27
							 11.47 198.38 11.62 198.52 C11.77 198.67 11.89 198.84 11.97 199.04 C12.05 199.25 12.09 199.47 12.1 199.71
							 C12.1 200.36 11.96 200.9 11.69 201.33 C11.42 201.77 11.08 202.11 10.65 202.37 C10.23 202.64 9.74 202.82
							 9.2 202.93 C8.65 203.05 8.11 203.1 7.56 203.1 C7 203.1 6.46 203.05 5.92 202.93 C5.39 202.82 4.9 202.64
							 4.47 202.38 C4.04 202.13 3.69 201.78 3.42 201.34 C3.15 200.9 3.01 200.36 3.01 199.71 ZM10.84 199.66
							 C10.84 199.53 10.8 199.44 10.72 199.4 C10.64 199.35 10.54 199.33 10.42 199.33 L4.69 199.33 C4.57 199.33
							 4.48 199.35 4.4 199.4 C4.32 199.44 4.28 199.53 4.27 199.66 C4.27 200.13 4.37 200.5 4.58 200.78 C4.78
							 201.06 5.04 201.29 5.35 201.45 C5.67 201.62 6.02 201.72 6.41 201.77 C6.79 201.81 7.17 201.84 7.56 201.84
							 C7.93 201.84 8.31 201.82 8.7 201.77 C9.08 201.71 9.44 201.61 9.76 201.45 C10.08 201.29 10.34 201.07
							 10.53 200.79 C10.73 200.51 10.83 200.13 10.84 199.66 Z" class="st21"/>
			</g>
		</g>
		<g id="shape190-105" v:mID="190" v:groupContext="shape" v:layerMember="0" transform="translate(11.0414,-122.165)">
			<title>Sheet.190</title>
			<desc>A</desc>
			<v:userDefs>
				<v:ud v:nameU="visNavOrder" v:val="VT0(62000):26"/>
			</v:userDefs>
			<v:textBlock v:margins="rect(0,0,0,0)"/>
			<v:textRect cx="10.6308" cy="194.995" width="21.27" height="21.2608"/>
			<rect x="0" y="184.364" width="21.2616" height="21.2608" rx="4.5" ry="4.5" class="st10"/>
			<text x="1.9" y="204.09" class="st22" v:langID="1033"><v:paragraph v:spLine="-1.4" v:horizAlign="1"/><v:tabList/>A</text>		</g>
		<g id="shape191-108" v:mID="191" v:groupContext="shape" v:layerMember="0" transform="translate(133.493,-122.165)">
			<title>Sheet.191</title>
			<desc>B</desc>
			<v:userDefs>
				<v:ud v:nameU="visNavOrder" v:val="VT0(63000):26"/>
			</v:userDefs>
			<v:textBlock v:margins="rect(0,0,0,0)"/>
			<v:textRect cx="10.6308" cy="194.995" width="21.27" height="21.2608"/>
			<rect x="0" y="184.364" width="21.2616" height="21.2608" rx="4.5" ry="4.5" class="st10"/>
			<text x="2.78" y="204.09" class="st23" v:langID="1033"><v:paragraph v:spLine="-1.4" v:horizAlign="1"/><v:tabList/>B</text>		</g>
		<g id="shape192-111" v:mID="192" v:groupContext="shape" v:layerMember="0" transform="translate(399.944,-122.165)">
			<title>Sheet.192</title>
			<desc>C</desc>
			<v:userDefs>
				<v:ud v:nameU="visNavOrder" v:val="VT0(64000):26"/>
			</v:userDefs>
			<v:textBlock v:margins="rect(0,0,0,0)"/>
			<v:textRect cx="10.6308" cy="194.995" width="21.27" height="21.2608"/>
			<rect x="0" y="184.364" width="21.2616" height="21.2608" rx="4.5" ry="4.5" class="st10"/>
			<text x="2.56" y="204.09" class="st24" v:langID="1033"><v:paragraph v:spLine="-1.4" v:horizAlign="1"/><v:tabList/>C</text>		</g>
	</g>
</svg>
