<?xml version="1.0" encoding="UTF-8"?>
<svg width="107px" height="127px" viewBox="0 0 107 127" version="1.1" xmlns="http://www.w3.org/2000/svg" xmlns:xlink="http://www.w3.org/1999/xlink">
    <!-- Generator: Sketch 59.1 (86144) - https://sketch.com -->
    <title>defend-against-threats-with-microsoft-365-and-microsoft-threat-protection</title>
    <desc>Created with Sketch.</desc>
    <defs>
        <linearGradient x1="58.5494807%" y1="-10.4657707%" x2="34.1382236%" y2="116.311077%" id="linearGradient-1">
            <stop stop-color="#FFFFFF" offset="0%"></stop>
            <stop stop-color="#000000" stop-opacity="0.5" offset="100%"></stop>
        </linearGradient>
        <path d="M46.2332564,1.35139274 L46.2336026,1.35118235 L5.01144651,26.4054169 C1.92580922,28.2814415 0,31.8266197 0,35.6917638 L0,85.3882362 C0,89.2528359 1.92678198,92.8006347 5.01125014,94.6744637 L46.2320242,119.729637 C47.7012131,120.620732 49.3399349,121.08 51,121.08 C52.660622,121.08 54.3002463,120.620479 55.7647178,119.730609 L96.9888139,94.6744248 C100.072436,92.800269 102,89.2517424 102,85.3882362 L102,35.6917638 C102,31.8277131 100.07341,28.2818084 96.9888341,26.4055875 L55.7636916,1.350544 C54.3000291,0.45971937 52.6610283,-7.10542736e-15 51,-7.10542736e-15 C49.3395281,-7.10542736e-15 47.7014267,0.45946711 46.2332564,1.35139274 Z" id="path-2"></path>
        <filter x="-2.5%" y="-2.1%" width="105.9%" height="105.0%" filterUnits="objectBoundingBox" id="filter-3">
            <feMorphology radius="2" operator="dilate" in="SourceAlpha" result="shadowSpreadOuter1"></feMorphology>
            <feOffset dx="1" dy="1" in="shadowSpreadOuter1" result="shadowOffsetOuter1"></feOffset>
            <feMorphology radius="2" operator="erode" in="SourceAlpha" result="shadowInner"></feMorphology>
            <feOffset dx="1" dy="1" in="shadowInner" result="shadowInner"></feOffset>
            <feComposite in="shadowOffsetOuter1" in2="shadowInner" operator="out" result="shadowOffsetOuter1"></feComposite>
            <feColorMatrix values="0 0 0 0 0   0 0 0 0 0   0 0 0 0 0  0 0 0 0.0964816434 0" type="matrix" in="shadowOffsetOuter1"></feColorMatrix>
        </filter>
    </defs>
    <g id="Badges-2.0" stroke="none" stroke-width="1" fill="none" fill-rule="evenodd">
        <g id="defend-against-threats-with-microsoft-365-and-microsoft-threat-protection" transform="translate(2.000000, 2.000000)">
            <path d="M57.2142124,4 L95.365625,27.1853599 C98.846875,29.3028615 101,33.2629081 101,37.5582677 L101,84.4417323 C101,88.7354153 98.846875,92.698815 95.365625,94.8146401 L56.475,118.45253 C54.778125,119.483618 52.8890625,120 51,120 C49.1109375,120 47.2234375,119.483618 45.5234375,118.45253 L6.634375,94.8146401 C5.16457678,93.9217307 3.93186945,92.6997749 2.99790714,91.2628111 L2.99765655,30.7377657 C3.93164895,29.3009629 5.16444532,28.0790567 6.634375,27.1853599 L44.7832124,4 L57.2142124,4 Z" id="Rectangle-2" fill="#0078D4" fill-rule="nonzero"></path>
            <path d="M45.5234375,3.54914609 C47.2234375,2.51638203 49.1109375,2 51,2 C52.8890625,2 54.778125,2.51638203 56.475,3.54914609 L95.365625,27.1853599 C98.846875,29.3028615 101,33.2629081 101,37.5582677 L101,84.4417323 C101,88.7354153 98.846875,92.698815 95.365625,94.8146401 L56.475,118.45253 C54.778125,119.483618 52.8890625,120 51,120 C49.1109375,120 47.2234375,119.483618 45.5234375,118.45253 L6.634375,94.8146401 C3.1515625,92.698815 1,88.7354153 1,84.4417323 L1,37.5582677 C1,33.2629081 3.1515625,29.3028615 6.634375,27.1853599 L45.5234375,3.54914609 Z" id="Combined-Shape-2" fill="url(#linearGradient-1)" opacity="0.400000006" style="mix-blend-mode: overlay;"></path>
            <g id="Path">
                <use fill="black" fill-opacity="1" filter="url(#filter-3)" xlink:href="#path-2"></use>
                <use stroke="#F2F1F0" stroke-width="4" xlink:href="#path-2"></use>
            </g>
            <g id="Mask" transform="translate(13.000000, 22.500000)" fill-rule="nonzero">
                <path d="M72.9579057,0.105445 L62.250543,10.8128077 L62.2543313,10.8128077 C55.5382127,4.61656383 46.7387091,1.17880395 37.6059301,1.17880395 C28.473151,1.17880395 19.6735503,4.61656383 12.9575288,10.8128077 L2.25308023,0.105445 L0.105488095,2.25303713 L10.8128507,12.9603998 L10.8128507,12.9566017 C4.61660693,19.6727204 1.17884705,28.472224 1.17884705,37.605003 C1.17884705,46.7377821 4.61660693,55.5373828 10.8128507,62.2534043 L0.105488095,72.9578529 L2.25308023,75.105445 L12.9604429,64.3980823 L12.9566546,64.3980823 C19.6727732,70.5943262 28.4722768,74.032086 37.6050558,74.032086 C46.7378349,74.032086 55.5374356,70.5943262 62.2534571,64.3980823 L72.9608198,75.105445 L75.1084119,72.9578529 L64.4010493,62.2504902 L64.3972512,62.2542883 C70.593495,55.5381696 74.0312549,46.738666 74.0312549,37.605887 C74.0312549,28.4731079 70.593495,19.6735072 64.3972512,12.9574857 L75.1046139,2.25012304 L72.9579057,0.105445 Z M37.6050558,70.9957041 C28.7489217,70.9957041 20.2574382,67.4782923 13.9921303,61.2179383 C7.73138776,54.9534075 4.21436445,46.461924 4.21436445,37.6050127 C4.21436445,28.7481015 7.7317763,20.2573951 13.9921303,13.9920872 C20.2566611,7.73134466 28.7481446,4.21432135 37.6050558,4.21432135 C46.4619671,4.21432135 54.9526735,7.73173321 61.2179814,13.9920872 C67.4787239,20.256618 70.9957472,28.7481015 70.9957472,37.6050127 C70.9843628,46.4573586 67.4631821,54.9458309 61.206325,61.2062819 C54.9455825,67.4632361 46.4571103,70.9840477 37.6050558,70.9957041 Z" id="Fill-2" fill="#ED6759"></path>
                <ellipse id="Shadow" fill="#000000" opacity="0.1" cx="38.5239703" cy="73.1415095" rx="23.082" ry="4.022"></ellipse>
                <g id="Cape" transform="translate(51.999970, 17.999510)">
                    <path d="M0.132,16.94 C0.132,20.94 3.132,24.94 5.132,24.94 C7.132,24.94 9.132,23.94 11.132,22.94 C13.132,21.94 18.132,24.94 22.132,23.94 C26.132,22.94 25.132,13.94 30.132,12.94 C35.132,11.94 35.132,11.2133007 35.132,11.94 C35.132,12.6666993 35.132,4.94 35.132,2.94 C35.132,0.94 26.132,11.94 17.132,11.94 C11.132,11.94 5.799,9.607 1.132,4.94 C0.465,10.274 0.132,14.274 0.132,16.94 Z" id="Path-3" fill="#DF5142"></path>
                    <path d="M26.132,13.941 C19.75,15.941 18.132,18.941 11.132,18.941 C4.132,18.941 1.132,12.941 0.132,0.941 C6.132,9.941 9.132,9.941 11.132,9.941 C13.132,9.941 15.132,9.941 18.132,5.441 C21.132,0.941 27.132,2.941 29.132,5.441 C29.7984858,6.27397118 34.5826456,10.0171709 34.00003,11.94 C33.5117989,13.5513284 27.8877864,13.3906925 26.132,13.941 Z" id="Path-2" fill="#C2423D"></path>
                </g>
                <g id="Legs" transform="translate(36.413791, 60.758936) rotate(-4.000000) translate(-36.413791, -60.758936) translate(22.913791, 46.258936)" fill="#30404D">
                    <path d="M4.72004418,23.4001878 L4.38304418,18.8481878 C4.1198043,15.2948604 4.23713748,11.7235737 4.73304418,8.19518782 L5.49004418,2.81218782 C5.55921061,2.15813116 5.97960085,1.59386996 6.58652429,1.34045718 C7.19344774,1.0870444 7.8902667,1.18482983 8.40399784,1.59550539 C8.91772899,2.00618095 9.16657321,2.66435662 9.05304418,3.31218782 L8.36304418,8.23018782 C7.87676043,11.6898731 7.75442549,15.1909985 7.99804418,18.6761878 L8.44004418,25.0091878 C8.46704418,25.3881878 8.37404418,25.7471878 8.19404418,26.0511878 C7.88056645,26.6070256 7.29609057,26.9551997 6.65804418,26.9661878 L3.33504418,27.0241878 C2.36087243,27.0136074 1.57192444,26.2298865 1.55486857,25.2558066 C1.53781269,24.2817267 2.29883999,23.4708662 3.27204418,23.4261878 L4.72004418,23.4001878 L4.72004418,23.4001878 Z" id="Combined-Shape" transform="translate(5.317347, 14.112825) rotate(4.000000) translate(-5.317347, -14.112825) "></path>
                    <path d="M21.5983791,24.8780577 L21.2603791,20.3260577 C20.9971393,16.7727303 21.1144724,13.2014436 21.6103791,9.67305768 L22.3673791,4.29005768 C22.4421813,3.6406733 22.8631575,3.08288252 23.46714,2.83288144 C24.0711226,2.58288036 24.7631669,2.67996851 25.2750412,3.08651516 C25.7869154,3.49306181 26.0381543,4.14515884 25.9313791,4.79005768 L25.2403791,9.70705768 C24.7540254,13.1670723 24.6316904,16.6685366 24.8753791,20.1540577 L25.3183791,26.4870577 C25.3443791,26.8660577 25.2513791,27.2250577 25.0713791,27.5290577 C24.7578266,28.0842059 24.1738592,28.4319234 23.5363791,28.4430577 L20.2123791,28.5010577 C19.2382074,28.4904773 18.4492594,27.7067564 18.4322035,26.7326765 C18.4151476,25.7585966 19.1761749,24.9477361 20.1493791,24.9030577 L21.5983791,24.8780577 L21.5983791,24.8780577 Z" id="Combined-Shape-Copy" transform="translate(22.193759, 15.598537) scale(-1, 1) rotate(-4.000000) translate(-22.193759, -15.598537) "></path>
                </g>
                <g id="Arm" transform="translate(56.999986, 34.999969) rotate(8.000000) translate(-56.999986, -34.999969) translate(50.999986, 23.999969)" fill="#30404D">
                    <path d="M2.01,17.403 L6.571,12.156 C7.26913224,11.3530667 7.21639622,10.1440935 6.451,9.405 L0.941,4.085 C0.226146499,3.39433354 0.206448169,2.25496423 0.897,1.54 C1.587,0.825 1.677,0.043 2.392,0.733 L10.554,9.498 C11.2143765,10.2069117 11.2716777,11.2872071 10.69,12.062 L6.032,18.261 C6.63093613,18.8563491 6.73545917,19.7880351 6.28333248,20.5012998 C5.83120578,21.2145645 4.94400488,21.5176131 4.15,21.23 L2.71,20.706 C1.86192802,20.3968401 1.37399127,19.5073498 1.569,18.626 C1.559,18.194 1.703,17.756 2.009,17.403 L2.01,17.403 Z" id="Combined-Shape"></path>
                </g>
                <g id="Arm-Copy" transform="translate(16.752706, 35.000065) scale(-1, 1) rotate(4.000000) translate(-16.752706, -35.000065) translate(10.752706, 24.000065)" fill="#30404D">
                    <path d="M2.01,17.403 L6.571,12.156 C7.26913224,11.3530667 7.21639622,10.1440935 6.451,9.405 L0.941,4.085 C0.226146499,3.39433354 0.206448169,2.25496423 0.897,1.54 C1.587,0.825 1.677,0.043 2.392,0.733 L10.554,9.498 C11.2143765,10.2069117 11.2716777,11.2872071 10.69,12.062 L6.032,18.261 C6.63093613,18.8563491 6.73545917,19.7880351 6.28333248,20.5012998 C5.83120578,21.2145645 4.94400488,21.5176131 4.15,21.23 L2.71,20.706 C1.86192802,20.3968401 1.37399127,19.5073498 1.569,18.626 C1.559,18.194 1.703,17.756 2.009,17.403 L2.01,17.403 Z" id="Combined-Shape"></path>
                </g>
                <g id="Shield" transform="translate(36.709561, 33.615398) rotate(2.000000) translate(-36.709561, -33.615398) translate(18.709561, 12.615398)">
                    <path d="M17.788,1.297 C14.335,5.193 8.252,6.485 1.318,6.485 L1.318,16.862 C1.318,27.56 6.135,34.445 17.788,40.209 C29.441,34.445 34.258,27.559 34.258,16.862 L34.258,6.485 C27.325,6.485 21.242,5.193 17.788,1.297" id="Fill-22" fill="#2D4A5E"></path>
                    <path d="M17.788,40.209 C29.441,34.445 34.258,27.559 34.258,16.862 L34.258,6.485 C27.325,6.485 21.242,5.193 17.788,1.297 L17.788,40.209 Z" id="Fill-23" fill="#000000" opacity="0.100000001"></path>
                    <path d="M2.635,7.75 L2.635,16.85 C2.635,26.9 7.036,33.284 17.788,38.752 C28.54,33.284 32.941,26.9 32.941,16.849 L32.941,7.749 C26.015,7.582 21.032,6.064 17.788,3.132 C14.544,6.064 9.562,7.582 2.635,7.749 L2.635,7.75 Z M17.788,41.5060005 C17.585,41.5060005 17.383,41.46 17.197,41.368 C5.143,35.403 0,28.07 0,16.849 L0,6.468 C0,5.75 0.59,5.17 1.318,5.17 C8.903,5.17 13.966,3.617 16.795,0.423 C17.296,-0.141 18.28,-0.141 18.781,0.423 C21.611,3.617 26.673,5.17 34.259,5.17 C34.986,5.17 35.576,5.751 35.576,6.468 L35.576,16.849 C35.576,28.069 30.433,35.403 18.38,41.368 C18.1959165,41.4589462 17.9933239,41.5060005 17.788,41.5060005 Z" id="Fill-24" fill="#182A37"></path>
                </g>
            </g>
            <path d="M46.5618501,5.25844398 L46.5621963,5.25823359 L7.67338401,28.8942953 C4.79673288,30.6432593 3,33.9508238 3,37.5582677 L3,84.4417323 C3,88.0486597 4.79764663,91.3586805 7.67318764,93.1055853 L46.560618,116.742485 C47.9289662,117.572418 49.4546283,118 51,118 C52.5458817,118 54.0723633,117.572188 55.4362178,116.743457 L94.3268764,93.1055464 C97.2016145,91.3583456 99,88.0476286 99,84.4417323 L99,37.5582677 C99,33.9518547 97.202529,30.6435953 94.3268966,28.8944659 L55.4351916,5.25759524 C54.0721095,4.42798656 52.5462432,4 51,4 C49.4542664,4 47.9292165,4.42775755 46.5618501,5.25844398 Z" id="Path" stroke="#0078D4" stroke-width="4"></path>
        </g>
    </g>
</svg>