<svg width="100" height="100" viewBox="0 0 100 100" fill="none" xmlns="http://www.w3.org/2000/svg">
<g clip-path="url(#clip0)">
<path d="M49.1926 96.4501C39.9344 96.4501 30.8842 93.7047 23.1863 88.5612C15.4885 83.4176 9.48873 76.1069 5.94579 67.5535C2.40285 59.0001 1.47586 49.5882 3.28203 40.5079C5.0882 31.4277 9.54643 23.0869 16.0929 16.5404C22.6394 9.99393 30.9802 5.53571 40.0604 3.72954C49.1407 1.92337 58.5526 2.85036 67.106 6.3933C75.6594 9.93624 82.9701 15.936 88.1137 23.6339C93.2572 31.3317 96.0026 40.382 96.0026 49.6401C96.003 55.7874 94.7925 61.8746 92.4403 67.554C90.088 73.2335 86.64 78.3939 82.2932 82.7407C77.9464 87.0875 72.7859 90.5355 67.1065 92.8878C61.4271 95.24 55.3399 96.4505 49.1926 96.4501V96.4501Z" fill="url(#paint0_linear)"/>
<path fill-rule="evenodd" clip-rule="evenodd" d="M95.5402 49.7103C95.5402 58.7885 92.8483 67.6628 87.8047 75.211C82.7611 82.7592 75.5925 88.6423 67.2054 92.1164C58.8183 95.5904 49.5893 96.4994 40.6856 94.7284C31.7819 92.9573 23.6033 88.5857 17.184 82.1665C10.7648 75.7473 6.39326 67.5687 4.6222 58.665C2.85114 49.7612 3.76011 40.5323 7.23417 32.1451C10.7082 23.758 16.5914 16.5894 24.1396 11.5459C31.6878 6.5023 40.5621 3.81031 49.6402 3.81031C55.6679 3.81029 61.6366 4.99751 67.2054 7.3042C72.7743 9.61088 77.8343 12.9918 82.0965 17.2541C86.3587 21.5163 89.7397 26.5763 92.0464 32.1451C94.353 37.714 95.5403 43.6826 95.5402 49.7103V49.7103ZM49.6402 0.0703125C59.4581 0.0703125 69.0555 2.98165 77.2188 8.43616C85.382 13.8907 91.7445 21.6434 95.5016 30.7139C99.2588 39.7844 100.242 49.7654 98.3264 59.3946C96.4111 69.0238 91.6833 77.8688 84.741 84.8111C77.7987 91.7534 68.9537 96.4811 59.3245 98.3965C49.6953 100.312 39.7144 99.3288 30.6438 95.5717C21.5733 91.8146 13.8206 85.4521 8.36609 77.2888C2.91158 69.1256 0.000244502 59.5282 0.000244502 49.7103C-0.000542285 43.1913 1.2829 36.7359 3.77726 30.713C6.27163 24.69 9.92805 19.2174 14.5377 14.6078C19.1474 9.99812 24.62 6.3417 30.6429 3.84734C36.6659 1.35297 43.1212 0.0695344 49.6402 0.0703225V0.0703125Z" fill="#F2F1F0"/>
<path fill-rule="evenodd" clip-rule="evenodd" d="M92.2821 49.6386C92.2821 58.161 89.7549 66.492 85.0201 73.5781C80.2853 80.6643 73.5556 86.1872 65.6819 89.4486C57.8082 92.71 49.1443 93.5633 40.7856 91.9007C32.427 90.238 24.7491 86.1341 18.7228 80.1079C12.6966 74.0816 8.59266 66.4037 6.93002 58.0451C5.26739 49.6864 6.12071 41.0225 9.38209 33.1488C12.6435 25.2751 18.1664 18.5454 25.2525 13.8106C32.3387 9.07581 40.6697 6.54862 49.1921 6.54862C54.8508 6.54828 60.4542 7.6626 65.6823 9.82795C70.9104 11.9933 75.6607 15.1673 79.6621 19.1686C83.6634 23.17 86.8374 27.9203 89.0027 33.1484C91.1681 38.3765 92.2824 43.9799 92.2821 49.6386V49.6386ZM49.1921 2.80862C58.4542 2.80862 67.5083 5.55515 75.2094 10.7009C82.9106 15.8466 88.9129 23.1605 92.4573 31.7176C96.0018 40.2746 96.9292 49.6906 95.1222 58.7747C93.3153 67.8588 88.8552 76.2031 82.3059 82.7524C75.7566 89.3017 67.4123 93.7619 58.3281 95.5688C49.244 97.3757 39.8281 96.4484 31.271 92.9039C22.7139 89.3594 15.4001 83.3571 10.2543 75.656C5.10859 67.9548 2.36206 58.9007 2.36206 49.6386C2.36325 37.2189 7.29749 25.3082 16.0796 16.5261C24.8616 7.74404 36.7723 2.80979 49.1921 2.80859V2.80862Z" fill="#0078D4"/>
<path d="M60.6221 71.1207C64.8095 71.1207 68.204 67.7262 68.204 63.5389C68.204 59.3515 64.8095 55.957 60.6221 55.957C56.4348 55.957 53.0403 59.3515 53.0403 63.5389C53.0403 67.7262 56.4348 71.1207 60.6221 71.1207Z" stroke="#1F56A3" stroke-width="3.21855" stroke-miterlimit="10"/>
<path d="M65.9832 68.8984L71.1075 74.0228" stroke="#1F56A3" stroke-width="3.21855" stroke-miterlimit="10" stroke-linecap="round"/>
<path fill-rule="evenodd" clip-rule="evenodd" d="M47.9757 36.438L45.7763 35.9489C45.5486 35.8661 45.3628 35.6968 45.2593 35.4778C45.252 35.4537 45.2433 35.43 45.2333 35.4068L44.6264 33.932C44.616 33.9065 44.6042 33.8809 44.5914 33.8563C44.5091 33.6302 44.52 33.3806 44.6217 33.1625L45.8316 31.261C46.0791 30.8493 46.1847 30.3678 46.1324 29.8903C46.08 29.4128 45.8725 28.9657 45.5416 28.6174L44.8723 27.9481C44.5209 27.623 44.0743 27.4193 43.5983 27.3671C43.1224 27.3149 42.6423 27.4169 42.2287 27.6582L40.3268 28.8677C40.2056 28.9283 40.0711 28.9576 39.9357 28.9528C39.8322 28.9566 39.7291 28.938 39.6334 28.8984C39.6088 28.8852 39.5833 28.8735 39.5573 28.8634L38.0829 28.2561C38.0597 28.2464 38.036 28.2379 38.0119 28.2305C37.7929 28.1268 37.6237 27.9408 37.5408 27.7131L37.0522 25.5141C36.9361 25.0479 36.6702 24.6326 36.2954 24.332C35.9206 24.0313 35.4575 23.8619 34.9772 23.8496H34.0312C33.551 23.8617 33.088 24.0311 32.7132 24.3316C32.3385 24.6322 32.0727 25.0474 31.9567 25.5136L31.4676 27.714C31.3843 27.9412 31.2151 28.1267 30.9965 28.2305C30.9723 28.2376 30.9487 28.2466 30.925 28.2561L29.4507 28.8634C29.4247 28.8736 29.3993 28.8853 29.3746 28.8984C29.2789 28.9381 29.1758 28.9567 29.0723 28.9528C28.9367 28.9573 28.8021 28.928 28.6807 28.8676L26.7797 27.6586C26.3661 27.4175 25.886 27.3155 25.41 27.3677C24.9341 27.4199 24.4876 27.6236 24.1361 27.9486L23.4668 28.6174C23.1358 28.9657 22.9283 29.413 22.8759 29.8906C22.8235 30.3682 22.9292 30.8497 23.1768 31.2615L24.3867 33.1625C24.4879 33.3806 24.4988 33.6298 24.417 33.8559C24.4042 33.881 24.3919 33.9065 24.3815 33.9321L23.7747 35.4069C23.7652 35.4301 23.7562 35.4537 23.7487 35.4779C23.6451 35.697 23.4593 35.8664 23.2317 35.9495L21.0327 36.4376C20.5664 36.5537 20.1511 36.8195 19.8504 37.1944C19.5498 37.5692 19.3803 38.0323 19.3682 38.5126V39.4586C19.3803 39.9389 19.5497 40.4018 19.8503 40.7766C20.1508 41.1513 20.566 41.4171 21.0322 41.5332L23.2321 42.0218C23.4595 42.105 23.6451 42.2744 23.7486 42.4934C23.7562 42.5175 23.7651 42.5412 23.7746 42.5644L24.3814 44.0392C24.3919 44.0647 24.4037 44.0898 24.4169 44.1149C24.4988 44.3412 24.4878 44.5906 24.3862 44.8088L23.1767 46.7098C22.929 47.1215 22.8232 47.6031 22.8756 48.0807C22.928 48.5584 23.1357 49.0056 23.4667 49.3538L24.136 50.0231C24.4877 50.3481 24.9343 50.5516 25.4103 50.6038C25.8862 50.656 26.3663 50.5541 26.7801 50.3131L28.6801 49.1036C28.8017 49.0431 28.9364 49.0138 29.0722 49.0185C29.1757 49.0143 29.2789 49.0329 29.3744 49.0729C29.3995 49.0852 29.4246 49.0975 29.4506 49.1079L30.9249 49.7152C30.9486 49.7247 30.9722 49.7332 30.9963 49.7408C31.2151 49.8446 31.3843 50.0303 31.4675 50.2577L31.9565 52.4572C32.0725 52.9235 32.3382 53.3388 32.713 53.6395C33.0877 53.9402 33.5508 54.1096 34.0311 54.1217H34.9771C35.4574 54.1094 35.9204 53.94 36.2951 53.6393C36.6698 53.3387 36.9356 52.9234 37.0517 52.4572L37.5408 50.2577C37.6238 50.0302 37.793 49.8445 38.0119 49.7408C38.036 49.7332 38.0597 49.7247 38.0829 49.7152L39.5572 49.1079C39.5832 49.0975 39.6088 49.0852 39.6334 49.0729C39.7288 49.0331 39.8318 49.0145 39.9351 49.0185C40.0707 49.0137 40.2054 49.043 40.3268 49.1036L42.2282 50.3126C42.6418 50.5539 43.122 50.6561 43.598 50.604C44.074 50.5518 44.5207 50.3482 44.8723 50.0231L45.5411 49.3543C45.8721 49.006 46.0798 48.5587 46.1323 48.081C46.1847 47.6034 46.0791 47.1217 45.8315 46.7098L44.6216 44.8088C44.5713 44.7009 44.5427 44.5841 44.5375 44.4651C44.5323 44.3461 44.5506 44.2273 44.5913 44.1154C44.6041 44.0903 44.6159 44.0652 44.6263 44.0397L45.2332 42.5644C45.2432 42.5413 45.2519 42.5176 45.2592 42.4934C45.3629 42.2743 45.5489 42.1049 45.7766 42.0218L47.9751 41.5332C48.4415 41.4173 48.8569 41.1516 49.1577 40.7769C49.4584 40.4021 49.6279 39.939 49.6401 39.4587V38.5127C49.628 38.0323 49.4587 37.5693 49.158 37.1945C48.8573 36.8197 48.442 36.554 47.9757 36.438V36.438Z" fill="#1F56A3"/>
<path d="M34.5042 43.8517C37.1805 43.8517 39.35 41.6822 39.35 39.0059C39.35 36.3297 37.1805 34.1602 34.5042 34.1602C31.828 34.1602 29.6584 36.3297 29.6584 39.0059C29.6584 41.6822 31.828 43.8517 34.5042 43.8517Z" fill="#1B93EB"/>
<path d="M67.1813 34.0527C66.2734 34.0527 65.3865 34.0195 64.5277 33.9539C63.7352 33.8927 62.9476 33.7802 62.1697 33.6172C61.4496 33.4658 60.7443 33.2512 60.0618 32.9761C59.3913 32.7028 58.7502 32.3622 58.1482 31.9598C57.0756 31.2261 55.9033 30.65 54.6672 30.249C53.5162 29.8856 52.3301 29.6443 51.1285 29.5292C51.0096 29.5178 50.8924 29.5117 50.7752 29.5117H48.433C48.3158 29.5117 48.1986 29.5178 48.0797 29.5292C46.8775 29.6443 45.6908 29.8859 44.5392 30.2499C43.3224 30.643 42.167 31.2056 41.1072 31.9213C40.4851 32.3384 39.8236 32.6937 39.1324 32.9822C38.4586 33.256 37.7613 33.4676 37.049 33.6145C36.2623 33.7781 35.466 33.8915 34.6648 33.9539C33.8025 34.0195 32.9232 34.0524 32.027 34.0527C31.0769 34.0528 30.1657 34.4302 29.4939 35.102C28.8221 35.7739 28.4446 36.685 28.4446 37.6351L28.4463 47.1212C28.4603 47.5498 28.4813 47.9783 28.5058 48.3894C28.5338 48.8591 28.5775 49.3287 28.637 49.7984C28.6982 50.2882 29.0411 52.11 29.1618 52.5849C29.7554 54.9095 30.6872 57.1344 31.9273 59.1882C33.1211 61.1625 34.5213 63.0043 36.1044 64.6826C37.6695 66.3394 39.3756 67.857 41.2035 69.2183C42.9437 70.5165 44.7559 71.7155 46.6313 72.8095C47.1782 73.1283 47.8 73.2961 48.433 73.2958H50.7752C51.4083 73.2961 52.03 73.1283 52.5769 72.8095C54.4525 71.7155 56.2647 70.5163 58.0048 69.2175C59.8326 67.8568 61.5387 66.3397 63.1038 64.6835C64.6867 63.0047 66.0869 61.1627 67.281 59.1883C68.5211 57.1344 69.4529 54.9096 70.0465 52.585C70.1689 52.11 70.4855 50.3573 70.5555 49.9078C70.6342 49.4066 70.689 48.9061 70.7199 48.4061C70.7496 47.9408 70.7642 47.4752 70.7636 47.0093V37.6351C70.7636 36.685 70.3862 35.7739 69.7143 35.102C69.0425 34.4302 68.1313 34.0528 67.1813 34.0527V34.0527Z" fill="white"/>
<path d="M50.776 33.0957C51.7272 33.1857 52.6661 33.376 53.5773 33.6633C54.4878 33.9596 55.351 34.385 56.1406 34.9266C56.9518 35.4716 57.8169 35.9318 58.7222 36.2998C59.5996 36.6534 60.5063 36.9291 61.432 37.1237C62.3621 37.3194 63.3039 37.4539 64.2516 37.5265C65.2037 37.5998 66.1802 37.6364 67.1811 37.6364V47.0107C67.1811 47.4013 67.1689 47.7919 67.1445 48.1825C67.12 48.5731 67.0773 48.9637 67.0163 49.3543H50.776V33.0957ZM32.0273 37.6364C33.016 37.6364 33.9864 37.5998 34.9385 37.5265C35.8921 37.4531 36.8401 37.3185 37.7764 37.1237C38.703 36.9325 39.61 36.6567 40.4862 36.2998C41.3965 35.9226 42.2673 35.4565 43.0861 34.9083C43.8713 34.375 44.7282 33.9558 45.6311 33.6633C46.5423 33.376 47.4813 33.1857 48.4324 33.0957V49.3543H32.1922C32.1433 48.9637 32.1067 48.5731 32.0823 48.1825C32.0579 47.7919 32.0396 47.4013 32.0274 47.0108L32.0273 37.6364ZM48.4324 69.7142C46.6735 68.6882 44.9741 67.5635 43.3424 66.3453C41.6811 65.1099 40.1311 63.7315 38.7102 62.2257C37.3009 60.733 36.0549 59.0942 34.9934 57.3371C33.9333 55.5837 33.1374 53.6835 32.6316 51.6979H48.4324V69.7142ZM50.776 51.6979H66.5769C66.071 53.6835 65.2752 55.5837 64.215 57.3371C63.1535 59.0942 61.9075 60.733 60.4982 62.2257C59.0773 63.7315 57.5273 65.1099 55.8659 66.3453C54.2343 67.5635 52.5349 68.6882 50.7759 69.7142L50.776 51.6979Z" fill="#0078D4"/>
<path opacity="0.2" d="M39.9131 54.3394C39.5374 53.698 39.0004 53.1661 38.3554 52.7964C37.7104 52.4268 36.98 52.2324 36.2366 52.2324C35.4932 52.2325 34.7628 52.427 34.1179 52.7967C33.473 53.1665 32.936 53.6985 32.5603 54.34L30.8633 57.2316C31.1884 57.901 31.5418 58.5511 31.9272 59.1893C33.121 61.1635 34.5213 63.0053 36.1044 64.6836C37.6694 66.3404 39.3755 67.858 41.2034 69.2193C42.9437 70.5175 44.7559 71.7165 46.6313 72.8105C47.1781 73.1293 47.7999 73.2971 48.4329 73.2968H50.7752C50.8149 73.2968 50.8536 73.2826 50.8933 73.2813C50.8006 72.9968 50.6788 72.7227 50.5297 72.4633L39.9131 54.3394Z" fill="#003067"/>
<path opacity="0.2" d="M67.1812 34.053C66.2732 34.053 65.3865 34.0198 64.5276 33.9542C63.7352 33.893 62.9475 33.7805 62.1696 33.6175C61.4496 33.466 60.7442 33.2515 60.0618 32.9764C59.3913 32.7031 58.7502 32.3626 58.1483 31.9601C57.0757 31.2265 55.9034 30.6504 54.6673 30.2494C54.5295 30.2054 54.381 30.1792 54.241 30.1387C53.7018 32.3554 53.7716 34.6767 54.443 36.857C55.1144 39.0374 56.3624 40.9958 58.0551 42.5253C59.7478 44.0548 61.8223 45.0986 64.0594 45.5462C66.2964 45.9938 68.6128 45.8287 70.7637 45.0683V37.6355C70.7637 36.6854 70.3862 35.7742 69.7144 35.1024C69.0425 34.4305 68.1314 34.0531 67.1812 34.053V34.053Z" fill="#003067"/>
<path d="M23.8647 73.5886L34.4812 55.4651C34.6606 55.1589 34.917 54.9049 35.225 54.7284C35.5329 54.5519 35.8817 54.459 36.2366 54.459C36.5916 54.459 36.9404 54.5519 37.2483 54.7284C37.5563 54.9049 37.8127 55.1589 37.9921 55.4651L48.6086 73.5886C48.7896 73.8977 48.8859 74.2491 48.8876 74.6073C48.8893 74.9655 48.7964 75.3178 48.6182 75.6286C48.4401 75.9394 48.1831 76.1976 47.8731 76.3772C47.5632 76.5568 47.2113 76.6514 46.8531 76.6514H25.6202C25.262 76.6514 24.9101 76.5568 24.6002 76.3772C24.2902 76.1976 24.0332 75.9394 23.8551 75.6286C23.6769 75.3178 23.584 74.9655 23.5857 74.6073C23.5874 74.2491 23.6836 73.8977 23.8647 73.5886V73.5886Z" fill="white"/>
<path d="M36.237 69.3167C36.1479 69.3167 36.0597 69.2992 35.9773 69.2651C35.895 69.2311 35.8202 69.1811 35.7572 69.1181C35.6942 69.0551 35.6442 68.9803 35.6101 68.8979C35.5761 68.8156 35.5585 68.7274 35.5586 68.6382V62.142C35.5583 62.0527 35.5755 61.9642 35.6095 61.8816C35.6434 61.7989 35.6934 61.7238 35.7564 61.6606C35.8194 61.5973 35.8943 61.5471 35.9768 61.5128C36.0593 61.4786 36.1477 61.4609 36.237 61.4609C36.3263 61.4609 36.4148 61.4786 36.4973 61.5128C36.5797 61.5471 36.6547 61.5973 36.7177 61.6606C36.7807 61.7238 36.8306 61.7989 36.8646 61.8816C36.8985 61.9642 36.9158 62.0527 36.9155 62.142V68.6382C36.9155 68.7274 36.898 68.8156 36.8639 68.8979C36.8299 68.9803 36.7799 69.0551 36.7169 69.1181C36.6539 69.1811 36.5791 69.2311 36.4967 69.2651C36.4144 69.2992 36.3261 69.3167 36.237 69.3167V69.3167Z" fill="#1B93EB"/>
<path d="M36.2366 72.7477C36.7333 72.7477 37.1359 72.3451 37.1359 71.8485C37.1359 71.3518 36.7333 70.9492 36.2366 70.9492C35.74 70.9492 35.3374 71.3518 35.3374 71.8485C35.3374 72.3451 35.74 72.7477 36.2366 72.7477Z" fill="#1B93EB"/>
<path d="M66.5768 43.5662C72.3596 43.5662 77.0474 38.8784 77.0474 33.0956C77.0474 27.3129 72.3596 22.625 66.5768 22.625C60.7941 22.625 56.1062 27.3129 56.1062 33.0956C56.1062 38.8784 60.7941 43.5662 66.5768 43.5662Z" fill="#0078D4"/>
<path d="M66.5769 34.3481C68.4933 34.3481 70.0468 32.7946 70.0468 30.8782C70.0468 28.9618 68.4933 27.4082 66.5769 27.4082C64.6605 27.4082 63.1069 28.9618 63.1069 30.8782C63.1069 32.7946 64.6605 34.3481 66.5769 34.3481Z" fill="white"/>
<path d="M71.2844 39.4137C71.5731 39.1883 71.7636 38.8602 71.8163 38.4978C71.8689 38.1354 71.7796 37.7667 71.567 37.4685C71.0041 36.6679 70.2568 36.0145 69.3883 35.5635C68.5198 35.1124 67.5555 34.877 66.5769 34.877C65.5982 34.877 64.6339 35.1124 63.7654 35.5635C62.8969 36.0145 62.1497 36.6679 61.5868 37.4685C61.3742 37.7667 61.2849 38.1354 61.3375 38.4978C61.3902 38.8602 61.5807 39.1883 61.8694 39.4136C63.229 40.4285 64.8803 40.9768 66.5769 40.9768C68.2735 40.9768 69.9247 40.4285 71.2844 39.4136L71.2844 39.4137Z" fill="white"/>
</g>
<defs>
<linearGradient id="paint0_linear" x1="47.4222" y1="-15.153" x2="51.405" y2="130.615" gradientUnits="userSpaceOnUse">
<stop stop-color="#00ABDE"/>
<stop offset="1" stop-color="#007ED8"/>
</linearGradient>
<clipPath id="clip0">
<rect width="99.2799" height="99.28" fill="white"/>
</clipPath>
</defs>
</svg>
