<?xml version="1.0" encoding="UTF-8" standalone="no"?>
<!DOCTYPE svg PUBLIC "-//W3C//DTD SVG 1.1//EN" "http://www.w3.org/Graphics/SVG/1.1/DTD/svg11.dtd">
<!-- Generated by Microsoft Visio, SVG Export identity-device-access-policies-three-tiers.svg Page-1 -->
<svg xmlns="http://www.w3.org/2000/svg" xmlns:xlink="http://www.w3.org/1999/xlink" xmlns:ev="http://www.w3.org/2001/xml-events"
		xmlns:v="http://schemas.microsoft.com/visio/2003/SVGExtensions/" width="17.0278in" height="9.70486in"
		viewBox="0 0 1226 698.75" xml:space="preserve" color-interpolation-filters="sRGB" class="st34">
	<v:documentProperties v:langID="1033" v:viewMarkup="false"/>

	<style type="text/css">
	<![CDATA[
		.st1 {fill:#ffffff;stroke:none;stroke-width:1}
		.st2 {fill:#ffffff;stroke:none;stroke-linecap:round;stroke-linejoin:round;stroke-width:0.75}
		.st3 {fill:#0078d4;stroke:none;stroke-width:0.25}
		.st4 {fill:none;stroke:#0078d4;stroke-width:1}
		.st5 {fill:#ffffff;font-family:Segoe UI Semibold;font-size:2.50001em}
		.st6 {fill:#e6e6e6;stroke:none;stroke-linecap:round;stroke-linejoin:round;stroke-width:0.75}
		.st7 {fill:none}
		.st8 {stroke:#999999;stroke-width:1}
		.st9 {fill:#0078d4;stroke:#0078d4;stroke-width:1}
		.st10 {fill:#ffffff;font-family:Segoe UI Semibold;font-size:1.16666em}
		.st11 {font-size:1em}
		.st12 {fill:none;stroke:none;stroke-linecap:round;stroke-linejoin:round;stroke-width:0.75}
		.st13 {fill:#0078d4;font-family:Segoe UI Semibold;font-size:1.16666em}
		.st14 {fill:#000000;font-family:Segoe UI Semibold;font-size:1.16666em}
		.st15 {fill:#0070c0;font-family:Segoe UI Semibold;font-size:1.16666em}
		.st16 {stroke:#bfbfbf;stroke-width:1}
		.st17 {visibility:visible}
		.st18 {fill:#000000;fill-opacity:0.098;filter:url(#filter_2);stroke:none}
		.st19 {fill:#cce9fe;stroke:none;stroke-width:1}
		.st20 {fill:#000000;font-family:Segoe UI;font-size:0.874992em}
		.st21 {stroke:#cce9fe;stroke-width:6}
		.st22 {font-family:Segoe UI Semibold;font-size:1em}
		.st23 {font-size:1em;font-style:italic}
		.st24 {stroke:#cce9fe;stroke-linecap:round;stroke-linejoin:round;stroke-width:6}
		.st25 {fill:#8dc8e8;stroke:none;stroke-width:0.25}
		.st26 {font-size:1em;font-weight:bold}
		.st27 {fill:#000000;font-family:Segoe UI;font-size:0.833336em}
		.st28 {fill:#000000;font-family:Segoe UI;font-size:0.833336em;font-weight:bold}
		.st29 {font-size:1em;font-weight:normal}
		.st30 {fill:#000000;font-family:Segoe UI;font-size:0.75em}
		.st31 {fill:#000000;font-family:Segoe UI Semibold;font-size:0.833336em}
		.st32 {font-family:Calibri;font-size:1em}
		.st33 {fill:#00b050;stroke:#00b050;stroke-width:1}
		.st34 {fill:none;fill-rule:evenodd;font-size:12px;overflow:visible;stroke-linecap:square;stroke-miterlimit:3}
	]]>
	</style>

	<defs id="Filters">
		<filter id="filter_2">
			<feGaussianBlur stdDeviation="2"/>
		</filter>
	</defs>
	<g v:mID="0" v:index="1" v:groupContext="foregroundPage">
		<v:userDefs>
			<v:ud v:nameU="visNavType" v:val="VT0(1):26"/>
		</v:userDefs>
		<title>Page-1</title>
		<v:pageProperties v:drawingScale="1" v:pageScale="1" v:drawingUnits="19" v:shadowOffsetX="9" v:shadowOffsetY="-9"/>
		<v:layer v:name="Shapes" v:index="0" v:glue="false"/>
		<v:layer v:name="Background" v:index="1" v:glue="false"/>
		<v:layer v:name="Text" v:index="2" v:glue="false"/>
		<v:layer v:name="Connector" v:index="3"/>
		<v:layer v:name="Icons" v:index="4" v:glue="false"/>
		<g id="shape1970-1" v:mID="1970" v:groupContext="shape" transform="translate(1,-1)">
			<title>Sheet.1970</title>
			<v:userDefs>
				<v:ud v:nameU="visNavOrder" v:val="VT0(215000):26"/>
			</v:userDefs>
			<rect x="0" y="5.75" width="1224" height="693" rx="4.5" ry="4.5" class="st1"/>
		</g>
		<g id="shape2006-3" v:mID="2006" v:groupContext="shape" transform="translate(41.5,-73)">
			<title>Sheet.2006</title>
			<v:userDefs>
				<v:ud v:nameU="visNavOrder" v:prompt="" v:val="VT0(206000):26"/>
			</v:userDefs>
			<rect x="0" y="536.75" width="1152" height="162" class="st2"/>
		</g>
		<g id="shape1885-5" v:mID="1885" v:groupContext="shape" transform="translate(46,-398.054)">
			<title>Sheet.1885</title>
			<v:userDefs>
				<v:ud v:nameU="visNavOrder" v:prompt="" v:val="VT0(151000):26"/>
			</v:userDefs>
			<rect x="0" y="536.75" width="1143" height="162" class="st2"/>
		</g>
		<g id="shape210-7" v:mID="210" v:groupContext="shape" v:layerMember="0;1" transform="translate(1.00004,-631)">
			<title>Rectangle</title>
			<v:userDefs>
				<v:ud v:nameU="visVersion" v:val="VT0(15):26"/>
				<v:ud v:nameU="visNavOrder" v:prompt="" v:val="VT0(1000):26"/>
			</v:userDefs>
			<rect x="0" y="631.25" width="1224" height="67.5" class="st3"/>
		</g>
		<a
				xlink:href="https://learn.microsoft.com/microsoft-365/security/office-365-security/microsoft-365-policies-configurations">
			<g id="shape1676-9" v:mID="1676" v:groupContext="shape" v:layerMember="2" transform="translate(47.08,-649.852)">
				<title>Sheet.1676</title>
				<desc>Zero Trust identity and device access policies</desc>
				<v:userDefs>
					<v:ud v:nameU="visNavOrder" v:prompt="" v:val="VT0(109000):26"/>
				</v:userDefs>
				<v:textBlock v:margins="rect(4,4,4,4)" v:verticalAlign="0"/>
				<v:textRect cx="453.96" cy="681.313" width="907.92" height="34.875"/>
				<rect x="0" y="663.875" width="907.92" height="34.875" class="st4"/>
				<text x="4" y="694.88" class="st5" v:langID="1033"><v:paragraph v:spAfter="6"/><v:tabList/>Zero Trust identity and device access policies</text>			</g>
		</a>
		<g id="shape1680-12" v:mID="1680" v:groupContext="shape" v:layerMember="0" transform="translate(37,-14.536)">
			<title>Sheet.1680</title>
			<v:userDefs>
				<v:ud v:nameU="visNavOrder" v:val="VT0(14000):26"/>
			</v:userDefs>
			<rect x="0" y="94.7348" width="1152" height="604.015" class="st2"/>
		</g>
		<g id="shape1681-14" v:mID="1681" v:groupContext="shape" v:layerMember="0;1" transform="translate(37,-236.052)">
			<title>Sheet.1681</title>
			<v:userDefs>
				<v:ud v:nameU="visNavOrder" v:prompt="" v:val="VT0(5000):26"/>
			</v:userDefs>
			<rect x="0" y="536.75" width="1152" height="162" class="st6"/>
		</g>
		<g id="shape1682-16" v:mID="1682" v:groupContext="shape" v:layerMember="3" transform="translate(173.001,-317.052)">
			<title>Arrow 1 - gray.3208</title>
			<v:userDefs>
				<v:ud v:nameU="visNavOrder" v:prompt="" v:val="VT0(6000):26"/>
			</v:userDefs>
			<path d="M0 698.75 L1007 698.75 L0 698.75 Z" class="st7"/>
			<path d="M0 698.75 L1007 698.75" class="st8"/>
		</g>
		<g id="shape1683-19" v:mID="1683" v:groupContext="shape" v:layerMember="2;0" transform="translate(269.746,-564.551)">
			<title>Sheet.1683</title>
			<desc>Microsoft Entra Conditional Access policies</desc>
			<v:userDefs>
				<v:ud v:nameU="visNavOrder" v:prompt="" v:val="VT0(9000):26"/>
			</v:userDefs>
			<v:textBlock v:margins="rect(4,4,4,4)"/>
			<v:textRect cx="326.789" cy="671.75" width="653.59" height="54"/>
			<rect x="0" y="644.75" width="653.58" height="54" class="st9"/>
			<text x="11.2" y="667.9" class="st10" v:langID="1033"><v:paragraph v:indentLeft="7.2" v:spLine="-1.1"/><v:tabList/>Microsoft Entra Conditional Access <v:newlineChar/><tspan
						x="11.2" dy="1.1em" class="st11">policies</tspan></text>		</g>
		<g id="shape1684-23" v:mID="1684" v:groupContext="shape" v:layerMember="2" transform="translate(50.5,-564.551)">
			<title>Sheet.1684</title>
			<desc>Protection level</desc>
			<v:userDefs>
				<v:ud v:nameU="visNavOrder" v:prompt="" v:val="VT0(10000):26"/>
			</v:userDefs>
			<v:textBlock v:margins="rect(0,0,0,0)"/>
			<v:textRect cx="53.9995" cy="671.75" width="108.02" height="54"/>
			<rect x="0" y="644.75" width="108" height="54" class="st12"/>
			<text x="-0.01" y="675.95" class="st13" v:langID="1033"><v:paragraph/><v:tabList/>Protection level</text>		</g>
		<g id="shape1685-26" v:mID="1685" v:groupContext="shape" v:layerMember="2" transform="translate(55,-459.047)">
			<title>Sheet.1685</title>
			<desc>Starting point</desc>
			<v:userDefs>
				<v:ud v:nameU="visNavOrder" v:prompt="" v:val="VT0(11000):26"/>
			</v:userDefs>
			<v:textBlock v:margins="rect(0,0,0,0)"/>
			<v:textRect cx="53.9995" cy="680.993" width="108.02" height="35.5133"/>
			<rect x="0" y="663.237" width="108" height="35.5133" class="st12"/>
			<text x="-0.01" y="685.19" class="st14" v:langID="1033"><v:paragraph/><v:tabList/>Starting point</text>		</g>
		<g id="shape1687-29" v:mID="1687" v:groupContext="shape" v:layerMember="2" transform="translate(150.299,-564.551)">
			<title>Sheet.1687</title>
			<desc>Device type</desc>
			<v:userDefs>
				<v:ud v:nameU="visNavOrder" v:prompt="" v:val="VT0(13000):26"/>
			</v:userDefs>
			<v:textBlock v:margins="rect(0,0,0,0)"/>
			<v:textRect cx="59.5001" cy="671.75" width="119.02" height="54"/>
			<rect x="0" y="644.75" width="119.002" height="54" class="st12"/>
			<text x="22.42" y="675.95" class="st15" v:langID="1033"><v:paragraph v:horizAlign="1"/><v:tabList/>Device type</text>		</g>
		<g id="shape1690-32" v:mID="1690" v:groupContext="shape" v:layerMember="2;0" transform="translate(927.97,-564.551)">
			<title>Sheet.1690</title>
			<desc>Intune device compliance policy</desc>
			<v:userDefs>
				<v:ud v:nameU="visNavOrder" v:prompt="" v:val="VT0(15000):26"/>
			</v:userDefs>
			<v:textBlock v:margins="rect(4,4,4,4)"/>
			<v:textRect cx="63.5575" cy="671.75" width="127.13" height="54"/>
			<rect x="0" y="644.75" width="127.116" height="54" class="st9"/>
			<text x="11.19" y="660.2" class="st10" v:langID="1033"><v:paragraph v:indentLeft="7.2" v:spLine="-1.1"/><v:tabList/>Intune device <tspan
						x="11.19" dy="1.1em" class="st11">compliance <v:newlineChar/></tspan><tspan x="11.19" dy="1.1em"
						class="st11">policy  </tspan>  </text>		</g>
		<g id="shape1691-37" v:mID="1691" v:groupContext="shape" v:layerMember="2;0" transform="translate(1059.63,-564.551)">
			<title>Sheet.1691</title>
			<desc>Intune app protection policies</desc>
			<v:userDefs>
				<v:ud v:nameU="visNavOrder" v:prompt="" v:val="VT0(16000):26"/>
			</v:userDefs>
			<v:textBlock v:margins="rect(4,4,4,4)"/>
			<v:textRect cx="63.5578" cy="671.75" width="127.12" height="54"/>
			<rect x="0" y="644.75" width="127.116" height="54" class="st9"/>
			<text x="11.2" y="660.2" class="st10" v:langID="1033"><v:paragraph v:indentLeft="7.2" v:spLine="-1.1"/><v:tabList/>Intune app <tspan
						x="11.2" dy="1.1em" class="st11">protection <v:newlineChar/></tspan><tspan x="11.2" dy="1.1em" class="st11">policies</tspan></text>		</g>
		<g id="shape1692-42" v:mID="1692" v:groupContext="shape" v:layerMember="3" transform="translate(173.001,-479.054)">
			<title>Arrow 1 - gray.3217</title>
			<v:userDefs>
				<v:ud v:nameU="visNavOrder" v:prompt="" v:val="VT0(17000):26"/>
			</v:userDefs>
			<path d="M0 698.75 L1007 698.75 L0 698.75 Z" class="st7"/>
			<path d="M0 698.75 L1007 698.75" class="st16"/>
		</g>
		<g id="shape1695-45" v:mID="1695" v:groupContext="shape" v:layerMember="3" transform="translate(173.001,-155.054)">
			<title>Arrow 1 - gray.3220</title>
			<v:userDefs>
				<v:ud v:nameU="visNavOrder" v:prompt="" v:val="VT0(22000):26"/>
			</v:userDefs>
			<path d="M0 698.75 L1007 698.75 L0 698.75 Z" class="st7"/>
			<path d="M0 698.75 L1007 698.75" class="st16"/>
		</g>
		<g id="shape1697-48" v:mID="1697" v:groupContext="shape" v:layerMember="2;0" transform="translate(930.22,-80.9763)">
			<title>Sheet.1697</title>
			<desc>Define compliance policies (one for each platform)</desc>
			<v:userDefs>
				<v:ud v:nameU="visNavOrder" v:prompt="" v:val="VT0(125000):26"/>
			</v:userDefs>
			<v:textBlock v:margins="rect(6,6,6,6)" v:verticalAlign="0"/>
			<v:textRect cx="61.3075" cy="544.018" width="122.63" height="309.463"/>
			<g id="shadow1697-49" v:groupContext="shadow" v:shadowOffsetX="4.40873E-24" v:shadowOffsetY="-2" v:shadowType="1"
					v:shadowScale="1.01" transform="matrix(1.01,0,0,1.01,-0.61308,-3.44018)" class="st17">
				<rect x="0" y="389.287" width="122.616" height="309.463" rx="4.5" ry="4.5" class="st18"/>
			</g>
			<rect x="0" y="389.287" width="122.616" height="309.463" rx="4.5" ry="4.5" class="st19"/>
			<text x="5.99" y="404.74" class="st20" v:langID="1033"><v:paragraph v:spAfter="6"/><v:tabList/>Define compliance <tspan
						x="5.99" dy="1.2em" class="st11">policies (one for <v:lf/></tspan><tspan x="5.99" dy="1.2em" class="st11">each platform).</tspan></text>		</g>
		<g id="shape1700-56" v:mID="1700" v:groupContext="shape" v:layerMember="3"
				transform="translate(1821.94,279.923) rotate(90)">
			<title>Sheet.1700</title>
			<v:userDefs>
				<v:ud v:nameU="visNavOrder" v:prompt="" v:val="VT0(27000):26"/>
			</v:userDefs>
			<path d="M0 698.75 L269.77 698.75 L0 698.75 Z" class="st7"/>
			<path d="M0 698.75 L269.77 698.75" class="st21"/>
		</g>
		<g id="shape1708-59" v:mID="1708" v:groupContext="shape" v:layerMember="2;0" transform="translate(666.892,-80.9763)">
			<title>Sheet.1708</title>
			<desc>Require compliant PCs and mobile devices This policy enforces...</desc>
			<v:userDefs>
				<v:ud v:nameU="visNavOrder" v:prompt="" v:val="VT0(135000):26"/>
			</v:userDefs>
			<v:textBlock v:margins="rect(6,6,6,6)" v:verticalAlign="0"/>
			<v:textRect cx="61.3075" cy="544.018" width="122.63" height="309.463"/>
			<g id="shadow1708-60" v:groupContext="shadow" v:shadowOffsetX="4.40873E-24" v:shadowOffsetY="-2" v:shadowType="1"
					v:shadowScale="1.01" transform="matrix(1.01,0,0,1.01,-0.61308,-3.44018)" class="st17">
				<rect x="0" y="389.287" width="122.616" height="309.463" rx="4.5" ry="4.5" class="st18"/>
			</g>
			<rect x="0" y="389.287" width="122.616" height="309.463" rx="4.5" ry="4.5" class="st19"/>
			<text x="5.99" y="404.74" class="st20" v:langID="1033"><v:paragraph v:spAfter="6"/><v:tabList/>Require compliant <v:lf/><tspan
						x="5.99" dy="1.2em" class="st11">PCs </tspan><tspan class="st22">and </tspan>mobile <tspan x="5.99"
						dy="1.2em" class="st11">devices.<v:newlineChar/></tspan><tspan x="5.99" dy="1.771em" class="st23">Enforces Intune </tspan><tspan
						x="5.99" dy="1.2em" class="st23">management <v:lf/></tspan><tspan x="5.99" dy="1.2em" class="st23">for PCs and mobile </tspan><tspan
						x="5.99" dy="1.2em" class="st23">devices.</tspan></text>		</g>
		<g id="shape1710-72" v:mID="1710" v:groupContext="shape" v:layerMember="2;0" transform="translate(535.228,-80.9763)">
			<title>Sheet.1710</title>
			<desc>Block clients that don’t support modern authentication Client...</desc>
			<v:userDefs>
				<v:ud v:nameU="visNavOrder" v:prompt="" v:val="VT0(136000):26"/>
			</v:userDefs>
			<v:textBlock v:margins="rect(6,6,6,6)" v:verticalAlign="0"/>
			<v:textRect cx="61.3075" cy="463.364" width="122.63" height="470.772"/>
			<g id="shadow1710-73" v:groupContext="shadow" v:shadowOffsetX="4.40873E-24" v:shadowOffsetY="-2" v:shadowType="1"
					v:shadowScale="1.01" transform="matrix(1.01,0,0,1.01,-0.61308,-2.63364)" class="st17">
				<rect x="0" y="227.978" width="122.616" height="470.772" rx="4.5" ry="4.5" class="st18"/>
			</g>
			<rect x="0" y="227.978" width="122.616" height="470.772" rx="4.5" ry="4.5" class="st19"/>
			<text x="5.99" y="243.43" class="st20" v:langID="1033"><v:paragraph v:spAfter="6"/><v:tabList/>Block clients that don’t <tspan
						x="5.99" dy="1.2em" class="st11">support modern </tspan><tspan x="5.99" dy="1.2em" class="st11">authentication.<v:newlineChar/></tspan><tspan
						x="5.99" dy="1.771em" class="st23">Clients that don</tspan><tspan class="st23">’</tspan><tspan class="st23">t use </tspan><tspan
						x="5.99" dy="1.2em" class="st23">modern authentication </tspan><tspan x="5.99" dy="1.2em" class="st23">can bypass Conditional </tspan><tspan
						x="5.99" dy="1.2em" class="st23">Access policies.</tspan></text>		</g>
		<g id="shape1711-86" v:mID="1711" v:groupContext="shape" v:layerMember="3" transform="translate(1163.62,274.75) rotate(90)">
			<title>Sheet.1711</title>
			<v:userDefs>
				<v:ud v:nameU="visNavOrder" v:prompt="" v:val="VT0(33000):26"/>
			</v:userDefs>
			<path d="M0 698.75 L274.94 698.75 L0 698.75 Z" class="st7"/>
			<path d="M0 698.75 L274.94 698.75" class="st24"/>
		</g>
		<g id="group1838-89" transform="translate(194.8,-103.679)" v:mID="1838" v:groupContext="group" v:layerMember="4">
			<v:userDefs>
				<v:ud v:nameU="visNavOrder" v:val="VT0(122000):26"/>
			</v:userDefs>
			<title>Phone Tablet Blue.1838</title>
			<g id="shape1839-90" v:mID="1839" v:groupContext="shape" v:layerMember="4" transform="translate(6.01956,-4.5)">
				<title>Sheet.1839</title>
				<path d="M23.97 682.39 C23.85 680.64 22.39 679.25 20.6 679.25 L3.35 679.25 L3.11 679.26 C1.48 679.38 0.18 680.64
							 0 682.25 L3.73 682.25 L3.98 682.26 C5.93 682.38 7.48 684.01 7.48 686 L7.48 698.75 L20.6 698.75 L20.84
							 698.74 C22.59 698.62 23.98 697.16 23.98 695.37 L23.98 682.62 L23.97 682.39 ZM10.1 693.5 L13.85 693.5
							 L14.01 693.51 C14.56 693.58 14.98 694.06 14.98 694.62 C14.98 695.25 14.48 695.75 13.85 695.75 L10.1
							 695.75 L9.95 695.74 C9.4 695.67 8.98 695.19 8.98 694.62 C8.98 694 9.48 693.5 10.1 693.5 Z" class="st3"/>
			</g>
			<g id="shape1840-92" v:mID="1840" v:groupContext="shape" v:layerMember="4">
				<title>Sheet.1840</title>
				<path d="M9.38 679.25 C10.83 679.25 12.01 680.43 12.01 681.87 L12.01 696.12 C12.01 697.57 10.83 698.75 9.38 698.75
							 L2.63 698.75 C1.18 698.75 0 697.57 0 696.12 L0 681.87 C0 680.43 1.18 679.25 2.63 679.25 L9.38 679.25
							 ZM5.63 693.49 L6.38 693.49 L6.53 693.5 C7.08 693.58 7.5 694.05 7.5 694.62 C7.5 695.19 7.08 695.66 6.53
							 695.73 L6.38 695.74 L5.63 695.74 L5.48 695.73 C4.93 695.66 4.5 695.19 4.5 694.62 C4.5 694.05 4.93 693.58
							 5.48 693.5 L5.63 693.49 Z" class="st25"/>
			</g>
		</g>
		<g id="group1841-94" transform="translate(194.8,-181.678)" v:mID="1841" v:groupContext="group" v:layerMember="4">
			<v:userDefs>
				<v:ud v:nameU="visNavOrder" v:val="VT0(123000):26"/>
			</v:userDefs>
			<title>Desktop Tower Blue.1841</title>
			<g id="shape1842-95" v:mID="1842" v:groupContext="shape" v:layerMember="4">
				<title>Sheet.1842</title>
				<path d="M3.37 668.75 C1.51 668.75 0 670.26 0 672.12 L0 695.37 C0 697.24 1.51 698.75 3.37 698.75 L10 698.75 C9.84
							 698.41 9.75 698.03 9.75 697.62 C9.75 696.18 10.93 695 12.37 695 L12.75 695 L12.75 694.25 L10.87 694.25
							 C8.18 694.25 6 692.07 6 689.37 L6 679.62 C6 676.93 8.18 674.75 10.87 674.75 L15 674.75 L15 672.12 C15
							 670.26 13.49 668.75 11.62 668.75 L3.37 668.75 Z" class="st3"/>
			</g>
			<g id="shape1843-97" v:mID="1843" v:groupContext="shape" v:layerMember="4" transform="translate(7.5,0)">
				<title>Sheet.1843</title>
				<path d="M3.37 676.25 C1.51 676.25 0 677.76 0 679.62 L0 689.37 C0 691.24 1.51 692.75 3.37 692.75 L6.75 692.75 L6.75
							 696.5 L4.88 696.5 C4.25 696.5 3.75 697 3.75 697.62 C3.75 698.25 4.25 698.75 4.88 698.75 L17.62 698.75
							 C18.25 698.75 18.75 698.25 18.75 697.62 C18.75 697 18.25 696.5 17.62 696.5 L15.75 696.5 L15.75 692.75
							 L19.12 692.75 C20.99 692.75 22.5 691.24 22.5 689.37 L22.5 679.62 C22.5 677.76 20.99 676.25 19.12 676.25
							 L3.37 676.25 ZM13.5 696.5 L13.5 692.75 L9 692.75 L9 696.5 L13.5 696.5 Z" class="st25"/>
			</g>
		</g>
		<g id="group1829-99" transform="translate(194.8,-264.553)" v:mID="1829" v:groupContext="group" v:layerMember="4">
			<v:userDefs>
				<v:ud v:nameU="visNavOrder" v:val="VT0(122000):26"/>
			</v:userDefs>
			<title>Phone Tablet Blue.1829</title>
			<g id="shape1830-100" v:mID="1830" v:groupContext="shape" v:layerMember="4" transform="translate(6.01956,-4.5)">
				<title>Sheet.1830</title>
				<path d="M23.97 682.39 C23.85 680.64 22.39 679.25 20.6 679.25 L3.35 679.25 L3.11 679.26 C1.48 679.38 0.18 680.64
							 0 682.25 L3.73 682.25 L3.98 682.26 C5.93 682.38 7.48 684.01 7.48 686 L7.48 698.75 L20.6 698.75 L20.84
							 698.74 C22.59 698.62 23.98 697.16 23.98 695.37 L23.98 682.62 L23.97 682.39 ZM10.1 693.5 L13.85 693.5
							 L14.01 693.51 C14.56 693.58 14.98 694.06 14.98 694.62 C14.98 695.25 14.48 695.75 13.85 695.75 L10.1
							 695.75 L9.95 695.74 C9.4 695.67 8.98 695.19 8.98 694.62 C8.98 694 9.48 693.5 10.1 693.5 Z" class="st3"/>
			</g>
			<g id="shape1831-102" v:mID="1831" v:groupContext="shape" v:layerMember="4">
				<title>Sheet.1831</title>
				<path d="M9.38 679.25 C10.83 679.25 12.01 680.43 12.01 681.87 L12.01 696.12 C12.01 697.57 10.83 698.75 9.38 698.75
							 L2.63 698.75 C1.18 698.75 0 697.57 0 696.12 L0 681.87 C0 680.43 1.18 679.25 2.63 679.25 L9.38 679.25
							 ZM5.63 693.49 L6.38 693.49 L6.53 693.5 C7.08 693.58 7.5 694.05 7.5 694.62 C7.5 695.19 7.08 695.66 6.53
							 695.73 L6.38 695.74 L5.63 695.74 L5.48 695.73 C4.93 695.66 4.5 695.19 4.5 694.62 C4.5 694.05 4.93 693.58
							 5.48 693.5 L5.63 693.49 Z" class="st25"/>
			</g>
		</g>
		<g id="group1832-104" transform="translate(194.8,-342.554)" v:mID="1832" v:groupContext="group" v:layerMember="4">
			<v:userDefs>
				<v:ud v:nameU="visNavOrder" v:val="VT0(123000):26"/>
			</v:userDefs>
			<title>Desktop Tower Blue.1832</title>
			<g id="shape1833-105" v:mID="1833" v:groupContext="shape" v:layerMember="4">
				<title>Sheet.1833</title>
				<path d="M3.37 668.75 C1.51 668.75 0 670.26 0 672.12 L0 695.37 C0 697.24 1.51 698.75 3.37 698.75 L10 698.75 C9.84
							 698.41 9.75 698.03 9.75 697.62 C9.75 696.18 10.93 695 12.37 695 L12.75 695 L12.75 694.25 L10.87 694.25
							 C8.18 694.25 6 692.07 6 689.37 L6 679.62 C6 676.93 8.18 674.75 10.87 674.75 L15 674.75 L15 672.12 C15
							 670.26 13.49 668.75 11.62 668.75 L3.37 668.75 Z" class="st3"/>
			</g>
			<g id="shape1834-107" v:mID="1834" v:groupContext="shape" v:layerMember="4" transform="translate(7.5,0)">
				<title>Sheet.1834</title>
				<path d="M3.37 676.25 C1.51 676.25 0 677.76 0 679.62 L0 689.37 C0 691.24 1.51 692.75 3.37 692.75 L6.75 692.75 L6.75
							 696.5 L4.88 696.5 C4.25 696.5 3.75 697 3.75 697.62 C3.75 698.25 4.25 698.75 4.88 698.75 L17.62 698.75
							 C18.25 698.75 18.75 698.25 18.75 697.62 C18.75 697 18.25 696.5 17.62 696.5 L15.75 696.5 L15.75 692.75
							 L19.12 692.75 C20.99 692.75 22.5 691.24 22.5 689.37 L22.5 679.62 C22.5 677.76 20.99 676.25 19.12 676.25
							 L3.37 676.25 ZM13.5 696.5 L13.5 692.75 L9 692.75 L9 696.5 L13.5 696.5 Z" class="st25"/>
			</g>
		</g>
		<g id="shape1704-109" v:mID="1704" v:groupContext="shape" v:layerMember="2;0" transform="translate(1061.88,-80.9763)">
			<title>Sheet.1704</title>
			<desc>Apply Level 3 APP data protection</desc>
			<v:userDefs>
				<v:ud v:nameU="visNavOrder" v:prompt="" v:val="VT0(133000):26"/>
			</v:userDefs>
			<v:textBlock v:margins="rect(6,6,6,6)" v:verticalAlign="0"/>
			<v:textRect cx="61.3075" cy="664.999" width="122.63" height="67.5"/>
			<g id="shadow1704-110" v:groupContext="shadow" v:shadowOffsetX="4.40873E-24" v:shadowOffsetY="-2" v:shadowType="1"
					v:shadowScale="1.01" transform="matrix(1.01,0,0,1.01,-0.61308,-4.65)" class="st17">
				<rect x="0" y="631.25" width="122.616" height="67.5" rx="4.5" ry="4.5" class="st18"/>
			</g>
			<rect x="0" y="631.25" width="122.616" height="67.5" rx="4.5" ry="4.5" class="st19"/>
			<text x="5.99" y="646.7" class="st20" v:langID="1033"><v:paragraph v:spAfter="6"/><v:tabList/>Apply <tspan class="st26">Level 3</tspan> APP <v:lf/><tspan
						x="5.99" dy="1.2em" class="st11">data protection.</tspan></text>		</g>
		<g id="shape1721-117" v:mID="1721" v:groupContext="shape" v:layerMember="2;0" transform="translate(271.9,-80.9763)">
			<title>Sheet.1721</title>
			<desc>Require MFA always This is also available for all Microsoft 365 ...</desc>
			<v:userDefs>
				<v:ud v:nameU="visNavOrder" v:prompt="" v:val="VT0(143000):26"/>
			</v:userDefs>
			<v:textBlock v:margins="rect(6,6,6,6)" v:verticalAlign="0"/>
			<v:textRect cx="61.3076" cy="624.674" width="122.63" height="148.154"/>
			<g id="shadow1721-118" v:groupContext="shadow" v:shadowOffsetX="4.40873E-24" v:shadowOffsetY="-2" v:shadowType="1"
					v:shadowScale="1.01" transform="matrix(1.01,0,0,1.01,-0.61308,-4.24673)" class="st17">
				<rect x="0" y="550.596" width="122.616" height="148.154" rx="4.5" ry="4.5" class="st18"/>
			</g>
			<rect x="0" y="550.596" width="122.616" height="148.154" rx="4.5" ry="4.5" class="st19"/>
			<text x="6" y="566.05" class="st20" v:langID="1033"><v:paragraph v:spAfter="6"/><v:tabList/>Require MFA <tspan
						class="st26">always</tspan>.<v:newlineChar/><v:newlineChar/><tspan x="6" dy="3.543em" class="st23">Available for all </tspan><tspan
						x="6" dy="1.2em" class="st23">Microsoft 365 Enterprise </tspan><tspan x="6" dy="1.2em" class="st23">plans.</tspan></text>		</g>
		<g id="shape1732-127" v:mID="1732" v:groupContext="shape" v:layerMember="2;0" transform="translate(403.564,-80.9763)">
			<title>Sheet.1732</title>
			<desc>Require approved apps</desc>
			<v:userDefs>
				<v:ud v:nameU="visNavOrder" v:prompt="" v:val="VT0(137000):26"/>
			</v:userDefs>
			<v:textBlock v:margins="rect(6,6,6,6)" v:verticalAlign="0"/>
			<v:textRect cx="61.3075" cy="664.999" width="122.63" height="67.5"/>
			<g id="shadow1732-128" v:groupContext="shadow" v:shadowOffsetX="4.40873E-24" v:shadowOffsetY="-2" v:shadowType="1"
					v:shadowScale="1.01" transform="matrix(1.01,0,0,1.01,-0.61308,-4.65)" class="st17">
				<rect x="0" y="631.25" width="122.616" height="67.5" rx="4.5" ry="4.5" class="st18"/>
			</g>
			<rect x="0" y="631.25" width="122.616" height="67.5" rx="4.5" ry="4.5" class="st19"/>
			<text x="5.99" y="646.7" class="st20" v:langID="1033"><v:paragraph v:spAfter="6"/><v:tabList/>Require approved apps.</text>		</g>
		<g id="shape1706-133" v:mID="1706" v:groupContext="shape" v:layerMember="2;0" transform="translate(1061.88,-404.976)">
			<title>Sheet.1706</title>
			<desc>Apply Level 2 App Protection Policies (APP) data protection (...</desc>
			<v:userDefs>
				<v:ud v:nameU="visNavOrder" v:prompt="" v:val="VT0(134000):26"/>
			</v:userDefs>
			<v:textBlock v:margins="rect(6,6,6,6)" v:verticalAlign="0"/>
			<v:textRect cx="61.3075" cy="665" width="122.63" height="67.5"/>
			<g id="shadow1706-134" v:groupContext="shadow" v:shadowOffsetX="4.40873E-24" v:shadowOffsetY="-2" v:shadowType="1"
					v:shadowScale="1.01" transform="matrix(1.01,0,0,1.01,-0.61308,-4.65)" class="st17">
				<rect x="0" y="631.25" width="122.616" height="67.5" rx="4.5" ry="4.5" class="st18"/>
			</g>
			<rect x="0" y="631.25" width="122.616" height="67.5" rx="4.5" ry="4.5" class="st19"/>
			<text x="5.99" y="646.7" class="st20" v:langID="1033"><v:paragraph v:spAfter="6"/><v:tabList/>Apply <tspan class="st26">Level 2</tspan> App <tspan
						x="5.99" dy="1.2em" class="st11">Protection Policies </tspan><tspan x="5.99" dy="1.2em" class="st11">(APP) data protection.<v:newlineChar/></tspan><tspan
						x="5.99" dy="1.771em" class="st23">(one for each platform)</tspan></text>		</g>
		<g id="shape1715-143" v:mID="1715" v:groupContext="shape" v:layerMember="2;0" transform="translate(403.564,-404.976)">
			<title>Sheet.1715</title>
			<desc>Require approved apps This policy enforces mobile app protect...</desc>
			<v:userDefs>
				<v:ud v:nameU="visNavOrder" v:prompt="" v:val="VT0(140000):26"/>
			</v:userDefs>
			<v:textBlock v:margins="rect(6,6,6,6)" v:verticalAlign="0"/>
			<v:textRect cx="61.3075" cy="665" width="122.63" height="67.5"/>
			<g id="shadow1715-144" v:groupContext="shadow" v:shadowOffsetX="4.40873E-24" v:shadowOffsetY="-2" v:shadowType="1"
					v:shadowScale="1.01" transform="matrix(1.01,0,0,1.01,-0.61308,-4.65)" class="st17">
				<rect x="0" y="631.25" width="122.616" height="67.5" rx="4.5" ry="4.5" class="st18"/>
			</g>
			<rect x="0" y="631.25" width="122.616" height="67.5" rx="4.5" ry="4.5" class="st19"/>
			<text x="5.99" y="646.7" class="st20" v:langID="1033"><v:paragraph v:spAfter="6"/><v:tabList/>Require approved apps.<v:newlineChar/><tspan
						x="5.99" dy="1.771em" class="st23">Enforces app protection </tspan><tspan x="5.99" dy="1.2em" class="st23">for mobile devices.</tspan></text>		</g>
		<g id="shape1702-151" v:mID="1702" v:groupContext="shape" v:layerMember="2;0" transform="translate(1061.88,-242.975)">
			<title>Sheet.1702</title>
			<desc>Apply Level 2 APP data protection</desc>
			<v:userDefs>
				<v:ud v:nameU="visNavOrder" v:prompt="" v:val="VT0(132000):26"/>
			</v:userDefs>
			<v:textBlock v:margins="rect(6,6,6,6)" v:verticalAlign="0"/>
			<v:textRect cx="61.3075" cy="665" width="122.63" height="67.5"/>
			<g id="shadow1702-152" v:groupContext="shadow" v:shadowOffsetX="4.40873E-24" v:shadowOffsetY="-2" v:shadowType="1"
					v:shadowScale="1.01" transform="matrix(1.01,0,0,1.01,-0.61308,-4.65)" class="st17">
				<rect x="0" y="631.25" width="122.616" height="67.5" rx="4.5" ry="4.5" class="st18"/>
			</g>
			<rect x="0" y="631.25" width="122.616" height="67.5" rx="4.5" ry="4.5" class="st19"/>
			<text x="5.99" y="646.7" class="st20" v:langID="1033"><v:paragraph v:spAfter="6"/><v:tabList/>Apply <tspan class="st26">Level 2</tspan> APP data <tspan
						x="5.99" dy="1.2em" class="st11">protection.</tspan></text>		</g>
		<g id="shape1713-159" v:mID="1713" v:groupContext="shape" v:layerMember="2;0" transform="translate(403.564,-242.975)">
			<title>Sheet.1713</title>
			<desc>Require approved apps</desc>
			<v:userDefs>
				<v:ud v:nameU="visNavOrder" v:prompt="" v:val="VT0(139000):26"/>
			</v:userDefs>
			<v:textBlock v:margins="rect(6,6,6,6)" v:verticalAlign="0"/>
			<v:textRect cx="61.3075" cy="665" width="122.63" height="67.5"/>
			<g id="shadow1713-160" v:groupContext="shadow" v:shadowOffsetX="4.40873E-24" v:shadowOffsetY="-2" v:shadowType="1"
					v:shadowScale="1.01" transform="matrix(1.01,0,0,1.01,-0.61308,-4.65)" class="st17">
				<rect x="0" y="631.25" width="122.616" height="67.5" rx="4.5" ry="4.5" class="st18"/>
			</g>
			<rect x="0" y="631.25" width="122.616" height="67.5" rx="4.5" ry="4.5" class="st19"/>
			<text x="5.99" y="646.7" class="st20" v:langID="1033"><v:paragraph v:spAfter="6"/><v:tabList/>Require approved apps.</text>		</g>
		<g id="shape1694-165" v:mID="1694" v:groupContext="shape" v:layerMember="4" transform="translate(186.299,-403.152)">
			<title>Sheet.1694</title>
			<desc>Phones and tablets</desc>
			<v:userDefs>
				<v:ud v:nameU="visNavOrder" v:prompt="" v:val="VT0(21000):26"/>
			</v:userDefs>
			<v:textBlock v:margins="rect(4,4,4,4)" v:verticalAlign="0"/>
			<v:textRect cx="23.5006" cy="683.75" width="47.01" height="30"/>
			<rect x="0" y="668.75" width="47.0016" height="30" class="st12"/>
			<text x="8.1" y="681.75" class="st27" v:langID="1033"><v:paragraph v:horizAlign="1"/><v:tabList/>Mobile <tspan x="7.29"
						dy="1.2em" class="st11">devices</tspan></text>		</g>
		<g id="group1806-169" transform="translate(194.8,-433.455)" v:mID="1806" v:groupContext="group" v:layerMember="4">
			<v:userDefs>
				<v:ud v:nameU="visNavOrder" v:val="VT0(122000):26"/>
			</v:userDefs>
			<title>Phone Tablet Blue</title>
			<g id="shape1807-170" v:mID="1807" v:groupContext="shape" v:layerMember="4" transform="translate(6.01956,-4.5)">
				<title>Sheet.1807</title>
				<path d="M23.97 682.39 C23.85 680.64 22.39 679.25 20.6 679.25 L3.35 679.25 L3.11 679.26 C1.48 679.38 0.18 680.64
							 0 682.25 L3.73 682.25 L3.98 682.26 C5.93 682.38 7.48 684.01 7.48 686 L7.48 698.75 L20.6 698.75 L20.84
							 698.74 C22.59 698.62 23.98 697.16 23.98 695.37 L23.98 682.62 L23.97 682.39 ZM10.1 693.5 L13.85 693.5
							 L14.01 693.51 C14.56 693.58 14.98 694.06 14.98 694.62 C14.98 695.25 14.48 695.75 13.85 695.75 L10.1
							 695.75 L9.95 695.74 C9.4 695.67 8.98 695.19 8.98 694.62 C8.98 694 9.48 693.5 10.1 693.5 Z" class="st3"/>
			</g>
			<g id="shape1808-172" v:mID="1808" v:groupContext="shape" v:layerMember="4">
				<title>Sheet.1808</title>
				<path d="M9.38 679.25 C10.83 679.25 12.01 680.43 12.01 681.87 L12.01 696.12 C12.01 697.57 10.83 698.75 9.38 698.75
							 L2.63 698.75 C1.18 698.75 0 697.57 0 696.12 L0 681.87 C0 680.43 1.18 679.25 2.63 679.25 L9.38 679.25
							 ZM5.63 693.49 L6.38 693.49 L6.53 693.5 C7.08 693.58 7.5 694.05 7.5 694.62 C7.5 695.19 7.08 695.66 6.53
							 695.73 L6.38 695.74 L5.63 695.74 L5.48 695.73 C4.93 695.66 4.5 695.19 4.5 694.62 C4.5 694.05 4.93 693.58
							 5.48 693.5 L5.63 693.49 Z" class="st25"/>
			</g>
		</g>
		<g id="shape1693-174" v:mID="1693" v:groupContext="shape" v:layerMember="4" transform="translate(186.299,-492.705)">
			<title>Sheet.1693</title>
			<desc>PCs</desc>
			<v:userDefs>
				<v:ud v:nameU="visNavOrder" v:prompt="" v:val="VT0(19000):26"/>
			</v:userDefs>
			<v:textBlock v:margins="rect(4,4,4,4)" v:verticalAlign="0"/>
			<v:textRect cx="23.5003" cy="689.75" width="47.01" height="18"/>
			<rect x="0" y="680.75" width="47.0016" height="18" class="st12"/>
			<text x="15.48" y="693.75" class="st27" v:langID="1033"><v:paragraph v:horizAlign="1"/><v:tabList/>PCs</text>		</g>
		<g id="group1810-177" transform="translate(194.8,-511.08)" v:mID="1810" v:groupContext="group" v:layerMember="4">
			<v:userDefs>
				<v:ud v:nameU="visNavOrder" v:val="VT0(123000):26"/>
			</v:userDefs>
			<title>Desktop Tower Blue</title>
			<g id="shape1811-178" v:mID="1811" v:groupContext="shape" v:layerMember="4">
				<title>Sheet.1811</title>
				<path d="M3.37 668.75 C1.51 668.75 0 670.26 0 672.12 L0 695.37 C0 697.24 1.51 698.75 3.37 698.75 L10 698.75 C9.84
							 698.41 9.75 698.03 9.75 697.62 C9.75 696.18 10.93 695 12.37 695 L12.75 695 L12.75 694.25 L10.87 694.25
							 C8.18 694.25 6 692.07 6 689.37 L6 679.62 C6 676.93 8.18 674.75 10.87 674.75 L15 674.75 L15 672.12 C15
							 670.26 13.49 668.75 11.62 668.75 L3.37 668.75 Z" class="st3"/>
			</g>
			<g id="shape1812-180" v:mID="1812" v:groupContext="shape" v:layerMember="4" transform="translate(7.5,0)">
				<title>Sheet.1812</title>
				<path d="M3.37 676.25 C1.51 676.25 0 677.76 0 679.62 L0 689.37 C0 691.24 1.51 692.75 3.37 692.75 L6.75 692.75 L6.75
							 696.5 L4.88 696.5 C4.25 696.5 3.75 697 3.75 697.62 C3.75 698.25 4.25 698.75 4.88 698.75 L17.62 698.75
							 C18.25 698.75 18.75 698.25 18.75 697.62 C18.75 697 18.25 696.5 17.62 696.5 L15.75 696.5 L15.75 692.75
							 L19.12 692.75 C20.99 692.75 22.5 691.24 22.5 689.37 L22.5 679.62 C22.5 677.76 20.99 676.25 19.12 676.25
							 L3.37 676.25 ZM13.5 696.5 L13.5 692.75 L9 692.75 L9 696.5 L13.5 696.5 Z" class="st25"/>
			</g>
		</g>
		<g id="shape1727-182" v:mID="1727" v:groupContext="shape" v:layerMember="2" transform="translate(46,-50.5)">
			<title>Sheet.1727</title>
			<desc>PCs include devices running the Windows or macOS platforms</desc>
			<v:userDefs>
				<v:ud v:nameU="visNavOrder" v:prompt="" v:val="VT0(44000):26"/>
			</v:userDefs>
			<v:textBlock v:margins="rect(4,4,4,4)" v:verticalAlign="0"/>
			<v:textRect cx="178.969" cy="689.75" width="357.95" height="18"/>
			<rect x="0" y="680.75" width="357.937" height="18" class="st12"/>
			<text x="4" y="693.75" class="st28" v:langID="1033"><v:paragraph/><v:tabList/>PCs<tspan class="st29"> </tspan><tspan
						class="st29">running on Windows or macOS platforms.</tspan></text>		</g>
		<g id="shape1728-187" v:mID="1728" v:groupContext="shape" transform="translate(46,-27.195)">
			<title>Sheet.1728</title>
			<desc>Phones and tablets include devices running the iOS, iPadOS, o...</desc>
			<v:userDefs>
				<v:ud v:nameU="visNavOrder" v:prompt="" v:val="VT0(45000):26"/>
			</v:userDefs>
			<v:textBlock v:margins="rect(4,4,4,4)" v:verticalAlign="0"/>
			<v:textRect cx="178.969" cy="686.75" width="357.95" height="24"/>
			<rect x="0" y="674.75" width="357.937" height="24" class="st12"/>
			<text x="4" y="687.75" class="st28" v:langID="1033"><v:paragraph/><v:tabList/>Mobile devices<tspan class="st29"> </tspan><tspan
						class="st29">running on iOS, iPadOS, or Android platforms.</tspan></text>		</g>
		<g id="shape1730-192" v:mID="1730" v:groupContext="shape" v:layerMember="2" transform="translate(489.063,-14.536)">
			<title>Sheet.1730</title>
			<desc>Requires Microsoft 365 E5, Microsoft 365 E3 with the E5 Ident...</desc>
			<v:userDefs>
				<v:ud v:nameU="visNavOrder" v:prompt="" v:val="VT0(47000):26"/>
			</v:userDefs>
			<v:textBlock v:margins="rect(0,0,0,0)" v:tabSpace="18" v:verticalAlign="0"/>
			<v:textRect cx="106.968" cy="671.768" width="213.94" height="53.964"/>
			<rect x="0" y="644.786" width="213.937" height="53.964" class="st12"/>
			<text x="-0" y="652.89" class="st30" v:langID="1033"><v:paragraph/><v:tabList/>Requires one of the following subscriptions:<v:newlineChar/><tspan
						x="-0" dy="1.2em" class="st11">• </tspan>Microsoft 365 E5<v:newlineChar/><tspan x="-0" dy="1.2em"
						class="st11">• </tspan>Microsoft 365 E3 with the E5 Identity add-on<v:newlineChar/><tspan x="-0" dy="1.2em"
						class="st11">• </tspan>Microsoft 365 with EMS E5<v:newlineChar/><tspan x="-0" dy="1.2em" class="st11">• </tspan>Individual Microsoft Entra ID P2 licenses</text>		</g>
		<g id="group2000-199" transform="translate(271.9,-404.976)" v:mID="2000" v:groupContext="group" v:layerMember="2;0">
			<v:userDefs>
				<v:ud v:nameU="visNavOrder" v:val="VT0(201000):26"/>
			</v:userDefs>
			<title>Sheet.2000</title>
			<g id="shape1719-200" v:mID="1719" v:groupContext="shape" v:layerMember="0;2">
				<title>Sheet.1719</title>
				<desc>Require multifactor authentication (MFA) when sign-in risk is...</desc>
				<v:userDefs>
					<v:ud v:nameU="visNavOrder" v:prompt="" v:val="VT0(142000):26"/>
				</v:userDefs>
				<v:textBlock v:margins="rect(6,6,6,6)" v:verticalAlign="0"/>
				<v:textRect cx="61.3076" cy="624.673" width="122.63" height="148.154"/>
				<g id="shadow1719-201" v:groupContext="shadow" v:shadowOffsetX="4.40873E-24" v:shadowOffsetY="-2" v:shadowType="1"
						v:shadowScale="1.01" transform="matrix(1.01,0,0,1.01,-0.61308,-4.24673)" class="st17">
					<rect x="0" y="550.596" width="122.616" height="148.154" rx="4.5" ry="4.5" class="st18"/>
				</g>
				<rect x="0" y="550.596" width="122.616" height="148.154" rx="4.5" ry="4.5" class="st19"/>
				<text x="6" y="566.05" class="st20" v:langID="1033"><v:paragraph v:spAfter="6"/><v:tabList/>Require multifactor <tspan
							x="6" dy="1.2em" class="st11">authentication (MFA) </tspan><tspan x="6" dy="1.2em" class="st11">when sign</tspan>-in risk is <tspan
							x="6" dy="1.2em" class="st26">Medium</tspan> or <tspan class="st26">High</tspan>.</text>			</g>
		</g>
		<g id="group2001-210" transform="translate(271.9,-242.975)" v:mID="2001" v:groupContext="group" v:layerMember="2;0">
			<v:userDefs>
				<v:ud v:nameU="visNavOrder" v:val="VT0(202000):26"/>
			</v:userDefs>
			<title>Sheet.2001</title>
			<g id="shape1717-211" v:mID="1717" v:groupContext="shape" v:layerMember="0;2">
				<title>Sheet.1717</title>
				<desc>Require MFA when sign-in risk is low, medium, or high</desc>
				<v:userDefs>
					<v:ud v:nameU="visNavOrder" v:prompt="" v:val="VT0(141000):26"/>
				</v:userDefs>
				<v:textBlock v:margins="rect(6,6,6,6)" v:verticalAlign="0"/>
				<v:textRect cx="61.3076" cy="624.674" width="122.63" height="148.154"/>
				<g id="shadow1717-212" v:groupContext="shadow" v:shadowOffsetX="4.40873E-24" v:shadowOffsetY="-2" v:shadowType="1"
						v:shadowScale="1.01" transform="matrix(1.01,0,0,1.01,-0.61308,-4.24673)" class="st17">
					<rect x="0" y="550.596" width="122.616" height="148.154" rx="4.5" ry="4.5" class="st18"/>
				</g>
				<rect x="0" y="550.596" width="122.616" height="148.154" rx="4.5" ry="4.5" class="st19"/>
				<text x="6" y="566.05" class="st20" v:langID="1033"><v:paragraph v:spAfter="6"/><v:tabList/>Require MFA when <v:lf/><tspan
							x="6" dy="1.2em" class="st11">sign</tspan>-in risk is <tspan class="st26">Low</tspan>, <tspan x="6"
							dy="1.2em" class="st26">Medium</tspan>, or <tspan class="st26">High</tspan>.</text>			</g>
		</g>
		<g id="group2002-221" transform="translate(798.556,-80.9763)" v:mID="2002" v:groupContext="group" v:layerMember="2;0">
			<v:userDefs>
				<v:ud v:nameU="visNavOrder" v:val="VT0(203000):26"/>
			</v:userDefs>
			<title>Sheet.2002</title>
			<g id="shape1699-222" v:mID="1699" v:groupContext="shape" v:layerMember="0;2">
				<title>Sheet.1699</title>
				<desc>High-risk users must change password This policy forces users...</desc>
				<v:userDefs>
					<v:ud v:nameU="visNavOrder" v:prompt="" v:val="VT0(126000):26"/>
				</v:userDefs>
				<v:textBlock v:margins="rect(6,6,6,6)" v:verticalAlign="0"/>
				<v:textRect cx="61.3077" cy="463.364" width="122.63" height="470.772"/>
				<g id="shadow1699-223" v:groupContext="shadow" v:shadowOffsetX="4.40873E-24" v:shadowOffsetY="-2" v:shadowType="1"
						v:shadowScale="1.01" transform="matrix(1.01,0,0,1.01,-0.61308,-2.63364)" class="st17">
					<rect x="0" y="227.978" width="122.616" height="470.772" rx="4.5" ry="4.5" class="st18"/>
				</g>
				<rect x="0" y="227.978" width="122.616" height="470.772" rx="4.5" ry="4.5" class="st19"/>
				<text x="6" y="243.43" class="st20" v:langID="1033"><v:paragraph v:spAfter="6"/><v:tabList/>High-risk users must <tspan
							x="6" dy="1.2em" class="st11">change password.<v:newlineChar/></tspan><tspan x="6" dy="1.771em"
							class="st23">Forces users to change </tspan><tspan x="6" dy="1.2em" class="st23">their password when </tspan><tspan
							x="6" dy="1.2em" class="st23">signing in if high</tspan><tspan class="st23">-</tspan><tspan
							class="st23">risk </tspan><tspan x="6" dy="1.2em" class="st23">activity is detected for </tspan><tspan
							x="6" dy="1.2em" class="st23">their account.</tspan></text>			</g>
		</g>
		<g id="group2004-236" transform="translate(55,-297.328)" v:mID="2004" v:groupContext="group" v:layerMember="2">
			<v:userDefs>
				<v:ud v:nameU="visNavOrder" v:val="VT0(204000):26"/>
			</v:userDefs>
			<title>Sheet.2004</title>
			<g id="shape1725-237" v:mID="1725" v:groupContext="shape" v:layerMember="2" transform="translate(0,-21.4493)">
				<title>Sheet.1725</title>
				<desc>Enterprise (Recommended for Zero Trust)</desc>
				<v:userDefs>
					<v:ud v:nameU="visNavOrder" v:prompt="" v:val="VT0(42000):26"/>
				</v:userDefs>
				<v:textBlock v:margins="rect(0,0,0,0)" v:verticalAlign="0"/>
				<v:textRect cx="53.9995" cy="689.75" width="108.02" height="18"/>
				<rect x="0" y="680.75" width="108" height="18" class="st12"/>
				<text x="-0.01" y="693.35" class="st14" v:langID="1033"><v:paragraph/><v:tabList/>Enterprise</text>			</g>
			<g id="shape1878-240" v:mID="1878" v:groupContext="shape" v:layerMember="2">
				<title>Sheet.1878</title>
				<desc>Enterprise (Recommended for Zero Trust)</desc>
				<v:userDefs>
					<v:ud v:nameU="visNavOrder" v:prompt="" v:val="VT0(148000):26"/>
				</v:userDefs>
				<v:textBlock v:margins="rect(0,0,0,0)" v:verticalAlign="0"/>
				<v:textRect cx="53.9995" cy="689.75" width="108.02" height="18"/>
				<rect x="0" y="680.75" width="108" height="18" class="st12"/>
				<text x="-0.01" y="688.44" class="st31" v:langID="1033"><v:paragraph v:spLine="-1"/><v:tabList/>(<tspan
							class="st32">Recommended for<v:newlineChar/></tspan><tspan x="-0.01" dy="1.006em" class="st32">Zero Trust)</tspan></text>			</g>
		</g>
		<g id="group2005-245" transform="translate(55,-125.875)" v:mID="2005" v:groupContext="group" v:layerMember="2">
			<v:userDefs>
				<v:ud v:nameU="visNavOrder" v:val="VT0(205000):26"/>
			</v:userDefs>
			<title>Sheet.2005</title>
			<g id="shape1686-246" v:mID="1686" v:groupContext="shape" v:layerMember="2" transform="translate(0,-20.736)">
				<title>Sheet.1686</title>
				<desc>Specialized security (only if needed for specific data sets o...</desc>
				<v:userDefs>
					<v:ud v:nameU="visNavOrder" v:prompt="" v:val="VT0(12000):26"/>
				</v:userDefs>
				<v:textBlock v:margins="rect(0,0,0,0)" v:verticalAlign="0"/>
				<v:textRect cx="53.9995" cy="680.994" width="108.02" height="35.5133"/>
				<rect x="0" y="663.237" width="108" height="35.5133" class="st12"/>
				<text x="-0.01" y="675.84" class="st14" v:langID="1033"><v:paragraph/><v:tabList/>Specialized <tspan x="-0.01"
							dy="1.2em" class="st11">security</tspan></text>			</g>
			<g id="shape1877-250" v:mID="1877" v:groupContext="shape" v:layerMember="2">
				<title>Sheet.1877</title>
				<desc>Specialized security (only if needed for specific data sets o...</desc>
				<v:userDefs>
					<v:ud v:nameU="visNavOrder" v:prompt="" v:val="VT0(147000):26"/>
				</v:userDefs>
				<v:textBlock v:margins="rect(0,0,0,0)" v:verticalAlign="0"/>
				<v:textRect cx="53.9995" cy="689.75" width="108.02" height="18"/>
				<rect x="0" y="680.75" width="108" height="18" class="st12"/>
				<text x="-0.01" y="688.44" class="st31" v:langID="1033"><v:paragraph v:spLine="-1"/><v:tabList/>(<tspan
							class="st32">only if needed for <v:lf/></tspan><tspan x="-0.01" dy="1.006em" class="st32">specific data sets or users)</tspan></text>			</g>
		</g>
		<g id="shape1966-255" v:mID="1966" v:groupContext="shape" transform="translate(374.5,-415)">
			<title>Sheet.1966</title>
			<v:userDefs>
				<v:ud v:nameU="visNavOrder" v:val="VT0(211000):26"/>
			</v:userDefs>
			<ellipse cx="4.5" cy="694.25" rx="4.5" ry="4.5" class="st33"/>
		</g>
		<g id="shape1967-257" v:mID="1967" v:groupContext="shape" transform="translate(374.5,-253)">
			<title>Sheet.1967</title>
			<v:userDefs>
				<v:ud v:nameU="visNavOrder" v:val="VT0(212000):26"/>
			</v:userDefs>
			<ellipse cx="4.5" cy="694.25" rx="4.5" ry="4.5" class="st33"/>
		</g>
		<g id="shape1968-259" v:mID="1968" v:groupContext="shape" transform="translate(901,-91)">
			<title>Sheet.1968</title>
			<v:userDefs>
				<v:ud v:nameU="visNavOrder" v:val="VT0(213000):26"/>
			</v:userDefs>
			<ellipse cx="4.5" cy="694.25" rx="4.5" ry="4.5" class="st33"/>
		</g>
		<g id="shape1969-261" v:mID="1969" v:groupContext="shape" transform="translate(473.5,-57.25)">
			<title>Sheet.1969</title>
			<v:userDefs>
				<v:ud v:nameU="visNavOrder" v:val="VT0(214000):26"/>
			</v:userDefs>
			<ellipse cx="4.5" cy="694.25" rx="4.5" ry="4.5" class="st33"/>
		</g>
	</g>
</svg>
